<svg width="24" height="24" viewBox="0 0 24 24" fill="none" xmlns="http://www.w3.org/2000/svg">
<path d="M10.7624 3.26267C11.4459 2.57794 12.554 2.57906 13.2373 3.26243L19.9443 9.96943C20.4598 10.4849 20.75 11.1846 20.75 11.9138V20.4998C20.75 20.914 20.4142 21.2498 20 21.2498H14.5C14.0858 21.2498 13.75 20.914 13.75 20.4998V15.9998C13.75 15.033 12.9668 14.2498 12 14.2498C11.0332 14.2498 10.25 15.033 10.25 15.9998V20.4998C10.25 20.914 9.91421 21.2498 9.5 21.2498H4C3.58579 21.2498 3.25 20.914 3.25 20.4998V11.9138C3.25 11.1846 3.54018 10.4849 4.05567 9.96943L10.7624 3.26267ZM12.1767 4.32309C12.0782 4.22461 11.9206 4.22559 11.824 4.32241L5.11633 11.0301C4.88182 11.2646 4.75 11.5829 4.75 11.9138V19.7498H8.75V15.9998C8.75 14.2045 10.2048 12.7498 12 12.7498C13.7952 12.7498 15.25 14.2045 15.25 15.9998V19.7498H19.25V11.9138C19.25 11.5829 19.1182 11.2646 18.8837 11.0301L12.1767 4.32309Z" fill="white"/>
</svg>
