<svg width="24" height="24" viewBox="0 0 24 24" fill="none" xmlns="http://www.w3.org/2000/svg">
<path d="M11.57 2.38558C11.8282 2.20481 12.172 2.20481 12.4302 2.38558L22.4302 9.38558C22.7695 9.62311 22.8521 10.0908 22.6145 10.4301C22.377 10.7694 21.9093 10.852 21.57 10.6144L20.7501 10.0405V21.0001C20.7501 21.4143 20.4143 21.7501 20.0001 21.7501H4.00006C3.58585 21.7501 3.25006 21.4143 3.25006 21.0001V10.0405L2.43016 10.6144C2.09082 10.852 1.62318 10.7694 1.38564 10.4301C1.1481 10.0908 1.23063 9.62311 1.56997 9.38558L11.57 2.38558ZM12.0001 3.91549L4.75006 8.99049V20.2501H8.25006V15C8.25006 13.4808 9.48085 12.25 11.0001 12.25H13.0001C14.5193 12.25 15.7501 13.4808 15.7501 15V20.2501H19.2501V8.99049L12.0001 3.91549ZM9.75006 20.2501H14.2501V15C14.2501 14.3092 13.6909 13.75 13.0001 13.75H11.0001C10.3093 13.75 9.75006 14.3092 9.75006 15V20.2501Z" fill="white"/>
</svg>
