<svg width="24" height="24" viewBox="0 0 24 24" fill="none" xmlns="http://www.w3.org/2000/svg">
<path d="M11.5271 2.41951C11.8034 2.19347 12.2007 2.1935 12.477 2.41959L20.7415 9.18314C21.3804 9.70507 21.75 10.4876 21.75 11.311V19C21.75 20.5192 20.5192 21.75 19 21.75H5C3.48079 21.75 2.25 20.5192 2.25 19V11.312C2.25 10.4879 2.61936 9.70516 3.25969 9.18302C3.25954 9.18315 3.25985 9.1829 3.25969 9.18302L11.5271 2.41951ZM12.0019 3.96907L4.20784 10.3454C3.91846 10.5812 3.75 10.9363 3.75 11.312V19C3.75 19.6908 4.30921 20.25 5 20.25H19C19.6908 20.25 20.25 19.6908 20.25 19V11.311C20.25 10.9364 20.0816 10.5809 19.7925 10.3449L12.0019 3.96907Z" fill="white"/>
</svg>
