<svg width="24" height="24" viewBox="0 0 24 24" fill="none" xmlns="http://www.w3.org/2000/svg">
<g clip-path="url(#clip0_7_1644)">
<mask id="mask0_7_1644" style="mask-type:luminance" maskUnits="userSpaceOnUse" x="0" y="0" width="24" height="24">
<path d="M24 0H0V24H24V0Z" fill="white"/>
</mask>
<g mask="url(#mask0_7_1644)">
<path d="M12.0002 2.30005C6.6002 2.30005 2.2002 6.70005 2.2002 12.1C2.2002 17.5 6.6002 21.9 12.0002 21.9C17.4002 21.9 21.8002 17.5 21.8002 12.1C21.8002 6.70005 17.4002 2.30005 12.0002 2.30005ZM12.0002 20.3C7.5002 20.3 3.8002 16.6 3.8002 12.1C3.8002 7.60005 7.5002 3.80005 12.0002 3.80005C16.5002 3.80005 20.2002 7.50005 20.2002 12C20.2002 16.5 16.5002 20.3 12.0002 20.3Z" fill="white"/>
<path d="M12.0002 7.10005C10.5002 7.10005 9.2002 8.30005 9.2002 9.90005C9.2002 10.3 9.5002 10.7 10.0002 10.7C10.5002 10.7 10.8002 10.4 10.8002 9.90005C10.8002 9.20005 11.4002 8.70005 12.0002 8.70005C12.6002 8.70005 13.2002 9.30005 13.2002 9.90005C13.2002 10.3 13.0002 10.5 12.5002 10.8C12.1002 11 11.2002 11.7001 11.2002 13V13.2C11.2002 13.6 11.5002 14 12.0002 14C12.5002 14 12.8002 13.7 12.8002 13.2V13C12.8002 12.6 13.0002 12.4 13.5002 12C13.9002 11.8 14.8002 11.1 14.8002 9.80005C14.8002 8.30005 13.5002 7.10005 12.0002 7.10005Z" fill="white"/>
<path d="M12.0002 15.3C11.7002 15.3 11.5002 15.4 11.3002 15.6C11.1002 15.7 11.0002 16 11.0002 16.3C11.0002 16.9 11.4002 17.3 12.0002 17.3C12.6002 17.3 13.0002 16.9 13.0002 16.3C13.0002 15.7 12.6002 15.3 12.0002 15.3Z" fill="white"/>
</g>
</g>
<defs>
<clipPath id="clip0_7_1644">
<rect width="24" height="24" fill="white"/>
</clipPath>
</defs>
</svg>
