<svg width="24" height="24" viewBox="0 0 24 24" fill="none" xmlns="http://www.w3.org/2000/svg">
<path d="M6.05549 6.55546C7.12944 5.48151 8.87063 5.48151 9.94458 6.55546C11.0185 7.62941 11.0185 9.3706 9.94458 10.4446C8.87063 11.5185 7.12944 11.5185 6.05549 10.4446C4.98154 9.3706 4.98154 7.62941 6.05549 6.55546ZM11.0052 5.4948C9.34551 3.83507 6.65456 3.83507 4.99483 5.4948C3.3351 7.15453 3.3351 9.84548 4.99483 11.5052C6.65456 13.1649 9.34551 13.1649 11.0052 11.5052C12.665 9.84548 12.665 7.15453 11.0052 5.4948ZM2.75 19C2.75 17.2052 4.20521 15.75 6 15.75H10C11.7948 15.75 13.25 17.2052 13.25 19C13.25 19.4142 13.5858 19.75 14 19.75C14.4142 19.75 14.75 19.4142 14.75 19C14.75 16.3768 12.6232 14.25 10 14.25H6C3.37679 14.25 1.25 16.3768 1.25 19C1.25 19.4142 1.58579 19.75 2 19.75C2.41421 19.75 2.75 19.4142 2.75 19ZM15.25 14C15.25 13.5858 15.5858 13.25 16 13.25H19C21.0712 13.25 22.75 14.9288 22.75 17C22.75 17.4142 22.4142 17.75 22 17.75C21.5858 17.75 21.25 17.4142 21.25 17C21.25 15.7572 20.2428 14.75 19 14.75H16C15.5858 14.75 15.25 14.4142 15.25 14ZM16.2626 7.26256C16.946 6.57915 18.054 6.57915 18.7375 7.26256C19.4209 7.94598 19.4209 9.05402 18.7375 9.73743C18.054 10.4209 16.946 10.4209 16.2626 9.73743C15.5792 9.05402 15.5792 7.94598 16.2626 7.26256ZM19.7981 6.2019C18.5289 4.9327 16.4711 4.9327 15.2019 6.2019C13.9327 7.47111 13.9327 9.52889 15.2019 10.7981C16.4711 12.0673 18.5289 12.0673 19.7981 10.7981C21.0673 9.52889 21.0673 7.47111 19.7981 6.2019Z" fill="white"/>
</svg>
