<svg width="24" height="24" viewBox="0 0 24 24" fill="none" xmlns="http://www.w3.org/2000/svg">
<path d="M10.3276 6.44269C11.2512 5.5191 12.7487 5.5191 13.6723 6.44269C14.5958 7.36628 14.5958 8.86371 13.6723 9.78731C12.7487 10.7109 11.2512 10.7109 10.3276 9.78731C9.40405 8.86372 9.40405 7.36629 10.3276 6.44269ZM14.7329 5.38203C13.2235 3.87266 10.7764 3.87266 9.26698 5.38203C7.75761 6.89141 7.7576 9.3386 9.26698 10.848C10.7764 12.3573 13.2235 12.3573 14.7329 10.848C16.2423 9.33859 16.2423 6.8914 14.7329 5.38203ZM18.4619 10.054C18.959 9.55687 19.765 9.55687 20.2622 10.054C20.7593 10.5511 20.7593 11.3572 20.2622 11.8543C19.765 12.3514 18.959 12.3514 18.4619 11.8543C17.9647 11.3572 17.9647 10.5511 18.4619 10.054ZM21.3228 8.99335C20.2399 7.91042 18.4841 7.91042 17.4012 8.99335C16.3183 10.0763 16.3183 11.832 17.4012 12.915C18.4841 13.9979 20.2399 13.9979 21.3228 12.915C22.4057 11.832 22.4057 10.0763 21.3228 8.99335ZM5.53816 10.054C5.04103 9.55687 4.23501 9.55687 3.73787 10.054C3.24074 10.5511 3.24074 11.3572 3.73787 11.8543C4.23501 12.3514 5.04103 12.3514 5.53816 11.8543C6.0353 11.3572 6.0353 10.5511 5.53816 10.054ZM2.67721 8.99335C3.76014 7.91042 5.5159 7.91042 6.59882 8.99335C7.68175 10.0763 7.68175 11.832 6.59882 12.915C5.5159 13.9979 3.76014 13.9979 2.67721 12.915C1.59429 11.832 1.59429 10.0763 2.67721 8.99335ZM19.699 14.6538C19.2848 14.6538 18.949 14.9896 18.949 15.4038C18.949 15.818 19.2848 16.1538 19.699 16.1538H20.5C21.4668 16.1538 22.25 16.937 22.25 17.9038V18.9998C22.25 19.414 22.5858 19.7498 23 19.7498C23.4142 19.7498 23.75 19.414 23.75 18.9998V17.9038C23.75 16.1086 22.2952 14.6538 20.5 14.6538H19.699ZM3.5 16.1538C2.53321 16.1538 1.75 16.937 1.75 17.9038V18.9998C1.75 19.414 1.41421 19.7498 1 19.7498C0.585786 19.7498 0.25 19.414 0.25 18.9998V17.9038C0.25 16.1086 1.70479 14.6538 3.5 14.6538H4.301C4.71521 14.6538 5.051 14.9896 5.051 15.4038C5.051 15.818 4.71521 16.1538 4.301 16.1538H3.5ZM10.16 13.1489C7.81279 13.1489 5.91 15.0517 5.91 17.3989V18.9999C5.91 19.4141 6.24579 19.7499 6.66 19.7499C7.07422 19.7499 7.41 19.4141 7.41 18.9999V17.3989C7.41 15.8801 8.64122 14.6489 10.16 14.6489H13.839C15.3578 14.6489 16.589 15.8801 16.589 17.3989V18.9999C16.589 19.4141 16.9248 19.7499 17.339 19.7499C17.7532 19.7499 18.089 19.4141 18.089 18.9999V17.3989C18.089 15.0517 16.1862 13.1489 13.839 13.1489H10.16Z" fill="white"/>
</svg>
