<svg width="24" height="24" viewBox="0 0 24 24" fill="none" xmlns="http://www.w3.org/2000/svg">
<path d="M11.9389 3.55311C10.868 2.4823 9.13191 2.4823 8.06109 3.55311C6.99028 4.62393 6.99028 6.36007 8.06109 7.43088C9.13191 8.5017 10.868 8.5017 11.9389 7.43088C13.0097 6.36007 13.0097 4.62393 11.9389 3.55311ZM7.00043 2.49245C8.65704 0.83585 11.3429 0.83585 12.9995 2.49245C14.6561 4.14906 14.6561 6.83494 12.9995 8.49154C11.3429 10.1481 8.65704 10.1481 7.00043 8.49154C5.34383 6.83494 5.34383 4.14906 7.00043 2.49245ZM4.10462 12.7047C5.73203 11.7571 7.86705 11.2412 10 11.2412C11.4876 11.2412 12.9676 11.493 14.2752 11.9612C15.0928 11.5083 16.0248 11.249 17.0045 11.25C20.1785 11.2525 22.75 13.8262 22.75 17C22.75 20.1751 20.1763 22.75 17 22.75C14.8139 22.75 12.9124 21.53 11.9398 19.7332H3C2.03379 19.7332 1.25 18.9494 1.25 17.9832V16.9832C1.25 15.1019 2.48403 13.6483 4.10462 12.7047ZM13.1266 18.7516C13.7939 20.2252 15.2774 21.25 17 21.25C19.3477 21.25 21.25 19.3469 21.25 17C21.25 14.6539 19.3491 12.7517 17.0032 12.75C16.2341 12.7491 15.5016 12.9701 14.8681 13.3509C14.8054 13.4079 14.7337 13.4535 14.6566 13.4863C13.5195 14.2616 12.75 15.5667 12.75 17C12.75 17.5744 12.8639 18.1222 13.0704 18.622C13.093 18.663 13.1119 18.7064 13.1266 18.7516ZM12.8284 13.0879C11.9364 12.8627 10.9734 12.7412 10 12.7412C8.08495 12.7412 6.21997 13.2088 4.85938 14.001C3.49197 14.7971 2.75 15.8395 2.75 16.9832V17.9832C2.75 18.121 2.86221 18.2332 3 18.2332H11.3825C11.2957 17.836 11.25 17.4233 11.25 17C11.25 15.5061 11.8551 14.123 12.8284 13.0879ZM16.6411 13.5752C16.9343 13.2825 17.4092 13.2829 17.7018 13.5761L18.2798 14.1551C18.5721 14.4479 18.5721 14.922 18.2798 15.2148L18.1935 15.3013C18.1904 15.3045 18.1872 15.3078 18.184 15.311C18.1817 15.3132 18.1794 15.3155 18.1771 15.3177L17.7018 15.7938C17.4092 16.087 16.9343 16.0874 16.6411 15.7947C16.5627 15.7164 16.5052 15.625 16.4687 15.5276C15.8658 15.7452 15.435 16.3225 15.435 17.0001C15.435 17.1218 15.4534 17.248 15.4884 17.3845C15.5915 17.7857 15.3498 18.1944 14.9486 18.2975C14.5474 18.4005 14.1386 18.1588 14.0356 17.7576C13.9766 17.5281 13.935 17.2743 13.935 17.0001C13.935 15.5026 15.0093 14.255 16.4303 13.9879C16.4543 13.8368 16.5245 13.6916 16.6411 13.5752ZM17.5314 18.4723C17.4949 18.3748 17.4374 18.2834 17.3589 18.2051C17.0657 17.9124 16.5909 17.9128 16.2982 18.206L15.8169 18.6881C15.8154 18.6896 15.8139 18.6911 15.8124 18.6926L15.7202 18.785C15.4279 19.0778 15.4279 19.5519 15.7202 19.8447L16.2982 20.4237C16.5909 20.7169 17.0657 20.7173 17.3589 20.4246C17.4754 20.3083 17.5457 20.1631 17.5697 20.012C18.9907 19.745 20.065 18.4974 20.065 16.9999C20.065 16.7251 20.0232 16.4713 19.9625 16.2396C19.8574 15.8389 19.4474 15.5993 19.0467 15.7044C18.6461 15.8095 18.4065 16.2195 18.5115 16.6202C18.5468 16.7545 18.565 16.8786 18.565 16.9999C18.565 17.6774 18.1343 18.2547 17.5314 18.4723Z" fill="white"/>
</svg>
