<svg width="24" height="24" viewBox="0 0 24 24" fill="none" xmlns="http://www.w3.org/2000/svg">
<path d="M11.9389 3.55311C10.8681 2.4823 9.13193 2.4823 8.06111 3.55311C6.99029 4.62393 6.99029 6.36007 8.06111 7.43088C9.13193 8.5017 10.8681 8.5017 11.9389 7.43088C13.0097 6.36007 13.0097 4.62393 11.9389 3.55311ZM7.00045 2.49245C8.65705 0.83585 11.3429 0.83585 12.9995 2.49245C14.6561 4.14906 14.6561 6.83494 12.9995 8.49154C11.3429 10.1481 8.65705 10.1481 7.00045 8.49154C5.34384 6.83494 5.34384 4.14906 7.00045 2.49245ZM4.10462 12.7047C5.73203 11.7571 7.86705 11.2412 10 11.2412C11.4876 11.2412 12.9676 11.493 14.2752 11.9612C15.0928 11.5083 16.0248 11.249 17.0045 11.25C20.1785 11.2525 22.75 13.8262 22.75 17C22.75 20.1751 20.1763 22.75 17 22.75C14.8139 22.75 12.9124 21.53 11.9398 19.7332H3C2.03379 19.7332 1.25 18.9494 1.25 17.9832V16.9832C1.25 15.1019 2.48403 13.6483 4.10462 12.7047ZM13.1266 18.7516C13.7939 20.2252 15.2774 21.25 17 21.25C19.3477 21.25 21.25 19.3469 21.25 17C21.25 14.6539 19.3491 12.7517 17.0032 12.75C16.2341 12.7491 15.5016 12.9701 14.8681 13.3509C14.8054 13.4079 14.7337 13.4535 14.6566 13.4863C13.5195 14.2616 12.75 15.5667 12.75 17C12.75 17.5744 12.8639 18.1222 13.0704 18.622C13.093 18.663 13.1119 18.7064 13.1266 18.7516ZM12.8284 13.0879C11.9364 12.8627 10.9734 12.7412 10 12.7412C8.08495 12.7412 6.21997 13.2088 4.85938 14.001C3.49197 14.7971 2.75 15.8395 2.75 16.9832V17.9832C2.75 18.121 2.86221 18.2332 3 18.2332H11.3825C11.2957 17.836 11.25 17.4233 11.25 17C11.25 15.5061 11.8551 14.123 12.8284 13.0879ZM17.5942 15.8277C18.0637 16.2972 18.0813 17.0476 17.6469 17.5381C17.6272 17.5542 17.6081 17.5714 17.5897 17.5898C17.5713 17.6081 17.5541 17.6272 17.538 17.6469C17.0475 18.0812 16.2973 18.0636 15.8278 17.5941C15.3401 17.1063 15.3401 16.3155 15.8278 15.8277C16.3156 15.34 17.1064 15.34 17.5942 15.8277ZM19.1119 18.0513C19.6969 17.0047 19.5446 15.6568 18.6548 14.7671C17.5813 13.6935 15.8407 13.6935 14.7672 14.7671C13.6936 15.8406 13.6936 17.5812 14.7672 18.6547C15.6568 19.5444 17.0046 19.6968 18.0511 19.1119L18.4697 19.5304C18.7626 19.8233 19.2374 19.8233 19.5303 19.5304C19.8232 19.2376 19.8232 18.7627 19.5303 18.4698L19.1119 18.0513Z" fill="white"/>
</svg>
