<svg width="24" height="24" viewBox="0 0 24 24" fill="none" xmlns="http://www.w3.org/2000/svg">
<g clip-path="url(#clip0_7_2760)">
<mask id="mask0_7_2760" style="mask-type:luminance" maskUnits="userSpaceOnUse" x="0" y="0" width="24" height="24">
<path d="M24 0H0V24H24V0Z" fill="white"/>
</mask>
<g mask="url(#mask0_7_2760)">
<path d="M10.0002 9.70001C11.1002 9.70001 12.2002 9.30001 13.0002 8.50001C14.7002 6.80001 14.7002 4.20001 13.0002 2.50001C11.3002 0.800006 8.7002 0.800006 7.0002 2.50001C5.30019 4.20001 5.30019 6.80001 7.0002 8.50001C7.80019 9.30001 8.90019 9.70001 10.0002 9.70001ZM8.1002 3.60001C8.6002 3.00001 9.30019 2.80001 10.0002 2.80001C10.7002 2.80001 11.4002 3.10001 11.9002 3.60001C13.0002 4.70001 13.0002 6.40001 11.9002 7.50001C10.8002 8.60001 9.10019 8.60001 8.0002 7.50001C7.0002 6.40001 7.0002 4.60001 8.1002 3.60001Z" fill="white"/>
<path d="M17.0002 11.3C16.0002 11.3 15.1002 11.6 14.3002 12C13.0002 11.5 11.5002 11.3 10.0002 11.3C5.7002 11.3 1.2002 13.4 1.2002 17V18C1.2002 19 2.0002 19.8 3.0002 19.8H11.9002C12.9002 21.6 14.8002 22.8 17.0002 22.8C20.2002 22.8 22.8002 20.2 22.8002 17C22.8002 13.8 20.2002 11.3 17.0002 11.3ZM3.0002 18.2C2.9002 18.2 2.8002 18.1 2.8002 18V17C2.8002 14.4 6.6002 12.8 10.0002 12.8C11.0002 12.8 11.9002 12.9 12.8002 13.2C11.8002 14.3 11.2002 15.7 11.2002 17.1C11.2002 17.5 11.2002 17.9 11.3002 18.3H3.0002V18.2ZM17.0002 21.3C14.7002 21.3 12.8002 19.4 12.8002 17.1C12.8002 16 13.3002 14.9 14.1002 14.1C14.3002 13.9 14.5002 13.7 14.7002 13.6C15.4002 13.1 16.2002 12.9 17.0002 12.9C19.3002 12.9 21.2002 14.8 21.2002 17.1C21.2002 19.3 19.3002 21.3 17.0002 21.3Z" fill="white"/>
<path d="M19.4002 15.6C19.2002 15.2 18.7002 15.1 18.4002 15.3H18.3002C18.1002 15.2 17.9002 15.1 17.8002 15C17.8002 14.6 17.5002 14.2 17.0002 14.2C16.5002 14.2 16.2002 14.5 16.2002 15V15.1C16.0002 15.2 15.8002 15.3 15.7002 15.4H15.6002C15.2002 15.2 14.8002 15.3 14.6002 15.7C14.4002 16.1 14.5002 16.5 14.9002 16.7C14.9002 16.9 14.9002 17.1 14.9002 17.3C14.5002 17.5 14.4002 18 14.6002 18.3C14.7002 18.5 15.0002 18.7 15.3002 18.7C15.4002 18.7 15.6002 18.7 15.7002 18.6H15.8002C16.0002 18.7 16.2002 18.8 16.3002 18.9V19C16.3002 19.4 16.6002 19.8 17.1002 19.8C17.6002 19.8 17.9002 19.5 17.9002 19V18.9C18.1002 18.8 18.3002 18.7 18.4002 18.6H18.5002C18.6002 18.7 18.7002 18.7 18.9002 18.7C19.2002 18.7 19.4002 18.6 19.6002 18.3C19.8002 17.9 19.7002 17.5 19.3002 17.3H19.2002C19.2002 17.1 19.2002 16.9 19.2002 16.7H19.3002C19.5002 16.4 19.6002 16 19.4002 15.6ZM17.0002 17.6C16.8002 17.6 16.7002 17.5 16.6002 17.4C16.4002 17.2 16.4002 16.8 16.6002 16.6C16.7002 16.5 16.9002 16.4 17.0002 16.4C17.1002 16.4 17.3002 16.5 17.4002 16.6C17.6002 16.8 17.6002 17.2 17.4002 17.4C17.3002 17.5 17.2002 17.6 17.0002 17.6Z" fill="white"/>
</g>
</g>
<defs>
<clipPath id="clip0_7_2760">
<rect width="24" height="24" fill="white"/>
</clipPath>
</defs>
</svg>
