<svg width="24" height="24" viewBox="0 0 24 24" fill="none" xmlns="http://www.w3.org/2000/svg">
<path d="M8.0611 3.55311C9.13192 2.4823 10.8681 2.4823 11.9389 3.55311C13.0097 4.62393 13.0097 6.36007 11.9389 7.43088C10.8681 8.5017 9.13192 8.5017 8.0611 7.43088C6.99028 6.36007 6.99028 4.62393 8.0611 3.55311ZM12.9995 2.49245C11.3429 0.83585 8.65704 0.83585 7.00044 2.49245C5.34384 4.14906 5.34384 6.83494 7.00044 8.49154C8.65704 10.1481 11.3429 10.1481 12.9995 8.49154C14.6561 6.83494 14.6561 4.14906 12.9995 2.49245ZM10 11.2412C7.86705 11.2412 5.73203 11.7571 4.10462 12.7047C2.48403 13.6483 1.25 15.1019 1.25 16.9832V17.9832C1.25 18.9494 2.03379 19.7332 3 19.7332H11.9398C12.9124 21.53 14.8139 22.75 17 22.75C20.1763 22.75 22.75 20.1751 22.75 17C22.75 13.8262 20.1788 11.2525 17.0048 11.25C16.0251 11.249 15.0928 11.5083 14.2752 11.9612C12.9676 11.493 11.4876 11.2412 10 11.2412ZM13.0704 18.622C12.8639 18.1222 12.75 17.5744 12.75 17C12.75 15.5667 13.5195 14.2616 14.6566 13.4863C14.7337 13.4535 14.8054 13.4079 14.8681 13.3509C15.5016 12.9701 16.2344 12.7491 17.0035 12.75C19.3494 12.7517 21.25 14.6539 21.25 17C21.25 19.3469 19.3477 21.25 17 21.25C15.2774 21.25 13.7939 20.2252 13.1266 18.7516C13.1119 18.7064 13.093 18.663 13.0704 18.622ZM11.25 17C11.25 17.4233 11.2957 17.836 11.3825 18.2332H3C2.86221 18.2332 2.75 18.121 2.75 17.9832V16.9832C2.75 15.8395 3.49197 14.7971 4.85938 14.001C6.21997 13.2088 8.08495 12.7412 10 12.7412C10.9734 12.7412 11.9364 12.8627 12.8284 13.0879C11.8551 14.123 11.25 15.5061 11.25 17ZM17.238 14.938C17.238 14.5238 16.9022 14.188 16.488 14.188C16.0738 14.188 15.738 14.5238 15.738 14.938V16.961C15.738 17.3752 16.0738 17.711 16.488 17.711H18.512C18.9262 17.711 19.262 17.3752 19.262 16.961C19.262 16.5468 18.9262 16.211 18.512 16.211H17.238V14.938Z" fill="white"/>
</svg>
