<svg width="24" height="24" viewBox="0 0 24 24" fill="none" xmlns="http://www.w3.org/2000/svg">
<path d="M5.2766 5.51256C5.96002 4.82915 7.06805 4.82915 7.75147 5.51256C8.43489 6.19598 8.43489 7.30402 7.75147 7.98743C7.06805 8.67085 5.96002 8.67085 5.2766 7.98743C4.59318 7.30402 4.59318 6.19598 5.2766 5.51256ZM8.81213 4.4519C7.54293 3.1827 5.48515 3.1827 4.21594 4.4519C2.94674 5.72111 2.94674 7.77889 4.21594 9.04809C5.48514 10.3173 7.54293 10.3173 8.81213 9.04809C10.0813 7.77889 10.0813 5.72111 8.81213 4.4519ZM16.2486 5.51256C16.932 4.82915 18.0401 4.82915 18.7235 5.51256C19.4069 6.19598 19.4069 7.30402 18.7235 7.98743C18.0401 8.67085 16.932 8.67085 16.2486 7.98743C15.5652 7.30402 15.5652 6.19598 16.2486 5.51256ZM19.7841 4.4519C18.5149 3.1827 16.4571 3.1827 15.1879 4.4519C13.9187 5.72111 13.9187 7.77889 15.1879 9.04809C16.4571 10.3173 18.5149 10.3173 19.7841 9.04809C21.0533 7.77889 21.0533 5.72111 19.7841 4.4519ZM10.7626 11.5126C11.446 10.8291 12.554 10.8291 13.2375 11.5126C13.9209 12.196 13.9209 13.304 13.2375 13.9874C12.554 14.6709 11.446 14.6709 10.7626 13.9874C10.0792 13.304 10.0792 12.196 10.7626 11.5126ZM14.2981 10.4519C13.0289 9.1827 10.9711 9.1827 9.70196 10.4519C8.43276 11.7211 8.43276 13.7789 9.70196 15.0481C10.9711 16.3173 13.0289 16.3173 14.2981 15.0481C15.5673 13.7789 15.5673 11.7211 14.2981 10.4519ZM17.25 12.25C17.25 11.8358 17.5858 11.5 18 11.5C19.6942 11.5 21.3286 12.0854 22.4685 12.9973C22.792 13.2561 22.8444 13.7281 22.5857 14.0515C22.3269 14.375 21.8549 14.4274 21.5315 14.1687C20.6714 13.4806 19.3718 13 18 13C17.5858 13 17.25 12.6642 17.25 12.25ZM6.00003 13C4.62827 13 3.32866 13.4806 2.46855 14.1687C2.1451 14.4274 1.67313 14.375 1.41438 14.0515C1.15562 13.7281 1.20806 13.2561 1.53151 12.9973C2.6714 12.0854 4.30578 11.5 6.00003 11.5C6.41424 11.5 6.75003 11.8358 6.75003 12.25C6.75003 12.6642 6.41424 13 6.00003 13ZM12 17.5C10.0882 17.5 8.25144 18.1504 6.9502 19.1567C6.62254 19.4101 6.56235 19.8812 6.81576 20.2088C7.06916 20.5365 7.54021 20.5967 7.86786 20.3433C8.89663 19.5476 10.4078 19 12 19C13.5922 19 15.1034 19.5476 16.1322 20.3433C16.4598 20.5967 16.9309 20.5365 17.1843 20.2088C17.4377 19.8812 17.3775 19.4101 17.0498 19.1567C15.7486 18.1504 13.9118 17.5 12 17.5Z" fill="white"/>
</svg>
