<svg width="24" height="24" viewBox="0 0 24 24" fill="none" xmlns="http://www.w3.org/2000/svg">
<path d="M14.7626 7.26256C15.446 6.57915 16.5541 6.57915 17.2375 7.26256C17.9209 7.94598 17.9209 9.05402 17.2375 9.73743C16.5541 10.4209 15.446 10.4209 14.7626 9.73743C14.0792 9.05402 14.0792 7.94598 14.7626 7.26256ZM18.2981 6.2019C17.0289 4.9327 14.9711 4.9327 13.7019 6.2019C12.4327 7.47111 12.4327 9.52889 13.7019 10.7981C14.9711 12.0673 17.0289 12.0673 18.2981 10.7981C19.5673 9.52889 19.5673 7.47111 18.2981 6.2019ZM6.61612 8.11612C7.10427 7.62796 7.89573 7.62796 8.38389 8.11612C8.87204 8.60427 8.87204 9.39573 8.38389 9.88389C7.89573 10.372 7.10427 10.372 6.61612 9.88389C6.12796 9.39573 6.12796 8.60427 6.61612 8.11612ZM9.44455 7.05546C8.3706 5.98151 6.6294 5.98151 5.55546 7.05546C4.48151 8.1294 4.48151 9.8706 5.55546 10.9445C6.6294 12.0185 8.3706 12.0185 9.44455 10.9445C10.5185 9.8706 10.5185 8.1294 9.44455 7.05546ZM10.75 17C10.75 14.9288 12.4288 13.25 14.5 13.25H17.5C19.5712 13.25 21.25 14.9288 21.25 17V18C21.25 18.4142 20.9142 18.75 20.5 18.75C20.0858 18.75 19.75 18.4142 19.75 18V17C19.75 15.7572 18.7428 14.75 17.5 14.75H14.5C13.2572 14.75 12.25 15.7572 12.25 17V18C12.25 18.4142 11.9142 18.75 11.5 18.75C11.0858 18.75 10.75 18.4142 10.75 18V17ZM6.5 13.25C4.42879 13.25 2.75 14.9288 2.75 17V18C2.75 18.4142 3.08579 18.75 3.5 18.75C3.91421 18.75 4.25 18.4142 4.25 18V17C4.25 15.7572 5.25721 14.75 6.5 14.75H8.5C8.91421 14.75 9.25 14.4142 9.25 14C9.25 13.5858 8.91421 13.25 8.5 13.25H6.5Z" fill="white"/>
</svg>
