<svg width="24" height="24" viewBox="0 0 24 24" fill="none" xmlns="http://www.w3.org/2000/svg">
<path d="M10.0555 5.05546C11.1294 3.98151 12.8706 3.98151 13.9446 5.05546C15.0185 6.12941 15.0185 7.8706 13.9446 8.94455C12.8706 10.0185 11.1294 10.0185 10.0555 8.94455C8.98154 7.8706 8.98154 6.12941 10.0555 5.05546ZM15.0052 3.9948C13.3455 2.33507 10.6546 2.33507 8.99483 3.9948C7.3351 5.65453 7.3351 8.34548 8.99483 10.0052C10.6546 11.6649 13.3455 11.6649 15.0052 10.0052C16.665 8.34548 16.665 5.65453 15.0052 3.9948ZM12 12.7578C9.86712 12.7578 7.7321 13.2735 6.10466 14.2209C4.48397 15.1644 3.25 16.6181 3.25 18.4998V19.4998C3.25 20.466 4.03379 21.2498 5 21.2498H19C19.9662 21.2498 20.75 20.466 20.75 19.4998V18.4998C20.75 16.6181 19.516 15.1644 17.8953 14.2209C16.2679 13.2735 14.1329 12.7578 12 12.7578ZM4.75 18.4998C4.75 17.3555 5.49203 16.3132 6.85934 15.5172C8.2199 14.7252 10.0849 14.2578 12 14.2578C13.9151 14.2578 15.7801 14.7252 17.1407 15.5172C18.508 16.3132 19.25 17.3555 19.25 18.4998V19.4998C19.25 19.6376 19.1378 19.7498 19 19.7498H5C4.86221 19.7498 4.75 19.6376 4.75 19.4998V18.4998Z" fill="white"/>
</svg>
