<svg width="24" height="24" viewBox="0 0 24 24" fill="none" xmlns="http://www.w3.org/2000/svg">
<path d="M17.8336 6.16637C14.6118 2.94454 9.3882 2.94454 6.16637 6.16637C2.94454 9.38818 2.94454 14.6118 6.16637 17.8336C6.23174 17.899 6.29793 17.963 6.36492 18.0257C7.32583 16.3124 9.58763 15.25 11.9999 15.25C14.4122 15.25 16.6741 16.3124 17.635 18.0258C17.702 17.9631 17.7682 17.899 17.8336 17.8336C21.0554 14.6118 21.0554 9.3882 17.8336 6.16637ZM11.9999 16.75C9.75506 16.75 8.10974 17.789 7.57469 18.9648C10.266 20.6784 13.7338 20.6784 16.4252 18.9648C15.8901 17.789 14.2448 16.75 11.9999 16.75ZM5.10571 5.10571C8.91332 1.2981 15.0866 1.2981 18.8942 5.10571C22.7018 8.91332 22.7018 15.0867 18.8942 18.8943C15.0866 22.7019 8.9133 22.7019 5.10571 18.8943C1.2981 15.0867 1.2981 8.9133 5.10571 5.10571ZM10.4089 8.40901C11.2876 7.53033 12.7122 7.53033 13.5909 8.40901C14.4695 9.28768 14.4695 10.7123 13.5909 11.591C12.7122 12.4697 11.2876 12.4697 10.4089 11.591C9.53025 10.7123 9.53025 9.28768 10.4089 8.40901ZM14.6515 7.34835C13.1871 5.88388 10.8127 5.88388 9.34827 7.34835C7.88381 8.81281 7.88381 11.1872 9.34827 12.6516C10.8127 14.1161 13.1871 14.1161 14.6515 12.6516C16.116 11.1872 16.116 8.81281 14.6515 7.34835Z" fill="white"/>
</svg>
