<svg width="24" height="24" viewBox="0 0 24 24" fill="none" xmlns="http://www.w3.org/2000/svg">
<g clip-path="url(#clip0_7_2874)">
<mask id="mask0_7_2874" style="mask-type:luminance" maskUnits="userSpaceOnUse" x="0" y="0" width="24" height="24">
<path d="M24 0H0V24H24V0Z" fill="white"/>
</mask>
<g mask="url(#mask0_7_2874)">
<path d="M16.0002 17.3C16.2002 17.7 16.6002 17.9 17.0002 17.7C17.4002 17.5 17.6002 17.1 17.4002 16.7L17.1002 16C16.9002 15.5 16.6002 15.1 16.3002 14.8C15.7002 14.2 14.9002 13.9 14.0002 13.9H10.0002C9.1002 13.9 8.3002 14.2 7.7002 14.8C7.3002 15.1 7.0002 15.6 6.9002 16L6.6002 16.7C6.4002 17.1 6.6002 17.5 7.0002 17.7C7.1002 17.7 7.2002 17.8 7.3002 17.8C7.6002 17.8 7.9002 17.6 8.0002 17.3L8.3002 16.6C8.4002 16.3 8.6002 16.1 8.8002 15.9C9.1002 15.6 9.6002 15.4 10.1002 15.4H14.0002C14.5002 15.4 14.9002 15.6 15.3002 15.9C15.5002 16.1 15.7002 16.3 15.8002 16.6L16.0002 17.3Z" fill="white"/>
<path d="M12.0002 13.3C12.9002 13.3 13.8002 12.9 14.5002 12.3C15.2002 11.6 15.5002 10.8 15.5002 9.8C15.5002 8.8 15.1002 8 14.5002 7.3C13.1002 5.9 10.9002 5.9 9.6002 7.3C8.2002 8.7 8.2002 10.9 9.6002 12.2C10.2002 12.9 11.1002 13.3 12.0002 13.3ZM10.6002 8.3C11.0002 7.9 11.5002 7.8 12.0002 7.8C12.5002 7.8 13.0002 8 13.4002 8.4C13.8002 8.7 14.0002 9.2 14.0002 9.8C14.0002 10.4 13.8002 10.8 13.4002 11.2C12.6002 12 11.3002 12 10.6002 11.2C9.8002 10.4 9.8002 9.1 10.6002 8.3Z" fill="white"/>
<path d="M3.0002 8.3C3.4002 8.3 3.8002 8 3.8002 7.5V5C3.8002 4.3 4.4002 3.8 5.0002 3.8H7.60019C8.0002 3.8 8.3002 3.4 8.3002 3C8.3002 2.6 8.0002 2.3 7.60019 2.3H5.0002C3.5002 2.3 2.2002 3.5 2.2002 5V7.6C2.2002 8 2.6002 8.3 3.0002 8.3Z" fill="white"/>
<path d="M21.0002 15.7C20.6002 15.7 20.2002 16 20.2002 16.5V19C20.2002 19.7 19.6002 20.2 19.0002 20.2H16.4002C16.0002 20.2 15.6002 20.5 15.6002 21C15.6002 21.5 15.9002 21.8 16.4002 21.8H19.0002C20.5002 21.8 21.8002 20.6 21.8002 19V16.4C21.8002 16 21.4002 15.7 21.0002 15.7Z" fill="white"/>
<path d="M7.60019 20.3H5.0002C4.3002 20.3 3.8002 19.7 3.8002 19.1V16.5C3.8002 16.1 3.5002 15.7 3.0002 15.7C2.5002 15.7 2.2002 16 2.2002 16.4V19C2.2002 20.5 3.4002 21.8 5.0002 21.8H7.60019C8.0002 21.8 8.4002 21.5 8.4002 21C8.4002 20.5 8.0002 20.3 7.60019 20.3Z" fill="white"/>
<path d="M19.0002 2.3H16.4002C16.0002 2.3 15.6002 2.6 15.6002 3.1C15.6002 3.6 15.9002 3.9 16.4002 3.9H19.0002C19.7002 3.9 20.2002 4.5 20.2002 5.1V7.7C20.2002 8.1 20.5002 8.5 21.0002 8.5C21.5002 8.5 21.8002 8.2 21.8002 7.7V5C21.8002 3.5 20.5002 2.3 19.0002 2.3Z" fill="white"/>
</g>
</g>
<defs>
<clipPath id="clip0_7_2874">
<rect width="24" height="24" fill="white"/>
</clipPath>
</defs>
</svg>
