<svg width="24" height="24" viewBox="0 0 24 24" fill="none" xmlns="http://www.w3.org/2000/svg">
<g clip-path="url(#clip0_7_2836)">
<mask id="mask0_7_2836" style="mask-type:luminance" maskUnits="userSpaceOnUse" x="0" y="0" width="24" height="24">
<path d="M24 0H0V24H24V0Z" fill="white"/>
</mask>
<g mask="url(#mask0_7_2836)">
<path d="M8.2002 16.6H4.6002C2.2002 16.6 0.200195 18.6 0.200195 21C0.200195 21.4 0.500195 21.8 1.0002 21.8C1.5002 21.8 1.8002 21.5 1.8002 21C1.8002 19.4 3.1002 18.1 4.7002 18.1H8.3002C9.9002 18.1 11.2002 19.4 11.2002 21C11.2002 21.4 11.5002 21.8 12.0002 21.8C12.5002 21.8 12.8002 21.5 12.8002 21C12.6002 18.6 10.6002 16.6 8.2002 16.6Z" fill="white"/>
<path d="M6.4002 15.4C7.4002 15.4 8.4002 15 9.2002 14.3C10.7002 12.8 10.7002 10.3 9.2002 8.80001C7.7002 7.30001 5.2002 7.30001 3.7002 8.80001C2.2002 10.3 2.2002 12.8 3.7002 14.3C4.4002 15 5.4002 15.4 6.4002 15.4ZM4.7002 9.80001C5.2002 9.30001 5.80019 9.10001 6.4002 9.10001C7.0002 9.10001 7.6002 9.30001 8.1002 9.80001C9.0002 10.7 9.0002 12.3 8.1002 13.2C7.2002 14.1 5.60019 14.1 4.7002 13.2C3.8002 12.3 3.8002 10.7 4.7002 9.80001Z" fill="white"/>
<path d="M23.8002 8.90001C23.8002 5.80001 21.3002 3.20001 18.1002 3.20001C15.0002 3.20001 12.4002 5.70001 12.4002 8.90001C12.4002 9.60001 12.5002 10.4 12.8002 11.1L12.2002 13.9C12.1002 14.1 12.2002 14.4 12.4002 14.6C12.5002 14.7 12.7002 14.8 12.9002 14.8C13.0002 14.8 13.0002 14.8 13.1002 14.8L15.9002 14.2C16.6002 14.5 17.3002 14.6 18.0002 14.6C21.2002 14.5 23.8002 12 23.8002 8.90001ZM18.1002 13.1C17.5002 13.1 16.9002 13 16.4002 12.7C16.3002 12.6 16.1002 12.6 15.9002 12.6L14.0002 13L14.4002 11.1C14.4002 10.9 14.4002 10.8 14.3002 10.6C14.0002 10 13.9002 9.50001 13.9002 8.80001C13.9002 6.50001 15.8002 4.60001 18.1002 4.60001C20.4002 4.60001 22.3002 6.50001 22.3002 8.80001C22.3002 11.1 20.4002 13.1 18.1002 13.1Z" fill="white"/>
<path d="M15.8002 8.20001C15.6002 8.20001 15.4002 8.30001 15.2002 8.40001C14.9002 8.70001 14.9002 9.20001 15.2002 9.50001C15.3002 9.60001 15.6002 9.70001 15.8002 9.70001C16.0002 9.70001 16.2002 9.60001 16.4002 9.50001C16.7002 9.20001 16.7002 8.70001 16.4002 8.40001C16.2002 8.30001 16.0002 8.20001 15.8002 8.20001Z" fill="white"/>
<path d="M18.0002 8.20001C17.8002 8.20001 17.6002 8.30001 17.4002 8.40001C17.1002 8.70001 17.1002 9.20001 17.4002 9.50001C17.5002 9.60001 17.8002 9.70001 18.0002 9.70001C18.2002 9.70001 18.4002 9.60001 18.6002 9.50001C18.9002 9.20001 18.9002 8.70001 18.6002 8.40001C18.5002 8.30001 18.2002 8.20001 18.0002 8.20001Z" fill="white"/>
<path d="M20.8002 8.40001C20.7002 8.30001 20.4002 8.20001 20.2002 8.20001C20.0002 8.20001 19.8002 8.30001 19.6002 8.40001C19.3002 8.70001 19.3002 9.20001 19.6002 9.50001C19.7002 9.60001 20.0002 9.70001 20.2002 9.70001C20.4002 9.70001 20.6002 9.60001 20.8002 9.50001C21.1002 9.30001 21.1002 8.70001 20.8002 8.40001Z" fill="white"/>
</g>
</g>
<defs>
<clipPath id="clip0_7_2836">
<rect width="24" height="24" fill="white"/>
</clipPath>
</defs>
</svg>
