<svg width="24" height="24" viewBox="0 0 24 24" fill="none" xmlns="http://www.w3.org/2000/svg">
<path d="M8.41422 6.33579C7.63317 5.55474 6.36683 5.55474 5.58578 6.33579C4.80474 7.11683 4.80474 8.38317 5.58578 9.16421C6.36683 9.94526 7.63317 9.94526 8.41422 9.16421C9.19526 8.38317 9.19526 7.11683 8.41422 6.33579ZM4.52513 5.27512C5.89196 3.90829 8.10804 3.90829 9.47488 5.27512C10.8417 6.64196 10.8417 8.85804 9.47488 10.2249C8.10804 11.5917 5.89196 11.5917 4.52513 10.2249C3.15829 8.85804 3.15829 6.64196 4.52513 5.27512ZM18.4142 6.33579C17.6331 5.55474 16.3668 5.55474 15.5857 6.33579C14.8047 7.11683 14.8047 8.38317 15.5857 9.16421C16.3668 9.94526 17.6331 9.94526 18.4142 9.16421C19.1952 8.38317 19.1952 7.11683 18.4142 6.33579ZM14.5251 5.27512C15.8919 3.90829 18.108 3.90829 19.4748 5.27512C20.8417 6.64196 20.8417 8.85804 19.4748 10.2249C18.108 11.5917 15.8919 11.5917 14.5251 10.2249C13.1582 8.85804 13.1582 6.64196 14.5251 5.27512ZM7 13.25C3.82479 13.25 1.25 15.8248 1.25 19C1.25 19.4142 1.58579 19.75 2 19.75C2.41421 19.75 2.75 19.4142 2.75 19C2.75 16.6532 4.65321 14.75 7 14.75C9.34679 14.75 11.25 16.6532 11.25 19C11.25 19.4142 11.5858 19.75 12 19.75C12.4142 19.75 12.75 19.4142 12.75 19C12.75 16.6532 14.6532 14.75 17 14.75C19.3468 14.75 21.25 16.6532 21.25 19C21.25 19.4142 21.5858 19.75 22 19.75C22.4142 19.75 22.75 19.4142 22.75 19C22.75 15.8248 20.1752 13.25 17 13.25C14.8581 13.25 12.9894 14.4216 12 16.1589C11.0106 14.4216 9.1419 13.25 7 13.25Z" fill="white"/>
</svg>
