<svg width="24" height="24" viewBox="0 0 24 24" fill="none" xmlns="http://www.w3.org/2000/svg">
<path d="M3.75 13C3.75 8.44021 7.44021 4.75 12 4.75C16.5598 4.75 20.25 8.44021 20.25 13C20.25 14.3226 19.9193 15.5672 19.3538 16.6843C19.1668 17.0539 19.3147 17.5051 19.6843 17.6922C20.0539 17.8792 20.5051 17.7313 20.6922 17.3617C21.3547 16.0528 21.75 14.5774 21.75 13C21.75 7.61179 17.3882 3.25 12 3.25C6.61179 3.25 2.25 7.61179 2.25 13C2.25 14.5801 2.64759 16.0537 3.30484 17.3617C3.49082 17.7319 3.94162 17.8811 4.31173 17.6952C4.68185 17.5092 4.83113 17.0584 4.64516 16.6883C4.08241 15.5683 3.75 14.3239 3.75 13ZM13.591 9.90901C12.7123 9.03033 11.2877 9.03033 10.409 9.90901C9.53032 10.7877 9.53032 12.2123 10.409 13.091C11.2877 13.9697 12.7123 13.9697 13.591 13.091C14.4696 12.2123 14.4696 10.7877 13.591 9.90901ZM9.34833 8.84835C10.8128 7.38388 13.1872 7.38388 14.6516 8.84835C16.1161 10.3128 16.1161 12.6872 14.6516 14.1516C13.1872 15.6161 10.8128 15.6161 9.34833 14.1516C7.88387 12.6872 7.88387 10.3128 9.34833 8.84835ZM12.023 18.25C9.86383 18.25 7.89351 19.1183 6.43268 20.5379C6.13562 20.8265 5.66079 20.8197 5.37213 20.5227C5.08346 20.2256 5.09026 19.7508 5.38732 19.4621C7.11249 17.7857 9.45217 16.75 12.023 16.75C14.5691 16.75 16.8836 17.7653 18.6067 19.4094C18.9064 19.6953 18.9176 20.1701 18.6316 20.4697C18.3457 20.7694 17.8709 20.7806 17.5713 20.4946C16.1104 19.1007 14.1609 18.25 12.023 18.25Z" fill="white"/>
</svg>
