<svg width="24" height="24" viewBox="0 0 24 24" fill="none" xmlns="http://www.w3.org/2000/svg">
<path d="M8.49979 11.7001C9.39979 12.7001 10.6998 13.2001 11.9998 13.2001C13.2998 13.2001 14.4998 12.6001 15.4998 11.7001C16.4998 10.8001 16.9998 9.5001 16.9998 8.2001C16.9998 6.9001 16.4998 5.7001 15.4998 4.6001C14.5998 3.6001 13.2998 3.1001 11.9998 3.1001C10.6998 3.1001 9.39979 3.7001 8.49979 4.6001C6.59979 6.6001 6.59979 9.8001 8.49979 11.7001ZM9.49979 5.8001C10.1998 5.2001 11.0998 4.8001 11.9998 4.8001C12.8998 4.8001 13.7998 5.1001 14.3998 5.8001C14.9998 6.5001 15.3998 7.3001 15.3998 8.3001C15.3998 9.3001 15.0998 10.1001 14.3998 10.8001C13.0998 12.1001 10.7998 12.1001 9.49979 10.8001C8.09979 9.4001 8.09979 7.2001 9.49979 5.8001ZM18.2998 20.0003C18.2998 20.4003 18.5998 20.7003 18.9998 20.7003C19.3998 20.7003 19.6998 20.4003 19.7998 20.0003C19.7998 17.1003 17.4998 14.8003 14.5998 14.8003H9.4998C6.5998 14.8003 4.2998 17.1003 4.2998 20.0003C4.2998 20.4003 4.5998 20.7003 4.9998 20.7003C5.3998 20.7003 5.6998 20.4003 5.6998 20.0003C5.6998 18.0003 7.3998 16.3003 9.3998 16.3003H14.5998C16.5998 16.3003 18.2998 18.0003 18.2998 20.0003Z" fill="white"/>
</svg>
