<svg width="24" height="24" viewBox="0 0 24 24" fill="none" xmlns="http://www.w3.org/2000/svg">
<path d="M3.75 12C3.75 7.44321 7.44321 3.75 12 3.75C16.5568 3.75 20.25 7.44321 20.25 12C20.25 16.5568 16.5568 20.25 12 20.25C7.44321 20.25 3.75 16.5568 3.75 12ZM12 2.25C6.61479 2.25 2.25 6.61479 2.25 12C2.25 17.3852 6.61479 21.75 12 21.75C17.3852 21.75 21.75 17.3852 21.75 12C21.75 6.61479 17.3852 2.25 12 2.25ZM7.5 8.23804C7.91421 8.23804 8.25 8.57382 8.25 8.98804V14.963C8.25 15.3773 7.91421 15.713 7.5 15.713C7.08579 15.713 6.75 15.3773 6.75 14.963V8.98804C6.75 8.57382 7.08579 8.23804 7.5 8.23804ZM17.25 8.98804C17.25 8.57382 16.9142 8.23804 16.5 8.23804C16.0858 8.23804 15.75 8.57382 15.75 8.98804V14.963C15.75 15.3773 16.0858 15.713 16.5 15.713C16.9142 15.713 17.25 15.3773 17.25 14.963V8.98804ZM9.93367 14.3967C10.2562 14.0741 10.7632 14.0945 11.0653 14.3967C11.3782 14.7096 11.3782 15.2154 11.0653 15.5283C10.7524 15.8412 10.2466 15.8412 9.93367 15.5283C9.62077 15.2154 9.62077 14.7096 9.93367 14.3967ZM12.9337 14.3967C13.2562 14.0741 13.7632 14.0945 14.0653 14.3967C14.3782 14.7096 14.3782 15.2154 14.0653 15.5283C13.7524 15.8412 13.2466 15.8412 12.9337 15.5283C12.6208 15.2154 12.6208 14.7096 12.9337 14.3967ZM14.25 8.98804C14.25 8.57382 13.9142 8.23804 13.5 8.23804C13.0858 8.23804 12.75 8.57382 12.75 8.98804V12.563C12.75 12.9773 13.0858 13.313 13.5 13.313C13.9142 13.313 14.25 12.9773 14.25 12.563V8.98804ZM10.5 8.23804C10.9142 8.23804 11.25 8.57382 11.25 8.98804V12.563C11.25 12.9773 10.9142 13.313 10.5 13.313C10.0858 13.313 9.75 12.9773 9.75 12.563V8.98804C9.75 8.57382 10.0858 8.23804 10.5 8.23804Z" fill="white"/>
</svg>
