<svg width="24" height="24" viewBox="0 0 24 24" fill="none" xmlns="http://www.w3.org/2000/svg">
<path d="M2.25 6C2.25 4.48079 3.48079 3.25 5 3.25H8.478C8.89221 3.25 9.228 3.58579 9.228 4C9.228 4.41421 8.89221 4.75 8.478 4.75H5C4.30921 4.75 3.75 5.30921 3.75 6V9.478C3.75 9.89221 3.41421 10.228 3 10.228C2.58579 10.228 2.25 9.89221 2.25 9.478V6ZM13.772 4C13.772 3.58579 14.1078 3.25 14.522 3.25H18C19.5192 3.25 20.75 4.48079 20.75 6V9.478C20.75 9.89221 20.4142 10.228 20 10.228C19.5858 10.228 19.25 9.89221 19.25 9.478V6C19.25 5.30921 18.6908 4.75 18 4.75H14.522C14.1078 4.75 13.772 4.41421 13.772 4ZM3.75 14.522C3.75 14.1078 3.41421 13.772 3 13.772C2.58579 13.772 2.25 14.1078 2.25 14.522V18C2.25 19.5192 3.48079 20.75 5 20.75H8.478C8.89221 20.75 9.228 20.4142 9.228 20C9.228 19.5858 8.89221 19.25 8.478 19.25H5C4.30921 19.25 3.75 18.6908 3.75 18V14.522ZM7 7.25C7.41421 7.25 7.75 7.58579 7.75 8V16C7.75 16.4142 7.41421 16.75 7 16.75C6.58579 16.75 6.25 16.4142 6.25 16V8C6.25 7.58579 6.58579 7.25 7 7.25ZM13.75 8C13.75 7.58579 13.4142 7.25 13 7.25C12.5858 7.25 12.25 7.58579 12.25 8V11C12.25 11.4142 12.5858 11.75 13 11.75C13.4142 11.75 13.75 11.4142 13.75 11V8ZM10 7.25C10.4142 7.25 10.75 7.58579 10.75 8V13C10.75 13.4142 10.4142 13.75 10 13.75C9.58579 13.75 9.25 13.4142 9.25 13V8C9.25 7.58579 9.58579 7.25 10 7.25ZM16.75 8C16.75 7.58579 16.4142 7.25 16 7.25C15.5858 7.25 15.25 7.58579 15.25 8V10C15.25 10.4142 15.5858 10.75 16 10.75C16.4142 10.75 16.75 10.4142 16.75 10V8ZM18.5904 14.4091L18.2719 17.8593C17.5275 18.3816 16.4709 18.3815 15.7266 17.859C14.5375 17.025 14.4344 15.3832 15.4083 14.4093C16.2876 13.5301 17.7125 13.5304 18.5904 14.4091ZM18.6227 17.5587C18.6114 17.5687 18.6004 17.579 18.5897 17.5898C18.5784 17.6011 18.5676 17.6126 18.5572 17.6244C18.4703 17.708 18.3751 17.7868 18.2719 17.8593L18.5904 14.4091C19.4575 15.2763 19.4707 16.6735 18.6227 17.5587ZM20.1294 18.0688C21.0924 16.6144 20.9353 14.6327 19.6513 13.3487C18.1872 11.8836 15.8124 11.884 14.3477 13.3487C12.7256 14.9707 12.9004 17.7088 14.8651 19.0869C16.1055 19.9575 17.8138 19.9721 19.0699 19.1307L20.4697 20.5304C20.7626 20.8233 21.2374 20.8233 21.5303 20.5304C21.8232 20.2376 21.8232 19.7627 21.5303 19.4698L20.1294 18.0688Z" fill="white"/>
</svg>
