<svg width="24" height="24" viewBox="0 0 24 24" fill="none" xmlns="http://www.w3.org/2000/svg">
<path d="M5.5 3.25C3.98079 3.25 2.75 4.48079 2.75 6V9.478C2.75 9.89221 3.08579 10.228 3.5 10.228C3.91421 10.228 4.25 9.89221 4.25 9.478V6C4.25 5.30921 4.80921 4.75 5.5 4.75H8.978C9.39221 4.75 9.728 4.41421 9.728 4C9.728 3.58579 9.39221 3.25 8.978 3.25H5.5ZM15.022 3.25C14.6078 3.25 14.272 3.58579 14.272 4C14.272 4.41421 14.6078 4.75 15.022 4.75H18.5C19.1908 4.75 19.75 5.30921 19.75 6V9.478C19.75 9.89221 20.0858 10.228 20.5 10.228C20.9142 10.228 21.25 9.89221 21.25 9.478V6C21.25 4.48079 20.0192 3.25 18.5 3.25H15.022ZM3.5 13.772C3.91421 13.772 4.25 14.1078 4.25 14.522V18C4.25 18.6908 4.80921 19.25 5.5 19.25H8.978C9.39221 19.25 9.728 19.5858 9.728 20C9.728 20.4142 9.39221 20.75 8.978 20.75H5.5C3.98079 20.75 2.75 19.5192 2.75 18V14.522C2.75 14.1078 3.08579 13.772 3.5 13.772ZM21.25 14.522C21.25 14.1078 20.9142 13.772 20.5 13.772C20.0858 13.772 19.75 14.1078 19.75 14.522V18C19.75 18.6908 19.1908 19.25 18.5 19.25H15.022C14.6078 19.25 14.272 19.5858 14.272 20C14.272 20.4142 14.6078 20.75 15.022 20.75H18.5C20.0192 20.75 21.25 19.5192 21.25 18V14.522ZM9.93436 15.4343C10.2468 15.1218 10.7533 15.1218 11.0657 15.4343C11.3781 15.7467 11.3781 16.2532 11.0657 16.5656C10.7533 16.8781 10.2468 16.8781 9.93436 16.5656C9.62194 16.2532 9.62194 15.7467 9.93436 15.4343ZM14.0657 15.4343C13.7533 15.1218 13.2468 15.1218 12.9344 15.4343C12.6219 15.7467 12.6219 16.2532 12.9344 16.5656C13.2468 16.8781 13.7533 16.8781 14.0657 16.5656C14.3781 16.2532 14.3781 15.7467 14.0657 15.4343ZM16.5 7.25C16.9142 7.25 17.25 7.58579 17.25 8V16C17.25 16.4142 16.9142 16.75 16.5 16.75C16.0858 16.75 15.75 16.4142 15.75 16V8C15.75 7.58579 16.0858 7.25 16.5 7.25ZM8.25 8C8.25 7.58579 7.91421 7.25 7.5 7.25C7.08579 7.25 6.75 7.58579 6.75 8V16C6.75 16.4142 7.08579 16.75 7.5 16.75C7.91421 16.75 8.25 16.4142 8.25 16V8ZM13.5 7.25C13.9142 7.25 14.25 7.58579 14.25 8V13C14.25 13.4142 13.9142 13.75 13.5 13.75C13.0858 13.75 12.75 13.4142 12.75 13V8C12.75 7.58579 13.0858 7.25 13.5 7.25ZM11.25 8C11.25 7.58579 10.9142 7.25 10.5 7.25C10.0858 7.25 9.75 7.58579 9.75 8V13C9.75 13.4142 10.0858 13.75 10.5 13.75C10.9142 13.75 11.25 13.4142 11.25 13V8Z" fill="white"/>
</svg>
