<svg width="24" height="24" viewBox="0 0 24 24" fill="none" xmlns="http://www.w3.org/2000/svg">
<path d="M5 3.75C4.86221 3.75 4.75 3.86221 4.75 4V19.7869L6.33045 18.9962C6.54159 18.8906 6.79013 18.8906 7.00131 18.9961L9.333 20.1615L11.6647 18.9961C11.8758 18.8906 12.1242 18.8906 12.3353 18.9961L14.6668 20.1614L16.9974 18.9953C17.2086 18.8896 17.4573 18.8896 17.6685 18.9952L19.25 19.7864V4C19.25 3.86221 19.1378 3.75 19 3.75H5ZM3.25 4C3.25 3.03379 4.03379 2.25 5 2.25H19C19.9662 2.25 20.75 3.03379 20.75 4V20.191C20.75 21.1227 19.7708 21.7227 18.9414 21.3092L17.333 20.5046L15.0026 21.6707C14.7915 21.7764 14.5429 21.7764 14.3317 21.6709L12 20.5055L9.66831 21.6709C9.45722 21.7764 9.20878 21.7764 8.99769 21.6709L6.66615 20.5055L5.05855 21.3098L5.05679 21.3106C4.22771 21.7227 3.25 21.1214 3.25 20.191V4ZM11.25 7C11.25 6.58579 11.5858 6.25 12 6.25H16C16.4142 6.25 16.75 6.58579 16.75 7C16.75 7.41421 16.4142 7.75 16 7.75H12C11.5858 7.75 11.25 7.41421 11.25 7ZM11.25 11C11.25 10.5858 11.5858 10.25 12 10.25H16C16.4142 10.25 16.75 10.5858 16.75 11C16.75 11.4142 16.4142 11.75 16 11.75H12C11.5858 11.75 11.25 11.4142 11.25 11ZM12 14.25C11.5858 14.25 11.25 14.5858 11.25 15C11.25 15.4142 11.5858 15.75 12 15.75H16C16.4142 15.75 16.75 15.4142 16.75 15C16.75 14.5858 16.4142 14.25 16 14.25H12ZM8 6.24023C7.82805 6.24023 7.62649 6.30083 7.46604 6.46128C7.30559 6.62173 7.245 6.82329 7.245 6.99523C7.245 7.16718 7.30559 7.36874 7.46604 7.52919C7.62649 7.68964 7.82805 7.75023 8 7.75023C8.17194 7.75023 8.3735 7.68964 8.53395 7.52919C8.6944 7.36874 8.755 7.16718 8.755 6.99523C8.755 6.82329 8.6944 6.62173 8.53395 6.46128C8.3735 6.30083 8.17194 6.24023 8 6.24023ZM8.745 6.99523C8.745 7.16418 8.6854 7.36324 8.5267 7.52194C8.368 7.68064 8.16894 7.74023 8 7.74023C7.83105 7.74023 7.63199 7.68064 7.47329 7.52194C7.31459 7.36324 7.255 7.16418 7.255 6.99523C7.255 6.82629 7.31459 6.62723 7.47329 6.46853C7.63199 6.30983 7.83105 6.25023 8 6.25023C8.16894 6.25023 8.368 6.30983 8.5267 6.46853C8.6854 6.62723 8.745 6.82629 8.745 6.99523ZM7.46604 10.471C7.62649 10.3106 7.82805 10.25 8 10.25C8.17194 10.25 8.3735 10.3106 8.53395 10.471C8.6944 10.6315 8.755 10.8331 8.755 11.005C8.755 11.1769 8.6944 11.3785 8.53395 11.539C8.3735 11.6994 8.17194 11.76 8 11.76C7.82805 11.76 7.62649 11.6994 7.46604 11.539C7.30559 11.3785 7.245 11.1769 7.245 11.005C7.245 10.8331 7.30559 10.6315 7.46604 10.471ZM8.5267 11.5317C8.6854 11.373 8.745 11.1739 8.745 11.005C8.745 10.8361 8.6854 10.637 8.5267 10.4783C8.368 10.3196 8.16894 10.26 8 10.26C7.83105 10.26 7.63199 10.3196 7.47329 10.4783C7.31459 10.637 7.255 10.8361 7.255 11.005C7.255 11.1739 7.31459 11.373 7.47329 11.5317C7.63199 11.6904 7.83105 11.75 8 11.75C8.16894 11.75 8.368 11.6904 8.5267 11.5317ZM8 14.2402C7.82805 14.2402 7.62649 14.3008 7.46604 14.4613C7.30559 14.6217 7.245 14.8233 7.245 14.9952C7.245 15.1672 7.30559 15.3687 7.46604 15.5292C7.62649 15.6896 7.82805 15.7502 8 15.7502C8.17194 15.7502 8.3735 15.6896 8.53395 15.5292C8.6944 15.3687 8.755 15.1672 8.755 14.9952C8.755 14.8233 8.6944 14.6217 8.53395 14.4613C8.3735 14.3008 8.17194 14.2402 8 14.2402ZM8.745 14.9952C8.745 15.1642 8.6854 15.3632 8.5267 15.5219C8.368 15.6806 8.16894 15.7402 8 15.7402C7.83105 15.7402 7.63199 15.6806 7.47329 15.5219C7.31459 15.3632 7.255 15.1642 7.255 14.9952C7.255 14.8263 7.31459 14.6272 7.47329 14.4685C7.63199 14.3098 7.83105 14.2502 8 14.2502C8.16894 14.2502 8.368 14.3098 8.5267 14.4685C8.6854 14.6272 8.745 14.8263 8.745 14.9952Z" fill="white"/>
</svg>
