<svg width="24" height="24" viewBox="0 0 24 24" fill="none" xmlns="http://www.w3.org/2000/svg">
<path d="M4.5 1.75C2.98079 1.75 1.75 2.98079 1.75 4.5V7.978C1.75 8.39221 2.08579 8.728 2.5 8.728C2.91421 8.728 3.25 8.39221 3.25 7.978V4.5C3.25 3.80921 3.80921 3.25 4.5 3.25H7.978C8.39221 3.25 8.728 2.91421 8.728 2.5C8.728 2.08579 8.39221 1.75 7.978 1.75H4.5ZM16.022 1.75C15.6078 1.75 15.272 2.08579 15.272 2.5C15.272 2.91421 15.6078 3.25 16.022 3.25H19.5C20.1908 3.25 20.75 3.80921 20.75 4.5V7.978C20.75 8.39221 21.0858 8.728 21.5 8.728C21.9142 8.728 22.25 8.39221 22.25 7.978V4.5C22.25 2.98079 21.0192 1.75 19.5 1.75H16.022ZM18.6297 9.87988C18.6297 10.2941 18.2939 10.6299 17.8797 10.6299H13.9997C13.5855 10.6299 13.2497 10.2941 13.2497 9.87988V5.99988C13.2497 5.58567 13.5855 5.24988 13.9997 5.24988H17.8797C18.2939 5.24988 18.6297 5.58567 18.6297 5.99988V9.87988ZM17.1297 9.12988V6.74988H14.7497V9.12988H17.1297ZM6.19601 5.4458C5.7818 5.4458 5.44601 5.78159 5.44601 6.1958V9.9998C5.44601 10.414 5.7818 10.7498 6.19601 10.7498H10C10.4142 10.7498 10.75 10.414 10.75 9.9998V6.1958C10.75 5.78159 10.4142 5.4458 10 5.4458H6.19601ZM6.94601 9.2498V6.9458H9.25001V9.2498H6.94601ZM6.12 13.3701C5.70578 13.3701 5.37 13.7059 5.37 14.1201V18.0001C5.37 18.4143 5.70578 18.7501 6.12 18.7501H10C10.4142 18.7501 10.75 18.4143 10.75 18.0001V14.1201C10.75 13.7059 10.4142 13.3701 10 13.3701H6.12ZM6.87 17.2501V14.8701H9.25V17.2501H6.87ZM14 13.25C14.4142 13.25 14.75 13.5858 14.75 14V16C14.75 16.4142 14.4142 16.75 14 16.75C13.5858 16.75 13.25 16.4142 13.25 16V14C13.25 13.5858 13.5858 13.25 14 13.25ZM15.8 17.0498C15.3858 17.0498 15.05 17.3856 15.05 17.7998C15.05 18.214 15.3858 18.5498 15.8 18.5498H17.8C18.2142 18.5498 18.55 18.214 18.55 17.7998C18.55 17.3856 18.2142 17.0498 17.8 17.0498H15.8ZM15.55 14C15.55 13.5858 15.8858 13.25 16.3 13.25H17.8C18.2142 13.25 18.55 13.5858 18.55 14C18.55 14.4142 18.2142 14.75 17.8 14.75H16.3C15.8858 14.75 15.55 14.4142 15.55 14ZM2.5 15.272C2.91421 15.272 3.25 15.6078 3.25 16.022V19.5C3.25 20.1908 3.80921 20.75 4.5 20.75H7.978C8.39221 20.75 8.728 21.0858 8.728 21.5C8.728 21.9142 8.39221 22.25 7.978 22.25H4.5C2.98079 22.25 1.75 21.0192 1.75 19.5V16.022C1.75 15.6078 2.08579 15.272 2.5 15.272ZM22.25 16.022C22.25 15.6078 21.9142 15.272 21.5 15.272C21.0858 15.272 20.75 15.6078 20.75 16.022V19.5C20.75 20.1908 20.1908 20.75 19.5 20.75H16.022C15.6078 20.75 15.272 21.0858 15.272 21.5C15.272 21.9142 15.6078 22.25 16.022 22.25H19.5C21.0192 22.25 22.25 21.0192 22.25 19.5V16.022Z" fill="white"/>
</svg>
