<svg width="24" height="24" viewBox="0 0 24 24" fill="none" xmlns="http://www.w3.org/2000/svg">
<path d="M4 3.75C3.86221 3.75 3.75 3.86221 3.75 4V8C3.75 8.13779 3.86221 8.25 4 8.25H8C8.13779 8.25 8.25 8.13779 8.25 8V4C8.25 3.86221 8.13779 3.75 8 3.75H4ZM2.25 4C2.25 3.03379 3.03379 2.25 4 2.25H8C8.96621 2.25 9.75 3.03379 9.75 4V8C9.75 8.96621 8.96621 9.75 8 9.75H4C3.03379 9.75 2.25 8.96621 2.25 8V4ZM4 15.75C3.86221 15.75 3.75 15.8622 3.75 16V20C3.75 20.1378 3.86221 20.25 4 20.25H8C8.13779 20.25 8.25 20.1378 8.25 20V16C8.25 15.8622 8.13779 15.75 8 15.75H4ZM2.25 16C2.25 15.0338 3.03379 14.25 4 14.25H8C8.96621 14.25 9.75 15.0338 9.75 16V20C9.75 20.9662 8.96621 21.75 8 21.75H4C3.03379 21.75 2.25 20.9662 2.25 20V16ZM15.75 4C15.75 3.86221 15.8622 3.75 16 3.75H20C20.1378 3.75 20.25 3.86221 20.25 4V8C20.25 8.13779 20.1378 8.25 20 8.25H16C15.8622 8.25 15.75 8.13779 15.75 8V4ZM16 2.25C15.0338 2.25 14.25 3.03379 14.25 4V8C14.25 8.96621 15.0338 9.75 16 9.75H20C20.9662 9.75 21.75 8.96621 21.75 8V4C21.75 3.03379 20.9662 2.25 20 2.25H16ZM6.25 12C6.25 11.5858 6.58579 11.25 7 11.25H9C9.41421 11.25 9.75 11.5858 9.75 12C9.75 12.4142 9.41421 12.75 9 12.75H7C6.58579 12.75 6.25 12.4142 6.25 12ZM12.75 3C12.75 2.58579 12.4142 2.25 12 2.25C11.5858 2.25 11.25 2.58579 11.25 3V5C11.25 5.41421 11.5858 5.75 12 5.75C12.4142 5.75 12.75 5.41421 12.75 5V3ZM12 8.25C12.4142 8.25 12.75 8.58579 12.75 9V11C12.75 11.1378 12.8622 11.25 13 11.25H16C16.4142 11.25 16.75 11.5858 16.75 12C16.75 12.4142 16.4142 12.75 16 12.75H13C12.0338 12.75 11.25 11.9662 11.25 11V9C11.25 8.58579 11.5858 8.25 12 8.25ZM3 11.25C2.58579 11.25 2.25 11.5858 2.25 12C2.25 12.4142 2.58579 12.75 3 12.75H4C4.41421 12.75 4.75 12.4142 4.75 12C4.75 11.5858 4.41421 11.25 4 11.25H3ZM11.25 19C11.25 18.0338 12.0338 17.25 13 17.25H15C15.4142 17.25 15.75 17.5858 15.75 18C15.75 18.4142 15.4142 18.75 15 18.75H13C12.8622 18.75 12.75 18.8622 12.75 19V21C12.75 21.4142 12.4142 21.75 12 21.75C11.5858 21.75 11.25 21.4142 11.25 21V19ZM12 14.25C11.5858 14.25 11.25 14.5858 11.25 15C11.25 15.4142 11.5858 15.75 12 15.75H18C18.4142 15.75 18.75 15.4142 18.75 15C18.75 14.5858 18.4142 14.25 18 14.25H12ZM21 14.25C21.4142 14.25 21.75 14.5858 21.75 15V20C21.75 20.9662 20.9662 21.75 20 21.75H15C14.5858 21.75 14.25 21.4142 14.25 21C14.25 20.5858 14.5858 20.25 15 20.25H20C20.1378 20.25 20.25 20.1378 20.25 20V15C20.25 14.5858 20.5858 14.25 21 14.25ZM6 5.24023C5.82805 5.24023 5.62649 5.30083 5.46604 5.46128C5.30559 5.62173 5.245 5.82329 5.245 5.99523C5.245 6.16718 5.30559 6.36874 5.46604 6.52919C5.62649 6.68964 5.82805 6.75023 6 6.75023C6.17194 6.75023 6.3735 6.68964 6.53395 6.52919C6.6944 6.36874 6.755 6.16718 6.755 5.99523C6.755 5.82329 6.6944 5.62173 6.53395 5.46128C6.3735 5.30083 6.17194 5.24023 6 5.24023ZM6.745 5.99523C6.745 6.16418 6.6854 6.36324 6.5267 6.52194C6.368 6.68064 6.16894 6.74023 6 6.74023C5.83105 6.74023 5.63199 6.68064 5.47329 6.52194C5.31459 6.36324 5.255 6.16418 5.255 5.99523C5.255 5.82629 5.31459 5.62723 5.47329 5.46853C5.63199 5.30983 5.83105 5.25023 6 5.25023C6.16894 5.25023 6.368 5.30983 6.5267 5.46853C6.6854 5.62723 6.745 5.82629 6.745 5.99523ZM17.4611 5.46609C17.6216 5.3057 17.8231 5.24512 17.995 5.24512C18.167 5.24512 18.3686 5.30572 18.529 5.46623C18.6895 5.62673 18.75 5.82827 18.75 6.00012C18.75 6.17196 18.6895 6.37351 18.529 6.534C18.3686 6.69451 18.167 6.75512 17.995 6.75512C17.8231 6.75512 17.6216 6.69454 17.4611 6.53414C17.3007 6.37373 17.24 6.17217 17.24 6.00012C17.24 5.82807 17.3007 5.6265 17.4611 5.46609ZM18.5216 6.52689C18.6803 6.36823 18.74 6.16917 18.74 6.00012C18.74 5.83107 18.6803 5.632 18.5216 5.47334C18.363 5.3147 18.1639 5.25512 17.995 5.25512C17.826 5.25512 17.6269 5.31472 17.4682 5.47348C17.3095 5.63223 17.25 5.83127 17.25 6.00012C17.25 6.16896 17.3095 6.36801 17.4682 6.52675C17.6269 6.68551 17.826 6.74512 17.995 6.74512C18.1639 6.74512 18.363 6.68554 18.5216 6.52689ZM18.995 11.2451C18.8231 11.2451 18.6216 11.3057 18.4611 11.4661C18.3007 11.6265 18.24 11.8281 18.24 12.0001C18.24 12.1722 18.3007 12.3737 18.4611 12.5341C18.6216 12.6945 18.8231 12.7551 18.995 12.7551C19.167 12.7551 19.3686 12.6945 19.529 12.534C19.6895 12.3735 19.75 12.172 19.75 12.0001C19.75 11.8283 19.6895 11.6267 19.529 11.4662C19.3686 11.3057 19.167 11.2451 18.995 11.2451ZM19.74 12.0001C19.74 12.1692 19.6803 12.3682 19.5216 12.5269C19.363 12.6855 19.1639 12.7451 18.995 12.7451C18.826 12.7451 18.6269 12.6855 18.4682 12.5268C18.3095 12.368 18.25 12.169 18.25 12.0001C18.25 11.8313 18.3095 11.6322 18.4682 11.4735C18.6269 11.3147 18.826 11.2551 18.995 11.2551C19.1639 11.2551 19.363 11.3147 19.5216 11.4733C19.6803 11.632 19.74 11.8311 19.74 12.0001ZM17.4612 17.466C17.6217 17.3056 17.8232 17.2451 17.995 17.2451C18.1669 17.2451 18.3685 17.3057 18.529 17.4662C18.6895 17.6267 18.75 17.8283 18.75 18.0001C18.75 18.172 18.6895 18.3736 18.529 18.5341C18.3685 18.6946 18.1669 18.7551 17.995 18.7551C17.8232 18.7551 17.6217 18.6946 17.4612 18.5342C17.3007 18.3738 17.24 18.1722 17.24 18.0001C17.24 17.8281 17.3007 17.6264 17.4612 17.466ZM18.5216 18.527C18.6803 18.3683 18.74 18.1692 18.74 18.0001C18.74 17.8311 18.6803 17.6319 18.5216 17.4733C18.3628 17.3146 18.1638 17.2551 17.995 17.2551C17.8261 17.2551 17.6271 17.3147 17.4683 17.4734C17.3095 17.6322 17.25 17.8313 17.25 18.0001C17.25 18.169 17.3095 18.3681 17.4683 18.5268C17.6271 18.6856 17.8261 18.7451 17.995 18.7451C18.1638 18.7451 18.3628 18.6856 18.5216 18.527ZM6.005 17.2451C5.83316 17.2451 5.63161 17.3056 5.47112 17.4661C5.3106 17.6266 5.25 17.8282 5.25 18.0001C5.25 18.1721 5.3106 18.3737 5.47112 18.5341C5.63161 18.6946 5.83316 18.7551 6.005 18.7551C6.17684 18.7551 6.37839 18.6946 6.53888 18.5341C6.6994 18.3737 6.76 18.1721 6.76 18.0001C6.76 17.8282 6.6994 17.6266 6.53888 17.4661C6.37839 17.3056 6.17684 17.2451 6.005 17.2451ZM6.75 18.0001C6.75 18.1691 6.6904 18.3682 6.53163 18.5269C6.37289 18.6856 6.17384 18.7451 6.005 18.7451C5.83616 18.7451 5.63711 18.6856 5.47837 18.5269C5.3196 18.3682 5.26 18.1691 5.26 18.0001C5.26 17.8312 5.3196 17.6321 5.47837 17.4733C5.63711 17.3146 5.83616 17.2551 6.005 17.2551C6.17384 17.2551 6.37289 17.3146 6.53163 17.4733C6.6904 17.6321 6.75 17.8312 6.75 18.0001Z" fill="white"/>
</svg>
