<svg width="24" height="24" viewBox="0 0 24 24" fill="none" xmlns="http://www.w3.org/2000/svg">
<g clip-path="url(#clip0_7_1374)">
<mask id="mask0_7_1374" style="mask-type:luminance" maskUnits="userSpaceOnUse" x="0" y="0" width="24" height="24">
<path d="M24 0H0V24H24V0Z" fill="white"/>
</mask>
<g mask="url(#mask0_7_1374)">
<path d="M7.5002 2.2998H5.0002C3.5002 2.2998 2.2002 3.4998 2.2002 4.9998V7.4998C2.2002 7.8998 2.5002 8.2998 3.0002 8.2998C3.5002 8.2998 3.8002 7.9998 3.8002 7.4998V4.9998C3.8002 4.2998 4.4002 3.7998 5.0002 3.7998H7.5002C7.9002 3.7998 8.3002 3.4998 8.3002 2.9998C8.3002 2.4998 7.9002 2.2998 7.5002 2.2998Z" fill="white"/>
<path d="M7.5002 20.2998H5.0002C4.3002 20.2998 3.8002 19.6998 3.8002 19.0998V16.5998C3.8002 16.1998 3.5002 15.7998 3.0002 15.7998C2.5002 15.7998 2.2002 16.0998 2.2002 16.5998V18.9998C2.2002 20.4998 3.4002 21.7998 5.0002 21.7998H7.5002C7.9002 21.7998 8.3002 21.4998 8.3002 20.9998C8.3002 20.4998 7.9002 20.2998 7.5002 20.2998Z" fill="white"/>
<path d="M21.0002 15.7998C20.6002 15.7998 20.2002 16.0998 20.2002 16.5998V18.9998C20.2002 19.6998 19.6002 20.1998 19.0002 20.1998H16.5002C16.1002 20.1998 15.7002 20.4998 15.7002 20.9998C15.7002 21.4998 16.0002 21.7998 16.5002 21.7998H19.0002C20.5002 21.7998 21.8002 20.5998 21.8002 18.9998V16.4998C21.8002 16.0998 21.4002 15.7998 21.0002 15.7998Z" fill="white"/>
<path d="M19.0002 2.2998H16.5002C16.1002 2.2998 15.7002 2.5998 15.7002 3.0998C15.7002 3.5998 16.0002 3.8998 16.5002 3.8998H19.0002C19.7002 3.8998 20.2002 4.4998 20.2002 5.0998V7.5998C20.2002 7.9998 20.5002 8.3998 21.0002 8.3998C21.5002 8.3998 21.8002 8.0998 21.8002 7.5998V4.9998C21.8002 3.4998 20.5002 2.2998 19.0002 2.2998Z" fill="white"/>
<path d="M12.0002 11.2998C11.6002 11.2998 11.2002 11.5998 11.2002 12.0998V17.0998C11.2002 17.4998 11.5002 17.8998 12.0002 17.8998C12.5002 17.8998 12.8002 17.5998 12.8002 17.0998V12.0998C12.8002 11.5998 12.4002 11.2998 12.0002 11.2998Z" fill="white"/>
<path d="M12.0002 9.4998C12.4002 9.4998 12.8002 9.1998 12.8002 8.6998C12.8002 8.1998 12.4002 7.9998 11.9002 7.9998C11.5002 7.9998 11.1002 8.2998 11.2002 8.7998C11.2002 9.1998 11.5002 9.4998 12.0002 9.4998Z" fill="white"/>
</g>
</g>
<defs>
<clipPath id="clip0_7_1374">
<rect width="24" height="24" fill="white"/>
</clipPath>
</defs>
</svg>
