<svg width="24" height="24" viewBox="0 0 24 24" fill="none" xmlns="http://www.w3.org/2000/svg">
<g clip-path="url(#clip0_7_1321)">
<mask id="mask0_7_1321" style="mask-type:luminance" maskUnits="userSpaceOnUse" x="0" y="0" width="24" height="24">
<path d="M24 0H0V24H24V0Z" fill="white"/>
</mask>
<g mask="url(#mask0_7_1321)">
<path d="M12.0002 9.4998C12.4002 9.4998 12.8002 9.1998 12.8002 8.6998C12.8002 8.1998 12.4002 7.9998 11.9002 7.9998C11.5002 7.9998 11.1002 8.2998 11.2002 8.7998C11.2002 9.1998 11.5002 9.4998 12.0002 9.4998Z" fill="white"/>
<path d="M12.0002 2.2998C6.6002 2.2998 2.2002 6.6998 2.2002 12.0998C2.2002 17.4998 6.6002 21.8998 12.0002 21.8998C17.4002 21.8998 21.8002 17.4998 21.8002 12.0998C21.8002 6.6998 17.4002 2.2998 12.0002 2.2998ZM12.0002 20.2998C7.5002 20.2998 3.8002 16.5998 3.8002 12.0998C3.8002 7.5998 7.5002 3.7998 12.0002 3.7998C16.5002 3.7998 20.2002 7.4998 20.2002 11.9998C20.2002 16.4998 16.5002 20.2998 12.0002 20.2998Z" fill="white"/>
<path d="M12.0002 11.2998C11.6002 11.2998 11.2002 11.5998 11.2002 12.0998V17.0998C11.2002 17.4998 11.5002 17.8998 12.0002 17.8998C12.5002 17.8998 12.8002 17.5998 12.8002 17.0998V12.0998C12.8002 11.5998 12.4002 11.2998 12.0002 11.2998Z" fill="white"/>
</g>
</g>
<defs>
<clipPath id="clip0_7_1321">
<rect width="24" height="24" fill="white"/>
</clipPath>
</defs>
</svg>
