<svg width="24" height="24" viewBox="0 0 24 24" fill="none" xmlns="http://www.w3.org/2000/svg">
<g clip-path="url(#clip0_7_1736)">
<mask id="mask0_7_1736" style="mask-type:luminance" maskUnits="userSpaceOnUse" x="0" y="0" width="24" height="24">
<path d="M24 0H0V24H24V0Z" fill="white"/>
</mask>
<g mask="url(#mask0_7_1736)">
<path d="M20.9002 3.0999C19.8002 1.9999 17.9002 1.9999 16.9002 3.0999C16.4002 3.5999 16.1002 4.3999 16.1002 5.0999C16.1002 5.7999 16.4002 6.5999 16.9002 7.0999C17.4002 7.5999 18.2002 7.8999 18.9002 7.8999C19.7002 7.8999 20.4002 7.5999 20.9002 7.0999C21.4002 6.5999 21.7002 5.7999 21.7002 5.0999C21.7002 4.3999 21.5002 3.5999 20.9002 3.0999ZM19.9002 6.0999C19.4002 6.5999 18.5002 6.5999 18.0002 6.0999C17.7002 5.7999 17.6002 5.4999 17.6002 5.0999C17.6002 4.6999 17.7002 4.3999 18.0002 4.0999C18.3002 3.7999 18.6002 3.6999 19.0002 3.6999C19.4002 3.6999 19.7002 3.7999 20.0002 4.0999C20.3002 4.3999 20.4002 4.6999 20.4002 5.0999C20.2002 5.4999 20.1002 5.7999 19.9002 6.0999Z" fill="white"/>
<path d="M20.0002 10.7999C19.6002 10.7999 19.2002 11.0999 19.2002 11.5999V14.3999C19.2002 15.4999 18.3002 16.4999 17.1002 16.4999H12.4002C12.2002 16.4999 12.1002 16.5999 11.9002 16.6999L8.4002 19.4999V17.2999C8.4002 16.8999 8.10019 16.4999 7.60019 16.4999H5.8002C4.7002 16.4999 3.7002 15.5999 3.7002 14.3999V6.7999C3.7002 5.6999 4.6002 4.6999 5.8002 4.6999H12.5002C12.9002 4.6999 13.3002 4.3999 13.3002 3.8999C13.3002 3.3999 13.0002 3.2999 12.6002 3.2999H5.8002C3.8002 3.2999 2.2002 4.8999 2.2002 6.8999V14.4999C2.2002 16.4999 3.8002 18.0999 5.8002 18.0999H7.0002V21.0999C7.0002 21.3999 7.2002 21.6999 7.4002 21.7999C7.5002 21.7999 7.6002 21.8999 7.7002 21.8999C7.9002 21.8999 8.0002 21.7999 8.2002 21.6999L12.7002 18.0999H17.2002C19.2002 18.0999 20.8002 16.4999 20.8002 14.4999V11.6999C20.8002 11.1999 20.4002 10.7999 20.0002 10.7999Z" fill="white"/>
</g>
</g>
<defs>
<clipPath id="clip0_7_1736">
<rect width="24" height="24" fill="white"/>
</clipPath>
</defs>
</svg>
