<svg width="24" height="24" viewBox="0 0 24 24" fill="none" xmlns="http://www.w3.org/2000/svg">
<path d="M12.0002 3.79377C7.46774 3.79377 3.79427 7.46724 3.79427 11.9997C3.79427 13.4563 4.17764 14.821 4.84357 16.0069C4.94282 16.1836 4.97072 16.3917 4.92156 16.5883L4.09155 19.9083L7.41157 19.0783C7.60822 19.0292 7.81623 19.0571 7.99298 19.1563C9.17888 19.8222 10.5436 20.2056 12.0002 20.2056C16.5326 20.2056 20.2061 16.5321 20.2061 11.9997C20.2061 7.46724 16.5326 3.79377 12.0002 3.79377ZM2.20607 11.9997C2.20607 6.5901 6.5906 2.20557 12.0002 2.20557C17.4098 2.20557 21.7943 6.5901 21.7943 11.9997C21.7943 17.4093 17.4098 21.7938 12.0002 21.7938C10.3755 21.7938 8.8451 21.3937 7.49794 20.6938L3.19277 21.7701C2.92216 21.8378 2.63589 21.7585 2.43865 21.5612C2.24142 21.364 2.16213 21.0777 2.22978 20.8071L3.30607 16.5019C2.6062 15.1548 2.20607 13.6244 2.20607 11.9997Z" fill="white"/>
</svg>
