<svg width="24" height="24" viewBox="0 0 24 24" fill="none" xmlns="http://www.w3.org/2000/svg">
<g clip-path="url(#clip0_7_1530)">
<mask id="mask0_7_1530" style="mask-type:luminance" maskUnits="userSpaceOnUse" x="0" y="0" width="24" height="24">
<path d="M24 0H0V24H24V0Z" fill="white"/>
</mask>
<g mask="url(#mask0_7_1530)">
<path d="M12.0002 2.3999C6.6002 2.3999 2.2002 6.3999 2.2002 11.2999C2.2002 13.9999 3.5002 16.4999 5.8002 18.1999V20.9999C5.8002 21.2999 5.9002 21.4999 6.2002 21.5999C6.3002 21.6999 6.5002 21.6999 6.60019 21.6999C6.70019 21.6999 6.8002 21.6999 6.9002 21.5999L10.2002 19.9999C10.8002 20.0999 11.4002 20.0999 12.0002 20.0999C17.4002 20.0999 21.8002 16.0999 21.8002 11.1999C21.8002 6.3999 17.4002 2.3999 12.0002 2.3999ZM12.0002 18.6999C11.4002 18.6999 10.8002 18.5999 10.3002 18.4999C10.1002 18.4999 10.0002 18.4999 9.8002 18.5999L7.4002 19.7999V17.7999C7.4002 17.5999 7.30019 17.2999 7.10019 17.1999C5.0002 15.7999 3.8002 13.5999 3.8002 11.2999C3.8002 7.1999 7.5002 3.8999 12.0002 3.8999C16.5002 3.8999 20.2002 7.1999 20.2002 11.2999C20.2002 15.3999 16.5002 18.6999 12.0002 18.6999Z" fill="white"/>
<path d="M11.9002 7.0999C10.6002 7.0999 9.5002 8.1999 9.5002 9.4999C9.5002 9.8999 9.8002 10.2999 10.3002 10.2999C10.8002 10.2999 11.0002 9.8999 11.0002 9.4999C11.0002 8.9999 11.4002 8.5999 11.9002 8.5999C12.4002 8.5999 12.8002 8.9999 12.8002 9.4999C12.8002 9.6999 12.7002 9.8999 12.3002 10.1999C12.0002 10.3999 11.1002 10.9999 11.1002 12.0999V12.2999C11.1002 12.6999 11.4002 13.0999 11.9002 13.0999C12.4002 13.0999 12.7002 12.7999 12.7002 12.2999V12.0999C12.7002 11.7999 12.8002 11.6999 13.2002 11.3999C13.5002 11.1999 14.4002 10.5999 14.4002 9.4999C14.3002 8.1999 13.2002 7.0999 11.9002 7.0999Z" fill="white"/>
<path d="M11.3002 14.0999C11.0002 14.3999 11.0002 14.8999 11.3002 15.1999C11.4002 15.2999 11.7002 15.3999 11.9002 15.3999C12.1002 15.3999 12.3002 15.2999 12.5002 15.1999C12.8002 14.8999 12.8002 14.3999 12.5002 14.0999C12.2002 13.7999 11.6002 13.7999 11.3002 14.0999Z" fill="white"/>
</g>
</g>
<defs>
<clipPath id="clip0_7_1530">
<rect width="24" height="24" fill="white"/>
</clipPath>
</defs>
</svg>
