<svg width="24" height="24" viewBox="0 0 24 24" fill="none" xmlns="http://www.w3.org/2000/svg">
<g clip-path="url(#clip0_7_1508)">
<mask id="mask0_7_1508" style="mask-type:luminance" maskUnits="userSpaceOnUse" x="0" y="0" width="24" height="24">
<path d="M24 0H0V24H24V0Z" fill="white"/>
</mask>
<g mask="url(#mask0_7_1508)">
<path d="M13.9998 1.2998C9.19978 1.2998 5.19978 4.8998 5.19978 9.2998C5.19978 10.0998 5.29978 10.7998 5.49978 11.4998C3.09978 12.1998 1.29978 14.2998 1.29978 16.9998C1.29978 17.6998 1.39978 18.4998 1.69978 19.1998L1.09978 21.9998C0.999777 22.1998 1.09978 22.4998 1.29978 22.6998C1.39978 22.7998 1.59978 22.8998 1.79978 22.8998C1.89978 22.8998 1.89978 22.8998 1.99978 22.8998L4.79978 22.2998C5.49978 22.5998 6.19978 22.6998 6.89978 22.6998H6.99978C9.99978 22.5998 12.3998 20.2998 12.4998 17.2998C13.4998 17.3998 14.3998 17.3998 15.2998 17.2998L18.1998 18.6998C18.2998 18.7998 18.3998 18.7998 18.4998 18.7998C18.5998 18.7998 18.7998 18.7998 18.8998 18.6998C19.0998 18.5998 19.2998 18.2998 19.2998 18.0998V15.5998C21.2998 14.0998 22.4998 11.7998 22.4998 9.3998C22.7998 4.7998 18.7998 1.2998 13.9998 1.2998ZM7.09978 21.0998C6.39978 21.0998 5.89978 20.9998 5.39978 20.6998C5.29978 20.6998 5.19978 20.5998 5.09978 20.5998C4.99978 20.5998 4.99978 20.5998 4.89978 20.5998L2.99978 20.9998L3.39978 19.0998C3.39978 18.8998 3.39978 18.7998 3.29978 18.5998C2.99978 17.9998 2.89978 17.4998 2.89978 16.7998C2.89978 14.4998 4.79978 12.5998 7.09978 12.5998C9.39978 12.5998 11.2998 14.4998 11.2998 16.7998C11.1998 19.1998 9.39978 21.0998 7.09978 21.0998ZM18.3998 14.3998C18.1998 14.4998 18.0998 14.7998 18.0998 14.9998V16.5998L15.9998 15.5998C15.8998 15.4998 15.6998 15.4998 15.4998 15.4998C14.4998 15.6998 13.4998 15.6998 12.4998 15.4998C11.8998 12.9998 9.69978 11.1998 6.99978 11.1998C6.79978 10.5998 6.59978 9.8998 6.59978 9.1998C6.59978 5.5998 9.89978 2.6998 13.7998 2.6998C17.7998 2.6998 20.9998 5.5998 20.9998 9.1998C21.1998 11.2998 20.1998 13.1998 18.3998 14.3998Z" fill="white"/>
<path d="M4.19978 16.3998C3.89978 16.6998 3.89978 17.1998 4.19978 17.4998C4.29978 17.5998 4.59978 17.6998 4.79978 17.6998C4.99978 17.6998 5.19978 17.5998 5.39978 17.4998C5.69978 17.1998 5.69978 16.6998 5.39978 16.3998C4.99978 16.0998 4.49978 16.0998 4.19978 16.3998Z" fill="white"/>
<path d="M6.39978 16.3998C6.09978 16.6998 6.09978 17.1998 6.39978 17.4998C6.49978 17.5998 6.79978 17.6998 6.99978 17.6998C7.19978 17.6998 7.39978 17.5998 7.59978 17.4998C7.89978 17.1998 7.89978 16.6998 7.59978 16.3998C7.29978 16.0998 6.69978 16.0998 6.39978 16.3998Z" fill="white"/>
<path d="M8.69978 16.3998C8.39978 16.6998 8.39978 17.1998 8.69978 17.4998C8.79978 17.5998 9.09978 17.6998 9.29978 17.6998C9.49978 17.6998 9.69978 17.5998 9.89978 17.4998C10.1998 17.1998 10.1998 16.6998 9.89978 16.3998C9.49978 16.0998 8.99978 16.0998 8.69978 16.3998Z" fill="white"/>
<path d="M13.3998 11.7998C13.0998 12.0998 13.0998 12.5998 13.3998 12.8998C13.4998 12.9998 13.7998 13.0998 13.9998 13.0998C14.1998 13.0998 14.3998 12.9998 14.5998 12.8998C14.8998 12.5998 14.8998 12.0998 14.5998 11.7998C14.2998 11.4998 13.6998 11.4998 13.3998 11.7998Z" fill="white"/>
<path d="M13.9998 5.0998C12.6998 5.0998 11.5998 6.1998 11.5998 7.4998C11.5998 7.8998 11.8998 8.2998 12.3998 8.2998C12.8998 8.2998 13.0998 7.9998 13.0998 7.4998C13.0998 6.9998 13.4998 6.5998 13.9998 6.5998C14.4998 6.5998 14.8998 6.9998 14.8998 7.4998C14.8998 7.6998 14.7998 7.89981 14.3998 8.0998C14.0998 8.2998 13.2998 8.8998 13.2998 9.9998C13.2998 10.3998 13.5998 10.7998 14.0998 10.7998C14.5998 10.7998 14.8998 10.4998 14.8998 9.9998C14.8998 9.7998 14.9998 9.5998 15.3998 9.2998C15.6998 9.0998 16.4998 8.4998 16.4998 7.39981C16.3998 6.19981 15.2998 5.0998 13.9998 5.0998Z" fill="white"/>
</g>
</g>
<defs>
<clipPath id="clip0_7_1508">
<rect width="24" height="24" fill="white"/>
</clipPath>
</defs>
</svg>
