<svg width="24" height="24" viewBox="0 0 24 24" fill="none" xmlns="http://www.w3.org/2000/svg">
<path d="M12.0002 2.20557C6.59059 2.20557 2.20605 6.5901 2.20605 11.9997C2.20605 17.4093 6.59059 21.7938 12.0002 21.7938C13.6249 21.7938 15.1552 21.3937 16.5024 20.6938L20.8076 21.7701C21.0782 21.8378 21.3644 21.7585 21.5617 21.5612C21.7589 21.364 21.8382 21.0777 21.7706 20.8071L20.6943 16.5019C21.3941 15.1548 21.7943 13.6244 21.7943 11.9997C21.7943 6.5901 17.4097 2.20557 12.0002 2.20557ZM3.79425 11.9997C3.79425 7.46724 7.46772 3.79377 12.0002 3.79377C16.5326 3.79377 20.2061 7.46724 20.2061 11.9997C20.2061 13.4563 19.8227 14.821 19.1568 16.0069C19.0575 16.1836 19.0296 16.3917 19.0788 16.5883L19.9088 19.9083L16.5888 19.0783C16.3921 19.0292 16.1841 19.0571 16.0074 19.1563C14.8215 19.8222 13.4568 20.2056 12.0002 20.2056C7.46772 20.2056 3.79425 16.5321 3.79425 11.9997ZM12.7075 11.7922C12.3166 11.4013 11.6837 11.4013 11.2928 11.7922L11.2901 11.795C10.9038 12.1852 10.9038 12.8139 11.2901 13.2042L11.2928 13.2069C11.6837 13.5978 12.3166 13.5978 12.7075 13.2069C13.0984 12.816 13.0984 12.1831 12.7075 11.7922ZM7.29282 11.7922C7.68372 11.4013 8.31658 11.4013 8.70747 11.7922C9.09837 12.1831 9.09837 12.816 8.70747 13.2069C8.31658 13.5978 7.68372 13.5978 7.29282 13.2069L7.29009 13.2042C6.90381 12.8139 6.90382 12.1852 7.2901 11.795L7.29282 11.7922ZM16.7075 11.7922C16.3166 11.4013 15.6837 11.4013 15.2928 11.7922L15.2901 11.795C14.9038 12.1852 14.9038 12.8139 15.2901 13.2042L15.2928 13.2069C15.6837 13.5978 16.3166 13.5978 16.7075 13.2069C17.0984 12.816 17.0984 12.1831 16.7075 11.7922Z" fill="white"/>
</svg>
