<svg width="24" height="24" viewBox="0 0 24 24" fill="none" xmlns="http://www.w3.org/2000/svg">
<g clip-path="url(#clip0_7_1718)">
<mask id="mask0_7_1718" style="mask-type:luminance" maskUnits="userSpaceOnUse" x="0" y="0" width="24" height="24">
<path d="M24 0H0V24H24V0Z" fill="white"/>
</mask>
<g mask="url(#mask0_7_1718)">
<path d="M18.3996 11.4002C18.5996 10.7002 18.6996 10.0002 18.6996 9.2002C18.6996 4.8002 14.7996 1.2002 9.89961 1.2002C5.09961 1.2002 1.09961 4.8002 1.09961 9.2002C1.09961 11.6002 2.29961 13.8002 4.29961 15.4002V17.9002C4.29961 18.2002 4.39961 18.4002 4.69961 18.5002C4.79961 18.6002 4.99961 18.6002 5.09961 18.6002C5.19961 18.6002 5.29961 18.6002 5.39961 18.5002L8.29961 17.1002C9.19961 17.3002 10.1996 17.3002 11.0996 17.1002C11.1996 20.2002 13.6996 22.7002 16.7996 22.7002C19.9996 22.7002 22.5996 20.1002 22.5996 16.9002C22.7996 14.3002 20.8996 12.1002 18.3996 11.4002ZM8.49961 15.6002C8.29961 15.6002 8.19961 15.6002 7.99961 15.7002L5.89961 16.7002V15.1002C5.89961 14.9002 5.79961 14.6002 5.59961 14.5002C3.79961 13.3002 2.69961 11.4002 2.69961 9.3002C2.79961 5.7002 5.99961 2.8002 9.99961 2.8002C13.9996 2.8002 17.1996 5.7002 17.1996 9.3002C17.1996 10.0002 17.0996 10.7002 16.7996 11.3002C14.1996 11.4002 11.9996 13.2002 11.3996 15.6002C10.3996 15.8002 9.49961 15.8002 8.49961 15.6002ZM16.9996 21.3002C14.6996 21.3002 12.7996 19.4002 12.7996 17.1002C12.7996 14.8002 14.6996 12.9002 16.9996 12.9002C19.2996 12.9002 21.1996 14.8002 21.1996 17.1002C21.1996 19.4002 19.2996 21.3002 16.9996 21.3002Z" fill="white"/>
<path d="M10.6996 8.7002C10.2996 8.3002 9.69961 8.3002 9.29961 8.7002C9.09961 8.9002 8.99961 9.10019 8.99961 9.4002C8.99961 9.7002 9.09961 9.9002 9.29961 10.1002C9.49961 10.3002 9.79961 10.4002 9.99961 10.4002C10.1996 10.4002 10.4996 10.3002 10.6996 10.1002C10.8996 9.9002 10.9996 9.7002 10.9996 9.4002C10.9996 9.10019 10.8996 8.9002 10.6996 8.7002Z" fill="white"/>
<path d="M13.5996 10.4002C13.8996 10.4002 14.0996 10.3002 14.2996 10.1002C14.6996 9.7002 14.6996 9.1002 14.2996 8.7002C13.8996 8.3002 13.2996 8.3002 12.8996 8.7002C12.4996 9.1002 12.4996 9.7002 12.8996 10.1002C12.9996 10.3002 13.2996 10.4002 13.5996 10.4002Z" fill="white"/>
<path d="M5.69961 8.7002C5.49961 8.9002 5.39961 9.10019 5.39961 9.4002C5.39961 9.7002 5.49961 9.9002 5.69961 10.1002C5.89961 10.3002 6.19961 10.4002 6.39961 10.4002C6.69961 10.4002 6.89961 10.3002 7.09961 10.1002C7.49961 9.7002 7.49961 9.1002 7.09961 8.7002C6.79961 8.3002 6.09961 8.3002 5.69961 8.7002Z" fill="white"/>
<path d="M18.8996 15.1002C18.5996 14.8002 18.0996 14.8002 17.7996 15.1002L16.9996 15.9002L16.0996 15.0002C15.7996 14.7002 15.2996 14.7002 14.9996 15.0002C14.6996 15.3002 14.6996 15.8002 14.9996 16.1002L15.8996 17.0002L14.9996 17.9002C14.6996 18.2002 14.6996 18.7002 14.9996 19.0002C15.0996 19.1002 15.2996 19.2002 15.4996 19.2002C15.6996 19.2002 15.8996 19.1002 15.9996 19.0002L16.8996 18.1002L17.7996 19.0002C17.8996 19.1002 18.0996 19.2002 18.2996 19.2002C18.4996 19.2002 18.6996 19.1002 18.7996 19.0002C19.0996 18.7002 19.0996 18.2002 18.7996 17.9002L18.0996 17.0002L18.9996 16.1002C19.1996 15.8002 19.1996 15.4002 18.8996 15.1002Z" fill="white"/>
</g>
</g>
<defs>
<clipPath id="clip0_7_1718">
<rect width="24" height="24" fill="white"/>
</clipPath>
</defs>
</svg>
