<svg width="24" height="24" viewBox="0 0 24 24" fill="none" xmlns="http://www.w3.org/2000/svg">
<g clip-path="url(#clip0_7_1652)">
<mask id="mask0_7_1652" style="mask-type:luminance" maskUnits="userSpaceOnUse" x="0" y="0" width="24" height="24">
<path d="M24 0H0V24H24V0Z" fill="white"/>
</mask>
<g mask="url(#mask0_7_1652)">
<path d="M11.5002 7.3002C10.2002 7.3002 9.1002 8.4002 9.1002 9.7002C9.1002 10.1002 9.4002 10.5002 9.9002 10.5002C10.4002 10.5002 10.7002 10.2002 10.7002 9.7002C10.7002 9.2002 11.1002 8.8002 11.6002 8.8002C12.1002 8.8002 12.5002 9.2002 12.5002 9.7002C12.5002 10.0002 12.4002 10.1002 12.0002 10.4002C11.7002 10.6002 10.8002 11.2002 10.8002 12.3002V12.5002C10.8002 12.9002 11.1002 13.3002 11.6002 13.3002C12.1002 13.3002 12.4002 13.0002 12.4002 12.5002V12.3002C12.4002 12.0002 12.5002 11.9002 12.9002 11.6002C13.2002 11.4002 14.1002 10.8002 14.1002 9.7002C13.9002 8.3002 12.8002 7.3002 11.5002 7.3002Z" fill="white"/>
<path d="M21.3002 11.5002C21.3002 6.1002 16.9002 1.7002 11.5002 1.7002C6.1002 1.7002 1.7002 6.1002 1.7002 11.5002C1.7002 16.9002 6.1002 21.3002 11.5002 21.3002C13.1002 21.3002 14.6002 20.9002 16.0002 20.2002L20.3002 21.3002C20.4002 21.3002 20.4002 21.3002 20.5002 21.3002C20.7002 21.3002 20.9002 21.2002 21.1002 21.1002C21.3002 20.9002 21.4002 20.6002 21.3002 20.3002L20.2002 16.0002C20.9002 14.6002 21.3002 13.0002 21.3002 11.5002ZM18.5002 16.1002L19.3002 19.4002L16.0002 18.6002C15.8002 18.6002 15.6002 18.6002 15.4002 18.7002C14.2002 19.4002 12.8002 19.7002 11.4002 19.7002C6.9002 19.7002 3.2002 16.0002 3.2002 11.5002C3.2002 7.0002 6.9002 3.3002 11.4002 3.3002C15.9002 3.3002 19.6002 7.0002 19.6002 11.5002C19.6002 12.9002 19.2002 14.3002 18.6002 15.5002C18.5002 15.7002 18.5002 15.9002 18.5002 16.1002Z" fill="white"/>
<path d="M10.9002 14.6002C10.6002 14.9002 10.6002 15.4002 10.9002 15.7002C11.0002 15.8002 11.3002 15.9002 11.5002 15.9002C11.7002 15.9002 11.9002 15.8002 12.1002 15.7002C12.4002 15.4002 12.4002 14.9002 12.1002 14.6002C11.7002 14.3002 11.2002 14.3002 10.9002 14.6002Z" fill="white"/>
</g>
</g>
<defs>
<clipPath id="clip0_7_1652">
<rect width="24" height="24" fill="white"/>
</clipPath>
</defs>
</svg>
