<svg width="24" height="24" viewBox="0 0 24 24" fill="none" xmlns="http://www.w3.org/2000/svg">
<path d="M2.25 6C2.25 3.92879 3.92879 2.25 6 2.25H18C20.0712 2.25 21.75 3.92879 21.75 6V14C21.75 16.0712 20.0712 17.75 18 17.75H13.2631L8.46852 21.5857C8.24339 21.7658 7.93496 21.8009 7.67511 21.676C7.41526 21.5511 7.25 21.2883 7.25 21V17.75H6C3.92879 17.75 2.25 16.0712 2.25 14V6ZM6 3.75C4.75721 3.75 3.75 4.75721 3.75 6V14C3.75 15.2428 4.75721 16.25 6 16.25H8C8.41421 16.25 8.75 16.5858 8.75 17V19.4395L12.5315 16.4143C12.6645 16.308 12.8297 16.25 13 16.25H18C19.2428 16.25 20.25 15.2428 20.25 14V6C20.25 4.75721 19.2428 3.75 18 3.75H6Z" fill="white"/>
</svg>
