<svg width="24" height="24" viewBox="0 0 24 24" fill="none" xmlns="http://www.w3.org/2000/svg">
<path d="M3.79427 11.9997C3.79427 7.46724 7.46774 3.79377 12.0002 3.79377C16.5326 3.79377 20.2061 7.46724 20.2061 11.9997C20.2061 16.5321 16.5326 20.2056 12.0002 20.2056C10.5436 20.2056 9.17888 19.8222 7.99298 19.1563C7.81623 19.0571 7.60822 19.0292 7.41157 19.0783L4.09155 19.9083L4.92156 16.5883C4.97072 16.3917 4.94282 16.1836 4.84357 16.0069C4.17764 14.821 3.79427 13.4563 3.79427 11.9997ZM12.0002 2.20557C6.5906 2.20557 2.20607 6.5901 2.20607 11.9997C2.20607 13.6244 2.6062 15.1548 3.30607 16.5019L2.22978 20.8071C2.16213 21.0777 2.24142 21.364 2.43865 21.5612C2.63589 21.7585 2.92216 21.8378 3.19277 21.7701L7.49794 20.6938C8.8451 21.3937 10.3755 21.7938 12.0002 21.7938C17.4098 21.7938 21.7943 17.4093 21.7943 11.9997C21.7943 6.5901 17.4098 2.20557 12.0002 2.20557ZM7.75016 10.4996C7.75016 10.0853 8.08595 9.74952 8.50016 9.74952H15.5002C15.9144 9.74952 16.2502 10.0853 16.2502 10.4996C16.2502 10.9138 15.9144 11.2496 15.5002 11.2496H8.50016C8.08595 11.2496 7.75016 10.9138 7.75016 10.4996ZM7.75016 14.4996C7.75016 14.0853 8.08595 13.7496 8.50016 13.7496H15.5002C15.9144 13.7496 16.2502 14.0853 16.2502 14.4996C16.2502 14.9138 15.9144 15.2496 15.5002 15.2496H8.50016C8.08595 15.2496 7.75016 14.9138 7.75016 14.4996Z" fill="white"/>
</svg>
