<svg width="24" height="24" viewBox="0 0 24 24" fill="none" xmlns="http://www.w3.org/2000/svg">
<path d="M6.16637 6.16637C9.3882 2.94454 14.6118 2.94454 17.8336 6.16637C21.0554 9.3882 21.0554 14.6118 17.8336 17.8336C14.6117 21.0554 9.38818 21.0554 6.16637 17.8336C2.94454 14.6118 2.94455 9.38818 6.16637 6.16637ZM18.8942 5.10571C15.0866 1.2981 8.91332 1.2981 5.10571 5.10571C1.2981 8.9133 1.2981 15.0867 5.10571 18.8943C8.9133 22.7019 15.0866 22.7019 18.8942 18.8943C22.7018 15.0867 22.7018 8.91332 18.8942 5.10571ZM8.77652 10.0835C7.71831 11.8624 8.30251 14.1634 10.0826 15.2226C11.1467 15.8561 12.4478 15.9133 13.5625 15.4007C13.6969 15.3389 13.8465 15.3182 13.9926 15.3412L15.5963 15.5938L15.3381 13.959C15.3153 13.8145 15.3352 13.6665 15.3954 13.5332C16.1727 11.8133 15.566 9.75991 13.9153 8.77849C12.1364 7.71953 9.83481 8.30438 8.77652 10.0835ZM7.48736 9.31662C8.969 6.82583 12.1911 6.00664 14.6822 7.48939C16.9389 8.83114 17.7944 11.5859 16.8533 13.9374L17.2387 16.378C17.2761 16.615 17.1979 16.8556 17.0283 17.0253C16.8587 17.1949 16.6182 17.2732 16.3812 17.2359L13.974 16.8567C12.4677 17.47 10.7427 17.3612 9.31542 16.5116C6.82358 15.0288 6.00557 11.8077 7.48736 9.31662Z" fill="white"/>
</svg>
