<svg width="24" height="24" viewBox="0 0 24 24" fill="none" xmlns="http://www.w3.org/2000/svg">
<path d="M18.3996 11.4002C18.5996 10.7002 18.6996 10.0002 18.6996 9.2002C18.6996 4.7002 14.6996 1.2002 9.89961 1.2002C5.09961 1.2002 1.09961 4.7002 1.09961 9.2002C1.09961 11.7002 2.39961 13.9002 4.29961 15.4002C4.29961 15.7002 4.29961 16.1002 4.29961 16.5002C4.29961 16.9002 4.29961 17.4002 4.29961 17.8002C4.29961 18.1002 4.39961 18.3002 4.69961 18.4002C4.99961 18.5002 5.19961 18.6002 5.39961 18.4002L8.29961 17.0002C8.79961 17.1002 9.29961 17.1002 9.89961 17.1002C10.2996 17.1002 10.6996 17.1002 11.1996 17.0002C11.2996 20.1002 13.7996 22.6002 16.8996 22.6002C20.0996 22.6002 22.6996 20.0002 22.6996 16.8002C22.7996 14.3002 20.8996 12.1002 18.3996 11.4002ZM8.49961 15.6002C8.29961 15.6002 8.19961 15.6002 7.99961 15.7002L5.89961 16.7002V16.6002C5.89961 16.0002 5.89961 15.5002 5.89961 15.1002C5.89961 14.9002 5.79961 14.6002 5.59961 14.5002C3.79961 13.3002 2.69961 11.4002 2.69961 9.3002C2.69961 5.8002 5.89961 2.8002 9.89961 2.8002C13.8996 2.8002 17.0996 5.8002 17.0996 9.3002C17.0996 10.0002 16.9996 10.7002 16.6996 11.3002C14.0996 11.4002 11.8996 13.2002 11.1996 15.6002C10.6996 15.7002 10.2996 15.7002 9.79961 15.7002C9.49961 15.7002 8.99961 15.7002 8.49961 15.6002ZM16.9996 21.2002C14.6996 21.2002 12.7996 19.3002 12.7996 17.0002C12.7996 14.7002 14.6996 12.8002 16.9996 12.8002C19.2996 12.8002 21.1996 14.7002 21.1996 17.0002C21.1996 19.3002 19.2996 21.2002 16.9996 21.2002Z" fill="white"/>
<path d="M18.6996 15.3002L16.4996 17.5002L15.3996 16.4002C15.0996 16.1002 14.5996 16.1002 14.2996 16.4002C13.9996 16.7002 13.9996 17.2002 14.2996 17.5002L15.9996 19.2002C16.0996 19.3002 16.2996 19.4002 16.4996 19.4002C16.6996 19.4002 16.8996 19.3002 16.9996 19.2002L19.7996 16.4002C20.0996 16.1002 20.0996 15.6002 19.7996 15.3002C19.4996 15.0002 18.9996 15.0002 18.6996 15.3002Z" fill="white"/>
<path d="M10.6996 8.7002C10.2996 8.3002 9.69961 8.3002 9.29961 8.7002C8.89961 9.1002 8.89961 9.7002 9.29961 10.1002C9.69961 10.5002 10.2996 10.5002 10.6996 10.1002C11.0996 9.7002 11.0996 9.1002 10.6996 8.7002Z" fill="white"/>
<path d="M14.2996 10.1002C14.6996 9.7002 14.6996 9.1002 14.2996 8.7002C13.8996 8.3002 13.2996 8.3002 12.8996 8.7002C12.4996 9.1002 12.4996 9.7002 12.8996 10.1002C13.1996 10.5002 13.8996 10.5002 14.2996 10.1002Z" fill="white"/>
<path d="M5.69961 8.7002C5.29961 9.1002 5.29961 9.7002 5.69961 10.1002C6.09961 10.5002 6.69961 10.5002 7.09961 10.1002C7.49961 9.7002 7.49961 9.1002 7.09961 8.7002C6.79961 8.3002 6.09961 8.3002 5.69961 8.7002Z" fill="white"/>
</svg>
