<svg width="24" height="24" viewBox="0 0 24 24" fill="none" xmlns="http://www.w3.org/2000/svg">
<path d="M4.75 6C4.75 5.30921 5.30921 4.75 6 4.75H18C18.6908 4.75 19.25 5.30921 19.25 6V18C19.25 18.6908 18.6908 19.25 18 19.25H6C5.30921 19.25 4.75 18.6908 4.75 18V6ZM6 3.25C4.48079 3.25 3.25 4.48079 3.25 6V18C3.25 19.5192 4.48079 20.75 6 20.75H18C19.5192 20.75 20.75 19.5192 20.75 18V6C20.75 4.48079 19.5192 3.25 18 3.25H6ZM16.5303 10.5303C16.8232 10.2374 16.8232 9.76256 16.5303 9.46967C16.2374 9.17678 15.7626 9.17678 15.4697 9.46967L11 13.9393L8.53033 11.4697C8.23744 11.1768 7.76256 11.1768 7.46967 11.4697C7.17678 11.7626 7.17678 12.2374 7.46967 12.5303L10.4697 15.5303C10.7626 15.8232 11.2374 15.8232 11.5303 15.5303L16.5303 10.5303Z" fill="white"/>
</svg>
