<svg width="24" height="24" viewBox="0 0 24 24" fill="none" xmlns="http://www.w3.org/2000/svg">
<path d="M3.75 12C3.75 7.44321 7.44321 3.75 12 3.75C13.3298 3.75 14.5829 4.07278 15.699 4.63405C16.0691 4.82014 16.52 4.67101 16.706 4.30095C16.8921 3.9309 16.743 3.48005 16.373 3.29395C15.0591 2.63322 13.5762 2.25 12 2.25C6.61479 2.25 2.25 6.61479 2.25 12C2.25 17.3852 6.61479 21.75 12 21.75C17.3852 21.75 21.75 17.3852 21.75 12C21.75 11.5858 21.4142 11.25 21 11.25C20.5858 11.25 20.25 11.5858 20.25 12C20.25 16.5568 16.5568 20.25 12 20.25C7.44321 20.25 3.75 16.5568 3.75 12ZM20.0913 7.97418C20.3842 7.68128 20.3842 7.20641 20.0913 6.91352C19.7984 6.62062 19.3236 6.62062 19.0307 6.91352L12.0051 13.9391L8.7584 10.6916C8.46554 10.3987 7.99067 10.3986 7.69774 10.6914C7.4048 10.9843 7.40474 11.4592 7.6976 11.7521L11.4746 15.5301C11.6152 15.6708 11.806 15.7498 12.0049 15.7498C12.2039 15.7499 12.3947 15.6708 12.5353 15.5302L20.0913 7.97418Z" fill="white"/>
</svg>
