<svg width="24" height="24" viewBox="0 0 24 24" fill="none" xmlns="http://www.w3.org/2000/svg">
<path d="M10.376 2.39533C10.8947 2.30834 11.4364 2.25 12 2.25C17.3852 2.25 21.75 6.61479 21.75 12C21.75 17.3852 17.3852 21.75 12 21.75C11.4364 21.75 10.8947 21.6917 10.376 21.6047C9.96746 21.5362 9.69183 21.1495 9.76033 20.741C9.82883 20.3325 10.2155 20.0568 10.624 20.1253C11.0833 20.2023 11.5396 20.25 12 20.25C16.5568 20.25 20.25 16.5568 20.25 12C20.25 7.44321 16.5568 3.75 12 3.75C11.5396 3.75 11.0833 3.79766 10.624 3.87467C10.2155 3.94318 9.82883 3.66754 9.76033 3.25904C9.69183 2.85053 9.96746 2.46383 10.376 2.39533ZM7.22622 5.27981C7.56356 5.03944 7.64217 4.57112 7.4018 4.23378C7.16143 3.89644 6.69311 3.81783 6.35577 4.0582C5.46692 4.69155 4.6914 5.46701 4.05884 6.35627C3.81875 6.6938 3.89773 7.16206 4.23527 7.40216C4.5728 7.64225 5.04106 7.56327 5.28115 7.22573C5.81659 6.473 6.47307 5.81646 7.22622 5.27981ZM3.25904 9.76045C3.66754 9.82895 3.94318 10.2156 3.87467 10.6242C3.79766 11.0834 3.75 11.5397 3.75 12.0001C3.75 12.4605 3.79766 12.9168 3.87467 13.3761C3.94318 13.7846 3.66754 14.1713 3.25904 14.2398C2.85053 14.3083 2.46383 14.0327 2.39533 13.6242C2.30834 13.1054 2.25 12.5637 2.25 12.0001C2.25 11.4365 2.30834 10.8948 2.39533 10.3761C2.46383 9.96757 2.85053 9.69194 3.25904 9.76045ZM4.23491 16.5981C4.57231 16.3579 5.04061 16.4366 5.2809 16.774C5.81648 17.526 6.47406 18.1836 7.22608 18.7191C7.56347 18.9594 7.64219 19.4277 7.4019 19.7651C7.16161 20.1025 6.69331 20.1812 6.35591 19.9409C5.46793 19.3085 4.69151 18.5321 4.05909 17.6441C3.8188 17.3067 3.89752 16.8384 4.23491 16.5981ZM16.5303 10.5303C16.8232 10.2374 16.8232 9.76256 16.5303 9.46967C16.2374 9.17678 15.7626 9.17678 15.4697 9.46967L11 13.9393L8.53033 11.4697C8.23744 11.1768 7.76256 11.1768 7.46967 11.4697C7.17678 11.7626 7.17678 12.2374 7.46967 12.5303L10.4697 15.5303C10.7626 15.8232 11.2374 15.8232 11.5303 15.5303L16.5303 10.5303Z" fill="white"/>
</svg>
