<svg width="24" height="24" viewBox="0 0 24 24" fill="none" xmlns="http://www.w3.org/2000/svg">
<path d="M4.34473 5.6C4.34473 4.85421 4.94894 4.25 5.69473 4.25H12.0947C12.5089 4.25 12.8447 3.91421 12.8447 3.5C12.8447 3.08579 12.5089 2.75 12.0947 2.75H5.69473C4.12052 2.75 2.84473 4.02579 2.84473 5.6V18.4C2.84473 19.9742 4.12052 21.25 5.69473 21.25H18.4947C20.0689 21.25 21.3447 19.9742 21.3447 18.4V13.506C21.3447 13.0918 21.0089 12.756 20.5947 12.756C20.1805 12.756 19.8447 13.0918 19.8447 13.506V18.4C19.8447 19.1458 19.2405 19.75 18.4947 19.75H5.69473C4.94894 19.75 4.34473 19.1458 4.34473 18.4V5.6ZM20.091 7.27349C20.3839 6.9806 20.3839 6.50573 20.091 6.21283C19.7981 5.91994 19.3233 5.91994 19.0304 6.21283L12.0048 13.2384L8.75813 9.9909C8.46527 9.69797 7.9904 9.69791 7.69747 9.99076C7.40453 10.2836 7.40447 10.7585 7.69733 11.0514L11.4743 14.8294C11.6149 14.9701 11.8057 15.0492 12.0046 15.0492C12.2036 15.0492 12.3944 14.9702 12.535 14.8295L20.091 7.27349Z" fill="white"/>
</svg>
