<svg width="24" height="24" viewBox="0 0 24 24" fill="none" xmlns="http://www.w3.org/2000/svg">
<path d="M17.5303 7.53033C17.8232 7.23744 17.8232 6.76256 17.5303 6.46967C17.2374 6.17678 16.7626 6.17678 16.4697 6.46967L11.9697 10.9697C11.6768 11.2626 11.6768 11.7374 11.9697 12.0303C12.2626 12.3232 12.7374 12.3232 13.0303 12.0303L17.5303 7.53033ZM7.46967 12.5303L6.46967 11.5303C6.17678 11.2374 6.17678 10.7626 6.46967 10.4697C6.76256 10.1768 7.23744 10.1768 7.53033 10.4697L8.53033 11.4697L13 15.9393L20.4697 8.46967C20.7626 8.17678 21.2374 8.17678 21.5303 8.46967C21.8232 8.76256 21.8232 9.23744 21.5303 9.53033L13.531 17.5296M13.531 17.5296C13.2381 17.8225 12.7626 17.8232 12.4697 17.5303L13.531 17.5296ZM2.46967 11.4697C2.76256 11.1768 3.23744 11.1768 3.53033 11.4697L8.53033 16.4697C8.82322 16.7626 8.82322 17.2374 8.53033 17.5303C8.23744 17.8232 7.76256 17.8232 7.46967 17.5303L2.46967 12.5303C2.17678 12.2374 2.17678 11.7626 2.46967 11.4697Z" fill="white"/>
</svg>
