<svg width="24" height="24" viewBox="0 0 24 24" fill="none" xmlns="http://www.w3.org/2000/svg">
<g clip-path="url(#clip0_7_1632)">
<mask id="mask0_7_1632" style="mask-type:luminance" maskUnits="userSpaceOnUse" x="0" y="0" width="24" height="24">
<path d="M24 0H0V24H24V0Z" fill="white"/>
</mask>
<g mask="url(#mask0_7_1632)">
<path d="M20.6998 4.70006C18.0998 2.70006 14.4998 2.80006 11.9998 4.90006C9.4998 2.80006 5.8998 2.70006 3.2998 4.70006C2.5998 5.20006 2.2998 6.00006 2.2998 6.90006V18.2001C2.2998 18.8001 2.5998 19.3001 3.0998 19.7001C3.5998 20.0001 4.2998 20.0001 4.7998 19.8001C6.9998 18.7001 9.7998 19.1001 11.4998 20.7001C11.4998 20.7001 11.5998 20.7001 11.5998 20.8001C11.5998 20.8001 11.6998 20.8001 11.6998 20.9001C11.7998 20.9001 11.8998 21.0001 11.9998 21.0001C12.0998 21.0001 12.1998 21.0001 12.2998 20.9001C12.2998 20.9001 12.3998 20.9001 12.3998 20.8001C12.3998 20.8001 12.4998 20.8001 12.4998 20.7001C14.2998 19.1001 16.9998 18.7001 19.1998 19.8001C19.7998 20.1001 20.3998 20.0001 20.8998 19.7001C21.3998 19.4001 21.6998 18.8001 21.6998 18.2001V6.80006C21.7998 6.00006 21.3998 5.20006 20.6998 4.70006ZM4.0998 18.3001C3.9998 18.4001 3.8998 18.3001 3.7998 18.3001C3.6998 18.3001 3.6998 18.2001 3.6998 18.1001V6.80006C3.6998 6.40006 3.8998 6.10006 4.1998 5.80006C6.3998 4.10006 9.2998 4.30006 11.1998 6.20006V18.5001C10.0998 17.9001 8.79981 17.5001 7.39981 17.5001C6.29981 17.6001 5.1998 17.8001 4.0998 18.3001ZM20.1998 18.2001C20.1998 18.3001 20.1998 18.3001 20.0998 18.4001C20.0998 18.4001 19.9998 18.5001 19.7998 18.4001C17.4998 17.3001 14.7998 17.4001 12.6998 18.6001V6.30006C14.6998 4.40006 17.5998 4.20006 19.6998 5.90006C19.9998 6.10006 20.1998 6.50006 20.1998 6.90006V18.2001Z" fill="white"/>
</g>
</g>
<defs>
<clipPath id="clip0_7_1632">
<rect width="24" height="24" fill="white"/>
</clipPath>
</defs>
</svg>
