<svg width="24" height="24" viewBox="0 0 24 24" fill="none" xmlns="http://www.w3.org/2000/svg">
<path d="M4.25 4C4.25 3.03379 5.03379 2.25 6 2.25H9C10.2268 2.25 11.3159 2.83893 12 3.74951C12.6841 2.83893 13.7732 2.25 15 2.25H18C18.9662 2.25 19.75 3.03379 19.75 4V4.25H20C21.5192 4.25 22.75 5.48079 22.75 7V19C22.75 20.5192 21.5192 21.75 20 21.75H12H4C2.48079 21.75 1.25 20.5192 1.25 19V7C1.25 5.48079 2.48079 4.25 4 4.25H4.25V4ZM12.75 17.9996C13.3767 17.5289 14.1558 17.25 15 17.25H18C18.1378 17.25 18.25 17.1378 18.25 17V5V4C18.25 3.86221 18.1378 3.75 18 3.75H15C13.7572 3.75 12.75 4.75721 12.75 6V17.9996ZM11.25 6C11.25 4.75721 10.2428 3.75 9 3.75H6C5.86221 3.75 5.75 3.86221 5.75 4V5V17C5.75 17.1378 5.86221 17.25 6 17.25H9C9.84424 17.25 10.6233 17.5289 11.25 17.9996V6ZM20 5.75H19.75V17C19.75 17.9662 18.9662 18.75 18 18.75H15C14.0202 18.75 13.1868 19.376 12.878 20.25H20C20.6908 20.25 21.25 19.6908 21.25 19V7C21.25 6.30921 20.6908 5.75 20 5.75ZM9 18.75H6C5.03379 18.75 4.25 17.9662 4.25 17V5.75H4C3.30921 5.75 2.75 6.30921 2.75 7V19C2.75 19.6908 3.30921 20.25 4 20.25H11.122C10.8132 19.376 9.9798 18.75 9 18.75Z" fill="white"/>
</svg>
