<svg width="24" height="24" viewBox="0 0 24 24" fill="none" xmlns="http://www.w3.org/2000/svg">
<path d="M7.536 3.75C6.96965 3.75 6.5 4.21476 6.5 4.8V19.7614L11.6615 17.0624C11.8794 16.9484 12.1394 16.9485 12.3573 17.0628L17.501 19.7599V4.8C17.501 4.21476 17.0313 3.75 16.465 3.75H7.536ZM5 4.8C5 3.39724 6.13035 2.25 7.536 2.25H16.465C17.8707 2.25 19.001 3.39725 19.001 4.8V21C19.001 21.2625 18.8638 21.5059 18.6391 21.6418C18.4145 21.7776 18.1352 21.7861 17.9027 21.6642L12.0085 18.5736L6.09754 21.6646C5.86505 21.7862 5.58594 21.7774 5.36151 21.6415C5.13709 21.5056 5 21.2624 5 21V4.8ZM9.34967 8.34955C9.64257 8.05666 10.1174 8.05666 10.4103 8.34955L12 9.93922L13.5897 8.34955C13.8826 8.05666 14.3574 8.05666 14.6503 8.34955C14.9432 8.64245 14.9432 9.11732 14.6503 9.41021L13.0607 10.9999L14.6503 12.5896C14.9432 12.8824 14.9432 13.3573 14.6503 13.6502C14.3574 13.9431 13.8826 13.9431 13.5897 13.6502L12 12.0605L10.4103 13.6502C10.1174 13.9431 9.64257 13.9431 9.34967 13.6502C9.05678 13.3573 9.05678 12.8824 9.34967 12.5896L10.9393 10.9999L9.34967 9.41021C9.05678 9.11732 9.05678 8.64245 9.34967 8.34955Z" fill="white"/>
</svg>
