<svg width="24" height="24" viewBox="0 0 24 24" fill="none" xmlns="http://www.w3.org/2000/svg">
<path d="M4.75 5V19.7872L9.67295 17.329C9.88415 17.2235 10.1327 17.2237 10.3438 17.3294L15.25 19.7857V16.6968C12.706 16.3328 10.75 14.1446 10.75 11.5C10.75 8.9069 12.7441 6.68216 15.25 6.30595V5C15.25 4.30921 14.6908 3.75 14 3.75H6C5.30921 3.75 4.75 4.30921 4.75 5ZM16.75 16.6969V21C16.75 21.26 16.6153 21.5015 16.3941 21.6381C16.1729 21.7747 15.8967 21.787 15.6642 21.6706L10.0076 18.8385L4.33505 21.671C4.10256 21.7871 3.82655 21.7746 3.60553 21.6379C3.38452 21.5012 3.25 21.2599 3.25 21V5C3.25 3.48079 4.48079 2.25 6 2.25H14C15.5192 2.25 16.75 3.48079 16.75 5V6.30325C19.2942 6.66743 21.25 8.85531 21.25 11.5C21.25 14.1446 19.2948 16.333 16.75 16.6969ZM16.0016 15.25C18.0725 15.2492 19.75 13.5704 19.75 11.5C19.75 9.43011 18.0726 7.75167 16.0024 7.75C13.9839 7.74834 12.25 9.48041 12.25 11.5C12.25 13.5708 13.9292 15.25 16 15.25H16.0016ZM16 9.23096C16.4142 9.23096 16.75 9.56674 16.75 9.98096V10.75H17.519C17.9332 10.75 18.269 11.0858 18.269 11.5C18.269 11.9142 17.9332 12.25 17.519 12.25H16.75V13.018C16.75 13.4322 16.4142 13.768 16 13.768C15.5858 13.768 15.25 13.4322 15.25 13.018V12.25H14.482C14.0678 12.25 13.732 11.9142 13.732 11.5C13.732 11.0858 14.0678 10.75 14.482 10.75H15.25V9.98096C15.25 9.56674 15.5858 9.23096 16 9.23096Z" fill="white"/>
</svg>
