<svg width="24" height="24" viewBox="0 0 24 24" fill="none" xmlns="http://www.w3.org/2000/svg">
<path d="M3 3.75H21C21.1378 3.75 21.25 3.86221 21.25 4V6C21.25 6.13779 21.1378 6.25 21 6.25H20.667H3.33299H3C2.86221 6.25 2.75 6.13779 2.75 6V4C2.75 3.86221 2.86221 3.75 3 3.75ZM21.417 7.69997C22.182 7.51284 22.75 6.82252 22.75 6V4C22.75 3.03379 21.9662 2.25 21 2.25H3C2.03379 2.25 1.25 3.03379 1.25 4V6C1.25 6.82252 1.81799 7.51283 2.58299 7.69997V19C2.58299 20.5192 3.81378 21.75 5.33299 21.75H18.667C20.1862 21.75 21.417 20.5192 21.417 19V7.69997ZM19.917 7.75V19C19.917 19.6908 19.3578 20.25 18.667 20.25H5.33299C4.64221 20.25 4.08299 19.6908 4.08299 19V7.75H19.917ZM8.25 11C8.25 10.5858 8.58579 10.25 9 10.25H15C15.4142 10.25 15.75 10.5858 15.75 11C15.75 11.4142 15.4142 11.75 15 11.75H9C8.58579 11.75 8.25 11.4142 8.25 11Z" fill="white"/>
</svg>
