<svg width="24" height="24" viewBox="0 0 24 24" fill="none" xmlns="http://www.w3.org/2000/svg">
<path d="M7.7002 3.75C7.00941 3.75 6.4502 4.30921 6.4502 5V19.7659L11.6628 17.0613C11.8796 16.9488 12.1376 16.9489 12.3543 17.0616L17.5502 19.7645V5C17.5502 4.30921 16.991 3.75 16.3002 3.75H7.7002ZM4.9502 5C4.9502 3.48079 6.18098 2.25 7.7002 2.25H16.3002C17.8194 2.25 19.0502 3.48079 19.0502 5V21C19.0502 21.2621 18.9134 21.5051 18.6894 21.6411C18.4653 21.7771 18.1866 21.7863 17.9541 21.6654L12.0078 18.5722L6.04562 21.6657C5.81312 21.7864 5.53453 21.777 5.31069 21.6409C5.08685 21.5049 4.9502 21.2619 4.9502 21V5Z" fill="white"/>
</svg>
