<svg width="24" height="24" viewBox="0 0 24 24" fill="none" xmlns="http://www.w3.org/2000/svg">
<path d="M3.75 5C3.75 4.30921 4.30921 3.75 5 3.75C5.69079 3.75 6.25 4.30921 6.25 5C6.25 5.69079 5.69079 6.25 5 6.25C4.30921 6.25 3.75 5.69079 3.75 5ZM5 2.25C3.48079 2.25 2.25 3.48079 2.25 5C2.25 6.51921 3.48079 7.75 5 7.75C6.51921 7.75 7.75 6.51921 7.75 5C7.75 3.48079 6.51921 2.25 5 2.25ZM5 10.75C4.30921 10.75 3.75 11.3092 3.75 12C3.75 12.6908 4.30921 13.25 5 13.25C5.69079 13.25 6.25 12.6908 6.25 12C6.25 11.3092 5.69079 10.75 5 10.75ZM2.25 12C2.25 10.4808 3.48079 9.25 5 9.25C6.51921 9.25 7.75 10.4808 7.75 12C7.75 13.5192 6.51921 14.75 5 14.75C3.48079 14.75 2.25 13.5192 2.25 12ZM12 10.75C11.3092 10.75 10.75 11.3092 10.75 12C10.75 12.6908 11.3092 13.25 12 13.25C12.6908 13.25 13.25 12.6908 13.25 12C13.25 11.3092 12.6908 10.75 12 10.75ZM9.25 12C9.25 10.4808 10.4808 9.25 12 9.25C13.5192 9.25 14.75 10.4808 14.75 12C14.75 13.5192 13.5192 14.75 12 14.75C10.4808 14.75 9.25 13.5192 9.25 12ZM17.75 12C17.75 11.3092 18.3092 10.75 19 10.75C19.6908 10.75 20.25 11.3092 20.25 12C20.25 12.6908 19.6908 13.25 19 13.25C18.3092 13.25 17.75 12.6908 17.75 12ZM19 9.25C17.4808 9.25 16.25 10.4808 16.25 12C16.25 13.5192 17.4808 14.75 19 14.75C20.5192 14.75 21.75 13.5192 21.75 12C21.75 10.4808 20.5192 9.25 19 9.25ZM5 17.75C4.30921 17.75 3.75 18.3092 3.75 19C3.75 19.6908 4.30921 20.25 5 20.25C5.69079 20.25 6.25 19.6908 6.25 19C6.25 18.3092 5.69079 17.75 5 17.75ZM2.25 19C2.25 17.4808 3.48079 16.25 5 16.25C6.51921 16.25 7.75 17.4808 7.75 19C7.75 20.5192 6.51921 21.75 5 21.75C3.48079 21.75 2.25 20.5192 2.25 19ZM10.75 19C10.75 18.3092 11.3092 17.75 12 17.75C12.6908 17.75 13.25 18.3092 13.25 19C13.25 19.6908 12.6908 20.25 12 20.25C11.3092 20.25 10.75 19.6908 10.75 19ZM12 16.25C10.4808 16.25 9.25 17.4808 9.25 19C9.25 20.5192 10.4808 21.75 12 21.75C13.5192 21.75 14.75 20.5192 14.75 19C14.75 17.4808 13.5192 16.25 12 16.25ZM19 17.75C18.3092 17.75 17.75 18.3092 17.75 19C17.75 19.6908 18.3092 20.25 19 20.25C19.6908 20.25 20.25 19.6908 20.25 19C20.25 18.3092 19.6908 17.75 19 17.75ZM16.25 19C16.25 17.4808 17.4808 16.25 19 16.25C20.5192 16.25 21.75 17.4808 21.75 19C21.75 20.5192 20.5192 21.75 19 21.75C17.4808 21.75 16.25 20.5192 16.25 19ZM12 3.75C11.3092 3.75 10.75 4.30921 10.75 5C10.75 5.69079 11.3092 6.25 12 6.25C12.6908 6.25 13.25 5.69079 13.25 5C13.25 4.30921 12.6908 3.75 12 3.75ZM9.25 5C9.25 3.48079 10.4808 2.25 12 2.25C13.5192 2.25 14.75 3.48079 14.75 5C14.75 6.51921 13.5192 7.75 12 7.75C10.4808 7.75 9.25 6.51921 9.25 5ZM17.75 5C17.75 4.30921 18.3092 3.75 19 3.75C19.6908 3.75 20.25 4.30921 20.25 5C20.25 5.69079 19.6908 6.25 19 6.25C18.3092 6.25 17.75 5.69079 17.75 5ZM19 2.25C17.4808 2.25 16.25 3.48079 16.25 5C16.25 6.51921 17.4808 7.75 19 7.75C20.5192 7.75 21.75 6.51921 21.75 5C21.75 3.48079 20.5192 2.25 19 2.25Z" fill="white"/>
</svg>
