<svg width="24" height="24" viewBox="0 0 24 24" fill="none" xmlns="http://www.w3.org/2000/svg">
<path d="M3.75 6C3.75 4.75721 4.75721 3.75 6 3.75H18C19.2428 3.75 20.25 4.75721 20.25 6V18C20.25 19.2428 19.2428 20.25 18 20.25H6C4.75721 20.25 3.75 19.2428 3.75 18V6ZM6 2.25C3.92879 2.25 2.25 3.92879 2.25 6V18C2.25 20.0712 3.92879 21.75 6 21.75H18C20.0712 21.75 21.75 20.0712 21.75 18V6C21.75 3.92879 20.0712 2.25 18 2.25H6ZM7.5 6.75C7.36221 6.75 7.25 6.86221 7.25 7V11C7.25 11.1378 7.36221 11.25 7.5 11.25H9.5C9.63779 11.25 9.75 11.1378 9.75 11V7C9.75 6.86221 9.63779 6.75 9.5 6.75H7.5ZM5.75 7C5.75 6.03379 6.53379 5.25 7.5 5.25H9.5C10.4662 5.25 11.25 6.03379 11.25 7V11C11.25 11.9662 10.4662 12.75 9.5 12.75H7.5C6.53379 12.75 5.75 11.9662 5.75 11V7ZM7.5 15.75C7.36221 15.75 7.25 15.8622 7.25 16V17C7.25 17.1378 7.36221 17.25 7.5 17.25H9.5C9.63779 17.25 9.75 17.1378 9.75 17V16C9.75 15.8622 9.63779 15.75 9.5 15.75H7.5ZM5.75 16C5.75 15.0338 6.53379 14.25 7.5 14.25H9.5C10.4662 14.25 11.25 15.0338 11.25 16V17C11.25 17.9662 10.4662 18.75 9.5 18.75H7.5C6.53379 18.75 5.75 17.9662 5.75 17V16ZM14.25 13C14.25 12.8622 14.3622 12.75 14.5 12.75H16.5C16.6378 12.75 16.75 12.8622 16.75 13V17C16.75 17.1378 16.6378 17.25 16.5 17.25H14.5C14.3622 17.25 14.25 17.1378 14.25 17V13ZM14.5 11.25C13.5338 11.25 12.75 12.0338 12.75 13V17C12.75 17.9662 13.5338 18.75 14.5 18.75H16.5C17.4662 18.75 18.25 17.9662 18.25 17V13C18.25 12.0338 17.4662 11.25 16.5 11.25H14.5ZM14.5 6.75C14.3622 6.75 14.25 6.86221 14.25 7V8C14.25 8.13779 14.3622 8.25 14.5 8.25H16.5C16.6378 8.25 16.75 8.13779 16.75 8V7C16.75 6.86221 16.6378 6.75 16.5 6.75H14.5ZM12.75 7C12.75 6.03379 13.5338 5.25 14.5 5.25H16.5C17.4662 5.25 18.25 6.03379 18.25 7V8C18.25 8.96621 17.4662 9.75 16.5 9.75H14.5C13.5338 9.75 12.75 8.96621 12.75 8V7Z" fill="white"/>
</svg>
