<svg width="24" height="24" viewBox="0 0 24 24" fill="none" xmlns="http://www.w3.org/2000/svg">
<path d="M5 3.75C4.30921 3.75 3.75 4.30921 3.75 5V8C3.75 8.69079 4.30921 9.25 5 9.25H8C8.69079 9.25 9.25 8.69079 9.25 8V5C9.25 4.30921 8.69079 3.75 8 3.75H5ZM2.25 5C2.25 3.48079 3.48079 2.25 5 2.25H8C9.51921 2.25 10.75 3.48079 10.75 5V8C10.75 9.51921 9.51921 10.75 8 10.75H5C3.48079 10.75 2.25 9.51921 2.25 8V5ZM16 3.75C15.3092 3.75 14.75 4.30921 14.75 5V8C14.75 8.69079 15.3092 9.25 16 9.25H19C19.6908 9.25 20.25 8.69079 20.25 8V5C20.25 4.30921 19.6908 3.75 19 3.75H16ZM13.25 5C13.25 3.48079 14.4808 2.25 16 2.25H19C20.5192 2.25 21.75 3.48079 21.75 5V8C21.75 9.51921 20.5192 10.75 19 10.75H16C14.4808 10.75 13.25 9.51921 13.25 8V5ZM3.75 16C3.75 15.3092 4.30921 14.75 5 14.75H8C8.69079 14.75 9.25 15.3092 9.25 16V19C9.25 19.6908 8.69079 20.25 8 20.25H5C4.30921 20.25 3.75 19.6908 3.75 19V16ZM5 13.25C3.48079 13.25 2.25 14.4808 2.25 16V19C2.25 20.5192 3.48079 21.75 5 21.75H8C9.51921 21.75 10.75 20.5192 10.75 19V16C10.75 14.4808 9.51921 13.25 8 13.25H5ZM17.5 14.25C17.9142 14.25 18.25 14.5858 18.25 15V16.75H20C20.4142 16.75 20.75 17.0858 20.75 17.5C20.75 17.9142 20.4142 18.25 20 18.25H18.25V20C18.25 20.4142 17.9142 20.75 17.5 20.75C17.0858 20.75 16.75 20.4142 16.75 20V18.25H15C14.5858 18.25 14.25 17.9142 14.25 17.5C14.25 17.0858 14.5858 16.75 15 16.75H16.75V15C16.75 14.5858 17.0858 14.25 17.5 14.25Z" fill="white"/>
</svg>
