<svg width="24" height="24" viewBox="0 0 24 24" fill="none" xmlns="http://www.w3.org/2000/svg">
<mask id="mask0_10_182" style="mask-type:alpha" maskUnits="userSpaceOnUse" x="0" y="0" width="24" height="24">
<rect y="24" width="24" height="24" transform="rotate(-90 0 24)" fill="#303C4F"/>
</mask>
<g mask="url(#mask0_10_182)">
<path d="M3.81836 11.4546C3.81836 10.8521 4.30678 10.3636 4.90927 10.3636H6.00018C6.60267 10.3636 7.09109 10.8521 7.09109 11.4546V12.5455C7.09109 13.148 6.60267 13.6364 6.00018 13.6364H4.90927C4.30678 13.6364 3.81836 13.148 3.81836 12.5455V11.4546Z" fill="white"/>
<path d="M10.3638 11.4546C10.3638 10.8521 10.8522 10.3636 11.4547 10.3636H12.5456C13.1481 10.3636 13.6365 10.8521 13.6365 11.4546V12.5455C13.6365 13.148 13.1481 13.6364 12.5456 13.6364H11.4547C10.8522 13.6364 10.3638 13.148 10.3638 12.5455V11.4546Z" fill="white"/>
<path d="M16.9093 11.4546C16.9093 10.8521 17.3977 10.3636 18.0002 10.3636H19.0911C19.6936 10.3636 20.182 10.8521 20.182 11.4546V12.5455C20.182 13.148 19.6936 13.6364 19.0911 13.6364H18.0002C17.3977 13.6364 16.9093 13.148 16.9093 12.5455V11.4546Z" fill="white"/>
</g>
</svg>
