<svg width="24" height="24" viewBox="0 0 24 24" fill="none" xmlns="http://www.w3.org/2000/svg">
<mask id="mask0_10_185" style="mask-type:alpha" maskUnits="userSpaceOnUse" x="0" y="0" width="24" height="24">
<rect y="24" width="24" height="24" transform="rotate(-90 0 24)" fill="#303C4F"/>
</mask>
<g mask="url(#mask0_10_185)">
<path d="M11.4542 20.1818C10.8517 20.1818 10.3633 19.6934 10.3633 19.0909V18C10.3633 17.3975 10.8517 16.9091 11.4542 16.9091H12.5451C13.1476 16.9091 13.636 17.3975 13.636 18V19.0909C13.636 19.6934 13.1476 20.1818 12.5451 20.1818H11.4542Z" fill="white"/>
<path d="M11.4542 13.6364C10.8517 13.6364 10.3633 13.148 10.3633 12.5455V11.4546C10.3633 10.8521 10.8517 10.3636 11.4542 10.3636H12.5451C13.1476 10.3636 13.636 10.8521 13.636 11.4546V12.5455C13.636 13.148 13.1476 13.6364 12.5451 13.6364H11.4542Z" fill="white"/>
<path d="M11.4542 7.09091C10.8517 7.09091 10.3633 6.6025 10.3633 6L10.3633 4.9091C10.3633 4.3066 10.8517 3.81819 11.4542 3.81819H12.5451C13.1476 3.81819 13.636 4.3066 13.636 4.9091V6C13.636 6.6025 13.1476 7.09091 12.5451 7.09091H11.4542Z" fill="white"/>
</g>
</svg>
