<svg width="24" height="24" viewBox="0 0 24 24" fill="none" xmlns="http://www.w3.org/2000/svg">
<g clip-path="url(#clip0_7_2370)">
<mask id="mask0_7_2370" style="mask-type:luminance" maskUnits="userSpaceOnUse" x="0" y="0" width="24" height="24">
<path d="M24 0H0V24H24V0Z" fill="white"/>
</mask>
<g mask="url(#mask0_7_2370)">
<path d="M12.0002 2.29999C6.6002 2.29999 2.2002 6.69999 2.2002 12.1C2.2002 17.5 6.6002 21.9 12.0002 21.9C17.4002 21.9 21.8002 17.5 21.8002 12.1C21.8002 6.69999 17.4002 2.29999 12.0002 2.29999ZM12.0002 20.3C7.5002 20.3 3.8002 16.6 3.8002 12.1C3.8002 7.59999 7.5002 3.79999 12.0002 3.79999C16.5002 3.79999 20.2002 7.49999 20.2002 12C20.2002 16.5 16.5002 20.3 12.0002 20.3Z" fill="white"/>
<path d="M12.0002 10.9C11.7002 10.9 11.4002 11 11.2002 11.2C11.0002 11.4 10.9002 11.7 10.9002 12C10.9002 12.6 11.4002 13.1 12.0002 13.1C12.6002 13.1 13.1002 12.6 13.1002 12C13.1002 11.4 12.6002 10.9 12.0002 10.9Z" fill="white"/>
<path d="M16.0002 10.9C15.7002 10.9 15.4002 11 15.2002 11.2C15.0002 11.4 14.9002 11.7 14.9002 12C14.9002 12.6 15.4002 13.1 16.0002 13.1C16.6002 13.1 17.1002 12.6 17.1002 12C17.1002 11.4 16.6002 10.9 16.0002 10.9Z" fill="white"/>
<path d="M8.0002 10.9C7.70019 10.9 7.40019 11 7.20019 11.2C7.0002 11.4 6.9002 11.7 6.9002 12C6.9002 12.6 7.4002 13.1 8.0002 13.1C8.60019 13.1 9.1002 12.6 9.1002 12C9.1002 11.4 8.60019 10.9 8.0002 10.9Z" fill="white"/>
</g>
</g>
<defs>
<clipPath id="clip0_7_2370">
<rect width="24" height="24" fill="white"/>
</clipPath>
</defs>
</svg>
