<svg width="24" height="24" viewBox="0 0 24 24" fill="none" xmlns="http://www.w3.org/2000/svg">
<g clip-path="url(#clip0_13_413)">
<mask id="mask0_13_413" style="mask-type:luminance" maskUnits="userSpaceOnUse" x="0" y="0" width="24" height="24">
<path d="M24 0H0V24H24V0Z" fill="white"/>
</mask>
<g mask="url(#mask0_13_413)">
<path d="M22.1002 9.8002C22.5002 9.6002 22.7002 9.2002 22.7002 8.8002V6.0002C22.7002 5.0002 21.9002 4.2002 20.9002 4.2002H3.0002C2.0002 4.3002 1.2002 5.0002 1.2002 6.0002V8.8002C1.2002 9.2002 1.4002 9.6002 1.8002 9.8002C2.6002 10.2002 3.2002 11.1002 3.2002 12.0002C3.2002 12.9002 2.7002 13.8002 1.8002 14.2002C1.4002 14.4002 1.2002 14.8002 1.2002 15.2002V18.0002C1.2002 19.0002 2.0002 19.8002 3.0002 19.8002H21.0002C22.0002 19.8002 22.8002 19.0002 22.8002 18.0002V15.2002C22.8002 14.8002 22.6002 14.4002 22.2002 14.2002C21.4002 13.8002 20.8002 12.9002 20.8002 12.0002C20.8002 11.1002 21.3002 10.2002 22.1002 9.8002ZM21.2002 8.5002C20.0002 9.2002 19.2002 10.5002 19.2002 12.0002C19.2002 13.4002 20.0002 14.7002 21.2002 15.5002V18.0002C21.2002 18.1002 21.1002 18.2002 21.0002 18.2002H3.0002C2.9002 18.2002 2.8002 18.1002 2.8002 18.0002V15.5002C4.0002 14.8002 4.8002 13.5002 4.8002 12.0002C4.8002 10.6002 4.0002 9.3002 2.8002 8.5002V6.0002C2.8002 5.9002 2.9002 5.8002 3.0002 5.8002H21.0002C21.1002 5.8002 21.2002 5.9002 21.2002 6.0002V8.5002Z" fill="white"/>
<path d="M15.0002 9.0002C14.7002 8.70019 14.2002 8.70019 13.9002 9.0002L8.90019 14.0002C8.60019 14.3002 8.60019 14.8002 8.90019 15.1002C9.00019 15.2002 9.2002 15.3002 9.4002 15.3002C9.60019 15.3002 9.80019 15.2002 9.9002 15.1002L14.9002 10.1002C15.3002 9.8002 15.3002 9.3002 15.0002 9.0002Z" fill="white"/>
<path d="M15.0002 14.2002C14.6002 14.2002 14.2002 14.5002 14.3002 15.0002C14.3002 15.4002 14.6002 15.8002 15.1002 15.8002C15.6002 15.8002 15.9002 15.5002 15.9002 15.0002C15.9002 14.5002 15.4002 14.2002 15.0002 14.2002Z" fill="white"/>
<path d="M9.8002 9.0002C9.8002 8.6002 9.5002 8.2002 9.0002 8.2002C8.6002 8.2002 8.2002 8.6002 8.2002 9.0002C8.2002 9.4002 8.5002 9.8002 9.0002 9.8002C9.5002 9.8002 9.8002 9.4002 9.8002 9.0002Z" fill="white"/>
</g>
</g>
<defs>
<clipPath id="clip0_13_413">
<rect width="24" height="24" fill="white"/>
</clipPath>
</defs>
</svg>
