<svg width="24" height="24" viewBox="0 0 24 24" fill="none" xmlns="http://www.w3.org/2000/svg">
<path fill-rule="evenodd" clip-rule="evenodd" d="M7.88389 6.11612C7.39573 5.62796 6.60426 5.62796 6.11611 6.11612C5.62795 6.60427 5.62795 7.39573 6.11611 7.88389C6.60427 8.37204 7.39573 8.37204 7.88389 7.88389C8.37205 7.39573 8.37205 6.60427 7.88389 6.11612ZM8.94455 5.05546C10.0185 6.1294 10.0185 7.8706 8.94455 8.94455C7.87061 10.0185 6.1294 10.0185 5.05546 8.94455C3.98151 7.8706 3.98151 6.1294 5.05546 5.05546C6.1294 3.98151 7.87061 3.98151 8.94455 5.05546ZM17.8839 16.1161C17.3957 15.628 16.6043 15.628 16.1161 16.1161C15.628 16.6043 15.628 17.3957 16.1161 17.8839C16.6043 18.372 17.3957 18.372 17.8839 17.8839C18.372 17.3957 18.372 16.6043 17.8839 16.1161ZM18.9445 15.0555C20.0185 16.1294 20.0185 17.8706 18.9445 18.9445C17.8706 20.0185 16.1294 20.0185 15.0554 18.9445C13.9815 17.8706 13.9815 16.1294 15.0554 15.0555C16.1294 13.9815 17.8706 13.9815 18.9445 15.0555ZM17.5303 7.53033C17.8232 7.23744 17.8232 6.76256 17.5303 6.46967C17.2374 6.17678 16.7626 6.17678 16.4697 6.46967L6.46966 16.4697C6.17677 16.7626 6.17677 17.2374 6.46966 17.5303C6.76256 17.8232 7.23744 17.8232 7.53033 17.5303L17.5303 7.53033Z" fill="white"/>
</svg>
