<svg width="24" height="24" viewBox="0 0 24 24" fill="none" xmlns="http://www.w3.org/2000/svg">
<path d="M8.75037 8C8.75037 6.20521 10.2056 4.75 12.0004 4.75C13.7952 4.75 15.2504 6.20521 15.2504 8V8.444C15.2504 8.85821 15.5862 9.194 16.0004 9.194C16.4146 9.194 16.7504 8.85821 16.7504 8.444V8C16.7504 5.37679 14.6236 3.25 12.0004 3.25C9.37716 3.25 7.25037 5.37679 7.25037 8V10C7.25037 12.6232 9.37716 14.75 12.0004 14.75C12.4146 14.75 12.7504 14.4142 12.7504 14C12.7504 13.5858 12.4146 13.25 12.0004 13.25C10.2056 13.25 8.75037 11.7948 8.75037 10V8ZM21.011 8.2707C21.2929 7.98872 21.2929 7.53155 21.011 7.24957C20.729 6.96759 20.2718 6.96759 19.9898 7.24957L18.5798 8.65957C18.2979 8.94155 18.2979 9.39872 18.5798 9.6807C18.8618 9.96268 19.319 9.96268 19.601 9.6807L21.011 8.2707ZM19.601 14.3194C19.319 14.0374 18.8618 14.0374 18.5798 14.3194C18.2979 14.6014 18.2979 15.0585 18.5798 15.3405L19.9898 16.7505C20.2718 17.0325 20.729 17.0325 21.011 16.7505C21.2929 16.4685 21.2929 16.0114 21.011 15.7294L19.601 14.3194ZM19.7784 11.9999C19.7784 11.6011 20.1016 11.2778 20.5004 11.2778H22.5004C22.8992 11.2778 23.2225 11.6011 23.2225 11.9999C23.2225 12.3987 22.8992 12.7219 22.5004 12.7219H20.5004C20.1016 12.7219 19.7784 12.3987 19.7784 11.9999ZM5.42094 15.3405C5.70292 15.0585 5.70292 14.6014 5.42094 14.3194C5.13896 14.0374 4.68179 14.0374 4.39981 14.3194L2.98981 15.7294C2.70783 16.0114 2.70783 16.4685 2.98981 16.7505C3.27179 17.0325 3.72896 17.0325 4.01094 16.7505L5.42094 15.3405ZM2.98981 7.24957C3.27179 6.96759 3.72896 6.96759 4.01094 7.24957L5.42094 8.65957C5.70292 8.94155 5.70292 9.39872 5.42094 9.6807C5.13896 9.96268 4.68179 9.96268 4.39981 9.6807L2.98981 8.2707C2.70783 7.98872 2.70783 7.53155 2.98981 7.24957ZM1.50037 11.2778C1.1016 11.2778 0.77832 11.6011 0.77832 11.9999C0.77832 12.3987 1.1016 12.7219 1.50037 12.7219H3.50037C3.89915 12.7219 4.22242 12.3987 4.22242 11.9999C4.22242 11.6011 3.89915 11.2778 3.50037 11.2778H1.50037ZM11.6944 10.2222C11.6944 9.80795 12.0302 9.47217 12.4444 9.47217C14.8226 9.47217 16.7504 11.4 16.7504 13.7782V16.0002C16.7504 18.6234 14.6236 20.7502 12.0004 20.7502C9.37716 20.7502 7.25037 18.6234 7.25037 16.0002V15.5562C7.25037 15.142 7.58616 14.8062 8.00037 14.8062C8.41458 14.8062 8.75037 15.142 8.75037 15.5562V16.0002C8.75037 17.795 10.2056 19.2502 12.0004 19.2502C13.7952 19.2502 15.2504 17.795 15.2504 16.0002V13.7782C15.2504 12.2284 13.9942 10.9722 12.4444 10.9722C12.0302 10.9722 11.6944 10.6364 11.6944 10.2222Z" fill="white"/>
</svg>
