<svg width="24" height="24" viewBox="0 0 24 24" fill="none" xmlns="http://www.w3.org/2000/svg">
<path d="M12.9279 3.98871C14.8318 2.08482 17.9186 2.08482 19.8225 3.98871C21.7264 5.8926 21.7264 8.97948 19.8225 10.8834L17.6355 13.0704C17.3426 13.3633 16.8678 13.3633 16.5749 13.0704C16.282 12.7775 16.282 12.3026 16.5749 12.0097L18.7619 9.82271C20.08 8.5046 20.08 6.36748 18.7619 5.04937C17.4438 3.73126 15.3066 3.73126 13.9885 5.04937L11.8015 7.23637C11.5086 7.52926 11.0338 7.52926 10.7409 7.23637C10.448 6.94348 10.448 6.4686 10.7409 6.17571L12.9279 3.98871ZM10.6555 13.1559C10.9484 13.4488 10.9484 13.9237 10.6555 14.2166L8.78057 16.0916C8.48768 16.3845 8.0128 16.3845 7.71991 16.0916C7.42702 15.7987 7.42702 15.3238 7.71991 15.0309L9.59492 13.1559C9.88781 12.8631 10.3626 12.8631 10.6555 13.1559ZM16.2805 8.59161C16.5734 8.29872 16.5734 7.82384 16.2805 7.53095C15.9876 7.23806 15.5128 7.23806 15.2199 7.53095L13.3449 9.40595C13.052 9.69884 13.052 10.1737 13.3449 10.4666C13.6378 10.7595 14.1126 10.7595 14.4055 10.4666L16.2805 8.59161ZM4.43891 4.2497C4.73181 3.95681 5.20668 3.95681 5.49957 4.2497L19.5615 18.3117C19.8544 18.6046 19.8544 19.0795 19.5615 19.3724C19.2686 19.6653 18.7938 19.6653 18.5009 19.3724L4.43891 5.31036C4.14602 5.01747 4.14602 4.54259 4.43891 4.2497ZM7.42559 11.6126C7.71848 11.3197 7.71848 10.8448 7.42559 10.5519C7.13269 10.2591 6.65781 10.2591 6.36492 10.5519L4.17792 12.7389C2.27402 14.6428 2.27402 17.7297 4.17792 19.6336C6.08182 21.5375 9.16868 21.5375 11.0725 19.6336L13.2595 17.4466C13.5524 17.1537 13.5524 16.6788 13.2595 16.3859C12.9666 16.0931 12.4918 16.0931 12.1989 16.3859L10.0119 18.5729C8.69381 19.8911 6.55668 19.8911 5.23858 18.5729C3.92048 17.2548 3.92048 15.1177 5.23858 13.7996L7.42559 11.6126Z" fill="white"/>
</svg>
