<svg width="24" height="24" viewBox="0 0 24 24" fill="none" xmlns="http://www.w3.org/2000/svg">
<path d="M13.5909 3.69171C15.4458 1.83681 18.4537 1.83681 20.3086 3.69171C22.1635 5.5466 22.1635 8.55447 20.3086 10.4094L17.4806 13.2374C17.1877 13.5303 16.7128 13.5303 16.4199 13.2374C16.127 12.9445 16.127 12.4696 16.4199 12.1767L19.2479 9.34871C20.517 8.0796 20.517 6.02147 19.2479 4.75237C17.9788 3.48326 15.9207 3.48326 14.6516 4.75237L11.8236 7.58037C11.5307 7.87326 11.0558 7.87326 10.7629 7.58037C10.47 7.28747 10.47 6.8126 10.7629 6.51971L13.5909 3.69171ZM7.58062 10.7629C7.87351 11.0558 7.87351 11.5307 7.58062 11.8235L4.75262 14.6515C3.48351 15.9207 3.48351 17.9788 4.75262 19.2479C6.02172 20.517 8.07985 20.517 9.34896 19.2479L12.1769 16.4199C12.4698 16.127 12.9447 16.127 13.2376 16.4199C13.5305 16.7128 13.5305 17.1877 13.2376 17.4805L10.4096 20.3085C8.55472 22.1634 5.54685 22.1634 3.69196 20.3085C1.83706 18.4536 1.83706 15.4458 3.69196 13.5909L6.51996 10.7629C6.81285 10.47 7.28772 10.47 7.58062 10.7629ZM3.75544 7.04803C3.36212 6.91816 2.93798 7.13173 2.80811 7.52506C2.67823 7.91839 2.89181 8.34252 3.28513 8.47239L5.40513 9.17239C5.79846 9.30227 6.2226 9.08869 6.35247 8.69537C6.48234 8.30204 6.26877 7.8779 5.87544 7.74803L3.75544 7.04803ZM7.52512 2.8078C7.91845 2.67792 8.34259 2.8915 8.47246 3.28482L9.17246 5.40482C9.30233 5.79815 9.08876 6.22229 8.69543 6.35216C8.30211 6.48203 7.87797 6.26846 7.7481 5.87513L7.0481 3.75513C6.91823 3.36181 7.1318 2.93767 7.52512 2.8078ZM18.5944 14.8275C18.2009 14.6982 17.7771 14.9123 17.6478 15.3058C17.5184 15.6993 17.7326 16.1232 18.1261 16.2525L20.2561 16.9525C20.6496 17.0818 21.0735 16.8677 21.2028 16.4742C21.3321 16.0806 21.1179 15.6568 20.7244 15.5275L18.5944 14.8275ZM15.3061 17.6473C15.6996 17.518 16.1235 17.7322 16.2528 18.1257L16.9528 20.2557C17.0821 20.6492 16.8679 21.073 16.4744 21.2023C16.0809 21.3317 15.6571 21.1175 15.5278 20.724L14.8278 18.594C14.6985 18.2005 14.9126 17.7766 15.3061 17.6473ZM15.3606 9.7005C15.6535 9.4076 15.6535 8.93273 15.3606 8.63984C15.0677 8.34694 14.5928 8.34694 14.3 8.63984L8.63996 14.2998C8.34707 14.5927 8.34707 15.0676 8.63996 15.3605C8.93286 15.6534 9.40773 15.6534 9.70062 15.3605L15.3606 9.7005Z" fill="white"/>
</svg>
