<svg width="24" height="24" viewBox="0 0 24 24" fill="none" xmlns="http://www.w3.org/2000/svg">
<path d="M9.00037 2.27783C9.39915 2.27783 9.72242 2.6011 9.72242 2.99988V4.99988C9.72242 5.39866 9.39915 5.72193 9.00037 5.72193C8.6016 5.72193 8.27832 5.39866 8.27832 4.99988V2.99988C8.27832 2.6011 8.6016 2.27783 9.00037 2.27783ZM17.4701 6.53044C16.382 5.44233 14.6188 5.44233 13.5307 6.53044L11.5307 8.53044C11.2378 8.82333 10.763 8.82333 10.4701 8.53044C10.1772 8.23754 10.1772 7.76267 10.4701 7.46978L12.4701 5.46978C14.144 3.79588 16.8568 3.79588 18.5307 5.46978C20.2046 7.14367 20.2046 9.85654 18.5307 11.5304L16.5307 13.5304C16.2378 13.8233 15.763 13.8233 15.4701 13.5304C15.1772 13.2375 15.1772 12.7627 15.4701 12.4698L17.4701 10.4698C18.5582 9.38167 18.5582 7.61854 17.4701 6.53044ZM15.6407 8.35932C15.9336 8.65221 15.9336 9.12709 15.6407 9.41998L9.42071 15.64C9.12782 15.9329 8.65295 15.9329 8.36005 15.64C8.06716 15.3471 8.06716 14.8722 8.36005 14.5793L14.5801 8.35932C14.873 8.06643 15.3479 8.06643 15.6407 8.35932ZM8.53068 11.5303C8.82358 11.2374 8.82358 10.7626 8.53068 10.4697C8.23779 10.1768 7.76292 10.1768 7.47002 10.4697L5.47002 12.4697C3.79613 14.1436 3.79613 16.8564 5.47002 18.5303C7.14392 20.2042 9.85679 20.2042 11.5307 18.5303L13.5307 16.5303C13.8236 16.2374 13.8236 15.7626 13.5307 15.4697C13.2378 15.1768 12.7629 15.1768 12.4701 15.4697L10.4701 17.4697C9.38192 18.5578 7.61879 18.5578 6.53068 17.4697C5.44258 16.3816 5.44258 14.6184 6.53068 13.5303L8.53068 11.5303ZM18.2784 14.9999C18.2784 14.6011 18.6016 14.2778 19.0004 14.2778H21.0004C21.3992 14.2778 21.7225 14.6011 21.7225 14.9999C21.7225 15.3987 21.3992 15.7219 21.0004 15.7219H19.0004C18.6016 15.7219 18.2784 15.3987 18.2784 14.9999ZM15.7225 18.9999C15.7225 18.6011 15.3992 18.2778 15.0004 18.2778C14.6016 18.2778 14.2784 18.6011 14.2784 18.9999V20.9999C14.2784 21.3987 14.6016 21.7219 15.0004 21.7219C15.3992 21.7219 15.7225 21.3987 15.7225 20.9999V18.9999ZM17.4898 17.4893C17.7718 17.2073 18.229 17.2073 18.511 17.4893L19.921 18.8993C20.2029 19.1813 20.2029 19.6385 19.921 19.9204C19.639 20.2024 19.1818 20.2024 18.8998 19.9204L17.4898 18.5104C17.2079 18.2285 17.2079 17.7713 17.4898 17.4893ZM3.00037 8.27783C2.6016 8.27783 2.27832 8.6011 2.27832 8.99988C2.27832 9.39866 2.6016 9.72193 3.00037 9.72193H5.00037C5.39915 9.72193 5.72242 9.39866 5.72242 8.99988C5.72242 8.6011 5.39915 8.27783 5.00037 8.27783H3.00037ZM5.10097 4.07916C4.81899 3.79718 4.36181 3.79718 4.07983 4.07916C3.79786 4.36114 3.79786 4.81831 4.07983 5.10029L5.48983 6.51029C5.77181 6.79227 6.22899 6.79227 6.51097 6.51029C6.79295 6.22831 6.79295 5.77114 6.51097 5.48916L5.10097 4.07916Z" fill="white"/>
</svg>
