<svg width="24" height="24" viewBox="0 0 24 24" fill="none" xmlns="http://www.w3.org/2000/svg">
<path d="M9.1203 4.12002C8.98772 3.72759 8.56213 3.51695 8.1697 3.64952C7.77728 3.7821 7.56663 4.20769 7.69921 4.60012L8.19921 6.08012C8.33178 6.47254 8.75738 6.68319 9.1498 6.55061C9.54223 6.41804 9.75288 5.99244 9.6203 5.60002L9.1203 4.12002ZM13.9778 8.76221C13.9778 8.34799 14.3136 8.01221 14.7278 8.01221H17.5158C19.8539 8.01221 21.7508 9.90785 21.7508 12.2472C21.7508 14.5853 19.8552 16.4822 17.5158 16.4822H14.7278C14.3136 16.4822 13.9778 16.1464 13.9778 15.7322C13.9778 15.318 14.3136 14.9822 14.7278 14.9822H17.5158C19.0264 14.9822 20.2508 13.7571 20.2508 12.2472C20.2508 10.7366 19.0257 9.51221 17.5158 9.51221H14.7278C14.3136 9.51221 13.9778 9.17642 13.9778 8.76221ZM6.52208 11.1879C6.81498 11.4808 6.81498 11.9557 6.52208 12.2486L4.55108 14.2196C3.48298 15.2877 3.48298 17.0188 4.55108 18.0869C5.61919 19.155 7.35032 19.155 8.41842 18.0869L10.3895 16.1159C10.6824 15.823 11.1572 15.823 11.4501 16.1159C11.743 16.4088 11.743 16.8837 11.4501 17.1766L9.47908 19.1476C7.82519 20.8015 5.14432 20.8015 3.49042 19.1476C1.83653 17.4937 1.83653 14.8128 3.49042 13.1589L5.46142 11.1879C5.75432 10.895 6.22919 10.895 6.52208 11.1879ZM12.7718 3.8174C13.1432 4.00076 13.2957 4.45049 13.1123 4.82191L12.3323 6.40191C12.1489 6.77333 11.6992 6.92579 11.3278 6.74243C10.9564 6.55907 10.8039 6.10933 10.9873 5.73791L11.7673 4.15791C11.9506 3.78649 12.4004 3.63404 12.7718 3.8174ZM5.72334 6.28839C5.35235 6.10416 4.90226 6.25556 4.71803 6.62655C4.53379 6.99753 4.68519 7.44763 5.05618 7.63186L6.52618 8.36186C6.89716 8.54609 7.34726 8.3947 7.53149 8.02371C7.71572 7.65272 7.56433 7.20263 7.19334 7.01839L5.72334 6.28839Z" fill="white"/>
</svg>
