<svg width="24" height="24" viewBox="0 0 24 24" fill="none" xmlns="http://www.w3.org/2000/svg">
<path d="M13.0001 1.25C10.9289 1.25 9.25012 2.92879 9.25012 5C9.25012 5.41421 9.58591 5.75 10.0001 5.75C10.4143 5.75 10.7501 5.41421 10.7501 5C10.7501 3.75721 11.7573 2.75 13.0001 2.75H15.0001C16.2429 2.75 17.2501 3.75721 17.2501 5V12C17.2501 13.2428 16.2429 14.25 15.0001 14.25H13.0001C11.7573 14.25 10.7501 13.2428 10.7501 12V11C10.7501 10.5858 10.4143 10.25 10.0001 10.25C9.58591 10.25 9.25012 10.5858 9.25012 11V12C9.25012 14.0712 10.9289 15.75 13.0001 15.75H15.0001C17.0713 15.75 18.7501 14.0712 18.7501 12V5C18.7501 2.92879 17.0713 1.25 15.0001 1.25H13.0001ZM21.2278 14.7997C20.8566 14.6159 20.4067 14.7679 20.2229 15.1392C20.0392 15.5104 20.1912 15.9603 20.5624 16.144L21.8494 16.781C22.2206 16.9648 22.6705 16.8128 22.8543 16.4415C23.038 16.0703 22.886 15.6204 22.5148 15.4367L21.2278 14.7997ZM18.7173 16.3998C19.1096 16.2668 19.5354 16.477 19.6684 16.8693L20.1884 18.4033C20.3214 18.7956 20.1112 19.2214 19.7189 19.3544C19.3266 19.4873 18.9008 19.2771 18.7678 18.8848L18.2478 17.3508C18.1148 16.9586 18.325 16.5327 18.7173 16.3998ZM22.6942 13.1657C23.0868 13.0336 23.298 12.6083 23.166 12.2157C23.0339 11.8231 22.6086 11.6119 22.216 11.7439L20.786 12.2249C20.3934 12.357 20.1822 12.7823 20.3142 13.1749C20.4463 13.5675 20.8716 13.7787 21.2642 13.6467L22.6942 13.1657ZM5.25012 11C5.25012 8.92879 6.92891 7.25 9.00012 7.25H11.0001C13.0713 7.25 14.7501 8.92879 14.7501 11V12C14.7501 12.4142 14.4143 12.75 14.0001 12.75C13.5859 12.75 13.2501 12.4142 13.2501 12V11C13.2501 9.75721 12.2429 8.75 11.0001 8.75H9.00012C7.75733 8.75 6.75012 9.75721 6.75012 11V18C6.75012 19.2428 7.75733 20.25 9.00012 20.25H11.0001C12.2429 20.25 13.2501 19.2428 13.2501 18C13.2501 17.5858 13.5859 17.25 14.0001 17.25C14.4143 17.25 14.7501 17.5858 14.7501 18C14.7501 20.0712 13.0713 21.75 11.0001 21.75H9.00012C6.92891 21.75 5.25012 20.0712 5.25012 18V11ZM2.15082 6.21862C1.77959 6.03488 1.32969 6.18687 1.14595 6.5581C0.962216 6.92933 1.1142 7.37922 1.48544 7.56296L2.77244 8.19996C3.14367 8.38371 3.59356 8.23171 3.7773 7.86048C3.96104 7.48925 3.80905 7.03936 3.43782 6.85562L2.15082 6.21862ZM4.28133 3.64586C4.67362 3.51288 5.09943 3.72309 5.23241 4.11538L5.75241 5.64938C5.88539 6.04167 5.67518 6.46748 5.28289 6.60046C4.89061 6.73344 4.46479 6.52323 4.33181 6.13094L3.81181 4.59694C3.67884 4.20465 3.88905 3.77884 4.28133 3.64586ZM3.21423 10.775C3.60683 10.643 3.81804 10.2177 3.68599 9.82506C3.55393 9.43246 3.12861 9.22125 2.73601 9.3533L1.30601 9.8343C0.913418 9.96636 0.702206 10.3917 0.834262 10.7843C0.966318 11.1769 1.39163 11.3881 1.78423 11.256L3.21423 10.775Z" fill="white"/>
</svg>
