<svg width="24" height="24" viewBox="0 0 24 24" fill="none" xmlns="http://www.w3.org/2000/svg">
<path d="M5 4.25C2.92879 4.25 1.25 5.92879 1.25 8V12C1.25 14.0712 2.92879 15.75 5 15.75C5.41421 15.75 5.75 15.4142 5.75 15C5.75 14.5858 5.41421 14.25 5 14.25C3.75721 14.25 2.75 13.2428 2.75 12V8C2.75 6.75721 3.75721 5.75 5 5.75H13C14.2428 5.75 15.25 6.75721 15.25 8V12C15.25 13.2428 14.2428 14.25 13 14.25H11C10.5858 14.25 10.25 14.5858 10.25 15C10.25 15.4142 10.5858 15.75 11 15.75H13C15.0712 15.75 16.75 14.0712 16.75 12V8C16.75 5.92879 15.0712 4.25 13 4.25H5ZM11 8.25C8.92879 8.25 7.25 9.92879 7.25 12V16C7.25 18.0712 8.92879 19.75 11 19.75H19C21.0712 19.75 22.75 18.0712 22.75 16V12C22.75 9.92879 21.0712 8.25 19 8.25C18.5858 8.25 18.25 8.58579 18.25 9C18.25 9.41421 18.5858 9.75 19 9.75C20.2428 9.75 21.25 10.7572 21.25 12V16C21.25 17.2428 20.2428 18.25 19 18.25H11C9.75721 18.25 8.75 17.2428 8.75 16V12C8.75 10.7572 9.75721 9.75 11 9.75H13C13.4142 9.75 13.75 9.41421 13.75 9C13.75 8.58579 13.4142 8.25 13 8.25H11Z" fill="white"/>
</svg>
