<svg width="24" height="24" viewBox="0 0 24 24" fill="none" xmlns="http://www.w3.org/2000/svg">
<path d="M3.75 11.5C3.75 9.42921 5.42921 7.75 7.5 7.75H8C8.41421 7.75 8.75 7.41421 8.75 7C8.75 6.58579 8.41421 6.25 8 6.25H7.5C4.60079 6.25 2.25 8.60079 2.25 11.5C2.25 14.3992 4.60079 16.75 7.5 16.75H10C12.6232 16.75 14.75 14.6232 14.75 12C14.75 11.5858 14.4142 11.25 14 11.25C13.5858 11.25 13.25 11.5858 13.25 12C13.25 13.7948 11.7948 15.25 10 15.25H7.5C5.42921 15.25 3.75 13.5708 3.75 11.5ZM10.75 11C10.75 9.20521 12.2052 7.75 14 7.75H16.5C18.5708 7.75 20.25 9.42921 20.25 11.5C20.25 13.5708 18.5708 15.25 16.5 15.25H16C15.5858 15.25 15.25 15.5858 15.25 16C15.25 16.4142 15.5858 16.75 16 16.75H16.5C19.3992 16.75 21.75 14.3992 21.75 11.5C21.75 8.60079 19.3992 6.25 16.5 6.25H14C11.3768 6.25 9.25 8.37679 9.25 11C9.25 11.4142 9.58579 11.75 10 11.75C10.4142 11.75 10.75 11.4142 10.75 11Z" fill="white"/>
</svg>
