<svg width="24" height="24" viewBox="0 0 24 24" fill="none" xmlns="http://www.w3.org/2000/svg">
<path d="M7.25 8.25C5.31721 8.25 3.75 9.81721 3.75 11.75C3.75 13.6828 5.31721 15.25 7.25 15.25H9.611C10.0252 15.25 10.361 15.5858 10.361 16C10.361 16.4142 10.0252 16.75 9.611 16.75H7.25C4.48879 16.75 2.25 14.5112 2.25 11.75C2.25 8.98879 4.48879 6.75 7.25 6.75H9.611C10.0252 6.75 10.361 7.08579 10.361 7.5C10.361 7.91421 10.0252 8.25 9.611 8.25H7.25ZM7.25 12C7.25 11.5858 7.58579 11.25 8 11.25H16C16.4142 11.25 16.75 11.5858 16.75 12C16.75 12.4142 16.4142 12.75 16 12.75H8C7.58579 12.75 7.25 12.4142 7.25 12ZM14.389 6.75C13.9748 6.75 13.639 7.08579 13.639 7.5C13.639 7.91421 13.9748 8.25 14.389 8.25H16.75C18.6828 8.25 20.25 9.81721 20.25 11.75C20.25 13.6828 18.6828 15.25 16.75 15.25H14.389C13.9748 15.25 13.639 15.5858 13.639 16C13.639 16.4142 13.9748 16.75 14.389 16.75H16.75C19.5112 16.75 21.75 14.5112 21.75 11.75C21.75 8.98879 19.5112 6.75 16.75 6.75H14.389Z" fill="white"/>
</svg>
