<svg width="24" height="24" viewBox="0 0 24 24" fill="none" xmlns="http://www.w3.org/2000/svg">
<path d="M13.0249 3.69161C15.0367 1.68101 18.2975 1.68079 20.3084 3.69176C22.319 5.70354 22.3194 8.96444 20.3084 10.9754L17.9754 13.3084C17.6825 13.6013 17.2077 13.6013 16.9148 13.3084C16.6219 13.0155 16.6219 12.5407 16.9148 12.2478L19.2478 9.91476C20.6728 8.48974 20.673 6.1785 19.2476 4.75227C17.8226 3.32745 15.5116 3.32723 14.0854 4.75242L11.7524 7.08542C11.4595 7.37832 10.9847 7.37832 10.6918 7.08542C10.3989 6.79253 10.3989 6.31766 10.6918 6.02476L13.0249 3.69161ZM15.6404 8.35981C15.9333 8.6527 15.9333 9.12757 15.6404 9.42047L9.42042 15.6405C9.12753 15.9334 8.65265 15.9334 8.35976 15.6405C8.06687 15.3476 8.06687 14.8727 8.35976 14.5798L14.5798 8.35981C14.8727 8.06691 15.3475 8.06691 15.6404 8.35981ZM7.08542 11.7525C7.37832 11.4596 7.37832 10.9847 7.08542 10.6918C6.79253 10.3989 6.31765 10.3989 6.02476 10.6918L3.69176 13.0248C1.68078 15.0358 1.68101 18.2966 3.69161 20.3083C5.70259 22.3193 8.96349 22.3193 10.9753 20.3087L13.3084 17.9755C13.6013 17.6826 13.6013 17.2077 13.3084 16.9148C13.0155 16.6219 12.5407 16.6219 12.2478 16.9148L9.91492 19.2477C8.48873 20.6729 6.17756 20.6728 4.75258 19.248C3.32718 17.8218 3.3274 15.5105 4.75242 14.0855L7.08542 11.7525Z" fill="white"/>
</svg>
