<svg width="24" height="24" viewBox="0 0 24 24" fill="none" xmlns="http://www.w3.org/2000/svg">
<path d="M4.75 6C4.75 5.30921 5.30921 4.75 6 4.75H18C18.6908 4.75 19.25 5.30921 19.25 6V18C19.25 18.6908 18.6908 19.25 18 19.25H6C5.30921 19.25 4.75 18.6908 4.75 18V6ZM6 3.25C4.48079 3.25 3.25 4.48079 3.25 6V18C3.25 19.5192 4.48079 20.75 6 20.75H18C19.5192 20.75 20.75 19.5192 20.75 18V6C20.75 4.48079 19.5192 3.25 18 3.25H6ZM8 11.25C7.58579 11.25 7.25 11.5858 7.25 12C7.25 12.4142 7.58579 12.75 8 12.75H16C16.4142 12.75 16.75 12.4142 16.75 12C16.75 11.5858 16.4142 11.25 16 11.25H8Z" fill="white"/>
</svg>
