<svg width="24" height="24" viewBox="0 0 24 24" fill="none" xmlns="http://www.w3.org/2000/svg">
<path d="M7.2659 5V5.25H16.7349V5C16.7349 4.30921 16.1757 3.75 15.4849 3.75H8.5159C7.82511 3.75 7.2659 4.30921 7.2659 5ZM5.7659 5.44365V5C5.7659 3.48079 6.99669 2.25 8.5159 2.25H15.4849C17.0041 2.25 18.2349 3.48079 18.2349 5V5.44445C19.2499 5.84894 19.9669 6.84046 19.9669 8V8.44246C20.9845 8.84567 21.7039 9.83855 21.7039 11V19C21.7039 20.5195 20.4719 21.75 18.9539 21.75H5.0459C3.52669 21.75 2.2959 20.5192 2.2959 19V11C2.2959 9.83893 3.01478 8.84633 4.03189 8.44286V8C4.03189 6.83969 4.74984 5.84763 5.7659 5.44365ZM6.78189 6.75C6.09111 6.75 5.53189 7.30921 5.53189 8V8.25H18.4669V8C18.4669 7.30921 17.9077 6.75 17.2169 6.75H6.78189ZM5.0459 9.75C4.35511 9.75 3.7959 10.3092 3.7959 11V19C3.7959 19.6908 4.35511 20.25 5.0459 20.25H18.9539C19.6439 20.25 20.2039 19.6905 20.2039 19V11C20.2039 10.3092 19.6447 9.75 18.9539 9.75H5.0459ZM11.9999 11.25C12.4141 11.25 12.7499 11.5858 12.7499 12V14.1499H14.8999C15.3141 14.1499 15.6499 14.4857 15.6499 14.8999C15.6499 15.3141 15.3141 15.6499 14.8999 15.6499H12.7499V18C12.7499 18.4142 12.4141 18.75 11.9999 18.75C11.5857 18.75 11.2499 18.4142 11.2499 18V15.6499H9.09989C8.68567 15.6499 8.34989 15.3141 8.34989 14.8999C8.34989 14.4857 8.68567 14.1499 9.09989 14.1499H11.2499V12C11.2499 11.5858 11.5857 11.25 11.9999 11.25Z" fill="white"/>
</svg>
