<svg width="24" height="24" viewBox="0 0 24 24" fill="none" xmlns="http://www.w3.org/2000/svg">
<path d="M5.75 5V5.25H9.465C10.0503 5.25 10.5963 5.54281 10.921 6.02997L12.327 8.13898C12.3724 8.20713 12.4509 8.25 12.535 8.25H18.25V5C18.25 4.30921 17.6908 3.75 17 3.75H7C6.30921 3.75 5.75 4.30921 5.75 5ZM4.25 5.35344V5C4.25 3.48079 5.48079 2.25 7 2.25H17C18.5192 2.25 19.75 3.48079 19.75 5V8.35344C20.9045 8.67977 21.75 9.74081 21.75 11V19C21.75 20.5192 20.5192 21.75 19 21.75H5C3.48079 21.75 2.25 20.5192 2.25 19V8C2.25 6.74081 3.09553 5.67977 4.25 5.35344ZM19 9.75H12.535C11.9513 9.75 11.4036 9.45856 11.079 8.97103L9.67296 6.86203C9.62574 6.79119 9.54766 6.75 9.465 6.75H5C4.30921 6.75 3.75 7.30921 3.75 8V19C3.75 19.6908 4.30921 20.25 5 20.25H19C19.6908 20.25 20.25 19.6908 20.25 19V11C20.25 10.3092 19.6908 9.75 19 9.75ZM8.00999 12.25C7.59578 12.25 7.25999 12.5858 7.25999 13C7.25999 13.4142 7.59578 13.75 8.00999 13.75H15.99C16.4042 13.75 16.74 13.4142 16.74 13C16.74 12.5858 16.4042 12.25 15.99 12.25H8.00999ZM8.00999 16.25C7.59578 16.25 7.25999 16.5858 7.25999 17C7.25999 17.4142 7.59578 17.75 8.00999 17.75H15.99C16.4042 17.75 16.74 17.4142 16.74 17C16.74 16.5858 16.4042 16.25 15.99 16.25H8.00999Z" fill="white"/>
</svg>
