<svg width="24" height="24" viewBox="0 0 24 24" fill="none" xmlns="http://www.w3.org/2000/svg">
<g clip-path="url(#clip0_7_1868)">
<mask id="mask0_7_1868" style="mask-type:luminance" maskUnits="userSpaceOnUse" x="0" y="0" width="24" height="24">
<path d="M24 0H0V24H24V0Z" fill="white"/>
</mask>
<g mask="url(#mask0_7_1868)">
<path d="M19.0002 6.2002H12.5002C12.4002 6.2002 12.3002 6.2002 12.3002 6.1002L10.9002 4.0002C10.6002 3.5002 10.0002 3.2002 9.5002 3.2002H5.0002C3.5002 3.3002 2.2002 4.5002 2.2002 6.0002V18.0002C2.2002 19.5002 3.4002 20.8002 5.0002 20.8002H19.0002C20.5002 20.8002 21.8002 19.6002 21.8002 18.0002V8.9002C21.8002 7.4002 20.5002 6.2002 19.0002 6.2002ZM20.2002 18.0002C20.2002 18.7002 19.6002 19.2002 19.0002 19.2002H5.0002C4.3002 19.2002 3.8002 18.6002 3.8002 18.0002V6.0002C3.8002 5.3002 4.4002 4.8002 5.0002 4.8002H9.5002C9.6002 4.8002 9.7002 4.8002 9.7002 4.9002L11.1002 7.0002C11.4002 7.5002 12.0002 7.8002 12.5002 7.8002H19.0002C19.7002 7.8002 20.2002 8.4002 20.2002 9.0002V18.0002Z" fill="white"/>
<path d="M14.5002 12.6002V12.0002C14.5002 11.2002 14.1002 10.5002 13.4002 10.0002C12.7002 9.5002 11.9002 9.4002 11.2002 9.7002C10.2002 10.0002 9.5002 11.0002 9.5002 12.0002V12.5002C8.8002 12.7002 8.2002 13.4002 8.2002 14.2002V15.7002C8.2002 16.7002 9.0002 17.5002 10.0002 17.5002H14.0002C15.0002 17.5002 15.8002 16.7002 15.8002 15.7002V14.2002C15.8002 13.4002 15.2002 12.8002 14.5002 12.6002ZM11.7002 11.1002C12.1002 11.0002 12.4002 11.1002 12.6002 11.2002C12.9002 11.4002 13.0002 11.7002 13.0002 12.0002V12.5002H11.0002V12.0002C11.0002 11.6002 11.3002 11.2002 11.7002 11.1002ZM14.2002 15.8002C14.2002 15.9002 14.1002 16.0002 14.0002 16.0002H10.0002C9.9002 16.0002 9.8002 15.9002 9.8002 15.8002V14.3002C9.8002 14.2002 9.9002 14.1002 10.0002 14.1002H14.0002C14.1002 14.1002 14.2002 14.2002 14.2002 14.3002V15.8002Z" fill="white"/>
</g>
</g>
<defs>
<clipPath id="clip0_7_1868">
<rect width="24" height="24" fill="white"/>
</clipPath>
</defs>
</svg>
