<svg width="24" height="24" viewBox="0 0 24 24" fill="none" xmlns="http://www.w3.org/2000/svg">
<path d="M2.25 6C2.25 4.48079 3.48079 3.25 5 3.25H9.471C10.0508 3.25 10.5915 3.53726 10.9168 4.01471L12.3221 6.0801C12.3683 6.14821 12.4462 6.19 12.529 6.19H19C20.5195 6.19 21.75 7.42203 21.75 8.94V18C21.75 19.5192 20.5192 20.75 19 20.75H5C3.48079 20.75 2.25 19.5192 2.25 18V6ZM5 4.75C4.30921 4.75 3.75 5.30921 3.75 6V18C3.75 18.6908 4.30921 19.25 5 19.25H19C19.6908 19.25 20.25 18.6908 20.25 18V8.94C20.25 8.24997 19.6905 7.69 19 7.69H12.529C11.9498 7.69 11.4072 7.40313 11.0815 6.92324L9.67719 4.85929C9.63046 4.79089 9.55311 4.75 9.471 4.75H5ZM14.9006 12.2605C15.3091 12.1918 15.6959 12.4672 15.7646 12.8757C15.9615 14.0458 15.6188 15.296 14.7074 16.2074C13.9751 16.9397 13.021 17.3119 12.0628 17.3269C12.035 17.4678 11.9665 17.6023 11.8573 17.7115C11.5644 18.0044 11.0895 18.0044 10.7966 17.7115L10.1086 17.0235C9.96793 16.8828 9.8889 16.6919 9.88898 16.4929C9.88905 16.2939 9.96821 16.1031 10.109 15.9624L10.797 15.2754C11.0901 14.9828 11.565 14.9831 11.8577 15.2762C12.0091 15.4278 12.082 15.628 12.0767 15.8264C12.6477 15.8082 13.2122 15.5813 13.6467 15.1468C14.1952 14.5982 14.4065 13.8444 14.2854 13.1246C14.2167 12.7161 14.4921 12.3292 14.9006 12.2605ZM12.1423 11.7238C11.9908 11.5721 11.9178 11.3718 11.9233 11.1733C11.3525 11.1914 10.7883 11.4182 10.3533 11.8532C9.80479 12.4017 9.59349 13.1555 9.71461 13.8754C9.78334 14.2839 9.50792 14.6707 9.09945 14.7394C8.69098 14.8082 8.30413 14.5328 8.2354 14.1243C8.03853 12.9542 8.38122 11.704 9.29268 10.7925C10.0255 10.0596 10.9794 9.68767 11.9372 9.67283C11.9651 9.53201 12.0335 9.39764 12.1426 9.28852C12.4355 8.99562 12.9104 8.99562 13.2033 9.28852L13.8913 9.97652C14.032 10.1172 14.111 10.3081 14.111 10.5071C14.1109 10.7061 14.0317 10.8969 13.8909 11.0376L13.2029 11.7246C12.9098 12.0172 12.4349 12.0169 12.1423 11.7238Z" fill="white"/>
</svg>
