<svg width="24" height="24" viewBox="0 0 24 24" fill="none" xmlns="http://www.w3.org/2000/svg">
<path d="M2.25 6C2.25 4.48079 3.48079 3.25 5 3.25H9.471C10.0508 3.25 10.5915 3.53726 10.9168 4.01471L12.3221 6.0801C12.3683 6.14821 12.4462 6.19 12.529 6.19H19C20.5195 6.19 21.75 7.42203 21.75 8.94V18C21.75 19.5192 20.5192 20.75 19 20.75H5C3.48079 20.75 2.25 19.5192 2.25 18V6ZM5 4.75C4.30921 4.75 3.75 5.30921 3.75 6V18C3.75 18.6908 4.30921 19.25 5 19.25H19C19.6908 19.25 20.25 18.6908 20.25 18V8.94C20.25 8.24997 19.6905 7.69 19 7.69H12.529C11.9498 7.69 11.4072 7.40313 11.0815 6.92324L9.67719 4.85929C9.63046 4.79089 9.55311 4.75 9.471 4.75H5ZM11.25 12.8107V16C11.25 16.4142 11.5858 16.75 12 16.75C12.4142 16.75 12.75 16.4142 12.75 16V12.8107L13.3447 13.4053C13.6376 13.6982 14.1124 13.6982 14.4053 13.4053C14.6982 13.1124 14.6982 12.6376 14.4053 12.3447L12.5303 10.4697C12.4584 10.3978 12.3755 10.3435 12.2871 10.3069C12.1987 10.2702 12.1017 10.25 12 10.25C11.8983 10.25 11.8013 10.2702 11.7129 10.3069C11.6245 10.3435 11.5416 10.3978 11.4697 10.4697L9.59467 12.3447C9.30178 12.6376 9.30178 13.1124 9.59467 13.4053C9.88756 13.6982 10.3624 13.6982 10.6553 13.4053L11.25 12.8107Z" fill="white"/>
</svg>
