<svg width="24" height="24" viewBox="0 0 24 24" fill="none" xmlns="http://www.w3.org/2000/svg">
<path d="M2.25 6C2.25 4.48079 3.48079 3.25 5 3.25H9.471C10.0508 3.25 10.5915 3.53726 10.9168 4.01471L12.3221 6.0801C12.3683 6.14821 12.4462 6.19 12.529 6.19H19C20.5195 6.19 21.75 7.42203 21.75 8.94V18C21.75 19.5192 20.5192 20.75 19 20.75H5C3.48079 20.75 2.25 19.5192 2.25 18V6ZM5 4.75C4.30921 4.75 3.75 5.30921 3.75 6V18C3.75 18.6908 4.30921 19.25 5 19.25H19C19.6908 19.25 20.25 18.6908 20.25 18V8.94C20.25 8.24997 19.6905 7.69 19 7.69H12.529C11.9498 7.69 11.4072 7.40313 11.0815 6.92324L9.67719 4.85929C9.63046 4.79089 9.55311 4.75 9.471 4.75H5ZM11.99 9.87012C12.4042 9.87012 12.74 10.2059 12.74 10.6201V12.6201H14.74C15.1542 12.6201 15.49 12.9559 15.49 13.3701C15.49 13.7843 15.1542 14.1201 14.74 14.1201H12.74V16.1201C12.74 16.5343 12.4042 16.8701 11.99 16.8701C11.5758 16.8701 11.24 16.5343 11.24 16.1201V14.1201H9.24C8.82578 14.1201 8.49 13.7843 8.49 13.3701C8.49 12.9559 8.82578 12.6201 9.24 12.6201H11.24V10.6201C11.24 10.2059 11.5758 9.87012 11.99 9.87012Z" fill="white"/>
</svg>
