<svg width="24" height="24" viewBox="0 0 24 24" fill="none" xmlns="http://www.w3.org/2000/svg">
<path d="M5 3.25C3.48079 3.25 2.25 4.48079 2.25 6V18C2.25 19.5192 3.48079 20.75 5 20.75H19C20.5192 20.75 21.75 19.5192 21.75 18V8.94C21.75 7.42203 20.5195 6.19 19 6.19H12.529C12.4462 6.19 12.3683 6.14821 12.3221 6.0801L10.9168 4.01471C10.5915 3.53726 10.0508 3.25 9.471 3.25H5ZM3.75 6C3.75 5.30921 4.30921 4.75 5 4.75H9.471C9.55311 4.75 9.63046 4.79089 9.67719 4.85929L11.0815 6.92324C11.4072 7.40313 11.9498 7.69 12.529 7.69H19C19.6905 7.69 20.25 8.24997 20.25 8.94V18C20.25 18.6908 19.6908 19.25 19 19.25H5C4.30921 19.25 3.75 18.6908 3.75 18V6ZM15.005 12.7349C14.8331 12.7349 14.6315 12.7955 14.471 12.9559C14.3106 13.1164 14.25 13.3179 14.25 13.4899C14.25 13.6618 14.3106 13.8634 14.471 14.0238C14.6315 14.1843 14.8331 14.2449 15.005 14.2449C15.1769 14.2449 15.3785 14.1843 15.539 14.0238C15.6994 13.8634 15.76 13.6618 15.76 13.4899C15.76 13.3179 15.6994 13.1164 15.539 12.9559C15.3785 12.7955 15.1769 12.7349 15.005 12.7349ZM14.4611 16.4661C14.6216 16.3056 14.8231 16.2451 14.995 16.2451C15.1668 16.2451 15.3684 16.3056 15.5289 16.4661C15.6894 16.6266 15.75 16.8282 15.75 17.0001C15.75 17.1721 15.6894 17.3737 15.5289 17.5341C15.3684 17.6946 15.1668 17.7551 14.995 17.7551C14.8231 17.7551 14.6216 17.6946 14.4611 17.5341C14.3006 17.3737 14.24 17.1721 14.24 17.0001C14.24 16.8282 14.3006 16.6266 14.4611 16.4661ZM14.995 9.24512C14.823 9.24512 14.6215 9.30571 14.461 9.46616C14.3006 9.62662 14.24 9.82817 14.24 10.0001C14.24 10.1721 14.3006 10.3736 14.461 10.5341C14.6215 10.6945 14.823 10.7551 14.995 10.7551C15.1669 10.7551 15.3685 10.6945 15.5289 10.5341C15.6894 10.3736 15.75 10.1721 15.75 10.0001C15.75 9.82817 15.6894 9.62662 15.5289 9.46616C15.3685 9.30571 15.1669 9.24512 14.995 9.24512Z" fill="white"/>
</svg>
