<svg width="24" height="24" viewBox="0 0 24 24" fill="none" xmlns="http://www.w3.org/2000/svg">
<path d="M2.25 6C2.25 4.48079 3.48079 3.25 5 3.25H9.471C10.0508 3.25 10.5915 3.53726 10.9168 4.01471L12.3221 6.0801C12.3683 6.14821 12.4462 6.19 12.529 6.19H19C20.5195 6.19 21.75 7.42203 21.75 8.94V18C21.75 19.5192 20.5192 20.75 19 20.75H5C3.48079 20.75 2.25 19.5192 2.25 18V6ZM5 4.75C4.30921 4.75 3.75 5.30921 3.75 6V18C3.75 18.6908 4.30921 19.25 5 19.25H19C19.6908 19.25 20.25 18.6908 20.25 18V8.94C20.25 8.24997 19.6905 7.69 19 7.69H12.529C11.9498 7.69 11.4072 7.40313 11.0815 6.92324L9.67719 4.85929C9.63046 4.79089 9.55311 4.75 9.471 4.75H5ZM12.889 11.99C12.2356 11.3367 11.1763 11.3367 10.523 11.99C9.86965 12.6434 9.86965 13.7026 10.523 14.356C11.1763 15.0093 12.2356 15.0093 12.889 14.356C13.5423 13.7026 13.5423 12.6434 12.889 11.99ZM9.46234 10.9293C10.7015 9.69022 12.7105 9.69022 13.9496 10.9293C15.0066 11.9863 15.162 13.6035 14.4157 14.8252L15.3103 15.7198C15.6032 16.0127 15.6032 16.4876 15.3103 16.7805C15.0175 17.0734 14.5426 17.0734 14.2497 16.7805L13.3543 15.8851C12.1331 16.6287 10.5182 16.4725 9.46234 15.4167C8.22321 14.1775 8.22321 12.1685 9.46234 10.9293Z" fill="white"/>
</svg>
