<svg width="24" height="24" viewBox="0 0 24 24" fill="none" xmlns="http://www.w3.org/2000/svg">
<path d="M5 3.25C3.48079 3.25 2.25 4.48079 2.25 6V11V18C2.25 19.5192 3.48079 20.75 5 20.75H19C20.5192 20.75 21.75 19.5192 21.75 18V11V8.94C21.75 7.42203 20.5195 6.19 19 6.19H12.529C12.4462 6.19 12.3683 6.14821 12.3221 6.0801L10.9168 4.01471C10.5915 3.53726 10.0508 3.25 9.471 3.25H5ZM20.25 10.25H3.75V6C3.75 5.30921 4.30921 4.75 5 4.75H9.471C9.55311 4.75 9.63046 4.79089 9.67719 4.85929L11.0815 6.92324C11.4072 7.40313 11.9498 7.69 12.529 7.69H19C19.6905 7.69 20.25 8.24997 20.25 8.94V10.25ZM3.75 11.75H20.25V18C20.25 18.6908 19.6908 19.25 19 19.25H5C4.30921 19.25 3.75 18.6908 3.75 18V11.75Z" fill="white"/>
</svg>
