<svg width="24" height="24" viewBox="0 0 24 24" fill="none" xmlns="http://www.w3.org/2000/svg">
<path d="M5 3.25C3.48079 3.25 2.25 4.48079 2.25 6V18C2.25 19.5192 3.48079 20.75 5 20.75H19C20.5192 20.75 21.75 19.5192 21.75 18V8.94C21.75 7.42203 20.5195 6.19 19 6.19H12.529C12.4462 6.19 12.3683 6.14821 12.3221 6.0801L10.9168 4.01471C10.5915 3.53726 10.0508 3.25 9.471 3.25H5ZM3.75 6C3.75 5.30921 4.30921 4.75 5 4.75H9.471C9.55311 4.75 9.63046 4.79089 9.67719 4.85929L11.0815 6.92324C11.4072 7.40313 11.9498 7.69 12.529 7.69H19C19.6905 7.69 20.25 8.24997 20.25 8.94V18C20.25 18.6908 19.6908 19.25 19 19.25H5C4.30921 19.25 3.75 18.6908 3.75 18V6ZM15.4193 12.5865C15.7122 12.2936 15.7122 11.8187 15.4193 11.5258C15.1264 11.2329 14.6516 11.2329 14.3587 11.5258L11.278 14.6065L9.64132 12.9698C9.34843 12.6769 8.87356 12.6769 8.58066 12.9698C8.28777 13.2627 8.28777 13.7376 8.58066 14.0305L10.7477 16.1975C11.0406 16.4904 11.5154 16.4904 11.8083 16.1975L15.4193 12.5865Z" fill="white"/>
</svg>
