<svg width="24" height="24" viewBox="0 0 24 24" fill="none" xmlns="http://www.w3.org/2000/svg">
<path d="M6.87313 6.87351C8.18641 5.56114 9.99802 4.75 12 4.75C16.0038 4.75 19.25 7.99621 19.25 12C19.25 12.0624 19.2491 12.1247 19.2474 12.1868L18.5303 11.4697C18.2374 11.1768 17.7626 11.1768 17.4697 11.4697C17.1768 11.7626 17.1768 12.2374 17.4697 12.5303L19.4697 14.5303C19.7626 14.8232 20.2374 14.8232 20.5303 14.5303L22.5303 12.5303C22.8232 12.2374 22.8232 11.7626 22.5303 11.4697C22.2374 11.1768 21.7626 11.1768 21.4697 11.4697L20.7478 12.1916C20.7492 12.1279 20.75 12.0641 20.75 12C20.75 7.16779 16.8322 3.25 12 3.25C9.58395 3.25 7.39556 4.23086 5.81284 5.81249C5.51985 6.10528 5.51968 6.58015 5.81247 6.87315C6.10527 7.16614 6.58014 7.16631 6.87313 6.87351ZM12.75 9C12.75 8.58579 12.4142 8.25 12 8.25C11.5858 8.25 11.25 8.58579 11.25 9V12.33C11.25 12.7442 11.5858 13.08 12 13.08C12.4142 13.08 12.75 12.7442 12.75 12.33V9ZM11.999 14.083C11.4957 14.083 11.0797 14.4918 11.083 15.004C11.0852 15.5084 11.4951 15.917 12 15.917C12.5062 15.917 12.917 15.5062 12.917 15C12.917 14.4909 12.5033 14.083 11.999 14.083ZM4.75258 11.8132L5.46967 12.5303C5.76256 12.8232 6.23744 12.8232 6.53033 12.5303C6.82322 12.2374 6.82322 11.7626 6.53033 11.4697L4.53033 9.46967C4.23744 9.17678 3.76256 9.17678 3.46967 9.46967L1.46967 11.4697C1.17678 11.7626 1.17678 12.2374 1.46967 12.5303C1.76256 12.8232 2.23744 12.8232 2.53033 12.5303L3.25222 11.8084C3.25075 11.8721 3.25 11.936 3.25 12.0001C3.25 16.8323 7.16779 20.7501 12 20.7501C14.417 20.7501 16.6022 19.7655 18.1841 18.1846C18.4771 17.8918 18.4773 17.4169 18.1845 17.1239C17.8917 16.8309 17.4168 16.8308 17.1239 17.1236C15.8098 18.4367 14.001 19.2501 12 19.2501C7.99621 19.2501 4.75 16.0039 4.75 12.0001C4.75 11.9376 4.75087 11.8754 4.75258 11.8132Z" fill="white"/>
</svg>
