<svg width="24" height="24" viewBox="0 0 24 24" fill="none" xmlns="http://www.w3.org/2000/svg">
<g clip-path="url(#clip0_7_2896)">
<mask id="mask0_7_2896" style="mask-type:luminance" maskUnits="userSpaceOnUse" x="0" y="0" width="24" height="24">
<path d="M24 0H0V24H24V0Z" fill="white"/>
</mask>
<g mask="url(#mask0_7_2896)">
<path d="M11.9002 15.9998C11.5002 15.9998 11.1002 16.2998 11.2002 16.7998C11.2002 17.1998 11.5002 17.5998 12.0002 17.5998C12.5002 17.5998 12.8002 17.2998 12.8002 16.7998C12.8002 16.2998 12.4002 15.9998 11.9002 15.9998Z" fill="white"/>
<path d="M20.9002 6.89981L17.1002 3.0998C16.6002 2.5998 15.9002 2.2998 15.2002 2.2998H8.8002C8.1002 2.2998 7.4002 2.5998 6.9002 3.0998L3.1002 6.89981C2.5002 7.39981 2.2002 8.0998 2.2002 8.7998V15.0998C2.2002 15.7998 2.5002 16.4998 3.0002 16.9998L6.8002 20.7998C7.3002 21.2998 8.0002 21.5998 8.7002 21.5998H16.0002C16.2002 21.5998 16.4002 21.4998 16.5002 21.3998L20.9002 16.9998C21.4002 16.4998 21.7002 15.7998 21.7002 15.0998V8.7998C21.8002 8.0998 21.5002 7.39981 20.9002 6.89981ZM20.2002 15.1998C20.2002 15.4998 20.1002 15.8998 19.8002 16.0998L15.6002 20.2998H8.8002C8.5002 20.2998 8.10019 20.1998 7.9002 19.8998L4.1002 16.0998C3.9002 15.8998 3.7002 15.4998 3.7002 15.1998V8.7998C3.7002 8.4998 3.8002 8.0998 4.1002 7.89981L7.9002 4.0998C8.10019 3.8998 8.5002 3.6998 8.8002 3.6998H15.1002C15.4002 3.6998 15.8002 3.7998 16.0002 4.0998L19.8002 7.89981C20.0002 8.0998 20.2002 8.4998 20.2002 8.7998V15.1998Z" fill="white"/>
<path d="M12.0002 6.7998C11.6002 6.7998 11.2002 7.0998 11.2002 7.5998V12.5998C11.2002 12.9998 11.5002 13.3998 12.0002 13.3998C12.5002 13.3998 12.8002 13.0998 12.8002 12.5998V7.5998C12.8002 7.0998 12.4002 6.7998 12.0002 6.7998Z" fill="white"/>
</g>
</g>
<defs>
<clipPath id="clip0_7_2896">
<rect width="24" height="24" fill="white"/>
</clipPath>
</defs>
</svg>
