<svg width="24" height="24" viewBox="0 0 24 24" fill="none" xmlns="http://www.w3.org/2000/svg">
<path d="M3.75 12C3.75 7.44321 7.44321 3.75 12 3.75C16.5568 3.75 20.25 7.44321 20.25 12C20.25 16.5568 16.5568 20.25 12 20.25C7.44321 20.25 3.75 16.5568 3.75 12ZM12 2.25C6.61479 2.25 2.25 6.61479 2.25 12C2.25 17.3852 6.61479 21.75 12 21.75C17.3852 21.75 21.75 17.3852 21.75 12C21.75 6.61479 17.3852 2.25 12 2.25ZM12.75 7.5C12.75 7.08579 12.4142 6.75 12 6.75C11.5858 6.75 11.25 7.08579 11.25 7.5V12.5C11.25 12.9142 11.5858 13.25 12 13.25C12.4142 13.25 12.75 12.9142 12.75 12.5V7.5Z" fill="white"/>
<path d="M11.95 17.5C12.3642 17.5 12.7 17.1642 12.7 16.75C12.7 16.3358 12.3642 16 11.95 16C11.5358 16 11.2 16.3358 11.2 16.75C11.2 17.1642 11.5358 17.5 11.95 17.5Z" fill="white"/>
</svg>
