<svg width="24" height="24" viewBox="0 0 24 24" fill="none" xmlns="http://www.w3.org/2000/svg">
<g clip-path="url(#clip0_7_2904)">
<mask id="mask0_7_2904" style="mask-type:luminance" maskUnits="userSpaceOnUse" x="0" y="0" width="24" height="24">
<path d="M24 0H0V24H24V0Z" fill="white"/>
</mask>
<g mask="url(#mask0_7_2904)">
<path d="M12.0005 8.6002C11.6005 8.6002 11.2005 8.9002 11.2005 9.4002V13.1002C11.2005 13.5002 11.5005 13.9002 12.0005 13.9002C12.5005 13.9002 12.8005 13.6002 12.8005 13.1002V9.4002C12.8005 9.0002 12.4005 8.6002 12.0005 8.6002Z" fill="white"/>
<path d="M11.9005 16.1002C11.5005 16.1002 11.1005 16.4002 11.2005 16.9002C11.2005 17.3002 11.5005 17.7002 12.0005 17.7002C12.5005 17.7002 12.8005 17.4002 12.8005 16.9002C12.8005 16.4002 12.4005 16.1002 11.9005 16.1002Z" fill="white"/>
<path d="M22.3005 17.2002L14.7005 3.8002C14.1005 2.8002 13.1005 2.2002 12.0005 2.2002C10.9005 2.2002 9.90046 2.8002 9.30046 3.8002L1.70046 17.2002C1.10046 18.2002 1.20046 19.3002 1.70046 20.3002C2.20046 21.3002 3.30046 21.8002 4.40046 21.8002H19.7005C20.8005 21.8002 21.8005 21.2002 22.4005 20.3002C22.9005 19.3002 22.9005 18.1002 22.3005 17.2002ZM21.0005 19.5002C20.7005 20.0002 20.2005 20.3002 19.6005 20.3002H4.30046C3.70046 20.3002 3.20046 20.0002 2.90046 19.5002C2.60046 19.0002 2.60046 18.4002 2.90046 17.9002L10.6005 4.5002C10.9005 4.0002 11.4005 3.7002 12.0005 3.7002C12.6005 3.7002 13.1005 4.0002 13.4005 4.5002L21.0005 17.9002C21.3005 18.4002 21.3005 19.0002 21.0005 19.5002Z" fill="white"/>
</g>
</g>
<defs>
<clipPath id="clip0_7_2904">
<rect width="24" height="24" fill="white"/>
</clipPath>
</defs>
</svg>
