<svg width="24" height="24" viewBox="0 0 24 24" fill="none" xmlns="http://www.w3.org/2000/svg">
<path d="M7.94433 4.11633C8.17884 3.88182 8.49714 3.75 8.828 3.75H15.17C15.5021 3.75 15.8203 3.88196 16.0547 4.11633L17.4388 5.50048L5.49998 17.4393L4.11633 16.0557C3.88182 15.8212 3.75 15.5029 3.75 15.172V8.828C3.75 8.49686 3.88202 8.17864 4.11533 7.94533L7.94433 4.11633ZM6.56064 18.5L18.4995 6.56114L19.8827 7.94433C20.118 8.17961 20.25 8.49882 20.25 8.831V15.171C20.25 15.5014 20.1182 15.8194 19.884 16.0544L16.0557 19.8837C15.8213 20.118 15.5031 20.25 15.171 20.25H8.828C8.49685 20.25 8.17864 20.118 7.94533 19.8847L6.56064 18.5ZM8.828 2.25C8.09886 2.25 7.39916 2.54018 6.88367 3.05567L3.05467 6.88467C2.53998 7.39936 2.25 8.09914 2.25 8.828V15.172C2.25 15.9011 2.54018 16.6008 3.05567 17.1163L6.88467 20.9453C7.39936 21.46 8.09915 21.75 8.828 21.75H15.171C15.9009 21.75 16.6008 21.4599 17.1164 20.9443L20.946 17.1136C21.4596 16.5986 21.75 15.9004 21.75 15.171V8.831C21.75 8.10118 21.46 7.40039 20.9433 6.88367L17.1153 3.05567C16.5997 2.54004 15.8999 2.25 15.17 2.25H8.828Z" fill="white"/>
</svg>
