<svg width="24" height="24" viewBox="0 0 24 24" fill="none" xmlns="http://www.w3.org/2000/svg">
<path d="M12 2.25C6.61479 2.25 2.25 6.61479 2.25 12C2.25 17.3852 6.61479 21.75 12 21.75C17.3852 21.75 21.75 17.3852 21.75 12C21.75 6.61479 17.3852 2.25 12 2.25ZM3.75 12C3.75 7.44321 7.44321 3.75 12 3.75C14.0084 3.75 15.849 4.46742 17.2796 5.65999L5.65999 17.2796C4.46742 15.849 3.75 14.0084 3.75 12ZM6.72067 18.3402L18.3402 6.72067C19.5327 8.15124 20.25 9.99175 20.25 12C20.25 16.5568 16.5568 20.25 12 20.25C9.99175 20.25 8.15124 19.5327 6.72067 18.3402Z" fill="white"/>
</svg>
