<svg width="24" height="24" viewBox="0 0 24 24" fill="none" xmlns="http://www.w3.org/2000/svg">
<path d="M12 1.25C12.4142 1.25 12.75 1.58579 12.75 2V4C12.75 4.41421 12.4142 4.75 12 4.75C11.5858 4.75 11.25 4.41421 11.25 4V2C11.25 1.58579 11.5858 1.25 12 1.25ZM15.0051 8.9948C13.3454 7.33507 10.6545 7.33507 8.99473 8.9948C7.33501 10.6545 7.33501 13.3455 8.99473 15.0052C10.6545 16.6649 13.3454 16.6649 15.0051 15.0052C16.6649 13.3455 16.6649 10.6545 15.0051 8.9948ZM7.93407 7.93413C10.1796 5.68862 13.8203 5.68862 16.0658 7.93413C18.3113 10.1796 18.3113 13.8204 16.0658 16.0659C13.8203 18.3114 10.1796 18.3114 7.93407 16.0659C5.68856 13.8204 5.68856 10.1796 7.93407 7.93413ZM12.75 20C12.75 19.5858 12.4142 19.25 12 19.25C11.5858 19.25 11.25 19.5858 11.25 20V22C11.25 22.4142 11.5858 22.75 12 22.75C12.4142 22.75 12.75 22.4142 12.75 22V20ZM19.6003 4.39985C19.8932 4.69274 19.8932 5.16761 19.6003 5.46051L18.8903 6.17051C18.5974 6.4634 18.1225 6.4634 17.8297 6.17051C17.5368 5.87761 17.5368 5.40274 17.8297 5.10985L18.5397 4.39985C18.8325 4.10695 19.3074 4.10695 19.6003 4.39985ZM6.17032 18.8902C6.46322 18.5973 6.46322 18.1224 6.17032 17.8295C5.87743 17.5366 5.40256 17.5366 5.10966 17.8295L4.39966 18.5395C4.10677 18.8324 4.10677 19.3073 4.39966 19.6002C4.69256 19.8931 5.16743 19.8931 5.46032 19.6002L6.17032 18.8902ZM19.25 12C19.25 11.5858 19.5858 11.25 20 11.25H22C22.4142 11.25 22.75 11.5858 22.75 12C22.75 12.4142 22.4142 12.75 22 12.75H20C19.5858 12.75 19.25 12.4142 19.25 12ZM2 11.25C1.58579 11.25 1.25 11.5858 1.25 12C1.25 12.4142 1.58579 12.75 2 12.75H4C4.41421 12.75 4.75 12.4142 4.75 12C4.75 11.5858 4.41421 11.25 4 11.25H2ZM17.8297 17.8295C18.1225 17.5366 18.5974 17.5366 18.8903 17.8295L19.6003 18.5395C19.8932 18.8324 19.8932 19.3073 19.6003 19.6002C19.3074 19.8931 18.8325 19.8931 18.5397 19.6002L17.8297 18.8902C17.5368 18.5973 17.5368 18.1224 17.8297 17.8295ZM5.46032 4.39985C5.16743 4.10695 4.69256 4.10695 4.39966 4.39985C4.10677 4.69274 4.10677 5.16761 4.39966 5.46051L5.10966 6.17051C5.40256 6.4634 5.87743 6.4634 6.17032 6.17051C6.46322 5.87761 6.46322 5.40274 6.17032 5.10985L5.46032 4.39985Z" fill="white"/>
</svg>
