<svg width="24" height="24" viewBox="0 0 24 24" fill="none" xmlns="http://www.w3.org/2000/svg">
<path d="M12.259 3.64537C12.4034 3.90107 12.3853 4.2175 12.2126 4.45506C10.3862 6.96848 10.6012 10.5008 12.8652 12.7648C14.6491 14.5487 17.2207 15.0594 19.4645 14.3034C19.7427 14.2097 20.0501 14.2869 20.2509 14.5011C20.4518 14.7152 20.5092 15.0269 20.3979 15.2986C19.0917 18.4859 15.9612 20.7352 12.2989 20.7352C7.46469 20.7352 3.5459 16.8164 3.5459 11.9822C3.5459 7.40269 7.06295 3.65191 11.5417 3.26693C11.8343 3.24178 12.1146 3.38968 12.259 3.64537ZM10.149 5.05837C7.19296 5.97383 5.0459 8.72618 5.0459 11.9822C5.0459 15.988 8.29311 19.2352 12.2989 19.2352C14.777 19.2352 16.9636 17.9919 18.2715 16.0936C15.9681 16.3466 13.5738 15.5947 11.8046 13.8255C9.43214 11.4531 8.88483 7.9563 10.149 5.05837Z" fill="white"/>
</svg>
