<svg width="24" height="24" viewBox="0 0 24 24" fill="none" xmlns="http://www.w3.org/2000/svg">
<path d="M8.0236 3.99451C8.2551 3.26917 8.92935 2.77783 9.69 2.77783H14.31C15.0706 2.77783 15.7436 3.26992 15.9761 3.99344L16.5474 5.77783H18C18.0183 5.77783 18.0365 5.77849 18.0545 5.77979H19C19.4142 5.77979 19.75 6.11557 19.75 6.52979C19.75 6.944 19.4142 7.27979 19 7.27979H18.75V18.2668C18.75 19.899 17.4272 21.2218 15.795 21.2218H8.205C6.57279 21.2218 5.25 19.899 5.25 18.2668V7.27979H5C4.58579 7.27979 4.25 6.944 4.25 6.52979C4.25 6.11557 4.58579 5.77979 5 5.77979H5.94546C5.96347 5.77849 5.98166 5.77783 6 5.77783H7.45263L8.0236 3.99451ZM16.0172 7.27783C16.0056 7.2781 15.994 7.2781 15.9825 7.27783H8.01751C8.00599 7.2781 7.99443 7.2781 7.98285 7.27783H6.75V18.2668C6.75 19.0706 7.40121 19.7218 8.205 19.7218H15.795C16.5988 19.7218 17.25 19.0706 17.25 18.2668V7.27783H16.0172ZM14.5479 4.45223C14.5143 4.34781 14.4174 4.27783 14.31 4.27783H9.69C9.58083 4.27783 9.48521 4.34827 9.45256 4.45066L9.02764 5.77783H14.9724L14.5479 4.45223ZM9 9.71973C9.41421 9.71973 9.75 10.0555 9.75 10.4697V16.5297C9.75 16.9439 9.41421 17.2797 9 17.2797C8.58579 17.2797 8.25 16.9439 8.25 16.5297V10.4697C8.25 10.0555 8.58579 9.71973 9 9.71973ZM12.75 9.31006C12.75 8.89584 12.4142 8.56006 12 8.56006C11.5858 8.56006 11.25 8.89584 11.25 9.31006V17.5801C11.25 17.9943 11.5858 18.3301 12 18.3301C12.4142 18.3301 12.75 17.9943 12.75 17.5801V9.31006ZM15 9.71973C15.4142 9.71973 15.75 10.0555 15.75 10.4697V16.5297C15.75 16.9439 15.4142 17.2797 15 17.2797C14.5858 17.2797 14.25 16.9439 14.25 16.5297V10.4697C14.25 10.0555 14.5858 9.71973 15 9.71973Z" fill="white"/>
</svg>
