<svg width="24" height="24" viewBox="0 0 24 24" fill="none" xmlns="http://www.w3.org/2000/svg">
<g clip-path="url(#clip0_7_1552)">
<mask id="mask0_7_1552" style="mask-type:luminance" maskUnits="userSpaceOnUse" x="0" y="0" width="24" height="24">
<path d="M24 0H0V24H24V0Z" fill="white"/>
</mask>
<g mask="url(#mask0_7_1552)">
<path d="M19.0004 5H8.10039C7.20039 5 6.40039 5.4 5.90039 6.1L2.80039 10.4C2.10039 11.4 2.10039 12.6 2.80039 13.6L5.90039 17.9C6.40039 18.6 7.20039 19 8.10039 19H19.0004C20.5004 19 21.8004 17.8 21.8004 16.2V7.7C21.8004 6.2 20.5004 5 19.0004 5ZM20.2004 16.3C20.2004 17 19.6004 17.5 19.0004 17.5H8.10039C7.70039 17.5 7.30039 17.3 7.10039 17L4.00039 12.7C3.70039 12.3 3.70039 11.7 4.00039 11.2L7.10039 7C7.30039 6.7 7.70039 6.5 8.10039 6.5H19.0004C19.7004 6.5 20.2004 7.1 20.2004 7.7V16.3Z" fill="white"/>
<path d="M16.5004 9.5C16.2004 9.2 15.7004 9.2 15.4004 9.5L14.0004 10.9L12.5004 9.4C12.2004 9.1 11.7004 9.1 11.4004 9.4C11.1004 9.7 11.1004 10.2 11.4004 10.5L12.9004 12L11.4004 13.5C11.1004 13.8 11.1004 14.3 11.4004 14.6C11.5004 14.7 11.7004 14.8 11.9004 14.8C12.1004 14.8 12.3004 14.7 12.4004 14.6L13.9004 13.1L15.4004 14.6C15.5004 14.7 15.7004 14.8 15.9004 14.8C16.1004 14.8 16.3004 14.7 16.4004 14.6C16.7004 14.3 16.7004 13.8 16.4004 13.5L15.1004 12L16.6004 10.5C16.8004 10.2 16.8004 9.8 16.5004 9.5Z" fill="white"/>
</g>
</g>
<defs>
<clipPath id="clip0_7_1552">
<rect width="24" height="24" fill="white"/>
</clipPath>
</defs>
</svg>
