<svg width="24" height="24" viewBox="0 0 24 24" fill="none" xmlns="http://www.w3.org/2000/svg">
<path d="M20.2493 12C20.2493 9.32578 19.59 6.69558 18.3323 4.34178L18.0725 3.87499L18.0374 3.80663C17.8816 3.45996 18.0107 3.04475 18.3469 2.85057C18.6833 2.65636 19.108 2.75203 19.3303 3.06053L19.3713 3.12499L19.6545 3.63475C21.0285 6.20592 21.7493 9.07877 21.7493 12L21.7405 12.583C21.6447 15.4966 20.8319 18.3451 19.3713 20.875C19.1642 21.2336 18.7056 21.3565 18.3469 21.1494C17.9883 20.9423 17.8654 20.4837 18.0725 20.125C19.4096 17.8091 20.1528 15.2014 20.2405 12.5342L20.2493 12ZM15.2493 12C15.2493 10.1486 14.7928 8.32779 13.9221 6.69823L13.7424 6.37499L13.7073 6.30663C13.5515 5.95999 13.6807 5.54476 14.0168 5.35057C14.3532 5.15637 14.7779 5.25206 15.0002 5.56053L15.0413 5.62499L15.2454 5.9912C16.2322 7.83803 16.7493 9.90175 16.7493 12C16.7493 14.2381 16.1603 16.4367 15.0413 18.375C14.8341 18.7336 14.3755 18.8565 14.0168 18.6494C13.6583 18.4422 13.5354 17.9836 13.7424 17.625C14.7298 15.9148 15.2493 13.9748 15.2493 12ZM3.25024 12C3.25024 10.5791 3.59624 9.18128 4.2561 7.92675C4.27825 7.70341 4.39774 7.4924 4.60278 7.36425C4.74003 7.27848 4.89407 7.24295 5.04419 7.25194C5.18062 7.24673 5.32054 7.27726 5.44751 7.35057C5.64939 7.46729 5.77233 7.66452 5.80786 7.87792L9.85571 14.3545C10.0893 13.6743 10.2226 12.9614 10.2463 12.2383L10.2502 12C10.2502 10.8069 9.95592 9.63316 9.39478 8.583L9.27856 8.37499L9.24341 8.30663C9.08763 7.95994 9.21677 7.54475 9.55298 7.35057C9.8892 7.15645 10.313 7.25238 10.5354 7.56053L10.5774 7.62499L10.717 7.87596C11.3944 9.14351 11.7502 10.5599 11.7502 12L11.7454 12.2881C11.7018 13.6097 11.3579 14.9034 10.7424 16.0732C10.7203 16.2964 10.6026 16.5076 10.3977 16.6357C10.26 16.7218 10.105 16.7564 9.95435 16.7471C9.81839 16.752 9.67948 16.7224 9.55298 16.6494C9.35024 16.5323 9.22572 16.3344 9.19067 16.1201L5.1438 9.64452C4.88442 10.3996 4.75024 11.1953 4.75024 12C4.75024 13.1932 5.04451 14.3668 5.60571 15.417L5.72192 15.625L5.7561 15.6933C5.91198 16.04 5.78356 16.4551 5.44751 16.6494C5.11119 16.8436 4.68646 16.7478 4.46411 16.4394L4.42212 16.375L4.28247 16.124C3.60518 14.8565 3.25024 13.44 3.25024 12Z" fill="white"/>
</svg>
