<svg width="24" height="24" viewBox="0 0 24 24" fill="none" xmlns="http://www.w3.org/2000/svg">
<path d="M4 1.25C2.48079 1.25 1.25 2.48079 1.25 4V16C1.25 17.5192 2.48079 18.75 4 18.75H7.25V21C7.25 21.9662 8.03379 22.75 9 22.75H18C18.9662 22.75 19.75 21.9662 19.75 21V18V16C19.75 15.0338 18.9662 14.25 18 14.25H14.75V4C14.75 2.48079 13.5192 1.25 12 1.25H4ZM18.25 16V17.25H8.75V16C8.75 15.8622 8.86221 15.75 9 15.75H14H18C18.1378 15.75 18.25 15.8622 18.25 16ZM18.25 18.75V21C18.25 21.1378 18.1378 21.25 18 21.25H9C8.86221 21.25 8.75 21.1378 8.75 21V18.75H18.25ZM13.25 14.25H9C8.03379 14.25 7.25 15.0338 7.25 16V17.25H4C3.30921 17.25 2.75 16.6908 2.75 16V4C2.75 3.30921 3.30921 2.75 4 2.75H12C12.6908 2.75 13.25 3.30921 13.25 4V14.25ZM5.876 5.75C5.73821 5.75 5.626 5.86221 5.626 6V8C5.626 8.13779 5.73821 8.25 5.876 8.25H10.124C10.2618 8.25 10.374 8.13779 10.374 8V6C10.374 5.86221 10.2618 5.75 10.124 5.75H5.876ZM4.126 6C4.126 5.03379 4.90979 4.25 5.876 4.25H10.124C11.0902 4.25 11.874 5.03379 11.874 6V8C11.874 8.96621 11.0902 9.75 10.124 9.75H5.876C4.90979 9.75 4.126 8.96621 4.126 8V6ZM16.4697 5.79584C16.7626 5.50295 17.2374 5.50295 17.5303 5.79584C18.5554 6.82093 18.5549 8.48253 17.5307 9.50814C17.238 9.80123 16.7631 9.80156 16.47 9.50886C16.1769 9.21617 16.1766 8.7413 16.4693 8.4482C16.9091 8.00781 16.9086 7.29541 16.4697 6.8565C16.1768 6.56361 16.1768 6.08874 16.4697 5.79584ZM20.6243 4.46967C20.3314 4.17678 19.8566 4.17678 19.5637 4.46967C19.2708 4.76256 19.2708 5.23744 19.5637 5.53033C20.7348 6.70144 20.7348 8.60156 19.5637 9.77267C19.2708 10.0656 19.2708 10.5404 19.5637 10.8333C19.8566 11.1262 20.3314 11.1262 20.6243 10.8333C22.3812 9.07644 22.3812 6.22656 20.6243 4.46967Z" fill="white"/>
</svg>
