<svg width="24" height="24" viewBox="0 0 24 24" fill="none" xmlns="http://www.w3.org/2000/svg">
<path d="M20.2715 4.26367C20.9011 4.32612 21.493 4.60433 21.9443 5.05566C22.4601 5.57139 22.75 6.27065 22.75 7V13C22.75 13.7293 22.4601 14.4286 21.9443 14.9443C21.4286 15.4601 20.7293 15.75 20 15.75H13.7568C13.2438 16.156 12.812 16.483 12.4951 16.7139C12.3157 16.8446 12.1733 16.945 12.0752 17.0137C12.0261 17.048 11.9881 17.0748 11.9619 17.0928C11.9508 17.1004 11.9413 17.1057 11.9346 17.1104L7.9502 20.0996C7.82037 20.197 7.66228 20.25 7.5 20.25H2C1.58579 20.25 1.25 19.9142 1.25 19.5C1.25 19.0858 1.58579 18.75 2 18.75H7.25L11.0498 15.9004L11.0801 15.8789L11.0811 15.8779C11.0822 15.8772 11.0844 15.8758 11.0869 15.874C11.0923 15.8704 11.1009 15.8643 11.1123 15.8564C11.135 15.8408 11.1695 15.8169 11.2148 15.7852C11.3057 15.7215 11.4407 15.626 11.6123 15.501C11.9555 15.2509 12.4465 14.8833 13.0312 14.415V14.4141L13.2041 14.2646C13.5757 13.9149 13.7317 13.5642 13.7734 13.2695C13.8218 12.9266 13.7262 12.5929 13.5254 12.3252C13.1633 11.8424 12.4335 11.55 11.5869 12.0195L11.416 12.124C10.3874 12.8096 9.37857 13.4399 8.62793 13.8984C8.25227 14.1279 7.93983 14.3156 7.72168 14.4453C7.61293 14.51 7.52735 14.5603 7.46875 14.5947C7.43964 14.6118 7.41671 14.6248 7.40137 14.6338C7.39377 14.6382 7.38779 14.6422 7.38379 14.6445C7.38179 14.6457 7.37997 14.6468 7.37891 14.6475H7.37793L7.37695 14.6484C7.019 14.8565 6.55985 14.7348 6.35156 14.377C6.14347 14.019 6.26515 13.5598 6.62305 13.3516H6.62402C6.62486 13.3511 6.62615 13.3497 6.62793 13.3486C6.6314 13.3466 6.63673 13.3438 6.64355 13.3398C6.65792 13.3314 6.67979 13.3183 6.70801 13.3018C6.76467 13.2685 6.84832 13.2187 6.95508 13.1553C7.03966 13.105 7.13807 13.0446 7.25 12.9775V7.29688C6.98033 7.34293 6.71673 7.4225 6.46582 7.53516C6.04709 7.72324 5.6721 7.99769 5.36719 8.34082V8.3418L2.56055 11.498C2.28537 11.8075 1.81151 11.8356 1.50195 11.5605C1.19247 11.2854 1.16441 10.8115 1.43945 10.502L4.24609 7.34473L4.41797 7.16113C4.82948 6.74467 5.3152 6.40749 5.85059 6.16699C6.387 5.92605 6.96297 5.7865 7.54883 5.75586C7.67893 5.49966 7.84867 5.26266 8.05566 5.05566C8.57139 4.53994 9.27065 4.25 10 4.25H20L20.2715 4.26367ZM10 5.75C9.66848 5.75 9.35063 5.88179 9.11621 6.11621C8.88179 6.35063 8.75 6.66848 8.75 7V12.0566C9.31483 11.7026 9.94682 11.3006 10.584 10.876L10.7324 10.7812C12.2702 9.85085 13.8878 10.3096 14.7246 11.4248C15.1487 11.9902 15.3655 12.7196 15.2578 13.4805C15.2208 13.7421 15.1457 13.9997 15.0342 14.25H20C20.3315 14.25 20.6494 14.1182 20.8838 13.8838C21.1182 13.6494 21.25 13.3315 21.25 13V7C21.25 6.66848 21.1182 6.35063 20.8838 6.11621C20.6788 5.9112 20.41 5.78436 20.124 5.75586L20 5.75H10ZM18.0127 7.28809C18.3811 7.16528 18.7776 7.34471 18.9336 7.69141L18.9619 7.7627L19.0557 8.05762C19.2622 8.73792 19.375 9.36026 19.375 10C19.375 10.731 19.2279 11.4393 18.9619 12.2373C18.8309 12.6303 18.4057 12.8429 18.0127 12.7119C17.6197 12.5809 17.4071 12.1557 17.5381 11.7627L17.6201 11.5068C17.7965 10.9257 17.875 10.4542 17.875 10C17.875 9.54585 17.7965 9.07427 17.6201 8.49316L17.5381 8.2373L17.5176 8.16309C17.4345 7.79221 17.6444 7.41087 18.0127 7.28809ZM15.6904 8.31738C16.044 8.15703 16.4562 8.29356 16.6475 8.62207L16.6826 8.69043L16.7441 8.83984C16.874 9.20076 16.9199 9.62755 16.9199 10C16.9199 10.4255 16.8588 10.9214 16.6826 11.3096C16.5114 11.6866 16.0675 11.8536 15.6904 11.6826C15.3134 11.5114 15.1464 11.0675 15.3174 10.6904C15.3681 10.5786 15.4199 10.3244 15.4199 10C15.4199 9.7564 15.3907 9.55267 15.3545 9.41895L15.3174 9.30957L15.2891 9.23828C15.1679 8.87811 15.3369 8.47787 15.6904 8.31738Z" fill="white"/>
</svg>
