<svg width="24" height="24" viewBox="0 0 24 24" fill="none" xmlns="http://www.w3.org/2000/svg">
<path d="M17.125 2.32999C17.3029 2.24108 17.5087 2.22642 17.6974 2.28924C17.886 2.35206 18.042 2.48721 18.131 2.66499C19.506 5.41499 20.25 8.65199 20.25 12C20.25 15.355 19.504 18.465 18.137 21.324C18.0945 21.4129 18.0348 21.4926 17.9615 21.5584C17.8882 21.6243 17.8026 21.675 17.7096 21.7078C17.6167 21.7406 17.5182 21.7547 17.4198 21.7495C17.3213 21.7442 17.2249 21.7195 17.136 21.677C17.0471 21.6344 16.9675 21.5748 16.9016 21.5015C16.8358 21.4281 16.785 21.3426 16.7522 21.2496C16.7194 21.1567 16.7053 21.0582 16.7106 20.9597C16.7159 20.8613 16.7405 20.7649 16.783 20.676C18.085 17.9695 18.7575 15.0034 18.75 12C18.75 8.86799 18.053 5.86399 16.79 3.33499C16.7011 3.15716 16.6864 2.95129 16.7493 2.76265C16.8121 2.574 16.9472 2.41902 17.125 2.32999ZM12.835 4.23399C13.0167 4.15315 13.223 4.14776 13.4087 4.21902C13.5943 4.29028 13.7441 4.43235 13.825 4.61399C14.823 6.85999 15.45 9.48299 15.45 12C15.45 14.522 14.82 17.026 13.825 19.265C13.7863 19.357 13.7297 19.4404 13.6584 19.5103C13.5871 19.5801 13.5025 19.635 13.4097 19.6718C13.3169 19.7085 13.2177 19.7264 13.1179 19.7243C13.0181 19.7222 12.9197 19.7002 12.8285 19.6596C12.7373 19.619 12.6552 19.5606 12.5868 19.4878C12.5185 19.415 12.4654 19.3294 12.4306 19.2358C12.3958 19.1422 12.3801 19.0427 12.3842 18.9429C12.3884 18.8432 12.4125 18.7453 12.455 18.655C13.38 16.575 13.95 14.278 13.95 12C13.95 9.71699 13.377 7.29999 12.455 5.22499C12.3742 5.04332 12.3688 4.83697 12.44 4.65132C12.5113 4.46567 12.6534 4.31492 12.835 4.23399ZM8.48502 6.40899C8.66286 6.32008 8.86873 6.30542 9.05737 6.36824C9.24601 6.43106 9.40199 6.56621 9.49102 6.74399C10.272 8.30699 10.651 10.226 10.651 12C10.6506 13.8073 10.2582 15.593 9.50102 17.234C9.41576 17.4114 9.26417 17.5482 9.07895 17.6148C8.89373 17.6815 8.68974 17.6726 8.51099 17.5902C8.33223 17.5078 8.19305 17.3584 8.12346 17.1743C8.05387 16.9901 8.05946 16.786 8.13902 16.606C8.80502 15.1618 9.14995 13.5904 9.15002 12C9.15002 10.414 8.80802 8.73299 8.15002 7.41499C8.06111 7.23716 8.04645 7.03129 8.10927 6.84265C8.17209 6.654 8.30724 6.49802 8.48502 6.40899ZM4.20502 8.43099C4.38777 8.35289 4.59404 8.35052 4.77854 8.42439C4.96304 8.49827 5.11067 8.64235 5.18902 8.82499C5.58702 9.75199 5.84902 10.932 5.84902 12C5.84902 13.08 5.58102 14.142 5.18902 15.056C5.15214 15.1493 5.09692 15.2342 5.02664 15.3057C4.95636 15.3773 4.87244 15.434 4.77985 15.4726C4.68726 15.5111 4.58788 15.5307 4.48759 15.5302C4.3873 15.5296 4.28813 15.509 4.19596 15.4695C4.10378 15.4299 4.02047 15.3723 3.95096 15.3C3.88144 15.2277 3.82713 15.1422 3.79124 15.0486C3.75535 14.9549 3.73861 14.855 3.74201 14.7548C3.7454 14.6545 3.76887 14.556 3.81102 14.465C4.13902 13.699 4.35002 12.839 4.35002 12C4.35002 11.148 4.13302 10.168 3.81002 9.41599C3.77122 9.32539 3.75067 9.22803 3.74952 9.12947C3.74838 9.03092 3.76667 8.9331 3.80336 8.84162C3.84004 8.75014 3.8944 8.66679 3.96332 8.59633C4.03224 8.52587 4.11437 8.46969 4.20502 8.43099Z" fill="white"/>
</svg>
