<svg width="24" height="24" viewBox="0 0 24 24" fill="none" xmlns="http://www.w3.org/2000/svg">
<path d="M17 3.25C17.9946 3.25 18.9481 3.64537 19.6514 4.34863C20.3546 5.05189 20.75 6.00544 20.75 7V17L20.7451 17.1855C20.6992 18.1125 20.3108 18.992 19.6514 19.6514C18.992 20.3108 18.1125 20.6992 17.1855 20.7451L17 20.75H7C6.00544 20.75 5.05189 20.3546 4.34863 19.6514C3.64537 18.9481 3.25 17.9946 3.25 17V7C3.25 6.00544 3.64537 5.05189 4.34863 4.34863C5.05189 3.64537 6.00544 3.25 7 3.25H17ZM7 4.75C6.40326 4.75 5.83114 4.98722 5.40918 5.40918C4.98722 5.83114 4.75 6.40326 4.75 7V17C4.75 17.5967 4.98722 18.1689 5.40918 18.5908C5.83114 19.0128 6.40326 19.25 7 19.25H8.00195C7.51744 18.6046 7.25 17.8165 7.25 17V6L7.25879 5.8877C7.29767 5.63066 7.46775 5.40818 7.71289 5.30664C7.99312 5.1906 8.3158 5.25525 8.53027 5.46973L13.5303 10.4697L13.582 10.5264C13.8223 10.8209 13.8049 11.2557 13.5303 11.5303C13.2557 11.8049 12.8209 11.8223 12.5264 11.582L12.4697 11.5303L8.75 7.81055V17C8.75 17.5967 8.98723 18.1689 9.40918 18.5908C9.77833 18.96 10.2624 19.1881 10.7773 19.2393L11 19.25H17L17.2227 19.2393C17.7376 19.1881 18.2217 18.96 18.5908 18.5908C18.96 18.2217 19.1881 17.7376 19.2393 17.2227L19.25 17V7L19.2393 6.77734C19.1881 6.26236 18.96 5.77833 18.5908 5.40918C18.1689 4.98722 17.5967 4.75 17 4.75H15.998C16.4826 5.39541 16.75 6.18352 16.75 7V18C16.75 18.3033 16.5674 18.5773 16.2871 18.6934C16.0069 18.8094 15.6842 18.7448 15.4697 18.5303L10.4697 13.5303L10.418 13.4736C10.1777 13.1791 10.1951 12.7443 10.4697 12.4697C10.7443 12.1951 11.1791 12.1777 11.4736 12.418L11.5303 12.4697L15.25 16.1895V7C15.25 6.40326 15.0128 5.83114 14.5908 5.40918C14.2217 5.04003 13.7376 4.81197 13.2227 4.76074L13 4.75H7Z" fill="white"/>
</svg>
