<svg width="24" height="24" viewBox="0 0 24 24" fill="none" xmlns="http://www.w3.org/2000/svg">
<path d="M3.75 6.028C3.75 5.31688 4.32052 4.75 5.013 4.75H12C12.4142 4.75 12.75 4.41421 12.75 4C12.75 3.58579 12.4142 3.25 12 3.25H5.013C3.48148 3.25 2.25 4.49911 2.25 6.028V18.972C2.25 20.5009 3.48148 21.75 5.013 21.75H18.987C20.5185 21.75 21.75 20.5009 21.75 18.972V13.067C21.75 12.6528 21.4142 12.317 21 12.317C20.5858 12.317 20.25 12.6528 20.25 13.067V18.972C20.25 19.6831 19.6794 20.25 18.987 20.25H5.013C4.32052 20.25 3.75 19.6831 3.75 18.972V6.028ZM20.7723 4.05591C19.6984 2.98201 17.9576 2.98201 16.8837 4.05591L8.49369 12.4459C8.27708 12.6625 8.1215 12.9323 8.04181 13.227C8.03308 13.2546 8.02591 13.2827 8.02039 13.3114L7.10042 16.9903C7.03651 17.2459 7.11139 17.5163 7.29769 17.7026C7.48399 17.8889 7.75437 17.9637 8.00997 17.8998L11.7156 16.9732C11.7238 16.9713 11.7319 16.9692 11.7399 16.9671L11.7409 16.9668C12.0499 16.8896 12.329 16.7301 12.5523 16.5086L12.5543 16.5066L19.3506 9.7103L19.3603 9.70074L19.3699 9.69101L20.9443 8.11657C22.0182 7.04268 22.0182 5.3018 20.9443 4.22791L20.7723 4.05591ZM12.1321 14.8074C11.8044 13.9089 11.0916 13.1958 10.1932 12.8677L15.8299 7.23098L17.7692 9.17033L12.1321 14.8074ZM9.34642 14.1918C10.0985 14.3075 10.6925 14.9017 10.8077 15.654L8.8589 16.1414L9.34642 14.1918ZM19.8837 7.05591L18.8299 8.10967L16.8906 6.17032L17.9443 5.11657C18.4324 4.62846 19.2236 4.62846 19.7117 5.11657L19.8837 5.28857C20.3718 5.77668 20.3718 6.5678 19.8837 7.05591Z" fill="white"/>
</svg>
