<svg width="24" height="24" viewBox="0 0 24 24" fill="none" xmlns="http://www.w3.org/2000/svg">
<path d="M16.1493 5.82332C16.2464 5.72621 16.4046 5.72621 16.5017 5.82332L18.1777 7.49932C18.2748 7.59641 18.2748 7.7545 18.1777 7.85161L16.8398 9.18928L14.8116 7.16107L16.1493 5.82332ZM13.252 6.5993C13.241 6.6091 13.2302 6.61927 13.2197 6.62983C13.2091 6.64038 13.1989 6.65117 13.1891 6.66218L4.76409 15.0872L4.7633 15.088C4.4335 15.4165 4.25 15.8619 4.25 16.325V19C4.25 19.4142 4.58579 19.75 5 19.75H7.675C8.13818 19.75 8.58359 19.5665 8.91206 19.2366L17.3531 10.7972C17.3589 10.7917 17.3646 10.7862 17.3703 10.7805C17.376 10.7748 17.3815 10.7691 17.387 10.7633L19.2383 8.91237C19.9212 8.22947 19.9212 7.12155 19.2383 6.43866L17.5623 4.76266C16.8794 4.07976 15.7716 4.07976 15.0887 4.76266L13.252 6.5993ZM15.779 10.2498L7.85072 18.1766L7.84926 18.1781C7.8038 18.2238 7.7415 18.25 7.675 18.25H5.75V16.325C5.75 16.2585 5.77621 16.1962 5.82191 16.1507L5.82333 16.1493L13.7509 8.22173L15.779 10.2498Z" fill="white"/>
</svg>
