<svg width="24" height="24" viewBox="0 0 24 24" fill="none" xmlns="http://www.w3.org/2000/svg">
<path d="M18.4612 3.46007C17.8482 2.8471 16.8543 2.8461 16.2413 3.46031L14.4072 5.29435C14.3829 5.31281 14.3595 5.33314 14.3373 5.35536C14.3151 5.37758 14.2947 5.40097 14.2763 5.42532L11.4939 8.20767C11.2312 8.47039 11.2312 8.89633 11.4939 9.15904C11.7566 9.42175 12.1826 9.42175 12.4453 9.15904L14.8174 6.78689L16.6332 8.60264L14.261 10.9748C13.9983 11.2375 13.9983 11.6634 14.261 11.9262C14.5237 12.1889 14.9497 12.1889 15.2124 11.9262L19.96 7.17856C20.573 6.56551 20.5738 5.57129 19.9594 4.95828L18.4612 3.46007ZM17.5846 7.65127L15.7688 5.83552L17.1935 4.41083C17.2801 4.32398 17.4215 4.3231 17.5098 4.41144L19.0092 5.91086C19.0961 5.99749 19.097 6.13885 19.0086 6.22719L17.5846 7.65127ZM3.19703 3.49857C3.45975 3.23586 3.88569 3.23586 4.1484 3.49857L19.8452 19.1954C20.1079 19.4581 20.1079 19.884 19.8452 20.1467C19.5825 20.4094 19.1565 20.4094 18.8938 20.1467L12.8657 14.1186L7.96675 19.0176C7.69638 19.288 7.36736 19.4911 7.00612 19.6127L5.07364 20.259C3.84683 20.6684 2.67822 19.5027 3.08636 18.275L3.72944 16.3404C3.85033 15.9765 4.05496 15.6449 4.32629 15.3736L9.22349 10.4764L3.19703 4.44994C2.93432 4.18723 2.93432 3.76129 3.19703 3.49857ZM10.1749 11.4278L5.27766 16.325C5.15437 16.4482 5.06118 16.5993 5.00626 16.7646L4.36311 18.6994C4.3049 18.8745 4.47109 19.0414 4.64701 18.983L6.57675 18.3376C6.74271 18.2817 6.89301 18.1886 7.01538 18.0663L11.9144 13.1673L10.1749 11.4278Z" fill="white"/>
</svg>
