<svg width="24" height="24" viewBox="0 0 24 24" fill="none" xmlns="http://www.w3.org/2000/svg">
<path d="M17.9093 4.15133C18.4444 3.61622 19.3136 3.61622 19.8487 4.15133C20.3838 4.68644 20.3838 5.55556 19.8487 6.09067L13.2057 12.7337C13.1665 12.7728 13.1166 12.7972 13.0659 12.8043L13.0639 12.8045L10.8839 13.1161L11.1953 10.9371C11.2034 10.8818 11.229 10.8317 11.2663 10.7943L17.9093 4.15133ZM20.9093 3.09067C19.7884 1.96978 17.9696 1.96978 16.8487 3.09067L10.2057 9.73367C9.93717 10.0022 9.76472 10.3499 9.71075 10.7225L9.25755 13.8939C9.22415 14.1276 9.30274 14.3634 9.46968 14.5303C9.63661 14.6973 9.8724 14.7759 10.1061 14.7425L13.2741 14.2897L13.2755 14.2895C13.6522 14.2364 13.9998 14.0609 14.2663 13.7943L20.9093 7.15133C22.0302 6.03044 22.0302 4.21156 20.9093 3.09067ZM3.75 7C3.75 6.30921 4.30921 5.75 5 5.75H10C10.4142 5.75 10.75 5.41421 10.75 5C10.75 4.58579 10.4142 4.25 10 4.25H5C3.48079 4.25 2.25 5.48079 2.25 7V19C2.25 20.5192 3.48079 21.75 5 21.75H19C20.5192 21.75 21.75 20.5192 21.75 19V11C21.75 10.5858 21.4142 10.25 21 10.25C20.5858 10.25 20.25 10.5858 20.25 11V19C20.25 19.6908 19.6908 20.25 19 20.25H5C4.30921 20.25 3.75 19.6908 3.75 19V7Z" fill="white"/>
</svg>
