<svg width="24" height="24" viewBox="0 0 24 24" fill="none" xmlns="http://www.w3.org/2000/svg">
<path d="M12.6007 3.60446C14.4086 1.79656 17.3395 1.79656 19.1474 3.60446C20.9553 5.41235 20.9553 8.34322 19.1474 10.1511L11.9154 17.3831C10.7965 18.502 8.98165 18.502 7.86276 17.3831C6.74387 16.2642 6.74387 14.4493 7.86276 13.3305L13.3487 7.84445C13.6416 7.55156 14.1165 7.55156 14.4094 7.84445C14.7023 8.13735 14.7023 8.61222 14.4094 8.90512L8.92342 14.3911C8.39031 14.9242 8.39031 15.7893 8.92342 16.3225C9.45653 16.8556 10.3216 16.8556 10.8547 16.3225L18.0867 9.09046C19.3088 7.86835 19.3088 5.88722 18.0867 4.66512C16.8646 3.44301 14.8835 3.44301 13.6614 4.66512L6.42942 11.8971C4.51831 13.8082 4.51831 16.9053 6.42942 18.8165C8.34053 20.7276 11.4376 20.7276 13.3487 18.8165L17.7377 14.4275C18.0306 14.1346 18.5055 14.1346 18.7984 14.4275C19.0913 14.7203 19.0913 15.1952 18.7984 15.4881L14.4094 19.8771C11.9125 22.374 7.86565 22.374 5.36876 19.8771C2.87187 17.3802 2.87187 13.3333 5.36876 10.8365L12.6007 3.60446Z" fill="white"/>
</svg>
