<svg width="24" height="24" viewBox="0 0 24 24" fill="none" xmlns="http://www.w3.org/2000/svg">
<g clip-path="url(#clip0_7_1167)">
<mask id="mask0_7_1167" style="mask-type:luminance" maskUnits="userSpaceOnUse" x="0" y="0" width="24" height="24">
<path d="M24 0H0V24H24V0Z" fill="white"/>
</mask>
<g mask="url(#mask0_7_1167)">
<path d="M12.0002 2.29999C6.6002 2.29999 2.2002 6.69999 2.2002 12.1C2.2002 17.5 6.6002 21.9 12.0002 21.9C17.4002 21.9 21.8002 17.5 21.8002 12.1C21.8002 6.69999 17.4002 2.29999 12.0002 2.29999ZM12.0002 20.3C7.5002 20.3 3.8002 16.6 3.8002 12.1C3.8002 7.59999 7.5002 3.79999 12.0002 3.79999C16.5002 3.79999 20.2002 7.49999 20.2002 12C20.2002 16.5 16.5002 20.3 12.0002 20.3Z" fill="white"/>
<path d="M15.9002 7.29999C14.9002 6.29999 13.1002 6.29999 12.0002 7.29999C11.7002 7.59999 11.7002 8.09999 12.0002 8.39999C12.3002 8.69999 12.8002 8.69999 13.1002 8.39999C13.6002 7.89999 14.4002 7.89999 14.8002 8.39999L15.5002 9.09999C15.9002 9.39999 16.0002 9.69999 16.0002 9.99999C16.0002 10.3 15.9002 10.6 15.6002 10.9L14.0002 12.5C13.3002 13.2 12.2002 13.2 11.5002 12.5C11.2002 12.2 10.7002 12.2 10.4002 12.5C10.1002 12.8 10.1002 13.3 10.4002 13.6C11.0002 14.2 11.8002 14.6 12.7002 14.6C13.6002 14.6 14.4002 14.3 15.0002 13.6L16.6002 12C17.1002 11.5 17.4002 10.8 17.4002 10.1C17.4002 9.39999 17.1002 8.69999 16.6002 8.19999L15.9002 7.29999Z" fill="white"/>
<path d="M10.8002 15.6C10.3002 16.1 9.5002 16.1 9.1002 15.6L8.40019 14.9C8.10019 14.6 8.0002 14.3 8.0002 14C8.0002 13.7 8.10019 13.4 8.40019 13.1L10.0002 11.5C10.7002 10.8 11.8002 10.8 12.5002 11.5C12.8002 11.8 13.3002 11.8 13.6002 11.5C13.9002 11.2 13.9002 10.7 13.6002 10.4C12.4002 9.19999 10.2002 9.19999 9.0002 10.4L7.4002 12C6.9002 12.5 6.60019 13.2 6.60019 13.9C6.60019 14.6 6.9002 15.3 7.4002 15.8L8.1002 16.5C8.6002 17 9.30019 17.3 10.0002 17.3C10.7002 17.3 11.4002 17 11.9002 16.5C12.2002 16.2 12.2002 15.7 11.9002 15.4C11.6002 15.1 11.1002 15.3 10.8002 15.6Z" fill="white"/>
</g>
</g>
<defs>
<clipPath id="clip0_7_1167">
<rect width="24" height="24" fill="white"/>
</clipPath>
</defs>
</svg>
