<svg width="24" height="24" viewBox="0 0 24 24" fill="none" xmlns="http://www.w3.org/2000/svg">
<path d="M3.75 12C3.75 7.44321 7.44321 3.75 12 3.75C16.5568 3.75 20.25 7.44321 20.25 12C20.25 16.5568 16.5568 20.25 12 20.25C7.44321 20.25 3.75 16.5568 3.75 12ZM12 2.25C6.61479 2.25 2.25 6.61479 2.25 12C2.25 17.3852 6.61479 21.75 12 21.75C17.3852 21.75 21.75 17.3852 21.75 12C21.75 6.61479 17.3852 2.25 12 2.25ZM11.083 7C11.083 6.58579 10.7472 6.25 10.333 6.25C9.91879 6.25 9.58301 6.58579 9.58301 7V8.111C9.58301 8.52521 9.91879 8.861 10.333 8.861C10.7472 8.861 11.083 8.52521 11.083 8.111V7ZM12.5807 8.13645C13.4865 7.23056 14.9574 7.23056 15.8633 8.13645C16.7692 9.04234 16.7692 10.5132 15.8633 11.4191L14.9823 12.3001C14.6894 12.593 14.2145 12.593 13.9216 12.3001C13.6288 12.0072 13.6288 11.5323 13.9216 11.2395L14.8027 10.3585C15.1228 10.0383 15.1228 9.51722 14.8027 9.19711C14.4825 8.877 13.9614 8.877 13.6413 9.19711L12.7603 10.0781C12.4674 10.371 11.9925 10.371 11.6997 10.0781C11.4068 9.78522 11.4068 9.31034 11.6997 9.01745L12.5807 8.13645ZM10.0784 11.6997C10.3712 11.9925 10.3712 12.4674 10.0784 12.7603L9.19736 13.6413C8.87725 13.9614 8.87725 14.4825 9.19736 14.8027C9.51746 15.1228 10.0386 15.1228 10.3587 14.8027L11.2397 13.9216C11.5326 13.6288 12.0075 13.6288 12.3004 13.9216C12.5932 14.2145 12.5932 14.6894 12.3004 14.9823L11.4194 15.8633C10.5135 16.7692 9.04259 16.7692 8.1367 15.8633C7.2308 14.9574 7.2308 13.4865 8.1367 12.5807L9.0177 11.6997C9.31059 11.4068 9.78546 11.4068 10.0784 11.6997ZM6.25 10.333C6.25 9.91879 6.58579 9.58301 7 9.58301H8.111C8.52521 9.58301 8.861 9.91879 8.861 10.333C8.861 10.7472 8.52521 11.083 8.111 11.083H7C6.58579 11.083 6.25 10.7472 6.25 10.333ZM14.417 15.8892C14.417 15.4749 14.0812 15.1392 13.667 15.1392C13.2528 15.1392 12.917 15.4749 12.917 15.8892V17.0002C12.917 17.4144 13.2528 17.7502 13.667 17.7502C14.0812 17.7502 14.417 17.4144 14.417 17.0002V15.8892ZM15.139 13.667C15.139 13.2528 15.4748 12.917 15.889 12.917H17C17.4142 12.917 17.75 13.2528 17.75 13.667C17.75 14.0812 17.4142 14.417 17 14.417H15.889C15.4748 14.417 15.139 14.0812 15.139 13.667Z" fill="white"/>
</svg>
