<svg width="24" height="24" viewBox="0 0 24 24" fill="none" xmlns="http://www.w3.org/2000/svg">
<path d="M12 2.25C8.82479 2.25 6.25 4.82479 6.25 8V17V17.05V17.5C6.25 19.8472 8.15279 21.75 10.5 21.75C12.8472 21.75 14.75 19.8472 14.75 17.5V17.0019V17.0002V9.00021C14.75 7.48153 13.5224 6.24788 12.003 6.24221C10.4756 6.23553 9.233 7.47282 9.233 9.00021V16.0002C9.233 16.4144 9.56879 16.7502 9.983 16.7502C10.3972 16.7502 10.733 16.4144 10.733 16.0002V9.00021C10.733 8.30371 11.3002 7.73907 11.9966 7.7422C12.6891 7.74471 13.25 8.307 13.25 9.00021V16.9983V17V17.5C13.25 19.0188 12.0188 20.25 10.5 20.25C8.98121 20.25 7.75 19.0188 7.75 17.5V17.05V17V8C7.75 5.65321 9.65321 3.75 12 3.75C14.3468 3.75 16.25 5.65321 16.25 8V15C16.25 15.4142 16.5858 15.75 17 15.75C17.4142 15.75 17.75 15.4142 17.75 15V8C17.75 4.82479 15.1752 2.25 12 2.25Z" fill="white"/>
</svg>
