<svg width="24" height="24" viewBox="0 0 24 24" fill="none" xmlns="http://www.w3.org/2000/svg">
<path d="M6.16637 6.16637C9.3882 2.94454 14.6118 2.94454 17.8336 6.16637C21.0554 9.3882 21.0554 14.6118 17.8336 17.8336C14.6117 21.0554 9.38818 21.0554 6.16637 17.8336C2.94454 14.6118 2.94455 9.38818 6.16637 6.16637ZM18.8942 5.10571C15.0866 1.2981 8.91332 1.2981 5.10571 5.10571C1.2981 8.9133 1.2981 15.0867 5.10571 18.8943C8.9133 22.7019 15.0866 22.7019 18.8942 18.8943C22.7018 15.0867 22.7018 8.91332 18.8942 5.10571ZM12.5302 8.28724C12.8231 7.99439 12.8232 7.51952 12.5303 7.22658C12.2375 6.93365 11.7626 6.93358 11.4696 7.22643L7.93368 10.7614C6.46879 12.2263 6.46872 14.6003 7.93361 16.0652C9.3985 17.5301 11.7723 17.5301 13.2372 16.0652L17.1262 12.1762C18.0041 11.2983 18.0041 9.8724 17.1262 8.99451C16.2483 8.11661 14.8225 8.11661 13.9446 8.99451L10.7626 12.1765C10.4697 12.4694 10.4697 12.9443 10.7626 13.2372C11.0555 13.5301 11.5303 13.5301 11.8232 13.2372L15.0052 10.0552C15.2973 9.76306 15.7735 9.76306 16.0656 10.0552C16.3577 10.3473 16.3577 10.8234 16.0656 11.1155L12.1766 15.0045C11.2975 15.8836 9.87338 15.8836 8.99427 15.0045C8.11519 14.1254 8.11516 12.7014 8.99419 11.8222L12.5302 8.28724Z" fill="white"/>
</svg>
