<svg width="24" height="24" viewBox="0 0 24 24" fill="none" xmlns="http://www.w3.org/2000/svg">
<g clip-path="url(#clip0_7_2664)">
<mask id="mask0_7_2664" style="mask-type:luminance" maskUnits="userSpaceOnUse" x="0" y="0" width="24" height="24">
<path d="M24 0H0V24H24V0Z" fill="white"/>
</mask>
<g mask="url(#mask0_7_2664)">
<path d="M21.3001 5.8C21.2001 5.6 21.0001 5.4 20.7001 5.3C20.5001 5.3 20.1001 5.4 20.0001 5.5L16.8001 8.6L15.3001 7.1L18.4001 4C18.6001 3.8 18.7001 3.5 18.6001 3.2C18.6001 3 18.3001 2.7 18.1001 2.6C15.7001 1.6 12.9001 2.1 11.0001 3.9C9.3001 5.6 8.7001 8 9.4001 10.2L3.0001 16.7C2.4001 17.3 2.1001 18 2.1001 18.8C2.1001 19.6 2.4001 20.4 3.0001 20.9C3.6001 21.5 4.4001 21.8 5.1001 21.8C5.9001 21.8 6.7001 21.5 7.2001 20.9L13.7001 14.4C15.9001 15.1 18.3001 14.4 20.0001 12.8C21.9001 11 22.4001 8.2 21.3001 5.8ZM18.9001 11.8C17.5001 13.2 15.5001 13.6 13.8001 12.9C13.5001 12.8 13.2001 12.9 13.0001 13.1L6.2001 19.9C5.6001 20.5 4.6001 20.5 4.0001 19.9C3.7001 19.6 3.6001 19.2 3.6001 18.8C3.6001 18.4 3.8001 18 4.0001 17.7L10.8001 10.9C11.0001 10.7 11.1001 10.4 11.0001 10.1C10.3001 8.4 10.8001 6.3 12.1001 5C13.0001 4.1 14.3001 3.6 15.6001 3.6C15.9001 3.6 16.3001 3.6 16.6001 3.7L13.8001 6.5C13.5001 6.8 13.5001 7.3 13.8001 7.6L16.4001 10.2C16.7001 10.5 17.2001 10.5 17.5001 10.2L20.4001 7.3C20.6001 8.9 20.1001 10.6 18.9001 11.8Z" fill="white"/>
</g>
</g>
<defs>
<clipPath id="clip0_7_2664">
<rect width="24" height="24" fill="white"/>
</clipPath>
</defs>
</svg>
