<svg width="24" height="24" viewBox="0 0 24 24" fill="none" xmlns="http://www.w3.org/2000/svg">
<path d="M4.73001 3.06982C5.14422 3.06982 5.48001 3.40561 5.48001 3.81982V10.1798C5.48001 10.594 5.14422 10.9298 4.73001 10.9298C4.3158 10.9298 3.98001 10.594 3.98001 10.1798V3.81982C3.98001 3.40561 4.3158 3.06982 4.73001 3.06982ZM3.98001 14.5698V20.1798C3.98001 20.594 4.3158 20.9298 4.73001 20.9298C5.14422 20.9298 5.48001 20.594 5.48001 20.1798V14.5698H7.45C7.86421 14.5698 8.2 14.234 8.2 13.8198C8.2 13.4056 7.86421 13.0698 7.45 13.0698H4.73001H2C1.58579 13.0698 1.25 13.4056 1.25 13.8198C1.25 14.234 1.58579 14.5698 2 14.5698H3.98001ZM12.75 12C12.75 11.5858 12.4142 11.25 12 11.25C11.5858 11.25 11.25 11.5858 11.25 12V20.18C11.25 20.5942 11.5858 20.93 12 20.93C12.4142 20.93 12.75 20.5942 12.75 20.18V12ZM12 3.06982C12.4142 3.06982 12.75 3.40561 12.75 3.81982V7.60986H14.73C15.1442 7.60986 15.48 7.94565 15.48 8.35986C15.48 8.77408 15.1442 9.10986 14.73 9.10986H9.26999C8.85578 9.10986 8.51999 8.77408 8.51999 8.35986C8.51999 7.94565 8.85578 7.60986 9.26999 7.60986H11.25V3.81982C11.25 3.40561 11.5858 3.06982 12 3.06982ZM19.27 14.8896H22C22.4142 14.8896 22.75 15.2254 22.75 15.6396C22.75 16.0539 22.4142 16.3896 22 16.3896H20.02V20.1796C20.02 20.5939 19.6842 20.9296 19.27 20.9296C18.8558 20.9296 18.52 20.5939 18.52 20.1796V16.3896H16.55C16.1358 16.3896 15.8 16.0539 15.8 15.6396C15.8 15.2254 16.1358 14.8896 16.55 14.8896H19.27ZM19.27 3.06982C19.6842 3.06982 20.02 3.40561 20.02 3.81982V11.9998C20.02 12.414 19.6842 12.7498 19.27 12.7498C18.8558 12.7498 18.52 12.414 18.52 11.9998V3.81982C18.52 3.40561 18.8558 3.06982 19.27 3.06982Z" fill="white"/>
</svg>
