<svg width="24" height="24" viewBox="0 0 24 24" fill="none" xmlns="http://www.w3.org/2000/svg">
<path d="M5.00001 2.25C5.41422 2.25 5.75001 2.58579 5.75001 3V5.35374C6.18745 5.47728 6.60028 5.71119 6.94455 6.05546C8.01849 7.1294 8.01849 8.8706 6.94455 9.94455C6.60028 10.2888 6.18745 10.5227 5.75001 10.6463V21C5.75001 21.4142 5.41422 21.75 5.00001 21.75C4.58579 21.75 4.25001 21.4142 4.25001 21V10.6463C3.81256 10.5227 3.39973 10.2888 3.05546 9.94455C1.98151 8.8706 1.98151 7.1294 3.05546 6.05546C3.39973 5.71119 3.81256 5.47728 4.25001 5.35373V3C4.25001 2.58579 4.58579 2.25 5.00001 2.25ZM12.75 3C12.75 2.58579 12.4142 2.25 12 2.25C11.5858 2.25 11.25 2.58579 11.25 3V13.3537C10.8126 13.4773 10.3997 13.7112 10.0554 14.0555C8.9815 15.1294 8.9815 16.8706 10.0554 17.9445C10.3997 18.2888 10.8126 18.5227 11.25 18.6463V21C11.25 21.4142 11.5858 21.75 12 21.75C12.4142 21.75 12.75 21.4142 12.75 21V18.6463C13.1874 18.5227 13.6003 18.2888 13.9445 17.9445C15.0185 16.8706 15.0185 15.1294 13.9445 14.0555C13.6003 13.7112 13.1874 13.4773 12.75 13.3537V3ZM12.8839 16.8839C12.6392 17.1286 12.3183 17.2506 11.9976 17.25C11.6785 17.2494 11.3596 17.1273 11.1161 16.8839C10.6279 16.3957 10.6279 15.6043 11.1161 15.1161C11.6043 14.628 12.3957 14.628 12.8839 15.1161C13.372 15.6043 13.372 16.3957 12.8839 16.8839ZM19.75 3C19.75 2.58579 19.4142 2.25 19 2.25C18.5858 2.25 18.25 2.58579 18.25 3V5.35373C17.8126 5.47728 17.3997 5.71119 17.0554 6.05546C15.9815 7.1294 15.9815 8.8706 17.0554 9.94455C17.3997 10.2888 17.8126 10.5227 18.25 10.6463V21C18.25 21.4142 18.5858 21.75 19 21.75C19.4142 21.75 19.75 21.4142 19.75 21V10.6463C20.1874 10.5227 20.6003 10.2888 20.9445 9.94455C22.0185 8.8706 22.0185 7.1294 20.9445 6.05546C20.6003 5.71119 20.1874 5.47729 19.75 5.35374V3ZM18.9991 9.25C18.6795 9.24977 18.36 9.12773 18.1161 8.88389C17.6279 8.39573 17.6279 7.60427 18.1161 7.11612C18.6043 6.62796 19.3957 6.62796 19.8839 7.11612C20.372 7.60427 20.372 8.39573 19.8839 8.88389C19.6396 9.1282 19.3193 9.25023 18.9991 9.25ZM4.11612 8.88389C4.60427 9.37204 5.39573 9.37204 5.88389 8.88389C6.37204 8.39573 6.37204 7.60427 5.88389 7.11612C5.39573 6.62796 4.60427 6.62796 4.11612 7.11612C3.62796 7.60427 3.62796 8.39573 4.11612 8.88389Z" fill="white"/>
</svg>
