<svg width="24" height="24" viewBox="0 0 24 24" fill="none" xmlns="http://www.w3.org/2000/svg">
<g clip-path="url(#clip0_7_2648)">
<mask id="mask0_7_2648" style="mask-type:luminance" maskUnits="userSpaceOnUse" x="0" y="0" width="24" height="24">
<path d="M24 0H0V24H24V0Z" fill="white"/>
</mask>
<g mask="url(#mask0_7_2648)">
<path d="M9.59982 9.6C8.29982 10.9 8.29982 13.1 9.59982 14.5C10.2998 15.2 11.1998 15.5 11.9998 15.5C12.8998 15.5 13.7998 15.2 14.3998 14.5C15.6998 13.2 15.6998 11 14.3998 9.6C13.0998 8.2 10.8998 8.2 9.59982 9.6ZM13.3998 13.4C12.5998 14.2 11.3998 14.2 10.5998 13.4C9.79982 12.6 9.79982 11.4 10.5998 10.6C10.9998 10.2 11.4998 10 11.9998 10C12.4998 10 12.9998 10.2 13.3998 10.6C14.0998 11.4 14.0998 12.6 13.3998 13.4Z" fill="white"/>
<path d="M20.6998 13.5L19.3998 12.5C19.3998 12.3 19.3998 12.1 19.3998 12C19.3998 11.9 19.3998 11.6 19.3998 11.5L20.6998 10.5C21.2998 10 21.4998 9.1 21.0998 8.4L19.6998 6C19.2998 5.3 18.3998 5 17.6998 5.3L16.2998 5.9C16.2998 5.9 16.1998 5.9 16.0998 5.9C15.8998 5.7 15.5998 5.6 15.2998 5.5L15.1998 5.4L14.9998 3.7C14.8998 2.9 14.1998 2.3 13.3998 2.3H10.5998C9.79982 2.3 9.09982 2.9 8.99982 3.7L8.69982 5.2C8.69982 5.3 8.59982 5.3 8.59982 5.3C8.39982 5.4 8.09982 5.6 7.89982 5.7C7.89982 5.7 7.79982 5.8 7.69982 5.7L6.29982 5.2C5.49982 4.9 4.69982 5.2 4.29982 5.9L2.89982 8.3C2.39982 9.1 2.59982 10 3.29982 10.5L4.59982 11.5C4.59982 11.7 4.59982 11.9 4.59982 12C4.59982 12.1 4.59982 12.4 4.59982 12.5L3.29982 13.5C2.69982 14 2.49982 14.9 2.89982 15.6L4.29982 18C4.69982 18.7 5.59982 19 6.29982 18.7L7.69982 18.1C7.79982 18.1 7.79982 18.1 7.89982 18.1C8.09982 18.3 8.39982 18.4 8.69982 18.5L8.79982 18.6L8.99982 20.3C9.09982 21.1 9.79982 21.7 10.5998 21.7H13.3998C14.1998 21.7 14.8998 21.1 14.9998 20.3L15.1998 18.8C15.1998 18.7 15.2998 18.7 15.2998 18.7C15.5998 18.6 15.7998 18.4 16.0998 18.3C16.0998 18.3 16.1998 18.2 16.2998 18.3L17.6998 18.9C18.4998 19.2 19.2998 18.9 19.6998 18.2L21.0998 15.8C21.5998 14.9 21.3998 14 20.6998 13.5ZM19.7998 14.9L18.3998 17.3C18.3998 17.4 18.2998 17.4 18.1998 17.4L16.7998 16.8C16.2998 16.6 15.6998 16.7 15.2998 17C15.0998 17.1 14.8998 17.2 14.6998 17.3C14.1998 17.5 13.8998 18 13.7998 18.5L13.5998 20C13.5998 20.1 13.4998 20.1 13.4998 20.1H10.6998C10.5998 20.1 10.5998 20 10.5998 20L10.3998 18.5C10.2998 18 9.99982 17.5 9.49982 17.3C9.29982 17.2 9.09982 17.1 8.89982 16.9C8.59982 16.7 8.29982 16.6 7.99982 16.6C7.79982 16.6 7.59982 16.6 7.39982 16.7L5.99982 17.3C5.89982 17.3 5.89982 17.3 5.79982 17.2L4.39982 14.8C4.39982 14.7 4.39982 14.7 4.39982 14.6L5.99982 13.4C6.19982 13.2 6.29982 13 6.29982 12.7C5.99982 12.5 5.99982 12.3 5.99982 12C5.99982 11.7 5.99982 11.5 6.09982 11.2C6.09982 10.9 5.99982 10.7 5.79982 10.5L4.19982 9.3C4.09982 9.3 4.09982 9.2 4.19982 9.1L5.59982 6.7C5.59982 6.6 5.69982 6.6 5.79982 6.6L7.19982 7.2C7.69982 7.4 8.19982 7.3 8.69982 7C8.89982 6.9 9.09982 6.7 9.29982 6.6C9.79982 6.3 10.0998 5.9 10.1998 5.4L10.3998 3.9C10.3998 3.8 10.4998 3.8 10.4998 3.8H13.2998C13.3998 3.8 13.3998 3.9 13.3998 3.9L13.5998 5.4C13.6998 5.9 13.9998 6.4 14.4998 6.6C14.6998 6.7 14.8998 6.8 15.0998 7C15.5998 7.3 16.0998 7.4 16.5998 7.2L17.9998 6.6C18.0998 6.6 18.0998 6.6 18.1998 6.7L19.5998 9.1C19.5998 9.2 19.5998 9.2 19.5998 9.3L17.9998 10.5C17.7998 10.7 17.6998 10.9 17.6998 11.2C17.6998 11.5 17.7998 11.7 17.7998 12C17.7998 12.3 17.7998 12.5 17.6998 12.8C17.6998 13.1 17.7998 13.3 17.9998 13.5L19.5998 14.7C19.8998 14.8 19.8998 14.8 19.7998 14.9Z" fill="white"/>
</g>
</g>
<defs>
<clipPath id="clip0_7_2648">
<rect width="24" height="24" fill="white"/>
</clipPath>
</defs>
</svg>
