<svg width="24" height="24" viewBox="0 0 24 24" fill="none" xmlns="http://www.w3.org/2000/svg">
<path d="M15.1161 4.11612C14.873 4.35923 14.751 4.67756 14.75 4.99619V5V5.00364C14.7509 5.32233 14.8729 5.64073 15.1161 5.88389C15.6043 6.37204 16.3957 6.37204 16.8839 5.88389C17.372 5.39573 17.372 4.60427 16.8839 4.11612C16.3957 3.62796 15.6043 3.62796 15.1161 4.11612ZM13.3537 4.25C13.4773 3.81256 13.7112 3.39972 14.0554 3.05546C15.1294 1.98151 16.8706 1.98151 17.9445 3.05546C18.2888 3.39972 18.5227 3.81256 18.6463 4.25H21C21.4142 4.25 21.75 4.58579 21.75 5C21.75 5.41421 21.4142 5.75 21 5.75H18.6463C18.5227 6.18744 18.2888 6.60028 17.9445 6.94455C16.8706 8.01849 15.1294 8.01849 14.0554 6.94455C13.7112 6.60028 13.4773 6.18744 13.3537 5.75H3C2.58579 5.75 2.25 5.41421 2.25 5C2.25 4.58579 2.58579 4.25 3 4.25H13.3537ZM21 12.75H10.6463C10.5227 13.1874 10.2888 13.6003 9.94454 13.9445C8.8706 15.0185 7.12939 15.0185 6.05545 13.9445C5.71118 13.6003 5.47727 13.1874 5.35373 12.75H3C2.58579 12.75 2.25 12.4142 2.25 12C2.25 11.5858 2.58579 11.25 3 11.25H5.35373C5.47728 10.8126 5.71118 10.3997 6.05545 10.0555C7.12939 8.98151 8.8706 8.98151 9.94454 10.0555C10.2888 10.3997 10.5227 10.8126 10.6463 11.25H21C21.4142 11.25 21.75 11.5858 21.75 12C21.75 12.4142 21.4142 12.75 21 12.75ZM7.11611 12.8839C7.60427 13.372 8.39572 13.372 8.88388 12.8839C9.37204 12.3957 9.37204 11.6043 8.88388 11.1161C8.39572 10.628 7.60426 10.628 7.11611 11.1161C6.87134 11.3609 6.74931 11.6819 6.75 12.0027C6.75068 12.3217 6.87272 12.6405 7.11611 12.8839ZM18.6463 19.75C18.5227 20.1874 18.2888 20.6003 17.9445 20.9445C16.8706 22.0185 15.1294 22.0185 14.0554 20.9445C13.7112 20.6003 13.4773 20.1874 13.3537 19.75H3C2.58579 19.75 2.25 19.4142 2.25 19C2.25 18.5858 2.58579 18.25 3 18.25H13.3537C13.4773 17.8126 13.7112 17.3997 14.0554 17.0555C15.1294 15.9815 16.8706 15.9815 17.9445 17.0555C18.2888 17.3997 18.5227 17.8126 18.6463 18.25H21C21.4142 18.25 21.75 18.5858 21.75 19C21.75 19.4142 21.4142 19.75 21 19.75H18.6463ZM14.75 19.0024C14.7506 19.3215 14.8726 19.6404 15.1161 19.8839C15.6043 20.372 16.3957 20.372 16.8839 19.8839C17.372 19.3957 17.372 18.6043 16.8839 18.1161C16.3957 17.628 15.6043 17.628 15.1161 18.1161C14.873 18.3592 14.751 18.6776 14.75 18.9962V19V19.0024Z" fill="white"/>
</svg>
