<svg width="24" height="24" viewBox="0 0 24 24" fill="none" xmlns="http://www.w3.org/2000/svg">
<path d="M7.31859 4.26256C7.00779 4.57337 6.83833 4.972 6.81022 5.37858C6.81666 5.4181 6.82 5.45866 6.82 5.5C6.82 5.54134 6.81666 5.5819 6.81022 5.62142C6.83833 6.02799 7.00779 6.42662 7.31859 6.73743C8.00201 7.42085 9.11005 7.42085 9.79346 6.73743C10.4769 6.05402 10.4769 4.94598 9.79346 4.26256C9.11005 3.57915 8.00201 3.57915 7.31859 4.26256ZM5.39329 4.75C5.52725 4.18268 5.81547 3.64437 6.25793 3.2019C7.52699 1.93285 9.58444 1.9327 10.8537 3.20146C11.2962 3.64393 11.5848 4.18268 11.7188 4.75H21C21.4142 4.75 21.75 5.08579 21.75 5.5C21.75 5.91421 21.4142 6.25 21 6.25H11.7188C11.5848 6.81732 11.2966 7.35563 10.8541 7.79809C9.58492 9.0673 7.52714 9.0673 6.25793 7.79809C5.81547 7.35563 5.52725 6.81732 5.39329 6.25H3C2.58579 6.25 2.25 5.91421 2.25 5.5C2.25 5.08579 2.58579 4.75 3 4.75H5.39329ZM17.19 12C17.19 11.978 17.191 11.9562 17.1928 11.9346C17.177 11.5088 17.0065 11.0876 16.6815 10.7626C15.998 10.0791 14.89 10.0791 14.2066 10.7626C13.5232 11.446 13.5232 12.554 14.2066 13.2374C14.89 13.9209 15.998 13.9209 16.6815 13.2374C17.0065 12.9124 17.177 12.4912 17.1928 12.0654C17.191 12.0438 17.19 12.022 17.19 12ZM21 12.75H18.6068C18.4728 13.3173 18.1846 13.8556 17.7421 14.2981C16.4729 15.5673 14.4151 15.5673 13.1459 14.2981C12.7035 13.8556 12.4153 13.3173 12.2813 12.75H3C2.58579 12.75 2.25 12.4142 2.25 12C2.25 11.5858 2.58579 11.25 3 11.25H12.2813C12.4153 10.6827 12.7035 10.1444 13.1459 9.7019C14.4151 8.4327 16.4729 8.4327 17.7421 9.7019C18.1846 10.1444 18.4728 10.6827 18.6068 11.25H21C21.4142 11.25 21.75 11.5858 21.75 12C21.75 12.4142 21.4142 12.75 21 12.75ZM11.7188 19.25C11.5848 19.8173 11.2966 20.3556 10.8541 20.7981C9.58492 22.0673 7.52714 22.0673 6.25793 20.7981C5.81547 20.3556 5.52725 19.8173 5.39329 19.25H3C2.58579 19.25 2.25 18.9142 2.25 18.5C2.25 18.0858 2.58579 17.75 3 17.75H5.39329C5.52725 17.1827 5.81547 16.6444 6.25793 16.2019C7.52714 14.9327 9.58492 14.9327 10.8541 16.2019C11.2966 16.6444 11.5848 17.1827 11.7188 17.75H21C21.4142 17.75 21.75 18.0858 21.75 18.5C21.75 18.9142 21.4142 19.25 21 19.25H11.7188ZM6.80723 18.5649C6.82295 18.9909 6.9934 19.4122 7.31859 19.7374C8.00201 20.4209 9.11005 20.4209 9.79346 19.7374C10.4769 19.054 10.4769 17.946 9.79346 17.2626C9.11005 16.5791 8.00201 16.5791 7.31859 17.2626C6.9934 17.5878 6.82295 18.0091 6.80723 18.4351C6.80906 18.4565 6.81 18.4781 6.81 18.5C6.81 18.5219 6.80906 18.5435 6.80723 18.5649Z" fill="white"/>
</svg>
