<svg width="24" height="24" viewBox="0 0 24 24" fill="none" xmlns="http://www.w3.org/2000/svg">
<path d="M6.25 3C6.25 2.58579 5.91421 2.25 5.5 2.25C5.08578 2.25 4.75 2.58579 4.75 3V13.3373C4.18267 13.4712 3.64437 13.7594 3.2019 14.2019C1.9327 15.4711 1.9327 17.5289 3.2019 18.7981C3.64437 19.2406 4.18267 19.5288 4.75 19.6627V21C4.75 21.4142 5.08578 21.75 5.5 21.75C5.91421 21.75 6.25 21.4142 6.25 21V19.6627C6.81732 19.5288 7.35562 19.2406 7.79809 18.7981C9.06729 17.5289 9.06729 15.4711 7.79809 14.2019C7.35562 13.7594 6.81732 13.4712 6.25 13.3373V3ZM11.25 15.1627V21C11.25 21.4142 11.5858 21.75 12 21.75C12.4142 21.75 12.75 21.4142 12.75 21V15.1627C13.3173 15.0288 13.8556 14.7406 14.2981 14.2981C15.5673 13.0289 15.5673 10.9711 14.2981 9.7019C13.8556 9.25944 13.3173 8.97122 12.75 8.83726V3C12.75 2.58579 12.4142 2.25 12 2.25C11.5858 2.25 11.25 2.58579 11.25 3V8.83726C10.6827 8.97122 10.1444 9.25944 9.7019 9.7019C8.4327 10.9711 8.4327 13.0289 9.7019 14.2981C10.1444 14.7406 10.6827 15.0288 11.25 15.1627ZM19.25 10.6627C19.8173 10.5288 20.3556 10.2406 20.7981 9.79809C22.0673 8.52889 22.0673 6.47111 20.7981 5.2019C19.5289 3.9327 17.4711 3.9327 16.2019 5.2019C14.9327 6.47111 14.9327 8.52889 16.2019 9.79809C16.6444 10.2406 17.1827 10.5288 17.75 10.6627V21C17.75 21.4142 18.0858 21.75 18.5 21.75C18.9142 21.75 19.25 21.4142 19.25 21V10.6627ZM17.2626 6.26256C17.946 5.57915 19.054 5.57915 19.7374 6.26256C20.4209 6.94598 20.4209 8.05402 19.7374 8.73743C19.054 9.42085 17.946 9.42085 17.2626 8.73743C16.5792 8.05402 16.5792 6.94598 17.2626 6.26256ZM4.26256 15.2626C4.94598 14.5791 6.05401 14.5791 6.73743 15.2626C7.42085 15.946 7.42085 17.054 6.73743 17.7374C6.05401 18.4209 4.94598 18.4209 4.26256 17.7374C3.57914 17.054 3.57914 15.946 4.26256 15.2626ZM10.7626 10.7626C11.446 10.0791 12.554 10.0791 13.2374 10.7626C13.9209 11.446 13.9209 12.554 13.2374 13.2374C12.554 13.9209 11.446 13.9209 10.7626 13.2374C10.0792 12.554 10.0792 11.446 10.7626 10.7626Z" fill="white"/>
</svg>
