<svg width="24" height="24" viewBox="0 0 24 24" fill="none" xmlns="http://www.w3.org/2000/svg">
<path d="M12.3046 2.31464C12.1107 2.22845 11.8893 2.22845 11.6954 2.31464L2.6954 6.31464C2.42455 6.43502 2.25 6.70361 2.25 7V9C2.25 9.41421 2.58579 9.75 3 9.75H21C21.4142 9.75 21.75 9.41421 21.75 9V7C21.75 6.70361 21.5754 6.43502 21.3046 6.31464L12.3046 2.31464ZM3.75 8.25V7.4874L12 3.82074L20.25 7.4874V8.25H3.75ZM5.25 11.5C5.25 11.0858 4.91421 10.75 4.5 10.75C4.08579 10.75 3.75 11.0858 3.75 11.5V15.5C3.75 15.9142 4.08579 16.25 4.5 16.25C4.91421 16.25 5.25 15.9142 5.25 15.5V11.5ZM19.5 10.75C19.9142 10.75 20.25 11.0858 20.25 11.5V15.5C20.25 15.9142 19.9142 16.25 19.5 16.25C19.0858 16.25 18.75 15.9142 18.75 15.5V11.5C18.75 11.0858 19.0858 10.75 19.5 10.75ZM10.25 11.5C10.25 11.0858 9.91421 10.75 9.5 10.75C9.08579 10.75 8.75 11.0858 8.75 11.5V15.5C8.75 15.9142 9.08579 16.25 9.5 16.25C9.91421 16.25 10.25 15.9142 10.25 15.5V11.5ZM14.5 10.75C14.9142 10.75 15.25 11.0858 15.25 11.5V15.5C15.25 15.9142 14.9142 16.25 14.5 16.25C14.0858 16.25 13.75 15.9142 13.75 15.5V11.5C13.75 11.0858 14.0858 10.75 14.5 10.75ZM3 17.25C2.58579 17.25 2.25 17.5858 2.25 18V21C2.25 21.4142 2.58579 21.75 3 21.75H21C21.4142 21.75 21.75 21.4142 21.75 21V18C21.75 17.5858 21.4142 17.25 21 17.25H3ZM3.75 20.25V18.75H20.25V20.25H3.75Z" fill="white"/>
</svg>
