<svg width="24" height="24" viewBox="0 0 24 24" fill="none" xmlns="http://www.w3.org/2000/svg">
<path d="M5 1.25C4.58579 1.25 4.25 1.58579 4.25 2C4.25 2.41421 4.58579 2.75 5 2.75H19C19.4142 2.75 19.75 2.41421 19.75 2C19.75 1.58579 19.4142 1.25 19 1.25H5ZM3.25 5C3.25 4.58579 3.58579 4.25 4 4.25H20C20.4142 4.25 20.75 4.58579 20.75 5C20.75 5.41421 20.4142 5.75 20 5.75H4C3.58579 5.75 3.25 5.41421 3.25 5ZM2.75 10C2.75 9.30921 3.30921 8.75 4 8.75H20C20.6908 8.75 21.25 9.30921 21.25 10V20C21.25 20.6908 20.6908 21.25 20 21.25H4C3.30921 21.25 2.75 20.6908 2.75 20V10ZM4 7.25C2.48079 7.25 1.25 8.48079 1.25 10V20C1.25 21.5192 2.48079 22.75 4 22.75H20C21.5192 22.75 22.75 21.5192 22.75 20V10C22.75 8.48079 21.5192 7.25 20 7.25H4ZM10.7626 13.7626C11.446 13.0791 12.554 13.0791 13.2375 13.7626C13.9209 14.446 13.9209 15.554 13.2375 16.2374C12.554 16.9209 11.446 16.9209 10.7626 16.2374C10.0792 15.554 10.0792 14.446 10.7626 13.7626ZM14.2981 12.7019C13.0289 11.4327 10.9711 11.4327 9.70193 12.7019C8.43273 13.9711 8.43273 16.0289 9.70193 17.2981C10.9711 18.5673 13.0289 18.5673 14.2981 17.2981C15.5673 16.0289 15.5673 13.9711 14.2981 12.7019ZM18 11.75C18.4142 11.75 18.75 12.0858 18.75 12.5V17.5C18.75 17.9142 18.4142 18.25 18 18.25C17.5858 18.25 17.25 17.9142 17.25 17.5V12.5C17.25 12.0858 17.5858 11.75 18 11.75ZM6.75 12.5C6.75 12.0858 6.41421 11.75 6 11.75C5.58579 11.75 5.25 12.0858 5.25 12.5V17.5C5.25 17.9142 5.58579 18.25 6 18.25C6.41421 18.25 6.75 17.9142 6.75 17.5V12.5Z" fill="white"/>
</svg>
