<svg width="24" height="24" viewBox="0 0 24 24" fill="none" xmlns="http://www.w3.org/2000/svg">
<path d="M13.9737 6.15449L14.0678 6.06042L15.4395 7.43213L10.1927 12.6756C10.1436 12.7242 10.0793 12.7499 10.015 12.7499H8.75V11.4849C8.75 11.4187 8.77619 11.3554 8.8235 11.308L13.5595 6.56905L13.9559 6.17261C13.9619 6.1666 13.9678 6.16055 13.9737 6.15449ZM12.4989 5.50823L11.7537 6.25351C11.7482 6.25896 11.7429 6.26447 11.7376 6.27004L7.76267 10.2476C7.43408 10.5762 7.25 11.0211 7.25 11.4849V13.4999C7.25 13.9141 7.58579 14.2499 8 14.2499H10.015C10.4806 14.2499 10.924 14.0638 11.2509 13.7386L11.2522 13.7374L19.0262 5.96839C19.9909 5.00363 19.9912 3.43888 19.0267 2.47395C18.0612 1.50703 16.4961 1.50917 15.5317 2.47356L14.2443 3.76173C14.1645 3.6308 14.068 3.50718 13.9548 3.39395C13.1873 2.62811 11.9439 2.6273 11.1767 3.39451L9.53567 5.03551C9.24278 5.3284 9.24278 5.80327 9.53567 6.09617C9.82857 6.38906 10.3034 6.38906 10.5963 6.09617L12.2373 4.45517C12.418 4.27448 12.7123 4.27357 12.8949 4.4554C13.0725 4.63322 13.0759 4.92111 12.9028 5.10415L12.4989 5.50823ZM16.5005 6.37181L15.1281 4.99941L16.5923 3.53422C16.9719 3.15474 17.5872 3.15518 17.9657 3.53422C18.3448 3.91332 18.3448 4.52845 17.9657 4.90756L16.5005 6.37181ZM15 12.75C14.5858 12.75 14.25 13.0858 14.25 13.5C14.25 13.9142 14.5858 14.25 15 14.25H17C17.4142 14.25 17.75 13.9142 17.75 13.5C17.75 13.0858 17.4142 12.75 17 12.75H15ZM6.25 17.5C6.25 17.0858 6.58579 16.75 7 16.75H17C17.4142 16.75 17.75 17.0858 17.75 17.5C17.75 17.9142 17.4142 18.25 17 18.25H7C6.58579 18.25 6.25 17.9142 6.25 17.5ZM3.75 12.5C3.75 11.8092 4.30921 11.25 5 11.25C5.41421 11.25 5.75 10.9142 5.75 10.5C5.75 10.0858 5.41421 9.75 5 9.75C3.48079 9.75 2.25 10.9808 2.25 12.5V19.5C2.25 21.0192 3.48079 22.25 5 22.25H19C20.5192 22.25 21.75 21.0192 21.75 19.5V12.5C21.75 10.9808 20.5192 9.75 19 9.75C18.5858 9.75 18.25 10.0858 18.25 10.5C18.25 10.9142 18.5858 11.25 19 11.25C19.6908 11.25 20.25 11.8092 20.25 12.5V19.5C20.25 20.1908 19.6908 20.75 19 20.75H5C4.30921 20.75 3.75 20.1908 3.75 19.5V12.5Z" fill="white"/>
</svg>
