<svg width="24" height="24" viewBox="0 0 24 24" fill="none" xmlns="http://www.w3.org/2000/svg">
<g clip-path="url(#clip0_10_199)">
<mask id="mask0_10_199" style="mask-type:luminance" maskUnits="userSpaceOnUse" x="0" y="0" width="24" height="24">
<path d="M24 0H0V24H24V0Z" fill="white"/>
</mask>
<g mask="url(#mask0_10_199)">
<path d="M18.4 13.6C17.5 12.7 16.3 12.2 15 12.2H14.8V9.80001H15C15.4 9.80001 15.8 9.50001 15.8 9.00001V5.00001C15.8 4.60001 15.5 4.20001 15 4.20001H6.99995C6.59995 4.30001 6.19995 4.60001 6.19995 5.00001V8.20001H5.99995C5.59995 8.30001 5.19995 8.60001 5.19995 9.00001V12.2H4.99995C4.59995 12.2 4.19995 12.5 4.19995 13V17C4.19995 17.4 4.49995 17.8 4.99995 17.8H5.19995V21C5.19995 21.4 5.49995 21.8 5.99995 21.8H15C16.3 21.8 17.5 21.3 18.4 20.4C19.3 19.5 19.8 18.3 19.8 17C19.8 15.7 19.3 14.5 18.4 13.6ZM10.3 16.3H5.79995V13.8H11.6C10.9 14.4 10.5 15.3 10.3 16.3ZM7.79995 5.80001H14.3V8.30001H14H7.79995V5.80001ZM6.79995 9.80001H13.3V12.3H6.79995V9.80001ZM6.79995 17.8H10.4C10.5 18.7 11 19.6 11.6 20.3H6.79995V17.8ZM17.3 19.3C16.1 20.5 13.9 20.5 12.7 19.3C12.1 18.7 11.7 17.9 11.7 17C11.7 16.1 12 15.3 12.7 14.7C13.3 14.1 14.1 13.7 15 13.7C15.9 13.7 16.7 14 17.3 14.7C17.9 15.4 18.3 16.1 18.3 17C18.3 17.9 17.9 18.7 17.3 19.3Z" fill="white"/>
</g>
</g>
<defs>
<clipPath id="clip0_10_199">
<rect width="24" height="24" fill="white"/>
</clipPath>
</defs>
</svg>
