<svg width="24" height="24" viewBox="0 0 24 24" fill="none" xmlns="http://www.w3.org/2000/svg">
<path d="M5.96967 1.96967C6.26256 1.67678 6.73744 1.67678 7.03033 1.96967L8.53023 3.46957C8.60214 3.54148 8.65649 3.62445 8.69309 3.71291C8.72976 3.80134 8.75 3.89831 8.75 4C8.75 4.10169 8.72976 4.19866 8.69309 4.28709C8.65649 4.37555 8.60224 4.45842 8.53033 4.53033L7.03033 6.03033C6.73744 6.32322 6.26256 6.32322 5.96967 6.03033C5.67678 5.73744 5.67678 5.26256 5.96967 4.96967L6.18934 4.75H6C4.75721 4.75 3.75 5.75721 3.75 7C3.75 7.41421 3.41421 7.75 3 7.75C2.58579 7.75 2.25 7.41421 2.25 7C2.25 4.92879 3.92879 3.25 6 3.25H6.18934L5.96967 3.03033C5.67678 2.73744 5.67678 2.26256 5.96967 1.96967ZM18.0303 19.0303C18.3232 18.7374 18.3232 18.2626 18.0303 17.9697C17.7374 17.6768 17.2626 17.6768 16.9697 17.9697L15.4697 19.4697C15.3978 19.5416 15.3435 19.6245 15.3069 19.7129C15.2702 19.8013 15.25 19.8983 15.25 20C15.25 20.012 15.2503 20.024 15.2509 20.036C15.2594 20.2158 15.3324 20.393 15.4697 20.5303L16.9697 22.0303C17.2626 22.3232 17.7374 22.3232 18.0303 22.0303C18.3232 21.7374 18.3232 21.2626 18.0303 20.9697L17.8107 20.75H18C20.0712 20.75 21.75 19.0712 21.75 17C21.75 16.5858 21.4142 16.25 21 16.25C20.5858 16.25 20.25 16.5858 20.25 17C20.25 18.2428 19.2428 19.25 18 19.25H17.8107L18.0303 19.0303ZM9.5 8.25C6.06079 8.25 3.25 11.0608 3.25 14.5C3.25 15.9059 3.7256 17.2016 4.51083 18.2431C5.6493 19.7574 7.46006 20.75 9.5 20.75C12.9392 20.75 15.75 17.9392 15.75 14.5C15.75 11.0608 12.9392 8.25 9.5 8.25ZM4.75 14.5C4.75 11.8892 6.88921 9.75 9.5 9.75C12.1108 9.75 14.25 11.8892 14.25 14.5C14.25 17.1108 12.1108 19.25 9.5 19.25C7.95815 19.25 6.58107 18.5008 5.70952 17.3414L5.70883 17.3404C5.10826 16.544 4.75 15.5619 4.75 14.5ZM18.9176 5.07904C18.9182 5.07961 18.9188 5.08018 18.9193 5.08075C21.3512 7.51265 21.3512 11.4875 18.9193 13.9194C18.7055 14.1332 18.4793 14.3044 18.2864 14.4463C17.9527 14.6917 17.4832 14.6201 17.2378 14.2864C16.9924 13.9528 17.064 13.4833 17.3976 13.2379C17.5827 13.1018 17.7305 12.9869 17.8587 12.8588C19.7048 11.0126 19.7048 7.98752 17.8587 6.14141C16.0126 4.29531 12.9874 4.29531 11.1413 6.14142C11.0095 6.27328 10.889 6.424 10.7503 6.60666C10.4998 6.93654 10.0293 7.00089 9.69943 6.75039C9.36955 6.49989 9.30519 6.0294 9.55569 5.69952C9.70099 5.50817 9.87254 5.28889 10.0807 5.08076C12.512 2.64943 16.4856 2.64887 18.9176 5.07904Z" fill="white"/>
</svg>
