<svg width="24" height="24" viewBox="0 0 24 24" fill="none" xmlns="http://www.w3.org/2000/svg">
<path d="M6.53033 1.46967C6.23744 1.17678 5.76256 1.17678 5.46967 1.46967C5.17678 1.76256 5.17678 2.23744 5.46967 2.53033L6.18934 3.25H6C3.37679 3.25 1.25 5.37679 1.25 8C1.25 8.41421 1.58579 8.75 2 8.75C2.41421 8.75 2.75 8.41421 2.75 8C2.75 6.20521 4.20521 4.75 6 4.75H6.18934L5.46967 5.46967C5.17678 5.76256 5.17678 6.23744 5.46967 6.53033C5.76256 6.82322 6.23744 6.82322 6.53033 6.53033L8.53033 4.53033C8.60224 4.45842 8.65649 4.37555 8.69309 4.28709C8.72976 4.19866 8.75 4.10169 8.75 4C8.75 3.89831 8.72976 3.80134 8.69309 3.71291C8.65649 3.62445 8.60224 3.54158 8.53033 3.46967L6.53033 1.46967ZM11.1413 6.14124C10.5312 6.75134 10.1217 7.48613 9.91295 8.26357C11.3722 8.3596 12.8041 8.96527 13.9194 10.0806C15.0347 11.1959 15.6404 12.6279 15.7364 14.0871C16.5139 13.8783 17.2487 13.4689 17.8588 12.8588C19.7138 11.0038 19.7138 7.99623 17.8588 6.14124C16.0038 4.28625 12.9963 4.28625 11.1413 6.14124ZM8.35518 8.35515C8.57757 7.15555 9.15271 6.00848 10.0806 5.08058C12.5214 2.63981 16.4787 2.63981 18.9194 5.08058C21.3602 7.52135 21.3602 11.4786 18.9194 13.9194C17.9915 14.8473 16.8445 15.4225 15.6449 15.6448C15.4225 16.8444 14.8473 17.9915 13.9194 18.9194C11.4787 21.3602 7.52138 21.3602 5.08061 18.9194C2.63984 16.4786 2.63984 12.5214 5.08061 10.0806C6.00851 9.15268 7.15558 8.57754 8.35518 8.35515ZM14.0871 15.7364C12.6279 15.6404 11.1959 15.0347 10.0806 13.9194C8.9653 12.8041 8.35963 11.3721 8.2636 9.91292C7.48616 10.1217 6.75138 10.5311 6.14127 11.1412C4.28628 12.9962 4.28628 16.0038 6.14127 17.8588C7.99626 19.7137 11.0038 19.7137 12.8588 17.8588C13.4689 17.2486 13.8783 16.5139 14.0871 15.7364ZM14.2431 14.2431C14.1824 13.1145 13.7209 12.0034 12.8588 11.1412C11.9967 10.2791 10.8856 9.81767 9.75694 9.75691C9.8177 10.8855 10.2791 11.9966 11.1413 12.8588C12.0034 13.7209 13.1145 14.1823 14.2431 14.2431ZM22 15.25C22.4142 15.25 22.75 15.5858 22.75 16C22.75 18.6232 20.6232 20.75 18 20.75H17.8107L18.5303 21.4697C18.8232 21.7626 18.8232 22.2374 18.5303 22.5303C18.2374 22.8232 17.7626 22.8232 17.4697 22.5303L15.4697 20.5303C15.3978 20.4584 15.3435 20.3755 15.3069 20.2871C15.2749 20.2099 15.2554 20.1262 15.251 20.0386C15.2503 20.0258 15.25 20.0129 15.25 20C15.25 19.8983 15.2702 19.8013 15.3069 19.7129C15.3435 19.6245 15.3978 19.5416 15.4697 19.4697L17.4697 17.4697C17.7626 17.1768 18.2374 17.1768 18.5303 17.4697C18.8232 17.7626 18.8232 18.2374 18.5303 18.5303L17.8107 19.25H18C19.7948 19.25 21.25 17.7948 21.25 16C21.25 15.5858 21.5858 15.25 22 15.25Z" fill="white"/>
</svg>
