<svg width="24" height="24" viewBox="0 0 24 24" fill="none" xmlns="http://www.w3.org/2000/svg">
<g clip-path="url(#clip0_7_2256)">
<mask id="mask0_7_2256" style="mask-type:luminance" maskUnits="userSpaceOnUse" x="0" y="0" width="24" height="24">
<path d="M24 0H0V24H24V0Z" fill="white"/>
</mask>
<g mask="url(#mask0_7_2256)">
<path d="M20.55 15.05C20.14 15.05 19.8 15.39 19.8 15.8C19.8 17.57 18.4 19.01 16.65 19.1C16.88 18.81 16.87 18.39 16.6 18.12C16.31 17.83 15.83 17.83 15.54 18.12L14.32 19.34C14.25 19.41 14.19 19.49 14.16 19.58C14.13 19.65 14.12 19.73 14.11 19.8C14.11 19.82 14.1 19.84 14.1 19.86C14.1 19.96 14.12 20.06 14.16 20.15C14.18 20.2 14.21 20.23 14.24 20.27C14.27 20.31 14.28 20.35 14.32 20.39L15.54 21.61C15.69 21.76 15.88 21.83 16.07 21.83C16.26 21.83 16.45 21.76 16.6 21.61C16.88 21.33 16.88 20.89 16.63 20.59C19.22 20.51 21.3 18.39 21.3 15.78C21.3 15.39 20.96 15.05 20.55 15.05Z" fill="white"/>
<path d="M3.45001 8.9501C3.86001 8.9501 4.20001 8.6101 4.20001 8.2001C4.20001 6.4301 5.60001 4.9901 7.35001 4.9001C7.12001 5.1901 7.13001 5.6101 7.40001 5.8801C7.55001 6.0301 7.74001 6.1001 7.93001 6.1001C8.12001 6.1001 8.31001 6.0301 8.46001 5.8801L9.68001 4.6601C9.75001 4.5901 9.80001 4.5101 9.84001 4.4201C9.92001 4.2401 9.92001 4.0301 9.84001 3.8501C9.81001 3.7701 9.76001 3.7001 9.71001 3.6401C9.70001 3.6301 9.69001 3.6101 9.68001 3.6001L8.46001 2.3801C8.17001 2.0901 7.69001 2.0901 7.40001 2.3801C7.12001 2.6601 7.11001 3.1001 7.37001 3.3901C4.78001 3.4801 2.70001 5.5901 2.70001 8.2001C2.70001 8.6101 3.04001 8.9501 3.45001 8.9501Z" fill="white"/>
<path d="M22.75 7.26C22.75 4.22 20.28 1.75 17.24 1.75C14.2 1.75 11.73 4.22 11.73 7.26C11.73 8.45 12.11 9.6 12.84 10.56C13.88 11.94 15.53 12.77 17.24 12.77C20.28 12.77 22.75 10.3 22.75 7.26ZM14.04 9.66C13.51 8.96 13.23 8.13 13.23 7.26C13.23 5.05 15.03 3.25 17.24 3.25C19.45 3.25 21.25 5.05 21.25 7.26C21.25 9.47 19.45 11.27 17.24 11.27C15.98 11.27 14.81 10.68 14.04 9.66Z" fill="white"/>
<path d="M17.99 10.1199C18.8 9.9699 19.42 9.2599 19.42 8.3999C19.42 7.5999 18.88 6.8999 18.09 6.6999L16.75 6.3599C16.64 6.3299 16.56 6.2299 16.56 6.1099C16.56 5.9699 16.67 5.8599 16.81 5.8599H17.58C17.7 5.8599 17.78 5.9399 17.82 6.0099C18.04 6.3599 18.5 6.4799 18.85 6.2599C19.2 6.0399 19.31 5.5799 19.1 5.2299C18.84 4.8099 18.43 4.5199 17.98 4.4099V4.3999C17.98 3.9899 17.64 3.6499 17.23 3.6499C16.82 3.6499 16.48 3.9799 16.48 4.3999C15.67 4.5499 15.05 5.2599 15.05 6.1199C15.05 6.9199 15.6 7.6199 16.38 7.8199L17.72 8.1599C17.83 8.1899 17.91 8.2899 17.91 8.4099C17.91 8.5499 17.8 8.6599 17.66 8.6599H16.87C16.75 8.6599 16.67 8.5799 16.63 8.5099C16.41 8.1599 15.95 8.0399 15.6 8.2599C15.25 8.4799 15.13 8.9399 15.35 9.2899C15.61 9.7199 16.02 9.9999 16.48 10.1099V10.1199C16.48 10.5299 16.82 10.8699 17.23 10.8699C17.65 10.8699 17.99 10.5299 17.99 10.1199Z" fill="white"/>
<path d="M6.75 11.24C5.28 11.24 3.9 11.81 2.86 12.85C1.82 13.89 1.25 15.27 1.25 16.74C1.25 18.21 1.82 19.59 2.86 20.63C3.9 21.67 5.28 22.24 6.75 22.24C8.22 22.24 9.6 21.67 10.64 20.63C12.78 18.49 12.78 15 10.64 12.85C9.6 11.81 8.22 11.24 6.75 11.24ZM9.58 19.57C8.07 21.08 5.43 21.08 3.92 19.57C3.16 18.81 2.75 17.81 2.75 16.74C2.75 15.67 3.17 14.67 3.92 13.91C4.7 13.13 5.72 12.74 6.75 12.74C7.78 12.74 8.8 13.13 9.58 13.91C11.14 15.47 11.14 18.01 9.58 19.57Z" fill="white"/>
<path d="M7.62999 15.2599C8.00999 15.4199 8.44999 15.2499 8.61999 14.8699C8.78999 14.4899 8.60999 14.0499 8.22999 13.8799C7.04999 13.3699 5.69999 13.6199 4.78999 14.5199C4.35999 14.9499 4.09999 15.4699 3.96999 16.0199C3.64999 16.0999 3.39999 16.3799 3.39999 16.7299C3.39999 17.0799 3.63999 17.3599 3.96999 17.4399C4.09999 17.9899 4.36999 18.5099 4.78999 18.9399C5.37999 19.5299 6.16999 19.8499 6.96999 19.8499C7.38999 19.8499 7.81999 19.7599 8.21999 19.5899C8.59999 19.4199 8.76999 18.9799 8.60999 18.5999C8.44999 18.2199 7.99999 18.0499 7.61999 18.2099C7.00999 18.4799 6.29999 18.3499 5.83999 17.8799C5.71999 17.7599 5.62999 17.6199 5.55999 17.4799H6.98999C7.39999 17.4799 7.73999 17.1399 7.73999 16.7299C7.73999 16.3199 7.39999 15.9799 6.98999 15.9799H5.55999C5.62999 15.8399 5.71999 15.6999 5.83999 15.5799C6.30999 15.1199 7.00999 14.9899 7.62999 15.2599Z" fill="white"/>
</g>
</g>
<defs>
<clipPath id="clip0_7_2256">
<rect width="24" height="24" fill="white"/>
</clipPath>
</defs>
</svg>
