<svg width="24" height="24" viewBox="0 0 24 24" fill="none" xmlns="http://www.w3.org/2000/svg">
<path d="M3.74385 11.9045C3.79519 7.39235 7.46483 3.75 11.9889 3.75C12.4031 3.75 12.7389 3.41421 12.7389 3C12.7389 2.58579 12.4031 2.25 11.9889 2.25C6.64097 2.25 2.30461 6.55565 2.24395 11.8875C2.23924 12.3017 2.57118 12.6412 2.98537 12.646C3.39955 12.6507 3.73914 12.3187 3.74385 11.9045ZM14.9807 3.48463C15.1505 3.10678 15.5943 2.93806 15.9722 3.10778C17.5583 3.82022 18.9196 4.9414 19.9197 6.3407L19.8888 5.69695C19.8688 5.28322 20.1881 4.93168 20.6018 4.91177C21.0156 4.89186 21.3671 5.21112 21.387 5.62486L21.52 8.38886C21.5308 8.61301 21.4407 8.83022 21.2743 8.98085C21.108 9.13148 20.8829 9.1997 20.6609 9.1668L20.1018 9.08391L20.0894 9.08209L18.1379 8.7928C17.7282 8.73206 17.4453 8.35067 17.506 7.94093C17.5667 7.53119 17.9481 7.24827 18.3579 7.30901L18.8134 7.37653C17.958 6.1165 16.7621 5.10696 15.3576 4.47608C14.9797 4.30636 14.811 3.86247 14.9807 3.48463ZM21.7558 12.1125C21.7606 11.6984 21.4286 11.3588 21.0144 11.3541C20.6002 11.3493 20.2606 11.6813 20.2559 12.0955C20.2046 16.6077 16.535 20.25 12.0109 20.25C11.5967 20.25 11.2609 20.5858 11.2609 21C11.2609 21.4142 11.5967 21.75 12.0109 21.75C17.3588 21.75 21.6952 17.4444 21.7558 12.1125ZM2.72548 15.019C2.89183 14.8684 3.11689 14.8002 3.33888 14.8331L3.89365 14.9153C3.90069 14.9162 3.9077 14.9173 3.9147 14.9184L5.86188 15.2071C6.27161 15.2678 6.55453 15.6492 6.49379 16.0589C6.43305 16.4687 6.05166 16.7516 5.64192 16.6909L5.18647 16.6233C6.04178 17.8833 7.23772 18.8929 8.6422 19.5237C9.02005 19.6934 9.18877 20.1373 9.01905 20.5152C8.84933 20.893 8.40543 21.0618 8.02759 20.892C6.44152 20.1796 5.08021 19.0584 4.08005 17.6591L4.11103 18.3029C4.13094 18.7166 3.81168 19.0682 3.39795 19.0881C2.98421 19.108 2.63268 18.7887 2.61277 18.375L2.47977 15.611C2.46898 15.3869 2.55914 15.1696 2.72548 15.019ZM11.9949 7.68408C12.4091 7.68408 12.7449 8.01987 12.7449 8.43408V11.25H15.5679C15.9821 11.25 16.3179 11.5858 16.3179 12C16.3179 12.4142 15.9821 12.75 15.5679 12.75H12.7449V15.5661C12.7449 15.9803 12.4091 16.3161 11.9949 16.3161C11.5807 16.3161 11.2449 15.9803 11.2449 15.5661V12.75H8.4319C8.01769 12.75 7.6819 12.4142 7.6819 12C7.6819 11.5858 8.01769 11.25 8.4319 11.25H11.2449V8.43408C11.2449 8.01987 11.5807 7.68408 11.9949 7.68408Z" fill="white"/>
</svg>
