<svg width="24" height="24" viewBox="0 0 24 24" fill="none" xmlns="http://www.w3.org/2000/svg">
<path d="M11.321 3.143C11.321 2.92564 11.4968 2.75 11.714 2.75H20.857C21.0748 2.75 21.25 2.92521 21.25 3.143V8.857C21.25 9.07479 21.0748 9.25 20.857 9.25H11.714C11.4968 9.25 11.321 9.07436 11.321 8.857V3.143ZM11.714 1.25C10.6692 1.25 9.82101 2.09636 9.82101 3.143V8.857C9.82101 9.90364 10.6692 10.75 11.714 10.75H20.857C21.9032 10.75 22.75 9.90321 22.75 8.857V3.143C22.75 2.09679 21.9032 1.25 20.857 1.25H11.714ZM2.75 15.143C2.75 14.9252 2.92521 14.75 3.143 14.75H12.286C12.5032 14.75 12.679 14.9256 12.679 15.143V20.857C12.679 21.0744 12.5032 21.25 12.286 21.25H3.143C2.92521 21.25 2.75 21.0748 2.75 20.857V15.143ZM3.143 13.25C2.09679 13.25 1.25 14.0968 1.25 15.143V20.857C1.25 21.9032 2.09679 22.75 3.143 22.75H12.286C13.3308 22.75 14.179 21.9036 14.179 20.857V15.143C14.179 14.0964 13.3308 13.25 12.286 13.25H3.143ZM12.857 4C13.2712 4 13.607 4.33579 13.607 4.75V7.25C13.607 7.66421 13.2712 8 12.857 8C12.4428 8 12.107 7.66421 12.107 7.25V4.75C12.107 4.33579 12.4428 4 12.857 4ZM20.464 4.75C20.464 4.33579 20.1282 4 19.714 4C19.2998 4 18.964 4.33579 18.964 4.75V7.25C18.964 7.66421 19.2998 8 19.714 8C20.1282 8 20.464 7.66421 20.464 7.25V4.75ZM1.96967 7.96967C2.26256 7.67678 2.73744 7.67678 3.03033 7.96967L3.25 8.18934V8C3.25 5.92879 4.92879 4.25 7 4.25C7.41421 4.25 7.75 4.58579 7.75 5C7.75 5.41421 7.41421 5.75 7 5.75C5.75721 5.75 4.75 6.75721 4.75 8V8.18934L4.96967 7.96967C5.26256 7.67678 5.73744 7.67678 6.03033 7.96967C6.32322 8.26256 6.32322 8.73744 6.03033 9.03033L4.53033 10.5303C4.38388 10.6768 4.19194 10.75 4 10.75C3.89831 10.75 3.80134 10.7298 3.71291 10.6931C3.62445 10.6565 3.54158 10.6022 3.46967 10.5303L1.96967 9.03033C1.67678 8.73744 1.67678 8.26256 1.96967 7.96967ZM20.2871 13.3069C20.3755 13.3435 20.4584 13.3978 20.5303 13.4697L22.0303 14.9697C22.3232 15.2626 22.3232 15.7374 22.0303 16.0303C21.7374 16.3232 21.2626 16.3232 20.9697 16.0303L20.75 15.8107V16C20.75 18.0712 19.0712 19.75 17 19.75C16.5858 19.75 16.25 19.4142 16.25 19C16.25 18.5858 16.5858 18.25 17 18.25C18.2428 18.25 19.25 17.2428 19.25 16V15.8107L19.0303 16.0303C18.7374 16.3232 18.2626 16.3232 17.9697 16.0303C17.6768 15.7374 17.6768 15.2626 17.9697 14.9697L19.4697 13.4697C19.607 13.3324 19.7842 13.2594 19.964 13.2509C19.976 13.2503 19.988 13.25 20 13.25C20.1017 13.25 20.1987 13.2702 20.2871 13.3069ZM10.2 16.5C10.2 16.0581 10.5582 15.7 11 15.7C11.4418 15.7 11.8 16.0581 11.8 16.5C11.8 16.9418 11.4418 17.2999 11 17.2999C10.5582 17.2999 10.2 16.9418 10.2 16.5ZM4.429 18.7C3.98718 18.7 3.629 19.0581 3.629 19.5C3.629 19.9418 3.98718 20.2999 4.429 20.2999C4.87081 20.2999 5.229 19.9418 5.229 19.5C5.229 19.0581 4.87081 18.7 4.429 18.7ZM7.71399 17.5C7.43785 17.5 7.21399 17.7239 7.21399 18C7.21399 18.2761 7.43785 18.5 7.71399 18.5C7.99013 18.5 8.21399 18.2761 8.21399 18C8.21399 17.7239 7.99013 17.5 7.71399 17.5ZM5.71399 18C5.71399 16.8954 6.60942 16 7.71399 16C8.81856 16 9.71399 16.8954 9.71399 18C9.71399 19.1046 8.81856 20 7.71399 20C6.60942 20 5.71399 19.1046 5.71399 18ZM15.786 6C15.786 5.72386 16.0099 5.5 16.286 5.5C16.5622 5.5 16.786 5.72386 16.786 6C16.786 6.27614 16.5622 6.5 16.286 6.5C16.0099 6.5 15.786 6.27614 15.786 6ZM16.286 4C15.1814 4 14.286 4.89543 14.286 6C14.286 7.10457 15.1814 8 16.286 8C17.3906 8 18.286 7.10457 18.286 6C18.286 4.89543 17.3906 4 16.286 4Z" fill="white"/>
</svg>
