<svg width="24" height="24" viewBox="0 0 24 24" fill="none" xmlns="http://www.w3.org/2000/svg">
<g clip-path="url(#clip0_7_2289)">
<mask id="mask0_7_2289" style="mask-type:luminance" maskUnits="userSpaceOnUse" x="0" y="0" width="24" height="24">
<path d="M24 0H0V24H24V0Z" fill="white"/>
</mask>
<g mask="url(#mask0_7_2289)">
<path d="M11.69 17.71C11.65 17.62 11.6 17.54 11.53 17.47L9.53 15.47C9.24 15.18 8.76 15.18 8.47 15.47C8.18 15.76 8.18 16.24 8.47 16.53L9.19 17.25H6C5.31 17.25 4.75 16.69 4.75 16V13C4.75 12.59 4.41 12.25 4 12.25C3.59 12.25 3.25 12.59 3.25 13V16C3.25 17.52 4.48 18.75 6 18.75H9.19L8.47 19.47C8.18 19.76 8.18 20.24 8.47 20.53C8.62 20.68 8.81 20.75 9 20.75C9.19 20.75 9.38 20.68 9.53 20.53L11.53 18.53C11.6 18.46 11.65 18.38 11.69 18.29C11.77 18.1 11.77 17.9 11.69 17.71Z" fill="white"/>
<path d="M14.47 8.52994C14.62 8.67994 14.81 8.74994 15 8.74994C15.19 8.74994 15.38 8.67994 15.53 8.52994C15.82 8.23994 15.82 7.75994 15.53 7.46994L14.81 6.74994H18C18.69 6.74994 19.25 7.30994 19.25 7.99994V10.9999C19.25 11.4099 19.59 11.7499 20 11.7499C20.41 11.7499 20.75 11.4099 20.75 10.9999V7.99994C20.75 6.47994 19.52 5.24994 18 5.24994H14.81L15.53 4.52994C15.82 4.23994 15.82 3.75994 15.53 3.46994C15.24 3.17994 14.76 3.17994 14.47 3.46994L12.47 5.46994C12.4 5.53994 12.35 5.61994 12.31 5.70994C12.23 5.88994 12.23 6.09994 12.31 6.27994C12.35 6.36994 12.4 6.44994 12.47 6.51994L14.47 8.52994Z" fill="white"/>
<path d="M8 10.75C9.52 10.75 10.75 9.52 10.75 8V5C10.75 3.48 9.52 2.25 8 2.25H5C3.48 2.25 2.25 3.48 2.25 5V8C2.25 9.52 3.48 10.75 5 10.75H8ZM3.75 8V5C3.75 4.31 4.31 3.75 5 3.75H8C8.69 3.75 9.25 4.31 9.25 5V8C9.25 8.69 8.69 9.25 8 9.25H5C4.31 9.25 3.75 8.69 3.75 8Z" fill="white"/>
<path d="M19 13.25H16C14.48 13.25 13.25 14.48 13.25 16V19C13.25 20.52 14.48 21.75 16 21.75H19C20.52 21.75 21.75 20.52 21.75 19V16C21.75 14.48 20.52 13.25 19 13.25ZM20.25 19C20.25 19.69 19.69 20.25 19 20.25H16C15.31 20.25 14.75 19.69 14.75 19V16C14.75 15.31 15.31 14.75 16 14.75H19C19.69 14.75 20.25 15.31 20.25 16V19Z" fill="white"/>
</g>
</g>
<defs>
<clipPath id="clip0_7_2289">
<rect width="24" height="24" fill="white"/>
</clipPath>
</defs>
</svg>
