<svg width="24" height="24" viewBox="0 0 24 24" fill="none" xmlns="http://www.w3.org/2000/svg">
<path fill-rule="evenodd" clip-rule="evenodd" d="M17 2.75C14.3762 2.75 12.25 4.87621 12.25 7.5C12.25 10.1238 14.3762 12.25 17 12.25C19.6238 12.25 21.75 10.1238 21.75 7.5C21.75 4.8763 19.6229 2.75 17 2.75ZM10.75 7.5C10.75 4.04779 13.5478 1.25 17 1.25C20.4511 1.25 23.25 4.0477 23.25 7.5C23.25 10.9522 20.4522 13.75 17 13.75C13.5478 13.75 10.75 10.9522 10.75 7.5ZM8.45956 2.37711C8.16679 2.0841 7.69192 2.08391 7.3989 2.37668C7.12371 2.65165 7.1068 3.08724 7.3483 3.38194C4.76606 3.4729 2.70001 5.5955 2.70001 8.19991C2.70001 8.61412 3.0358 8.94991 3.45001 8.94991C3.86423 8.94991 4.20001 8.61412 4.20001 8.19991C4.20001 6.42627 5.59126 4.97685 7.34171 4.88367C7.10722 5.1781 7.12621 5.60808 7.39869 5.88056C7.69158 6.17345 8.16645 6.17345 8.45935 5.88056L9.68035 4.65956C9.79015 4.54975 9.85879 4.41437 9.88626 4.27259C9.89545 4.22517 9.90004 4.17704 9.90002 4.12891L9.89998 4.12222C9.89814 3.91128 9.80921 3.72112 9.6674 3.58594L8.45956 2.37711ZM7 10.25C3.5607 10.25 0.75 13.0609 0.75 16.501C0.75 17.9073 1.22584 19.2018 2.00963 20.2438C3.14979 21.7565 4.96071 22.75 7 22.75C10.4389 22.75 13.251 19.9395 13.251 16.501C13.251 13.0629 10.4393 10.25 7 10.25ZM2.25 16.501C2.25 13.8891 4.3893 11.75 7 11.75C9.6107 11.75 11.751 13.8911 11.751 16.501C11.751 19.1105 9.61105 21.25 7 21.25C5.45943 21.25 4.08201 20.501 3.20815 19.3419C2.60808 18.544 2.25 17.5626 2.25 16.501ZM21.3 15.7998C21.3 15.3856 20.9642 15.0498 20.55 15.0498C20.1358 15.0498 19.8 15.3856 19.8 15.7998C19.8 17.573 18.4093 19.0222 16.6594 19.116C16.8927 18.8216 16.8733 18.3926 16.6013 18.1205C16.3084 17.8277 15.8335 17.8277 15.5406 18.1206L14.3441 19.3171C14.1941 19.4542 14.1 19.6515 14.1 19.8708C14.1 19.8707 14.1 19.871 14.1 19.8708C14.0998 20.063 14.1731 20.2556 14.3196 20.4022L15.5406 21.6232C15.8335 21.9161 16.3084 21.9161 16.6013 21.6232C16.8764 21.3481 16.8931 20.9124 16.6514 20.6178C19.2338 20.527 21.3 18.4043 21.3 15.7998Z" fill="white"/>
</svg>
