<svg width="24" height="24" viewBox="0 0 24 24" fill="none" xmlns="http://www.w3.org/2000/svg">
<path d="M2.75 7C2.75 6.30921 3.30921 5.75 4 5.75H20C20.6908 5.75 21.25 6.30921 21.25 7V17C21.25 17.6908 20.6908 18.25 20 18.25H4C3.30921 18.25 2.75 17.6908 2.75 17V7ZM4 4.25C2.48079 4.25 1.25 5.48079 1.25 7V17C1.25 18.5192 2.48079 19.75 4 19.75H20C21.5192 19.75 22.75 18.5192 22.75 17V7C22.75 5.48079 21.5192 4.25 20 4.25H4ZM10.7626 10.7626C11.446 10.0791 12.5541 10.0791 13.2375 10.7626C13.9209 11.446 13.9209 12.554 13.2375 13.2374C12.5541 13.9209 11.446 13.9209 10.7626 13.2374C10.0792 12.554 10.0792 11.446 10.7626 10.7626ZM14.2982 9.7019C13.029 8.4327 10.9712 8.4327 9.70196 9.7019C8.43276 10.9711 8.43276 13.0289 9.70196 14.2981C10.9712 15.5673 13.0289 15.5673 14.2982 14.2981C15.5674 13.0289 15.5674 10.9711 14.2982 9.7019ZM6 8.75C6.41421 8.75 6.75 9.08579 6.75 9.5V14.5C6.75 14.9142 6.41421 15.25 6 15.25C5.58579 15.25 5.25 14.9142 5.25 14.5V9.5C5.25 9.08579 5.58579 8.75 6 8.75ZM18.75 9.5C18.75 9.08579 18.4142 8.75 18 8.75C17.5858 8.75 17.25 9.08579 17.25 9.5V14.5C17.25 14.9142 17.5858 15.25 18 15.25C18.4142 15.25 18.75 14.9142 18.75 14.5V9.5Z" fill="white"/>
</svg>
