<svg width="24" height="24" viewBox="0 0 24 24" fill="none" xmlns="http://www.w3.org/2000/svg">
<g clip-path="url(#clip0_7_2378)">
<mask id="mask0_7_2378" style="mask-type:luminance" maskUnits="userSpaceOnUse" x="0" y="0" width="24" height="24">
<path d="M24 0H0V24H24V0Z" fill="white"/>
</mask>
<g mask="url(#mask0_7_2378)">
<path d="M20 4.3H3.99995C2.49995 4.3 1.19995 5.5 1.19995 7V17C1.19995 18.5 2.39995 19.8 3.99995 19.8H20C21.5 19.8 22.7999 18.6 22.7999 17V7C22.7999 5.5 21.5 4.3 20 4.3ZM21.2 17C21.2 17.7 20.6 18.2 20 18.2H3.99995C3.29995 18.2 2.79995 17.6 2.79995 17V7C2.79995 6.3 3.39995 5.8 3.99995 5.8H20C20.7 5.8 21.2 6.4 21.2 7V17Z" fill="white"/>
<path d="M9.69995 9.7C9.09995 10.3 8.69995 11.1 8.69995 12C8.69995 12.9 8.99995 13.7 9.69995 14.3C10.3 14.9 11.1 15.3 12 15.3C12.9 15.3 13.7 15 14.3 14.3C14.9 13.7 15.3 12.9 15.3 12C15.3 11.1 15 10.3 14.3 9.7C13 8.4 11 8.4 9.69995 9.7ZM13.2 13.2C12.5 13.9 11.4 13.9 10.7 13.2C10.4 12.9 10.2 12.4 10.2 12C10.2 11.5 10.4 11.1 10.7 10.8C11 10.5 11.5 10.3 11.9 10.3C12.3 10.3 12.8 10.5 13.1 10.8C13.4 11.1 13.6 11.6 13.6 12C13.8 12.5 13.6 12.9 13.2 13.2Z" fill="white"/>
<path d="M18 10.9C17.4 10.9 16.9 11.4 16.9 12C16.9 12.3 17 12.6 17.2 12.8C17.4 13 17.7 13.1 18 13.1C18.6 13.1 19.1 12.6 19.1 12C19.1 11.4 18.6 10.9 18 10.9Z" fill="white"/>
<path d="M5.99995 10.9C5.39995 10.9 4.89995 11.4 4.89995 12C4.89995 12.3 4.99995 12.6 5.19995 12.8C5.39995 13 5.69995 13.1 5.99995 13.1C6.59995 13.1 7.09995 12.6 7.09995 12C7.09995 11.4 6.59995 10.9 5.99995 10.9Z" fill="white"/>
</g>
</g>
<defs>
<clipPath id="clip0_7_2378">
<rect width="24" height="24" fill="white"/>
</clipPath>
</defs>
</svg>
