<svg width="24" height="24" viewBox="0 0 24 24" fill="none" xmlns="http://www.w3.org/2000/svg">
<path d="M2.75 7.33301C2.75 6.64222 3.30921 6.08301 4 6.08301H20C20.6908 6.08301 21.25 6.64222 21.25 7.33301V16.666C21.25 17.3573 20.6903 17.917 20 17.917H4C3.30921 17.917 2.75 17.3578 2.75 16.667V7.33301ZM4 4.58301C2.48079 4.58301 1.25 5.81379 1.25 7.33301V16.667C1.25 18.1862 2.48079 19.417 4 19.417H20C21.5197 19.417 22.75 18.1847 22.75 16.666V7.33301C22.75 5.81379 21.5192 4.58301 20 4.58301H4ZM10.7626 10.7626C11.446 10.0791 12.5541 10.0791 13.2375 10.7626C13.9209 11.446 13.9209 12.554 13.2375 13.2374C12.5541 13.9209 11.446 13.9209 10.7626 13.2374C10.0792 12.554 10.0792 11.446 10.7626 10.7626ZM14.2982 9.7019C13.029 8.4327 10.9712 8.4327 9.70196 9.7019C8.43276 10.9711 8.43276 13.0289 9.70196 14.2981C10.9712 15.5673 13.0289 15.5673 14.2982 14.2981C15.5674 13.0289 15.5674 10.9711 14.2982 9.7019ZM19 13.25C19.4142 13.25 19.75 13.5858 19.75 14C19.75 15.5192 18.5192 16.75 17 16.75C16.5858 16.75 16.25 16.4142 16.25 16C16.25 15.5858 16.5858 15.25 17 15.25C17.6908 15.25 18.25 14.6908 18.25 14C18.25 13.5858 18.5858 13.25 19 13.25ZM17 7.25C16.5858 7.25 16.25 7.58579 16.25 8C16.25 8.41421 16.5858 8.75 17 8.75C17.6908 8.75 18.25 9.30921 18.25 10C18.25 10.4142 18.5858 10.75 19 10.75C19.4142 10.75 19.75 10.4142 19.75 10C19.75 8.48079 18.5192 7.25 17 7.25ZM4.25 10C4.25 8.48079 5.48079 7.25 7 7.25C7.41421 7.25 7.75 7.58579 7.75 8C7.75 8.41421 7.41421 8.75 7 8.75C6.30921 8.75 5.75 9.30921 5.75 10C5.75 10.4142 5.41421 10.75 5 10.75C4.58579 10.75 4.25 10.4142 4.25 10ZM5.75 14C5.75 13.5858 5.41421 13.25 5 13.25C4.58579 13.25 4.25 13.5858 4.25 14C4.25 15.5192 5.48079 16.75 7 16.75C7.41421 16.75 7.75 16.4142 7.75 16C7.75 15.5858 7.41421 15.25 7 15.25C6.30921 15.25 5.75 14.6908 5.75 14Z" fill="white"/>
</svg>
