<svg width="24" height="24" viewBox="0 0 24 24" fill="none" xmlns="http://www.w3.org/2000/svg">
<path d="M4.5 4.25C4.08621 4.25 3.75 4.58621 3.75 5C3.75 5.41379 4.08621 5.75 4.5 5.75H18C19.5192 5.75 20.75 6.98079 20.75 8.5V10.9185C21.3411 11.1995 21.75 11.8022 21.75 12.5V14.5C21.75 15.1978 21.3411 15.8005 20.75 16.0815V18.5C20.75 20.0192 19.5192 21.25 18 21.25H5C3.48079 21.25 2.25 20.0192 2.25 18.5V5C2.25 3.75779 3.25779 2.75 4.5 2.75H17C17.4142 2.75 17.75 3.08579 17.75 3.5C17.75 3.91421 17.4142 4.25 17 4.25H4.5ZM3.75 7.12187V18.5C3.75 19.1908 4.30921 19.75 5 19.75H18C18.6908 19.75 19.25 19.1908 19.25 18.5V16.25H18C16.4808 16.25 15.25 15.0192 15.25 13.5C15.25 11.9808 16.4808 10.75 18 10.75H19.25V8.5C19.25 7.80921 18.6908 7.25 18 7.25H4.5C4.23705 7.25 3.98461 7.20484 3.75 7.12187ZM20 14.75C20.1378 14.75 20.25 14.6378 20.25 14.5V12.5C20.25 12.3622 20.1378 12.25 20 12.25H18C17.3092 12.25 16.75 12.8092 16.75 13.5C16.75 14.1908 17.3092 14.75 18 14.75H20Z" fill="white"/>
</svg>
