<svg width="24" height="24" viewBox="0 0 24 24" fill="none" xmlns="http://www.w3.org/2000/svg">
<path d="M6.2792 6.1122C4.24027 8.15113 4.24027 11.4569 6.2792 13.4958C8.28529 15.5019 11.5177 15.5342 13.5633 13.5927C13.5817 13.5696 13.6017 13.5474 13.6233 13.5261C13.6456 13.5041 13.669 13.4837 13.6933 13.465C15.7016 11.4238 15.6915 8.1409 13.6628 6.1122C11.6238 4.07328 8.31812 4.07328 6.2792 6.1122ZM14.1171 15.0946C11.4796 17.1669 7.64957 16.9875 5.21854 14.5565C2.59382 11.9318 2.59382 7.67626 5.21854 5.05154C7.84325 2.42683 12.0987 2.42683 14.7234 5.05154C17.1833 7.51137 17.3378 11.4035 15.187 14.0433L20.5339 19.4633C20.8248 19.7582 20.8216 20.2331 20.5267 20.524C20.2318 20.8149 19.757 20.8116 19.4661 20.5168L14.1171 15.0946ZM7.25003 10C7.25003 9.58579 7.58582 9.25 8.00003 9.25H9.25003V8C9.25003 7.58579 9.58582 7.25 10 7.25C10.4142 7.25 10.75 7.58579 10.75 8V9.25H12C12.4142 9.25 12.75 9.58579 12.75 10C12.75 10.4142 12.4142 10.75 12 10.75H10.75V12C10.75 12.4142 10.4142 12.75 10 12.75C9.58582 12.75 9.25003 12.4142 9.25003 12V10.75H8.00003C7.58582 10.75 7.25003 10.4142 7.25003 10Z" fill="white"/>
</svg>
