<svg width="24" height="24" viewBox="0 0 24 24" fill="none" xmlns="http://www.w3.org/2000/svg">
<path d="M18.6521 8.1058C20.4441 9.89775 20.4597 12.7934 18.6991 14.6046C18.6821 14.6188 18.6656 14.6339 18.6497 14.6498C18.6337 14.6658 18.6186 14.6823 18.6044 14.6992C16.7932 16.4598 13.8977 16.4441 12.1057 14.6522C10.298 12.8445 10.298 9.91355 12.1057 8.1058C13.9135 6.29807 16.8444 6.29806 18.6521 8.1058ZM11.0451 15.7129C13.2591 17.9268 16.7454 18.0929 19.1503 16.2111L21.4697 18.5305C21.7626 18.8234 22.2374 18.8234 22.5303 18.5305C22.8232 18.2376 22.8232 17.7627 22.5303 17.4698L20.211 15.1505C22.0929 12.7456 21.9268 9.25915 19.7128 7.04514C17.3193 4.65162 13.4386 4.65162 11.0451 7.04514C8.65156 9.43868 8.65156 13.3193 11.0451 15.7129ZM3 6.25C2.58579 6.25 2.25 6.58579 2.25 7C2.25 7.41421 2.58579 7.75 3 7.75H8C8.41421 7.75 8.75 7.41421 8.75 7C8.75 6.58579 8.41421 6.25 8 6.25H3ZM2.25 12C2.25 11.5858 2.58579 11.25 3 11.25H6C6.41421 11.25 6.75 11.5858 6.75 12C6.75 12.4142 6.41421 12.75 6 12.75H3C2.58579 12.75 2.25 12.4142 2.25 12ZM3 16.25C2.58579 16.25 2.25 16.5858 2.25 17C2.25 17.4142 2.58579 17.75 3 17.75H8C8.41421 17.75 8.75 17.4142 8.75 17C8.75 16.5858 8.41421 16.25 8 16.25H3Z" fill="white"/>
</svg>
