<svg width="24" height="24" viewBox="0 0 24 24" fill="none" xmlns="http://www.w3.org/2000/svg">
<path d="M7.36853 7.36853C5.21049 9.52656 5.21049 13.0254 7.36853 15.1835C9.50654 17.3215 12.9606 17.3413 15.1231 15.243C15.1405 15.2211 15.1594 15.1999 15.1797 15.1796C15.2 15.1594 15.2211 15.1405 15.243 15.123C17.3413 12.9606 17.3215 9.50652 15.1835 7.36853C13.0254 5.21049 9.52656 5.21049 7.36853 7.36853ZM15.6859 16.7465C12.9267 18.9763 8.87255 18.8088 6.30787 16.2441C3.56404 13.5003 3.56404 9.05169 6.30787 6.30787C9.05169 3.56404 13.5003 3.56404 16.2441 6.30787C18.8088 8.87253 18.9763 12.9266 16.7465 15.6858L19.5304 18.4696C19.8232 18.7625 19.8232 19.2374 19.5304 19.5303C19.2375 19.8232 18.7626 19.8232 18.4697 19.5303L15.6859 16.7465Z" fill="white"/>
</svg>
