<svg width="24" height="24" viewBox="0 0 24 24" fill="none" xmlns="http://www.w3.org/2000/svg">
<path d="M13.6628 6.1122C15.6915 8.1409 15.7016 11.4238 13.6933 13.465C13.669 13.4837 13.6456 13.5041 13.6233 13.5261C13.6017 13.5474 13.5817 13.5696 13.5633 13.5927C11.5177 15.5342 8.28528 15.5019 6.27919 13.4958C4.24026 11.4569 4.24026 8.15113 6.27919 6.1122C8.31812 4.07328 11.6238 4.07328 13.6628 6.1122ZM5.21853 14.5565C7.64957 16.9875 11.4796 17.1669 14.1171 15.0946L19.4661 20.5168C19.757 20.8116 20.2318 20.8149 20.5267 20.524C20.8216 20.2331 20.8248 19.7582 20.5339 19.4633L15.187 14.0433C17.3378 11.4035 17.1833 7.51137 14.7234 5.05154C12.0987 2.42683 7.84324 2.42683 5.21853 5.05154C2.59382 7.67626 2.59382 11.9318 5.21853 14.5565ZM8.00006 9.25C7.58584 9.25 7.25006 9.58579 7.25006 10C7.25006 10.4142 7.58584 10.75 8.00006 10.75H12C12.4142 10.75 12.75 10.4142 12.75 10C12.75 9.58579 12.4142 9.25 12 9.25H8.00006Z" fill="white"/>
</svg>
