<svg width="24" height="24" viewBox="0 0 24 24" fill="none" xmlns="http://www.w3.org/2000/svg">
<g clip-path="url(#clip0_7_2130)">
<mask id="mask0_7_2130" style="mask-type:luminance" maskUnits="userSpaceOnUse" x="0" y="0" width="24" height="24">
<path d="M24 0H0V24H24V0Z" fill="white"/>
</mask>
<g mask="url(#mask0_7_2130)">
<path d="M5.77366 8.40427C6.79026 5.96724 9.19057 4.25 12 4.25C15.493 4.25 18.3659 6.90253 18.7145 10.3034C20.9988 10.648 22.75 12.6196 22.75 15C22.75 17.6232 20.6232 19.75 18 19.75H7C3.82479 19.75 1.25 17.1752 1.25 14C1.25 11.2423 3.1937 8.9661 5.77366 8.40427ZM12 5.75C9.69501 5.75 7.73911 7.23814 7.034 9.30967C6.94247 9.57856 6.70689 9.77268 6.42546 9.81111C4.3475 10.0948 2.75 11.8555 2.75 14C2.75 16.3468 4.65321 18.25 7 18.25H18C19.7948 18.25 21.25 16.7948 21.25 15C21.25 13.2052 19.7948 11.75 18 11.75C17.5858 11.75 17.25 11.4142 17.25 11C17.25 8.10021 14.8998 5.75 12 5.75ZM12 11.9199C12.4142 11.9199 12.75 12.2557 12.75 12.6699V15.6699C12.75 16.0841 12.4142 16.4199 12 16.4199C11.5858 16.4199 11.25 16.0841 11.25 15.6699V12.6699C11.25 12.2557 11.5858 11.9199 12 11.9199ZM11.999 9.25C11.4957 9.25 11.0797 9.65881 11.083 10.171C11.0852 10.6754 11.4951 11.084 12 11.084C12.5062 11.084 12.917 10.6732 12.917 10.167C12.917 9.65787 12.5033 9.25 11.999 9.25Z" fill="white"/>
</g>
</g>
<defs>
<clipPath id="clip0_7_2130">
<rect width="24" height="24" fill="white"/>
</clipPath>
</defs>
</svg>
