<svg width="24" height="24" viewBox="0 0 24 24" fill="none" xmlns="http://www.w3.org/2000/svg">
<g clip-path="url(#clip0_7_2196)">
<mask id="mask0_7_2196" style="mask-type:luminance" maskUnits="userSpaceOnUse" x="0" y="0" width="24" height="24">
<path d="M24 0H0V24H24V0Z" fill="white"/>
</mask>
<g mask="url(#mask0_7_2196)">
<path d="M12 4.25C9.19057 4.25 6.79026 5.96724 5.77366 8.40427C3.1937 8.9661 1.25 11.2423 1.25 14C1.25 17.1752 3.82479 19.75 7 19.75H18C20.6232 19.75 22.75 17.6232 22.75 15C22.75 12.6196 20.9988 10.648 18.7145 10.3034C18.3659 6.90253 15.493 4.25 12 4.25ZM7.034 9.30967C7.73911 7.23814 9.69501 5.75 12 5.75C14.8998 5.75 17.25 8.10021 17.25 11C17.25 11.4142 17.5858 11.75 18 11.75C19.7948 11.75 21.25 13.2052 21.25 15C21.25 16.7948 19.7948 18.25 18 18.25H7C4.65321 18.25 2.75 16.3468 2.75 14C2.75 11.8555 4.3475 10.0948 6.42546 9.81111C6.70689 9.77268 6.94247 9.57856 7.034 9.30967ZM11.8303 10.4697C11.5374 10.1768 11.0626 10.1768 10.7697 10.4697C10.4768 10.7626 10.4768 11.2374 10.7697 11.5303L12.2393 13L10.7697 14.4697C10.4768 14.7626 10.4768 15.2374 10.7697 15.5303C11.0626 15.8232 11.5374 15.8232 11.8303 15.5303L13.8303 13.5303C14.1232 13.2374 14.1232 12.7626 13.8303 12.4697L11.8303 10.4697Z" fill="white"/>
</g>
</g>
<defs>
<clipPath id="clip0_7_2196">
<rect width="24" height="24" fill="white"/>
</clipPath>
</defs>
</svg>
