<svg width="24" height="24" viewBox="0 0 24 24" fill="none" xmlns="http://www.w3.org/2000/svg">
<g clip-path="url(#clip0_7_2072)">
<mask id="mask0_7_2072" style="mask-type:luminance" maskUnits="userSpaceOnUse" x="0" y="0" width="24" height="24">
<path d="M24 0H0V24H24V0Z" fill="white"/>
</mask>
<g mask="url(#mask0_7_2072)">
<path d="M5.77366 8.40427C6.79026 5.96724 9.19057 4.25 12 4.25C15.493 4.25 18.3659 6.90253 18.7145 10.3034C20.9988 10.648 22.75 12.6196 22.75 15C22.75 17.6232 20.6232 19.75 18 19.75H7C3.82479 19.75 1.25 17.1752 1.25 14C1.25 11.2423 3.1937 8.9661 5.77366 8.40427ZM12 5.75C9.69501 5.75 7.73911 7.23814 7.034 9.30967C6.94247 9.57856 6.70689 9.77268 6.42546 9.81111C4.3475 10.0948 2.75 11.8555 2.75 14C2.75 16.3468 4.65321 18.25 7 18.25H18C19.7948 18.25 21.25 16.7948 21.25 15C21.25 13.2052 19.7948 11.75 18 11.75C17.5858 11.75 17.25 11.4142 17.25 11C17.25 8.10021 14.8998 5.75 12 5.75ZM12 9.25C12.4142 9.25 12.75 9.58579 12.75 10V13.33C12.75 13.7442 12.4142 14.08 12 14.08C11.5858 14.08 11.25 13.7442 11.25 13.33V10C11.25 9.58579 11.5858 9.25 12 9.25ZM11.999 14.917C11.4957 14.917 11.0797 15.3258 11.083 15.838V15.834H11.417V15.8385L11.083 15.8421V15.838C11.0852 16.3443 11.4981 16.75 12 16.75C12.5062 16.75 12.917 16.3392 12.917 15.833C12.917 15.318 12.4974 14.917 11.999 14.917Z" fill="white"/>
</g>
</g>
<defs>
<clipPath id="clip0_7_2072">
<rect width="24" height="24" fill="white"/>
</clipPath>
</defs>
</svg>
