<svg width="24" height="24" viewBox="0 0 24 24" fill="none" xmlns="http://www.w3.org/2000/svg">
<g clip-path="url(#clip0_7_2152)">
<mask id="mask0_7_2152" style="mask-type:luminance" maskUnits="userSpaceOnUse" x="0" y="0" width="24" height="24">
<path d="M24 0H0V24H24V0Z" fill="white"/>
</mask>
<g mask="url(#mask0_7_2152)">
<path d="M18.71 10.3C18.36 6.9 15.48 4.25 12 4.25C9.26 4.25 6.81 5.9 5.77 8.4C3.17 8.97 1.25 11.3 1.25 14C1.25 17.17 3.83 19.75 7 19.75H18C20.62 19.75 22.75 17.62 22.75 15C22.75 12.62 21 10.65 18.71 10.3ZM18 18.25H7C4.66 18.25 2.75 16.34 2.75 14C2.75 11.9 4.33 10.1 6.43 9.81C6.71 9.77 6.95 9.58 7.04 9.31C7.76 7.18 9.75 5.75 12 5.75C14.89 5.75 17.25 8.1 17.25 11C17.25 11.41 17.59 11.75 18 11.75C19.79 11.75 21.25 13.21 21.25 15C21.25 16.79 19.79 18.25 18 18.25Z" fill="white"/>
<path d="M14.73 11.4201C14.52 11.0601 14.06 10.9401 13.71 11.1501L13.55 11.2401C13.31 11.0301 13.04 10.8801 12.75 10.7801V10.6001C12.75 10.1901 12.41 9.8501 12 9.8501C11.59 9.8501 11.25 10.1901 11.25 10.6001V10.7801C10.96 10.8801 10.69 11.0301 10.46 11.2401L10.3 11.1501C9.94002 10.9401 9.48002 11.0601 9.27002 11.4201C9.06002 11.7801 9.18002 12.2401 9.54002 12.4501L9.69002 12.5401C9.67002 12.6901 9.65002 12.8401 9.65002 13.0001C9.65002 13.1601 9.67002 13.3101 9.70002 13.4601L9.55002 13.5501C9.19002 13.7601 9.07002 14.2201 9.28002 14.5701C9.42002 14.8101 9.67002 14.9401 9.93002 14.9401C10.06 14.9401 10.19 14.9101 10.31 14.8401L10.47 14.7501C10.71 14.9601 10.98 15.1101 11.26 15.2101V15.3901C11.26 15.8001 11.6 16.1401 12.01 16.1401C12.42 16.1401 12.76 15.8001 12.76 15.3901V15.2101C13.05 15.1101 13.32 14.9601 13.56 14.7501L13.72 14.8401C13.84 14.9101 13.97 14.9401 14.1 14.9401C14.36 14.9401 14.61 14.8101 14.75 14.5701C14.96 14.2101 14.84 13.7501 14.48 13.5501L14.33 13.4601C14.39 13.1601 14.39 12.8401 14.33 12.5401L14.48 12.4501C14.81 12.2401 14.94 11.7801 14.73 11.4201ZM12.6 13.6001C12.27 13.9301 11.73 13.9301 11.4 13.6001C11.24 13.4401 11.15 13.2301 11.15 13.0001C11.15 12.7701 11.24 12.5601 11.4 12.4001C11.57 12.2301 11.78 12.1501 12 12.1501C12.22 12.1501 12.44 12.2301 12.6 12.4001C12.93 12.7301 12.93 13.2701 12.6 13.6001Z" fill="white"/>
</g>
</g>
<defs>
<clipPath id="clip0_7_2152">
<rect width="24" height="24" fill="white"/>
</clipPath>
</defs>
</svg>
