<svg width="24" height="24" viewBox="0 0 24 24" fill="none" xmlns="http://www.w3.org/2000/svg">
<g clip-path="url(#clip0_7_2136)">
<mask id="mask0_7_2136" style="mask-type:luminance" maskUnits="userSpaceOnUse" x="0" y="0" width="24" height="24">
<path d="M24 0H0V24H24V0Z" fill="white"/>
</mask>
<g mask="url(#mask0_7_2136)">
<path d="M5.77366 8.40427C6.79026 5.96724 9.19057 4.25 12 4.25C15.493 4.25 18.3659 6.90253 18.7145 10.3034C20.9988 10.648 22.75 12.6196 22.75 15C22.75 17.6232 20.6232 19.75 18 19.75H7C3.82479 19.75 1.25 17.1752 1.25 14C1.25 11.2423 3.1937 8.9661 5.77366 8.40427ZM12 5.75C9.69501 5.75 7.73911 7.23814 7.034 9.30967C6.94247 9.57856 6.70689 9.77268 6.42546 9.81111C4.3475 10.0948 2.75 11.8555 2.75 14C2.75 16.3468 4.65321 18.25 7 18.25H18C19.7948 18.25 21.25 16.7948 21.25 15C21.25 13.2052 19.7948 11.75 18 11.75C17.5858 11.75 17.25 11.4142 17.25 11C17.25 8.10021 14.8998 5.75 12 5.75ZM12.325 14.5523C12.4394 14.6665 12.5092 14.8085 12.5344 14.9566C13.3945 14.7217 14.027 13.9346 14.027 13.0001C14.027 12.8395 14.0027 12.6759 13.9582 12.505C13.8539 12.1042 14.0942 11.6946 14.4951 11.5903C14.8959 11.4859 15.3055 11.7263 15.4098 12.1272C15.4794 12.3943 15.527 12.6867 15.527 13.0001C15.527 14.7627 14.234 16.2237 12.5449 16.4861C12.5414 16.6733 12.4682 16.8595 12.3253 17.0023C12.0325 17.2952 11.5576 17.2952 11.2647 17.0023L10.5707 16.3083C10.2779 16.0156 10.2778 15.541 10.5703 15.2481L10.6607 15.1575C10.6751 15.1418 10.6901 15.1268 10.7057 15.1125L11.2643 14.5531C11.557 14.26 12.0319 14.2596 12.325 14.5523ZM11.4551 9.51376C11.4587 9.32662 11.5319 9.14055 11.6747 8.99775C11.9675 8.70485 12.4424 8.70485 12.7353 8.99775L13.4293 9.69175C13.7221 9.98449 13.7222 10.4591 13.4297 10.752L12.7357 11.447C12.443 11.7401 11.9681 11.7405 11.675 11.4478C11.5605 11.3335 11.4907 11.1913 11.4656 11.0431C10.605 11.2777 9.97198 12.0651 9.97198 12.9999C9.97198 13.1617 9.99638 13.3253 10.0408 13.496C10.1451 13.8969 9.90475 14.3064 9.5039 14.4107C9.10304 14.5151 8.6935 14.2747 8.58917 13.8738C8.51959 13.6065 8.47198 13.3142 8.47198 12.9999C8.47198 11.237 9.76555 9.77577 11.4551 9.51376Z" fill="white"/>
</g>
</g>
<defs>
<clipPath id="clip0_7_2136">
<rect width="24" height="24" fill="white"/>
</clipPath>
</defs>
</svg>
