<svg width="24" height="24" viewBox="0 0 24 24" fill="none" xmlns="http://www.w3.org/2000/svg">
<g clip-path="url(#clip0_7_2177)">
<mask id="mask0_7_2177" style="mask-type:luminance" maskUnits="userSpaceOnUse" x="0" y="0" width="24" height="24">
<path d="M24 0H0V24H24V0Z" fill="white"/>
</mask>
<g mask="url(#mask0_7_2177)">
<path d="M5.77366 8.40427C6.79026 5.96724 9.19057 4.25 12 4.25C15.493 4.25 18.3659 6.90253 18.7145 10.3034C20.9988 10.648 22.75 12.6196 22.75 15C22.75 17.6232 20.6232 19.75 18 19.75H7C3.82479 19.75 1.25 17.1752 1.25 14C1.25 11.2423 3.1937 8.9661 5.77366 8.40427ZM12 5.75C9.69501 5.75 7.73911 7.23814 7.034 9.30967C6.94247 9.57856 6.70689 9.77268 6.42546 9.81111C4.3475 10.0948 2.75 11.8555 2.75 14C2.75 16.3468 4.65321 18.25 7 18.25H18C19.7948 18.25 21.25 16.7948 21.25 15C21.25 13.2052 19.7948 11.75 18 11.75C17.5858 11.75 17.25 11.4142 17.25 11C17.25 8.10021 14.8998 5.75 12 5.75ZM14.2303 10.7697C14.5232 11.0626 14.5232 11.5375 14.2303 11.8304L13.0606 13L14.2303 14.1697C14.5232 14.4626 14.5232 14.9375 14.2303 15.2304C13.9374 15.5233 13.4626 15.5233 13.1697 15.2304L12 14.0607L10.8303 15.2304C10.5374 15.5233 10.0626 15.5233 9.76966 15.2304C9.47676 14.9375 9.47676 14.4626 9.76966 14.1697L10.9393 13L9.76966 11.8304C9.47676 11.5375 9.47676 11.0626 9.76966 10.7697C10.0626 10.4768 10.5374 10.4768 10.8303 10.7697L12 11.9394L13.1697 10.7697C13.4626 10.4768 13.9374 10.4768 14.2303 10.7697Z" fill="white"/>
</g>
</g>
<defs>
<clipPath id="clip0_7_2177">
<rect width="24" height="24" fill="white"/>
</clipPath>
</defs>
</svg>
