<svg width="24" height="24" viewBox="0 0 24 24" fill="none" xmlns="http://www.w3.org/2000/svg">
<g clip-path="url(#clip0_7_2086)">
<mask id="mask0_7_2086" style="mask-type:luminance" maskUnits="userSpaceOnUse" x="0" y="0" width="24" height="24">
<path d="M24 0H0V24H24V0Z" fill="white"/>
</mask>
<g mask="url(#mask0_7_2086)">
<path d="M12 4.25C9.19057 4.25 6.79026 5.96724 5.77366 8.40427C3.1937 8.9661 1.25 11.2423 1.25 14C1.25 17.1752 3.82479 19.75 7 19.75H18C20.6232 19.75 22.75 17.6232 22.75 15C22.75 12.6196 20.9988 10.648 18.7145 10.3034C18.3659 6.90253 15.493 4.25 12 4.25ZM7.034 9.30967C7.73911 7.23814 9.69501 5.75 12 5.75C14.8998 5.75 17.25 8.10021 17.25 11C17.25 11.4142 17.5858 11.75 18 11.75C19.7948 11.75 21.25 13.2052 21.25 15C21.25 16.7948 19.7948 18.25 18 18.25H7C4.65321 18.25 2.75 16.3468 2.75 14C2.75 11.8555 4.3475 10.0948 6.42546 9.81111C6.70689 9.77268 6.94247 9.57856 7.034 9.30967ZM15.1973 12.1974C15.4902 11.9046 15.4903 11.4297 15.1974 11.1367C14.9046 10.8438 14.4297 10.8437 14.1368 11.1366L11.3331 13.9394L9.86334 12.4697C9.57045 12.1768 9.09557 12.1768 8.80268 12.4697C8.50978 12.7626 8.50978 13.2374 8.80268 13.5303L10.8027 15.5303C11.0955 15.8232 11.5704 15.8232 11.8633 15.5304L15.1973 12.1974Z" fill="white"/>
</g>
</g>
<defs>
<clipPath id="clip0_7_2086">
<rect width="24" height="24" fill="white"/>
</clipPath>
</defs>
</svg>
