<svg width="24" height="24" viewBox="0 0 24 24" fill="none" xmlns="http://www.w3.org/2000/svg">
<g clip-path="url(#clip0_7_2116)">
<mask id="mask0_7_2116" style="mask-type:luminance" maskUnits="userSpaceOnUse" x="0" y="0" width="24" height="24">
<path d="M24 0H0V24H24V0Z" fill="white"/>
</mask>
<g mask="url(#mask0_7_2116)">
<path d="M6.16637 6.18029C9.3882 2.95846 14.6118 2.95846 17.8336 6.18028C21.0554 9.4021 21.0554 14.6257 17.8336 17.8475C14.6117 21.0694 9.38818 21.0694 6.16637 17.8475C2.94454 14.6257 2.94455 9.40209 6.16637 6.18029ZM18.8942 5.11963C15.0866 1.31201 8.91332 1.31201 5.10571 5.11962C1.2981 8.92722 1.2981 15.1006 5.10571 18.9082C8.9133 22.7158 15.0866 22.7158 18.8942 18.9082C22.7018 15.1006 22.7018 8.92724 18.8942 5.11963ZM11.9989 7.47192C10.4909 7.47192 9.19292 8.35525 8.58492 9.6291C7.20802 10.0138 6.18994 11.2677 6.18994 12.7759C6.18994 14.5871 7.65873 16.0559 9.46994 16.0559H15.0349C16.5671 16.0559 17.8089 14.8141 17.8089 13.2819C17.8089 11.9887 16.9243 10.9024 15.7271 10.595C15.4137 8.81993 13.8639 7.47192 11.9989 7.47192ZM9.83802 10.5224C10.1452 9.61891 10.998 8.97192 11.9989 8.97192C13.2617 8.97192 14.2849 9.99514 14.2849 11.2579C14.2849 11.6721 14.6207 12.0079 15.0349 12.0079C15.7387 12.0079 16.3089 12.5781 16.3089 13.2819C16.3089 13.9857 15.7387 14.5559 15.0349 14.5559H9.46994C8.48716 14.5559 7.68994 13.7587 7.68994 12.7759C7.68994 11.8815 8.35639 11.1429 9.22912 11.0241C9.51075 10.9857 9.74652 10.7915 9.83802 10.5224Z" fill="white"/>
</g>
</g>
<defs>
<clipPath id="clip0_7_2116">
<rect width="24" height="24" fill="white"/>
</clipPath>
</defs>
</svg>
