<svg width="24" height="24" viewBox="0 0 24 24" fill="none" xmlns="http://www.w3.org/2000/svg">
<g clip-path="url(#clip0_7_2079)">
<mask id="mask0_7_2079" style="mask-type:luminance" maskUnits="userSpaceOnUse" x="0" y="0" width="24" height="24">
<path d="M24 0H0V24H24V0Z" fill="white"/>
</mask>
<g mask="url(#mask0_7_2079)">
<path d="M12 4.25C9.19057 4.25 6.79026 5.96724 5.77366 8.40427C3.1937 8.9661 1.25 11.2423 1.25 14C1.25 17.1752 3.82479 19.75 7 19.75H18C20.6232 19.75 22.75 17.6232 22.75 15C22.75 12.6196 20.9988 10.648 18.7145 10.3034C18.3659 6.90253 15.493 4.25 12 4.25ZM7.034 9.30967C7.73911 7.23814 9.69501 5.75 12 5.75C14.8998 5.75 17.25 8.10021 17.25 11C17.25 11.4142 17.5858 11.75 18 11.75C19.7948 11.75 21.25 13.2052 21.25 15C21.25 16.7948 19.7948 18.25 18 18.25H7C4.65321 18.25 2.75 16.3468 2.75 14C2.75 11.8555 4.3475 10.0948 6.42546 9.81111C6.70689 9.77268 6.94247 9.57856 7.034 9.30967ZM9.84248 11.7202C9.45052 11.5863 9.0242 11.7954 8.89028 12.1874C8.75636 12.5794 8.96554 13.0057 9.35751 13.1396L10.8213 13.6397L9.90222 14.9748C9.66735 15.316 9.75354 15.783 10.0947 16.0178C10.4359 16.2527 10.9029 16.1665 11.1378 15.8253L12 14.5728L12.8622 15.8253C13.0971 16.1665 13.5641 16.2527 13.9053 16.0178C14.2465 15.783 14.3327 15.316 14.0978 14.9748L13.1787 13.6397L14.6425 13.1396C15.0344 13.0057 15.2436 12.5794 15.1097 12.1874C14.9758 11.7954 14.5495 11.5863 14.1575 11.7202L12.75 12.2011V10.6001C12.75 10.1859 12.4142 9.8501 12 9.8501C11.5858 9.8501 11.25 10.1859 11.25 10.6001V12.2011L9.84248 11.7202Z" fill="white"/>
</g>
</g>
<defs>
<clipPath id="clip0_7_2079">
<rect width="24" height="24" fill="white"/>
</clipPath>
</defs>
</svg>
