<svg width="24" height="24" viewBox="0 0 24 24" fill="none" xmlns="http://www.w3.org/2000/svg">
<g clip-path="url(#clip0_7_2059)">
<mask id="mask0_7_2059" style="mask-type:luminance" maskUnits="userSpaceOnUse" x="0" y="0" width="24" height="24">
<path d="M24 0H0V24H24V0Z" fill="white"/>
</mask>
<g mask="url(#mask0_7_2059)">
<path d="M5.77366 8.40427C6.79026 5.96724 9.19057 4.25 12 4.25C15.493 4.25 18.3659 6.90253 18.7145 10.3034C20.9988 10.648 22.75 12.6196 22.75 15C22.75 17.6232 20.6232 19.75 18 19.75H7C3.82479 19.75 1.25 17.1752 1.25 14C1.25 11.2423 3.1937 8.9661 5.77366 8.40427ZM12 5.75C9.69501 5.75 7.73911 7.23814 7.034 9.30967C6.94247 9.57856 6.70689 9.77268 6.42546 9.81111C4.3475 10.0948 2.75 11.8555 2.75 14C2.75 16.3468 4.65321 18.25 7 18.25H18C19.7948 18.25 21.25 16.7948 21.25 15C21.25 13.2052 19.7948 11.75 18 11.75C17.5858 11.75 17.25 11.4142 17.25 11C17.25 8.10021 14.8998 5.75 12 5.75ZM8.85001 13C8.85001 12.5858 9.18579 12.25 9.60001 12.25H11.25V10.6001C11.25 10.1859 11.5858 9.8501 12 9.8501C12.4142 9.8501 12.75 10.1859 12.75 10.6001V12.25H14.4C14.8142 12.25 15.15 12.5858 15.15 13C15.15 13.4142 14.8142 13.75 14.4 13.75H12.75V15.4001C12.75 15.8143 12.4142 16.1501 12 16.1501C11.5858 16.1501 11.25 15.8143 11.25 15.4001V13.75H9.60001C9.18579 13.75 8.85001 13.4142 8.85001 13Z" fill="white"/>
</g>
</g>
<defs>
<clipPath id="clip0_7_2059">
<rect width="24" height="24" fill="white"/>
</clipPath>
</defs>
</svg>
