<svg width="24" height="24" viewBox="0 0 24 24" fill="none" xmlns="http://www.w3.org/2000/svg">
<g clip-path="url(#clip0_7_2095)">
<mask id="mask0_7_2095" style="mask-type:luminance" maskUnits="userSpaceOnUse" x="0" y="0" width="24" height="24">
<path d="M24 0H0V24H24V0Z" fill="white"/>
</mask>
<g mask="url(#mask0_7_2095)">
<path d="M12 4.25C9.19057 4.25 6.79026 5.96724 5.77366 8.40427C3.1937 8.9661 1.25 11.2423 1.25 14C1.25 17.1752 3.82479 19.75 7 19.75H18C20.6232 19.75 22.75 17.6232 22.75 15C22.75 12.6196 20.9988 10.648 18.7145 10.3034C18.3659 6.90253 15.493 4.25 12 4.25ZM7.034 9.30967C7.73911 7.23814 9.69501 5.75 12 5.75C14.8998 5.75 17.25 8.10021 17.25 11C17.25 11.4142 17.5858 11.75 18 11.75C19.7948 11.75 21.25 13.2052 21.25 15C21.25 16.7948 19.7948 18.25 18 18.25H7C4.65321 18.25 2.75 16.3468 2.75 14C2.75 11.8555 4.3475 10.0948 6.42546 9.81111C6.70689 9.77268 6.94247 9.57856 7.034 9.30967ZM13.1973 10.8633C13.4902 10.5704 13.4902 10.0956 13.1973 9.80268C12.9044 9.50978 12.4296 9.50978 12.1367 9.80268L10.1367 11.8027C9.96623 11.9731 9.88809 12.2151 9.92667 12.453C9.96524 12.691 10.1158 12.8959 10.3314 13.0037L12.0671 13.8722L10.8027 15.1367C10.5098 15.4296 10.5098 15.9044 10.8027 16.1973C11.0956 16.4902 11.5704 16.4902 11.8633 16.1973L13.8633 14.1973C14.0338 14.0269 14.1119 13.7849 14.0733 13.547C14.0348 13.309 13.8842 13.1041 13.6686 12.9963L11.9329 12.1278L13.1973 10.8633Z" fill="white"/>
</g>
</g>
<defs>
<clipPath id="clip0_7_2095">
<rect width="24" height="24" fill="white"/>
</clipPath>
</defs>
</svg>
