<svg width="24" height="24" viewBox="0 0 24 24" fill="none" xmlns="http://www.w3.org/2000/svg">
<g clip-path="url(#clip0_7_2145)">
<mask id="mask0_7_2145" style="mask-type:luminance" maskUnits="userSpaceOnUse" x="0" y="0" width="24" height="24">
<path d="M24 0H0V24H24V0Z" fill="white"/>
</mask>
<g mask="url(#mask0_7_2145)">
<path d="M18.71 10.3C18.36 6.9 15.48 4.25 12 4.25C9.26 4.25 6.81 5.9 5.77 8.4C3.17 8.97 1.25 11.3 1.25 14C1.25 17.17 3.83 19.75 7 19.75H18C20.62 19.75 22.75 17.62 22.75 15C22.75 12.62 21 10.65 18.71 10.3ZM18 18.25H7C4.66 18.25 2.75 16.34 2.75 14C2.75 11.9 4.33 10.1 6.43 9.81C6.71 9.77 6.95 9.58 7.04 9.31C7.76 7.18 9.75 5.75 12 5.75C14.89 5.75 17.25 8.1 17.25 11C17.25 11.41 17.59 11.75 18 11.75C19.79 11.75 21.25 13.21 21.25 15C21.25 16.79 19.79 18.25 18 18.25Z" fill="white"/>
<path d="M15.33 12.25H11.94C11.84 11.98 11.68 11.74 11.47 11.53C10.68 10.74 9.31001 10.74 8.52001 11.53C7.71001 12.34 7.71001 13.66 8.52001 14.48C8.93001 14.89 9.46001 15.09 9.99001 15.09C10.52 15.09 11.06 14.89 11.46 14.48C11.67 14.27 11.82 14.02 11.93 13.76H12.57V14.25C12.57 14.66 12.91 15 13.32 15C13.73 15 14.07 14.66 14.07 14.25V13.76H14.57V14.25C14.57 14.66 14.91 15 15.32 15C15.73 15 16.07 14.66 16.07 14.25V13C16.08 12.59 15.74 12.25 15.33 12.25ZM9.59001 13.41C9.36001 13.18 9.36001 12.81 9.59001 12.59C9.70001 12.48 9.85001 12.42 10 12.42C10.15 12.42 10.3 12.48 10.41 12.59C10.52 12.7 10.58 12.84 10.58 12.99C10.58 12.99 10.58 12.99 10.58 13C10.58 13.01 10.58 13 10.58 13.01C10.58 13.16 10.52 13.31 10.41 13.41C10.18 13.64 9.82001 13.64 9.59001 13.41Z" fill="white"/>
</g>
</g>
<defs>
<clipPath id="clip0_7_2145">
<rect width="24" height="24" fill="white"/>
</clipPath>
</defs>
</svg>
