<svg width="24" height="24" viewBox="0 0 24 24" fill="none" xmlns="http://www.w3.org/2000/svg">
<g clip-path="url(#clip0_7_2121)">
<mask id="mask0_7_2121" style="mask-type:luminance" maskUnits="userSpaceOnUse" x="0" y="0" width="24" height="24">
<path d="M24 0H0V24H24V0Z" fill="white"/>
</mask>
<g mask="url(#mask0_7_2121)">
<path d="M5.77366 8.40427C6.79026 5.96724 9.19057 4.25 12 4.25C15.493 4.25 18.3659 6.90253 18.7145 10.3034C20.9988 10.648 22.75 12.6196 22.75 15C22.75 17.6232 20.6232 19.75 18 19.75H7C3.82479 19.75 1.25 17.1752 1.25 14C1.25 11.2423 3.1937 8.9661 5.77366 8.40427ZM12 5.75C9.69501 5.75 7.73911 7.23814 7.034 9.30967C6.94247 9.57856 6.70689 9.77268 6.42546 9.81111C4.3475 10.0948 2.75 11.8555 2.75 14C2.75 16.3468 4.65321 18.25 7 18.25H18C19.7948 18.25 21.25 16.7948 21.25 15C21.25 13.2052 19.7948 11.75 18 11.75C17.5858 11.75 17.25 11.4142 17.25 11C17.25 8.10021 14.8998 5.75 12 5.75ZM11.083 15.838C11.0797 15.3258 11.4957 14.917 11.999 14.917C12.4974 14.917 12.917 15.318 12.917 15.833C12.917 16.3392 12.5062 16.75 12 16.75C11.4981 16.75 11.0852 16.3443 11.083 15.838ZM11.083 15.838V15.8421L11.417 15.8385V15.834H11.083V15.838ZM12.001 9.4729C10.8508 9.4729 9.918 10.4057 9.918 11.5559C9.918 11.9701 10.2538 12.3059 10.668 12.3059C11.0822 12.3059 11.418 11.9701 11.418 11.5559C11.418 11.2341 11.6792 10.9729 12.001 10.9729C12.3228 10.9729 12.584 11.2341 12.584 11.5559C12.584 11.6508 12.5599 11.7013 12.5256 11.7473C12.4789 11.8103 12.3989 11.8811 12.2554 11.9776C11.8711 12.2364 11.25 12.7274 11.25 13.6669C11.25 14.0811 11.5858 14.4169 12 14.4169C12.4142 14.4169 12.75 14.0811 12.75 13.6669C12.75 13.5658 12.776 13.5108 12.8128 13.4612C12.8623 13.3946 12.9457 13.3211 13.093 13.2219C13.4705 12.968 14.084 12.4833 14.084 11.5559C14.084 10.4057 13.1512 9.4729 12.001 9.4729Z" fill="white"/>
</g>
</g>
<defs>
<clipPath id="clip0_7_2121">
<rect width="24" height="24" fill="white"/>
</clipPath>
</defs>
</svg>
