<svg width="24" height="24" viewBox="0 0 24 24" fill="none" xmlns="http://www.w3.org/2000/svg">
<path d="M3.75 5C3.75 4.29859 4.30676 3.75 4.97 3.75H15.03C15.6932 3.75 16.25 4.29859 16.25 5V11C16.25 11.4142 16.5858 11.75 17 11.75C17.4142 11.75 17.75 11.4142 17.75 11V5C17.75 3.49141 16.5428 2.25 15.03 2.25H4.97C3.45724 2.25 2.25 3.49141 2.25 5V19C2.25 20.5086 3.45724 21.75 4.97 21.75H9.893C10.3072 21.75 10.643 21.4142 10.643 21C10.643 20.5858 10.3072 20.25 9.893 20.25H4.97C4.30676 20.25 3.75 19.7014 3.75 19V5ZM5.20001 13C5.20001 12.5858 5.5358 12.25 5.95001 12.25H12.85C13.2642 12.25 13.6 12.5858 13.6 13C13.6 13.4142 13.2642 13.75 12.85 13.75H5.95001C5.5358 13.75 5.20001 13.4142 5.20001 13ZM5.25 16C5.25 15.5858 5.58579 15.25 6 15.25H9.89C10.3042 15.25 10.64 15.5858 10.64 16C10.64 16.4142 10.3042 16.75 9.89 16.75H6C5.58579 16.75 5.25 16.4142 5.25 16ZM18.7627 12.1767C19.4456 11.4938 20.5544 11.4938 21.2373 12.1767L21.8227 12.762C22.5076 13.4455 22.5068 14.5539 21.8233 15.2374L15.5303 21.5304C15.3897 21.671 15.1989 21.75 15 21.75H13C12.5858 21.75 12.25 21.4143 12.25 21V19.0001C12.25 18.8011 12.329 18.6104 12.4697 18.4697L18.7627 12.1767ZM20.1767 13.2374C20.0796 13.1403 19.9204 13.1403 19.8233 13.2374L13.75 19.3107V20.25H14.6893L20.7627 14.1767C20.8612 14.0782 20.8602 13.9206 20.7633 13.8241L20.1767 13.2374ZM6 5.25C5.58579 5.25 5.25 5.58579 5.25 6V9C5.25 9.41421 5.58579 9.75 6 9.75H7.5C8.74221 9.75 9.75 8.74221 9.75 7.5C9.75 6.25779 8.74221 5.25 7.5 5.25H6ZM6.75 8.25V6.75H7.5C7.91379 6.75 8.25 7.08621 8.25 7.5C8.25 7.91379 7.91379 8.25 7.5 8.25H6.75Z" fill="white"/>
</svg>
