<svg width="24" height="24" viewBox="0 0 24 24" fill="none" xmlns="http://www.w3.org/2000/svg">
<path d="M10 1.25C9.30981 1.25 8.75002 1.80979 8.75002 2.5V2.774C8.75002 3.17122 8.88491 3.55607 9.13273 3.86672L9.75002 4.63814V5L9.41669 5.25H5C3.48079 5.25 2.25 6.48079 2.25 8V19C2.25 20.5192 3.48079 21.75 5 21.75H19C20.5192 21.75 21.75 20.5192 21.75 19V8C21.75 6.48079 20.5192 5.25 19 5.25H14.5844L14.251 5V4.63814L14.8676 3.86759L14.8686 3.86631C15.116 3.55584 15.25 3.1699 15.25 2.774V2.5C15.25 1.80979 14.6902 1.25 14 1.25H10ZM13.8552 6.57816C13.8737 6.5934 13.8928 6.60777 13.9127 6.62122L14.131 6.785C14.1942 6.83236 14.231 6.90607 14.231 6.985V7.25H12H9.77002V6.985C9.77002 6.90607 9.80687 6.83236 9.87002 6.785L10.1014 6.61143C10.1116 6.60418 10.1216 6.59669 10.1314 6.58896L10.95 5.975C11.1389 5.83336 11.25 5.61107 11.25 5.375V4.375C11.25 4.20466 11.192 4.0394 11.0856 3.90641L10.3051 2.93098C10.269 2.88569 10.25 2.83066 10.25 2.774V2.75H13.75V2.774C13.75 2.83191 13.7299 2.88822 13.6954 2.93169L12.9154 3.90641C12.809 4.0394 12.751 4.20466 12.751 4.375V5.375C12.751 5.61107 12.8622 5.83336 13.051 5.975L13.8552 6.57816ZM8.28583 6.75C8.27537 6.82735 8.27002 6.90584 8.27002 6.985V8C8.27002 8.41421 8.60581 8.75 9.02002 8.75H11.25V10C11.25 10.4142 11.5858 10.75 12 10.75C12.4142 10.75 12.75 10.4142 12.75 10V8.75H14.981C15.3952 8.75 15.731 8.41421 15.731 8V6.985C15.731 6.90584 15.7257 6.82735 15.7152 6.75H19C19.6908 6.75 20.25 7.30921 20.25 8V19C20.25 19.6908 19.6908 20.25 19 20.25H5C4.30921 20.25 3.75 19.6908 3.75 19V8C3.75 7.30921 4.30921 6.75 5 6.75H8.28583ZM6.25 13C6.25 12.5858 6.58579 12.25 7 12.25H17C17.4142 12.25 17.75 12.5858 17.75 13C17.75 13.4142 17.4142 13.75 17 13.75H7C6.58579 13.75 6.25 13.4142 6.25 13ZM7 16.25C6.58579 16.25 6.25 16.5858 6.25 17C6.25 17.4142 6.58579 17.75 7 17.75H17C17.4142 17.75 17.75 17.4142 17.75 17C17.75 16.5858 17.4142 16.25 17 16.25H7Z" fill="white"/>
</svg>
