<svg width="24" height="24" viewBox="0 0 24 24" fill="none" xmlns="http://www.w3.org/2000/svg">
<path d="M2.25 5C2.25 3.48079 3.48079 2.25 5 2.25H16C17.5192 2.25 18.75 3.48079 18.75 5V8C18.75 8.41421 18.4142 8.75 18 8.75C17.5858 8.75 17.25 8.41421 17.25 8V5C17.25 4.30921 16.6908 3.75 16 3.75H5C4.30921 3.75 3.75 4.30921 3.75 5V19C3.75 19.6908 4.30921 20.25 5 20.25H8C8.41421 20.25 8.75 20.5858 8.75 21C8.75 21.4142 8.41421 21.75 8 21.75H5C3.48079 21.75 2.25 20.5192 2.25 19V5ZM7.5 14.75C7.08621 14.75 6.75 15.0862 6.75 15.5C6.75 15.9138 7.08621 16.25 7.5 16.25C7.91379 16.25 8.25 15.9138 8.25 15.5C8.25 15.0862 7.91379 14.75 7.5 14.75ZM5.25 15.5C5.25 14.2578 6.25779 13.25 7.5 13.25C8.74221 13.25 9.75 14.2578 9.75 15.5C9.75 16.7422 8.74221 17.75 7.5 17.75C6.25779 17.75 5.25 16.7422 5.25 15.5ZM15.051 11.25C14.0944 11.25 13.253 11.8861 12.994 12.809C12.7397 13.7144 13.109 14.6792 13.8988 15.1857L14.25 15.4105V16.4594L12.4468 17.0605C11.731 17.2988 11.25 17.9678 11.25 18.721V19.586C11.25 20.0483 11.4329 20.4949 11.7632 20.8239L11.7641 20.8247L12.1767 21.2373C12.5054 21.566 12.9501 21.75 13.414 21.75H19.586C20.0484 21.75 20.4957 21.5664 20.8247 21.2359L21.2373 20.8233C21.566 20.4946 21.75 20.0499 21.75 19.586V18.721C21.75 17.9693 21.2689 17.2987 20.5526 17.0603L18.75 16.4594V15.4105L19.1019 15.1853C19.8917 14.6788 20.2604 13.7148 20.0061 12.8095C19.7473 11.8866 18.9071 11.25 17.949 11.25H15.051ZM14.4381 13.2145C14.5152 12.9397 14.7658 12.75 15.051 12.75H17.949C18.2349 12.75 18.4848 12.9398 18.562 13.215C18.6374 13.4834 18.5281 13.7712 18.2921 13.9227L17.5958 14.3683C17.3803 14.5061 17.25 14.7442 17.25 15V17C17.25 17.3228 17.4566 17.6094 17.7628 17.7115L20.0794 18.4837C20.1808 18.5174 20.25 18.6129 20.25 18.721V19.586C20.25 19.6521 20.224 19.7154 20.1767 19.7627L19.7627 20.1767L19.7613 20.1781C19.7164 20.2232 19.6533 20.25 19.586 20.25H13.414C13.3479 20.25 13.2846 20.224 13.2373 20.1767L12.8233 19.7627L12.8219 19.7613C12.7768 19.7164 12.75 19.6533 12.75 19.586V18.721C12.75 18.6124 12.8193 18.5174 12.9212 18.4835L15.2372 17.7115C15.5434 17.6094 15.75 17.3228 15.75 17V15C15.75 14.7442 15.6197 14.5061 15.4042 14.3683L14.7076 13.9225C14.4717 13.7711 14.3627 13.483 14.4381 13.2145ZM5.25 7C5.25 6.58579 5.58579 6.25 6 6.25H14C14.4142 6.25 14.75 6.58579 14.75 7C14.75 7.41421 14.4142 7.75 14 7.75H6C5.58579 7.75 5.25 7.41421 5.25 7ZM6 9.75C5.58579 9.75 5.25 10.0858 5.25 10.5C5.25 10.9142 5.58579 11.25 6 11.25H10C10.4142 11.25 10.75 10.9142 10.75 10.5C10.75 10.0858 10.4142 9.75 10 9.75H6Z" fill="white"/>
</svg>
