<svg width="24" height="24" viewBox="0 0 24 24" fill="none" xmlns="http://www.w3.org/2000/svg">
<path d="M18.5407 5.45926C14.9284 1.84692 9.07161 1.84691 5.45926 5.45926C1.84692 9.07157 1.84691 14.9284 5.45926 18.5407C9.07157 22.153 14.9283 22.153 18.5407 18.5407C22.153 14.9284 22.153 9.07161 18.5407 5.45926ZM4.3986 4.3986C8.59673 0.200468 15.4032 0.200465 19.6013 4.3986C23.7995 8.59673 23.7995 15.4033 19.6013 19.6014C15.4032 23.7995 8.59669 23.7995 4.3986 19.6014C0.200469 15.4032 0.200465 8.59669 4.3986 4.3986ZM8.99994 6.75C8.30915 6.75 7.74994 7.30921 7.74994 8V16C7.74994 16.6908 8.30915 17.25 8.99994 17.25H14.9999C15.6907 17.25 16.2499 16.6908 16.2499 16V8C16.2499 7.30921 15.6907 6.75 14.9999 6.75H8.99994ZM6.24994 8C6.24994 6.48079 7.48073 5.25 8.99994 5.25H14.9999C16.5191 5.25 17.7499 6.48079 17.7499 8V16C17.7499 17.5192 16.5191 18.75 14.9999 18.75H8.99994C7.48073 18.75 6.24994 17.5192 6.24994 16V8ZM9.99994 8.25C9.58573 8.25 9.24994 8.58579 9.24994 9C9.24994 9.41421 9.58573 9.75 9.99994 9.75H13.9999C14.4141 9.75 14.7499 9.41421 14.7499 9C14.7499 8.58579 14.4141 8.25 13.9999 8.25H9.99994ZM9.24994 12C9.24994 11.5858 9.58573 11.25 9.99994 11.25H13.9999C14.4141 11.25 14.7499 11.5858 14.7499 12C14.7499 12.4142 14.4141 12.75 13.9999 12.75H9.99994C9.58573 12.75 9.24994 12.4142 9.24994 12ZM9.99994 14.25C9.58573 14.25 9.24994 14.5858 9.24994 15C9.24994 15.4142 9.58573 15.75 9.99994 15.75H11.9999C12.4141 15.75 12.7499 15.4142 12.7499 15C12.7499 14.5858 12.4141 14.25 11.9999 14.25H9.99994Z" fill="white"/>
</svg>
