<svg width="24" height="24" viewBox="0 0 24 24" fill="none" xmlns="http://www.w3.org/2000/svg">
<path d="M8.25003 3C8.25003 2.58579 8.58582 2.25 9.00003 2.25H14.172C14.9012 2.25 15.6009 2.54018 16.1164 3.05567L18.9444 5.88367C19.4599 6.39916 19.75 7.09886 19.75 7.828V16C19.75 16.4142 19.4142 16.75 19 16.75C18.5858 16.75 18.25 16.4142 18.25 16V7.828C18.25 7.49714 18.1182 7.17884 17.8837 6.94433L15.0557 4.11633C14.8212 3.88182 14.5029 3.75 14.172 3.75H9.00003C8.58582 3.75 8.25003 3.41421 8.25003 3ZM5.00003 7.25C5.41424 7.25 5.75003 7.58579 5.75003 8V19C5.75003 19.6908 6.30924 20.25 7.00003 20.25H15C15.4142 20.25 15.75 20.5858 15.75 21C15.75 21.4142 15.4142 21.75 15 21.75H7.00003C5.48082 21.75 4.25003 20.5192 4.25003 19V8C4.25003 7.58579 4.58582 7.25 5.00003 7.25ZM5.58568 2.78151C5.32692 2.45806 4.85495 2.40562 4.53151 2.66438C4.20806 2.92313 4.15562 3.3951 4.41438 3.71855L18.4144 21.2185C18.6731 21.542 19.1451 21.5944 19.4685 21.3357C19.792 21.0769 19.8444 20.605 19.5857 20.2815L5.58568 2.78151Z" fill="white"/>
</svg>
