<svg width="24" height="24" viewBox="0 0 24 24" fill="none" xmlns="http://www.w3.org/2000/svg">
<path d="M8.286 4.75H15.25V8C15.25 8.96621 16.0338 9.75 17 9.75H20.25V15C20.25 15.6908 19.6908 16.25 19 16.25H18H8.286C7.59521 16.25 7.036 15.6908 7.036 15V7.00085C7.036 7.00057 7.036 6.99943 7.036 6.99915C7.036 6.99887 7.036 6.99943 7.036 6.99915V6C7.036 5.30921 7.59521 4.75 8.286 4.75ZM18.75 17.75H19C20.5192 17.75 21.75 16.5192 21.75 15V9V8.543C21.75 7.81277 21.4598 7.1145 20.946 6.59938L18.4016 4.05496C17.8858 3.54055 17.1877 3.25 16.458 3.25H16H8.286C6.76679 3.25 5.536 4.48079 5.536 6V6.25H5C3.48079 6.25 2.25 7.48079 2.25 9V18C2.25 19.5192 3.48079 20.75 5 20.75H16C17.5192 20.75 18.75 19.5192 18.75 18V17.75ZM17.25 17.75V18C17.25 18.6908 16.6908 19.25 16 19.25H5C4.30921 19.25 3.75 18.6908 3.75 18V9C3.75 8.30921 4.30921 7.75 5 7.75H5.536V15C5.536 16.5192 6.76679 17.75 8.286 17.75H17.25ZM17 8.25C16.8622 8.25 16.75 8.13779 16.75 8V4.7848C16.9716 4.83834 17.1771 4.95228 17.3424 5.11704L19.8843 7.65894C20.0481 7.82328 20.1617 8.02816 20.2152 8.25H17Z" fill="white"/>
</svg>
