<svg width="24" height="24" viewBox="0 0 24 24" fill="none" xmlns="http://www.w3.org/2000/svg">
<path d="M6.25 5C6.25 3.48079 7.48079 2.25 9 2.25H15H15.457C16.1872 2.25 16.8855 2.54021 17.4006 3.05396L19.9443 5.59767C20.4589 6.1136 20.75 6.81249 20.75 7.543V8V15.714C20.75 17.2332 19.5192 18.464 18 18.464H17.75V19C17.75 20.5192 16.5192 21.75 15 21.75H6C4.48079 21.75 3.25 20.5192 3.25 19V8C3.25 6.48079 4.48079 5.25 6 5.25H6.25V5ZM6.25 6.75H6C5.30921 6.75 4.75 7.30921 4.75 8V19C4.75 19.6908 5.30921 20.25 6 20.25H15C15.6908 20.25 16.25 19.6908 16.25 19V18.464H9C7.48079 18.464 6.25 17.2332 6.25 15.714V6.75ZM17 16.964H18C18.6908 16.964 19.25 16.4048 19.25 15.714V8.75H16C15.0338 8.75 14.25 7.96621 14.25 7V3.75H9C8.30921 3.75 7.75 4.30921 7.75 5V6V15.714C7.75 16.4048 8.30921 16.964 9 16.964H17ZM16 7.25H19.2152C19.1617 7.02817 19.0478 6.82303 18.8832 6.65787L16.3414 4.11604C16.177 3.95223 15.972 3.83842 15.75 3.78486V7C15.75 7.13779 15.8622 7.25 16 7.25Z" fill="white"/>
</svg>
