<svg width="24" height="24" viewBox="0 0 24 24" fill="none" xmlns="http://www.w3.org/2000/svg">
<path d="M4.25 5C4.25 3.48079 5.48079 2.25 7 2.25H14.172C14.9011 2.25 15.6008 2.54018 16.1163 3.05567L18.9443 5.88367C19.4598 6.39916 19.75 7.09886 19.75 7.828V19C19.75 20.5192 18.5192 21.75 17 21.75H7C5.48079 21.75 4.25 20.5192 4.25 19V5ZM7 3.75C6.30921 3.75 5.75 4.30921 5.75 5V19C5.75 19.6908 6.30921 20.25 7 20.25H17C17.6908 20.25 18.25 19.6908 18.25 19V7.828C18.25 7.49714 18.1182 7.17884 17.8837 6.94433L15.0557 4.11633C14.8212 3.88182 14.5029 3.75 14.172 3.75H7Z" fill="white"/>
</svg>
