<svg width="24" height="24" viewBox="0 0 24 24" fill="none" xmlns="http://www.w3.org/2000/svg">
<path d="M4.25 5C4.25 3.48079 5.48079 2.25 7 2.25H14.172C14.9011 2.25 15.6008 2.54018 16.1163 3.05567L18.9443 5.88367C19.4598 6.39916 19.75 7.09886 19.75 7.828V19C19.75 20.5192 18.5192 21.75 17 21.75H7C5.48079 21.75 4.25 20.5192 4.25 19V5ZM7 3.75C6.30921 3.75 5.75 4.30921 5.75 5V19C5.75 19.6908 6.30921 20.25 7 20.25H17C17.6908 20.25 18.25 19.6908 18.25 19V7.828C18.25 7.49714 18.1182 7.17884 17.8837 6.94433L15.0557 4.11633C14.8212 3.88182 14.5029 3.75 14.172 3.75H7ZM7.25 12.23C7.25 11.8158 7.58579 11.48 8 11.48H16C16.4142 11.48 16.75 11.8158 16.75 12.23C16.75 12.6442 16.4142 12.98 16 12.98H8C7.58579 12.98 7.25 12.6442 7.25 12.23ZM8 14.48C7.58579 14.48 7.25 14.8158 7.25 15.23C7.25 15.6442 7.58579 15.98 8 15.98H16C16.4142 15.98 16.75 15.6442 16.75 15.23C16.75 14.8158 16.4142 14.48 16 14.48H8ZM7.25 18C7.25 17.5858 7.58579 17.25 8 17.25H13C13.4142 17.25 13.75 17.5858 13.75 18C13.75 18.4142 13.4142 18.75 13 18.75H8C7.58579 18.75 7.25 18.4142 7.25 18ZM10.25 6.75V8.25H8.75V6.75H10.25ZM8.749 5.25C7.92079 5.25 7.25 5.92079 7.25 6.749V8.251C7.25 9.07921 7.92079 9.75 8.749 9.75H10.251C11.0792 9.75 11.75 9.07921 11.75 8.251V6.749C11.75 5.92079 11.0792 5.25 10.251 5.25H8.749Z" fill="white"/>
</svg>
