<svg width="24" height="24" viewBox="0 0 24 24" fill="none" xmlns="http://www.w3.org/2000/svg">
<path d="M4.25 5C4.25 3.48079 5.48079 2.25 7 2.25H14.172C14.9011 2.25 15.6008 2.54018 16.1163 3.05567L18.9443 5.88367C19.4598 6.39916 19.75 7.09886 19.75 7.828V12C19.75 12.4142 19.4142 12.75 19 12.75C18.5858 12.75 18.25 12.4142 18.25 12V7.828C18.25 7.49714 18.1182 7.17884 17.8837 6.94433L15.0557 4.11633C14.8212 3.88182 14.5029 3.75 14.172 3.75H7C6.30921 3.75 5.75 4.30921 5.75 5V19C5.75 19.6908 6.30921 20.25 7 20.25H12C12.4142 20.25 12.75 20.5858 12.75 21C12.75 21.4142 12.4142 21.75 12 21.75H7C5.48079 21.75 4.25 20.5192 4.25 19V5ZM7.25 9C7.25 8.58579 7.58579 8.25 8 8.25H16C16.4142 8.25 16.75 8.58579 16.75 9C16.75 9.41421 16.4142 9.75 16 9.75H8C7.58579 9.75 7.25 9.41421 7.25 9ZM8 11.25C7.58579 11.25 7.25 11.5858 7.25 12C7.25 12.4142 7.58579 12.75 8 12.75H16C16.4142 12.75 16.75 12.4142 16.75 12C16.75 11.5858 16.4142 11.25 16 11.25H8ZM7.25 15C7.25 14.5858 7.58579 14.25 8 14.25H10C10.4142 14.25 10.75 14.5858 10.75 15C10.75 15.4142 10.4142 15.75 10 15.75H8C7.58579 15.75 7.25 15.4142 7.25 15ZM20.2539 15.1941L18.4315 14.5383C17.8293 14.3212 17.1697 14.3212 16.5675 14.5383L14.7459 15.1942C14.4484 15.3013 14.25 15.5836 14.25 15.8998V17.9998C14.25 19.2475 15.102 20.19 15.7676 20.7491C16.1186 21.0439 16.4658 21.2727 16.7235 21.4273C16.8532 21.5051 16.9623 21.5654 17.0406 21.607C17.0798 21.6279 17.1115 21.6441 17.1344 21.6556L17.1619 21.6694L17.1705 21.6736L17.1734 21.675L17.175 21.6758C17.3802 21.7742 17.6203 21.774 17.8254 21.6755L17.8266 21.675L17.8295 21.6736L17.8381 21.6694L17.8656 21.6556C17.8885 21.6441 17.9202 21.6279 17.9594 21.607C18.0377 21.5654 18.1468 21.5051 18.2765 21.4273C18.5342 21.2727 18.8814 21.0439 19.2324 20.7491C19.898 20.19 20.75 19.2475 20.75 17.9998V15.8998C20.75 15.5835 20.5516 15.3012 20.2539 15.1941ZM17.5 20.9998C17.1755 21.676 17.1752 21.6759 17.175 21.6758L17.5 20.9998ZM17.8254 21.6755C17.8252 21.6756 17.8245 21.676 17.5 20.9998L17.8254 21.6755ZM17.5048 20.1411L17.5 20.1439L17.4952 20.1411C17.2842 20.0144 17.0064 19.8307 16.7324 19.6005C16.148 19.1096 15.75 18.5521 15.75 17.9998V16.4269L17.0765 15.9493C17.35 15.8506 17.6495 15.8508 17.9231 15.9495L19.25 16.427V17.9998C19.25 18.5521 18.852 19.1096 18.2676 19.6005C17.9936 19.8307 17.7158 20.0144 17.5048 20.1411Z" fill="white"/>
</svg>
