<svg width="24" height="24" viewBox="0 0 24 24" fill="none" xmlns="http://www.w3.org/2000/svg">
<path d="M5 2.25C3.48079 2.25 2.25 3.48079 2.25 5V15C2.25 16.5192 3.48079 17.75 5 17.75H12.3997C12.9604 20.0458 15.0306 21.75 17.5 21.75C20.3992 21.75 22.75 19.3992 22.75 16.5C22.75 14.0315 21.0458 11.9606 18.75 11.3998V5C18.75 3.48079 17.5192 2.25 16 2.25H5ZM17.25 11.2558C14.5487 11.3824 12.3824 13.5498 12.2558 16.25H5C4.30921 16.25 3.75 15.6908 3.75 15V5C3.75 4.30921 4.30921 3.75 5 3.75H16C16.6908 3.75 17.25 4.30921 17.25 5V11.2558ZM6 9.25C5.58579 9.25 5.25 9.58579 5.25 10C5.25 10.4142 5.58579 10.75 6 10.75H14C14.4142 10.75 14.75 10.4142 14.75 10C14.75 9.58579 14.4142 9.25 14 9.25H6ZM18.75 15C18.75 14.5858 18.4142 14.25 18 14.25C17.5858 14.25 17.25 14.5858 17.25 15V16.125H16C15.5858 16.125 15.25 16.4608 15.25 16.875C15.25 17.2892 15.5858 17.625 16 17.625H18C18.4142 17.625 18.75 17.2892 18.75 16.875V15ZM17.5 12.75C19.5708 12.75 21.25 14.4292 21.25 16.5C21.25 18.5708 19.5708 20.25 17.5 20.25C15.4283 20.25 13.75 18.5709 13.75 16.5C13.75 14.4291 15.4283 12.75 17.5 12.75ZM5.25 6.5C5.25 6.08579 5.58579 5.75 6 5.75H14C14.4142 5.75 14.75 6.08579 14.75 6.5C14.75 6.91421 14.4142 7.25 14 7.25H6C5.58579 7.25 5.25 6.91421 5.25 6.5ZM6 12.75C5.58579 12.75 5.25 13.0858 5.25 13.5C5.25 13.9142 5.58579 14.25 6 14.25H10C10.4142 14.25 10.75 13.9142 10.75 13.5C10.75 13.0858 10.4142 12.75 10 12.75H6Z" fill="white"/>
</svg>
