<svg width="24" height="24" viewBox="0 0 24 24" fill="none" xmlns="http://www.w3.org/2000/svg">
<path d="M3.75 5C3.75 4.30921 4.30921 3.75 5 3.75H17C17.6908 3.75 18.25 4.30921 18.25 5V9C18.25 9.41421 18.5858 9.75 19 9.75C19.4142 9.75 19.75 9.41421 19.75 9V5C19.75 3.48079 18.5192 2.25 17 2.25H5C3.48079 2.25 2.25 3.48079 2.25 5V19C2.25 20.5192 3.48079 21.75 5 21.75H10C10.4142 21.75 10.75 21.4142 10.75 21C10.75 20.5858 10.4142 20.25 10 20.25H5C4.30921 20.25 3.75 19.6908 3.75 19V5ZM6.25 13.5C6.25 13.0858 6.58579 12.75 7 12.75H12.5C12.9142 12.75 13.25 13.0858 13.25 13.5C13.25 13.9142 12.9142 14.25 12.5 14.25H7C6.58579 14.25 6.25 13.9142 6.25 13.5ZM6.25 17C6.25 16.5858 6.58579 16.25 7 16.25H10C10.4142 16.25 10.75 16.5858 10.75 17C10.75 17.4142 10.4142 17.75 10 17.75H7C6.58579 17.75 6.25 17.4142 6.25 17ZM18.8735 12.1776C19.557 11.493 20.665 11.4941 21.3483 12.1775L21.8027 12.6318C22.4877 13.3152 22.4868 14.4237 21.8033 15.1071L15.5233 21.3841C15.2899 21.6175 14.9722 21.7498 14.64 21.7498H12.981C12.5668 21.7498 12.231 21.414 12.231 20.9998V19.3408C12.231 19.0115 12.3609 18.6934 12.5965 18.4576L18.8735 12.1776ZM20.2877 13.2381C20.1892 13.1396 20.0316 13.1406 19.935 13.2375L13.731 19.4444V20.2498H14.5364L20.7427 14.0465C20.841 13.948 20.8401 13.7903 20.7434 13.6938L20.2877 13.2381ZM7 5.75C6.58579 5.75 6.25 6.08579 6.25 6.5V8.7C6.25 8.92784 6.35357 9.14332 6.53148 9.28565L8.53148 10.8857C8.80539 11.1048 9.19461 11.1048 9.46852 10.8857L11.4685 9.28565C11.6464 9.14332 11.75 8.92784 11.75 8.7V6.5C11.75 6.08579 11.4142 5.75 11 5.75H7ZM7.75 8.33953V7.25H10.25V8.33953L9 9.33953L7.75 8.33953Z" fill="white"/>
</svg>
