<svg width="24" height="24" viewBox="0 0 24 24" fill="none" xmlns="http://www.w3.org/2000/svg">
<path d="M3.75 4V16C3.75 16.6908 4.30921 17.25 5 17.25H11.2632C11.4496 14.6081 13.5905 12.5055 16.25 12.3808V4C16.25 3.30921 15.6908 2.75 15 2.75H5C4.30921 2.75 3.75 3.30921 3.75 4ZM12.7652 17.9649C12.9369 19.8765 14.5429 21.375 16.5 21.375C18.5708 21.375 20.25 19.6958 20.25 17.625C20.25 15.5542 18.5708 13.875 16.5 13.875C14.4283 13.875 12.75 15.5541 12.75 17.625C12.75 17.721 12.7536 17.8161 12.7607 17.9102C12.7628 17.9283 12.7643 17.9465 12.7652 17.9649ZM11.3708 18.75H5C3.48079 18.75 2.25 17.5192 2.25 16V4C2.25 2.48079 3.48079 1.25 5 1.25H15C16.5192 1.25 17.75 2.48079 17.75 4V12.5248C20.0458 13.0856 21.75 15.1565 21.75 17.625C21.75 20.5242 19.3992 22.875 16.5 22.875C13.986 22.875 11.8857 21.1087 11.3708 18.75ZM5.25 6.18018C5.25 5.76596 5.58579 5.43018 6 5.43018H14C14.4142 5.43018 14.75 5.76596 14.75 6.18018C14.75 6.59439 14.4142 6.93018 14 6.93018H6C5.58579 6.93018 5.25 6.59439 5.25 6.18018ZM6 8.75C5.58579 8.75 5.25 9.08579 5.25 9.5C5.25 9.91421 5.58579 10.25 6 10.25H14C14.4142 10.25 14.75 9.91421 14.75 9.5C14.75 9.08579 14.4142 8.75 14 8.75H6ZM17.75 16.125C17.75 15.7108 17.4142 15.375 17 15.375C16.5858 15.375 16.25 15.7108 16.25 16.125V17.25H15C14.5858 17.25 14.25 17.5858 14.25 18C14.25 18.4142 14.5858 18.75 15 18.75H17C17.4142 18.75 17.75 18.4142 17.75 18V16.125ZM6.04999 12.25C5.63577 12.25 5.29999 12.5858 5.29999 13C5.29999 13.4142 5.63577 13.75 6.04999 13.75H9.99999C10.4142 13.75 10.75 13.4142 10.75 13C10.75 12.5858 10.4142 12.25 9.99999 12.25H6.04999Z" fill="white"/>
</svg>
