<svg width="24" height="24" viewBox="0 0 24 24" fill="none" xmlns="http://www.w3.org/2000/svg">
<path d="M6.5 2.75C6.08621 2.75 5.75 3.08621 5.75 3.5V9C5.75 9.41421 5.41421 9.75 5 9.75C4.58579 9.75 4.25 9.41421 4.25 9V3.5C4.25 2.25779 5.25779 1.25 6.5 1.25C7.27976 1.25 7.96714 1.64709 8.37088 2.25H18C19.5192 2.25 20.75 3.48079 20.75 5V19C20.75 20.5192 19.5192 21.75 18 21.75H7C5.48079 21.75 4.25 20.5192 4.25 19V13.675C2.53823 13.3276 1.25 11.8144 1.25 10V5C1.25 4.58579 1.58579 4.25 2 4.25C2.41421 4.25 2.75 4.58579 2.75 5V10C2.75 11.2428 3.75721 12.25 5 12.25C6.24279 12.25 7.25 11.2428 7.25 10V3.5C7.25 3.08621 6.91379 2.75 6.5 2.75ZM5.75 13.675V19C5.75 19.6908 6.30921 20.25 7 20.25H18C18.6908 20.25 19.25 19.6908 19.25 19V5C19.25 4.30921 18.6908 3.75 18 3.75H8.75V10C8.75 11.8144 7.46177 13.3276 5.75 13.675ZM10.25 8C10.25 7.58579 10.5858 7.25 11 7.25H16C16.4142 7.25 16.75 7.58579 16.75 8C16.75 8.41421 16.4142 8.75 16 8.75H11C10.5858 8.75 10.25 8.41421 10.25 8ZM11 11.25C10.5858 11.25 10.25 11.5858 10.25 12C10.25 12.4142 10.5858 12.75 11 12.75H16C16.4142 12.75 16.75 12.4142 16.75 12C16.75 11.5858 16.4142 11.25 16 11.25H11ZM8.25 16C8.25 15.5858 8.58579 15.25 9 15.25H16C16.4142 15.25 16.75 15.5858 16.75 16C16.75 16.4142 16.4142 16.75 16 16.75H9C8.58579 16.75 8.25 16.4142 8.25 16Z" fill="white"/>
</svg>
