<svg width="24" height="24" viewBox="0 0 24 24" fill="none" xmlns="http://www.w3.org/2000/svg">
<path d="M4.75 5C4.75 4.30921 5.30921 3.75 6 3.75H17C17.6908 3.75 18.25 4.30921 18.25 5V13C18.25 13.4142 18.5858 13.75 19 13.75C19.4142 13.75 19.75 13.4142 19.75 13V5C19.75 3.48079 18.5192 2.25 17 2.25H6C4.48079 2.25 3.25 3.48079 3.25 5V18C3.25 19.5192 4.48079 20.75 6 20.75H7C7.41421 20.75 7.75 20.4142 7.75 20C7.75 19.5858 7.41421 19.25 7 19.25H6C5.30921 19.25 4.75 18.6908 4.75 18V5ZM7 6.29004C6.58579 6.29004 6.25 6.62583 6.25 7.04004C6.25 7.45425 6.58579 7.79004 7 7.79004H15C15.4142 7.79004 15.75 7.45425 15.75 7.04004C15.75 6.62583 15.4142 6.29004 15 6.29004H7ZM7 9.62012C6.58579 9.62012 6.25 9.9559 6.25 10.3701C6.25 10.7843 6.58579 11.1201 7 11.1201H15C15.4142 11.1201 15.75 10.7843 15.75 10.3701C15.75 9.9559 15.4142 9.62012 15 9.62012H7ZM6.29999 13.8701C6.29999 13.4559 6.63577 13.1201 7.04999 13.1201H11C11.4142 13.1201 11.75 13.4559 11.75 13.8701C11.75 14.2843 11.4142 14.6201 11 14.6201H7.04999C6.63577 14.6201 6.29999 14.2843 6.29999 13.8701ZM14.0057 17.9945C14.0275 18.0163 14.0503 18.0365 14.074 18.0551L14.9412 18.9283L14.0293 19.8402C14.0213 19.8476 14.0134 19.8551 14.0057 19.8628C13.4896 20.3789 12.6534 20.3789 12.1373 19.8628C11.6212 19.3467 11.6212 18.5106 12.1373 17.9945C12.6534 17.4784 13.4896 17.4784 14.0057 17.9945ZM11.0767 20.9235C12.1711 22.0179 13.9403 22.0253 15.0439 20.9457C15.0528 20.9375 15.0617 20.9292 15.0703 20.9205L16 19.9908L16.9297 20.9205C16.9383 20.9292 16.9472 20.9376 16.9562 20.9458C18.0598 22.0253 19.8289 22.0179 20.9233 20.9235C22.0252 19.8216 22.0252 18.0357 20.9233 16.9338C19.8473 15.8578 18.119 15.8326 17.0124 16.8581C16.9829 16.8801 16.9546 16.9045 16.9279 16.9314L16 17.8657L15.0721 16.9314C15.0454 16.9045 15.0171 16.8801 14.9876 16.8581C13.881 15.8326 12.1527 15.8578 11.0767 16.9338C9.97477 18.0357 9.97477 19.8216 11.0767 20.9235ZM17.0587 18.9283L17.926 18.0551C17.9497 18.0365 17.9725 18.0163 17.9943 17.9945C18.5104 17.4784 19.3466 17.4784 19.8627 17.9945C20.3788 18.5106 20.3788 19.3467 19.8627 19.8628C19.3466 20.3789 18.5104 20.3789 17.9943 19.8628C17.9866 19.8551 17.9787 19.8475 17.9707 19.8402L17.0587 18.9283Z" fill="white"/>
</svg>
