<svg width="24" height="24" viewBox="0 0 24 24" fill="none" xmlns="http://www.w3.org/2000/svg">
<path d="M7 2.25C5.48079 2.25 4.25 3.48079 4.25 5V12C4.25 12.4142 4.58579 12.75 5 12.75C5.41421 12.75 5.75 12.4142 5.75 12V5C5.75 4.30921 6.30921 3.75 7 3.75H14.172C14.5029 3.75 14.8212 3.88182 15.0557 4.11633L17.8837 6.94433C18.1182 7.17884 18.25 7.49714 18.25 7.828V12C18.25 12.4142 18.5858 12.75 19 12.75C19.4142 12.75 19.75 12.4142 19.75 12V7.828C19.75 7.09886 19.4598 6.39916 18.9443 5.88367L16.1163 3.05567C15.6008 2.54018 14.9011 2.25 14.172 2.25H7ZM5 20.25C4.58579 20.25 4.25 20.5858 4.25 21C4.25 21.4142 4.58579 21.75 5 21.75H19C19.4142 21.75 19.75 21.4142 19.75 21C19.75 20.5858 19.4142 20.25 19 20.25H5ZM4.25 18C4.25 17.5858 4.58579 17.25 5 17.25H19C19.4142 17.25 19.75 17.5858 19.75 18C19.75 18.4142 19.4142 18.75 19 18.75H5C4.58579 18.75 4.25 18.4142 4.25 18ZM5 14.25C4.58579 14.25 4.25 14.5858 4.25 15C4.25 15.4142 4.58579 15.75 5 15.75H19C19.4142 15.75 19.75 15.4142 19.75 15C19.75 14.5858 19.4142 14.25 19 14.25H5Z" fill="white"/>
</svg>
