<svg width="24" height="24" viewBox="0 0 24 24" fill="none" xmlns="http://www.w3.org/2000/svg">
<path d="M6 3.25C3.92879 3.25 2.25 4.92879 2.25 7V16C2.25 18.0712 3.92879 19.75 6 19.75H11C11.4142 19.75 11.75 19.4142 11.75 19C11.75 18.5858 11.4142 18.25 11 18.25H6C4.75721 18.25 3.75 17.2428 3.75 16V7C3.75 5.75721 4.75721 4.75 6 4.75H16C17.2428 4.75 18.25 5.75721 18.25 7V10C18.25 10.4142 18.5858 10.75 19 10.75C19.4142 10.75 19.75 10.4142 19.75 10V7C19.75 4.92879 18.0712 3.25 16 3.25H6ZM6.25 9C6.25 8.58579 6.58579 8.25 7 8.25H15C15.4142 8.25 15.75 8.58579 15.75 9C15.75 9.41421 15.4142 9.75 15 9.75H7C6.58579 9.75 6.25 9.41421 6.25 9ZM20.6513 13.7624C19.968 13.0791 18.8599 13.0779 18.1764 13.7627L14.7627 17.1764C14.434 17.5051 14.25 17.9499 14.25 18.4138V20.9998C14.25 21.414 14.5858 21.7498 15 21.7498H17.586C18.0499 21.7498 18.4946 21.5658 18.8233 21.2371L22.2373 17.8231C22.9208 17.1397 22.9216 16.0312 22.2367 15.3478L20.6513 13.7624ZM19.238 14.8224C19.3346 14.7256 19.4922 14.7246 19.5907 14.8231L21.1773 16.4098C21.2742 16.5063 21.2752 16.6639 21.1767 16.7624L17.7627 20.1764C17.7154 20.2237 17.6521 20.2498 17.586 20.2498H15.75V18.4138C15.75 18.3476 15.776 18.2844 15.8233 18.2371L19.238 14.8224ZM7 13.25C6.58579 13.25 6.25 13.5858 6.25 14C6.25 14.4142 6.58579 14.75 7 14.75H11C11.4142 14.75 11.75 14.4142 11.75 14C11.75 13.5858 11.4142 13.25 11 13.25H7Z" fill="white"/>
</svg>
