<svg width="24" height="24" viewBox="0 0 24 24" fill="none" xmlns="http://www.w3.org/2000/svg">
<path d="M6 3.25C3.92879 3.25 2.25 4.92879 2.25 7V16C2.25 18.0712 3.92879 19.75 6 19.75H11C11.4142 19.75 11.75 19.4142 11.75 19C11.75 18.5858 11.4142 18.25 11 18.25H6C4.75721 18.25 3.75 17.2428 3.75 16V7C3.75 5.75721 4.75721 4.75 6 4.75H16C17.2428 4.75 18.25 5.75721 18.25 7V10C18.25 10.4142 18.5858 10.75 19 10.75C19.4142 10.75 19.75 10.4142 19.75 10V7C19.75 4.92879 18.0712 3.25 16 3.25H6ZM6.25 9C6.25 8.58579 6.58579 8.25 7 8.25H15C15.4142 8.25 15.75 8.58579 15.75 9C15.75 9.41421 15.4142 9.75 15 9.75H7C6.58579 9.75 6.25 9.41421 6.25 9ZM7 12.25C6.58579 12.25 6.25 12.5858 6.25 13C6.25 13.4142 6.58579 13.75 7 13.75H11C11.4142 13.75 11.75 13.4142 11.75 13C11.75 12.5858 11.4142 12.25 11 12.25H7ZM18.5904 14.4091C17.7125 13.5304 16.2875 13.5301 15.4083 14.4093C14.4344 15.3832 14.5375 17.025 15.7266 17.859C16.4709 18.3815 17.5275 18.3816 18.2719 17.8593L18.5904 14.4091ZM18.5904 14.4091L18.2719 17.8593C18.3751 17.7868 18.4704 17.708 18.5572 17.6243C18.5676 17.6125 18.5784 17.601 18.5897 17.5898C18.6004 17.5791 18.6114 17.5687 18.6226 17.5588C19.4707 16.6736 19.4575 15.2763 18.5904 14.4091ZM19.6513 13.3487C20.9353 14.6326 21.0924 16.6144 20.1293 18.0688L21.5303 19.4698C21.8232 19.7627 21.8232 20.2376 21.5303 20.5304C21.2374 20.8233 20.7626 20.8233 20.4697 20.5304L19.0699 19.1307C17.8138 19.9721 16.1055 19.9575 14.8651 19.0869C12.9004 17.7088 12.7256 14.9707 14.3477 13.3487C15.8123 11.884 18.1872 11.8836 19.6513 13.3487Z" fill="white"/>
</svg>
