<svg width="24" height="24" viewBox="0 0 24 24" fill="none" xmlns="http://www.w3.org/2000/svg">
<path d="M10 2.25C8.48079 2.25 7.25 3.48079 7.25 5V6.25H6C4.48079 6.25 3.25 7.48079 3.25 9V19C3.25 20.5192 4.48079 21.75 6 21.75H14C15.5192 21.75 16.75 20.5192 16.75 19V17.75H18C19.5192 17.75 20.75 16.5192 20.75 15V5C20.75 3.48079 19.5192 2.25 18 2.25H10ZM16.75 16.25V9C16.75 7.48079 15.5192 6.25 14 6.25H8.75V5C8.75 4.30921 9.30921 3.75 10 3.75H18C18.6908 3.75 19.25 4.30921 19.25 5V15C19.25 15.6908 18.6908 16.25 18 16.25H16.75ZM8 7.75H14C14.6908 7.75 15.25 8.30921 15.25 9V17V19C15.25 19.6908 14.6908 20.25 14 20.25H6C5.30921 20.25 4.75 19.6908 4.75 19V9C4.75 8.30921 5.30921 7.75 6 7.75H8ZM7.25 12C7.25 11.5858 7.58579 11.25 8 11.25H12C12.4142 11.25 12.75 11.5858 12.75 12C12.75 12.4142 12.4142 12.75 12 12.75H8C7.58579 12.75 7.25 12.4142 7.25 12ZM8 15.25C7.58579 15.25 7.25 15.5858 7.25 16C7.25 16.4142 7.58579 16.75 8 16.75H12C12.4142 16.75 12.75 16.4142 12.75 16C12.75 15.5858 12.4142 15.25 12 15.25H8Z" fill="white"/>
</svg>
