<svg width="24" height="24" viewBox="0 0 24 24" fill="none" xmlns="http://www.w3.org/2000/svg">
<path d="M7 2.25C5.48079 2.25 4.25 3.48079 4.25 5V19C4.25 20.5192 5.48079 21.75 7 21.75H17C18.5192 21.75 19.75 20.5192 19.75 19V8V7.828C19.75 7.09886 19.4598 6.39916 18.9443 5.88367L16.1163 3.05567C15.6008 2.54018 14.9011 2.25 14.172 2.25H14H7ZM13.25 3.75V7C13.25 7.96621 14.0338 8.75 15 8.75H18.25V19C18.25 19.6908 17.6908 20.25 17 20.25H7C6.30921 20.25 5.75 19.6908 5.75 19V5C5.75 4.30921 6.30921 3.75 7 3.75H13.25ZM18.108 7.25H15C14.8622 7.25 14.75 7.13779 14.75 7V3.89195C14.8617 3.95025 14.9649 4.02561 15.0557 4.11633L17.8837 6.94433C17.9744 7.03505 18.0497 7.13832 18.108 7.25ZM10.9731 10.3501C11.3817 10.4181 11.6578 10.8045 11.5898 11.2131L11.4422 12.1001H13.3716L13.5602 10.9668C13.6282 10.5582 14.0145 10.2821 14.4231 10.3501C14.8317 10.4181 15.1078 10.8045 15.0398 11.2131L14.8922 12.1001H15.8C16.2142 12.1001 16.55 12.4359 16.55 12.8501C16.55 13.2643 16.2142 13.6001 15.8 13.6001H14.6426L14.3264 15.5H15.2C15.6142 15.5 15.95 15.8358 15.95 16.25C15.95 16.6642 15.6142 17 15.2 17H14.0767L13.8898 18.1231C13.8218 18.5317 13.4355 18.8078 13.0269 18.7398C12.6183 18.6718 12.3422 18.2854 12.4102 17.8768L12.5561 17H10.6267L10.4398 18.1231C10.3718 18.5317 9.98547 18.8078 9.57687 18.7398C9.16828 18.6718 8.89218 18.2854 8.96018 17.8768L9.1061 17H8.2C7.78579 17 7.45 16.6642 7.45 16.25C7.45 15.8358 7.78579 15.5 8.2 15.5H9.35574L9.67193 13.6001H8.8C8.38579 13.6001 8.05 13.2643 8.05 12.8501C8.05 12.4359 8.38579 12.1001 8.8 12.1001H9.92157L10.1102 10.9668C10.1782 10.5582 10.5645 10.2821 10.9731 10.3501ZM10.8764 15.5H12.8057L13.1219 13.6001H11.1926L10.8764 15.5Z" fill="white"/>
</svg>
