<svg width="24" height="24" viewBox="0 0 24 24" fill="none" xmlns="http://www.w3.org/2000/svg">
<path d="M7 2.25C5.48079 2.25 4.25 3.48079 4.25 5V19C4.25 20.5192 5.48079 21.75 7 21.75H17C18.5192 21.75 19.75 20.5192 19.75 19V8V7.828C19.75 7.09886 19.4598 6.39916 18.9443 5.88367L16.1163 3.05567C15.6008 2.54018 14.9011 2.25 14.172 2.25H14H7ZM13.25 3.75V7C13.25 7.96621 14.0338 8.75 15 8.75H18.25V19C18.25 19.6908 17.6908 20.25 17 20.25H7C6.30921 20.25 5.75 19.6908 5.75 19V5C5.75 4.30921 6.30921 3.75 7 3.75H13.25ZM18.108 7.25H15C14.8622 7.25 14.75 7.13779 14.75 7V3.89195C14.8617 3.95025 14.9649 4.02561 15.0557 4.11633L17.8837 6.94433C17.9744 7.03505 18.0497 7.13832 18.108 7.25ZM12.8 16.75C12.8 17.1642 12.4642 17.5 12.05 17.5C11.6358 17.5 11.3 17.1642 11.3 16.75C11.3 16.3358 11.6358 16 12.05 16C12.4642 16 12.8 16.3358 12.8 16.75ZM12.75 11C12.75 10.5858 12.4142 10.25 12 10.25C11.5858 10.25 11.25 10.5858 11.25 11V14C11.25 14.4142 11.5858 14.75 12 14.75C12.4142 14.75 12.75 14.4142 12.75 14V11Z" fill="white"/>
</svg>
