<svg width="24" height="24" viewBox="0 0 24 24" fill="none" xmlns="http://www.w3.org/2000/svg">
<path d="M7 2.25C5.48079 2.25 4.25 3.48079 4.25 5V19C4.25 20.5192 5.48079 21.75 7 21.75H17C18.5192 21.75 19.75 20.5192 19.75 19V8V7.828C19.75 7.09886 19.4598 6.39916 18.9443 5.88367L16.1163 3.05567C15.6008 2.54018 14.9011 2.25 14.172 2.25H14H7ZM13.25 3.75V7C13.25 7.96621 14.0338 8.75 15 8.75H18.25V19C18.25 19.6908 17.6908 20.25 17 20.25H7C6.30921 20.25 5.75 19.6908 5.75 19V5C5.75 4.30921 6.30921 3.75 7 3.75H13.25ZM18.108 7.25H15C14.8622 7.25 14.75 7.13779 14.75 7V3.89195C14.8617 3.95025 14.9649 4.02561 15.0557 4.11633L17.8837 6.94433C17.9744 7.03505 18.0497 7.13832 18.108 7.25ZM9.53999 12.71C9.53999 11.3508 10.6408 10.25 12 10.25C13.3727 10.25 14.46 11.4124 14.46 12.71V13.307C15.2023 13.5024 15.75 14.1785 15.75 14.982V17.018C15.75 17.9742 14.9742 18.75 14.018 18.75H9.982C9.02579 18.75 8.25 17.9742 8.25 17.018V14.982C8.25 14.1785 8.79773 13.5025 9.53999 13.307V12.71ZM10.29 14.75H9.982C9.85421 14.75 9.75 14.8542 9.75 14.982V17.018C9.75 17.1458 9.85421 17.25 9.982 17.25H14.018C14.1458 17.25 14.25 17.1458 14.25 17.018V14.982C14.25 14.8542 14.1458 14.75 14.018 14.75H13.71H10.29ZM12.96 13.25V12.71C12.96 12.2136 12.5173 11.75 12 11.75C11.4692 11.75 11.04 12.1792 11.04 12.71V13.25H12.96Z" fill="white"/>
</svg>
