<svg width="24" height="24" viewBox="0 0 24 24" fill="none" xmlns="http://www.w3.org/2000/svg">
<path d="M4.25 5C4.25 3.48079 5.48079 2.25 7 2.25H14H14.172C14.9011 2.25 15.6008 2.54018 16.1163 3.05567L18.9443 5.88367C19.4598 6.39916 19.75 7.09886 19.75 7.828V8V19C19.75 20.5192 18.5192 21.75 17 21.75H7C5.48079 21.75 4.25 20.5192 4.25 19V5ZM7 3.75C6.30921 3.75 5.75 4.30921 5.75 5V19C5.75 19.6908 6.30921 20.25 7 20.25H17C17.6908 20.25 18.25 19.6908 18.25 19V8.75H15C14.0338 8.75 13.25 7.96621 13.25 7V3.75H7ZM15 7.25H18.108C18.0497 7.13832 17.9744 7.03505 17.8837 6.94433L15.0557 4.11633C14.9649 4.02561 14.8617 3.95025 14.75 3.89195V7C14.75 7.13779 14.8622 7.25 15 7.25ZM10.5 17.25C10.0858 17.25 9.75 17.5858 9.75 18C9.75 18.4142 10.0858 18.75 10.5 18.75H12H13.5C13.9142 18.75 14.25 18.4142 14.25 18C14.25 17.5858 13.9142 17.25 13.5 17.25H12.75V12.75H14.25V13.5C14.25 13.9142 14.5858 14.25 15 14.25C15.4142 14.25 15.75 13.9142 15.75 13.5V12.5C15.75 11.8098 15.1902 11.25 14.5 11.25H12H9.5C8.80979 11.25 8.25 11.8098 8.25 12.5V13.5C8.25 13.9142 8.58579 14.25 9 14.25C9.41421 14.25 9.75 13.9142 9.75 13.5V12.75H11.25V17.25H10.5Z" fill="white"/>
</svg>
