<svg width="24" height="24" viewBox="0 0 24 24" fill="none" xmlns="http://www.w3.org/2000/svg">
<path d="M4.25 5C4.25 3.48079 5.48079 2.25 7 2.25H14H14.172C14.9011 2.25 15.6008 2.54018 16.1163 3.05567L18.9443 5.88367C19.4598 6.39916 19.75 7.09886 19.75 7.828V8V19C19.75 20.5192 18.5192 21.75 17 21.75H7C5.48079 21.75 4.25 20.5192 4.25 19V5ZM7 3.75C6.30921 3.75 5.75 4.30921 5.75 5V19C5.75 19.6908 6.30921 20.25 7 20.25H17C17.6908 20.25 18.25 19.6908 18.25 19V8.75H15C14.0338 8.75 13.25 7.96621 13.25 7V3.75H7ZM15 7.25H18.108C18.0497 7.13832 17.9744 7.03505 17.8837 6.94433L15.0557 4.11633C14.9649 4.02561 14.8617 3.95025 14.75 3.89195V7C14.75 7.13779 14.8622 7.25 15 7.25ZM12 10.25H15C15.9662 10.25 16.75 11.0338 16.75 12V14.5V17C16.75 17.9662 15.9662 18.75 15 18.75H12H9C8.03379 18.75 7.25 17.9662 7.25 17V14.5V12C7.25 11.0338 8.03379 10.25 9 10.25H12ZM8.75 15.25V17C8.75 17.1378 8.86221 17.25 9 17.25H11.25V15.25H8.75ZM12.75 17.25H15C15.1378 17.25 15.25 17.1378 15.25 17V15.25H12.75V17.25ZM15.25 13.75V12C15.25 11.8622 15.1378 11.75 15 11.75H12.75V13.75H15.25ZM11.25 11.75H9C8.86221 11.75 8.75 11.8622 8.75 12V13.75H11.25V11.75Z" fill="white"/>
</svg>
