<svg width="24" height="24" viewBox="0 0 24 24" fill="none" xmlns="http://www.w3.org/2000/svg">
<path d="M4.25 5C4.25 3.48079 5.48079 2.25 7 2.25H14H14.172C14.9011 2.25 15.6008 2.54018 16.1163 3.05567L18.9443 5.88367C19.4598 6.39916 19.75 7.09886 19.75 7.828V8V19C19.75 20.5192 18.5192 21.75 17 21.75H7C5.48079 21.75 4.25 20.5192 4.25 19V5ZM7 3.75C6.30921 3.75 5.75 4.30921 5.75 5V19C5.75 19.6908 6.30921 20.25 7 20.25H17C17.6908 20.25 18.25 19.6908 18.25 19V8.75H15C14.0338 8.75 13.25 7.96621 13.25 7V3.75H7ZM15 7.25H18.108C18.0497 7.13832 17.9744 7.03505 17.8837 6.94433L15.0557 4.11633C14.9649 4.02561 14.8617 3.95025 14.75 3.89195V7C14.75 7.13779 14.8622 7.25 15 7.25ZM10.005 5.25C9.83305 5.25 9.6315 5.31059 9.47105 5.47105C9.31059 5.6315 9.25 5.83305 9.25 6.005C9.25 6.17695 9.31059 6.3785 9.47105 6.53896C9.6315 6.69941 9.83305 6.76 10.005 6.76C10.1769 6.76 10.3785 6.69941 10.539 6.53896C10.6994 6.3785 10.76 6.17695 10.76 6.005C10.76 5.83305 10.6994 5.6315 10.539 5.47105C10.3785 5.31059 10.1769 5.25 10.005 5.25ZM9.46105 8.47105C9.6215 8.31059 9.82306 8.25 9.99501 8.25C10.167 8.25 10.3685 8.31059 10.529 8.47105C10.6894 8.6315 10.75 8.83305 10.75 9.005C10.75 9.17695 10.6894 9.3785 10.529 9.53896C10.3685 9.69941 10.167 9.76 9.99501 9.76C9.82306 9.76 9.6215 9.69941 9.46105 9.53896C9.3006 9.3785 9.24001 9.17695 9.24001 9.005C9.24001 8.83305 9.3006 8.6315 9.46105 8.47105ZM10.005 11.2402C9.83305 11.2402 9.6315 11.3008 9.47105 11.4613C9.31059 11.6217 9.25 11.8233 9.25 11.9952C9.25 12.1672 9.31059 12.3687 9.47105 12.5292C9.6315 12.6896 9.83305 12.7502 10.005 12.7502C10.1769 12.7502 10.3785 12.6896 10.539 12.5292C10.6994 12.3687 10.76 12.1672 10.76 11.9952C10.76 11.8233 10.6994 11.6217 10.539 11.4613C10.3785 11.3008 10.1769 11.2402 10.005 11.2402ZM9.46105 14.471C9.6215 14.3106 9.82306 14.25 9.99501 14.25C10.167 14.25 10.3685 14.3106 10.529 14.471C10.6894 14.6315 10.75 14.8331 10.75 15.005C10.75 15.1769 10.6894 15.3785 10.529 15.539C10.3685 15.6994 10.167 15.76 9.99501 15.76C9.82306 15.76 9.6215 15.6994 9.46105 15.539C9.3006 15.3785 9.24001 15.1769 9.24001 15.005C9.24001 14.8331 9.3006 14.6315 9.46105 14.471ZM10.005 17.2402C9.83295 17.2402 9.63139 17.3009 9.47097 17.4614C9.31058 17.6218 9.25 17.8233 9.25 17.9952C9.25 18.1672 9.3106 18.3688 9.47112 18.5293C9.63161 18.6897 9.83316 18.7502 10.005 18.7502C10.1768 18.7502 10.3784 18.6897 10.5389 18.5293C10.6994 18.3688 10.76 18.1672 10.76 17.9952C10.76 17.8233 10.6994 17.6218 10.539 17.4614C10.3786 17.3009 10.1771 17.2402 10.005 17.2402Z" fill="white"/>
</svg>
