<svg width="24" height="24" viewBox="0 0 24 24" fill="none" xmlns="http://www.w3.org/2000/svg">
<path d="M8.75 4.26309L9.88517 2.84412C9.93302 2.78455 10.005 2.75 10.081 2.75H13.92C13.996 2.75 14.068 2.78461 14.1158 2.84412L15.25 4.26293V5C15.25 5.13779 15.1378 5.25 15 5.25H9C8.86221 5.25 8.75 5.13779 8.75 5V4.26309ZM10.081 1.25C9.54912 1.25 9.04698 1.49157 8.71483 1.90588L7.63953 3.25H6C4.48079 3.25 3.25 4.48079 3.25 6V19C3.25 20.5192 4.48079 21.75 6 21.75H18C19.5192 21.75 20.75 20.5192 20.75 19V6C20.75 4.48079 19.5192 3.25 18 3.25H16.3606L15.2868 1.9067L15.2862 1.90588C14.954 1.49157 14.4519 1.25 13.92 1.25H10.081ZM16.75 4.75H18C18.6908 4.75 19.25 5.30921 19.25 6V19C19.25 19.6908 18.6908 20.25 18 20.25H6C5.30921 20.25 4.75 19.6908 4.75 19V6C4.75 5.30921 5.30921 4.75 6 4.75H7.25V5C7.25 5.96621 8.03379 6.75 9 6.75H15C15.9662 6.75 16.75 5.96621 16.75 5V4.75ZM7.25 11C7.25 10.5858 7.58579 10.25 8 10.25H16C16.4142 10.25 16.75 10.5858 16.75 11C16.75 11.4142 16.4142 11.75 16 11.75H8C7.58579 11.75 7.25 11.4142 7.25 11ZM8 15.25C7.58579 15.25 7.25 15.5858 7.25 16C7.25 16.4142 7.58579 16.75 8 16.75H16C16.4142 16.75 16.75 16.4142 16.75 16C16.75 15.5858 16.4142 15.25 16 15.25H8Z" fill="white"/>
</svg>
