<svg width="24" height="24" viewBox="0 0 24 24" fill="none" xmlns="http://www.w3.org/2000/svg">
<path d="M3.75 5V7.25H20.25V5C20.25 4.30921 19.6908 3.75 19 3.75H5C4.30921 3.75 3.75 4.30921 3.75 5ZM2.25 8V5C2.25 3.48079 3.48079 2.25 5 2.25H19C20.5192 2.25 21.75 3.48079 21.75 5V8V19C21.75 20.5192 20.5192 21.75 19 21.75H5C3.48079 21.75 2.25 20.5192 2.25 19V8ZM20.25 8.75H3.75V19C3.75 19.6908 4.30921 20.25 5 20.25H19C19.6908 20.25 20.25 19.6908 20.25 19V8.75ZM5.24501 4.96132C5.40547 4.80083 5.60705 4.74023 5.779 4.74023C5.95095 4.74023 6.1525 4.80083 6.31296 4.96128C6.47341 5.12173 6.534 5.32329 6.534 5.49523C6.534 5.66718 6.47341 5.86874 6.31296 6.02919C6.1525 6.18964 5.95095 6.25023 5.779 6.25023C5.60705 6.25023 5.40547 6.18964 5.24501 6.02915C5.08456 5.86868 5.024 5.66713 5.024 5.49523C5.024 5.32334 5.08456 5.12179 5.24501 4.96132ZM10.332 4.96616C10.4925 4.80571 10.6941 4.74512 10.866 4.74512C11.0379 4.74512 11.2395 4.80571 11.4 4.96616C11.5604 5.12661 11.621 5.32817 11.621 5.50012C11.621 5.67206 11.5604 5.87362 11.4 6.03407C11.2395 6.19453 11.0379 6.25512 10.866 6.25512C10.6941 6.25512 10.4925 6.19453 10.332 6.03407C10.1716 5.87362 10.111 5.67206 10.111 5.50012C10.111 5.32817 10.1716 5.12661 10.332 4.96616ZM7.5 14.77C7.91421 14.77 8.25 15.1058 8.25 15.52V17C8.25 17.4142 7.91421 17.75 7.5 17.75C7.08579 17.75 6.75 17.4142 6.75 17V15.52C6.75 15.1058 7.08579 14.77 7.5 14.77ZM11.25 12.25C11.25 11.8358 10.9142 11.5 10.5 11.5C10.0858 11.5 9.75 11.8358 9.75 12.25V17C9.75 17.4142 10.0858 17.75 10.5 17.75C10.9142 17.75 11.25 17.4142 11.25 17V12.25ZM13.5 14.1802C13.9142 14.1802 14.25 14.516 14.25 14.9302V17.0002C14.25 17.4144 13.9142 17.7502 13.5 17.7502C13.0858 17.7502 12.75 17.4144 12.75 17.0002V14.9302C12.75 14.516 13.0858 14.1802 13.5 14.1802ZM17.25 12.7998C17.25 12.3856 16.9142 12.0498 16.5 12.0498C16.0858 12.0498 15.75 12.3856 15.75 12.7998V16.9998C15.75 17.414 16.0858 17.7498 16.5 17.7498C16.9142 17.7498 17.25 17.414 17.25 16.9998V12.7998ZM8.327 4.74512C8.15505 4.74512 7.9535 4.80571 7.79304 4.96616C7.63259 5.12661 7.572 5.32817 7.572 5.50012C7.572 5.67206 7.63259 5.87362 7.79304 6.03407C7.9535 6.19453 8.15505 6.25512 8.327 6.25512C8.49895 6.25512 8.7005 6.19453 8.86095 6.03407C9.02141 5.87362 9.082 5.67206 9.082 5.50012C9.082 5.32817 9.02141 5.12661 8.86095 4.96616C8.7005 4.80571 8.49895 4.74512 8.327 4.74512Z" fill="white"/>
</svg>
