<svg width="24" height="24" viewBox="0 0 24 24" fill="none" xmlns="http://www.w3.org/2000/svg">
<path d="M3.75 3C3.75 2.58579 3.41421 2.25 3 2.25C2.58579 2.25 2.25 2.58579 2.25 3V19C2.25 20.5192 3.48079 21.75 5 21.75H21C21.4142 21.75 21.75 21.4142 21.75 21C21.75 20.5858 21.4142 20.25 21 20.25H5C4.30921 20.25 3.75 19.6908 3.75 19V3ZM11 5.25C11.4142 5.25 11.75 5.58579 11.75 6V17C11.75 17.4142 11.4142 17.75 11 17.75C10.5858 17.75 10.25 17.4142 10.25 17V6C10.25 5.58579 10.5858 5.25 11 5.25ZM7 11.25C7.41421 11.25 7.75 11.5858 7.75 12V17C7.75 17.4142 7.41421 17.75 7 17.75C6.58579 17.75 6.25 17.4142 6.25 17V12C6.25 11.5858 6.58579 11.25 7 11.25ZM15.75 10.9048C15.75 10.4906 15.4142 10.1548 15 10.1548C14.5858 10.1548 14.25 10.4906 14.25 10.9048V16.9998C14.25 17.414 14.5858 17.7498 15 17.7498C15.4142 17.7498 15.75 17.414 15.75 16.9998V10.9048ZM19.002 6.25C19.4162 6.25 19.752 6.58579 19.752 7V17C19.752 17.4142 19.4162 17.75 19.002 17.75C18.5878 17.75 18.252 17.4142 18.252 17V7C18.252 6.58579 18.5878 6.25 19.002 6.25Z" fill="white"/>
</svg>
