<svg width="24" height="24" viewBox="0 0 24 24" fill="none" xmlns="http://www.w3.org/2000/svg">
<path d="M20 3.75C19.3092 3.75 18.75 4.30921 18.75 5V19C18.75 19.6908 19.3092 20.25 20 20.25C20.6908 20.25 21.25 19.6908 21.25 19V5C21.25 4.30921 20.6908 3.75 20 3.75ZM17.25 5C17.25 3.48079 18.4808 2.25 20 2.25C21.5192 2.25 22.75 3.48079 22.75 5V19C22.75 20.5192 21.5192 21.75 20 21.75C18.4808 21.75 17.25 20.5192 17.25 19V5ZM4 9.43408C3.30921 9.43408 2.75 9.9933 2.75 10.6841V19.0001C2.75 19.6909 3.30921 20.2501 4 20.2501C4.69079 20.2501 5.25 19.6909 5.25 19.0001V10.6841C5.25 9.9933 4.69079 9.43408 4 9.43408ZM1.25 10.6841C1.25 9.16487 2.48079 7.93408 4 7.93408C5.51921 7.93408 6.75 9.16487 6.75 10.6841V19.0001C6.75 20.5193 5.51921 21.7501 4 21.7501C2.48079 21.7501 1.25 20.5193 1.25 19.0001V10.6841ZM10.75 16.3682C10.75 15.6774 11.3092 15.1182 12 15.1182C12.6908 15.1182 13.25 15.6774 13.25 16.3682V19.0002C13.25 19.691 12.6908 20.2502 12 20.2502C11.3092 20.2502 10.75 19.691 10.75 19.0002V16.3682ZM12 13.6182C10.4808 13.6182 9.25 14.849 9.25 16.3682V19.0002C9.25 20.5194 10.4808 21.7502 12 21.7502C13.5192 21.7502 14.75 20.5194 14.75 19.0002V16.3682C14.75 14.849 13.5192 13.6182 12 13.6182Z" fill="white"/>
</svg>
