<svg width="24" height="24" viewBox="0 0 24 24" fill="none" xmlns="http://www.w3.org/2000/svg">
<path d="M19.5 3.25C19.0858 3.25 18.75 3.58579 18.75 4V20C18.75 20.4142 19.0858 20.75 19.5 20.75H22.5C22.9142 20.75 23.25 20.4142 23.25 20V4C23.25 3.58579 22.9142 3.25 22.5 3.25H19.5ZM21.75 19.25H20.25V4.75H21.75V19.25ZM7.5 5.25C7.08579 5.25 6.75 5.58579 6.75 6V20C6.75 20.4142 7.08579 20.75 7.5 20.75H10.502C10.9162 20.75 11.252 20.4142 11.252 20V6C11.252 5.58579 10.9162 5.25 10.502 5.25H7.5ZM8.25 19.25V6.75H9.752V19.25H8.25ZM1.5 11.25C1.08579 11.25 0.75 11.5858 0.75 12V20C0.75 20.4142 1.08579 20.75 1.5 20.75H4.5C4.91421 20.75 5.25 20.4142 5.25 20V12C5.25 11.5858 4.91421 11.25 4.5 11.25H1.5ZM2.25 19.25V12.75H3.75V19.25H2.25ZM12.75 9C12.75 8.58579 13.0858 8.25 13.5 8.25H16.5C16.9142 8.25 17.25 8.58579 17.25 9V20C17.25 20.4142 16.9142 20.75 16.5 20.75H13.5C13.0858 20.75 12.75 20.4142 12.75 20V9ZM14.25 9.75V19.25H15.75V9.75H14.25Z" fill="white"/>
</svg>
