<svg width="24" height="24" viewBox="0 0 24 24" fill="none" xmlns="http://www.w3.org/2000/svg">
<path d="M3.75 3C3.75 2.58579 3.41421 2.25 3 2.25C2.58579 2.25 2.25 2.58579 2.25 3V19C2.25 20.5192 3.48079 21.75 5 21.75H21C21.4142 21.75 21.75 21.4142 21.75 21C21.75 20.5858 21.4142 20.25 21 20.25H5C4.30921 20.25 3.75 19.6908 3.75 19V3ZM21.5762 6.48014C21.8414 6.16192 21.7984 5.689 21.4801 5.42384C21.1619 5.15867 20.689 5.20168 20.4238 5.5199L15.8258 11.0379C15.7642 11.1117 15.6664 11.1436 15.5725 11.1203L12.7909 10.4244C12.1398 10.2616 11.4522 10.4859 11.0218 11.0019L6.42384 16.5199C6.15867 16.8381 6.20168 17.311 6.5199 17.5762C6.83812 17.8414 7.31104 17.7984 7.5762 17.4801L12.1742 11.9621C12.2359 11.8884 12.3343 11.8565 12.4271 11.8796L15.2096 12.5757C15.8614 12.7383 16.5479 12.5141 16.9782 11.9981L21.5762 6.48014Z" fill="white"/>
</svg>
