<svg width="24" height="24" viewBox="0 0 24 24" fill="none" xmlns="http://www.w3.org/2000/svg">
<path fill-rule="evenodd" clip-rule="evenodd" d="M8.583 3C8.583 2.58579 8.91879 2.25 9.333 2.25H14.666C15.0802 2.25 15.416 2.58579 15.416 3V7.25H20C20.4142 7.25 20.75 7.58579 20.75 8V21C20.75 21.4142 20.4142 21.75 20 21.75H14.667H9.333H4C3.58579 21.75 3.25 21.4142 3.25 21V13C3.25 12.5858 3.58579 12.25 4 12.25H8.583V3ZM15.416 20.25H19.25V8.75H15.416V20.25ZM8.583 13.75V20.25H4.75V13.75H8.583ZM10.083 20.25H13.916V3.75H10.083V13V20.25Z" fill="white"/>
</svg>
