<svg width="24" height="24" viewBox="0 0 24 24" fill="none" xmlns="http://www.w3.org/2000/svg">
<path d="M17.25 5C17.25 3.48079 18.4808 2.25 20 2.25C21.5192 2.25 22.75 3.48079 22.75 5V19C22.75 20.5192 21.5192 21.75 20 21.75C18.4808 21.75 17.25 20.5192 17.25 19V5ZM20 3.75C19.3092 3.75 18.75 4.30921 18.75 5V19C18.75 19.6908 19.3092 20.25 20 20.25C20.6908 20.25 21.25 19.6908 21.25 19V5C21.25 4.30921 20.6908 3.75 20 3.75ZM9.25 10.6841C9.25 9.16487 10.4808 7.93408 12 7.93408C13.5192 7.93408 14.75 9.16487 14.75 10.6841V19.0001C14.75 20.5193 13.5192 21.7501 12 21.7501C10.4808 21.7501 9.25 20.5193 9.25 19.0001V10.6841ZM12 9.43408C11.3092 9.43408 10.75 9.9933 10.75 10.6841V19.0001C10.75 19.6909 11.3092 20.2501 12 20.2501C12.6908 20.2501 13.25 19.6909 13.25 19.0001V10.6841C13.25 9.9933 12.6908 9.43408 12 9.43408ZM4 13.6182C2.48079 13.6182 1.25 14.849 1.25 16.3682V19.0002C1.25 20.5194 2.48079 21.7502 4 21.7502C5.51921 21.7502 6.75 20.5194 6.75 19.0002V16.3682C6.75 14.849 5.51921 13.6182 4 13.6182ZM2.75 16.3682C2.75 15.6774 3.30921 15.1182 4 15.1182C4.69079 15.1182 5.25 15.6774 5.25 16.3682V19.0002C5.25 19.691 4.69079 20.2502 4 20.2502C3.30921 20.2502 2.75 19.691 2.75 19.0002V16.3682Z" fill="white"/>
</svg>
