<svg width="24" height="24" viewBox="0 0 24 24" fill="none" xmlns="http://www.w3.org/2000/svg">
<path d="M12.75 10.7011L18.7399 7.24065C17.3815 5.32046 15.2232 4.00644 12.75 3.78362V10.7011ZM11.4081 12.3128C11.382 12.2639 11.3618 12.2133 11.3474 12.1618C11.2835 11.9784 11.25 11.7839 11.25 11.586V3.78362C7.04477 4.16247 3.75 7.69603 3.75 12C3.75 16.5568 7.44321 20.25 12 20.25C14.0083 20.25 15.8489 19.5326 17.2795 18.3401L11.7627 12.8233C11.6134 12.6741 11.494 12.5009 11.4081 12.3128ZM13.2216 12.161L18.3401 17.2795C19.5326 15.8489 20.25 14.0083 20.25 12C20.25 10.7639 19.9782 9.5914 19.4912 8.5389L13.2216 12.161ZM2.25 12C2.25 6.61479 6.61479 2.25 12 2.25C17.3852 2.25 21.75 6.61479 21.75 12C21.75 17.3852 17.3852 21.75 12 21.75C6.61479 21.75 2.25 17.3852 2.25 12Z" fill="white"/>
</svg>
