<svg width="24" height="24" viewBox="0 0 24 24" fill="none" xmlns="http://www.w3.org/2000/svg">
<path d="M21.75 21C21.75 21.4142 21.4142 21.75 21 21.75H17C16.5858 21.75 16.25 21.4142 16.25 21V3C16.25 2.58579 16.5858 2.25 17 2.25H21C21.4142 2.25 21.75 2.58579 21.75 3V21ZM20.25 20.25V3.75H17.75V20.25H20.25ZM14.75 21C14.75 21.4142 14.4142 21.75 14 21.75H10C9.58579 21.75 9.25 21.4142 9.25 21V8.684C9.25 8.26979 9.58579 7.934 10 7.934H14C14.4142 7.934 14.75 8.26979 14.75 8.684V21ZM13.25 20.25V9.434H10.75V20.25H13.25ZM7 21.7505C7.41421 21.7505 7.75 21.4147 7.75 21.0005V14.3685C7.75 13.9543 7.41421 13.6185 7 13.6185H3C2.58579 13.6185 2.25 13.9543 2.25 14.3685V21.0005C2.25 21.4147 2.58579 21.7505 3 21.7505H7ZM6.25 15.1185V20.2505H3.75V15.1185H6.25Z" fill="white"/>
</svg>
