<svg width="24" height="24" viewBox="0 0 24 24" fill="none" xmlns="http://www.w3.org/2000/svg">
<path d="M4 3.75C3.30921 3.75 2.75 4.30921 2.75 5V19C2.75 19.6908 3.30921 20.25 4 20.25C4.69079 20.25 5.25 19.6908 5.25 19V5C5.25 4.30921 4.69079 3.75 4 3.75ZM1.25 5C1.25 3.48079 2.48079 2.25 4 2.25C5.51921 2.25 6.75 3.48079 6.75 5V19C6.75 20.5192 5.51921 21.75 4 21.75C2.48079 21.75 1.25 20.5192 1.25 19V5ZM12 9.43408C11.3092 9.43408 10.75 9.9933 10.75 10.6841V19.0001C10.75 19.6909 11.3092 20.2501 12 20.2501C12.6908 20.2501 13.25 19.6909 13.25 19.0001V10.6841C13.25 9.9933 12.6908 9.43408 12 9.43408ZM9.25 10.6841C9.25 9.16487 10.4808 7.93408 12 7.93408C13.5192 7.93408 14.75 9.16487 14.75 10.6841V19.0001C14.75 20.5193 13.5192 21.7501 12 21.7501C10.4808 21.7501 9.25 20.5193 9.25 19.0001V10.6841ZM18.75 16.3682C18.75 15.6774 19.3092 15.1182 20 15.1182C20.6908 15.1182 21.25 15.6774 21.25 16.3682V19.0002C21.25 19.691 20.6908 20.2502 20 20.2502C19.3092 20.2502 18.75 19.691 18.75 19.0002V16.3682ZM20 13.6182C18.4808 13.6182 17.25 14.849 17.25 16.3682V19.0002C17.25 20.5194 18.4808 21.7502 20 21.7502C21.5192 21.7502 22.75 20.5194 22.75 19.0002V16.3682C22.75 14.849 21.5192 13.6182 20 13.6182Z" fill="white"/>
</svg>
