<svg width="24" height="24" viewBox="0 0 24 24" fill="none" xmlns="http://www.w3.org/2000/svg">
<path d="M3.75 5C3.75 4.30921 4.30921 3.75 5 3.75H19C19.6908 3.75 20.25 4.30921 20.25 5V19C20.25 19.6908 19.6908 20.25 19 20.25H5C4.30921 20.25 3.75 19.6908 3.75 19V5ZM5 2.25C3.48079 2.25 2.25 3.48079 2.25 5V19C2.25 20.5192 3.48079 21.75 5 21.75H19C20.5192 21.75 21.75 20.5192 21.75 19V5C21.75 3.48079 20.5192 2.25 19 2.25H5ZM18.526 10.5986C18.8213 10.308 18.8251 9.83317 18.5346 9.53793C18.2441 9.24268 17.7692 9.23885 17.474 9.52938L13.9338 13.0128L10.45 10.4C10.1532 10.1774 9.73837 10.2052 9.47396 10.4654L5.47396 14.4014C5.17872 14.6919 5.17489 15.1668 5.46541 15.462C5.75593 15.7572 6.23079 15.7611 6.52604 15.4706L10.0662 11.9871L13.55 14.6C13.8468 14.8225 14.2616 14.7947 14.526 14.5346L18.526 10.5986Z" fill="white"/>
</svg>
