<svg width="24" height="24" viewBox="0 0 24 24" fill="none" xmlns="http://www.w3.org/2000/svg">
<path d="M5.778 3.25C4.47183 3.25 3.25 4.20414 3.25 5.571V15.4185C2.65885 15.6995 2.25 16.3022 2.25 17V18C2.25 19.5192 3.48079 20.75 5 20.75H19C20.5192 20.75 21.75 19.5192 21.75 18V17C21.75 16.3022 21.3411 15.6995 20.75 15.4185V5.571C20.75 4.20414 19.5282 3.25 18.222 3.25H5.778ZM19.25 15.25H16.535C15.9511 15.25 15.4033 15.5416 15.0786 16.0295L14.6726 16.6385C14.6273 16.7067 14.5491 16.749 14.465 16.749H9.535C9.45091 16.749 9.37239 16.7061 9.32704 16.638L8.92104 16.029L8.92035 16.0279C8.59533 15.5422 8.04966 15.25 7.464 15.25H4.75V5.571C4.75 5.20186 5.12017 4.75 5.778 4.75H18.222C18.8798 4.75 19.25 5.20186 19.25 5.571V15.25ZM4 16.75H7.464C7.54818 16.75 7.62664 16.7921 7.67365 16.8621L8.07896 17.47C8.40365 17.9576 8.9513 18.249 9.535 18.249H14.465C15.0489 18.249 15.5967 17.9574 15.9214 17.4695L16.3274 16.8605C16.3727 16.7923 16.4509 16.75 16.535 16.75H20C20.1378 16.75 20.25 16.8622 20.25 17V18C20.25 18.6908 19.6908 19.25 19 19.25H5C4.30921 19.25 3.75 18.6908 3.75 18V17C3.75 16.8622 3.86221 16.75 4 16.75ZM15 6.41699C15.4142 6.41699 15.75 6.75278 15.75 7.16699V13C15.75 13.4142 15.4142 13.75 15 13.75C14.5858 13.75 14.25 13.4142 14.25 13V7.16699C14.25 6.75278 14.5858 6.41699 15 6.41699ZM12.75 9.5C12.75 9.08579 12.4142 8.75 12 8.75C11.5858 8.75 11.25 9.08579 11.25 9.5V13C11.25 13.4142 11.5858 13.75 12 13.75C12.4142 13.75 12.75 13.4142 12.75 13V9.5ZM9 9.91699C9.41421 9.91699 9.75 10.2528 9.75 10.667V13C9.75 13.4142 9.41421 13.75 9 13.75C8.58579 13.75 8.25 13.4142 8.25 13V10.667C8.25 10.2528 8.58579 9.91699 9 9.91699Z" fill="white"/>
</svg>
