<svg width="24" height="24" viewBox="0 0 24 24" fill="none" xmlns="http://www.w3.org/2000/svg">
<path d="M14 2.25C13.5858 2.25 13.25 2.58579 13.25 3V10C13.25 10.4142 13.5858 10.75 14 10.75H21C21.4142 10.75 21.75 10.4142 21.75 10C21.75 5.71979 18.2802 2.25 14 2.25ZM14.75 9.25V3.79454C17.6023 4.13565 19.8644 6.39772 20.2055 9.25H14.75ZM10.5 5.25C5.94379 5.25 2.25 8.94379 2.25 13.5C2.25 18.0562 5.94379 21.75 10.5 21.75C15.0562 21.75 18.75 18.0562 18.75 13.5C18.75 13.0858 18.4142 12.75 18 12.75H11.25V6C11.25 5.58579 10.9142 5.25 10.5 5.25ZM3.75 13.5C3.75 10.0257 6.37514 7.16431 9.75 6.7912V13.5C9.75 13.9142 10.0858 14.25 10.5 14.25H17.2088C16.8357 17.6249 13.9743 20.25 10.5 20.25C6.77221 20.25 3.75 17.2278 3.75 13.5Z" fill="white"/>
</svg>
