<svg width="24" height="24" viewBox="0 0 24 24" fill="none" xmlns="http://www.w3.org/2000/svg">
<path d="M15 2.25C15.4142 2.25 15.75 2.58579 15.75 3V21C15.75 21.4142 15.4142 21.75 15 21.75C14.5858 21.75 14.25 21.4142 14.25 21V3C14.25 2.58579 14.5858 2.25 15 2.25ZM21.75 8C21.75 7.58579 21.4142 7.25 21 7.25C20.5858 7.25 20.25 7.58579 20.25 8V21C20.25 21.4142 20.5858 21.75 21 21.75C21.4142 21.75 21.75 21.4142 21.75 21V8ZM9.75 13C9.75 12.5858 9.41421 12.25 9 12.25C8.58579 12.25 8.25 12.5858 8.25 13V21C8.25 21.4142 8.58579 21.75 9 21.75C9.41421 21.75 9.75 21.4142 9.75 21V13ZM3.75 8C3.75 7.58579 3.41421 7.25 3 7.25C2.58579 7.25 2.25 7.58579 2.25 8V21C2.25 21.4142 2.58579 21.75 3 21.75C3.41421 21.75 3.75 21.4142 3.75 21V8Z" fill="white"/>
</svg>
