<svg width="24" height="24" viewBox="0 0 24 24" fill="none" xmlns="http://www.w3.org/2000/svg">
<g clip-path="url(#clip0_7_1578)">
<mask id="mask0_7_1578" style="mask-type:luminance" maskUnits="userSpaceOnUse" x="0" y="0" width="24" height="24">
<path d="M24 0H0V24H24V0Z" fill="white"/>
</mask>
<g mask="url(#mask0_7_1578)">
<path d="M21.7 6.7C21.6 6.5 21.5 6.4 21.3 6.3C21.2 6.3 21.1 6.2 21 6.2H18.3C17.9 6.2 17.5 6.5 17.5 7C17.5 7.5 17.8 7.8 18.3 7.8H19.2L14.5 12.5C14.4 12.6 14.3 12.6 14.1 12.5L12 10.3C11.7 10 11.2 9.8 10.8 9.8C10.3 9.8 9.89995 10 9.59995 10.3L4.49995 15.4C4.19995 15.7 4.19995 16.2 4.49995 16.5C4.59995 16.6 4.79995 16.7 4.99995 16.7C5.19995 16.7 5.39995 16.6 5.49995 16.5L10.6 11.4C10.7 11.3 10.7 11.3 10.8 11.3C10.8 11.3 10.9 11.3 11 11.4L13.1 13.5C13.4 13.8 13.9 14 14.3 14C14.8 14 15.2 13.8 15.5 13.5L20.2 8.8V9.7C20.2 10.1 20.5 10.5 21 10.5C21.5 10.5 21.8 10.2 21.8 9.7V7C21.8 6.9 21.7 6.8 21.7 6.7Z" fill="white"/>
<path d="M21 20.2H2.69995V3.2C2.69995 2.8 2.39995 2.4 1.89995 2.4C1.39995 2.4 1.19995 2.8 1.19995 3.2V20.9C1.19995 21.3 1.49995 21.7 1.99995 21.7H21C21.4 21.7 21.7999 21.4 21.7999 20.9C21.7999 20.4 21.4 20.2 21 20.2Z" fill="white"/>
</g>
</g>
<defs>
<clipPath id="clip0_7_1578">
<rect width="24" height="24" fill="white"/>
</clipPath>
</defs>
</svg>
