<svg width="24" height="24" viewBox="0 0 24 24" fill="none" xmlns="http://www.w3.org/2000/svg">
<path d="M5 3.75C4.30921 3.75 3.75 4.30921 3.75 5V19C3.75 19.6908 4.30921 20.25 5 20.25H19C19.6908 20.25 20.25 19.6908 20.25 19V5C20.25 4.30921 19.6908 3.75 19 3.75H5ZM2.25 5C2.25 3.48079 3.48079 2.25 5 2.25H19C20.5192 2.25 21.75 3.48079 21.75 5V19C21.75 20.5192 20.5192 21.75 19 21.75H5C3.48079 21.75 2.25 20.5192 2.25 19V5ZM11.25 7C11.25 6.58579 11.5858 6.25 12 6.25C15.1752 6.25 17.75 8.82479 17.75 12C17.75 12.4142 17.4142 12.75 17 12.75H12C11.5858 12.75 11.25 12.4142 11.25 12V7ZM12.75 7.816V11.25H16.184C15.873 9.50424 14.4958 8.12698 12.75 7.816ZM9.38965 9.95491C9.74358 9.73971 9.85604 9.27834 9.64084 8.92442C9.42564 8.5705 8.96427 8.45804 8.61035 8.67324C7.20826 9.52576 6.25 11.0524 6.25 12.8331C6.25 15.5483 8.45179 17.7501 11.167 17.7501C12.9477 17.7501 14.4743 16.7918 15.3268 15.3897C15.542 15.0358 15.4296 14.5744 15.0757 14.3592C14.7217 14.144 14.2604 14.2565 14.0452 14.6104C13.4457 15.5963 12.3883 16.2501 11.167 16.2501C9.28021 16.2501 7.75 14.7199 7.75 12.8331C7.75 11.6118 8.40374 10.5544 9.38965 9.95491Z" fill="white"/>
</svg>
