<svg width="24" height="24" viewBox="0 0 24 24" fill="none" xmlns="http://www.w3.org/2000/svg">
<path d="M16.2167 6.71733C13.5936 4.09422 9.34044 4.09422 6.71733 6.71733C4.09422 9.34044 4.09422 13.5936 6.71733 16.2167C9.34044 18.8398 13.5936 18.8398 16.2167 16.2167C18.8398 13.5936 18.8398 9.34044 16.2167 6.71733ZM5.65667 5.65667C8.86556 2.44778 14.0684 2.44778 17.2773 5.65667C20.3075 8.6868 20.4763 13.4949 17.7838 16.7232L20.5303 19.4697C20.8232 19.7626 20.8232 20.2375 20.5303 20.5304C20.2374 20.8233 19.7626 20.8233 19.4697 20.5304L16.7231 17.7838C13.4949 20.4763 8.68678 20.3074 5.65667 17.2773C2.44778 14.0684 2.44778 8.86556 5.65667 5.65667ZM7.93103 11.1382C8.34524 11.1382 8.68103 11.474 8.68103 11.8882V12.8882C8.68103 13.3024 8.34524 13.6382 7.93103 13.6382C7.51682 13.6382 7.18103 13.3024 7.18103 12.8882V11.8882C7.18103 11.474 7.51682 11.1382 7.93103 11.1382ZM12 10.8882C12 10.474 11.6642 10.1382 11.25 10.1382C10.8358 10.1382 10.5 10.474 10.5 10.8882V12.8882C10.5 13.3024 10.8358 13.6382 11.25 13.6382C11.6642 13.6382 12 13.3024 12 12.8882V10.8882ZM14.569 9.13818C14.9832 9.13818 15.319 9.47397 15.319 9.88818V12.8882C15.319 13.3024 14.9832 13.6382 14.569 13.6382C14.1548 13.6382 13.819 13.3024 13.819 12.8882V9.88818C13.819 9.47397 14.1548 9.13818 14.569 9.13818Z" fill="white"/>
</svg>
