<svg width="24" height="24" viewBox="0 0 24 24" fill="none" xmlns="http://www.w3.org/2000/svg">
<path d="M3.75 5.075V14.925C3.75 15.6568 4.34321 16.25 5.075 16.25H8.99975H15.0009H18.925C19.6566 16.25 20.25 15.657 20.25 14.924V5.075C20.25 4.34345 19.657 3.75 18.924 3.75H5.075C4.34321 3.75 3.75 4.34321 3.75 5.075ZM8.03946 17.75H5.075C3.51479 17.75 2.25 16.4852 2.25 14.925V5.075C2.25 3.51479 3.51479 2.25 5.075 2.25H18.924C20.485 2.25 21.75 3.51455 21.75 5.075V14.924C21.75 16.485 20.4854 17.75 18.925 17.75H15.9605L16.7276 20.8183C16.8281 21.2201 16.5837 21.6273 16.1819 21.7278C15.7801 21.8282 15.3728 21.5839 15.2724 21.1821L14.4144 17.75H9.58562L8.7276 21.1821C8.62714 21.5839 8.21994 21.8282 7.81809 21.7278C7.41625 21.6273 7.17193 21.2201 7.27239 20.8183L8.03946 17.75ZM7.5 9.52295C7.91421 9.52295 8.25 9.85874 8.25 10.2729V12.9999C8.25 13.4142 7.91421 13.7499 7.5 13.7499C7.08579 13.7499 6.75 13.4142 6.75 12.9999V10.2729C6.75 9.85874 7.08579 9.52295 7.5 9.52295ZM11.25 7C11.25 6.58579 10.9142 6.25 10.5 6.25C10.0858 6.25 9.75 6.58579 9.75 7V13C9.75 13.4142 10.0858 13.75 10.5 13.75C10.9142 13.75 11.25 13.4142 11.25 13V7ZM13.5 8.9248C13.9142 8.9248 14.25 9.26059 14.25 9.6748V12.9998C14.25 13.414 13.9142 13.7498 13.5 13.7498C13.0858 13.7498 12.75 13.414 12.75 12.9998V9.6748C12.75 9.26059 13.0858 8.9248 13.5 8.9248ZM17.25 7.5459C17.25 7.13168 16.9142 6.7959 16.5 6.7959C16.0858 6.7959 15.75 7.13168 15.75 7.5459V12.9999C15.75 13.4141 16.0858 13.7499 16.5 13.7499C16.9142 13.7499 17.25 13.4141 17.25 12.9999V7.5459Z" fill="white"/>
</svg>
