<svg width="24" height="24" viewBox="0 0 24 24" fill="none" xmlns="http://www.w3.org/2000/svg">
<path d="M2.24976 6.99976C2.24976 7.41397 2.58554 7.74976 2.99976 7.74976H9.63176C10.0459 7.74976 10.3817 7.41397 10.3817 6.99976V2.99976C10.3817 2.58554 10.0459 2.24976 9.63176 2.24976H2.99976C2.58554 2.24976 2.24976 2.58554 2.24976 2.99976V6.99976ZM8.88176 6.24976H3.74976V3.74976H8.88176V6.24976ZM2.99986 14.7498C2.58565 14.7498 2.24986 14.414 2.24986 13.9998V9.99976C2.24986 9.58554 2.58565 9.24976 2.99986 9.24976H15.3158C15.73 9.24976 16.0658 9.58554 16.0658 9.99976V13.9998C16.0658 14.414 15.73 14.7498 15.3158 14.7498H2.99986ZM3.74986 13.2498H14.5658V10.7498H3.74986V13.2498ZM2.99996 21.7498C2.58574 21.7498 2.24996 21.414 2.24996 20.9998V16.9998C2.24996 16.5855 2.58574 16.2498 2.99996 16.2498H20.9999C21.4141 16.2498 21.7499 16.5855 21.7499 16.9998V20.9998C21.7499 21.414 21.4141 21.7498 20.9999 21.7498H2.99996ZM3.74996 20.2498H20.2499V17.7498H3.74996V20.2498Z" fill="white"/>
</svg>
