<svg width="24" height="24" viewBox="0 0 24 24" fill="none" xmlns="http://www.w3.org/2000/svg">
<g clip-path="url(#clip0_7_1986)">
<mask id="mask0_7_1986" style="mask-type:luminance" maskUnits="userSpaceOnUse" x="0" y="0" width="24" height="24">
<path d="M24 0H0V24H24V0Z" fill="white"/>
</mask>
<g mask="url(#mask0_7_1986)">
<path d="M19.9999 11.3C19.5999 11.3 19.1999 11.6 19.1999 12.1V20.1C19.1999 20.5 19.4999 20.9 19.9999 20.9C20.4999 20.9 20.7999 20.6 20.7999 20.1V12.1C20.7999 11.6 20.3999 11.3 19.9999 11.3Z" fill="white"/>
<path d="M14.6999 13.9C14.2999 13.9 13.8999 14.2 13.8999 14.7V20C13.8999 20.4 14.1999 20.8 14.6999 20.8C15.1999 20.8 15.4999 20.5 15.4999 20V14.7C15.4999 14.3 15.0999 13.9 14.6999 13.9Z" fill="white"/>
<path d="M3.9999 16.3C3.5999 16.3 3.1999 16.6 3.1999 17.1V20.1C3.1999 20.5 3.4999 20.9 3.9999 20.9C4.4999 20.9 4.7999 20.6 4.7999 20.1V17.1C4.7999 16.6 4.3999 16.3 3.9999 16.3Z" fill="white"/>
<path d="M9.2999 12.8C8.8999 12.8 8.4999 13.1 8.4999 13.6V20C8.4999 20.4 8.7999 20.8 9.2999 20.8C9.7999 20.8 9.9999 20.4 9.9999 20V13.6C9.9999 13.2 9.6999 12.8 9.2999 12.8Z" fill="white"/>
<path d="M21.8999 3.5C20.8999 2.5 19.2999 2.5 18.3999 3.5C17.6999 4.2 17.4999 5.3 17.8999 6.2L15.9999 7.6C15.0999 7.1 13.8999 7.1 13.0999 7.8L11.5999 6.8C11.7999 6 11.5999 5 10.9999 4.3C9.9999 3.3 8.3999 3.3 7.4999 4.3C7.0999 4.8 6.7999 5.5 6.7999 6.1C6.7999 6.4 6.8999 6.8 6.9999 7.1L5.1999 8.5C4.1999 7.9 2.8999 8 2.0999 8.8C1.6999 9.3 1.3999 10 1.3999 10.6C1.3999 11.3 1.6999 11.9 2.0999 12.4C2.5999 12.9 3.1999 13.1 3.8999 13.1C4.5999 13.1 5.1999 12.8 5.6999 12.4C6.1999 11.9 6.3999 11.3 6.3999 10.6C6.3999 10.3 6.2999 10 6.1999 9.7L7.9999 8.2C8.3999 8.5 8.8999 8.6 9.2999 8.6C9.8999 8.6 10.3999 8.4 10.8999 8L12.3999 9C12.2999 9.2 12.2999 9.4 12.2999 9.7C12.2999 10.4 12.5999 11 12.9999 11.5C13.4999 12 14.0999 12.2 14.7999 12.2C15.4999 12.2 16.0999 11.9 16.5999 11.5C17.0999 11 17.2999 10.4 17.2999 9.7C17.2999 9.4 17.1999 9 17.0999 8.7L18.7999 7.3C19.1999 7.6 19.6999 7.7 20.0999 7.7C20.6999 7.7 21.3999 7.5 21.8999 7C22.7999 6 22.7999 4.4 21.8999 3.5ZM4.5999 11.3C4.1999 11.7 3.5999 11.7 3.1999 11.3C2.9999 11.1 2.8999 10.9 2.8999 10.6C2.8999 10.3 2.9999 10.1 3.1999 9.9C3.3999 9.7 3.5999 9.6 3.8999 9.6C4.1999 9.6 4.3999 9.7 4.5999 9.9C4.7999 10.1 4.8999 10.3 4.8999 10.6C4.8999 10.9 4.7999 11.2 4.5999 11.3ZM8.5999 6.8C8.3999 6.7 8.2999 6.4 8.2999 6.1C8.2999 5.8 8.3999 5.6 8.5999 5.4C8.7999 5.2 8.9999 5.1 9.2999 5.1C9.5999 5.1 9.7999 5.2 9.9999 5.4C10.3999 5.8 10.3999 6.4 9.9999 6.8C9.5999 7.2 8.9999 7.2 8.5999 6.8ZM15.3999 10.5C14.9999 10.9 14.3999 10.9 13.9999 10.5C13.7999 10.3 13.6999 10.1 13.6999 9.8C13.6999 9.5 13.7999 9.2 13.9999 9C14.1999 8.8 14.3999 8.7 14.6999 8.7C14.9999 8.7 15.1999 8.8 15.3999 9C15.5999 9.2 15.6999 9.4 15.6999 9.7C15.6999 10 15.5999 10.3 15.3999 10.5ZM20.7999 5.9C20.3999 6.3 19.7999 6.3 19.3999 5.9C18.9999 5.5 18.9999 4.9 19.3999 4.5C19.5999 4.3 19.7999 4.2 20.0999 4.2C20.3999 4.2 20.5999 4.3 20.7999 4.5C21.1999 4.9 21.1999 5.6 20.7999 5.9Z" fill="white"/>
</g>
</g>
<defs>
<clipPath id="clip0_7_1986">
<rect width="24" height="24" fill="white"/>
</clipPath>
</defs>
</svg>
