<svg width="24" height="24" viewBox="0 0 24 24" fill="none" xmlns="http://www.w3.org/2000/svg">
<g clip-path="url(#clip0_7_1442)">
<mask id="mask0_7_1442" style="mask-type:luminance" maskUnits="userSpaceOnUse" x="0" y="0" width="24" height="24">
<path d="M24 0H0V24H24V0Z" fill="white"/>
</mask>
<g mask="url(#mask0_7_1442)">
<path d="M14.1 10.6H19.6C20.1 10.6 20.6 10.4 20.9 10C21.2 9.6 21.4 9.1 21.3 8.6C20.8 5 17.9 2.1 14.3 1.6C13.8 1.5 13.3 1.7 12.9 2C12.5 2.3 12.3 2.8 12.3 3.3V8.8C12.3 9.8 13.1 10.6 14.1 10.6ZM13.8 3.3C13.8 3.2 13.9 3.1 13.9 3.1L14 3C16.9 3.4 19.3 5.8 19.7 8.7C19.7 8.8 19.7 8.8 19.6 8.9C19.6 8.9 19.5 9 19.4 9H13.9C13.8 9 13.7 8.9 13.7 8.8V3.3H13.8Z" fill="white"/>
<path d="M19.6 12.3H15.5C14.8 12.3 14.2 12.7 13.9 13.4C13.6 14.1 13.8 14.8 14.3 15.3L17.2 18.2C17.5 18.5 18 18.7 18.4 18.7H18.5C19 18.7 19.5 18.4 19.8 18C20.6 16.9 21.1 15.6 21.3 14.3C21.4 13.8 21.2 13.3 20.9 12.9C20.6 12.6 20.1 12.3 19.6 12.3ZM18.6 17.1C18.6 17.2 18.5 17.2 18.4 17.2C18.4 17.2 18.3 17.2 18.2 17.1L15.3 14.2C15.2 14.1 15.2 14 15.2 13.9C15.2 13.8 15.3 13.7 15.4 13.7H19.5C19.6 13.7 19.7 13.8 19.7 13.8C19.7 13.8 19.8 13.9 19.8 14C19.7 15.2 19.2 16.3 18.6 17.1Z" fill="white"/>
<path d="M10.7 13.9C10.7 13.9 10.6 13.8 10.6 13.7V7.7C10.6 7.2 10.4 6.7 10 6.4C9.60003 6 9.10003 5.9 8.60003 5.9C6.40003 6.3 4.30003 7.5 3.00003 9.4C1.70003 11.3 1.20003 13.6 1.60003 15.9C2.20003 19.2 4.90003 21.8 8.10003 22.4C8.60003 22.5 9.20003 22.6 9.70003 22.6C11.5 22.6 13.2 22 14.6 21C15 20.7 15.3 20.2 15.3 19.7C15.3 19.2 15.2 18.7 14.8 18.3L10.7 13.9ZM13.9 19.7C12.3 20.8 10.4 21.3 8.50003 20.9C5.80003 20.4 3.70003 18.2 3.20003 15.6C2.80003 13.7 3.20003 11.8 4.30003 10.3C5.30003 8.7 7.00003 7.7 8.80003 7.4C8.90003 7.4 8.90003 7.4 9.00003 7.5C9.00003 7.5 9.10003 7.6 9.10003 7.7V13.8C9.10003 14.3 9.30003 14.7 9.60003 15L13.9 19.3C14 19.4 14 19.5 14 19.5C14 19.5 14 19.6 13.9 19.7Z" fill="white"/>
</g>
</g>
<defs>
<clipPath id="clip0_7_1442">
<rect width="24" height="24" fill="white"/>
</clipPath>
</defs>
</svg>
