<svg width="24" height="24" viewBox="0 0 24 24" fill="none" xmlns="http://www.w3.org/2000/svg">
<path d="M5 3.75C4.30921 3.75 3.75 4.30921 3.75 5V19C3.75 19.6908 4.30921 20.25 5 20.25H19C19.6908 20.25 20.25 19.6908 20.25 19V5C20.25 4.30921 19.6908 3.75 19 3.75H5ZM2.25 5C2.25 3.48079 3.48079 2.25 5 2.25H19C20.5192 2.25 21.75 3.48079 21.75 5V19C21.75 20.5192 20.5192 21.75 19 21.75H5C3.48079 21.75 2.25 20.5192 2.25 19V5ZM7 11.75C7.41421 11.75 7.75 12.0858 7.75 12.5V17.5C7.75 17.9142 7.41421 18.25 7 18.25C6.58579 18.25 6.25 17.9142 6.25 17.5V12.5C6.25 12.0858 6.58579 11.75 7 11.75ZM11.083 6.5C11.083 6.08579 10.7472 5.75 10.333 5.75C9.91879 5.75 9.58301 6.08579 9.58301 6.5V17.5C9.58301 17.9142 9.91879 18.25 10.333 18.25C10.7472 18.25 11.083 17.9142 11.083 17.5V6.5ZM13.665 10.6548C14.0792 10.6548 14.415 10.9906 14.415 11.4048V17.4998C14.415 17.914 14.0792 18.2498 13.665 18.2498C13.2508 18.2498 12.915 17.914 12.915 17.4998V11.4048C12.915 10.9906 13.2508 10.6548 13.665 10.6548ZM17.75 7.5C17.75 7.08579 17.4142 6.75 17 6.75C16.5858 6.75 16.25 7.08579 16.25 7.5V17.5C16.25 17.9142 16.5858 18.25 17 18.25C17.4142 18.25 17.75 17.9142 17.75 17.5V7.5Z" fill="white"/>
</svg>
