<svg width="24" height="24" viewBox="0 0 24 24" fill="none" xmlns="http://www.w3.org/2000/svg">
<path d="M5.5 10.75H6C6.13779 10.75 6.25 10.8622 6.25 11V16C6.25 16.1378 6.13779 16.25 6 16.25H5C4.30921 16.25 3.75 15.6908 3.75 15V12C3.75 11.3092 4.30921 10.75 5 10.75H5.5ZM12 2.25C8.07581 2.25 4.88004 5.36735 4.75387 9.26086C3.35004 9.38527 2.25 10.5637 2.25 12V15C2.25 16.5192 3.48079 17.75 5 17.75H6C6.96621 17.75 7.75 16.9662 7.75 16V11C7.75 10.1203 7.10021 9.39174 6.25458 9.2684C6.37611 6.2 8.90178 3.75 12 3.75C15.0982 3.75 17.6239 6.2 17.7454 9.2684C16.8998 9.39174 16.25 10.1203 16.25 11V16C16.25 16.6978 16.6589 17.3005 17.25 17.5815V18C17.25 18.6908 16.6908 19.25 16 19.25H14.4795C14.1827 18.5172 13.464 18 12.625 18H11.375C10.2708 18 9.375 18.8958 9.375 20C9.375 21.1042 10.2708 22 11.375 22H12.625C13.464 22 14.1827 21.4828 14.4795 20.75H16C17.5192 20.75 18.75 19.5192 18.75 18V17.75H19C20.5192 17.75 21.75 16.5192 21.75 15V12C21.75 10.5637 20.65 9.38527 19.2461 9.26086C19.12 5.36735 15.9242 2.25 12 2.25ZM13.125 20C13.125 20.2758 12.9008 20.5 12.625 20.5H11.375C11.0992 20.5 10.875 20.2758 10.875 20C10.875 19.7242 11.0992 19.5 11.375 19.5H12.625C12.9008 19.5 13.125 19.7242 13.125 20ZM18 16.25C17.8622 16.25 17.75 16.1378 17.75 16V11C17.75 10.8622 17.8622 10.75 18 10.75H18.5H19C19.6908 10.75 20.25 11.3092 20.25 12V15C20.25 15.6908 19.6908 16.25 19 16.25H18Z" fill="white"/>
</svg>
