<svg width="24" height="24" viewBox="0 0 24 24" fill="none" xmlns="http://www.w3.org/2000/svg">
<path d="M12.0001 2.25C6.63388 2.25 2.24609 6.63779 2.24609 12.004V19C2.24609 20.5192 3.47688 21.75 4.99609 21.75H6.45309C7.42079 21.75 8.20309 20.9657 8.20309 20V15.314C8.20309 14.3478 7.41931 13.564 6.45309 13.564H3.74609V12.004C3.74609 7.46621 7.46231 3.75 12.0001 3.75C16.5379 3.75 20.2541 7.46621 20.2541 12.004V13.564H17.5471C16.5809 13.564 15.7971 14.3478 15.7971 15.314V20C15.7971 20.9657 16.5794 21.75 17.5471 21.75H19.0041C20.5233 21.75 21.7541 20.5192 21.7541 19V12.004C21.7541 6.63779 17.3663 2.25 12.0001 2.25ZM17.5471 15.064H20.2541V19C20.2541 19.6908 19.6949 20.25 19.0041 20.25H17.5471C17.4088 20.25 17.2971 20.1382 17.2971 20V15.314C17.2971 15.1762 17.4093 15.064 17.5471 15.064ZM3.74609 19V15.064H6.45309C6.59088 15.064 6.70309 15.1762 6.70309 15.314V20C6.70309 20.1382 6.59139 20.25 6.45309 20.25H4.99609C4.30531 20.25 3.74609 19.6908 3.74609 19Z" fill="white"/>
</svg>
