<svg width="24" height="24" viewBox="0 0 24 24" fill="none" xmlns="http://www.w3.org/2000/svg">
<g clip-path="url(#clip0_7_1301)">
<mask id="mask0_7_1301" style="mask-type:luminance" maskUnits="userSpaceOnUse" x="0" y="0" width="24" height="24">
<path d="M24 0H0V24H24V0Z" fill="white"/>
</mask>
<g mask="url(#mask0_7_1301)">
<path d="M21.4002 14.4C20.6002 13.6 19.3002 13.5 18.4002 14.2L16.7002 15.5V15.2C16.7002 14.2 16.0002 13.3 15.0002 13L12.7002 12.4C11.2002 12 9.60019 12.3 8.4002 13.2L7.7002 13.7C7.5002 12.9 6.8002 12.3 6.0002 12.3H4.0002C3.0002 12.3 2.2002 13.1 2.2002 14.1V20.1C2.2002 21.1 3.0002 21.9 4.0002 21.9H6.0002C6.7002 21.9 7.30019 21.5 7.60019 20.9H8.5002C8.8002 20.9 9.0002 20.9 9.3002 21L11.9002 21.7C12.3002 21.8 12.7002 21.8 13.0002 21.8C13.3002 21.8 13.6002 21.8 13.9002 21.7L16.8002 21.1C17.7002 20.9 18.6002 20.5 19.2002 19.8L21.3002 17.7C22.3002 16.7 22.3002 15.3 21.4002 14.4ZM6.0002 20.3H4.0002C3.9002 20.3 3.8002 20.2 3.8002 20.1V14.1C3.8002 14 3.9002 13.9 4.0002 13.9H6.0002C6.1002 13.9 6.2002 14 6.2002 14.1V20.1C6.2002 20.1 6.1002 20.3 6.0002 20.3ZM20.3002 16.5L18.2002 18.6C17.7002 19.1 17.2002 19.4 16.5002 19.5L13.6002 20.1C13.1002 20.2 12.6002 20.2 12.2002 20.1L9.6002 19.4C9.2002 19.3 8.8002 19.3 8.4002 19.3H7.7002V15.5L9.2002 14.5C10.1002 13.9 11.3002 13.7 12.3002 14L14.6002 14.6C14.9002 14.7 15.2002 15 15.2002 15.3V15.6C15.2002 16 14.9002 16.4 14.4002 16.4H13.0002C12.6002 16.4 12.2002 16.7 12.2002 17.2C12.2002 17.7 12.5002 18 13.0002 18H15.3002C15.9002 18 16.5002 17.8 16.9002 17.4L19.3002 15.6C19.6002 15.4 20.0002 15.4 20.3002 15.7C20.6002 15.8 20.6002 16.2 20.3002 16.5Z" fill="white"/>
<path d="M14.5002 10.6C14.6002 10.7 14.8002 10.8 15.0002 10.8C15.2002 10.8 15.3002 10.7 15.5002 10.6C16.7002 9.69999 17.9002 8.39999 19.2002 6.79999C20.0002 5.69999 19.8002 3.99999 18.7002 2.89999C17.6002 1.99999 16.0002 1.99999 14.9002 2.99999C13.8002 2.09999 12.3002 1.99999 11.2002 2.99999C10.0002 3.99999 9.9002 5.79999 10.8002 6.99999C12.1002 8.49999 13.3002 9.69999 14.5002 10.6ZM12.2002 4.09999C12.5002 3.89999 12.8002 3.79999 13.1002 3.79999C13.5002 3.79999 13.8002 3.89999 14.1002 4.19999L14.4002 4.59999C14.7002 4.89999 15.2002 4.89999 15.5002 4.59999L15.8002 4.19999C16.3002 3.69999 17.1002 3.59999 17.7002 4.09999C18.2002 4.59999 18.3002 5.29999 17.9002 5.89999C16.9002 7.19999 15.9002 8.19999 14.9002 8.99999C14.0002 8.19999 13.0002 7.19999 12.0002 5.99999C11.6002 5.39999 11.6002 4.59999 12.2002 4.09999Z" fill="white"/>
</g>
</g>
<defs>
<clipPath id="clip0_7_1301">
<rect width="24" height="24" fill="white"/>
</clipPath>
</defs>
</svg>
