<svg width="24" height="24" viewBox="0 0 24 24" fill="none" xmlns="http://www.w3.org/2000/svg">
<path d="M17.2785 5.65899L15.4966 7.43459C13.4382 5.85397 10.5556 5.85514 8.49858 7.4381L6.72038 5.6599C9.77088 3.11367 14.2277 3.11337 17.2785 5.65899ZM5.65983 17.2795C3.11342 14.2287 3.11339 9.77139 5.65974 6.72058L7.43793 8.49877C5.85383 10.5574 5.85386 13.4427 7.43801 15.5013L5.65983 17.2795ZM14.9782 8.96821C14.9849 8.97541 14.9917 8.98252 14.9987 8.98953C15.0068 8.99767 15.015 9.0056 15.0234 9.01329C16.6647 10.6745 16.6586 13.3516 15.005 15.0052C13.3453 16.6649 10.6544 16.6649 8.99467 15.0052C7.33495 13.3455 7.33495 10.6545 8.99467 8.9948C10.6454 7.34398 13.3165 7.33512 14.9782 8.96821ZM16.5583 8.49421L18.3393 6.71949C20.8866 9.77036 20.8868 14.2284 18.3401 17.2796L16.5618 15.5013C18.147 13.4411 18.1459 10.5531 16.5583 8.49421ZM15.5011 16.5619L17.2794 18.3402C14.2286 20.8866 9.77127 20.8866 6.72049 18.3402L8.49868 16.562C10.5573 18.146 13.4425 18.146 15.5011 16.5619ZM18.8942 5.10571C15.0866 1.2981 8.91332 1.2981 5.10571 5.10571C1.2981 8.9133 1.2981 15.0867 5.10571 18.8943C8.9133 22.7019 15.0866 22.7019 18.8942 18.8943C22.7018 15.0867 22.7018 8.91332 18.8942 5.10571Z" fill="white"/>
</svg>
