<svg width="24" height="24" viewBox="0 0 24 24" fill="none" xmlns="http://www.w3.org/2000/svg">
<path d="M12 2C12.4142 2 12.75 2.33579 12.75 2.75V15.1893L16.4697 11.4697C16.7626 11.1768 17.2374 11.1768 17.5303 11.4697C17.8232 11.7626 17.8232 12.2374 17.5303 12.5303L12.5293 17.5313C12.3887 17.672 12.1979 17.751 11.999 17.751C11.8 17.751 11.6093 17.672 11.4686 17.5313L6.46861 12.5303C6.17575 12.2374 6.17579 11.7625 6.46872 11.4696C6.76164 11.1768 7.23651 11.1768 7.52938 11.4697L11.25 15.1911V2.75C11.25 2.33579 11.5858 2 12 2ZM3 16.25C3.41421 16.25 3.75 16.5858 3.75 17C3.75 18.7948 5.20521 20.25 7 20.25H17C18.7948 20.25 20.25 18.7948 20.25 17C20.25 16.5858 20.5858 16.25 21 16.25C21.4142 16.25 21.75 16.5858 21.75 17C21.75 19.6232 19.6232 21.75 17 21.75H7C4.37679 21.75 2.25 19.6232 2.25 17C2.25 16.5858 2.58579 16.25 3 16.25Z" fill="white"/>
</svg>
