<svg width="24" height="24" viewBox="0 0 24 24" fill="none" xmlns="http://www.w3.org/2000/svg">
<path d="M12 2.1499C11.5158 2.1499 11.125 2.54069 11.125 3.0249C11.125 3.50912 11.5158 3.8999 12 3.8999C12.4842 3.8999 12.875 3.50912 12.875 3.0249C12.875 2.54069 12.4842 2.1499 12 2.1499ZM11.125 7.00977C11.125 6.52555 11.5158 6.13477 12 6.13477C12.4842 6.13477 12.875 6.52555 12.875 7.00977C12.875 7.49398 12.4842 7.88477 12 7.88477C11.5158 7.88477 11.125 7.49398 11.125 7.00977ZM12 9C12.4142 9 12.75 9.33579 12.75 9.75V15.1893L15.4697 12.4697C15.7626 12.1768 16.2374 12.1768 16.5303 12.4697C16.8232 12.7626 16.8232 13.2374 16.5303 13.5303L12.5293 17.5313C12.3887 17.672 12.1979 17.751 11.9989 17.751C11.8 17.751 11.6092 17.6719 11.4686 17.5313L7.4686 13.5303C7.17574 13.2373 7.1758 12.7625 7.46873 12.4696C7.76166 12.1767 8.23653 12.1768 8.52939 12.4697L11.25 15.191V9.75C11.25 9.33579 11.5858 9 12 9ZM3.25 21C3.25 20.5858 3.58579 20.25 4 20.25H20C20.4142 20.25 20.75 20.5858 20.75 21C20.75 21.4142 20.4142 21.75 20 21.75H4C3.58579 21.75 3.25 21.4142 3.25 21Z" fill="white"/>
</svg>
