<svg width="24" height="24" viewBox="0 0 24 24" fill="none" xmlns="http://www.w3.org/2000/svg">
<path d="M12 2.25C11.5858 2.25 11.25 2.58579 11.25 3C11.25 3.41421 11.5858 3.75 12 3.75C16.5568 3.75 20.25 7.44321 20.25 12C20.25 13.6974 19.7263 15.2667 18.841 16.581C18.6096 16.9245 18.7004 17.3906 19.044 17.622C19.3875 17.8534 19.8536 17.7626 20.085 17.419C21.1277 15.8713 21.75 14.0126 21.75 12C21.75 6.61479 17.3852 2.25 12 2.25ZM7.3295 4.28241C7.5724 4.61793 7.49732 5.08683 7.1618 5.32973C6.63239 5.713 6.15156 6.15385 5.7304 6.64718C5.46146 6.96221 4.98805 6.99957 4.67303 6.73063C4.358 6.46169 4.32064 5.98829 4.58958 5.67326C5.09041 5.0866 5.65959 4.56544 6.28218 4.11471C6.61769 3.87181 7.0866 3.94689 7.3295 4.28241ZM17.6231 19.0646C17.8536 19.4087 17.7615 19.8746 17.4174 20.1051C15.8681 21.143 14.0046 21.75 12 21.75C11.0119 21.75 10.0594 21.6004 9.16186 21.3276C8.76555 21.2071 8.54194 20.7882 8.66241 20.3919C8.78288 19.9956 9.20181 19.772 9.59812 19.8924C10.3586 20.1236 11.1641 20.25 12 20.25C13.6974 20.25 15.2718 19.737 16.5826 18.8589C16.9267 18.6284 17.3925 18.7205 17.6231 19.0646ZM12.75 8C12.75 7.58579 12.4142 7.25 12 7.25C11.5858 7.25 11.25 7.58579 11.25 8V14.1893L9.53033 12.4697C9.23744 12.1768 8.76256 12.1768 8.46967 12.4697C8.17678 12.7626 8.17678 13.2374 8.46967 13.5303L11.4697 16.5303C11.5416 16.6022 11.6245 16.6565 11.7129 16.6931C11.8013 16.7298 11.8983 16.75 12 16.75C12.1017 16.75 12.1987 16.7298 12.2871 16.6931C12.3755 16.6565 12.4584 16.6022 12.5303 16.5303L15.5303 13.5303C15.8232 13.2374 15.8232 12.7626 15.5303 12.4697C15.2374 12.1768 14.7626 12.1768 14.4697 12.4697L12.75 14.1893V8ZM4.22992 14.7497C4.09156 14.3593 3.6629 14.1549 3.27248 14.2933C2.88205 14.4316 2.67772 14.8603 2.81608 15.2507C3.4234 16.9644 4.48899 18.4616 5.87765 19.5836C6.19984 19.8439 6.67206 19.7937 6.93238 19.4716C7.1927 19.1494 7.14254 18.6771 6.82035 18.4168C5.64701 17.4688 4.7446 16.202 4.22992 14.7497ZM3.77344 8.29325C4.16388 8.43157 4.36827 8.86021 4.22995 9.25065C3.92341 10.116 3.75 11.0374 3.75 12.0002C3.75 12.4144 3.41421 12.7502 3 12.7502C2.58579 12.7502 2.25 12.4144 2.25 12.0002C2.25 10.855 2.45659 9.76444 2.81605 8.74976C2.95436 8.35933 3.383 8.15494 3.77344 8.29325Z" fill="white"/>
</svg>
