<svg width="24" height="24" viewBox="0 0 24 24" fill="none" xmlns="http://www.w3.org/2000/svg">
<path d="M12 2.25C12.4142 2.25 12.75 2.58579 12.75 3V15.1893L14.4697 13.4697C14.7626 13.1768 15.2374 13.1768 15.5303 13.4697C15.8232 13.7626 15.8232 14.2374 15.5303 14.5303L12.5303 17.5303C12.4584 17.6022 12.3755 17.6565 12.2871 17.6931C12.1987 17.7298 12.1017 17.75 12 17.75C11.8983 17.75 11.8013 17.7298 11.7129 17.6931C11.6245 17.6565 11.5416 17.6022 11.4697 17.5303L8.46967 14.5303C8.17678 14.2374 8.17678 13.7626 8.46967 13.4697C8.76256 13.1768 9.23744 13.1768 9.53033 13.4697L11.25 15.1893V3C11.25 2.58579 11.5858 2.25 12 2.25ZM5 9.25C3.48079 9.25 2.25 10.4808 2.25 12V19C2.25 20.5192 3.48079 21.75 5 21.75H19C20.5192 21.75 21.75 20.5192 21.75 19V12C21.75 10.4808 20.5192 9.25 19 9.25H16C15.5858 9.25 15.25 9.58579 15.25 10C15.25 10.4142 15.5858 10.75 16 10.75H19C19.6908 10.75 20.25 11.3092 20.25 12V19C20.25 19.6908 19.6908 20.25 19 20.25H5C4.30921 20.25 3.75 19.6908 3.75 19V12C3.75 11.3092 4.30921 10.75 5 10.75H8C8.41421 10.75 8.75 10.4142 8.75 10C8.75 9.58579 8.41421 9.25 8 9.25H5Z" fill="white"/>
</svg>
