<svg width="24" height="24" viewBox="0 0 24 24" fill="none" xmlns="http://www.w3.org/2000/svg">
<path d="M12 1C12.4142 1 12.75 1.33579 12.75 1.75V15.1893L16.4697 11.4697C16.7626 11.1768 17.2374 11.1768 17.5303 11.4697C17.8232 11.7626 17.8232 12.2374 17.5303 12.5303L12.5293 17.5313C12.3887 17.672 12.1979 17.751 11.999 17.751C11.8 17.751 11.6093 17.672 11.4686 17.5313L6.46861 12.5303C6.17575 12.2374 6.17579 11.7625 6.46872 11.4696C6.76164 11.1768 7.23651 11.1768 7.52938 11.4697L11.25 15.1911V1.75C11.25 1.33579 11.5858 1 12 1ZM3.25 21C3.25 20.5858 3.58579 20.25 4 20.25H20C20.4142 20.25 20.75 20.5858 20.75 21C20.75 21.4142 20.4142 21.75 20 21.75H4C3.58579 21.75 3.25 21.4142 3.25 21Z" fill="white"/>
</svg>
