<svg width="24" height="24" viewBox="0 0 24 24" fill="none" xmlns="http://www.w3.org/2000/svg">
<path d="M14.3268 2.31083C12.7472 1.95965 11.25 3.16132 11.25 4.77896V19.265C11.25 20.8816 12.7472 22.0834 14.3259 21.732L18.7689 20.7443C19.9268 20.4882 20.75 19.4614 20.75 18.277V5.76596C20.75 4.58179 19.9269 3.55493 18.7701 3.29869L14.3268 2.31083ZM12.75 4.77896C12.75 4.1206 13.3588 3.63226 14.0012 3.77508L18.4459 4.76322C18.915 4.86708 19.25 5.28422 19.25 5.76596V18.277C19.25 18.7585 18.9144 19.1759 18.4442 19.2798L14.0001 20.2679C13.3588 20.4106 12.75 19.9224 12.75 19.265V4.77896ZM15.75 10.98C15.75 10.5658 15.4142 10.23 15 10.23C14.5858 10.23 14.25 10.5658 14.25 10.98V12.98C14.25 13.3942 14.5858 13.73 15 13.73C15.4142 13.73 15.75 13.3942 15.75 12.98V10.98ZM4 15.25C4.41421 15.25 4.75 15.5858 4.75 16V18.042C4.75 18.7328 5.30921 19.292 6 19.292H9C9.41421 19.292 9.75 19.6278 9.75 20.042C9.75 20.4562 9.41421 20.792 9 20.792H6C4.48079 20.792 3.25 19.5612 3.25 18.042V16C3.25 15.5858 3.58579 15.25 4 15.25ZM4.75 6C4.75 5.30921 5.30921 4.75 6 4.75H9C9.41421 4.75 9.75 4.41421 9.75 4C9.75 3.58579 9.41421 3.25 9 3.25H6C4.48079 3.25 3.25 4.48079 3.25 6V8C3.25 8.41421 3.58579 8.75 4 8.75C4.41421 8.75 4.75 8.41421 4.75 8V6ZM3.25 12C3.25 11.5858 3.58579 11.25 4 11.25H7.18934L6.46967 10.5303C6.17678 10.2374 6.17678 9.76256 6.46967 9.46967C6.76256 9.17678 7.23744 9.17678 7.53033 9.46967L9.53033 11.4697C9.60224 11.5416 9.65649 11.6245 9.69309 11.7129C9.72976 11.8013 9.75 11.8983 9.75 12C9.75 12.1017 9.72976 12.1987 9.69309 12.2871C9.65649 12.3755 9.60224 12.4584 9.53033 12.5303L7.53033 14.5303C7.23744 14.8232 6.76256 14.8232 6.46967 14.5303C6.17678 14.2374 6.17678 13.7626 6.46967 13.4697L7.18934 12.75H4C3.58579 12.75 3.25 12.4142 3.25 12Z" fill="white"/>
</svg>
