<svg width="24" height="24" viewBox="0 0 24 24" fill="none" xmlns="http://www.w3.org/2000/svg">
<g clip-path="url(#clip0_7_2222)">
<mask id="mask0_7_2222" style="mask-type:luminance" maskUnits="userSpaceOnUse" x="0" y="0" width="24" height="24">
<path d="M24 0H0V24H24V0Z" fill="white"/>
</mask>
<g mask="url(#mask0_7_2222)">
<path d="M6.0002 5.8H8.0002C8.4002 5.8 8.8002 5.5 8.8002 5C8.8002 4.5 8.4002 4.3 8.0002 4.3H6.0002C4.5002 4.3 3.2002 5.5 3.2002 7V17C3.2002 18.5 4.4002 19.8 6.0002 19.8H8.0002C8.4002 19.8 8.8002 19.5 8.8002 19C8.8002 18.5 8.4002 18.3 8.0002 18.3H6.0002C5.3002 18.3 4.8002 17.7 4.8002 17.1V7C4.8002 6.3 5.3002 5.8 6.0002 5.8Z" fill="white"/>
<path d="M18.6002 3.4L13.6002 2.3C12.8002 2.1 11.9002 2.3 11.3002 2.8C10.6002 3.3 10.3002 4.1 10.3002 4.9V18.9C10.3002 19.7 10.7002 20.5 11.3002 21C11.8002 21.4 12.4002 21.6 13.0002 21.6C13.2002 21.6 13.4002 21.6 13.6002 21.5L18.6002 20.4C19.9002 20.1 20.8002 19 20.8002 17.7V6.1C20.8002 4.8 19.8002 3.7 18.6002 3.4ZM19.2002 17.9C19.2002 18.5 18.8002 19 18.2002 19.1L13.2002 20.2C12.8002 20.3 12.4002 20.2 12.1002 20C11.8002 19.8 11.6002 19.4 11.6002 19V5C11.6002 4.6 11.8002 4.3 12.1002 4C12.3002 3.8 12.6002 3.7 12.9002 3.7C13.0002 3.7 13.1002 3.7 13.2002 3.7L18.2002 4.8C18.8002 4.9 19.2002 5.4 19.2002 6V17.9Z" fill="white"/>
<path d="M14.0002 10.3C13.6002 10.3 13.2002 10.6 13.2002 11.1V13.1C13.2002 13.5 13.5002 13.9 14.0002 13.9C14.5002 13.9 14.8002 13.6 14.8002 13.1V11.1C14.8002 10.6 14.4002 10.3 14.0002 10.3Z" fill="white"/>
</g>
</g>
<defs>
<clipPath id="clip0_7_2222">
<rect width="24" height="24" fill="white"/>
</clipPath>
</defs>
</svg>
