<svg width="24" height="24" viewBox="0 0 24 24" fill="none" xmlns="http://www.w3.org/2000/svg">
<path d="M6.6863 4.75C5.90144 4.75 5.2793 5.37725 5.2793 6.135V17.865C5.2793 18.6254 5.90629 19.254 6.69254 19.25L10.8609 19.231C11.2751 19.2291 11.6124 19.5634 11.6143 19.9776C11.6162 20.3918 11.2819 20.7291 10.8677 20.731L6.70007 20.75C5.09647 20.7579 3.7793 19.4705 3.7793 17.865V6.135C3.7793 4.53475 5.08716 3.25 6.6863 3.25H11.0003C11.4145 3.25 11.7503 3.58579 11.7503 4C11.7503 4.41421 11.4145 4.75 11.0003 4.75H6.6863ZM9.1103 12C9.1103 11.5858 9.44608 11.25 9.8603 11.25H18.1896L15.47 8.53033C15.1771 8.23744 15.1771 7.76256 15.47 7.46967C15.7629 7.17678 16.2377 7.17678 16.5306 7.46967L20.5306 11.4697C20.6071 11.5462 20.6636 11.6351 20.7002 11.7299C20.7272 11.7999 20.7441 11.8751 20.7489 11.9534C20.7508 11.9844 20.7508 12.0156 20.7489 12.0466C20.7441 12.1249 20.7272 12.2001 20.7002 12.2701C20.6636 12.3649 20.6071 12.4538 20.5306 12.5303L16.5306 16.5303C16.2377 16.8232 15.7629 16.8232 15.47 16.5303C15.1771 16.2374 15.1771 15.7626 15.47 15.4697L18.1896 12.75H9.8603C9.44608 12.75 9.1103 12.4142 9.1103 12Z" fill="white"/>
</svg>
