<svg width="24" height="24" viewBox="0 0 24 24" fill="none" xmlns="http://www.w3.org/2000/svg">
<path d="M16 3.25C15.5858 3.25 15.25 3.58579 15.25 4C15.25 4.41421 15.5858 4.75 16 4.75H18C18.6908 4.75 19.25 5.30921 19.25 6V18C19.25 18.6908 18.6908 19.25 18 19.25H16C15.5858 19.25 15.25 19.5858 15.25 20C15.25 20.4142 15.5858 20.75 16 20.75H18C19.5192 20.75 20.75 19.5192 20.75 18V6C20.75 4.48079 19.5192 3.25 18 3.25H16ZM10.4687 6.46967C10.7616 6.17678 11.2364 6.17678 11.5293 6.46967L16.5066 11.447C16.6562 11.5841 16.75 11.7811 16.75 12V12.0077C16.7482 12.2042 16.6694 12.3923 16.5303 12.5314L11.5293 17.5314C11.2363 17.8242 10.7615 17.8242 10.4686 17.5313C10.1757 17.2384 10.1758 16.7635 10.4687 16.4706L14.1901 12.75H4C3.58579 12.75 3.25 12.4142 3.25 12C3.25 11.5858 3.58579 11.25 4 11.25H14.1883L10.4687 7.53033C10.1758 7.23744 10.1758 6.76256 10.4687 6.46967Z" fill="white"/>
</svg>
