<svg width="24" height="24" viewBox="0 0 24 24" fill="none" xmlns="http://www.w3.org/2000/svg">
<path d="M5.25 2.25C3.59279 2.25 2.25 3.59279 2.25 5.25V7.5C2.25 7.91421 2.58579 8.25 3 8.25C3.41421 8.25 3.75 7.91421 3.75 7.5V5.25C3.75 4.42121 4.42121 3.75 5.25 3.75H18.75C19.5788 3.75 20.25 4.42121 20.25 5.25V18.75C20.25 19.5788 19.5788 20.25 18.75 20.25H5.25C4.42121 20.25 3.75 19.5788 3.75 18.75V16.5C3.75 16.0858 3.41421 15.75 3 15.75C2.58579 15.75 2.25 16.0858 2.25 16.5V18.75C2.25 20.4072 3.59279 21.75 5.25 21.75H18.75C20.4072 21.75 21.75 20.4072 21.75 18.75V5.25C21.75 3.59279 20.4072 2.25 18.75 2.25H5.25ZM11.4697 8.09467C11.7626 7.80178 12.2374 7.80178 12.5303 8.09467L15.8562 11.4206C16.0234 11.5581 16.13 11.7666 16.13 12C16.13 12.2334 16.0234 12.4419 15.8562 12.5795L12.5303 15.9044C12.2373 16.1973 11.7624 16.1972 11.4696 15.9043C11.1767 15.6113 11.1768 15.1364 11.4697 14.8436L13.564 12.75H3C2.58579 12.75 2.25 12.4142 2.25 12C2.25 11.5858 2.58579 11.25 3 11.25H13.5643L11.4697 9.15533C11.1768 8.86244 11.1768 8.38756 11.4697 8.09467Z" fill="white"/>
</svg>
