<svg width="24" height="24" viewBox="0 0 24 24" fill="none" xmlns="http://www.w3.org/2000/svg">
<path d="M9.71291 1.30691C9.62445 1.34351 9.54158 1.39776 9.46967 1.46967L7.46967 3.46967C7.17678 3.76256 7.17678 4.23744 7.46967 4.53033C7.76256 4.82322 8.23744 4.82322 8.53033 4.53033L9.25 3.81066V12C9.25 12.4142 9.58579 12.75 10 12.75C10.4142 12.75 10.75 12.4142 10.75 12V3.81066L11.4697 4.53033C11.7626 4.82322 12.2374 4.82322 12.5303 4.53033C12.8232 4.23744 12.8232 3.76256 12.5303 3.46967L10.5303 1.46967C10.3946 1.33395 10.2071 1.25 10 1.25L9.71291 1.30691ZM16.75 9.25V8C16.75 7.03379 15.9662 6.25 15 6.25H13C12.5858 6.25 12.25 6.58579 12.25 7C12.25 7.41421 12.5858 7.75 13 7.75H15C15.1378 7.75 15.25 7.86221 15.25 8V10V16C15.25 16.1378 15.1378 16.25 15 16.25H8H5C4.86221 16.25 4.75 16.1378 4.75 16V8C4.75 7.86221 4.86221 7.75 5 7.75H7C7.41421 7.75 7.75 7.41421 7.75 7C7.75 6.58579 7.41421 6.25 7 6.25H5C4.03379 6.25 3.25 7.03379 3.25 8V16C3.25 16.9662 4.03379 17.75 5 17.75H7.25V20C7.25 20.9662 8.03379 21.75 9 21.75H19C19.9662 21.75 20.75 20.9662 20.75 20V11C20.75 10.0338 19.9662 9.25 19 9.25H16.75ZM16.75 10.75H19C19.1378 10.75 19.25 10.8622 19.25 11V20C19.25 20.1378 19.1378 20.25 19 20.25H9C8.86221 20.25 8.75 20.1378 8.75 20V17.75H15C15.9662 17.75 16.75 16.9662 16.75 16V10.75Z" fill="white"/>
</svg>
