<svg width="24" height="24" viewBox="0 0 24 24" fill="none" xmlns="http://www.w3.org/2000/svg">
<path d="M17.1 9.9C19.0054 9.9 20.55 8.35538 20.55 6.45C20.55 4.54462 19.0054 3 17.1 3C15.1946 3 13.65 4.54462 13.65 6.45C13.65 6.6794 13.6724 6.90357 13.7151 7.12045L9.02818 9.45726C8.39626 8.74712 7.47537 8.2998 6.45 8.2998C4.54462 8.2998 3 9.84442 3 11.7498C3 13.6552 4.54462 15.1998 6.45 15.1998C7.50647 15.1998 8.45202 14.7249 9.08487 13.977L13.7232 16.2896C13.6752 16.5188 13.65 16.7564 13.65 16.9998C13.65 18.9052 15.1946 20.4498 17.1 20.4498C19.0054 20.4498 20.55 18.9052 20.55 16.9998C20.55 15.0944 19.0054 13.5498 17.1 13.5498C15.9557 13.5498 14.9415 14.1069 14.3139 14.9647L9.76802 12.6982C9.85398 12.3969 9.9 12.0787 9.9 11.7498C9.9 11.3911 9.84526 11.0452 9.74368 10.72L14.2906 8.45296C14.9163 9.32895 15.9415 9.9 17.1 9.9ZM17.105 8.4002C16.0142 8.4002 15.13 7.51596 15.13 6.4252C15.13 5.33443 16.0142 4.4502 17.105 4.4502C18.1958 4.4502 19.08 5.33443 19.08 6.4252C19.08 7.51596 18.1958 8.4002 17.105 8.4002ZM17.105 18.95C16.0142 18.95 15.13 18.0658 15.13 16.975C15.13 15.8842 16.0142 15 17.105 15C18.1958 15 19.08 15.8842 19.08 16.975C19.08 18.0658 18.1958 18.95 17.105 18.95ZM8.43 11.725C8.43 12.8158 7.54576 13.7 6.455 13.7C5.36424 13.7 4.48 12.8158 4.48 11.725C4.48 10.6342 5.36424 9.75 6.455 9.75C7.54576 9.75 8.43 10.6342 8.43 11.725Z" fill="white"/>
</svg>
