<svg width="24" height="24" viewBox="0 0 24 24" fill="none" xmlns="http://www.w3.org/2000/svg">
<path d="M15.638 3.88704V6.04504C15.638 6.45926 15.3022 6.79504 14.888 6.79504C12.8774 6.79504 11.0718 7.48236 9.77473 8.70525C8.81427 9.61076 8.10879 10.8319 7.81074 12.3419C9.63048 10.4932 12.2055 9.79404 14.888 9.79404C15.3022 9.79404 15.638 10.1298 15.638 10.544V13.261C15.638 13.2997 15.6481 13.3214 15.658 13.336C15.6702 13.3537 15.6905 13.3719 15.7186 13.3843C15.7468 13.3968 15.7742 13.3997 15.7959 13.3967C15.8138 13.3943 15.8369 13.387 15.8653 13.3613L21.2053 8.52039C21.2653 8.46608 21.2644 8.36986 21.2027 8.31774L15.8616 3.78379C15.7729 3.70846 15.638 3.77105 15.638 3.88704ZM14.138 3.88704C14.138 2.49303 15.7691 1.73762 16.8324 2.64029L22.1717 7.17275C22.9255 7.81058 22.9453 8.9687 22.212 9.63233L16.8723 14.4731C15.8229 15.4229 14.138 14.6817 14.138 13.261V11.3145C11.1987 11.4781 8.79449 12.6395 7.58738 15.3091C7.44181 15.631 7.09131 15.8077 6.74594 15.7332C6.40057 15.6587 6.15399 15.3533 6.15399 15V14C6.15399 11.3235 7.1348 9.13262 8.74575 7.61383C10.1782 6.26338 12.0745 5.476 14.138 5.32271V3.88704ZM5 2.25C3.48079 2.25 2.25 3.48079 2.25 5V19C2.25 20.5192 3.48079 21.75 5 21.75H19C20.5192 21.75 21.75 20.5192 21.75 19V15C21.75 14.5858 21.4142 14.25 21 14.25C20.5858 14.25 20.25 14.5858 20.25 15V19C20.25 19.6908 19.6908 20.25 19 20.25H5C4.30921 20.25 3.75 19.6908 3.75 19V5C3.75 4.30921 4.30921 3.75 5 3.75H10C10.4142 3.75 10.75 3.41421 10.75 3C10.75 2.58579 10.4142 2.25 10 2.25H5Z" fill="white"/>
</svg>
