<svg width="24" height="24" viewBox="0 0 24 24" fill="none" xmlns="http://www.w3.org/2000/svg">
<path d="M3.75 5C3.75 4.30921 4.30921 3.75 5 3.75H19C19.6908 3.75 20.25 4.30921 20.25 5V19C20.25 19.6908 19.6908 20.25 19 20.25H5C4.30921 20.25 3.75 19.6908 3.75 19V5ZM5 2.25C3.48079 2.25 2.25 3.48079 2.25 5V19C2.25 20.5192 3.48079 21.75 5 21.75H19C20.5192 21.75 21.75 20.5192 21.75 19V5C21.75 3.48079 20.5192 2.25 19 2.25H5ZM6.25005 6.9911C6.25497 6.57692 6.59472 6.24514 7.0089 6.25005C8.35204 6.26599 9.61966 6.49251 10.7839 6.90384L10.792 6.90677C13.776 7.96391 16.038 10.2266 17.0943 13.2111L17.0962 13.2162C17.5075 14.3804 17.734 15.648 17.7499 16.9911C17.7549 17.4053 17.4231 17.7451 17.0089 17.75C16.5947 17.7549 16.255 17.4231 16.2501 17.0089C16.236 15.8259 16.0371 14.7231 15.6835 13.7206L15.6818 13.7159C14.7764 11.1536 12.8464 9.22368 10.2841 8.31819L10.2766 8.3155C9.27482 7.9625 8.173 7.76397 6.9911 7.74995C6.57692 7.74503 6.24514 7.40529 6.25005 6.9911ZM7.0164 11.2502C6.60228 11.2411 6.25924 11.5695 6.25018 11.9836C6.24113 12.3977 6.56949 12.7408 6.98361 12.7498C8.27516 12.7781 9.31814 13.2315 10.0433 13.9567C10.7685 14.6819 11.2219 15.7248 11.2502 17.0164C11.2592 17.4305 11.6023 17.7589 12.0164 17.7498C12.4305 17.7408 12.7589 17.3977 12.7498 16.9836C12.7141 15.3482 12.131 13.9231 11.104 12.896C10.0769 11.869 8.65184 11.2859 7.0164 11.2502ZM7.374 15.5C6.75599 15.5 6.2479 16.0011 6.25099 16.6268L6.251 16.6214L7 16.625L6.25099 16.6268C6.25092 17.249 6.75628 17.75 7.375 17.75C7.99621 17.75 8.5 17.2462 8.5 16.625C8.5 16.0025 7.99491 15.5 7.374 15.5Z" fill="white"/>
</svg>
