<svg width="24" height="24" viewBox="0 0 24 24" fill="none" xmlns="http://www.w3.org/2000/svg">
<path d="M12.75 3C12.75 2.58579 12.4142 2.25 12 2.25C11.5858 2.25 11.25 2.58579 11.25 3V4.28615C9.52344 4.45302 7.84219 5.19761 6.51988 6.51992C5.19758 7.84222 4.45299 9.52346 4.28611 11.25H3C2.58579 11.25 2.25 11.5858 2.25 12C2.25 12.4142 2.58579 12.75 3 12.75H4.28611C4.45299 14.4765 5.19758 16.1578 6.51988 17.4801C7.84219 18.8024 9.52344 19.547 11.25 19.7138V21C11.25 21.4142 11.5858 21.75 12 21.75C12.4142 21.75 12.75 21.4142 12.75 21V19.7138C14.4765 19.5469 16.1577 18.8024 17.48 17.4801C18.8023 16.1578 19.5469 14.4765 19.7138 12.75H21C21.4142 12.75 21.75 12.4142 21.75 12C21.75 11.5858 21.4142 11.25 21 11.25H19.7138C19.5469 9.52346 18.8023 7.84222 17.48 6.51992C16.1577 5.19764 14.4765 4.45305 12.75 4.28616V3ZM18.2051 11.25H17C16.5858 11.25 16.25 11.5858 16.25 12C16.25 12.4142 16.5858 12.75 17 12.75H18.2051C18.0439 14.0912 17.4486 15.3901 16.4194 16.4194C15.3901 17.4487 14.0912 18.0439 12.75 18.2051V17C12.75 16.5858 12.4142 16.25 12 16.25C11.5858 16.25 11.25 16.5858 11.25 17V18.2051C9.9088 18.0439 8.60982 17.4487 7.58054 16.4194C6.55126 15.3901 5.95603 14.0912 5.79485 12.75H7C7.41421 12.75 7.75 12.4142 7.75 12C7.75 11.5858 7.41421 11.25 7 11.25H5.79485C5.95603 9.90881 6.55126 8.60986 7.58054 7.58058C8.60982 6.5513 9.9088 5.95606 11.25 5.79489V7C11.25 7.41421 11.5858 7.75 12 7.75C12.4142 7.75 12.75 7.41421 12.75 7V5.7949C14.0912 5.95609 15.3901 6.55132 16.4194 7.58058C17.4486 8.60986 18.0439 9.90881 18.2051 11.25ZM11.1161 11.1161C11.6042 10.628 12.3957 10.628 12.8839 11.1161C13.372 11.6043 13.372 12.3957 12.8839 12.8839C12.3957 13.372 11.6042 13.372 11.1161 12.8839C10.6279 12.3957 10.6279 11.6043 11.1161 11.1161ZM13.9445 13.9445C15.0185 12.8706 15.0185 11.1294 13.9445 10.0555C12.8706 8.98151 11.1294 8.98151 10.0554 10.0555C8.98148 11.1294 8.98148 12.8706 10.0554 13.9445C11.1294 15.0185 12.8706 15.0185 13.9445 13.9445Z" fill="white"/>
</svg>
