<svg width="24" height="24" viewBox="0 0 24 24" fill="none" xmlns="http://www.w3.org/2000/svg">
<path d="M18.2782 2.25971C18.5162 2.29835 18.7211 2.44906 18.8289 2.66474L19.6641 4.33595L21.3353 5.17112C21.5509 5.2789 21.7017 5.4838 21.7403 5.72179C21.7789 5.95979 21.7008 6.20185 21.5303 6.37234L18.6883 9.21434C18.5477 9.35499 18.3569 9.43401 18.158 9.43401H15.6268L12.0603 13.0005C11.7674 13.2934 11.2926 13.2934 10.9997 13.0005C10.7068 12.7076 10.7068 12.2327 10.9997 11.9398L14.566 8.37352V5.84201C14.566 5.6431 14.645 5.45233 14.7857 5.31168L17.6277 2.46968C17.7982 2.29919 18.0402 2.22106 18.2782 2.25971ZM16.066 6.15267V7.93401H17.8473L19.7337 6.04764L18.7697 5.5659C18.6245 5.49331 18.5067 5.37554 18.4341 5.23028L17.9524 4.2663L16.066 6.15267ZM3.75 12.4742C3.75 8.17946 7.23121 4.69824 11.526 4.69824C11.9402 4.69824 12.276 4.36246 12.276 3.94824C12.276 3.53403 11.9402 3.19824 11.526 3.19824C6.40279 3.19824 2.25 7.35103 2.25 12.4742C2.25 17.5976 6.4039 21.7502 11.527 21.7502C16.6502 21.7502 20.803 17.5975 20.803 12.4742C20.803 12.06 20.4672 11.7242 20.053 11.7242C19.6388 11.7242 19.303 12.06 19.303 12.4742C19.303 16.769 15.8218 20.2502 11.527 20.2502C7.2321 20.2502 3.75 16.7689 3.75 12.4742ZM7.539 12.4738C7.539 10.272 9.32421 8.48682 11.526 8.48682C11.9402 8.48682 12.276 8.15103 12.276 7.73682C12.276 7.3226 11.9402 6.98682 11.526 6.98682C8.49579 6.98682 6.039 9.4436 6.039 12.4738C6.039 15.504 8.49579 17.9608 11.526 17.9608C14.5562 17.9608 17.013 15.504 17.013 12.4738C17.013 12.0596 16.6772 11.7238 16.263 11.7238C15.8488 11.7238 15.513 12.0596 15.513 12.4738C15.513 14.6756 13.7278 16.4608 11.526 16.4608C9.32421 16.4608 7.539 14.6756 7.539 12.4738Z" fill="white"/>
</svg>
