<svg width="24" height="24" viewBox="0 0 24 24" fill="none" xmlns="http://www.w3.org/2000/svg">
<g clip-path="url(#clip0_7_1782)">
<mask id="mask0_7_1782" style="mask-type:luminance" maskUnits="userSpaceOnUse" x="0" y="0" width="24" height="24">
<path d="M24 0H0V24H24V0Z" fill="white"/>
</mask>
<g mask="url(#mask0_7_1782)">
<path d="M14.9996 20.3H8.9996C8.5996 20.3 8.1996 20.6 8.1996 21.1C8.1996 21.6 8.4996 21.9 8.9996 21.9H14.9996C15.3996 21.9 15.7996 21.6 15.7996 21.1C15.7996 20.6 15.3996 20.3 14.9996 20.3Z" fill="white"/>
<path d="M17.2996 3.90001C15.8996 2.50001 13.8996 1.70001 11.8996 1.70001C9.8996 1.70001 7.9996 2.60001 6.5996 4.10001C5.1996 5.60001 4.3996 7.60001 4.4996 9.60001C4.5996 11.7 5.5996 13.7 7.1996 15C7.8996 15.5 8.1996 16.3 8.1996 17.1V18.2C8.1996 18.6 8.5996 19 8.9996 19H14.9996C15.3996 19 15.7996 18.7 15.7996 18.2V17.1C15.7996 16.3 16.1996 15.5 16.7996 15C18.4996 13.6 19.4996 11.5 19.4996 9.20001C19.4996 7.20001 18.6996 5.30001 17.2996 3.90001ZM14.1996 17.5H9.6996V17.2C9.6996 16.9 9.6996 16.6 9.5996 16.2H14.2996C14.1996 16.5 14.1996 16.8 14.1996 17.2V17.5ZM15.7996 13.9C15.4996 14.1 15.2996 14.4 15.0996 14.7H8.8996C8.6996 14.4 8.3996 14.1 8.0996 13.9C6.8996 12.8 6.0996 11.2 5.9996 9.60001C5.8996 8.00001 6.4996 6.40001 7.6996 5.20001C8.7996 4.00001 10.3996 3.30001 11.9996 3.30001C13.5996 3.30001 15.1996 3.90001 16.2996 5.00001C17.3996 6.10001 17.9996 7.60001 17.9996 9.20001C17.9996 11 17.1996 12.7 15.7996 13.9Z" fill="white"/>
</g>
</g>
<defs>
<clipPath id="clip0_7_1782">
<rect width="24" height="24" fill="white"/>
</clipPath>
</defs>
</svg>
