<svg width="24" height="24" viewBox="0 0 24 24" fill="none" xmlns="http://www.w3.org/2000/svg">
<path d="M4.33685 2.2768C4.04395 1.98391 3.56908 1.98391 3.27619 2.2768C2.98329 2.56969 2.98329 3.04457 3.27619 3.33746L4.46919 4.53046C4.76208 4.82335 5.23695 4.82335 5.52985 4.53046C5.82274 4.23757 5.82274 3.76269 5.52985 3.4698L4.33685 2.2768ZM21.7228 4.33746C22.0157 4.04457 22.0157 3.56969 21.7228 3.2768C21.4299 2.98391 20.9551 2.98391 20.6622 3.2768L19.4692 4.4698C19.1763 4.76269 19.1763 5.23757 19.4692 5.53046C19.7621 5.82335 20.2369 5.82335 20.5298 5.53046L21.7228 4.33746ZM17.2495 10.0003L6.81561 9.15355C7.16954 6.88148 9.0735 5.05625 11.3619 4.78822C14.5489 4.41415 17.2495 6.89195 17.2495 10.0003ZM17.2495 10.0003C17.2495 11.7704 16.3713 13.3336 15.0237 14.2858C14.9569 14.333 14.8926 14.3848 14.8317 14.4409H9.16739C9.10594 14.3842 9.04074 14.3315 8.97333 14.2838C7.41764 13.1845 6.48672 11.2694 6.81561 9.15355L17.2495 10.0003ZM9.74951 15.9409H14.2495V17.25H9.74951V15.9409ZM8.24951 18.0009V18.5003C8.24951 20.2955 9.7043 21.7503 11.4995 21.7503H12.4995C14.2947 21.7503 15.7495 20.2955 15.7495 18.5003V15.7333C15.7495 15.6754 15.7804 15.5878 15.8893 15.5109C17.6157 14.291 18.7495 12.2803 18.7495 10.0003C18.7495 6.00476 15.2762 2.8186 11.1872 3.29842C8.23369 3.64445 5.79158 5.98114 5.33344 8.92292C4.91241 11.631 6.11143 14.0982 8.10769 15.5088C8.21685 15.5862 8.24951 15.6756 8.24951 15.7373V17.9991C8.24951 17.9994 8.24951 18.0006 8.24951 18.0009C8.24951 18.0012 8.24951 18.0006 8.24951 18.0009ZM9.76717 18.75H14.2318C14.1107 19.5984 13.3815 20.2503 12.4995 20.2503H11.4995C10.6175 20.2503 9.88827 19.5984 9.76717 18.75ZM4.52985 14.4697C4.82274 14.7626 4.82274 15.2374 4.52985 15.5303L3.33685 16.7233C3.04395 17.0162 2.56908 17.0162 2.27619 16.7233C1.98329 16.4304 1.98329 15.9556 2.27619 15.6627L3.46919 14.4697C3.76208 14.1768 4.23695 14.1768 4.52985 14.4697ZM19.4692 14.4697C19.7621 14.1768 20.2369 14.1768 20.5298 14.4697L21.7228 15.6627C22.0157 15.9556 22.0157 16.4304 21.7228 16.7233C21.4299 17.0162 20.9551 17.0162 20.6622 16.7233L19.4692 15.5303C19.1763 15.2374 19.1763 14.7626 19.4692 14.4697ZM20.9995 9.25C20.5853 9.25 20.2495 9.58579 20.2495 10C20.2495 10.4142 20.5853 10.75 20.9995 10.75H22.6865C23.1007 10.75 23.4365 10.4142 23.4365 10C23.4365 9.58579 23.1007 9.25 22.6865 9.25H20.9995ZM0.5625 9.99956C0.562746 9.58534 0.898732 9.24975 1.31294 9.25L2.99994 9.251C3.41416 9.25125 3.74974 9.58723 3.7495 10.0014C3.74925 10.4157 3.41327 10.7512 2.99905 10.751L1.31205 10.75C0.897842 10.7498 0.562255 10.4138 0.5625 9.99956Z" fill="white"/>
</svg>
