<svg width="24" height="24" viewBox="0 0 24 24" fill="none" xmlns="http://www.w3.org/2000/svg">
<g clip-path="url(#clip0_7_1941)">
<mask id="mask0_7_1941" style="mask-type:luminance" maskUnits="userSpaceOnUse" x="0" y="0" width="24" height="24">
<path d="M24 0H0V24H24V0Z" fill="white"/>
</mask>
<g mask="url(#mask0_7_1941)">
<path d="M15.5 10.25H16.4C16.81 10.25 17.15 9.91 17.15 9.5C17.15 9.09 16.81 8.75 16.4 8.75H15.5C13.71 8.75 12.25 10.21 12.25 12C12.25 13.79 13.71 15.25 15.5 15.25H16.44C17.02 15.25 17.5 14.77 17.5 14.19V12C17.5 11.59 17.16 11.25 16.75 11.25H15.78C15.37 11.25 15.03 11.59 15.03 12C15.03 12.41 15.37 12.75 15.78 12.75H16V13.75H15.5C14.54 13.75 13.75 12.96 13.75 12C13.75 11.04 14.54 10.25 15.5 10.25Z" fill="white"/>
<path d="M9.92 15.4999C10.33 15.4999 10.67 15.1599 10.67 14.7499V14.2499H10.75C11.16 14.2499 11.5 13.9099 11.5 13.4999C11.5 13.0899 11.16 12.7499 10.75 12.7499H10.67V9.75989C10.67 9.18989 10.3 8.69989 9.75 8.54989C9.2 8.38989 8.64 8.60989 8.34 9.09989C7.71 10.1199 7.02 11.2799 6.43 12.2999C6.19 12.7099 6.19 13.1899 6.43 13.5999C6.66 13.9999 7.09 14.2499 7.56 14.2499H9.17V14.7499C9.17 15.1599 9.5 15.4999 9.92 15.4999ZM7.9 12.7499C8.3 12.0599 8.74 11.3299 9.17 10.6199V12.7499H7.9Z" fill="white"/>
<path d="M22.5 11.25H21.75V10.5C21.75 10.09 21.41 9.75 21 9.75C20.59 9.75 20.25 10.09 20.25 10.5V11.25H19.5C19.09 11.25 18.75 11.59 18.75 12C18.75 12.41 19.09 12.75 19.5 12.75H20.25V13.5C20.25 13.91 20.59 14.25 21 14.25C21.41 14.25 21.75 13.91 21.75 13.5V12.75H22.5C22.91 12.75 23.25 12.41 23.25 12C23.25 11.59 22.91 11.25 22.5 11.25Z" fill="white"/>
<path d="M17.83 17.83C14.61 21.05 9.38 21.04 6.16 17.83C4.61 16.28 3.75 14.2 3.75 12C3.75 9.8 4.61 7.72 6.17 6.17C7.72 4.61 9.8 3.75 12 3.75C14.2 3.75 16.28 4.61 17.83 6.17C18.12 6.46 18.6 6.46 18.89 6.17C19.18 5.88 19.18 5.4 18.89 5.11C17.05 3.26 14.6 2.25 12 2.25C9.4 2.25 6.95 3.26 5.11 5.11C3.26 6.95 2.25 9.4 2.25 12C2.25 14.6 3.26 17.05 5.11 18.89C7.01 20.79 9.51 21.74 12 21.74C14.5 21.74 16.99 20.79 18.89 18.89C19.18 18.6 19.18 18.12 18.89 17.83C18.6 17.54 18.13 17.54 17.83 17.83Z" fill="white"/>
</g>
</g>
<defs>
<clipPath id="clip0_7_1941">
<rect width="24" height="24" fill="white"/>
</clipPath>
</defs>
</svg>
