<svg width="24" height="24" viewBox="0 0 24 24" fill="none" xmlns="http://www.w3.org/2000/svg">
<g clip-path="url(#clip0_7_1948)">
<mask id="mask0_7_1948" style="mask-type:luminance" maskUnits="userSpaceOnUse" x="0" y="0" width="24" height="24">
<path d="M24 0H0V24H24V0Z" fill="white"/>
</mask>
<g mask="url(#mask0_7_1948)">
<path d="M18.9 5.1C15.1 1.3 8.9 1.3 5.1 5.1C1.3 8.9 1.3 15.1 5.1 18.9C6.9 20.7 9.4 21.8 12 21.8C14.6 21.8 17.1 20.8 18.9 18.9C22.7 15.1 22.7 8.9 18.9 5.1ZM17.8 17.8C16.2 19.4 14.2 20.2 12 20.2C9.8 20.2 7.7 19.3 6.2 17.8C3 14.6 3 9.4 6.2 6.2C7.8 4.6 9.9 3.8 12 3.8C14.1 3.8 16.2 4.6 17.8 6.2C21.1 9.4 21.1 14.6 17.8 17.8Z" fill="white"/>
<path d="M9.2 11H8.7L8.8 10.3H10.3C10.7 10.3 11.1 10 11.1 9.5C11.1 9 10.8 8.7 10.3 8.7H8.1C7.7 8.8 7.4 9 7.3 9.4L7.1 11.6C7.1 11.8 7.1 12 7.3 12.2C7.4 12.4 7.6 12.5 7.9 12.5H9.3C9.6 12.5 9.8 12.7 9.8 13C9.8 13.4 9.4 13.8 9 13.8C8.7 13.8 8.5 13.7 8.4 13.4C8.2 13.1 7.7 13 7.4 13.2C7.1 13.4 7 13.9 7.2 14.2C7.6 14.8 8.3 15.2 9.1 15.2C10.4 15.2 11.4 14.2 11.4 12.9C11.2 11.9 10.3 11 9.2 11Z" fill="white"/>
<path d="M16.4 11.2H15.1C14.7 11.2 14.3 11.5 14.3 12C14.3 12.5 14.6 12.8 15.1 12.8H15.6V13.8C14.9 14 14.1 13.8 13.6 12.9C13.3 12.4 13.3 11.8 13.6 11.3C14.1 10.4 15.1 10.2 15.8 10.5C16.2 10.6 16.6 10.4 16.8 10C16.9 9.6 16.7 9.2 16.3 9C14.8 8.4 13.1 9.1 12.3 10.5C11.8 11.5 11.8 12.7 12.3 13.6C12.9 14.7 14 15.3 15.2 15.3C15.7 15.3 16.2 15.2 16.7 14.9C16.9 14.8 17.1 14.5 17.1 14.2V12C17.1 11.6 16.8 11.2 16.4 11.2Z" fill="white"/>
</g>
</g>
<defs>
<clipPath id="clip0_7_1948">
<rect width="24" height="24" fill="white"/>
</clipPath>
</defs>
</svg>
