<svg width="24" height="24" viewBox="0 0 24 24" fill="none" xmlns="http://www.w3.org/2000/svg">
<path d="M7.28451 5.23697C7.62407 4.99976 7.70705 4.53219 7.46983 4.19262C7.23262 3.85306 6.76505 3.77009 6.42549 4.0073C3.9051 5.768 2.25 8.68785 2.25 12.0001C2.25 15.3124 3.9051 18.2323 6.42549 19.993C6.76505 20.2302 7.23262 20.1472 7.46983 19.8076C7.70705 19.4681 7.62407 19.0005 7.28451 18.7633C5.1469 17.27 3.75 14.7998 3.75 12.0001C3.75 9.20043 5.1469 6.73027 7.28451 5.23697ZM16.5302 4.19262C16.7674 3.85306 17.2349 3.77009 17.5745 4.0073C20.0949 5.768 21.75 8.68785 21.75 12.0001C21.75 15.3124 20.0949 18.2323 17.5745 19.993C17.2349 20.2302 16.7674 20.1472 16.5302 19.8076C16.2929 19.4681 16.3759 19.0005 16.7155 18.7633C18.8531 17.27 20.25 14.7998 20.25 12.0001C20.25 9.20043 18.8531 6.73027 16.7155 5.23697C16.3759 4.99976 16.2929 4.53219 16.5302 4.19262ZM9.74726 7.81833C10.1118 7.62157 10.2477 7.16659 10.051 6.80209C9.85423 6.43759 9.39924 6.30161 9.03474 6.49836C7.08103 7.55298 5.75 9.62072 5.75 12.0003C5.75 14.38 7.08103 16.4477 9.03474 17.5023C9.39924 17.6991 9.85423 17.5631 10.051 17.1986C10.2477 16.8341 10.1118 16.3791 9.74726 16.1824C8.25897 15.379 7.25 13.8067 7.25 12.0003C7.25 10.194 8.25898 8.62171 9.74726 7.81833ZM13.949 6.80209C14.1458 6.43759 14.6008 6.30161 14.9653 6.49836C16.919 7.55298 18.25 9.62072 18.25 12.0003C18.25 14.38 16.919 16.4477 14.9653 17.5023C14.6008 17.6991 14.1458 17.5631 13.949 17.1986C13.7523 16.8341 13.8882 16.3791 14.2527 16.1824C15.741 15.379 16.75 13.8067 16.75 12.0003C16.75 10.194 15.741 8.62171 14.2527 7.81833C13.8882 7.62157 13.7523 7.16659 13.949 6.80209ZM13.0487 10.9515C12.4695 10.3723 11.5305 10.3723 10.9514 10.9515C10.3722 11.5306 10.3722 12.4696 10.9514 13.0487C11.5305 13.6279 12.4695 13.6279 13.0487 13.0487C13.6278 12.4696 13.6278 11.5306 13.0487 10.9515ZM9.89073 9.89079C11.0557 8.72586 12.9444 8.72586 14.1093 9.89079C15.2743 11.0557 15.2743 12.9445 14.1093 14.1094C12.9444 15.2743 11.0557 15.2743 9.89073 14.1094C8.7258 12.9445 8.7258 11.0557 9.89073 9.89079Z" fill="white"/>
</svg>
