<svg width="24" height="24" viewBox="0 0 24 24" fill="none" xmlns="http://www.w3.org/2000/svg">
<path d="M6.16658 7.48445C9.38869 4.26234 14.6118 4.26234 17.8339 7.48445C21.056 10.7066 21.056 15.9297 17.8339 19.1518C17.541 19.4447 17.541 19.9196 17.8339 20.2125C18.1268 20.5053 18.6016 20.5053 18.8945 20.2125C22.7024 16.4046 22.7024 10.2317 18.8945 6.42379C15.0866 2.6159 8.91382 2.6159 5.10593 6.42379C1.29803 10.2317 1.29803 16.4046 5.10593 20.2125C5.39882 20.5053 5.87368 20.5053 6.16658 20.2125C6.45948 19.9196 6.45948 19.4447 6.16658 19.1518C2.94447 15.9297 2.94447 10.7066 6.16658 7.48445ZM15.3589 9.95969C13.5038 8.10458 10.4966 8.10458 8.64157 9.95969C6.78646 11.8148 6.78646 14.8219 8.64157 16.677C8.93446 16.9699 8.93446 17.4448 8.64157 17.7377C8.34868 18.0306 7.87381 18.0306 7.58091 17.7377C5.14002 15.2968 5.14002 11.3399 7.58091 8.89903C10.0218 6.45814 13.9786 6.45814 16.4195 8.89903C18.8604 11.3399 18.8604 15.2968 16.4195 17.7377C16.1266 18.0306 15.6518 18.0306 15.3589 17.7377C15.066 17.4448 15.066 16.9699 15.3589 16.677C17.214 14.8219 17.214 11.8148 15.3589 9.95969ZM13.0489 12.2693C12.4698 11.6902 11.5307 11.6902 10.9516 12.2693C10.3725 12.8484 10.3725 13.7875 10.9516 14.3666C11.2445 14.6595 11.2445 15.1344 10.9516 15.4273C10.6587 15.7202 10.1838 15.7202 9.89095 15.4273C8.72606 14.2624 8.72606 12.3735 9.89095 11.2086C11.0558 10.0437 12.9447 10.0437 14.1096 11.2086C15.2745 12.3735 15.2745 14.2624 14.1096 15.4273C13.8167 15.7202 13.3418 15.7202 13.0489 15.4273C12.756 15.1344 12.756 14.6595 13.0489 14.3666C13.628 13.7875 13.628 12.8484 13.0489 12.2693Z" fill="white"/>
</svg>
