<svg width="24" height="24" viewBox="0 0 24 24" fill="none" xmlns="http://www.w3.org/2000/svg">
<path d="M3.78338 11.25H7.26747C7.37762 8.81576 8.02384 6.40389 9.20614 4.23221C6.24457 5.29272 4.07465 7.99431 3.78338 11.25ZM2.25 12C2.25 6.60379 6.60379 2.25 12 2.25C17.3962 2.25 21.75 6.60379 21.75 12C21.75 17.3654 17.4458 21.7003 12.0923 21.7496C12.0312 21.7515 11.97 21.7515 11.9089 21.7496C6.55488 21.7009 2.25 17.3658 2.25 12ZM20.2166 11.25C19.9254 7.99476 17.756 5.29346 14.7951 4.23264C15.9772 6.40421 16.6234 8.81592 16.7335 11.25H20.2166ZM16.7336 12.75C16.6237 15.1839 15.9778 17.5955 14.7961 19.767C17.7565 18.7059 19.9254 16.0049 20.2166 12.75H16.7336ZM15.2318 11.25C15.1135 8.87256 14.4328 6.52136 13.1897 4.44584C12.6337 3.51864 11.3661 3.51918 10.8115 4.44551C10.563 4.86046 10.3368 5.28654 10.1332 5.72154C9.31847 7.46235 8.86381 9.34784 8.76915 11.25H11.7772H15.2318ZM12.2234 12.75L13.8678 18.2798C14.6827 16.5385 15.1374 14.6527 15.2319 12.75H12.2234ZM12.2234 12.75H8.76908C8.88718 15.128 9.56795 17.4799 10.8114 19.5559C11.0774 20.0002 11.5076 20.2316 11.9444 20.2498L12 20.25L12.0568 20.2498C12.4935 20.2315 12.9235 20.0002 13.1895 19.556C13.438 19.141 13.6642 18.7148 13.8678 18.2798L12.2234 12.75ZM7.2674 12.75H3.78338C4.07462 16.0053 6.24408 18.7067 9.20514 19.7674C8.02324 17.5958 7.37732 15.1841 7.2674 12.75Z" fill="white"/>
</svg>
