<svg width="24" height="24" viewBox="0 0 24 24" fill="none" xmlns="http://www.w3.org/2000/svg">
<g clip-path="url(#clip0_7_2354)">
<mask id="mask0_7_2354" style="mask-type:luminance" maskUnits="userSpaceOnUse" x="0" y="0" width="24" height="24">
<path d="M24 0H0V24H24V0Z" fill="white"/>
</mask>
<g mask="url(#mask0_7_2354)">
<path d="M13.4002 15.4C12.7002 14.6 11.4002 14.6 10.7002 15.4L7.8002 18.9C7.4002 19.4 7.3002 20.1 7.6002 20.8C7.9002 21.4 8.5002 21.8 9.2002 21.8H15.0002C15.7002 21.8 16.3002 21.4 16.6002 20.8C16.9002 20.2 16.8002 19.5 16.4002 18.9L13.4002 15.4ZM15.1002 20.1C15.1002 20.2 15.0002 20.2 14.9002 20.2H9.1002C9.0002 20.2 8.9002 20.1 8.9002 20.1C8.9002 20.1 8.8002 19.9 8.9002 19.8L11.8002 16.3C11.9002 16.1 12.1002 16.1 12.2002 16.3L15.1002 19.8C15.2002 19.9 15.1002 20.1 15.1002 20.1Z" fill="white"/>
<path d="M12.0002 10.2C10.2002 10.2 8.5002 11 7.4002 12.5C7.2002 12.8 7.2002 13.3 7.6002 13.5C7.7002 13.6 7.9002 13.6 8.0002 13.6C8.2002 13.6 8.5002 13.5 8.6002 13.3C9.4002 12.2 10.7002 11.6 12.0002 11.6C13.3002 11.6 14.6002 12.2 15.4002 13.3C15.6002 13.6 16.1002 13.7 16.4002 13.5C16.7002 13.3 16.8002 12.8 16.6002 12.5C15.5002 11.1 13.8002 10.2 12.0002 10.2Z" fill="white"/>
<path d="M12.0002 6.30005C9.1002 6.30005 6.4002 7.50005 4.6002 9.70005C4.3002 10 4.4002 10.5 4.7002 10.8C4.8002 10.9 5.0002 11 5.2002 11C5.4002 11 5.6002 10.9 5.8002 10.7C7.3002 8.80005 9.60019 7.80005 12.0002 7.80005C14.4002 7.80005 16.7002 8.90005 18.3002 10.7C18.6002 11 19.0002 11.1 19.4002 10.8C19.8002 10.5 19.8002 10.1 19.5002 9.70005C17.6002 7.50005 14.9002 6.30005 12.0002 6.30005Z" fill="white"/>
<path d="M22.2002 6.80005C19.6002 3.90005 15.9002 2.30005 12.0002 2.30005C8.1002 2.30005 4.4002 4.00005 1.8002 6.90005C1.5002 7.10005 1.5002 7.60005 1.8002 7.90005C2.1002 8.20005 2.6002 8.10005 2.9002 7.80005C5.2002 5.20005 8.5002 3.80005 12.0002 3.80005C15.5002 3.80005 18.8002 5.30005 21.1002 7.90005C21.2002 8.10005 21.5002 8.10005 21.7002 8.10005C21.9002 8.10005 22.1002 8.00005 22.2002 7.90005C22.5002 7.60005 22.5002 7.10005 22.2002 6.80005Z" fill="white"/>
</g>
</g>
<defs>
<clipPath id="clip0_7_2354">
<rect width="24" height="24" fill="white"/>
</clipPath>
</defs>
</svg>
