<svg width="24" height="24" viewBox="0 0 24 24" fill="none" xmlns="http://www.w3.org/2000/svg">
<path d="M12 2.75C10.0043 2.75 8.16508 3.03762 6.79802 3.52581C6.11775 3.76874 5.51411 4.07552 5.06622 4.45374C4.62178 4.82903 4.25 5.34841 4.25 6V10V14V18C4.25 18.6516 4.62178 19.171 5.06622 19.5463C5.51411 19.9245 6.11775 20.2313 6.79802 20.4742C8.16508 20.9624 10.0043 21.25 12 21.25C13.9957 21.25 15.8349 20.9624 17.202 20.4742C17.8822 20.2313 18.4859 19.9245 18.9338 19.5463C19.3782 19.171 19.75 18.6516 19.75 18V14V10V6C19.75 5.34841 19.3782 4.82903 18.9338 4.45374C18.4859 4.07552 17.8822 3.76874 17.202 3.52581C15.8349 3.03762 13.9957 2.75 12 2.75ZM18.25 10C18.25 10.0389 18.23 10.1773 17.966 10.4002C17.7055 10.6202 17.284 10.8521 16.6975 11.0616C15.5311 11.4781 13.8703 11.75 12 11.75C10.1297 11.75 8.46892 11.4781 7.30248 11.0616C6.716 10.8521 6.29451 10.6202 6.03397 10.4002C5.76997 10.1773 5.75 10.0389 5.75 10V8.00957C6.06674 8.18496 6.42058 8.3394 6.79802 8.47419C8.16508 8.96238 10.0043 9.25 12 9.25C13.9957 9.25 15.8349 8.96238 17.202 8.47419C17.5794 8.3394 17.9333 8.18496 18.25 8.00957V10ZM5.75 12.0096C6.06674 12.185 6.42058 12.3394 6.79802 12.4742C8.16508 12.9624 10.0043 13.25 12 13.25C13.9957 13.25 15.8349 12.9624 17.202 12.4742C17.5794 12.3394 17.9333 12.185 18.25 12.0096V14C18.25 14.0389 18.23 14.1773 17.966 14.4002C17.7055 14.6202 17.284 14.8521 16.6975 15.0616C15.5311 15.4781 13.8703 15.75 12 15.75C10.1297 15.75 8.46892 15.4781 7.30248 15.0616C6.716 14.8521 6.29451 14.6202 6.03397 14.4002C5.76997 14.1773 5.75 14.0389 5.75 14V12.0096ZM5.75 18V16.0096C6.06674 16.185 6.42058 16.3394 6.79802 16.4742C8.16508 16.9624 10.0043 17.25 12 17.25C13.9957 17.25 15.8349 16.9624 17.202 16.4742C17.5794 16.3394 17.9333 16.185 18.25 16.0096V18C18.25 18.0389 18.23 18.1773 17.966 18.4002C17.7055 18.6202 17.284 18.8521 16.6975 19.0616C15.5311 19.4781 13.8703 19.75 12 19.75C10.1297 19.75 8.46892 19.4781 7.30248 19.0616C6.716 18.8521 6.29451 18.6202 6.03397 18.4002C5.76997 18.1773 5.75 18.0389 5.75 18ZM18.25 6C18.25 6.03891 18.23 6.17728 17.966 6.40021C17.7055 6.62021 17.284 6.85212 16.6975 7.06156C15.5311 7.47812 13.8703 7.75 12 7.75C10.1297 7.75 8.46892 7.47812 7.30248 7.06156C6.716 6.85212 6.29451 6.62021 6.03397 6.40021C5.76997 6.17728 5.75 6.03891 5.75 6C5.75 5.96109 5.76997 5.82272 6.03397 5.59979C6.29451 5.37979 6.716 5.14788 7.30248 4.93844C8.46892 4.52188 10.1297 4.25 12 4.25C13.8703 4.25 15.5311 4.52188 16.6975 4.93844C17.284 5.14788 17.7055 5.37979 17.966 5.59979C18.23 5.82272 18.25 5.96109 18.25 6Z" fill="white"/>
</svg>
