<svg width="24" height="24" viewBox="0 0 24 24" fill="none" xmlns="http://www.w3.org/2000/svg">
<path d="M2.25 8C2.25 5.37679 4.37679 3.25 7 3.25H17C19.6232 3.25 21.75 5.37679 21.75 8C21.75 9.67941 20.8783 11.1553 19.5627 12C20.8783 12.8447 21.75 14.3206 21.75 16C21.75 18.6232 19.6232 20.75 17 20.75H7C4.37679 20.75 2.25 18.6232 2.25 16C2.25 14.3206 3.1217 12.8447 4.4373 12C3.1217 11.1553 2.25 9.67941 2.25 8ZM7 11.25H17C18.7948 11.25 20.25 9.79479 20.25 8C20.25 6.20521 18.7948 4.75 17 4.75H7C5.20521 4.75 3.75 6.20521 3.75 8C3.75 9.79479 5.20521 11.25 7 11.25ZM17 12.75H7C5.20521 12.75 3.75 14.2052 3.75 16C3.75 17.7948 5.20521 19.25 7 19.25H17C18.7948 19.25 20.25 17.7948 20.25 16C20.25 14.2052 18.7948 12.75 17 12.75ZM10.25 8C10.25 7.58579 10.5858 7.25 11 7.25H17C17.4142 7.25 17.75 7.58579 17.75 8C17.75 8.41421 17.4142 8.75 17 8.75H11C10.5858 8.75 10.25 8.41421 10.25 8ZM11 15.25C10.5858 15.25 10.25 15.5858 10.25 16C10.25 16.4142 10.5858 16.75 11 16.75H17C17.4142 16.75 17.75 16.4142 17.75 16C17.75 15.5858 17.4142 15.25 17 15.25H11Z" fill="white"/>
</svg>
