<svg width="24" height="24" viewBox="0 0 24 24" fill="none" xmlns="http://www.w3.org/2000/svg">
<path d="M4.79802 3.02581C6.16508 2.53762 8.00433 2.25 10 2.25C11.9957 2.25 13.8349 2.53762 15.202 3.02581C15.8822 3.26874 16.4859 3.57552 16.9338 3.95374C17.3782 4.32903 17.75 4.84841 17.75 5.5V9.5C17.75 9.78469 17.679 10.0441 17.562 10.2774C18.841 10.4023 20.0862 10.9545 21.0658 11.9341C23.3113 14.1796 23.3113 17.8204 21.0658 20.0659C18.8203 22.3114 15.1796 22.3114 12.9341 20.0659C11.9918 19.1236 11.4449 17.9356 11.2935 16.7081C10.8734 16.7354 10.4414 16.75 10 16.75C8.00433 16.75 6.16508 16.4624 4.79802 15.9742C4.11775 15.7313 3.51411 15.4245 3.06622 15.0463C2.62178 14.671 2.25 14.1516 2.25 13.5V9.5V5.5C2.25 4.84841 2.62178 4.32903 3.06622 3.95374C3.51411 3.57552 4.11775 3.26874 4.79802 3.02581ZM3.75 11.5096V13.5C3.75 13.5389 3.76997 13.6773 4.03397 13.9002C4.29451 14.1202 4.716 14.3521 5.30248 14.5616C6.46892 14.9781 8.12967 15.25 10 15.25C10.4469 15.25 10.883 15.2338 11.305 15.2038C11.4327 14.2857 11.7823 13.3925 12.3538 12.611C11.61 12.7017 10.8182 12.75 10 12.75C8.00433 12.75 6.16508 12.4624 4.79802 11.9742C4.42058 11.8394 4.06674 11.685 3.75 11.5096ZM3.75 9.5C3.75 9.53891 3.76997 9.67728 4.03397 9.90021C4.29451 10.1202 4.716 10.3521 5.30248 10.5616C6.46892 10.9781 8.12967 11.25 10 11.25C11.8703 11.25 13.5311 10.9781 14.6975 10.5616C15.284 10.3521 15.7055 10.1202 15.966 9.90021C16.23 9.67728 16.25 9.53891 16.25 9.5V7.50957C15.9333 7.68496 15.5794 7.8394 15.202 7.97419C13.8349 8.46238 11.9957 8.75 10 8.75C8.00433 8.75 6.16508 8.46238 4.79802 7.97419C4.42058 7.8394 4.06674 7.68496 3.75 7.50957V9.5ZM15.966 5.09979C15.7055 4.87979 15.284 4.64788 14.6975 4.43844C13.5311 4.02188 11.8703 3.75 10 3.75C8.12967 3.75 6.46892 4.02188 5.30248 4.43844C4.716 4.64788 4.29451 4.87979 4.03397 5.09979C3.76997 5.32272 3.75 5.46109 3.75 5.5C3.75 5.53891 3.76997 5.67728 4.03397 5.90021C4.29451 6.12021 4.716 6.35212 5.30248 6.56156C6.46892 6.97812 8.12967 7.25 10 7.25C11.8703 7.25 13.5311 6.97812 14.6975 6.56156C15.284 6.35212 15.7055 6.12021 15.966 5.90021C16.23 5.67728 16.25 5.53891 16.25 5.5C16.25 5.46109 16.23 5.32272 15.966 5.09979ZM12.7568 15.8145C12.7644 15.8858 12.7617 15.9557 12.75 16.023C12.7558 17.103 13.1707 18.1812 13.9948 19.0052C15.6545 20.6649 18.3454 20.6649 20.0052 19.0052C21.6649 17.3455 21.6649 14.6545 20.0052 12.9948C18.3454 11.3351 15.6545 11.3351 13.9948 12.9948C13.2164 13.7731 12.8031 14.7782 12.7548 15.7974L12.7568 15.8145ZM19.7523 15.4195C20.0452 15.1266 20.0452 14.6517 19.7523 14.3588C19.4594 14.0659 18.9846 14.0659 18.6917 14.3588L16.4442 16.6063L15.3085 15.47C15.0157 15.177 14.5408 15.1769 14.2478 15.4697C13.9548 15.7625 13.9547 16.2374 14.2475 16.5303L15.9135 18.1973C16.0541 18.3381 16.2449 18.4171 16.4439 18.4172C16.6428 18.4172 16.8337 18.3382 16.9743 18.1975L19.7523 15.4195Z" fill="white"/>
</svg>
