<svg width="24" height="24" viewBox="0 0 24 24" fill="none" xmlns="http://www.w3.org/2000/svg">
<path d="M5.851 3.25C4.41409 3.25 3.22062 4.35562 3.10926 5.78682L2.2657 16.6545C2.25531 16.7682 2.25 16.8835 2.25 17C2.25 19.0712 3.92879 20.75 6 20.75H18C20.0712 20.75 21.75 19.0712 21.75 17C21.75 16.8835 21.7447 16.7683 21.7343 16.6546L20.8907 5.78682C20.7794 4.35562 19.5859 3.25 18.149 3.25H16C15.5858 3.25 15.25 3.58579 15.25 4C15.25 4.41421 15.5858 4.75 16 4.75H18.149C18.802 4.75 19.3446 5.25245 19.3953 5.90318L20.0109 13.8341C19.4298 13.4642 18.7399 13.25 18 13.25H6C5.26008 13.25 4.57025 13.4642 3.98914 13.8341L4.60475 5.90304C4.65546 5.25231 5.19796 4.75 5.851 4.75H8C8.41421 4.75 8.75 4.41421 8.75 4C8.75 3.58579 8.41421 3.25 8 3.25H5.851ZM20.2402 16.7882L20.2422 16.815C20.2428 16.8215 20.2433 16.828 20.244 16.8344C20.248 16.8891 20.25 16.9443 20.25 17C20.25 18.2428 19.2428 19.25 18 19.25H6C4.75721 19.25 3.75 18.2428 3.75 17C3.75 16.9443 3.75202 16.8891 3.75599 16.8345L3.75775 16.815L3.75984 16.7882C3.86658 15.6447 4.82865 14.75 6 14.75H18C19.1714 14.75 20.1334 15.6448 20.2402 16.7882ZM12 3.25C12.4142 3.25 12.75 3.58579 12.75 4V8.18934L13.4697 7.46967C13.7626 7.17678 14.2374 7.17678 14.5303 7.46967C14.8232 7.76256 14.8232 8.23744 14.5303 8.53033L12.5303 10.5303C12.4584 10.6022 12.3755 10.6565 12.2871 10.6931C12.1987 10.7298 12.1017 10.75 12 10.75C11.8983 10.75 11.8013 10.7298 11.7129 10.6931C11.6245 10.6565 11.5416 10.6022 11.4697 10.5303L9.46967 8.53033C9.17678 8.23744 9.17678 7.76256 9.46967 7.46967C9.76256 7.17678 10.2374 7.17678 10.5303 7.46967L11.25 8.18934V4C11.25 3.58579 11.5858 3.25 12 3.25ZM10.25 17C10.25 16.5858 10.5858 16.25 11 16.25H18C18.4142 16.25 18.75 16.5858 18.75 17C18.75 17.4142 18.4142 17.75 18 17.75H11C10.5858 17.75 10.25 17.4142 10.25 17Z" fill="white"/>
</svg>
