<svg width="24" height="24" viewBox="0 0 24 24" fill="none" xmlns="http://www.w3.org/2000/svg">
<path d="M2.95278 5.57745C3.16778 3.68246 4.77143 2.25 6.679 2.25H17.321C19.2284 2.25 20.8323 3.68226 21.0462 5.57756L21.7197 11.5207C21.7397 11.6777 21.75 11.8376 21.75 12C21.75 13.2268 21.1611 14.3159 20.2505 15C21.1611 15.6841 21.75 16.7732 21.75 18C21.75 20.0712 20.0712 21.75 18 21.75H6C3.92879 21.75 2.25 20.0712 2.25 18C2.25 16.7732 2.83893 15.6841 3.74952 15C2.83893 14.3159 2.25 13.2268 2.25 12C2.25 11.853 2.25846 11.708 2.27491 11.5654C2.27565 11.5551 2.2766 11.5449 2.27777 11.5346L2.95278 5.57745ZM4.10113 8.76554C4.65805 8.4379 5.30707 8.25 6 8.25H18C18.6925 8.25 19.3411 8.43766 19.8978 8.76491L19.5558 5.74644C19.4276 4.60993 18.4655 3.75 17.321 3.75H6.679C5.53461 3.75 4.57228 4.60949 4.44323 5.74644L4.10113 8.76554ZM6 15.75C4.75721 15.75 3.75 16.7572 3.75 18C3.75 19.2428 4.75721 20.25 6 20.25H18C19.2428 20.25 20.25 19.2428 20.25 18C20.25 16.7572 19.2428 15.75 18 15.75H6ZM3.75 12C3.75 13.2428 4.75721 14.25 6 14.25H18C19.2428 14.25 20.25 13.2428 20.25 12C20.25 10.7572 19.2428 9.75 18 9.75H6C4.75721 9.75 3.75 10.7572 3.75 12ZM10.25 12C10.25 11.5858 10.5858 11.25 11 11.25H18C18.4142 11.25 18.75 11.5858 18.75 12C18.75 12.4142 18.4142 12.75 18 12.75H11C10.5858 12.75 10.25 12.4142 10.25 12ZM11.07 17.25C10.6558 17.25 10.32 17.5858 10.32 18C10.32 18.4142 10.6558 18.75 11.07 18.75H18.07C18.4842 18.75 18.82 18.4142 18.82 18C18.82 17.5858 18.4842 17.25 18.07 17.25H11.07Z" fill="white"/>
</svg>
