<svg width="24" height="24" viewBox="0 0 24 24" fill="none" xmlns="http://www.w3.org/2000/svg">
<path d="M6 2.25C3.37679 2.25 1.25 4.37679 1.25 7C1.25 8.67941 2.1217 10.1553 3.4373 11C2.1217 11.8447 1.25 13.3206 1.25 15C1.25 17.6232 3.37679 19.75 6 19.75H12.6413C13.6958 20.9746 15.2575 21.75 17 21.75C20.1763 21.75 22.75 19.1751 22.75 16C22.75 13.5516 21.2196 11.46 19.0625 10.6309C20.0945 9.7596 20.75 8.4563 20.75 7C20.75 4.37679 18.6232 2.25 16 2.25H6ZM13.5938 18.5417C13.0638 17.8328 12.75 16.953 12.75 16C12.75 13.6532 14.6532 11.75 17 11.75C19.3477 11.75 21.25 13.6531 21.25 16C21.25 18.3469 19.3477 20.25 17 20.25C15.6136 20.25 14.382 19.5858 13.6062 18.5582L13.5938 18.5417ZM6 18.25C4.20521 18.25 2.75 16.7948 2.75 15C2.75 13.2052 4.20521 11.75 6 11.75H13.1273C12.3919 12.4205 11.8311 13.2793 11.5212 14.25H10C9.58579 14.25 9.25 14.5858 9.25 15C9.25 15.4142 9.58579 15.75 10 15.75H11.2553C11.2518 15.8329 11.25 15.9162 11.25 16C11.25 16.7984 11.4128 17.5589 11.707 18.25H6ZM6 10.25C4.20521 10.25 2.75 8.79479 2.75 7C2.75 5.20521 4.20521 3.75 6 3.75H16C17.7948 3.75 19.25 5.20521 19.25 7C19.25 8.79479 17.7948 10.25 16 10.25H6ZM18.9403 15.1202C19.2332 14.8273 19.2332 14.3524 18.9403 14.0595C18.6474 13.7666 18.1726 13.7666 17.8797 14.0595L17 14.9392L16.1203 14.0595C15.8274 13.7666 15.3526 13.7666 15.0597 14.0595C14.7668 14.3524 14.7668 14.8273 15.0597 15.1202L15.9393 15.9998L15.0597 16.8795C14.7668 17.1724 14.7668 17.6473 15.0597 17.9402C15.3526 18.2331 15.8274 18.2331 16.1203 17.9402L17 17.0605L17.8797 17.9402C18.1726 18.2331 18.6474 18.2331 18.9403 17.9402C19.2332 17.6473 19.2332 17.1724 18.9403 16.8795L18.0607 15.9998L18.9403 15.1202ZM10 6.25C9.58579 6.25 9.25 6.58579 9.25 7C9.25 7.41421 9.58579 7.75 10 7.75H16C16.4142 7.75 16.75 7.41421 16.75 7C16.75 6.58579 16.4142 6.25 16 6.25H10Z" fill="white"/>
</svg>
