<svg width="24" height="24" viewBox="0 0 24 24" fill="none" xmlns="http://www.w3.org/2000/svg">
<path d="M15 3.75H19C19.6908 3.75 20.25 4.30921 20.25 5V19C20.25 19.6908 19.6908 20.25 19 20.25H15C14.3092 20.25 13.75 19.6908 13.75 19V12V5C13.75 4.30921 14.3092 3.75 15 3.75ZM12.25 12.75V19C12.25 20.5192 13.4808 21.75 15 21.75H19C20.5192 21.75 21.75 20.5192 21.75 19V5C21.75 3.48079 20.5192 2.25 19 2.25H15C13.4808 2.25 12.25 3.48079 12.25 5V11.25H9.749V10.5V7.56317C9.74966 7.54223 9.75 7.52118 9.75 7.5C9.75 7.48354 9.74947 7.46721 9.74843 7.45102C9.72648 6.53757 9.07797 5.85238 8.34644 5.43442C7.58045 4.99677 6.57231 4.75 5.5 4.75C4.4275 4.75 3.41962 4.9971 2.65372 5.43485C1.90913 5.86041 1.25085 6.56304 1.25 7.5V10.5V13.5V16.5C1.25 17.4371 1.90781 18.1394 2.65235 18.5651C3.41812 19.0029 4.42607 19.25 5.499 19.25C6.57177 19.25 7.57992 19.0032 8.34594 18.5656C9.09082 18.14 9.749 17.4377 9.749 16.5V13.5V12.75H12.25ZM8.249 10.5C8.249 10.6673 8.12368 10.965 7.60181 11.2632C7.10108 11.5493 6.35923 11.75 5.499 11.75C4.63893 11.75 3.89738 11.5491 3.3969 11.2629C2.87519 10.9646 2.75 10.6669 2.75 10.5V9.61926C3.50315 10.0234 4.4719 10.25 5.5 10.25C6.52765 10.25 7.49599 10.0236 8.249 9.61979V10.5ZM2.75 12.6192C3.50281 13.0232 4.47108 13.25 5.499 13.25C6.5271 13.25 7.49585 13.0234 8.249 12.6193V13.5C8.249 13.6673 8.12368 13.965 7.60181 14.2632C7.10108 14.5493 6.35923 14.75 5.499 14.75C4.63893 14.75 3.89738 14.5491 3.3969 14.2629C2.87519 13.9646 2.75 13.6669 2.75 13.5V12.6192ZM2.75 15.6192C3.50281 16.0232 4.47108 16.25 5.499 16.25C6.5271 16.25 7.49585 16.0234 8.249 15.6193V16.5C8.249 16.6673 8.12368 16.965 7.60181 17.2632C7.10108 17.5493 6.35923 17.75 5.499 17.75C4.63893 17.75 3.89738 17.5491 3.3969 17.2629C2.87519 16.9646 2.75 16.6669 2.75 16.5V15.6192ZM2.75 7.50034C2.75032 7.33324 2.87622 7.03539 3.39803 6.73715C3.89888 6.4509 4.6405 6.25 5.5 6.25C6.35969 6.25 7.10155 6.45073 7.60231 6.73683C8.12433 7.03508 8.24915 7.3333 8.249 7.5V7.52641C8.23628 7.69743 8.09824 7.98011 7.60281 8.26317C7.10208 8.54926 6.36023 8.75 5.5 8.75C4.63977 8.75 3.89792 8.54926 3.39719 8.26317C2.87567 7.96521 2.75017 7.66766 2.75 7.50034ZM15.25 6C15.25 5.58579 15.5858 5.25 16 5.25H18C18.4142 5.25 18.75 5.58579 18.75 6C18.75 6.41421 18.4142 6.75 18 6.75H16C15.5858 6.75 15.25 6.41421 15.25 6ZM16 9.25C15.5858 9.25 15.25 9.58579 15.25 10C15.25 10.4142 15.5858 10.75 16 10.75H18C18.4142 10.75 18.75 10.4142 18.75 10C18.75 9.58579 18.4142 9.25 18 9.25H16ZM15.25 14C15.25 13.5858 15.5858 13.25 16 13.25H18C18.4142 13.25 18.75 13.5858 18.75 14C18.75 14.4142 18.4142 14.75 18 14.75H16C15.5858 14.75 15.25 14.4142 15.25 14ZM16 17.25C15.5858 17.25 15.25 17.5858 15.25 18C15.25 18.4142 15.5858 18.75 16 18.75H18C18.4142 18.75 18.75 18.4142 18.75 18C18.75 17.5858 18.4142 17.25 18 17.25H16Z" fill="white"/>
</svg>
