<svg width="24" height="24" viewBox="0 0 24 24" fill="none" xmlns="http://www.w3.org/2000/svg">
<path d="M5.85099 3.25C4.41407 3.25 3.22061 4.35562 3.10925 5.78682L2.2656 16.6556C2.25528 16.769 2.25 16.8839 2.25 17C2.25 19.0712 3.92879 20.75 6 20.75H18C20.0712 20.75 21.75 19.0712 21.75 17C21.75 16.8832 21.7447 16.7676 21.7342 16.6535L20.8907 5.78682C20.7794 4.35562 19.5859 3.25 18.149 3.25H5.85099ZM20.2401 16.7872L20.2422 16.815C20.2428 16.8217 20.2434 16.8283 20.244 16.8349C20.248 16.8894 20.25 16.9445 20.25 17C20.25 18.2428 19.2428 19.25 18 19.25H6C4.75721 19.25 3.75 18.2428 3.75 17C3.75 16.9442 3.75203 16.8888 3.75603 16.834C3.75668 16.8277 3.75724 16.8214 3.75774 16.815L3.75975 16.7891C3.86603 15.6453 4.82832 14.75 6 14.75H18C19.171 14.75 20.1329 15.6443 20.2401 16.7872ZM20.0108 13.8341C19.4297 13.4642 18.7399 13.25 18 13.25H6C5.26008 13.25 4.57023 13.4643 3.98912 13.8341L4.60474 5.90304C4.65544 5.25231 5.19795 4.75 5.85099 4.75H18.149C18.802 4.75 19.3445 5.25245 19.3952 5.90318L20.0108 13.8341ZM10.25 17C10.25 16.5858 10.5858 16.25 11 16.25H18C18.4142 16.25 18.75 16.5858 18.75 17C18.75 17.4142 18.4142 17.75 18 17.75H11C10.5858 17.75 10.25 17.4142 10.25 17Z" fill="white"/>
</svg>
