<svg width="24" height="24" viewBox="0 0 24 24" fill="none" xmlns="http://www.w3.org/2000/svg">
<path d="M4.79802 3.02581C6.16508 2.53762 8.00433 2.25 10 2.25C11.9957 2.25 13.8349 2.53762 15.202 3.02581C15.8822 3.26874 16.4859 3.57552 16.9338 3.95374C17.3782 4.32903 17.75 4.84841 17.75 5.5V9.5V10.2988C18.9626 10.4575 20.1343 11.0026 21.0658 11.9341C23.3113 14.1796 23.3113 17.8204 21.0658 20.0659C18.9579 22.1738 15.6206 22.3029 13.362 20.4534C12.3477 20.643 11.2072 20.75 10 20.75C8.00433 20.75 6.16508 20.4624 4.79802 19.9742C4.11775 19.7313 3.51411 19.4245 3.06622 19.0463C2.62178 18.671 2.25 18.1516 2.25 17.5V13.5V9.5V5.5C2.25 4.84841 2.62178 4.32903 3.06622 3.95374C3.51411 3.57552 4.11775 3.26874 4.79802 3.02581ZM3.75 15.5096V17.5C3.75 17.5389 3.76997 17.6773 4.03397 17.9002C4.29451 18.1202 4.716 18.3521 5.30248 18.5616C6.46892 18.9781 8.12967 19.25 10 19.25C10.7633 19.25 11.4923 19.2038 12.1689 19.1204C11.6896 18.3799 11.3978 17.5534 11.2935 16.7081C10.8734 16.7354 10.4414 16.75 10 16.75C8.00433 16.75 6.16508 16.4624 4.79802 15.9742C4.42058 15.8394 4.06674 15.685 3.75 15.5096ZM11.305 15.2038C11.4327 14.2857 11.7823 13.3925 12.3538 12.611C11.61 12.7017 10.8182 12.75 10 12.75C8.00433 12.75 6.16508 12.4624 4.79802 11.9742C4.42058 11.8394 4.06674 11.685 3.75 11.5096V13.5C3.75 13.5389 3.76997 13.6773 4.03397 13.9002C4.29451 14.1202 4.716 14.3521 5.30248 14.5616C6.46892 14.9781 8.12967 15.25 10 15.25C10.4469 15.25 10.883 15.2338 11.305 15.2038ZM16.25 7.50957C15.9333 7.68496 15.5794 7.8394 15.202 7.97419C13.8349 8.46238 11.9957 8.75 10 8.75C8.00433 8.75 6.16508 8.46238 4.79802 7.97419C4.42058 7.8394 4.06674 7.68496 3.75 7.50957V9.5C3.75 9.53891 3.76997 9.67728 4.03397 9.90021C4.29451 10.1202 4.716 10.3521 5.30248 10.5616C6.46892 10.9781 8.12967 11.25 10 11.25C11.8703 11.25 13.5311 10.9781 14.6975 10.5616C15.284 10.3521 15.7055 10.1202 15.966 9.90021C16.23 9.67728 16.25 9.53891 16.25 9.5V7.50957ZM16.25 5.5C16.25 5.46109 16.23 5.32272 15.966 5.09979C15.7055 4.87979 15.284 4.64788 14.6975 4.43844C13.5311 4.02188 11.8703 3.75 10 3.75C8.12967 3.75 6.46892 4.02188 5.30248 4.43844C4.716 4.64788 4.29451 4.87979 4.03397 5.09979C3.76997 5.32272 3.75 5.46109 3.75 5.5C3.75 5.53891 3.76997 5.67728 4.03397 5.90021C4.29451 6.12021 4.716 6.35212 5.30248 6.56156C6.46892 6.97812 8.12967 7.25 10 7.25C11.8703 7.25 13.5311 6.97812 14.6975 6.56156C15.284 6.35212 15.7055 6.12021 15.966 5.90021C16.23 5.67728 16.25 5.53891 16.25 5.5ZM14.0028 19.0132C14.0765 19.0611 14.1418 19.1219 14.1952 19.1933C15.8645 20.6624 18.4107 20.5997 20.0052 19.0052C21.6649 17.3455 21.6649 14.6545 20.0052 12.9948C18.3454 11.3351 15.6545 11.3351 13.9948 12.9948C12.335 14.6545 12.335 17.3455 13.9948 19.0052L14.0028 19.0132ZM17 13.25C17.4142 13.25 17.75 13.5858 17.75 14V16.1893L18.4697 15.4697C18.7626 15.1768 19.2374 15.1768 19.5303 15.4697C19.8232 15.7626 19.8232 16.2374 19.5303 16.5303L17.5303 18.5303C17.4584 18.6022 17.3755 18.6565 17.2871 18.6931C17.1987 18.7298 17.1017 18.75 17 18.75C16.9871 18.75 16.9742 18.7497 16.9614 18.749C16.8738 18.7446 16.7901 18.7251 16.7129 18.6931C16.6245 18.6565 16.5416 18.6022 16.4697 18.5303L14.4697 16.5303C14.1768 16.2374 14.1768 15.7626 14.4697 15.4697C14.7626 15.1768 15.2374 15.1768 15.5303 15.4697L16.25 16.1893V14C16.25 13.5858 16.5858 13.25 17 13.25Z" fill="white"/>
</svg>
