<svg width="24" height="24" viewBox="0 0 24 24" fill="none" xmlns="http://www.w3.org/2000/svg">
<path d="M1.25 7C1.25 4.37679 3.37679 2.25 6 2.25H16C18.6232 2.25 20.75 4.37679 20.75 7C20.75 8.4563 20.0945 9.7596 19.0625 10.6309C21.2196 11.46 22.75 13.5516 22.75 16C22.75 19.1751 20.1763 21.75 17 21.75C15.2575 21.75 13.6958 20.9746 12.6413 19.75H6C3.37679 19.75 1.25 17.6232 1.25 15C1.25 13.3206 2.1217 11.8447 3.4373 11C2.1217 10.1553 1.25 8.67941 1.25 7ZM13.6062 18.5582C14.382 19.5858 15.6136 20.25 17 20.25C19.3477 20.25 21.25 18.3469 21.25 16C21.25 13.6531 19.3477 11.75 17 11.75C14.6532 11.75 12.75 13.6532 12.75 16C12.75 16.953 13.0638 17.8328 13.5938 18.5417L13.6062 18.5582ZM11.707 18.25C11.4128 17.5589 11.25 16.7984 11.25 16C11.25 15.9162 11.2518 15.8329 11.2553 15.75H10C9.58579 15.75 9.25 15.4142 9.25 15C9.25 14.5858 9.58579 14.25 10 14.25H11.5212C11.8311 13.2793 12.3919 12.4205 13.1273 11.75H6C4.20521 11.75 2.75 13.2052 2.75 15C2.75 16.7948 4.20521 18.25 6 18.25H11.707ZM16 10.25C17.7948 10.25 19.25 8.79479 19.25 7C19.25 5.20521 17.7948 3.75 16 3.75H6C4.20521 3.75 2.75 5.20521 2.75 7C2.75 8.79479 4.20521 10.25 6 10.25H16ZM19.7523 14.3588C20.0452 14.6517 20.0452 15.1266 19.7523 15.4195L16.9743 18.1975C16.8337 18.3382 16.6429 18.4172 16.4439 18.4172C16.245 18.4171 16.0542 18.3381 15.9135 18.1973L14.2475 16.5303C13.9547 16.2374 13.9549 15.7625 14.2478 15.4697C14.5408 15.1769 15.0157 15.177 15.3085 15.47L16.4442 16.6063L18.6917 14.3588C18.9846 14.0659 19.4595 14.0659 19.7523 14.3588ZM10 6.25C9.58579 6.25 9.25 6.58579 9.25 7C9.25 7.41421 9.58579 7.75 10 7.75H16C16.4142 7.75 16.75 7.41421 16.75 7C16.75 6.58579 16.4142 6.25 16 6.25H10Z" fill="white"/>
</svg>
