<svg width="24" height="24" viewBox="0 0 24 24" fill="none" xmlns="http://www.w3.org/2000/svg">
<path d="M17.5794 5.91654C14.3573 2.69446 9.1342 2.69443 5.91209 5.91646C2.8469 8.98265 2.70445 13.8592 5.47673 17.1018C5.7459 17.4166 5.70889 17.89 5.39405 18.1592C5.07922 18.4284 4.60579 18.3914 4.33662 18.0765C1.06093 14.2451 1.22654 8.48178 4.85127 4.85596C8.65916 1.04807 14.8321 1.04799 18.64 4.85588C22.2659 8.48177 22.4304 14.2463 19.1547 18.0766C18.8855 18.3914 18.412 18.4284 18.0972 18.1592C17.7824 17.8899 17.7455 17.4165 18.0147 17.1017C20.787 13.8601 20.6455 8.98265 17.5794 5.91654ZM15.1044 8.39178C13.2493 6.53667 10.2421 6.53667 8.38702 8.39178C6.68498 10.0938 6.56333 12.7649 8.00092 14.6318C8.25364 14.96 8.19246 15.4309 7.86427 15.6836C7.53609 15.9364 7.06517 15.8752 6.81245 15.547C4.92804 13.0999 5.07639 9.58108 7.32636 7.33112C7.96496 6.69252 8.70732 6.22099 9.49916 5.91654C10.9421 5.36175 12.5493 5.36175 13.9922 5.91654C14.7841 6.22099 15.5264 6.69252 16.165 7.33112C18.4161 9.58218 18.5633 13.1001 16.6778 15.5472C16.425 15.8753 15.9541 15.9363 15.6259 15.6835C15.2978 15.4307 15.2368 14.9597 15.4896 14.6316C16.9281 12.7647 16.8073 10.0947 15.1044 8.39178ZM10.697 10.7013C10.1179 11.2804 10.1179 12.2196 10.697 12.7987C10.9735 13.0751 11.332 13.2196 11.6943 13.2321C11.7113 13.231 11.7284 13.2304 11.7457 13.2304C11.763 13.2304 11.7801 13.231 11.7971 13.2321C12.1593 13.2196 12.5179 13.0751 12.7944 12.7987C13.3735 12.2196 13.3735 11.2804 12.7944 10.7013C12.2152 10.1222 11.2761 10.1222 10.697 10.7013ZM13.855 13.8593C13.465 14.2494 12.9937 14.5088 12.4957 14.6377V20.0004H14.7457C15.1599 20.0004 15.4957 20.3362 15.4957 20.7504C15.4957 21.1646 15.1599 21.5004 14.7457 21.5004H8.74566C8.33145 21.5004 7.99566 21.1646 7.99566 20.7504C7.99566 20.3362 8.33145 20.0004 8.74566 20.0004H10.9957V14.6377C10.4976 14.5088 10.0264 14.2494 9.63633 13.8593C8.47144 12.6944 8.47144 10.8056 9.63633 9.64072C10.8012 8.47583 12.6901 8.47583 13.855 9.64072C15.0199 10.8056 15.0199 12.6944 13.855 13.8593Z" fill="white"/>
</svg>
