<svg width="24" height="24" viewBox="0 0 24 24" fill="none" xmlns="http://www.w3.org/2000/svg">
<path d="M16.2974 3.52261C17.9507 1.86932 20.7787 3.0395 20.7787 5.37894V18.6259C20.7787 20.0752 19.6039 21.2499 18.1547 21.2499H4.90872C2.56929 21.2499 1.39911 18.4219 3.05237 16.7686C3.05236 16.7686 3.05238 16.7686 3.05237 16.7686L16.2974 3.52261ZM17.358 4.58327C17.358 4.58326 17.358 4.58328 17.358 4.58327L4.11307 17.8292C3.40436 18.538 3.90616 19.7499 4.90872 19.7499H18.1547C18.7755 19.7499 19.2787 19.2467 19.2787 18.6259V5.37894C19.2787 4.37639 18.0667 3.87459 17.358 4.58327Z" fill="white"/>
</svg>
