<svg width="24" height="24" viewBox="0 0 24 24" fill="none" xmlns="http://www.w3.org/2000/svg">
<path d="M21.9095 8.36632C16.4461 3.54456 7.5535 3.54456 2.09004 8.36632C1.77948 8.64041 1.30553 8.61084 1.03144 8.30028C0.757348 7.98971 0.786918 7.51576 1.09749 7.24168C7.12802 1.91944 16.8715 1.91944 22.9021 7.24168C23.2126 7.51576 23.2422 7.98971 22.9681 8.30028C22.694 8.61084 22.2201 8.64041 21.9095 8.36632ZM5.09771 12.5525C8.90292 9.06256 15.0957 9.06256 18.9009 12.5525C19.2061 12.8325 19.6806 12.812 19.9605 12.5067C20.2405 12.2015 20.22 11.7271 19.9147 11.4471C15.536 7.43105 8.46261 7.43105 4.08383 11.4471C3.77856 11.7271 3.75806 12.2015 4.03804 12.5067C4.31801 12.812 4.79244 12.8325 5.09771 12.5525ZM11.9988 18.5C11.3808 18.5 10.8727 19.0011 10.8758 19.6268V19.6214L11.6248 19.625L10.8758 19.6268C10.8757 20.249 11.3811 20.75 11.9998 20.75C12.621 20.75 13.1248 20.2462 13.1248 19.625C13.1248 19.0025 12.6197 18.5 11.9988 18.5ZM8.10768 16.3527C10.2562 14.2158 13.7425 14.2158 15.8909 16.3527C16.1846 16.6449 16.6594 16.6436 16.9516 16.3499C17.2437 16.0562 17.2424 15.5814 16.9487 15.2893C14.2152 12.5702 9.78341 12.5702 7.04986 15.2893C6.75618 15.5814 6.75492 16.0562 7.04703 16.3499C7.33914 16.6436 7.814 16.6449 8.10768 16.3527Z" fill="white"/>
</svg>
