<svg width="24" height="24" viewBox="0 0 24 24" fill="none" xmlns="http://www.w3.org/2000/svg">
<path d="M19.4554 2.40427C19.7844 2.65588 19.8472 3.12659 19.5955 3.45563L18.1297 5.37246C18.1167 5.39125 18.1028 5.40933 18.0883 5.42666L14.7242 9.82584C14.7162 9.83686 14.708 9.84764 14.6995 9.85817L6.59551 20.4556C6.34389 20.7847 5.87318 20.8474 5.54415 20.5958C5.21512 20.3442 5.15236 19.8735 5.40397 19.5445L12.7299 9.96445C9.98322 9.77584 7.1795 10.6438 5.09764 12.5528C4.79234 12.8327 4.31791 12.8121 4.03797 12.5068C3.75804 12.2015 3.7786 11.7271 4.0839 11.4472C6.74152 9.01032 10.3787 8.06435 13.7944 8.57239L16.2699 5.33523C11.4191 3.97299 5.90884 4.99667 2.09001 8.36655C1.77942 8.64061 1.30547 8.61101 1.03141 8.30043C0.757336 7.98985 0.786936 7.5159 1.09752 7.24183C5.48249 3.37238 11.8119 2.32761 17.2438 4.0616L18.404 2.54445C18.6556 2.21542 19.1263 2.15266 19.4554 2.40427ZM10.8758 19.6268C10.8727 19.0011 11.3808 18.5 11.9988 18.5C12.6197 18.5 13.1248 19.0025 13.1248 19.625C13.1248 20.2462 12.621 20.75 11.9998 20.75C11.3811 20.75 10.8757 20.249 10.8758 19.6268ZM10.8758 19.6268L11.6248 19.625L10.8758 19.6214V19.6268ZM17.6177 9.83438C17.2516 9.64057 16.7978 9.78023 16.604 10.1463C16.4101 10.5124 16.5498 10.9663 16.9159 11.1601C17.629 11.5376 18.2974 11.9984 18.9003 12.5525C19.2053 12.8327 19.6798 12.8127 19.96 12.5077C20.2403 12.2027 20.2203 11.7283 19.9153 11.448C19.2102 10.8 18.4346 10.2669 17.6177 9.83438ZM19.7815 5.98008C19.998 5.62698 20.4598 5.51628 20.8129 5.73283C21.5266 6.17056 22.2387 6.65776 22.9014 7.24127C23.2123 7.51499 23.2424 7.9889 22.9687 8.29979C22.695 8.61068 22.2211 8.64081 21.9102 8.36709C21.3349 7.8606 20.701 7.4238 20.0287 7.01152C19.6756 6.79497 19.5649 6.33318 19.7815 5.98008ZM14.53 13.7266C14.1432 13.5784 13.7095 13.7719 13.5614 14.1587C13.4133 14.5456 13.6067 14.9792 13.9936 15.1274C14.6856 15.3924 15.334 15.7993 15.8911 16.353C16.185 16.6449 16.6598 16.6434 16.9518 16.3496C17.2438 16.0558 17.2423 15.5809 16.9484 15.289C16.2376 14.5826 15.4099 14.0635 14.53 13.7266Z" fill="white"/>
</svg>
