<svg width="24" height="24" viewBox="0 0 24 24" fill="none" xmlns="http://www.w3.org/2000/svg">
<path d="M4.05456 4.79389C13.1023 4.13511 19.8648 10.8977 19.2061 19.9454C19.176 20.3585 19.4865 20.7178 19.8996 20.7479C20.3127 20.778 20.672 20.4675 20.7021 20.0543C21.4273 10.0941 13.9059 2.57263 3.94563 3.29785C3.53251 3.32793 3.22199 3.68721 3.25207 4.10033C3.28215 4.51345 3.64144 4.82397 4.05456 4.79389ZM12.1366 11.8633C10.2233 9.95002 7.3971 8.89784 4.07342 9.22428C3.66119 9.26476 3.29419 8.96341 3.2537 8.55118C3.21322 8.13895 3.51458 7.77195 3.92681 7.73146C7.65913 7.36489 10.9404 8.54572 13.1973 10.8027C15.4542 13.0596 16.6351 16.3409 16.2685 20.0732C16.228 20.4854 15.861 20.7868 15.4488 20.7463C15.0366 20.7058 14.7352 20.3388 14.7757 19.9266C15.1021 16.6029 14.0499 13.7766 12.1366 11.8633ZM4.11162 13.6504C6.22056 13.3333 7.91487 13.9079 9.00312 14.9963C10.0914 16.0846 10.666 17.7793 10.3494 19.8883C10.2879 20.298 10.5701 20.6799 10.9797 20.7414C11.3893 20.8029 11.7713 20.5207 11.8328 20.1111C12.2081 17.6111 11.5418 15.4138 10.0638 13.9356C8.58583 12.4575 6.38864 11.7911 3.88859 12.167C3.47898 12.2286 3.19685 12.6106 3.25844 13.0202C3.32003 13.4298 3.70201 13.712 4.11162 13.6504ZM4.75012 18.2271C4.75012 17.6623 5.20833 17.2041 5.77312 17.2041C6.33791 17.2041 6.79612 17.6623 6.79612 18.2271C6.79612 18.7919 6.33791 19.2501 5.77312 19.2501C5.20833 19.2501 4.75012 18.7919 4.75012 18.2271ZM5.77312 15.7041C4.37991 15.7041 3.25012 16.8339 3.25012 18.2271C3.25012 19.6203 4.37991 20.7501 5.77312 20.7501C7.16633 20.7501 8.29612 19.6203 8.29612 18.2271C8.29612 16.8339 7.16633 15.7041 5.77312 15.7041Z" fill="white"/>
</svg>
