<svg width="24" height="24" viewBox="0 0 24 24" fill="none" xmlns="http://www.w3.org/2000/svg">
<g clip-path="url(#clip0_7_2928)">
<mask id="mask0_7_2928" style="mask-type:luminance" maskUnits="userSpaceOnUse" x="0" y="0" width="24" height="24">
<path d="M24 0H0V24H24V0Z" fill="white"/>
</mask>
<g mask="url(#mask0_7_2928)">
<path d="M22.8997 7.2001C16.8997 1.9001 7.09974 1.9001 1.09974 7.2001C0.799739 7.5001 0.799739 8.0001 0.999739 8.3001C1.29974 8.6001 1.69974 8.6001 2.09974 8.4001C7.59974 3.6001 16.4997 3.6001 21.8997 8.4001C21.9997 8.5001 22.1997 8.6001 22.3997 8.6001C22.5997 8.6001 22.7997 8.5001 22.9997 8.3001C23.1997 8.0001 23.1997 7.5001 22.8997 7.2001Z" fill="white"/>
<path d="M11.9997 16.8001C12.3997 16.8001 12.7997 16.5001 12.7997 16.0001V9.2001C12.7997 8.8001 12.4997 8.4001 11.9997 8.4001C11.4997 8.4001 11.1997 8.7001 11.1997 9.2001V16.0001C11.1997 16.4001 11.5997 16.8001 11.9997 16.8001Z" fill="white"/>
<path d="M11.9997 18.8001C11.6997 18.8001 11.4997 18.9001 11.2997 19.1001C11.0997 19.3001 10.9997 19.5001 10.9997 19.8001C10.9997 20.4001 11.3997 20.8001 11.9997 20.8001C12.5997 20.8001 12.9997 20.4001 12.9997 19.8001C12.9997 19.2001 12.5997 18.8001 11.9997 18.8001Z" fill="white"/>
<path d="M15.1997 8.9001C14.7997 8.8001 14.3997 9.0001 14.2997 9.4001C14.1997 9.8001 14.3997 10.2001 14.7997 10.3001C16.3997 10.7001 17.7997 11.5001 18.8997 12.5001C18.9997 12.6001 19.1997 12.7001 19.3997 12.7001C19.5997 12.7001 19.7997 12.6001 19.9997 12.5001C20.2997 12.2001 20.2997 11.7001 19.9997 11.4001C18.5997 10.2001 16.9997 9.4001 15.1997 8.9001Z" fill="white"/>
<path d="M9.69974 9.4001C9.59974 9.0001 9.19974 8.8001 8.79974 8.9001C6.99974 9.4001 5.39974 10.2001 4.09974 11.4001C3.79974 11.7001 3.79974 12.2001 4.09974 12.5001C4.19974 12.7001 4.49974 12.7001 4.69974 12.7001C4.89974 12.7001 5.09974 12.6001 5.19974 12.5001C6.29974 11.5001 7.69974 10.7001 9.29974 10.3001C9.59974 10.2001 9.79974 9.8001 9.69974 9.4001Z" fill="white"/>
<path d="M15.3997 14.1001C14.9997 13.9001 14.5997 14.0001 14.3997 14.4001C14.1997 14.8001 14.2997 15.2001 14.6997 15.4001C15.1997 15.7001 15.5997 16.0001 15.8997 16.3001C15.9997 16.4001 16.1997 16.5001 16.3997 16.5001C16.5997 16.5001 16.7997 16.4001 16.8997 16.3001C17.1997 16.0001 17.1997 15.5001 16.8997 15.2001C16.4997 14.8001 15.9997 14.4001 15.3997 14.1001Z" fill="white"/>
<path d="M8.59974 14.1001C7.99974 14.4001 7.49974 14.8001 6.99974 15.3001C6.69974 15.6001 6.69974 16.1001 6.99974 16.4001C7.09974 16.5001 7.29974 16.6001 7.49974 16.6001C7.69974 16.6001 7.89974 16.5001 7.99974 16.4001C8.39974 16.1001 8.79974 15.7001 9.19974 15.5001C9.59974 15.3001 9.69974 14.8001 9.49974 14.5001C9.49974 14.1001 8.99974 13.9001 8.59974 14.1001Z" fill="white"/>
</g>
</g>
<defs>
<clipPath id="clip0_7_2928">
<rect width="24" height="24" fill="white"/>
</clipPath>
</defs>
</svg>
