<svg width="24" height="24" viewBox="0 0 24 24" fill="none" xmlns="http://www.w3.org/2000/svg">
<path d="M3.75 12C3.75 7.44321 7.44321 3.75 12 3.75C16.5568 3.75 20.25 7.44321 20.25 12C20.25 16.5568 16.5568 20.25 12 20.25C7.44321 20.25 3.75 16.5568 3.75 12ZM12 2.25C6.61479 2.25 2.25 6.61479 2.25 12C2.25 17.3852 6.61479 21.75 12 21.75C17.3852 21.75 21.75 17.3852 21.75 12C21.75 6.61479 17.3852 2.25 12 2.25ZM10.279 12C10.279 11.0332 11.0622 10.25 12.029 10.25C12.4706 10.25 12.8723 10.4144 13.182 10.6875C13.4926 10.9615 13.9666 10.9317 14.2405 10.621C14.5145 10.3104 14.4847 9.83643 14.174 9.56247C13.6037 9.05957 12.8534 8.75 12.029 8.75C10.2338 8.75 8.779 10.2048 8.779 12C8.779 13.7952 10.2338 15.25 12.029 15.25C12.8534 15.25 13.6029 14.9387 14.1727 14.4387C14.484 14.1655 14.5149 13.6916 14.2417 13.3803C13.9685 13.069 13.4946 13.0381 13.1833 13.3113C12.8711 13.5853 12.4686 13.75 12.029 13.75C11.0622 13.75 10.279 12.9668 10.279 12Z" fill="white"/>
</svg>
