<svg width="24" height="24" viewBox="0 0 24 24" fill="none" xmlns="http://www.w3.org/2000/svg">
<path d="M3.75 12C3.75 7.44321 7.44321 3.75 12 3.75C16.5568 3.75 20.25 7.44321 20.25 12C20.25 16.5568 16.5568 20.25 12 20.25C7.44321 20.25 3.75 16.5568 3.75 12ZM12 2.25C6.61479 2.25 2.25 6.61479 2.25 12C2.25 17.3852 6.61479 21.75 12 21.75C17.3852 21.75 21.75 17.3852 21.75 12C21.75 6.61479 17.3852 2.25 12 2.25ZM9.58 12C9.58 10.7572 10.5872 9.75 11.83 9.75C12.3988 9.75 12.9153 9.96159 13.3127 10.3123C13.6233 10.5864 14.0972 10.5568 14.3713 10.2463C14.6454 9.93573 14.6158 9.46178 14.3053 9.18768C13.6467 8.60641 12.7812 8.25 11.83 8.25C9.75879 8.25 8.08 9.92879 8.08 12C8.08 14.0712 9.75879 15.75 11.83 15.75C12.781 15.75 13.6458 15.392 14.3042 14.8133C14.6153 14.5398 14.6458 14.0659 14.3723 13.7548C14.0988 13.4437 13.6249 13.4132 13.3138 13.6867C12.9142 14.038 12.397 14.25 11.83 14.25C10.5872 14.25 9.58 13.2428 9.58 12Z" fill="white"/>
</svg>
