<svg width="24" height="24" viewBox="0 0 24 24" fill="none" xmlns="http://www.w3.org/2000/svg">
<path d="M12 3.75C7.44321 3.75 3.75 7.44321 3.75 12C3.75 16.5568 7.44321 20.25 12 20.25C16.5568 20.25 20.25 16.5568 20.25 12C20.25 7.44321 16.5568 3.75 12 3.75ZM2.25 12C2.25 6.61479 6.61479 2.25 12 2.25C17.3852 2.25 21.75 6.61479 21.75 12C21.75 17.3852 17.3852 21.75 12 21.75C6.61479 21.75 2.25 17.3852 2.25 12ZM8.75 12C8.75 10.2052 10.2052 8.75 12 8.75C12.8218 8.75 13.5694 9.05656 14.1429 9.56245C14.4535 9.83646 14.9274 9.80677 15.2014 9.49614C15.4755 9.18551 15.4458 8.71156 15.1351 8.43755C14.3006 7.70144 13.2042 7.25 12 7.25C9.37679 7.25 7.25 9.37679 7.25 12C7.25 14.6218 9.37454 16.7477 11.9958 16.75H12C13.2039 16.75 14.2997 16.2971 15.1343 15.5632C15.4453 15.2897 15.4757 14.8158 15.2022 14.5047C14.9287 14.1937 14.4548 14.1633 14.1437 14.4368C13.5691 14.9422 12.8222 15.2491 12.0034 15.25H12C10.2052 15.25 8.75 13.7948 8.75 12Z" fill="white"/>
</svg>
