<svg width="24" height="24" viewBox="0 0 24 24" fill="none" xmlns="http://www.w3.org/2000/svg">
<path d="M12 3.75C7.44321 3.75 3.75 7.44321 3.75 12C3.75 16.5568 7.44321 20.25 12 20.25C16.5568 20.25 20.25 16.5568 20.25 12C20.25 7.44321 16.5568 3.75 12 3.75ZM2.25 12C2.25 6.61479 6.61479 2.25 12 2.25C17.3852 2.25 21.75 6.61479 21.75 12C21.75 17.3852 17.3852 21.75 12 21.75C6.61479 21.75 2.25 17.3852 2.25 12ZM9 10.25C8.03321 10.25 7.25 11.0332 7.25 12C7.25 12.9668 8.03321 13.75 9 13.75C9.44159 13.75 9.84325 13.5856 10.153 13.3125C10.4636 13.0385 10.9376 13.0683 11.2115 13.379C11.4855 13.6896 11.4557 14.1636 11.145 14.4375C10.5747 14.9404 9.82441 15.25 9 15.25C7.20479 15.25 5.75 13.7952 5.75 12C5.75 10.2048 7.20479 8.75 9 8.75C9.82441 8.75 10.5747 9.05957 11.145 9.56247C11.4557 9.83643 11.4855 10.3104 11.2115 10.621C10.9376 10.9317 10.4636 10.9615 10.153 10.6875C9.84325 10.4144 9.44159 10.25 9 10.25ZM13.601 12C13.601 11.0332 14.3842 10.25 15.351 10.25C15.7926 10.25 16.1942 10.4144 16.504 10.6875C16.8146 10.9615 17.2886 10.9317 17.5625 10.621C17.8365 10.3104 17.8067 9.83643 17.496 9.56247C16.9257 9.05957 16.1754 8.75 15.351 8.75C13.5558 8.75 12.101 10.2048 12.101 12C12.101 13.7952 13.5558 15.25 15.351 15.25C16.1742 15.25 16.9256 14.9405 17.496 14.4375C17.8067 14.1636 17.8365 13.6896 17.5625 13.379C17.2886 13.0683 16.8146 13.0385 16.504 13.3125C16.1944 13.5855 15.7917 13.75 15.351 13.75C14.3842 13.75 13.601 12.9668 13.601 12Z" fill="white"/>
</svg>
