<svg width="24" height="24" viewBox="0 0 24 24" fill="none" xmlns="http://www.w3.org/2000/svg">
<path d="M17.8336 6.16621C14.6116 2.94419 9.38835 2.94498 6.16613 6.16628C2.94426 9.38723 2.94494 14.6114 6.16628 17.8336C9.38733 21.0556 14.6114 21.0557 17.8336 17.8335C21.0556 14.6124 21.0557 9.38835 17.8336 6.16621ZM5.10562 5.10547C8.9134 1.29877 15.0862 1.29756 18.8942 5.10554C22.7021 8.9134 22.7022 15.0873 18.8942 18.8943C15.0863 22.7021 8.9124 22.7021 5.10547 18.8941C1.29882 15.0864 1.29749 8.91252 5.10562 5.10547ZM12.8814 9.31911C13.147 9.19649 13.4596 9.2394 13.6822 9.42905L15.3479 10.8478L17.0136 9.42905C17.2362 9.2394 17.5488 9.19649 17.8143 9.31911C18.0799 9.44174 18.2499 9.70753 18.2499 10V14C18.2499 14.4142 17.9141 14.75 17.4999 14.75C17.0857 14.75 16.7499 14.4142 16.7499 14V11.624L15.8342 12.404C15.5539 12.6427 15.1418 12.6427 14.8616 12.404L13.9459 11.624V14C13.9459 14.4142 13.6101 14.75 13.1959 14.75C12.7817 14.75 12.4459 14.4142 12.4459 14V10C12.4459 9.70753 12.6159 9.44174 12.8814 9.31911ZM7.47486 9.25C6.50864 9.25 5.72486 10.0338 5.72486 11C5.72486 11.9662 6.50864 12.75 7.47486 12.75H9.47486C9.61264 12.75 9.72486 12.8622 9.72486 13C9.72486 13.1378 9.61264 13.25 9.47486 13.25H6.69986C6.28564 13.25 5.94986 13.5858 5.94986 14C5.94986 14.4142 6.28564 14.75 6.69986 14.75H9.47486C10.4411 14.75 11.2249 13.9662 11.2249 13C11.2249 12.0338 10.4411 11.25 9.47486 11.25H7.47486C7.33707 11.25 7.22486 11.1378 7.22486 11C7.22486 10.8622 7.33707 10.75 7.47486 10.75H10.2499C10.6641 10.75 10.9999 10.4142 10.9999 10C10.9999 9.58579 10.6641 9.25 10.2499 9.25H7.47486Z" fill="white"/>
</svg>
