<svg width="24" height="24" viewBox="0 0 24 24" fill="none" xmlns="http://www.w3.org/2000/svg">
<path fill-rule="evenodd" clip-rule="evenodd" d="M3.75 12C3.75 7.44321 7.44321 3.75 12 3.75C16.5568 3.75 20.25 7.44321 20.25 12C20.25 16.5568 16.5568 20.25 12 20.25C7.44321 20.25 3.75 16.5568 3.75 12ZM12 2.25C6.61479 2.25 2.25 6.61479 2.25 12C2.25 17.3852 6.61479 21.75 12 21.75C17.3852 21.75 21.75 17.3852 21.75 12C21.75 6.61479 17.3852 2.25 12 2.25ZM8.56601 9.25H10.48C10.8942 9.25 11.23 9.58579 11.23 10C11.23 10.4142 10.8942 10.75 10.48 10.75H9.31601V14C9.31601 14.4142 8.98022 14.75 8.56601 14.75C8.1518 14.75 7.81601 14.4142 7.81601 14V10.75H6.64999C6.23578 10.75 5.89999 10.4142 5.89999 10C5.89999 9.58579 6.23578 9.25 6.64999 9.25H8.56601ZM12.5384 9.30408C12.8226 9.18991 13.1477 9.26003 13.3596 9.48119L14.734 10.9159L16.1084 9.48119C16.3203 9.26003 16.6454 9.18991 16.9296 9.30408C17.2138 9.41824 17.4 9.69375 17.4 10V14C17.4 14.4142 17.0642 14.75 16.65 14.75C16.2358 14.75 15.9 14.4142 15.9 14V11.8671L15.2756 12.5189C15.1341 12.6665 14.9385 12.75 14.734 12.75C14.5295 12.75 14.3339 12.6665 14.1924 12.5189L13.568 11.8671V14C13.568 14.4142 13.2322 14.75 12.818 14.75C12.4038 14.75 12.068 14.4142 12.068 14V10C12.068 9.69375 12.2542 9.41824 12.5384 9.30408Z" fill="white"/>
</svg>
