<svg width="24" height="24" viewBox="0 0 24 24" fill="none" xmlns="http://www.w3.org/2000/svg">
<path d="M20 3.25C20.7293 3.25 21.4286 3.53994 21.9443 4.05566C22.4601 4.57139 22.75 5.27065 22.75 6V18C22.75 18.7293 22.4601 19.4286 21.9443 19.9443C21.4286 20.4601 20.7293 20.75 20 20.75H4C3.27065 20.75 2.57139 20.4601 2.05566 19.9443C1.53994 19.4286 1.25 18.7293 1.25 18V6C1.25 5.27065 1.53994 4.57139 2.05566 4.05566C2.57139 3.53994 3.27065 3.25 4 3.25H20ZM2.75 18C2.75 18.3315 2.88179 18.6494 3.11621 18.8838C3.35063 19.1182 3.66848 19.25 4 19.25H20C20.3315 19.25 20.6494 19.1182 20.8838 18.8838C21.1182 18.6494 21.25 18.3315 21.25 18V12.75H15.6719C15.5732 13.25 15.3714 13.8098 15.0088 14.3135C14.4197 15.1315 13.4444 15.75 12 15.75C10.5556 15.75 9.58027 15.1315 8.99121 14.3135C8.62859 13.8098 8.42675 13.25 8.32812 12.75H2.75V18ZM2.75 11.25H9L9.07715 11.2539C9.45512 11.2925 9.75 11.6118 9.75 12C9.75 12.38 9.8705 12.9664 10.209 13.4365C10.5199 13.8684 11.0444 14.25 12 14.25C12.9556 14.25 13.4801 13.8684 13.791 13.4365C14.1295 12.9664 14.25 12.38 14.25 12L14.2539 11.9229C14.2925 11.5449 14.6118 11.25 15 11.25H21.25V8.75H2.75V11.25ZM4 4.75C3.66848 4.75 3.35063 4.88179 3.11621 5.11621C2.88179 5.35063 2.75 5.66848 2.75 6V7.25H21.25V6C21.25 5.66848 21.1182 5.35063 20.8838 5.11621C20.6494 4.88179 20.3315 4.75 20 4.75H4Z" fill="white"/>
</svg>
