<svg width="24" height="24" viewBox="0 0 24 24" fill="none" xmlns="http://www.w3.org/2000/svg">
<path d="M21.8271 17.9961C22.2051 17.9575 22.4999 17.6382 22.4999 17.25V12C22.4999 11.5858 22.1642 11.25 21.7499 11.25C21.3357 11.25 20.9999 11.5858 20.9999 12V15.4394L15.0908 9.53026C14.882 9.3215 14.634 9.15601 14.3613 9.04296C14.1565 8.95812 13.9405 8.9035 13.7206 8.88183L13.4999 8.87109C13.2044 8.87109 12.9116 8.92987 12.6386 9.04296C12.4339 9.1278 12.2429 9.24176 12.0722 9.38183L11.9091 9.53026L9.53022 11.9092C9.46066 11.9787 9.3779 12.0336 9.28705 12.0713C9.19606 12.109 9.09843 12.1289 8.99994 12.1289C8.90146 12.1289 8.80382 12.109 8.71283 12.0713C8.66728 12.0524 8.62374 12.0292 8.58295 12.0019L8.46967 11.9092L2.78022 6.21972C2.48733 5.92683 2.01257 5.92685 1.71967 6.21972C1.42678 6.51261 1.42678 6.98737 1.71967 7.28026L7.40912 12.9697L7.57221 13.1182C7.74287 13.2582 7.93391 13.3722 8.13862 13.457C8.41162 13.5701 8.70444 13.6289 8.99994 13.6289C9.29544 13.6289 9.58827 13.5701 9.86127 13.457C10.134 13.344 10.382 13.1785 10.5908 12.9697L12.9697 10.5908L13.083 10.498C13.1237 10.4708 13.1673 10.4476 13.2128 10.4287C13.3038 10.391 13.4015 10.3711 13.4999 10.3711L13.6464 10.3857C13.6944 10.3953 13.7416 10.4099 13.7871 10.4287C13.8779 10.4664 13.9607 10.5213 14.0302 10.5908L19.9394 16.5H16.4999C16.0857 16.5 15.7499 16.8358 15.7499 17.25C15.7499 17.6642 16.0857 18 16.4999 18H21.7499L21.8271 17.9961Z" fill="white"/>
</svg>
