<svg width="24" height="24" viewBox="0 0 24 24" fill="none" xmlns="http://www.w3.org/2000/svg">
<path d="M21.8271 6.00391C22.205 6.04255 22.4999 6.36185 22.4999 6.75V12C22.4999 12.4142 22.1641 12.75 21.7499 12.75C21.3357 12.75 20.9999 12.4142 20.9999 12V8.56055L15.0908 14.4697C14.882 14.6785 14.634 14.844 14.3613 14.957C14.1565 15.0419 13.9404 15.0965 13.7206 15.1182L13.4999 15.1289C13.2045 15.1289 12.9116 15.0701 12.6386 14.957C12.4339 14.8722 12.2429 14.7582 12.0722 14.6182L11.9091 14.4697L9.53022 12.0908C9.46067 12.0213 9.37789 11.9664 9.28705 11.9287C9.19608 11.891 9.09841 11.8711 8.99994 11.8711C8.90147 11.8711 8.80381 11.891 8.71283 11.9287C8.6673 11.9476 8.62373 11.9708 8.58295 11.998L8.46967 12.0908L2.78022 17.7803C2.48734 18.0731 2.01257 18.0731 1.71967 17.7803C1.42678 17.4874 1.42678 17.0126 1.71967 16.7197L7.40912 11.0303L7.57221 10.8818C7.74286 10.7418 7.93393 10.6278 8.13862 10.543C8.4116 10.4299 8.70446 10.3711 8.99994 10.3711C9.29542 10.3711 9.58829 10.4299 9.86127 10.543C10.134 10.656 10.382 10.8215 10.5908 11.0303L12.9697 13.4092L13.083 13.502C13.1237 13.5292 13.1673 13.5524 13.2128 13.5713C13.3038 13.609 13.4015 13.6289 13.4999 13.6289L13.6464 13.6143C13.6944 13.6047 13.7416 13.5901 13.7871 13.5713C13.8779 13.5336 13.9607 13.4787 14.0302 13.4092L19.9394 7.5H16.4999C16.0857 7.5 15.7499 7.16421 15.7499 6.75C15.7499 6.33579 16.0857 6 16.4999 6H21.7499L21.8271 6.00391Z" fill="white"/>
</svg>
