<svg width="24" height="24" viewBox="0 0 24 24" fill="none" xmlns="http://www.w3.org/2000/svg">
<path d="M5.25 3C5.25 2.58579 5.58579 2.25 6 2.25H20C20.2539 2.25 20.4905 2.37844 20.6289 2.59131C20.7672 2.80419 20.7885 3.0726 20.6854 3.3046L18.8207 7.5L20.6854 11.6954C20.7885 11.9274 20.7672 12.1958 20.6289 12.4087C20.4905 12.6216 20.2539 12.75 20 12.75H6.75V19.25H8C8.41421 19.25 8.75 19.5858 8.75 20C8.75 20.4142 8.41421 20.75 8 20.75H6H4C3.58579 20.75 3.25 20.4142 3.25 20C3.25 19.5858 3.58579 19.25 4 19.25H5.25V12V3ZM6.75 3.75V11.25H18.8459L17.3146 7.8046C17.2285 7.61068 17.2285 7.38932 17.3146 7.1954L18.8459 3.75H6.75Z" fill="white"/>
</svg>
