<svg width="24" height="24" viewBox="0 0 24 24" fill="none" xmlns="http://www.w3.org/2000/svg">
<path d="M14.0581 3.5C15.8981 3.5 17.3481 3.5 18.4881 3.65C19.6581 3.81 20.6081 4.14 21.3581 4.89C22.1081 5.64 22.4381 6.59 22.5981 7.76C22.6881 8.43 22.7181 9.22 22.7381 10.12C22.7481 10.17 22.7481 10.21 22.7481 10.25V12.31C22.7481 14.14 22.7481 15.6 22.5981 16.74C22.4381 17.91 22.1081 18.86 21.3581 19.61C20.6081 20.36 19.6581 20.69 18.4881 20.85C17.3481 21 15.8981 21 14.0581 21H9.94806C8.10806 21 6.65806 21 5.51806 20.85C4.34806 20.69 3.39806 20.36 2.64806 19.61C1.89806 18.86 1.56806 17.91 1.40806 16.74C1.25806 15.6 1.25806 14.14 1.25806 12.31V10.25C1.25806 10.21 1.26806 10.17 1.26806 10.12C1.27806 9.22 1.31806 8.43 1.40806 7.76C1.56806 6.59 1.89806 5.64 2.64806 4.89C3.39806 4.14 4.34806 3.81 5.51806 3.65C6.65806 3.5 8.10806 3.5 9.94806 3.5H14.0581ZM21.2181 9.5C21.1981 8.91 21.1681 8.41 21.1081 7.96C20.9681 6.95 20.7181 6.38 20.2981 5.95C19.8781 5.53 19.2981 5.28 18.2881 5.14C17.2581 5 15.9081 5 13.9981 5H9.99806C8.08806 5 6.73806 5 5.70806 5.14C4.69806 5.28 4.11806 5.53 3.69806 5.95C3.27806 6.38 3.01806 6.95 2.88806 7.96C2.82806 8.41 2.79806 8.91 2.77806 9.5H6.30806C6.91806 9.5 7.39806 9.5 7.83806 9.65C8.10806 9.75 8.35806 9.88 8.58806 10.06C8.95806 10.34 9.22806 10.74 9.56806 11.25L9.62806 11.33C10.0581 11.97 10.1781 12.14 10.3181 12.25C10.4181 12.33 10.5381 12.39 10.6581 12.43C10.8281 12.49 11.0381 12.5 11.7981 12.5H12.1881C12.9581 12.5 13.1581 12.49 13.3281 12.43C13.4481 12.39 13.5681 12.33 13.6681 12.25C13.8181 12.14 13.9381 11.97 14.3581 11.33L14.4181 11.25C14.7581 10.74 15.0181 10.34 15.3981 10.06C15.6281 9.88 15.8781 9.75 16.1481 9.65C16.5881 9.5 17.0681 9.5 17.6781 9.5H21.2181ZM2.74806 11V12.25C2.74806 14.16 2.74806 15.51 2.88806 16.54C3.02806 17.55 3.27806 18.12 3.69806 18.55C4.11806 18.97 4.69806 19.22 5.70806 19.36C6.73806 19.5 8.08806 19.5 9.99806 19.5H13.9981C15.9081 19.5 17.2581 19.5 18.2881 19.36C19.2981 19.22 19.8781 18.97 20.2981 18.55C20.7181 18.12 20.9781 17.55 21.1081 16.54C21.2481 15.51 21.2481 14.16 21.2481 12.25V11H17.7981C17.0281 11 16.8281 11.01 16.6581 11.07C16.5381 11.11 16.4181 11.17 16.3181 11.25C16.1681 11.36 16.0481 11.53 15.6281 12.17L15.5681 12.26C15.2281 12.76 14.9681 13.16 14.5881 13.45C14.3581 13.62 14.1081 13.75 13.8381 13.85C13.3981 14 12.9181 14 12.3081 14H11.6981C11.0881 14 10.6081 14 10.1681 13.85C9.89806 13.75 9.64806 13.62 9.41806 13.45C9.04806 13.16 8.77806 12.76 8.43806 12.26L8.37806 12.17C7.94806 11.53 7.82806 11.36 7.68806 11.25C7.58806 11.17 7.46806 11.11 7.34806 11.07C7.17806 11.01 6.96806 11 6.20806 11H2.74806Z" fill="white"/>
</svg>
