<svg width="24" height="24" viewBox="0 0 24 24" fill="none" xmlns="http://www.w3.org/2000/svg">
<path d="M3.24896 15.7764C3.34553 17.7256 3.62222 18.7709 4.247 19.4835L4.37689 19.6221L4.37786 19.6231L4.51654 19.753C5.22911 20.3777 6.27449 20.6545 8.22357 20.751C8.63721 20.7716 8.95694 21.1235 8.93646 21.5372C8.91595 21.9507 8.56374 22.2692 8.15033 22.2491C6.03011 22.1441 4.46082 21.8295 3.31634 20.6827C2.17066 19.5383 1.85587 17.969 1.75091 15.8497L2.49993 15.8135L3.24896 15.7764Z" fill="white"/>
<path d="M15.8495 22.2491C15.4361 22.2693 15.0839 21.9507 15.0634 21.5372C15.0429 21.1235 15.3626 20.7715 15.7763 20.751L15.8495 22.2491Z" fill="white"/>
<path d="M21.537 15.0635C21.9505 15.0841 22.2692 15.4362 22.249 15.8497C22.144 17.9693 21.8286 19.5373 20.6826 20.6817L20.6835 20.6827C19.5391 21.8296 17.9698 22.1441 15.8495 22.2491L15.8134 21.5001L15.7763 20.751C17.8556 20.648 18.9066 20.3401 19.622 19.6231L19.623 19.6221L19.7529 19.4835C20.3776 18.7709 20.6543 17.7255 20.7509 15.7764C20.7714 15.3627 21.1233 15.0431 21.537 15.0635Z" fill="white"/>
<path d="M11.9999 5.25007C14.1743 5.25015 15.7499 7.26539 15.7499 9.50007C15.7499 10.8656 15.1777 12.1117 14.2499 12.9005V13.4346L16.1142 13.9727C16.5821 14.1075 17.0055 14.3637 17.3417 14.7159C17.636 15.0242 17.8539 15.3963 17.9794 15.8018L18.0273 15.9766L18.2294 16.8262L18.2431 16.9024C18.293 17.2789 18.0512 17.6396 17.6738 17.7296C17.296 17.8195 16.9168 17.6062 16.7919 17.2471L16.7704 17.1739L16.5683 16.3253L16.5195 16.1671C16.4604 16.0133 16.3712 15.872 16.2568 15.752C16.1421 15.6319 16.0046 15.536 15.8535 15.4698L15.6982 15.4141L13.2919 14.7198C12.9709 14.6272 12.75 14.3332 12.7499 13.9991V12.5323C12.7499 12.2831 12.8735 12.0497 13.08 11.9102C13.7506 11.4574 14.2499 10.5705 14.2499 9.50007C14.2499 7.86887 13.1375 6.75016 11.9999 6.75007C10.8615 6.75007 9.74993 7.86863 9.74993 9.50007C9.74996 10.5707 10.248 11.4576 10.9189 11.9102C11.1255 12.0497 11.2499 12.283 11.2499 12.5323V13.9991C11.2499 14.332 11.0303 14.6252 10.7109 14.7188L8.31927 15.419C8.11311 15.4795 7.9263 15.5924 7.7763 15.7462C7.66365 15.8617 7.57427 15.9971 7.51361 16.1456L7.46283 16.2979L7.22454 17.1925C7.11812 17.5926 6.70771 17.8308 6.30755 17.7247C5.90736 17.6183 5.66909 17.2079 5.77533 16.8077L6.01263 15.9122L6.06439 15.7432C6.19567 15.3523 6.41311 14.9947 6.70208 14.6983C7.03228 14.3598 7.44452 14.1124 7.89837 13.9796L9.74993 13.4366V12.9005C8.82125 12.1115 8.24995 10.8653 8.24993 9.50007C8.24993 7.26551 9.8244 5.25007 11.9999 5.25007Z" fill="white"/>
<path d="M2.46283 15.0635C2.87647 15.0431 3.22847 15.3628 3.24896 15.7764L1.75091 15.8497C1.7307 15.4362 2.04928 15.084 2.46283 15.0635Z" fill="white"/>
<path d="M3.24896 8.2237C3.22844 8.63733 2.87645 8.957 2.46283 8.9366C2.0493 8.91612 1.73073 8.56393 1.75091 8.15046L3.24896 8.2237Z" fill="white"/>
<path d="M16.6191 1.80183C18.355 1.94796 19.6812 2.31363 20.6826 3.31648L20.8886 3.5362C21.8682 4.65932 22.1505 6.163 22.249 8.15046C22.2691 8.56388 21.9505 8.91605 21.537 8.9366C21.1234 8.95708 20.7714 8.63737 20.7509 8.2237C20.6479 6.14443 20.3399 5.09345 19.623 4.378L19.622 4.37703C18.9066 3.66005 17.8556 3.35212 15.7763 3.2491L15.6992 3.24128C15.3235 3.18408 15.0442 2.85067 15.0634 2.46296C15.0839 2.04942 15.436 1.73083 15.8495 1.75105L16.6191 1.80183Z" fill="white"/>
<path d="M8.2265 1.75105C8.60612 1.77071 8.91725 2.07512 8.93646 2.46296C8.9569 2.87659 8.63718 3.22854 8.22357 3.2491L7.49115 3.29792C5.88693 3.4356 5.00394 3.74962 4.37786 4.37703L4.37689 4.378C3.6599 5.09345 3.35197 6.14434 3.24896 8.2237L2.49993 8.1866L1.75091 8.15046C1.85592 6.03019 2.17042 4.46097 3.31732 3.31648C4.46172 2.17041 6.03067 1.85602 8.15033 1.75105H8.2265Z" fill="white"/>
</svg>
