<svg width="24" height="24" viewBox="0 0 24 24" fill="none" xmlns="http://www.w3.org/2000/svg">
<path d="M20.5391 19.499C20.5534 19.4985 20.5677 19.4973 20.582 19.4961L20.6026 19.4951C20.654 19.4899 20.7041 19.4805 20.7529 19.4678C20.7575 19.4666 20.762 19.4651 20.7666 19.4639C20.8243 19.448 20.8797 19.4269 20.9326 19.4014C20.9368 19.3994 20.9412 19.3976 20.9453 19.3955L20.9551 19.3906C20.9621 19.3871 20.9687 19.3827 20.9756 19.3789C21.0356 19.3465 21.0927 19.3074 21.1465 19.2617C21.159 19.2511 21.1717 19.2407 21.1836 19.2295C21.1861 19.2272 21.1889 19.2251 21.1914 19.2227C21.1966 19.2177 21.201 19.2121 21.2061 19.2071C21.2217 19.1914 21.2374 19.1758 21.252 19.1592C21.2587 19.1515 21.265 19.1436 21.2715 19.1358C21.2851 19.1193 21.298 19.1023 21.3106 19.085C21.3191 19.0732 21.327 19.061 21.335 19.0489C21.3449 19.0338 21.3542 19.0185 21.3633 19.003C21.3685 18.9941 21.3741 18.9856 21.3789 18.9766C21.3904 18.9554 21.4002 18.9333 21.4102 18.9112C21.4139 18.9029 21.4184 18.8951 21.4219 18.8867C21.4291 18.8695 21.4351 18.8517 21.4414 18.834C21.4457 18.8219 21.4503 18.8101 21.4541 18.7979C21.4585 18.7837 21.462 18.7693 21.4658 18.7549C21.4704 18.7374 21.4749 18.7199 21.4785 18.7022C21.4817 18.6867 21.4839 18.671 21.4863 18.6553C21.4939 18.6067 21.4986 18.5579 21.499 18.5088C21.4991 18.5059 21.5 18.503 21.5 18.5V12.5C21.5 11.9477 21.0523 11.5 20.5 11.5C19.9477 11.5 19.5 11.9477 19.5 12.5V16.0069L13.8154 10.0586C13.4908 9.71916 12.9734 9.65205 12.5723 9.89651L8.38869 12.4463L3.77052 6.86233C3.41848 6.43699 2.78781 6.37759 2.36232 6.72951C1.93698 7.08155 1.8776 7.71222 2.22951 8.13772L7.39943 14.3877L7.46095 14.4561C7.78386 14.7806 8.29172 14.8458 8.68947 14.6035L12.9248 12.0235L18.1602 17.5H14.5C13.9477 17.5 13.5 17.9477 13.5 18.5C13.5 19.0523 13.9477 19.5 14.5 19.5H20.5L20.5391 19.499Z" fill="white"/>
</svg>
