<svg width="24" height="24" viewBox="0 0 24 24" fill="none" xmlns="http://www.w3.org/2000/svg">
<path d="M16.5 12.2503C16.7901 12.2503 17.0696 12.3513 17.292 12.5335L17.3838 12.6165L17.4668 12.7083C17.6489 12.9307 17.75 13.2103 17.75 13.5003C17.7499 13.8317 17.6181 14.1497 17.3838 14.3841C17.1494 14.6184 16.8315 14.7503 16.5 14.7503C16.1685 14.7503 15.8506 14.6184 15.6162 14.3841C15.4113 14.1791 15.2844 13.9102 15.2559 13.6243L15.25 13.5003L15.2559 13.3763C15.2844 13.0903 15.4113 12.8215 15.6162 12.6165L15.708 12.5335C15.9304 12.3513 16.2099 12.2503 16.5 12.2503Z" fill="white"/>
<path d="M15.4453 2.91044C15.8055 2.83626 16.1774 2.83521 16.5391 2.90751C16.9522 2.99011 17.3407 3.16652 17.6748 3.42313C18.009 3.67986 18.2805 4.01002 18.4668 4.38798C18.653 4.76581 18.7499 5.18161 18.75 5.60282V6.25028H19C19.7293 6.25028 20.4286 6.54022 20.9443 7.05595C21.46 7.57166 21.75 8.271 21.75 9.00028V18.0003C21.7499 18.7295 21.46 19.429 20.9443 19.9446C20.4286 20.4603 19.7293 20.7503 19 20.7503H5C4.27072 20.7503 3.57138 20.4603 3.05566 19.9446C2.54 19.429 2.25007 18.7295 2.25 18.0003V8.53739C2.24987 7.93136 2.45018 7.34222 2.81934 6.86161C3.18858 6.38097 3.70634 6.03527 4.29199 5.87919L15.292 2.94657L15.4453 2.91044ZM5 7.75028C4.66848 7.75028 4.35063 7.88207 4.11621 8.11649C3.88188 8.3509 3.75 8.66883 3.75 9.00028V18.0003C3.75007 18.3317 3.88186 18.6497 4.11621 18.8841C4.35062 19.1184 4.66854 19.2503 5 19.2503H19C19.3315 19.2503 19.6494 19.1184 19.8838 18.8841C20.1181 18.6497 20.2499 18.3317 20.25 18.0003V9.00028C20.25 8.66883 20.1181 8.3509 19.8838 8.11649C19.6788 7.91149 19.41 7.78465 19.124 7.75614L19 7.75028H5ZM16.2451 4.37821C16.0573 4.34066 15.8628 4.34549 15.6777 4.39481L15.6787 4.39579L8.72461 6.25028H17.25V5.6038L17.2422 5.46024C17.2258 5.31836 17.1845 5.17981 17.1211 5.05106C17.0364 4.87937 16.9135 4.72924 16.7617 4.61259C16.6098 4.49592 16.4329 4.41578 16.2451 4.37821Z" fill="white"/>
</svg>
