<svg width="24" height="24" viewBox="0 0 24 24" fill="none" xmlns="http://www.w3.org/2000/svg">
<path d="M20.5774 6.75391C20.5857 6.75475 20.5936 6.75768 20.6018 6.75879C20.6249 6.76194 20.6474 6.76717 20.6702 6.77246C20.6937 6.77794 20.7169 6.78338 20.7395 6.79102C20.7601 6.79796 20.78 6.80664 20.8 6.81543C20.8245 6.82616 20.8483 6.83741 20.8713 6.85059C20.8956 6.86445 20.9197 6.8787 20.9426 6.89551C20.9487 6.89994 20.9553 6.9036 20.9612 6.9082C20.981 6.92363 21.0003 6.94031 21.0188 6.95801C21.0608 6.99822 21.0956 7.04319 21.1262 7.08984C21.142 7.11386 21.1552 7.13921 21.1682 7.16504C21.1758 7.18009 21.1842 7.19453 21.1907 7.20996C21.2037 7.241 21.2121 7.27364 21.2209 7.30664C21.2245 7.32012 21.2298 7.33305 21.2327 7.34668C21.2379 7.37162 21.2398 7.39707 21.2424 7.42285C21.2448 7.44601 21.249 7.46892 21.2493 7.49219C21.2493 7.49479 21.2502 7.49739 21.2502 7.5V13.5C21.2502 13.9141 20.9143 14.2499 20.5002 14.25C20.086 14.25 19.7502 13.9142 19.7502 13.5V9.37012L13.635 15.7686C13.3916 16.0231 13.0032 16.0738 12.7024 15.8906L8.33325 13.2275L3.57837 18.9775C3.31451 19.2965 2.84188 19.3416 2.52271 19.0781C2.20365 18.8142 2.15847 18.3416 2.42212 18.0225L7.59204 11.7725L7.68872 11.6748C7.93107 11.472 8.28142 11.4399 8.55982 11.6094L12.967 14.2949L18.7454 8.25H14.5002C14.086 8.25 13.7502 7.91421 13.7502 7.5C13.7502 7.08579 14.086 6.75 14.5002 6.75H20.5002L20.5774 6.75391Z" fill="white"/>
</svg>
