<svg width="24" height="24" viewBox="0 0 24 24" fill="none" xmlns="http://www.w3.org/2000/svg">
<path d="M17.2267 2.99998C17.1081 3.00303 16.9902 3.01888 16.875 3.04723L4.6875 6.25723C4.20577 6.38477 3.77945 6.66742 3.47443 7.0615C3.16942 7.45558 3.00268 7.93915 3 8.43748V18.75C3 19.9837 4.01625 21 5.25 21H18.75C19.9837 21 21 19.9837 21 18.75V8.99998C21 7.76623 19.9837 6.74998 18.75 6.74998H8.71875L17.25 4.49998V5.99998H18.75V4.49998C18.75 3.65623 18.0322 2.98798 17.2267 2.99998ZM5.25 8.24998H18.75C19.1745 8.24998 19.5 8.57548 19.5 8.99998V18.75C19.5 19.1745 19.1745 19.5 18.75 19.5H5.25C4.8255 19.5 4.5 19.1745 4.5 18.75V8.99998C4.5 8.57548 4.8255 8.24998 5.25 8.24998ZM16.875 12.75C16.5766 12.75 16.2905 12.8685 16.0795 13.0795C15.8685 13.2905 15.75 13.5766 15.75 13.875C15.75 14.1733 15.8685 14.4595 16.0795 14.6705C16.2905 14.8814 16.5766 15 16.875 15C17.1734 15 17.4595 14.8814 17.6705 14.6705C17.8815 14.4595 18 14.1733 18 13.875C18 13.5766 17.8815 13.2905 17.6705 13.0795C17.4595 12.8685 17.1734 12.75 16.875 12.75Z" fill="white"/>
</svg>
