<svg width="24" height="24" viewBox="0 0 24 24" fill="none" xmlns="http://www.w3.org/2000/svg">
<path d="M2.25 14.5996C2.25021 14.1856 2.58592 13.8496 3 13.8496C3.41408 13.8496 3.74979 14.1856 3.75 14.5996C3.75 15.732 3.75033 16.5366 3.80176 17.166C3.85247 17.7866 3.9493 18.1709 4.10449 18.4756L4.22949 18.6992C4.54172 19.2083 4.98938 19.6228 5.52442 19.8955L5.64258 19.9512C5.92877 20.0743 6.29094 20.1539 6.83399 20.1982C7.46336 20.2497 8.26802 20.25 9.40039 20.25C9.81443 20.2502 10.1504 20.5859 10.1504 21C10.1504 21.4141 9.81443 21.7498 9.40039 21.75C8.29278 21.75 7.41654 21.7509 6.71192 21.6934C6.08759 21.6423 5.54741 21.5423 5.05274 21.3301L4.84375 21.2324C4.0617 20.8339 3.40755 20.2275 2.95117 19.4834L2.76758 19.1562C2.48684 18.605 2.36493 18.0014 2.30664 17.2881C2.24907 16.5835 2.25 15.7072 2.25 14.5996ZM20.25 14.5996C20.2502 14.1856 20.5859 13.8496 21 13.8496C21.4141 13.8496 21.7498 14.1856 21.75 14.5996C21.75 15.7072 21.7509 16.5835 21.6934 17.2881C21.6423 17.9124 21.5423 18.4526 21.3301 18.9473L21.2324 19.1562C20.8339 19.9383 20.2275 20.5924 19.4834 21.0488L19.1562 21.2324C18.605 21.5132 18.0014 21.6351 17.2881 21.6934C16.9357 21.7222 16.5404 21.7361 16.0947 21.7432L14.5996 21.75L14.5234 21.7461C14.1452 21.7077 13.8496 21.3884 13.8496 21C13.8496 20.5859 14.1856 20.2502 14.5996 20.25L16.0713 20.2432C16.4927 20.2366 16.8513 20.224 17.166 20.1982C17.7866 20.1475 18.1709 20.0507 18.4756 19.8955L18.6992 19.7705C19.2083 19.4583 19.6228 19.0106 19.8955 18.4756L19.9512 18.3574C20.0743 18.0712 20.1539 17.7091 20.1982 17.166C20.2497 16.5366 20.25 15.732 20.25 14.5996ZM14.4697 15.9697C14.7626 15.6768 15.2374 15.6768 15.5303 15.9697C15.8232 16.2626 15.8232 16.7374 15.5303 17.0303C14.6078 17.9528 13.2739 18.375 12 18.375C10.8057 18.375 9.55879 18.0038 8.64746 17.1973L8.46973 17.0303L8.41797 16.9736C8.17766 16.6791 8.19512 16.2443 8.46973 15.9697C8.74433 15.6951 9.17905 15.6777 9.47363 15.918L9.53027 15.9697L9.64258 16.0752C10.2227 16.587 11.0849 16.875 12 16.875C12.9761 16.875 13.8922 16.5472 14.4697 15.9697ZM11.25 9.75C11.25 9.33579 11.5858 9 12 9C12.4142 9 12.75 9.33579 12.75 9.75V13.75C12.75 14.1642 12.4142 14.5 12 14.5H11C10.5858 14.5 10.25 14.1642 10.25 13.75C10.25 13.3358 10.5858 13 11 13H11.25V9.75ZM7.25 9.5V8C7.25 7.58579 7.58579 7.25 8 7.25C8.41421 7.25 8.75 7.58579 8.75 8V9.5C8.75 9.91421 8.41421 10.25 8 10.25C7.58579 10.25 7.25 9.91421 7.25 9.5ZM15.25 9.5V8C15.25 7.58579 15.5858 7.25 16 7.25C16.4142 7.25 16.75 7.58579 16.75 8V9.5C16.75 9.91421 16.4142 10.25 16 10.25C15.5858 10.25 15.25 9.91421 15.25 9.5ZM2.25 9.40039C2.25 8.29278 2.24907 7.41654 2.30664 6.71192C2.36493 5.99858 2.48684 5.395 2.76758 4.84375L2.95117 4.5166C3.40755 3.77252 4.0617 3.16606 4.84375 2.76758L5.05274 2.66992C5.54741 2.45767 6.08759 2.35765 6.71192 2.30664C7.41654 2.24907 8.29278 2.25 9.40039 2.25C9.81443 2.25021 10.1504 2.58592 10.1504 3C10.1504 3.41408 9.81443 3.74979 9.40039 3.75C8.26802 3.75 7.46336 3.75033 6.83399 3.80176C6.29094 3.84614 5.92877 3.92569 5.64258 4.04883L5.52442 4.10449C4.98938 4.37716 4.54172 4.79169 4.22949 5.30078L4.10449 5.52442C3.9493 5.82911 3.85247 6.21343 3.80176 6.83399C3.75033 7.46336 3.75 8.26802 3.75 9.40039C3.74979 9.81443 3.41408 10.1504 3 10.1504C2.58592 10.1504 2.25021 9.81443 2.25 9.40039ZM20.25 9.40039C20.25 8.26802 20.2497 7.46336 20.1982 6.83399C20.1539 6.29094 20.0743 5.92877 19.9512 5.64258L19.8955 5.52442C19.6228 4.98938 19.2083 4.54172 18.6992 4.22949L18.4756 4.10449C18.1709 3.9493 17.7866 3.85247 17.166 3.80176C16.8513 3.77604 16.4927 3.76341 16.0713 3.75684L14.5996 3.75L14.5234 3.74609C14.1452 3.70774 13.8496 3.38837 13.8496 3C13.8496 2.58592 14.1856 2.25021 14.5996 2.25L16.0947 2.25684C16.5404 2.26389 16.9357 2.27785 17.2881 2.30664C18.0014 2.36493 18.605 2.48684 19.1562 2.76758L19.4834 2.95117C20.2275 3.40755 20.8339 4.0617 21.2324 4.84375L21.3301 5.05274C21.5423 5.54741 21.6423 6.08759 21.6934 6.71192C21.7509 7.41654 21.75 8.29278 21.75 9.40039C21.7498 9.81443 21.4141 10.1504 21 10.1504C20.5859 10.1504 20.2502 9.81443 20.25 9.40039Z" fill="white"/>
</svg>
