<svg width="24" height="24" viewBox="0 0 24 24" fill="none" xmlns="http://www.w3.org/2000/svg">
<path d="M12.75 4C12.75 3.58579 12.4142 3.25 12 3.25C11.5858 3.25 11.25 3.58579 11.25 4V12C11.25 12.4142 11.5858 12.75 12 12.75C12.4142 12.75 12.75 12.4142 12.75 12V4ZM6.87333 6.8731C7.16622 6.58021 7.16622 6.10534 6.87333 5.81244C6.58044 5.51955 6.10556 5.51955 5.81267 5.81244C2.39578 9.22934 2.39578 14.7702 5.81267 18.1871C9.22956 21.604 14.7704 21.604 18.1873 18.1871C21.6042 14.7702 21.6042 9.22934 18.1873 5.81244C17.8944 5.51955 17.4196 5.51955 17.1267 5.81244C16.8338 6.10534 16.8338 6.58021 17.1267 6.8731C19.9578 9.70421 19.9578 14.2953 17.1267 17.1264C14.2956 19.9576 9.70444 19.9576 6.87333 17.1264C4.04222 14.2953 4.04222 9.70421 6.87333 6.8731Z" fill="white"/>
</svg>
