<svg width="24" height="24" viewBox="0 0 24 24" fill="none" xmlns="http://www.w3.org/2000/svg">
<path d="M22.25 10.5996C22.2499 10.3743 22.1603 10.1583 22.001 9.99902C21.8616 9.85962 21.6788 9.77329 21.4844 9.75391L21.4004 9.75H16.5996C16.3743 9.7501 16.1583 9.83971 15.999 9.99902C15.8397 10.1583 15.7501 10.3743 15.75 10.5996V13.4004C15.7501 13.6257 15.8397 13.8417 15.999 14.001C16.1583 14.1603 16.3743 14.2499 16.5996 14.25H21.4004C21.6257 14.2499 21.8417 14.1603 22.001 14.001C22.1603 13.8417 22.2499 13.6257 22.25 13.4004V10.5996ZM20.0098 11.25L20.0869 11.2539C20.465 11.2924 20.7598 11.6118 20.7598 12C20.7598 12.3882 20.465 12.7076 20.0869 12.7461L20.0098 12.75H20C19.5858 12.75 19.25 12.4142 19.25 12C19.25 11.5858 19.5858 11.25 20 11.25H20.0098ZM20.25 6.40039C20.25 5.34217 19.5724 4.7501 19.0361 4.75H2.96387C2.42684 4.7501 1.75 5.3419 1.75 6.40039V17.5996L1.75781 17.793C1.83424 18.7299 2.46115 19.2499 2.96387 19.25H19.0361C19.5732 19.2499 20.25 18.6581 20.25 17.5996V15.75H16.5996C15.9765 15.7499 15.3791 15.5021 14.9385 15.0615C14.4979 14.6209 14.2501 14.0235 14.25 13.4004V10.5996C14.2501 9.97649 14.4979 9.3791 14.9385 8.93848C15.3791 8.49786 15.9765 8.2501 16.5996 8.25H20.25V6.40039ZM21.75 8.2793C22.2436 8.35373 22.7043 8.58123 23.0615 8.93848C23.5021 9.37909 23.7499 9.97649 23.75 10.5996V13.4004C23.7499 14.0235 23.5021 14.6209 23.0615 15.0615C22.7043 15.4187 22.2435 15.6453 21.75 15.7197V17.5996C21.75 19.191 20.669 20.7499 19.0361 20.75H2.96387C1.43412 20.7499 0.387489 19.3802 0.262695 17.8975L0.25 17.5996V6.40039C0.25 4.80901 1.33099 3.25008 2.96387 3.25H19.0361C20.6678 3.25009 21.75 4.80874 21.75 6.40039V8.2793Z" fill="white"/>
</svg>
