<svg width="24" height="24" viewBox="0 0 24 24" fill="none" xmlns="http://www.w3.org/2000/svg">
<g clip-path="url(#clip0_7_1842)">
<mask id="mask0_7_1842" style="mask-type:luminance" maskUnits="userSpaceOnUse" x="0" y="0" width="24" height="24">
<path d="M24 0H0V24H24V0Z" fill="white"/>
</mask>
<g mask="url(#mask0_7_1842)">
<path d="M19.6998 14.1998V14.0998V3.9998C19.6998 3.8998 19.6998 3.8998 19.6998 3.7998C19.6998 3.7998 19.6998 3.7998 19.6998 3.6998C19.6998 3.5998 19.5998 3.4998 19.5998 3.4998C19.4998 3.2998 19.2998 3.1998 18.9998 3.1998C18.8998 3.1998 18.8998 3.1998 18.7998 3.1998C18.7998 3.1998 18.7998 3.1998 18.6998 3.1998C18.5998 3.1998 18.5998 3.1998 18.4998 3.2998C18.4998 3.2998 18.4998 3.2998 18.3998 3.2998C18.3998 3.2998 17.5998 3.8998 15.3998 3.8998C14.1998 3.8998 13.1998 3.4998 12.1998 3.0998C11.0998 2.6998 9.9998 2.2998 8.4998 2.2998C5.6998 2.2998 4.6998 3.2998 4.4998 3.3998C4.4998 3.3998 4.4998 3.4998 4.3998 3.4998C4.3998 3.4998 4.2998 3.5998 4.2998 3.6998V3.7998C4.2998 3.8998 4.2998 3.8998 4.2998 3.9998V20.9998C4.2998 21.3998 4.5998 21.7998 5.0998 21.7998C5.5998 21.7998 5.8998 21.4998 5.8998 20.9998V14.3998C6.0998 14.2998 6.9998 13.9998 8.4998 13.9998C9.6998 13.9998 10.6998 14.3998 11.6998 14.7998C12.7998 15.2998 13.9998 15.6998 15.4998 15.6998C18.3998 15.6998 19.3998 14.5998 19.5998 14.4998C19.5998 14.4998 19.5998 14.3998 19.6998 14.3998L19.7998 14.2998C19.6998 14.1998 19.6998 14.1998 19.6998 14.1998ZM12.2998 13.3998C11.1998 12.9998 9.9998 12.4998 8.4998 12.4998C7.2998 12.4998 6.3998 12.6998 5.6998 12.7998V4.2998C6.0998 4.0998 6.8998 3.6998 8.4998 3.6998C9.6998 3.6998 10.6998 4.0998 11.6998 4.4998C12.8998 4.9998 13.9998 5.4998 15.4998 5.4998C16.6998 5.4998 17.5998 5.2998 18.2998 5.1998V13.6998C17.9998 13.8998 17.0998 14.2998 15.4998 14.2998C14.2998 14.2998 13.2998 13.8998 12.2998 13.3998Z" fill="white"/>
</g>
</g>
<defs>
<clipPath id="clip0_7_1842">
<rect width="24" height="24" fill="white"/>
</clipPath>
</defs>
</svg>
