<svg width="24" height="24" viewBox="0 0 24 24" fill="none" xmlns="http://www.w3.org/2000/svg">
<path d="M18.0001 1.25C17.5859 1.25 17.2501 1.58579 17.2501 2C17.2501 2.41421 17.5859 2.75 18.0001 2.75H19.5001L17.4001 5.55C17.2297 5.77726 17.2022 6.08132 17.3293 6.33541C17.4563 6.5895 17.716 6.75 18.0001 6.75H21.0001C21.4143 6.75 21.7501 6.41421 21.7501 6C21.7501 5.58579 21.4143 5.25 21.0001 5.25H19.5001L21.6001 2.45C21.7706 2.22274 21.798 1.91868 21.6709 1.66459C21.5439 1.4105 21.2842 1.25 21.0001 1.25H18.0001ZM8.27002 2.99514C10.2125 2.1898 12.2649 2.06781 14.1677 2.504C14.5714 2.59655 14.8237 2.99887 14.7312 3.40262C14.6386 3.80636 14.2363 4.05862 13.8325 3.96607C12.2193 3.59627 10.4858 3.70026 8.84433 4.38084C4.63596 6.12432 2.63746 10.9488 4.38002 15.1571C6.12249 19.3652 10.9477 21.3637 15.1562 19.6211C18.9271 18.059 20.9159 14.0212 20.0321 10.1687C19.9395 9.76501 20.1917 9.36265 20.5954 9.27003C20.9991 9.1774 21.4015 9.42961 21.4941 9.83333C22.5383 14.3848 20.1912 19.159 15.7301 21.0069C10.7566 23.0663 5.05366 20.7048 2.99413 15.731C0.934712 10.7574 3.29653 5.05573 8.27002 2.99514ZM11.7181 7.23486C12.1323 7.23486 12.4681 7.57065 12.4681 7.98486V12.2147L15.7645 14.2245C16.1182 14.4401 16.2301 14.9016 16.0145 15.2553C15.7989 15.6089 15.3374 15.7209 14.9837 15.5052L11.3277 13.2762C11.1044 13.1401 10.9681 12.8974 10.9681 12.6359V7.98486C10.9681 7.57065 11.3039 7.23486 11.7181 7.23486Z" fill="white"/>
</svg>
