<svg width="24" height="24" viewBox="0 0 24 24" fill="none" xmlns="http://www.w3.org/2000/svg">
<g clip-path="url(#clip0_7_1277)">
<mask id="mask0_7_1277" style="mask-type:luminance" maskUnits="userSpaceOnUse" x="0" y="0" width="24" height="24">
<path d="M24 0H0V24H24V0Z" fill="white"/>
</mask>
<g mask="url(#mask0_7_1277)">
<path d="M18.1998 18.1L6.8998 6.80005L3.4998 3.50005C3.1998 3.20005 2.6998 3.20005 2.3998 3.50005C2.0998 3.80005 2.0998 4.30005 2.3998 4.60005L5.2998 7.50005C3.1998 10 2.5998 13.4 3.8998 16.5C4.7998 18.7001 6.4998 20.3001 8.5998 21.2001C9.6998 21.6 10.7998 21.9 11.8998 21.9C12.9998 21.9 14.1998 21.7001 15.1998 21.2001C15.9998 20.9001 16.7998 20.4 17.4998 19.8L20.2998 22.6C20.3998 22.7001 20.5998 22.8 20.7998 22.8C20.9998 22.8 21.1998 22.7001 21.2998 22.6C21.5998 22.3001 21.5998 21.8 21.2998 21.5L18.1998 18.1ZM14.7998 19.7001C12.9998 20.4001 10.9998 20.4001 9.2998 19.7001C7.3998 19 5.9998 17.6 5.2998 15.8C4.2998 13.3 4.6998 10.5 6.3998 8.50005L16.5998 18.7001C15.9998 19.1 15.3998 19.4001 14.7998 19.7001Z" fill="white"/>
<path d="M8.9998 6.40005L9.1998 6.30005C10.9998 5.60005 12.9998 5.60005 14.6998 6.30005C15.5998 6.70005 16.3998 7.20005 17.0998 7.90005C17.7998 8.60005 18.2998 9.40005 18.6998 10.3C19.4998 12.2 19.3998 14.2001 18.5998 16.1C18.3998 16.5 18.5998 16.9001 18.9998 17.1C19.0998 17.1 19.1998 17.2001 19.2998 17.2001C19.5998 17.2001 19.8998 17 19.9998 16.8C20.9998 14.6 20.9998 12.1 20.0998 9.90005C19.7998 9.10005 19.2998 8.30005 18.6998 7.60005L19.9998 6.10005L20.4998 6.60005C20.5998 6.70005 20.7998 6.80005 20.9998 6.80005C21.1998 6.80005 21.3998 6.70005 21.4998 6.60005C21.7998 6.30005 21.7998 5.80005 21.4998 5.50005L19.4998 3.50005C19.1998 3.20005 18.6998 3.20005 18.3998 3.50005C18.0998 3.80005 18.0998 4.30005 18.3998 4.60005L18.8998 5.00005L17.5998 6.30005C16.8998 5.70005 16.1998 5.30005 15.2998 4.90005C13.1998 4.00005 10.7998 4.00005 8.6998 4.90005C8.5998 4.90005 8.4998 5.00005 8.3998 5.00005C7.9998 5.20005 7.8998 5.70005 7.9998 6.00005C8.1998 6.40005 8.5998 6.60005 8.9998 6.40005Z" fill="white"/>
<path d="M9.9998 2.80005H13.9998C14.3998 2.80005 14.7998 2.50005 14.7998 2.00005C14.7998 1.50005 14.3998 1.30005 13.9998 1.30005H9.9998C9.5998 1.30005 9.1998 1.60005 9.1998 2.00005C9.1998 2.40005 9.5998 2.80005 9.9998 2.80005Z" fill="white"/>
</g>
</g>
<defs>
<clipPath id="clip0_7_1277">
<rect width="24" height="24" fill="white"/>
</clipPath>
</defs>
</svg>
