<svg width="24" height="24" viewBox="0 0 24 24" fill="none" xmlns="http://www.w3.org/2000/svg">
<g clip-path="url(#clip0_7_1327)">
<mask id="mask0_7_1327" style="mask-type:luminance" maskUnits="userSpaceOnUse" x="0" y="0" width="24" height="24">
<path d="M24 0H0V24H24V0Z" fill="white"/>
</mask>
<g mask="url(#mask0_7_1327)">
<path d="M11.9999 4.19994C7.19989 4.19994 3.19989 8.09994 3.19989 12.9999C3.19989 17.7999 7.09989 21.7999 11.9999 21.7999C16.7999 21.7999 20.7999 17.8999 20.7999 12.9999C20.7999 8.19994 16.7999 4.19994 11.9999 4.19994ZM11.9999 20.2999C7.99989 20.2999 4.69989 16.9999 4.69989 12.9999C4.69989 8.99994 7.99989 5.69994 11.9999 5.69994C15.9999 5.69994 19.2999 8.99994 19.2999 12.9999C19.2999 16.9999 15.9999 20.2999 11.9999 20.2999Z" fill="white"/>
<path d="M11.9999 14.1999C12.3999 14.1999 12.7999 13.8999 12.7999 13.3999V8.99994C12.7999 8.59994 12.4999 8.19994 11.9999 8.19994C11.4999 8.19994 11.2999 8.59994 11.2999 8.99994V13.3999C11.2999 13.8999 11.5999 14.1999 11.9999 14.1999Z" fill="white"/>
<path d="M3.89989 6.39994L6.89989 3.89994C7.19989 3.59994 7.29989 3.09994 6.99989 2.79994C6.79989 2.49994 6.29989 2.39994 5.99989 2.69994L2.99989 5.19994C2.69989 5.49994 2.59989 5.99994 2.89989 6.29994C2.99989 6.49994 3.19989 6.59994 3.49989 6.59994C3.59989 6.59994 3.79989 6.49994 3.89989 6.39994Z" fill="white"/>
<path d="M20.9999 5.19994L17.9999 2.69994C17.6999 2.39994 17.1999 2.49994 16.8999 2.79994C16.5999 3.09994 16.6999 3.59994 16.9999 3.89994L19.9999 6.39994C20.0999 6.49994 20.2999 6.59994 20.4999 6.59994C20.6999 6.59994 20.8999 6.49994 21.0999 6.29994C21.3999 5.99994 21.3999 5.49994 20.9999 5.19994Z" fill="white"/>
<path d="M11.9999 15.8999C11.7999 15.8999 11.4999 15.9999 11.3999 16.1999C11.1999 16.3999 11.0999 16.5999 11.0999 16.7999C11.0999 17.2999 11.4999 17.6999 11.9999 17.6999C12.4999 17.6999 12.8999 17.2999 12.8999 16.7999C12.8999 16.2999 12.4999 15.8999 11.9999 15.8999Z" fill="white"/>
</g>
</g>
<defs>
<clipPath id="clip0_7_1327">
<rect width="24" height="24" fill="white"/>
</clipPath>
</defs>
</svg>
