<svg width="24" height="24" viewBox="0 0 24 24" fill="none" xmlns="http://www.w3.org/2000/svg">
<path d="M13.8949 2.43713C13.4885 2.35708 13.0942 2.62164 13.0141 3.02805C12.9341 3.43445 13.1986 3.8288 13.605 3.90885C15.4212 4.26659 17.0199 5.225 18.1991 6.56953C18.4723 6.88094 18.9461 6.91198 19.2575 6.63885C19.5689 6.36574 19.6 5.89187 19.3269 5.58046C17.9381 3.99699 16.0488 2.8614 13.8949 2.43713ZM10.3953 3.90878C10.8017 3.82853 11.066 3.43406 10.9858 3.02769C10.9055 2.62132 10.5111 2.35695 10.1047 2.4372C7.9513 2.86246 6.06106 3.99783 4.67312 5.58049C4.40001 5.89191 4.43107 6.36577 4.7425 6.63888C5.05392 6.91198 5.52778 6.88092 5.80088 6.5695C6.97895 5.22616 8.5787 4.26753 10.3953 3.90878ZM11.718 7.23584C12.1322 7.23584 12.468 7.57163 12.468 7.98584V12.2157L15.7644 14.2255C16.1181 14.4411 16.23 14.9026 16.0144 15.2563C15.7987 15.6099 15.3372 15.7218 14.9836 15.5062L11.3276 13.2772C11.1043 13.1411 10.968 12.8984 10.968 12.6368V7.98584C10.968 7.57163 11.3038 7.23584 11.718 7.23584ZM19.2575 17.3609C19.5689 17.634 19.6 18.1079 19.3269 18.4193C17.9389 20.002 16.0487 21.1374 13.8953 21.5626C13.4889 21.6429 13.0945 21.3785 13.0142 20.9721C12.934 20.5658 13.1983 20.1713 13.6047 20.091C15.4213 19.7323 17.0211 18.7737 18.1991 17.4303C18.4722 17.1189 18.9461 17.0878 19.2575 17.3609ZM3.72685 8.39427C4.11893 8.52784 4.3285 8.95398 4.19494 9.34606C3.90986 10.1829 3.75 11.0733 3.75 12.0002C3.75 12.9271 3.90986 13.8175 4.19494 14.6544C4.3285 15.0464 4.11893 15.4726 3.72685 15.6061C3.33476 15.7397 2.90863 15.5301 2.77506 15.1381C2.44014 14.1549 2.25 13.1013 2.25 12.0002C2.25 10.8991 2.44014 9.84552 2.77506 8.86236C2.90863 8.47027 3.33476 8.2607 3.72685 8.39427ZM21.2249 8.86236C21.0914 8.47027 20.6652 8.2607 20.2732 8.39427C19.8811 8.52784 19.6715 8.95398 19.8051 9.34606C20.0901 10.1829 20.25 11.0733 20.25 12.0002C20.25 12.9271 20.0901 13.8175 19.8051 14.6544C19.6715 15.0464 19.8811 15.4726 20.2732 15.6061C20.6652 15.7397 21.0914 15.5301 21.2249 15.1381C21.5599 14.1549 21.75 13.1013 21.75 12.0002C21.75 10.8991 21.5599 9.84552 21.2249 8.86236ZM4.7425 17.3609C5.05392 17.0878 5.52778 17.1189 5.80088 17.4303C6.97895 18.7737 8.5787 19.7323 10.3953 20.091C10.8017 20.1713 11.066 20.5658 10.9858 20.9721C10.9055 21.3785 10.5111 21.6429 10.1047 21.5626C7.9513 21.1374 6.06106 20.002 4.67312 18.4193C4.40001 18.1079 4.43107 17.634 4.7425 17.3609Z" fill="white"/>
</svg>
