<svg width="24" height="24" viewBox="0 0 24 24" fill="none" xmlns="http://www.w3.org/2000/svg">
<path d="M10 1.25C9.58579 1.25 9.25 1.58579 9.25 2C9.25 2.41421 9.58579 2.75 10 2.75H14C14.4142 2.75 14.75 2.41421 14.75 2C14.75 1.58579 14.4142 1.25 14 1.25H10ZM6.87333 7.87333C9.70444 5.04222 14.2956 5.04222 17.1267 7.87333C19.9578 10.7044 19.9578 15.2956 17.1267 18.1267C14.2956 20.9578 9.70444 20.9578 6.87333 18.1267C4.04222 15.2956 4.04222 10.7044 6.87333 7.87333ZM17.6346 6.30476C14.1969 3.40512 9.05092 3.57442 5.81267 6.81267C2.39578 10.2296 2.39578 15.7704 5.81267 19.1873C9.22956 22.6042 14.7704 22.6042 18.1873 19.1873C21.4256 15.9491 21.5949 10.8031 18.6952 7.36542L20 6.06066L20.4697 6.53033C20.7626 6.82322 21.2374 6.82322 21.5303 6.53033C21.8232 6.23744 21.8232 5.76256 21.5303 5.46967L20.5303 4.46967L19.5303 3.46967C19.2374 3.17678 18.7626 3.17678 18.4697 3.46967C18.1768 3.76256 18.1768 4.23744 18.4697 4.53033L18.9393 5L17.6346 6.30476ZM10.75 13C10.75 12.3078 11.3117 11.75 12.002 11.75C12.0614 11.75 12.1199 11.7542 12.1771 11.7622L15.0097 8.92963C15.3026 8.63674 15.7774 8.63674 16.0703 8.92963C16.3632 9.22252 16.3632 9.6974 16.0703 9.99029L13.238 12.8226C13.2462 12.8814 13.2503 12.9415 13.25 13.0027C13.2485 13.6917 12.6893 14.25 12 14.25C11.3098 14.25 10.75 13.6902 10.75 13ZM13.25 13.0027V13H13.0606L13.0566 13.004L13.25 13.0054V13.0027ZM17.6402 11.9468C17.5585 11.5408 17.163 11.2779 16.7569 11.3596C16.3509 11.4414 16.088 11.8369 16.1698 12.2429C16.2208 12.4963 16.25 12.7471 16.25 12.9999C16.25 13.4141 16.5858 13.7499 17 13.7499C17.4142 13.7499 17.75 13.4141 17.75 12.9999C17.75 12.6307 17.7072 12.2795 17.6402 11.9468ZM7.75 13C7.75 10.6532 9.65321 8.75 12 8.75C12.2528 8.75 12.5036 8.77922 12.7569 8.83024C13.163 8.91201 13.5585 8.64912 13.6402 8.24305C13.722 7.83699 13.4591 7.44153 13.0531 7.35976C12.7204 7.29278 12.3692 7.25 12 7.25C8.82479 7.25 6.25 9.82479 6.25 13C6.25 13.4142 6.58579 13.75 7 13.75C7.41421 13.75 7.75 13.4142 7.75 13Z" fill="white"/>
</svg>
