<svg width="24" height="24" viewBox="0 0 24 24" fill="none" xmlns="http://www.w3.org/2000/svg">
<path d="M4.38005 8.84278C6.1225 4.63467 10.9476 2.63623 15.1561 4.37875C18.927 5.94086 20.9159 9.97869 20.0321 13.8312C19.9395 14.2349 20.1917 14.6373 20.5954 14.7299C20.9991 14.8225 21.4015 14.5703 21.4941 14.1666C22.5383 9.61504 20.1911 4.84087 15.7301 2.99294C10.7566 0.933539 5.05369 3.29506 2.99416 8.26892C0.934716 13.2426 3.29642 18.9443 8.27005 21.0048C10.2125 21.8101 12.2649 21.9321 14.1677 21.4959C14.5714 21.4034 14.8237 21.001 14.7311 20.5973C14.6386 20.1936 14.2362 19.9413 13.8325 20.0338C12.2193 20.4036 10.4858 20.2997 8.84436 19.6191C4.63599 17.8756 2.63749 13.0512 4.38005 8.84278ZM17.2501 18.4998C16.8359 18.4998 16.5001 18.8355 16.5001 19.2498C16.5001 19.664 16.8359 19.9998 17.2501 19.9998H18.5001V21.2498C18.5001 21.664 18.8359 21.9998 19.2501 21.9998C19.6643 21.9998 20.0001 21.664 20.0001 21.2498V19.9998H21.2501C21.6643 19.9998 22.0001 19.664 22.0001 19.2498C22.0001 18.8355 21.6643 18.4998 21.2501 18.4998H20.0001V17.2498C20.0001 16.8355 19.6643 16.4998 19.2501 16.4998C18.8359 16.4998 18.5001 16.8355 18.5001 17.2498V18.4998H17.2501ZM12.4681 7.98508C12.4681 7.57086 12.1323 7.23508 11.7181 7.23508C11.3039 7.23508 10.9681 7.57086 10.9681 7.98508V12.6361C10.9681 12.8977 11.1043 13.1403 11.3277 13.2765L14.9837 15.5055C15.3373 15.7211 15.7988 15.6092 16.0145 15.2555C16.2301 14.9019 16.1182 14.4404 15.7645 14.2247L12.4681 12.215V7.98508Z" fill="white"/>
</svg>
