<svg width="24" height="24" viewBox="0 0 24 24" fill="none" xmlns="http://www.w3.org/2000/svg">
<g clip-path="url(#clip0_7_1225)">
<mask id="mask0_7_1225" style="mask-type:luminance" maskUnits="userSpaceOnUse" x="0" y="0" width="24" height="24">
<path d="M24 0H0V24H24V0Z" fill="white"/>
</mask>
<g mask="url(#mask0_7_1225)">
<path d="M20.9999 8.3C19.9999 5.9 18.0999 4 15.6999 3C13.2999 2 10.5999 2 8.19989 3C3.19989 5.1 0.899894 10.8 2.89989 15.7C3.99989 18.1 5.89989 20 8.29989 21C9.49989 21.5 10.7999 21.7 11.9999 21.7C13.2999 21.7 14.4999 21.5 15.6999 21C20.6999 18.9 23.0999 13.2 20.9999 8.3ZM19.5999 15.2C18.7999 17.2 17.1999 18.8 15.0999 19.7C13.0999 20.5 10.7999 20.5 8.79989 19.7C6.79989 18.9 5.19989 17.3 4.29989 15.2C2.59989 11 4.59989 6.1 8.79989 4.4C9.79989 4 10.8999 3.8 11.9999 3.8C13.0999 3.8 14.0999 4 15.1999 4.4C17.1999 5.2 18.7999 6.8 19.6999 8.9C20.4999 10.9 20.4999 13.1 19.5999 15.2Z" fill="white"/>
<path d="M15.7999 14.2L12.4999 12.2V8C12.4999 7.6 12.1999 7.2 11.6999 7.2C11.1999 7.2 10.9999 7.6 10.9999 8V12.7C10.9999 13 11.0999 13.2 11.3999 13.3L15.0999 15.5C15.1999 15.6 15.3999 15.6 15.4999 15.6C15.7999 15.6 15.9999 15.5 16.0999 15.2C16.1999 14.9 16.0999 14.4 15.7999 14.2Z" fill="white"/>
</g>
</g>
<defs>
<clipPath id="clip0_7_1225">
<rect width="24" height="24" fill="white"/>
</clipPath>
</defs>
</svg>
