<svg width="24" height="24" viewBox="0 0 24 24" fill="none" xmlns="http://www.w3.org/2000/svg">
<path d="M6.16658 6.16634C9.38869 2.94423 14.6118 2.94423 17.8339 6.16634C21.056 9.38844 21.056 14.6116 17.8339 17.8337C14.6118 21.0558 9.38869 21.0558 6.16658 17.8337C2.94447 14.6116 2.94447 9.38844 6.16658 6.16634ZM18.8945 5.10568C15.0866 1.29778 8.91382 1.29778 5.10593 5.10568C1.29803 8.91357 1.29803 15.0864 5.10593 18.8943C8.91382 22.7022 15.0866 22.7022 18.8945 18.8943C22.7024 15.0864 22.7024 8.91357 18.8945 5.10568ZM12.0082 9.25024C10.4839 9.25024 9.25025 10.4801 9.25025 12.0002C9.25025 13.5185 10.482 14.7502 12.0002 14.7502C13.5175 14.7502 14.7487 13.5199 14.7502 12.003C14.7533 11.5133 14.6275 11.0537 14.405 10.6556L16.5105 8.55011C16.8034 8.25721 16.8034 7.78234 16.5105 7.48945C16.2176 7.19655 15.7428 7.19655 15.4499 7.48945L13.3433 9.59602C12.9478 9.37569 12.4923 9.25024 12.0082 9.25024ZM10.7502 12.0002C10.7502 11.3124 11.3085 10.7502 12.0082 10.7502C12.6991 10.7502 13.2552 11.3103 13.2502 11.9948V12.0002C13.2502 12.69 12.69 13.2502 12.0002 13.2502C11.3104 13.2502 10.7502 12.69 10.7502 12.0002ZM17.3711 10.2464C17.7773 10.1652 18.1724 10.4286 18.2536 10.8347C18.3273 11.2028 18.3752 11.5909 18.3752 11.9998C18.3752 12.414 18.0394 12.7498 17.6252 12.7498C17.211 12.7498 16.8752 12.414 16.8752 11.9998C16.8752 11.7088 16.8412 11.4209 16.7828 11.1289C16.7015 10.7228 16.9649 10.3276 17.3711 10.2464ZM13.1674 5.74724C12.7963 5.6719 12.4079 5.62524 12.0002 5.62524C8.48003 5.62524 5.62526 8.48003 5.62526 12.0002C5.62526 12.4145 5.96104 12.7502 6.37526 12.7502C6.78946 12.7502 7.12526 12.4145 7.12526 12.0002C7.12526 9.30846 9.30847 7.12524 12.0002 7.12524C12.2925 7.12524 12.5801 7.15859 12.869 7.21725C13.2749 7.29966 13.6708 7.0374 13.7532 6.63147C13.8356 6.22554 13.5734 5.82966 13.1674 5.74724Z" fill="white"/>
</svg>
