<svg width="24" height="24" viewBox="0 0 24 24" fill="none" xmlns="http://www.w3.org/2000/svg">
<path d="M12.6939 2.94273C12.7625 2.53424 13.1493 2.25874 13.5578 2.32738C18.1667 3.10185 21.6835 7.1004 21.6835 11.932C21.6835 17.3172 17.3187 21.682 11.9335 21.682C7.10188 21.682 3.10334 18.1652 2.32887 13.5563C2.26023 13.1478 2.53573 12.761 2.94422 12.6924C3.3527 12.6237 3.73949 12.8992 3.80813 13.3077C4.46367 17.2088 7.8491 20.182 11.9335 20.182C16.4903 20.182 20.1835 16.4888 20.1835 11.932C20.1835 7.84762 17.2103 4.46218 13.3092 3.80664C12.9007 3.738 12.6252 3.35121 12.6939 2.94273ZM3.76608 8.09613C4.15429 8.24059 4.35187 8.6724 4.20741 9.06061C4.02881 9.54055 3.89418 10.0396 3.80712 10.5574C3.73844 10.9659 3.35162 11.2413 2.94314 11.1726C2.53466 11.104 2.2592 10.7172 2.32789 10.3087C2.43083 9.69644 2.5902 9.10552 2.8016 8.53745C2.94606 8.14925 3.37788 7.95166 3.76608 8.09613ZM6.67516 5.57629C6.99451 5.31248 7.03953 4.83975 6.77573 4.52041C6.51192 4.20106 6.03919 4.15604 5.71984 4.41985C5.24621 4.81111 4.81154 5.24578 4.42028 5.71941C4.15648 6.03875 4.2015 6.51148 4.52084 6.77529C4.84019 7.03909 5.31292 6.99407 5.57673 6.67473C5.90747 6.27436 6.27479 5.90703 6.67516 5.57629ZM11.1731 2.94265C11.2418 3.35113 10.9664 3.73795 10.5579 3.80663C10.0407 3.89359 9.54073 4.02908 9.06152 4.20776C8.67341 4.35246 8.24147 4.15514 8.09676 3.76703C7.95204 3.37892 8.14936 2.94698 8.53749 2.80227C9.10428 2.59094 9.69633 2.43043 10.3092 2.3274C10.7176 2.25871 11.1044 2.53417 11.1731 2.94265ZM13.1415 7C13.1415 6.58579 12.8057 6.25 12.3915 6.25C11.9773 6.25 11.6415 6.58579 11.6415 7V11.641H8.00049C7.58629 11.641 7.2505 11.9768 7.2505 12.391C7.2505 12.8052 7.58629 13.141 8.00049 13.141H12.3915C12.8057 13.141 13.1415 12.8052 13.1415 12.391V7Z" fill="white"/>
</svg>
