<svg width="24" height="24" viewBox="0 0 24 24" fill="none" xmlns="http://www.w3.org/2000/svg">
<path d="M9 1.25C8.58579 1.25 8.25 1.58579 8.25 2C8.25 2.41421 8.58579 2.75 9 2.75H13C13.4142 2.75 13.75 2.41421 13.75 2C13.75 1.58579 13.4142 1.25 13 1.25H9ZM13.75 17C13.75 18.7948 15.2052 20.25 17 20.25C18.7957 20.25 20.25 18.7949 20.25 17C20.25 15.2061 18.7965 13.7516 17.0023 13.75C15.2538 13.7484 13.75 15.2504 13.75 17ZM17.0037 12.25C17.4264 12.2504 17.8363 12.306 18.2263 12.4099C17.926 8.68207 14.8051 5.75 11 5.75C6.99621 5.75 3.75 8.99621 3.75 13C3.75 17.0038 6.99621 20.25 11 20.25C11.7794 20.25 12.5285 20.1235 13.2322 19.8927C12.6162 19.0916 12.25 18.0885 12.25 17C12.25 14.4216 14.4262 12.2476 17.0037 12.25ZM19.75 13.1267C20.9604 13.9876 21.75 15.4015 21.75 17C21.75 19.6231 19.6243 21.75 17 21.75C16.0716 21.75 15.2054 21.4836 14.4737 21.0231C13.4106 21.486 12.238 21.75 11 21.75C6.16779 21.75 2.25 17.8322 2.25 13C2.25 8.16779 6.16779 4.25 11 4.25C13.1461 4.25 15.1119 5.02277 16.6341 6.30522L17.9393 5L17.4697 4.53033C17.1768 4.23744 17.1768 3.76256 17.4697 3.46967C17.7626 3.17678 18.2374 3.17678 18.5303 3.46967L19.5289 4.46824L19.5303 4.46967L19.5318 4.47111L20.5303 5.46967C20.8232 5.76256 20.8232 6.23744 20.5303 6.53033C20.2374 6.82322 19.7626 6.82322 19.4697 6.53033L19 6.06066L17.6948 7.36588C18.9772 8.88815 19.75 10.8539 19.75 13V13.1267ZM17.75 15.5C17.75 15.0858 17.4142 14.75 17 14.75C16.5858 14.75 16.25 15.0858 16.25 15.5V16.25H15.5C15.0858 16.25 14.75 16.5858 14.75 17C14.75 17.4142 15.0858 17.75 15.5 17.75H16.25V18.5C16.25 18.9142 16.5858 19.25 17 19.25C17.4142 19.25 17.75 18.9142 17.75 18.5V17.75H18.5C18.9142 17.75 19.25 17.4142 19.25 17C19.25 16.5858 18.9142 16.25 18.5 16.25H17.75V15.5ZM7.63967 9.63959C7.93256 9.3467 8.40743 9.3467 8.70033 9.63959L11.5303 12.4696C11.8232 12.7625 11.8232 13.2374 11.5303 13.5303C11.2374 13.8231 10.7626 13.8231 10.4697 13.5303L7.63967 10.7003C7.34678 10.4074 7.34678 9.93248 7.63967 9.63959Z" fill="white"/>
</svg>
