<svg width="24" height="24" viewBox="0 0 24 24" fill="none" xmlns="http://www.w3.org/2000/svg">
<path d="M3.375 12C3.375 6.61479 7.73979 2.25 13.125 2.25C18.5102 2.25 22.875 6.61479 22.875 12C22.875 17.3852 18.5102 21.75 13.125 21.75L13.1092 21.7498C9.80782 21.7446 6.89767 20.0951 5.13969 17.5851C4.90206 17.2458 4.98447 16.7782 5.32374 16.5405C5.66302 16.3029 6.13069 16.3853 6.36831 16.7246C7.86152 18.8566 10.3289 20.2498 13.125 20.2498L13.1395 20.25C17.6896 20.2421 21.375 16.5519 21.375 12C21.375 7.44321 17.6818 3.75 13.125 3.75C8.56821 3.75 4.875 7.44321 4.875 12C4.875 12.1433 4.87903 12.2858 4.88686 12.4275L5.84467 11.4697C6.13756 11.1768 6.61244 11.1768 6.90533 11.4697C7.19822 11.7626 7.19822 12.2374 6.90533 12.5303L4.89846 14.5372C4.8928 14.543 4.88705 14.5488 4.88119 14.5545L4.65533 14.7803C4.36244 15.0732 3.88756 15.0732 3.59467 14.7803L1.34467 12.5303C1.05178 12.2374 1.05178 11.7626 1.34467 11.4697C1.63756 11.1768 2.11244 11.1768 2.40533 11.4697L3.38603 12.4504C3.37875 12.3014 3.375 12.1512 3.375 12ZM13.594 7.98486C13.594 7.57065 13.2582 7.23486 12.844 7.23486C12.4298 7.23486 12.094 7.57065 12.094 7.98486V12.6979C12.094 12.9623 12.2332 13.2072 12.4605 13.3424L16.1125 15.5154C16.4685 15.7272 16.9287 15.6103 17.1405 15.2544C17.3523 14.8984 17.2355 14.4381 16.8795 14.2263L13.594 12.2714V7.98486Z" fill="white"/>
</svg>
