<svg width="24" height="24" viewBox="0 0 24 24" fill="none" xmlns="http://www.w3.org/2000/svg">
<path d="M9.25 2C9.25 1.58579 9.58579 1.25 10 1.25H14C14.4142 1.25 14.75 1.58579 14.75 2C14.75 2.41421 14.4142 2.75 14 2.75H10C9.58579 2.75 9.25 2.41421 9.25 2ZM17.1267 7.87333C19.9578 10.7044 19.9578 15.2956 17.1267 18.1267C14.2956 20.9578 9.70444 20.9578 6.87333 18.1267C4.04222 15.2956 4.04222 10.7044 6.87333 7.87333C9.70444 5.04222 14.2956 5.04222 17.1267 7.87333ZM18.6953 7.36542L20 6.06066L20.4697 6.53033C20.7626 6.82322 21.2374 6.82322 21.5303 6.53033C21.8232 6.23744 21.8232 5.76256 21.5303 5.46967L20.5306 4.46989L19.5303 3.46967C19.2375 3.17678 18.7626 3.17678 18.4697 3.46967C18.1768 3.76256 18.1768 4.23744 18.4697 4.53033L18.9394 5L17.6346 6.30476C14.1969 3.40512 9.05092 3.57442 5.81267 6.81267C2.39578 10.2296 2.39578 15.7704 5.81267 19.1873C9.22956 22.6042 14.7704 22.6042 18.1873 19.1873C21.4256 15.9491 21.5949 10.8032 18.6953 7.36542ZM12.75 11.9989C13.0535 12.2264 13.25 12.589 13.25 12.998V13.0007C13.2475 13.6864 12.6926 14.25 11.999 14.25C11.3088 14.25 10.75 13.6912 10.75 13.001C10.75 12.5916 10.9466 12.2289 11.25 12.0008V9C11.25 8.58579 11.5858 8.25 12 8.25C12.4142 8.25 12.75 8.58579 12.75 9V11.9989Z" fill="white"/>
</svg>
