<svg width="24" height="24" viewBox="0 0 24 24" fill="none" xmlns="http://www.w3.org/2000/svg">
<path d="M7.02148 2.25C6.05526 2.25 5.27148 3.03379 5.27148 4V6.378C5.27148 6.95667 5.45435 7.52184 5.79408 7.99096L8.69565 12L5.79408 16.009C5.45424 16.4782 5.27148 17.0432 5.27148 17.622V20C5.27148 20.9662 6.05526 21.75 7.02148 21.75H16.9785C17.9447 21.75 18.7285 20.9662 18.7285 20V17.658C18.7285 17.047 18.5247 16.4544 18.1512 15.9724L15.0706 12L18.1523 8.0264C18.5258 7.54444 18.7295 6.95196 18.7295 6.341V4C18.7295 3.03379 17.9457 2.25 16.9795 2.25H7.02148ZM6.77148 4C6.77148 3.86221 6.88369 3.75 7.02148 3.75H16.9795C17.1173 3.75 17.2295 3.86221 17.2295 4V6.341C17.2295 6.61794 17.1371 6.88761 16.9667 7.1076L13.5288 11.5404C13.3191 11.8109 13.319 12.1891 13.5288 12.4596L16.9658 16.8916C17.1362 17.1116 17.2285 17.3811 17.2285 17.658V20C17.2285 20.1378 17.1163 20.25 16.9785 20.25H7.02148C6.88369 20.25 6.77148 20.1378 6.77148 20V17.622C6.77148 17.3588 6.85488 17.1016 7.00904 16.8887L10.2291 12.4397C10.419 12.1773 10.419 11.8227 10.2291 11.5603L7.00887 7.11104C6.85471 6.89821 6.77148 6.64123 6.77148 6.378V4ZM10.0005 17.25C9.58627 17.25 9.25048 17.5858 9.25048 18C9.25048 18.4142 9.58627 18.75 10.0005 18.75H14.0005C14.4147 18.75 14.7505 18.4142 14.7505 18C14.7505 17.5858 14.4147 17.25 14.0005 17.25H10.0005Z" fill="white"/>
</svg>
