<svg width="24" height="24" viewBox="0 0 24 24" fill="none" xmlns="http://www.w3.org/2000/svg">
<path d="M5.58301 2C5.58301 1.58579 5.91879 1.25 6.33301 1.25H10.666C11.0802 1.25 11.416 1.58579 11.416 2V3.25H12.854C14.4532 3.25 15.75 4.54679 15.75 6.146V9V13V19.854C15.75 21.453 14.4534 22.75 12.855 22.75H4.146C2.54701 22.75 1.25 21.4534 1.25 19.855V13V9V6.146C1.25 4.54679 2.54679 3.25 4.146 3.25H5.58301V2ZM9.916 4L9.91601 3.99658V2.75H7.08301V5.25H9.91601V4.00342L9.916 4ZM12.854 4.75H11.416V6C11.416 6.41421 11.0802 6.75 10.666 6.75H6.33301C5.91879 6.75 5.58301 6.41421 5.58301 6V4.75H4.146C3.37521 4.75 2.75 5.37521 2.75 6.146V8.25H14.25V6.146C14.25 5.37521 13.6248 4.75 12.854 4.75ZM2.75 19.855C2.75 20.6246 3.37499 21.25 4.146 21.25H12.855C13.6246 21.25 14.25 20.625 14.25 19.854V13.75H2.75V19.855ZM2.75 12.25H14.25V9.75H2.75V12.25ZM17 4.86523C16.5858 4.86523 16.25 5.20102 16.25 5.61523C16.25 6.02945 16.5858 6.36523 17 6.36523H18.25V14.2502H17C16.5858 14.2502 16.25 14.586 16.25 15.0002C16.25 15.4144 16.5858 15.7502 17 15.7502H20.778C21.7442 15.7502 22.528 14.9664 22.528 14.0002V6.61523C22.528 5.64902 21.7442 4.86523 20.778 4.86523H19.0902C19.0606 4.86169 19.0305 4.85986 19 4.85986C18.9695 4.85986 18.9394 4.86169 18.9098 4.86523H17ZM19.75 6.36523H20.778C20.9158 6.36523 21.028 6.47745 21.028 6.61523V14.0002C21.028 14.138 20.9158 14.2502 20.778 14.2502H19.75V6.36523ZM4.31902 16.004C4.3152 15.437 4.79542 15.083 5.24902 15.083C5.70425 15.083 6.18102 15.4363 6.18102 16C6.18102 16.5612 5.70704 16.917 5.25002 16.917C4.79409 16.917 4.32129 16.5629 4.31902 16.004ZM5.24902 18.083C4.79542 18.083 4.3152 18.437 4.31902 19.004V19L4.31906 19.0082L4.31902 19.004C4.32129 19.5629 4.79409 19.917 5.25002 19.917C5.70704 19.917 6.18102 19.5612 6.18102 19C6.18102 18.4363 5.70425 18.083 5.24902 18.083ZM18.0303 18.9697C17.7374 18.6768 17.2626 18.6768 16.9697 18.9697C16.6768 19.2626 16.6768 19.7374 16.9697 20.0303L18.4697 21.5303C18.5416 21.6022 18.6245 21.6565 18.7129 21.6931C18.8013 21.7298 18.8983 21.75 19 21.75C19.1919 21.75 19.3839 21.6768 19.5303 21.5303L21.0303 20.0303C21.3232 19.7374 21.3232 19.2626 21.0303 18.9697C20.7374 18.6768 20.2626 18.6768 19.9697 18.9697L19.75 19.1893V18C19.75 17.5858 19.4142 17.25 19 17.25C18.5858 17.25 18.25 17.5858 18.25 18V19.1893L18.0303 18.9697Z" fill="white"/>
</svg>
