<svg width="24" height="24" viewBox="0 0 24 24" fill="none" xmlns="http://www.w3.org/2000/svg">
<path d="M17.75 3C17.75 2.58579 17.4142 2.25 17 2.25C16.5858 2.25 16.25 2.58579 16.25 3V7C16.25 7.41421 16.5858 7.75 17 7.75C17.4142 7.75 17.75 7.41421 17.75 7V3ZM6.85895 8.42974L5.14934 10.1393C4.61624 10.6724 4.61624 11.5356 5.14934 12.0687L9.33066 16.25H14.6792L6.85895 8.42974ZM9.0159 17.75H4C3.86221 17.75 3.75 17.8622 3.75 18V20C3.75 20.1378 3.86221 20.25 4 20.25H20C20.1378 20.25 20.25 20.1378 20.25 20V18C20.25 17.8622 20.1378 17.75 20 17.75H15.1721C15.1694 17.75 15.1666 17.75 15.1639 17.75H9.02413C9.02138 17.75 9.01864 17.75 9.0159 17.75ZM7.20934 16.25L4.08868 13.1293C2.96979 12.0104 2.96979 10.1976 4.08868 9.07868L7.07868 6.08868C8.19758 4.96979 10.0104 4.96979 11.1293 6.08868L17.1093 12.0687C18.2282 13.1876 18.2282 15.0004 17.1093 16.1193L16.9787 16.25H20C20.9662 16.25 21.75 17.0338 21.75 18V20C21.75 20.9662 20.9662 21.75 20 21.75H4C3.03379 21.75 2.25 20.9662 2.25 20V18C2.25 17.0338 3.03379 16.25 4 16.25H7.20934ZM15.8289 15.2784L16.0487 15.0587C16.5818 14.5256 16.5818 13.6624 16.0487 13.1293L10.0687 7.14934C9.53557 6.61623 8.67245 6.61623 8.13934 7.14934L7.91961 7.36908L15.8289 15.2784ZM14 2.25C14.4142 2.25 14.75 2.58579 14.75 3V5C14.75 5.41421 14.4142 5.75 14 5.75C13.5858 5.75 13.25 5.41421 13.25 5V3C13.25 2.58579 13.5858 2.25 14 2.25Z" fill="white"/>
</svg>
