<svg width="24" height="24" viewBox="0 0 24 24" fill="none" xmlns="http://www.w3.org/2000/svg">
<path d="M7 1.25C6.58579 1.25 6.25 1.58579 6.25 2V3.25H5C3.48079 3.25 2.25 4.48079 2.25 6V9V13.0298V20C2.25 21.5192 3.48079 22.75 5 22.75H13C14.5192 22.75 15.75 21.5192 15.75 20V16.75H20C20.9662 16.75 21.75 15.9662 21.75 15V12V10C21.75 9.03379 20.9662 8.25 20 8.25H15.75V6C15.75 4.48079 14.5192 3.25 13 3.25H11.75V2C11.75 1.58579 11.4142 1.25 11 1.25H7ZM20.25 10V11.25H15.75V9.75H20C20.1378 9.75 20.25 9.86221 20.25 10ZM20.25 12.75V15C20.25 15.1378 20.1378 15.25 20 15.25H15.75V13.0298V12.75H20.25ZM14.25 9.75V12V12.2798H3.75V9.75H14.25ZM14.25 16V20C14.25 20.6908 13.6908 21.25 13 21.25H5C4.30921 21.25 3.75 20.6908 3.75 20V13.7798H14.25V16ZM11.75 4.75H13C13.6908 4.75 14.25 5.30921 14.25 6V8.25H3.75V6C3.75 5.30921 4.30921 4.75 5 4.75H6.25V6C6.25 6.41421 6.58579 6.75 7 6.75H11C11.4142 6.75 11.75 6.41421 11.75 6V4.75ZM7.75 4V2.75H10.25V4V5.25H7.75V4ZM8.083 16.004C8.07967 15.4918 8.49573 15.083 8.99899 15.083C9.50328 15.083 9.91699 15.4909 9.91699 16C9.91699 16.5062 9.5062 16.917 8.99999 16.917C8.49512 16.917 8.08517 16.5084 8.083 16.004ZM8.41699 16L8.41701 16.0045L8.08303 16.0082L8.083 16.004L8.08299 16H8.41699ZM11.999 18.083C11.4957 18.083 11.0797 18.4918 11.083 19.004V19H11.417V19.0045L11.083 19.0082V19.004C11.0852 19.5084 11.4951 19.917 12 19.917C12.5062 19.917 12.917 19.5062 12.917 19C12.917 18.4909 12.5033 18.083 11.999 18.083ZM8.083 19.004C8.07967 18.4918 8.49573 18.083 8.99899 18.083C9.50328 18.083 9.91699 18.4909 9.91699 19C9.91699 19.5062 9.5062 19.917 8.99999 19.917C8.49512 19.917 8.08517 19.5084 8.083 19.004ZM8.41699 19L8.41701 19.0045L8.08303 19.0082L8.083 19.004L8.08299 19H8.41699ZM11.999 15.083C11.4957 15.083 11.0797 15.4918 11.083 16.004V16H11.417V16.0045L11.083 16.0082V16.004C11.0852 16.5084 11.4951 16.917 12 16.917C12.5062 16.917 12.917 16.5062 12.917 16C12.917 15.4909 12.5033 15.083 11.999 15.083Z" fill="white"/>
</svg>
