<svg width="24" height="24" viewBox="0 0 24 24" fill="none" xmlns="http://www.w3.org/2000/svg">
<path fill-rule="evenodd" clip-rule="evenodd" d="M9.83431 4.29286C10.2262 2.82303 11.7373 1.94989 13.2071 2.34588L19.7161 4.09989C21.1739 4.49359 22.046 6.00361 21.6578 7.46288L18.9817 17.5071C18.5899 18.977 17.0787 19.8502 15.6089 19.4542L15.4781 19.419C15.3694 20.7242 14.2752 21.7501 12.942 21.7501H5.795C4.39006 21.7501 3.25 20.6106 3.25 19.2061V8.3951C3.25 6.98988 4.38979 5.8501 5.795 5.8501H9.41942L9.83431 4.29286ZM14.9034 17.7106C14.9231 17.7151 14.9425 17.7203 14.9615 17.7263L15.9991 18.0059C16.6672 18.1859 17.3542 17.789 17.5323 17.1209L20.2082 7.07724C20.384 6.41655 19.9857 5.7265 19.3256 5.54815L15.6507 4.55787L12.3172 17.0137L14.9034 17.7106ZM10.8689 16.6234L14.2024 4.16759L12.8169 3.79424C12.1488 3.61427 11.4619 4.01118 11.2837 4.67927L10.7268 6.76944C10.723 6.78574 10.7187 6.80185 10.7139 6.81773L8.60784 14.7227C8.43097 15.3888 8.82578 16.0727 9.49032 16.2519L10.8689 16.6234ZM7.15815 14.3374L9.01977 7.3501H5.795C5.21821 7.3501 4.75 7.81831 4.75 8.3951V19.2061C4.75 19.7816 5.21794 20.2501 5.795 20.2501H12.942C13.5188 20.2501 13.987 19.7819 13.987 19.2051V19.0172L9.09985 17.7002C7.63648 17.3055 6.76919 15.8012 7.15815 14.3374Z" fill="white"/>
</svg>
