<svg width="24" height="24" viewBox="0 0 24 24" fill="none" xmlns="http://www.w3.org/2000/svg">
<path fill-rule="evenodd" clip-rule="evenodd" d="M3.75 5C3.75 4.30921 4.30921 3.75 5 3.75H12C12.6908 3.75 13.25 4.30921 13.25 5V6C13.25 6.41421 13.5858 6.75 14 6.75C14.4142 6.75 14.75 6.41421 14.75 6V5C14.75 3.48079 13.5192 2.25 12 2.25H5C3.48079 2.25 2.25 3.48079 2.25 5V19C2.25 20.5192 3.48079 21.75 5 21.75H12C13.5192 21.75 14.75 20.5192 14.75 19V18C14.75 17.5858 14.4142 17.25 14 17.25C13.5858 17.25 13.25 17.5858 13.25 18V19C13.25 19.6908 12.6908 20.25 12 20.25H5C4.30921 20.25 3.75 19.6908 3.75 19V5ZM14 9.75C13.8622 9.75 13.75 9.86221 13.75 10V14C13.75 14.1383 13.8617 14.25 14 14.25H20C20.1383 14.25 20.25 14.1383 20.25 14V10C20.25 9.86172 20.1383 9.75 20 9.75H14ZM12.25 10C12.25 9.03379 13.0338 8.25 14 8.25H20C20.9677 8.25 21.75 9.03428 21.75 10V14C21.75 14.9677 20.9657 15.75 20 15.75H14C13.0323 15.75 12.25 14.9657 12.25 14V10ZM5.54999 18.5C5.54999 18.0858 5.88577 17.75 6.29999 17.75H10.7C11.1142 17.75 11.45 18.0858 11.45 18.5C11.45 18.9142 11.1142 19.25 10.7 19.25H6.29999C5.88577 19.25 5.54999 18.9142 5.54999 18.5ZM8.53046 9.4698C8.23764 9.17684 7.76277 9.17672 7.4698 9.46954C7.17684 9.76236 7.17672 10.2372 7.46954 10.5302L8.18898 11.25H6C5.58579 11.25 5.25 11.5858 5.25 12C5.25 12.4142 5.58579 12.75 6 12.75H8.1897L7.4698 13.4695C7.17684 13.7624 7.17672 14.2372 7.46954 14.5302C7.76236 14.8232 8.23723 14.8233 8.5302 14.5305L10.5302 12.5315C10.6709 12.3908 10.75 12.2001 10.75 12.0012V12C10.75 11.7812 10.6563 11.5843 10.5069 11.4472L8.53046 9.4698Z" fill="white"/>
</svg>
