<svg width="24" height="24" viewBox="0 0 24 24" fill="none" xmlns="http://www.w3.org/2000/svg">
<path fill-rule="evenodd" clip-rule="evenodd" d="M4 2.25C2.48079 2.25 1.25 3.48079 1.25 5V6.8501V14C1.25 15.5192 2.48079 16.75 4 16.75H11.2985C11.6661 19.571 14.079 21.75 17 21.75C20.1763 21.75 22.75 19.1751 22.75 16C22.75 14.7977 22.381 13.6816 21.75 12.7586V6.8501V5C21.75 3.48079 20.5192 2.25 19 2.25H4ZM20.25 6.1001V5C20.25 4.30921 19.6908 3.75 19 3.75H4C3.30921 3.75 2.75 4.30921 2.75 5V6.1001H20.25ZM2.75 7.6001H20.25V11.2559C19.3255 10.6213 18.2062 10.25 17 10.25C14.079 10.25 11.6661 12.429 11.2985 15.25H4C3.30921 15.25 2.75 14.6908 2.75 14V7.6001ZM20.388 13.4337C19.612 12.4107 18.3833 11.75 17 11.75C14.6532 11.75 12.75 13.6532 12.75 16C12.75 18.3468 14.6532 20.25 17 20.25C19.3477 20.25 21.25 18.3469 21.25 16C21.25 15.0505 20.9386 14.1736 20.4124 13.4661C20.404 13.4555 20.3958 13.4447 20.388 13.4337ZM19.3193 14.3419C19.5641 14.3896 19.7692 14.5558 19.8665 14.7854C20.3465 15.9177 20.1271 17.2777 19.2013 18.2025L19.3193 14.3419ZM19.3193 14.3419L19.2013 18.2025C18.456 18.9476 17.4324 19.225 16.4791 19.0613C16.0708 18.9912 15.7967 18.6035 15.8668 18.1952C15.9369 17.787 16.3247 17.5129 16.7329 17.583C17.2354 17.6692 17.76 17.5225 18.1407 17.1418C18.4015 16.8815 18.5549 16.5533 18.5997 16.2134C18.4681 16.1827 18.3432 16.116 18.2407 16.0135C17.9478 15.7206 17.9478 15.2457 18.2407 14.9528L18.6457 14.5478C18.822 14.3715 19.0745 14.2943 19.3193 14.3419ZM15.8593 14.8586C16.2617 14.4562 16.8292 14.3149 17.361 14.4364C17.7648 14.5286 18.1669 14.2761 18.2592 13.8723C18.3514 13.4685 18.0989 13.0663 17.695 12.9741C16.6949 12.7456 15.5906 13.0062 14.7991 13.7975C13.8733 14.7222 13.6535 16.0827 14.1335 17.215C14.2308 17.4446 14.4359 17.6108 14.6807 17.6584C14.9255 17.7061 15.178 17.6289 15.3543 17.4526L15.7593 17.0476C16.0522 16.7547 16.0522 16.2798 15.7593 15.9869C15.6568 15.8843 15.5319 15.8177 15.4003 15.7869C15.4451 15.4471 15.5985 15.119 15.8593 14.8586Z" fill="white"/>
</svg>
