<svg width="24" height="24" viewBox="0 0 24 24" fill="none" xmlns="http://www.w3.org/2000/svg">
<path fill-rule="evenodd" clip-rule="evenodd" d="M2.983 2.25C2.01353 2.25 1.25 3.04615 1.25 4V9C1.25 9.95385 2.01353 10.75 2.983 10.75H10.017C10.9865 10.75 11.75 9.95385 11.75 9V4C11.75 3.04615 10.9865 2.25 10.017 2.25H2.983ZM2.75 4C2.75 3.84985 2.86647 3.75 2.983 3.75H10.017C10.1335 3.75 10.25 3.84985 10.25 4V5.25H2.75V4ZM2.75 6.75H10.25V9C10.25 9.15015 10.1335 9.25 10.017 9.25H2.983C2.86647 9.25 2.75 9.15015 2.75 9V6.75ZM16.625 17.75C16.2108 17.75 15.875 18.0858 15.875 18.5C15.875 18.9142 16.2108 19.25 16.625 19.25H18.375C18.7892 19.25 19.125 18.9142 19.125 18.5C19.125 18.0858 18.7892 17.75 18.375 17.75H16.625ZM14.75 12.709C14.75 12.1951 15.1802 11.75 15.75 11.75H19.25C19.8201 11.75 20.25 12.1953 20.25 12.708V19.291C20.25 19.8049 19.8198 20.25 19.25 20.25H15.75C15.1799 20.25 14.75 19.8047 14.75 19.292V12.709ZM15.75 10.25C14.3858 10.25 13.25 11.3329 13.25 12.709V19.292C13.25 20.6673 14.3861 21.75 15.75 21.75H19.25C20.6142 21.75 21.75 20.6671 21.75 19.291V12.708C21.75 11.3327 20.6139 10.25 19.25 10.25H15.75ZM3 13.25C3.41421 13.25 3.75 13.5858 3.75 14C3.75 16.3468 5.65321 18.25 8 18.25H8.18934L7.96967 18.0303C7.67678 17.7374 7.67678 17.2626 7.96967 16.9697C8.26256 16.6768 8.73744 16.6768 9.03033 16.9697L10.5303 18.4697C10.6022 18.5416 10.6565 18.6245 10.6931 18.7129C10.7251 18.7901 10.7446 18.8738 10.749 18.9614C10.7497 18.9742 10.75 18.9871 10.75 19C10.75 19.1017 10.7298 19.1987 10.6931 19.2871C10.6565 19.3755 10.6022 19.4584 10.5303 19.5303L9.03033 21.0303C8.73744 21.3232 8.26256 21.3232 7.96967 21.0303C7.67678 20.7374 7.67678 20.2626 7.96967 19.9697L8.18934 19.75H8C4.82479 19.75 2.25 17.1752 2.25 14C2.25 13.5858 2.58579 13.25 3 13.25Z" fill="white"/>
</svg>
