<svg width="24" height="24" viewBox="0 0 24 24" fill="none" xmlns="http://www.w3.org/2000/svg">
<path d="M18.4519 5.17461C18.2736 4.51439 17.5835 4.11608 16.9228 4.29186L6.88011 6.96778C6.21083 7.14605 5.81455 7.83283 5.99501 8.50034L6.13296 9.01318H15.4C16.9192 9.01318 18.15 10.244 18.15 11.7632V13.5282L19.3206 13.2164C19.9883 13.0382 20.3857 12.3509 20.2058 11.6832L18.4519 5.17461ZM5.56783 10.5132H5.54725H5C4.30921 10.5132 3.75 11.0724 3.75 11.7632V13.0923H16.65V11.7632C16.65 11.0724 16.0908 10.5132 15.4 10.5132H5.56783ZM16.65 14.5923H3.75V18.5002C3.75 19.1907 4.30997 19.7502 5 19.7502H15.4C16.0908 19.7502 16.65 19.191 16.65 18.5002V14.5923ZM2.25 13.8423V11.7632C2.25 10.384 3.2643 9.24259 4.58789 9.04383L4.54699 8.8918C4.14977 7.42148 5.02337 5.91008 6.4939 5.51835L16.5369 2.84235C17.9962 2.45413 19.5064 3.32575 19.9001 4.78352L21.6542 11.2929C22.0503 12.7631 21.1757 14.2739 19.7074 14.6657L18.15 15.0805V18.5002C18.15 20.0194 16.9192 21.2502 15.4 21.2502H5C3.48203 21.2502 2.25 20.0196 2.25 18.5002V13.8423Z" fill="white"/>
</svg>
