<svg width="24" height="24" viewBox="0 0 24 24" fill="none" xmlns="http://www.w3.org/2000/svg">
<path fill-rule="evenodd" clip-rule="evenodd" d="M5 4.75C4.30921 4.75 3.75 5.30921 3.75 6V7.25H20.25V6C20.25 5.30921 19.6908 4.75 19 4.75H5ZM2.25 6V8V15C2.25 16.5192 3.48079 17.75 5 17.75H11C11.4142 17.75 11.75 17.4142 11.75 17C11.75 16.5858 11.4142 16.25 11 16.25H5C4.30921 16.25 3.75 15.6908 3.75 15V8.75H20.25V11C20.25 11.4142 20.5858 11.75 21 11.75C21.4142 11.75 21.75 11.4142 21.75 11V8V6C21.75 4.48079 20.5192 3.25 19 3.25H5C3.48079 3.25 2.25 4.48079 2.25 6ZM7 12.1602C6.58579 12.1602 6.25 12.4959 6.25 12.9102C6.25 13.3244 6.58579 13.6602 7 13.6602H11C11.4142 13.6602 11.75 13.3244 11.75 12.9102C11.75 12.4959 11.4142 12.1602 11 12.1602H7ZM21.2538 14.1743L19.0668 13.3876C18.3764 13.1384 17.6216 13.1384 16.9312 13.3876L14.7459 14.1744C14.4484 14.2815 14.25 14.5638 14.25 14.88V17.4C14.25 18.8277 15.227 19.9202 16.0176 20.5843C16.4311 20.9316 16.8408 21.2016 17.1454 21.3844C17.2985 21.4763 17.4271 21.5473 17.5191 21.5962C17.5652 21.6207 17.6022 21.6397 17.6288 21.6531L17.6605 21.6689L17.6701 21.6736L17.6734 21.6752L17.675 21.676C17.8802 21.7744 18.1194 21.7746 18.3245 21.6762L18 21C18.3245 21.6762 18.3252 21.6758 18.3255 21.6757L18.3266 21.6752L18.3299 21.6736L18.3395 21.6689L18.3712 21.6531C18.3978 21.6397 18.4348 21.6207 18.4809 21.5962C18.5729 21.5473 18.7015 21.4763 18.8546 21.3844C19.1592 21.2016 19.5689 20.9316 19.9824 20.5843C20.773 19.9202 21.75 18.8277 21.75 17.4V14.88C21.75 14.5637 21.5515 14.2814 21.2538 14.1743ZM18 21L17.675 21.676C17.6752 21.6761 17.6755 21.6762 18 21ZM18.0829 20.0982C18.0541 20.1154 18.0264 20.1318 18 20.1472C17.9736 20.1318 17.9459 20.1154 17.9171 20.0982C17.6592 19.9434 17.3189 19.7184 16.9824 19.4357C16.273 18.8398 15.75 18.1323 15.75 17.4V15.4071L17.4408 14.7984C17.8021 14.6679 18.1959 14.6679 18.5572 14.7984L20.25 15.4073V17.4C20.25 18.1323 19.727 18.8398 19.0176 19.4357C18.6811 19.7184 18.3408 19.9434 18.0829 20.0982Z" fill="white"/>
</svg>
