<svg width="24" height="24" viewBox="0 0 24 24" fill="none" xmlns="http://www.w3.org/2000/svg">
<path d="M3.75 4.871C3.75 4.25221 4.25221 3.75 4.871 3.75H12.128C12.748 3.75 13.25 4.25247 13.25 4.871V6.25H10.333C9.18279 6.25 8.25 7.18279 8.25 8.333V10V13.667C8.25 14.8176 9.18315 15.75 10.334 15.75H13.25V19.129C13.25 19.7478 12.7478 20.25 12.129 20.25H4.871C4.25221 20.25 3.75 19.7478 3.75 19.129V4.871ZM9.75 10.75H20.25V13.666C20.25 13.9892 19.9884 14.25 19.667 14.25H14H10.334C10.0108 14.25 9.75 13.9884 9.75 13.667V10.75ZM20.25 9.25H9.75V8.333C9.75 8.01121 10.0112 7.75 10.333 7.75H14H19.666C19.9892 7.75 20.25 8.01158 20.25 8.333V9.25ZM21.75 10V8.333C21.75 7.18242 20.8168 6.25 19.666 6.25H14.75V4.871C14.75 3.42353 13.576 2.25 12.128 2.25H4.871C3.42379 2.25 2.25 3.42379 2.25 4.871V19.129C2.25 20.5762 3.42379 21.75 4.871 21.75H12.129C13.5762 21.75 14.75 20.5762 14.75 19.129V15.75H19.667C20.8176 15.75 21.75 14.8168 21.75 13.666V10ZM6.29999 17.75C5.88577 17.75 5.54999 18.0858 5.54999 18.5C5.54999 18.9142 5.88577 19.25 6.29999 19.25H10.7C11.1142 19.25 11.45 18.9142 11.45 18.5C11.45 18.0858 11.1142 17.75 10.7 17.75H6.29999Z" fill="white"/>
</svg>
