<svg width="24" height="24" viewBox="0 0 24 24" fill="none" xmlns="http://www.w3.org/2000/svg">
<path d="M1.75 5.75C1.75 4.23079 2.98079 3 4.5 3H19.5C21.0192 3 22.25 4.23079 22.25 5.75V7.6001V14.75C22.25 16.2692 21.0192 17.5 19.5 17.5H17.7015C17.3341 20.3209 14.922 22.5 12 22.5C9.07897 22.5 6.66609 20.321 6.29849 17.5H4.5C2.98079 17.5 1.75 16.2692 1.75 14.75V7.6001V5.75ZM3.25 8.3501V14.75C3.25 15.4408 3.80921 16 4.5 16H6.29849C6.66609 13.179 9.07897 11 12 11C14.922 11 17.3341 13.1791 17.7015 16H19.5C20.1908 16 20.75 15.4408 20.75 14.75V8.3501H3.25ZM20.75 6.8501V5.75C20.75 5.05921 20.1908 4.5 19.5 4.5H4.5C3.80921 4.5 3.25 5.05921 3.25 5.75V6.8501H20.75ZM12 12.5C9.65321 12.5 7.75 14.4032 7.75 16.75C7.75 19.0968 9.65321 21 12 21C14.3477 21 16.25 19.0969 16.25 16.75C16.25 14.4031 14.3477 12.5 12 12.5ZM14.7523 16.1695C15.0452 15.8766 15.0452 15.4017 14.7523 15.1088C14.4594 14.8159 13.9846 14.8159 13.6917 15.1088L11.4442 17.3563L10.3085 16.22C10.0157 15.927 9.54081 15.9269 9.24783 16.2197C8.95485 16.5125 8.95471 16.9874 9.24751 17.2803L10.9135 18.9473C11.0541 19.0881 11.2449 19.1671 11.4439 19.1672C11.6428 19.1672 11.8337 19.0882 11.9743 18.9475L14.7523 16.1695Z" fill="white"/>
</svg>
