<svg width="24" height="24" viewBox="0 0 24 24" fill="none" xmlns="http://www.w3.org/2000/svg">
<path fill-rule="evenodd" clip-rule="evenodd" d="M2.84607 1.25C1.87985 1.25 1.09607 2.03379 1.09607 3V8C1.09607 8.96621 1.87985 9.75 2.84607 9.75H10.0001C10.9663 9.75 11.7501 8.96621 11.7501 8V3C11.7501 2.03379 10.9663 1.25 10.0001 1.25H2.84607ZM2.59607 3C2.59607 2.86221 2.70828 2.75 2.84607 2.75H10.0001C10.1379 2.75 10.2501 2.86221 10.2501 3V4.25H2.59607V3ZM2.59607 5.75H10.2501V8C10.2501 8.13779 10.1379 8.25 10.0001 8.25H2.84607C2.70828 8.25 2.59607 8.13779 2.59607 8V5.75ZM17.0001 18.25C16.5859 18.25 16.2501 18.5858 16.2501 19C16.2501 19.4142 16.5859 19.75 17.0001 19.75H19.0001C19.4143 19.75 19.7501 19.4142 19.7501 19C19.7501 18.5858 19.4143 18.25 19.0001 18.25H17.0001ZM14.7501 12C14.7501 11.3092 15.3093 10.75 16.0001 10.75H20.0001C20.6909 10.75 21.2501 11.3092 21.2501 12V20C21.2501 20.6908 20.6909 21.25 20.0001 21.25H16.0001C15.3093 21.25 14.7501 20.6908 14.7501 20V12ZM16.0001 9.25C14.4809 9.25 13.2501 10.4808 13.2501 12V20C13.2501 21.5192 14.4809 22.75 16.0001 22.75H20.0001C21.5193 22.75 22.7501 21.5192 22.7501 20V12C22.7501 10.4808 21.5193 9.25 20.0001 9.25H16.0001ZM4.00006 12.25C4.41427 12.25 4.75006 12.5858 4.75006 13V17C4.75006 17.6908 5.30927 18.25 6.00006 18.25H10.0001C10.4143 18.25 10.7501 18.5858 10.7501 19C10.7501 19.4142 10.4143 19.75 10.0001 19.75H6.00006C4.48085 19.75 3.25006 18.5192 3.25006 17V13C3.25006 12.5858 3.58585 12.25 4.00006 12.25ZM16.0001 2.25C15.5859 2.25 15.2501 2.58579 15.2501 3C15.2501 3.41421 15.5859 3.75 16.0001 3.75H18.0001C18.6909 3.75 19.2501 4.30921 19.2501 5V7C19.2501 7.41421 19.5859 7.75 20.0001 7.75C20.4143 7.75 20.7501 7.41421 20.7501 7V5C20.7501 3.48079 19.5193 2.25 18.0001 2.25H16.0001Z" fill="white"/>
</svg>
