<svg width="24" height="24" viewBox="0 0 24 24" fill="none" xmlns="http://www.w3.org/2000/svg">
<path d="M2.25 4C2.25 3.58579 2.58579 3.25 3 3.25H8C8.41421 3.25 8.75 3.58579 8.75 4C8.75 4.41421 8.41421 4.75 8 4.75H3C2.58579 4.75 2.25 4.41421 2.25 4ZM17.7933 4.05688C16.7194 2.98299 14.9786 2.98299 13.9047 4.05688L7.76367 10.1979C6.68978 11.2718 6.68978 13.0127 7.76367 14.0865L8.92713 15.25H4C3.03379 15.25 2.25 16.0338 2.25 17V19C2.25 19.9662 3.03379 20.75 4 20.75H20C20.9662 20.75 21.75 19.9662 21.75 19V17C21.75 16.0338 20.9662 15.25 20 15.25H16.7909L20.9443 11.0965C22.0182 10.0227 22.0182 8.28178 20.9443 7.20789L18.665 4.92853C18.6509 4.91181 18.6361 4.89555 18.6203 4.87983C18.6046 4.8641 18.5883 4.84921 18.5716 4.83518L17.7933 4.05688ZM17.0273 5.41218L9.11897 13.3205L8.82433 13.0259C8.33623 12.5378 8.33623 11.7467 8.82433 11.2585L14.9653 5.11755C15.4534 4.62944 16.2446 4.62944 16.7327 5.11755L17.0273 5.41218ZM10.1796 14.3812L18.088 6.47284L19.8837 8.26855C20.3718 8.75665 20.3718 9.54778 19.8837 10.0359L14.6696 15.25H11.0484L10.1796 14.3812ZM14.962 16.75C14.974 16.7503 14.986 16.7503 14.998 16.75H20C20.1378 16.75 20.25 16.8622 20.25 17V19C20.25 19.1378 20.1378 19.25 20 19.25H4C3.86221 19.25 3.75 19.1378 3.75 19V17C3.75 16.8622 3.86221 16.75 4 16.75H10.72C10.732 16.7503 10.744 16.7503 10.756 16.75H14.962ZM3 6.25C2.58579 6.25 2.25 6.58579 2.25 7C2.25 7.41421 2.58579 7.75 3 7.75H6C6.41421 7.75 6.75 7.41421 6.75 7C6.75 6.58579 6.41421 6.25 6 6.25H3ZM2.25 10C2.25 9.58579 2.58579 9.25 3 9.25H4C4.41421 9.25 4.75 9.58579 4.75 10C4.75 10.4142 4.41421 10.75 4 10.75H3C2.58579 10.75 2.25 10.4142 2.25 10Z" fill="white"/>
</svg>
