<svg width="24" height="24" viewBox="0 0 24 24" fill="none" xmlns="http://www.w3.org/2000/svg">
<path d="M4 2.25C2.48079 2.25 1.25 3.48079 1.25 5V6.8501V14C1.25 15.5192 2.48079 16.75 4 16.75H11.2985C11.6661 19.571 14.079 21.75 17 21.75C20.1763 21.75 22.75 19.1751 22.75 16C22.75 14.7977 22.381 13.6816 21.75 12.7586V6.8501V5C21.75 3.48079 20.5192 2.25 19 2.25H4ZM20.25 6.1001H2.75V5C2.75 4.30921 3.30921 3.75 4 3.75H19C19.6908 3.75 20.25 4.30921 20.25 5V6.1001ZM2.75 7.6001H20.25V11.2559C19.3255 10.6213 18.2062 10.25 17 10.25C14.079 10.25 11.6661 12.429 11.2985 15.25H4C3.30921 15.25 2.75 14.6908 2.75 14V7.6001ZM20.388 13.4337C20.3958 13.4447 20.404 13.4555 20.4124 13.4661C20.9386 14.1736 21.25 15.0505 21.25 16C21.25 18.3469 19.3477 20.25 17 20.25C14.6532 20.25 12.75 18.3468 12.75 16C12.75 13.6532 14.6532 11.75 17 11.75C18.3833 11.75 19.612 12.4107 20.388 13.4337ZM18.9403 14.0595C19.2332 14.3524 19.2332 14.8273 18.9403 15.1202L18.0607 15.9998L18.9403 16.8795C19.2332 17.1724 19.2332 17.6473 18.9403 17.9402C18.6474 18.2331 18.1726 18.2331 17.8797 17.9402L17 17.0605L16.1203 17.9402C15.8274 18.2331 15.3526 18.2331 15.0597 17.9402C14.7668 17.6473 14.7668 17.1724 15.0597 16.8795L15.9393 15.9998L15.0597 15.1202C14.7668 14.8273 14.7668 14.3524 15.0597 14.0595C15.3526 13.7666 15.8274 13.7666 16.1203 14.0595L17 14.9392L17.8797 14.0595C18.1726 13.7666 18.6474 13.7666 18.9403 14.0595Z" fill="white"/>
</svg>
