<svg width="24" height="24" viewBox="0 0 24 24" fill="none" xmlns="http://www.w3.org/2000/svg">
<path d="M1.25 5C1.25 3.48079 2.48079 2.25 4 2.25H19C20.5192 2.25 21.75 3.48079 21.75 5V6.8501V12.7584C22.381 13.6814 22.75 14.7976 22.75 16C22.75 19.1751 20.1763 21.75 17 21.75C14.0788 21.75 11.6655 19.5714 11.2984 16.75H4C2.48079 16.75 1.25 15.5192 1.25 14V6.8501V5ZM20.25 5C20.25 4.30921 19.6908 3.75 19 3.75H4C3.30921 3.75 2.75 4.30921 2.75 5V6.1001H20.25V5ZM20.25 7.6001H2.75V14C2.75 14.6908 3.30921 15.25 4 15.25H11.3012C11.6824 12.4702 14.1401 10.2479 17.0056 10.25C18.2095 10.2509 19.3269 10.622 20.25 11.2556V7.6001ZM17.0045 11.75C14.7139 11.7483 12.75 13.7105 12.75 16.001C12.75 18.3476 14.653 20.25 17 20.25C19.3477 20.25 21.25 18.3469 21.25 16C21.25 15.0517 20.9395 14.176 20.4147 13.469C20.4047 13.4565 20.395 13.4436 20.3858 13.4305C19.6103 12.4101 18.3843 11.751 17.0045 11.75ZM19.7523 15.4195C20.0452 15.1266 20.0452 14.6517 19.7523 14.3588C19.4595 14.0659 18.9846 14.0659 18.6917 14.3588L16.4442 16.6063L15.3085 15.47C15.0157 15.177 14.5408 15.1769 14.2478 15.4697C13.9549 15.7625 13.9547 16.2374 14.2475 16.5303L15.9135 18.1973C16.0542 18.3381 16.245 18.4171 16.4439 18.4172C16.6429 18.4172 16.8337 18.3382 16.9743 18.1975L19.7523 15.4195Z" fill="white"/>
</svg>
