<svg width="24" height="24" viewBox="0 0 24 24" fill="none" xmlns="http://www.w3.org/2000/svg">
<g clip-path="url(#clip0_7_2940)">
<path d="M2.25 6C2.25 5.58579 2.58579 5.25 3 5.25H16C16.4142 5.25 16.75 5.58579 16.75 6C16.75 6.41421 16.4142 6.75 16 6.75H3C2.58579 6.75 2.25 6.41421 2.25 6Z" fill="white"/>
<path d="M13 2.75049C12.3092 2.75049 11.75 3.3097 11.75 4.00049V8.00049C11.75 8.69127 12.3092 9.25049 13 9.25049H19C19.6908 9.25049 20.25 8.69127 20.25 8.00049V4.00049C20.25 3.3097 19.6908 2.75049 19 2.75049H13ZM10.25 4.00049C10.25 2.48127 11.4808 1.25049 13 1.25049H19C20.5192 1.25049 21.75 2.48127 21.75 4.00049V8.00049C21.75 9.5197 20.5192 10.7505 19 10.7505H13C11.4808 10.7505 10.25 9.5197 10.25 8.00049V4.00049Z" fill="white"/>
<path d="M7.25 18C7.25 17.5858 7.58579 17.25 8 17.25H21C21.4142 17.25 21.75 17.5858 21.75 18C21.75 18.4142 21.4142 18.75 21 18.75H8C7.58579 18.75 7.25 18.4142 7.25 18Z" fill="white"/>
<path d="M18.4697 15.4697C18.7626 15.1768 19.2374 15.1768 19.5303 15.4697L21.5303 17.4697C21.8232 17.7626 21.8232 18.2374 21.5303 18.5303L19.5303 20.5303C19.2374 20.8232 18.7626 20.8232 18.4697 20.5303C18.1768 20.2374 18.1768 19.7626 18.4697 19.4697L19.9393 18L18.4697 16.5303C18.1768 16.2374 18.1768 15.7626 18.4697 15.4697Z" fill="white"/>
<path d="M5 14.7505C4.30921 14.7505 3.75 15.3097 3.75 16.0005V20.0005C3.75 20.6913 4.30921 21.2505 5 21.2505H11C11.6908 21.2505 12.25 20.6913 12.25 20.0005V16.0005C12.25 15.3097 11.6908 14.7505 11 14.7505H5ZM2.25 16.0005C2.25 14.4813 3.48079 13.2505 5 13.2505H11C12.5192 13.2505 13.75 14.4813 13.75 16.0005V20.0005C13.75 21.5197 12.5192 22.7505 11 22.7505H5C3.48079 22.7505 2.25 21.5197 2.25 20.0005V16.0005Z" fill="white"/>
<path d="M5.53033 3.46967C5.82322 3.76256 5.82322 4.23744 5.53033 4.53033L4.06066 6L5.53033 7.46967C5.82322 7.76256 5.82322 8.23744 5.53033 8.53033C5.23744 8.82322 4.76256 8.82322 4.46967 8.53033L2.46967 6.53033C2.17678 6.23744 2.17678 5.76256 2.46967 5.46967L4.46967 3.46967C4.76256 3.17678 5.23744 3.17678 5.53033 3.46967Z" fill="white"/>
</g>
<defs>
<clipPath id="clip0_7_2940">
<rect width="24" height="24" fill="white"/>
</clipPath>
</defs>
</svg>
