<svg width="24" height="24" viewBox="0 0 24 24" fill="none" xmlns="http://www.w3.org/2000/svg">
<path d="M5 2.25C3.48079 2.25 2.25 3.48079 2.25 5V9C2.25 10.5192 3.48079 11.75 5 11.75H6.25V18C6.25 19.5192 7.48079 20.75 9 20.75H10H15C16.5192 20.75 17.75 19.5192 17.75 18V11.75H19C20.5192 11.75 21.75 10.5192 21.75 9V5C21.75 3.48079 20.5192 2.25 19 2.25H5ZM17.75 10.25V7C17.75 6.58579 17.4142 6.25 17 6.25H10H7C6.58579 6.25 6.25 6.58579 6.25 7V10.25H5C4.30921 10.25 3.75 9.69079 3.75 9V5C3.75 4.30921 4.30921 3.75 5 3.75H19C19.6908 3.75 20.25 4.30921 20.25 5V9C20.25 9.69079 19.6908 10.25 19 10.25H17.75ZM7.75 11V7.75H9.25V19.25H9C8.30921 19.25 7.75 18.6908 7.75 18V11ZM10.75 7.75H16.25V11V18C16.25 18.6908 15.6908 19.25 15 19.25H10.75V7.75ZM14.25 15.1602C14.25 14.7459 13.9142 14.4102 13.5 14.4102C13.0858 14.4102 12.75 14.7459 12.75 15.1602V17.0002C12.75 17.4144 13.0858 17.7502 13.5 17.7502C13.9142 17.7502 14.25 17.4144 14.25 17.0002V15.1602Z" fill="white"/>
</svg>
