<svg width="24" height="24" viewBox="0 0 24 24" fill="none" xmlns="http://www.w3.org/2000/svg">
<path d="M5 2.25C3.48079 2.25 2.25 3.48079 2.25 5V9C2.25 10.5192 3.48079 11.75 5 11.75H6.25V20C6.25 20.2489 6.37345 20.4815 6.57953 20.6211C6.78561 20.7606 7.04747 20.7888 7.27854 20.6964L9.5 19.8078L11.7215 20.6964C11.9003 20.7679 12.0997 20.7679 12.2785 20.6964L14.5 19.8078L16.7215 20.6964C16.9525 20.7888 17.2144 20.7606 17.4205 20.6211C17.6266 20.4815 17.75 20.2489 17.75 20V11.75H19C20.5192 11.75 21.75 10.5192 21.75 9V5C21.75 3.48079 20.5192 2.25 19 2.25H5ZM17.75 10.25V7C17.75 6.58579 17.4142 6.25 17 6.25H7C6.58579 6.25 6.25 6.58579 6.25 7V10.25H5C4.30921 10.25 3.75 9.69079 3.75 9V5C3.75 4.30921 4.30921 3.75 5 3.75H19C19.6908 3.75 20.25 4.30921 20.25 5V9C20.25 9.69079 19.6908 10.25 19 10.25H17.75ZM7.75 11V7.75H16.25V11V18.8922L14.7785 18.3036C14.5997 18.2321 14.4003 18.2321 14.2215 18.3036L12 19.1922L9.77854 18.3036C9.59973 18.2321 9.40027 18.2321 9.22146 18.3036L7.75 18.8922V11ZM9.25 10C9.25 9.58579 9.58579 9.25 10 9.25H14C14.4142 9.25 14.75 9.58579 14.75 10C14.75 10.4142 14.4142 10.75 14 10.75H10C9.58579 10.75 9.25 10.4142 9.25 10ZM10 12.25C9.58579 12.25 9.25 12.5858 9.25 13C9.25 13.4142 9.58579 13.75 10 13.75H14C14.4142 13.75 14.75 13.4142 14.75 13C14.75 12.5858 14.4142 12.25 14 12.25H10ZM9.25 16C9.25 15.5858 9.58579 15.25 10 15.25H13C13.4142 15.25 13.75 15.5858 13.75 16C13.75 16.4142 13.4142 16.75 13 16.75H10C9.58579 16.75 9.25 16.4142 9.25 16Z" fill="white"/>
</svg>
