<svg width="24" height="24" viewBox="0 0 24 24" fill="none" xmlns="http://www.w3.org/2000/svg">
<path d="M5 2.25C4.03379 2.25 3.25 3.03379 3.25 4V19.191C3.25 20.1227 4.22923 20.7227 5.0586 20.3092L5.05955 20.3088L6.66702 19.5046L8.77448 20.5588L8.7765 20.5598C9.1276 20.7341 9.5394 20.7341 9.8905 20.5598L9.8923 20.5589L11.8581 19.5764C12.803 21.4586 14.7509 22.75 17 22.75C20.1763 22.75 22.75 20.1751 22.75 17C22.75 15.2572 21.9747 13.6953 20.75 12.6408V4C20.75 3.03379 19.9662 2.25 19 2.25H5ZM19.4369 13.5175C19.5038 13.5934 19.5857 13.6556 19.6781 13.6996C20.6372 14.4788 21.25 15.6679 21.25 17C21.25 19.3469 19.3477 21.25 17 21.25C15.2457 21.25 13.7394 20.1871 13.0905 18.6698C13.0739 18.6019 13.0479 18.5365 13.0132 18.4757C12.843 18.016 12.75 17.5189 12.75 17C12.75 14.7102 14.714 12.7475 17.0032 12.75C17.9085 12.7507 18.7479 13.0344 19.4369 13.5175ZM19.25 11.7068C18.5604 11.4133 17.8013 11.2506 17.0045 11.25C13.8858 11.2467 11.25 13.8819 11.25 17C11.25 17.3925 11.2893 17.7759 11.3643 18.1463L9.33355 19.1612L7.00252 17.9952C6.7913 17.8896 6.54266 17.8896 6.33145 17.9952L4.75 18.7864V4C4.75 3.86221 4.86221 3.75 5 3.75H19C19.1378 3.75 19.25 3.86221 19.25 4V11.7068ZM7.25 7C7.25 6.58579 7.58579 6.25 8 6.25H16C16.4142 6.25 16.75 6.58579 16.75 7C16.75 7.41421 16.4142 7.75 16 7.75H8C7.58579 7.75 7.25 7.41421 7.25 7ZM7.25 11C7.25 10.5858 7.58579 10.25 8 10.25H11C11.4142 10.25 11.75 10.5858 11.75 11C11.75 11.4142 11.4142 11.75 11 11.75H8C7.58579 11.75 7.25 11.4142 7.25 11ZM8 14.25C7.58579 14.25 7.25 14.5858 7.25 15C7.25 15.4142 7.58579 15.75 8 15.75H9C9.41421 15.75 9.75 15.4142 9.75 15C9.75 14.5858 9.41421 14.25 9 14.25H8ZM14.25 17C14.25 16.5858 14.5858 16.25 15 16.25H16.25V15C16.25 14.5858 16.5858 14.25 17 14.25C17.4142 14.25 17.75 14.5858 17.75 15V16.25H19C19.4142 16.25 19.75 16.5858 19.75 17C19.75 17.4142 19.4142 17.75 19 17.75H17.75V19C17.75 19.4142 17.4142 19.75 17 19.75C16.5858 19.75 16.25 19.4142 16.25 19V17.75H15C14.5858 17.75 14.25 17.4142 14.25 17Z" fill="white"/>
</svg>
