<svg width="24" height="24" viewBox="0 0 24 24" fill="none" xmlns="http://www.w3.org/2000/svg">
<path d="M12 1.25C10.5271 1.25 9.25 2.37991 9.25 3.875V5.35344C8.09553 5.67977 7.25 6.74081 7.25 8V10C7.25 11.5192 8.48079 12.75 10 12.75H14C15.5192 12.75 16.75 11.5192 16.75 10V8C16.75 6.74081 15.9045 5.67977 14.75 5.35344V3.875C14.75 2.37991 13.4729 1.25 12 1.25ZM13.25 5.25H10.75V3.875C10.75 3.29809 11.2629 2.75 12 2.75C12.7371 2.75 13.25 3.29809 13.25 3.875V5.25ZM10 6.75H14C14.6908 6.75 15.25 7.30921 15.25 8V10C15.25 10.6908 14.6908 11.25 14 11.25H10C9.30921 11.25 8.75 10.6908 8.75 10V8C8.75 7.30921 9.30921 6.75 10 6.75ZM7 15.75C5.75721 15.75 4.75 16.7572 4.75 18C4.75 19.2428 5.75721 20.25 7 20.25H17C18.2428 20.25 19.25 19.2428 19.25 18C19.25 16.7572 18.2428 15.75 17 15.75H7ZM3.25 18C3.25 15.9288 4.92879 14.25 7 14.25H17C19.0712 14.25 20.75 15.9288 20.75 18C20.75 20.0712 19.0712 21.75 17 21.75H7C4.92879 21.75 3.25 20.0712 3.25 18ZM7.5 17.2402C7.32795 17.2402 7.12638 17.3009 6.96597 17.4614C6.80558 17.6218 6.745 17.8233 6.745 17.9952C6.745 18.1672 6.8056 18.3688 6.96611 18.5293C7.1266 18.6897 7.32815 18.7502 7.5 18.7502C7.67184 18.7502 7.87339 18.6897 8.03388 18.5293C8.19439 18.3688 8.255 18.1672 8.255 17.9952C8.255 17.8233 8.19441 17.6218 8.03402 17.4614C7.87361 17.3009 7.67205 17.2402 7.5 17.2402ZM9.96611 17.471C10.1266 17.3105 10.3282 17.25 10.5 17.25C10.6718 17.25 10.8734 17.3105 11.0339 17.471C11.1944 17.6314 11.255 17.833 11.255 18.005C11.255 18.1769 11.1944 18.3784 11.034 18.5389C10.8736 18.6993 10.672 18.76 10.5 18.76C10.3279 18.76 10.1264 18.6993 9.96597 18.5389C9.80558 18.3784 9.745 18.1769 9.745 18.005C9.745 17.833 9.8056 17.6314 9.96611 17.471ZM13.495 17.2451C13.3232 17.2451 13.1216 17.3056 12.9611 17.4661C12.8006 17.6266 12.74 17.8282 12.74 18.0001C12.74 18.1721 12.8006 18.3737 12.9611 18.5341C13.1216 18.6946 13.3232 18.7551 13.495 18.7551C13.6668 18.7551 13.8684 18.6946 14.0289 18.5341C14.1894 18.3737 14.25 18.1721 14.25 18.0001C14.25 17.8282 14.1894 17.6266 14.0289 17.4661C13.8684 17.3056 13.6668 17.2451 13.495 17.2451ZM15.9612 17.466C16.1217 17.3056 16.3232 17.2451 16.495 17.2451C16.6669 17.2451 16.8685 17.3057 17.029 17.4662C17.1895 17.6267 17.25 17.8283 17.25 18.0001C17.25 18.172 17.1895 18.3736 17.029 18.5341C16.8685 18.6946 16.6669 18.7551 16.495 18.7551C16.3232 18.7551 16.1217 18.6946 15.9612 18.5342C15.8007 18.3738 15.74 18.1722 15.74 18.0001C15.74 17.8281 15.8007 17.6264 15.9612 17.466Z" fill="white"/>
</svg>
