<svg width="24" height="24" viewBox="0 0 24 24" fill="none" xmlns="http://www.w3.org/2000/svg">
<g clip-path="url(#clip0_7_2100)">
<mask id="mask0_7_2100" style="mask-type:luminance" maskUnits="userSpaceOnUse" x="0" y="0" width="24" height="24">
<path d="M24 0H0V24H24V0Z" fill="white"/>
</mask>
<g mask="url(#mask0_7_2100)">
<path d="M5.77366 8.40427C6.79026 5.96724 9.19057 4.25 12 4.25C15.493 4.25 18.3659 6.90253 18.7145 10.3034C20.9988 10.648 22.75 12.6196 22.75 15C22.75 17.6232 20.6232 19.75 18 19.75H7C3.82479 19.75 1.25 17.1752 1.25 14C1.25 11.2423 3.1937 8.9661 5.77366 8.40427ZM12 5.75C9.69501 5.75 7.73911 7.23814 7.034 9.30967C6.94247 9.57856 6.70689 9.77268 6.42546 9.81111C4.3475 10.0948 2.75 11.8555 2.75 14C2.75 16.3468 4.65321 18.25 7 18.25H18C19.7948 18.25 21.25 16.7948 21.25 15C21.25 13.2052 19.7948 11.75 18 11.75C17.5858 11.75 17.25 11.4142 17.25 11C17.25 8.10021 14.8998 5.75 12 5.75ZM11.4796 10.7455C11.4799 10.7536 11.48 10.7618 11.48 10.77V11.25H12.52V10.77C12.52 10.7623 12.5201 10.7546 12.5203 10.747C12.5061 10.4897 12.2662 10.25 12 10.25C11.7208 10.25 11.4929 10.4696 11.4796 10.7455ZM13.5 12.75H10.5C10.3622 12.75 10.25 12.8622 10.25 13V14.5C10.25 14.6378 10.3622 14.75 10.5 14.75H13.5C13.6378 14.75 13.75 14.6378 13.75 14.5V13C13.75 12.8622 13.6378 12.75 13.5 12.75ZM9.98001 11.3286V10.8102C9.97934 10.7972 9.979 10.7842 9.979 10.771C9.979 9.65479 10.8838 8.75 12 8.75C13.1295 8.75 14.021 9.70317 14.021 10.771C14.021 10.7842 14.0207 10.7973 14.02 10.8104V11.3286C14.7324 11.5501 15.25 12.2148 15.25 13V14.5C15.25 15.4662 14.4662 16.25 13.5 16.25H10.5C9.53379 16.25 8.75 15.4662 8.75 14.5V13C8.75 12.2148 9.26757 11.5501 9.98001 11.3286Z" fill="white"/>
</g>
</g>
<defs>
<clipPath id="clip0_7_2100">
<rect width="24" height="24" fill="white"/>
</clipPath>
</defs>
</svg>
