<svg width="24" height="24" viewBox="0 0 24 24" fill="none" xmlns="http://www.w3.org/2000/svg">
<g clip-path="url(#clip0_7_1802)">
<mask id="mask0_7_1802" style="mask-type:luminance" maskUnits="userSpaceOnUse" x="0" y="0" width="24" height="24">
<path d="M24 0H0V24H24V0Z" fill="white"/>
</mask>
<g mask="url(#mask0_7_1802)">
<path d="M3.0001 8.3C3.4001 8.3 3.8001 8 3.8001 7.5V5.3C3.8001 4.5 4.5001 3.8 5.3001 3.8H7.5001C7.9001 3.8 8.3001 3.5 8.3001 3C8.3001 2.5 7.9001 2.3 7.5001 2.3H5.2001C3.5001 2.3 2.2001 3.6 2.2001 5.3V7.5C2.2001 7.9 2.6001 8.3 3.0001 8.3Z" fill="white"/>
<path d="M7.5001 20.3H5.2001C4.4001 20.3 3.7001 19.6 3.7001 18.8V16.6C3.7001 16.2 3.4001 15.8 2.9001 15.8C2.4001 15.8 2.1001 16.1 2.1001 16.6V18.8C2.1001 20.5 3.4001 21.8 5.1001 21.8H7.3001C7.7001 21.8 8.1001 21.5 8.1001 21C8.1001 20.5 7.9001 20.3 7.5001 20.3Z" fill="white"/>
<path d="M21.0001 15.8C20.6001 15.8 20.2001 16.1 20.2001 16.6V18.8C20.2001 19.6 19.5001 20.3 18.7001 20.3H16.5001C16.1001 20.3 15.7001 20.6 15.7001 21.1C15.7001 21.6 16.0001 21.9 16.5001 21.9H18.7001C20.4001 21.9 21.7001 20.6 21.7001 18.9V16.7C21.8001 16.1 21.4001 15.8 21.0001 15.8Z" fill="white"/>
<path d="M18.8001 2.3H16.6001C16.2001 2.3 15.8001 2.6 15.8001 3.1C15.8001 3.6 16.1001 3.9 16.6001 3.9H18.8001C19.6001 3.9 20.3001 4.6 20.3001 5.4V7.6C20.3001 8 20.6001 8.4 21.1001 8.4C21.6001 8.4 21.9001 8.1 21.9001 7.6V5.3C21.8001 3.6 20.4001 2.3 18.8001 2.3Z" fill="white"/>
<path d="M6.0001 8.2C5.6001 8.2 5.2001 8.5 5.2001 9C5.2001 9.5 5.6001 9.7 6.0001 9.7H8.3001C8.6001 11.4 10.1001 12.8 12.0001 12.8C13.8001 12.8 15.4001 11.5 15.7001 9.7H18.0001C18.4001 9.7 18.8001 9.4 18.8001 8.9C18.8001 8.4 18.4001 8.2 18.0001 8.2H15.7001C15.3001 6.5 13.8001 5.3 12.0001 5.3C10.2001 5.3 8.7001 6.6 8.3001 8.2H6.0001ZM12.0001 11.3C11.0001 11.3 10.2001 10.6 9.9001 9.7H14.2001C13.8001 10.6 13.0001 11.3 12.0001 11.3ZM12.0001 6.8C12.9001 6.8 13.8001 7.4 14.1001 8.2H9.9001C10.2001 7.3 11.1001 6.8 12.0001 6.8Z" fill="white"/>
<path d="M17.0001 17.7C17.4001 17.5 17.6001 17.1 17.4001 16.7L17.1001 16C16.9001 15.5 16.6001 15.1 16.3001 14.8C15.7001 14.2 14.9001 13.9 14.0001 13.9H10.0001C9.1001 13.9 8.3001 14.2 7.7001 14.8C7.3001 15.1 7.0001 15.6 6.9001 16L6.6001 16.7C6.4001 17.1 6.6001 17.5 7.0001 17.7C7.1001 17.7 7.2001 17.8 7.3001 17.8C7.6001 17.8 7.9001 17.6 8.0001 17.3L8.3001 16.6C8.4001 16.3 8.6001 16.1 8.8001 15.9C9.1001 15.6 9.6001 15.4 10.1001 15.4H14.0001C14.5001 15.4 14.9001 15.6 15.3001 15.9C15.5001 16.1 15.7001 16.3 15.8001 16.6L16.1001 17.3C16.1001 17.7 16.6001 17.9 17.0001 17.7Z" fill="white"/>
</g>
</g>
<defs>
<clipPath id="clip0_7_1802">
<rect width="24" height="24" fill="white"/>
</clipPath>
</defs>
</svg>
