<svg width="24" height="24" viewBox="0 0 24 24" fill="none" xmlns="http://www.w3.org/2000/svg">
<path d="M11.9999 1.4292C8.43613 1.4292 5.24438 3.00072 3.06389 5.47762C2.7902 5.78853 2.82036 6.26244 3.13126 6.53614C3.44217 6.80984 3.91608 6.77968 4.18978 6.46877C6.0993 4.29968 8.88755 2.9292 11.9999 2.9292C15.1122 2.9292 17.9004 4.29968 19.8099 6.46877C20.0836 6.77968 20.5575 6.80984 20.8685 6.53614C21.1794 6.26244 21.2095 5.78853 20.9358 5.47762C18.7553 3.00072 15.5636 1.4292 11.9999 1.4292ZM2.25586 14.1792C2.25586 8.79426 6.61937 4.4292 12.0019 4.4292C17.3844 4.4292 21.7479 8.79426 21.7479 14.1792C21.7479 16.2502 20.0693 17.9292 17.9989 17.9292C15.9285 17.9292 14.2499 16.2502 14.2499 14.1792C14.2499 12.9362 13.2425 11.9292 12.0009 11.9292C10.7593 11.9292 9.75186 12.9363 9.75186 14.1792C9.75186 17.1345 11.306 19.7269 13.6438 21.1848C13.9952 21.404 14.1025 21.8666 13.8833 22.2181C13.6641 22.5695 13.2015 22.6768 12.85 22.4576C10.0918 20.7375 8.25186 17.6739 8.25186 14.1792C8.25186 12.1081 9.93048 10.4292 12.0009 10.4292C14.0713 10.4292 15.7499 12.1081 15.7499 14.1792C15.7499 15.4221 16.7573 16.4292 17.9989 16.4292C19.2405 16.4292 20.2479 15.4221 20.2479 14.1792C20.2479 9.62214 16.5554 5.9292 12.0019 5.9292C7.44834 5.9292 3.75586 9.62214 3.75586 14.1792C3.75586 15.231 3.87355 16.2562 4.09046 17.2456C4.17916 17.6502 3.92307 18.0501 3.51847 18.1388C3.11386 18.2275 2.71396 17.9714 2.62526 17.5668C2.38617 16.4762 2.25586 15.3434 2.25586 14.1792ZM6.75183 14.1792C6.75183 11.2791 9.10137 8.9292 11.9989 8.9292C14.8963 8.9292 17.2459 11.2791 17.2459 14.1792C17.2459 14.5934 17.5817 14.9292 17.9959 14.9292C18.4101 14.9292 18.7459 14.5934 18.7459 14.1792C18.7459 10.4513 15.7254 7.4292 11.9989 7.4292C8.27229 7.4292 5.25183 10.4513 5.25183 14.1792C5.25183 16.8977 6.10544 19.417 7.55561 21.4866C7.79331 21.8258 8.261 21.9081 8.60022 21.6704C8.93944 21.4327 9.02174 20.965 8.78405 20.6258C7.50422 18.7994 6.75183 16.5787 6.75183 14.1792ZM12.7509 14.1792C12.7509 13.765 12.4151 13.4292 12.0009 13.4292C11.5867 13.4292 11.2509 13.765 11.2509 14.1792C11.2509 17.9071 14.2714 20.9292 17.9979 20.9292C18.1032 20.9292 18.2218 20.9213 18.3025 20.9159C18.3262 20.9143 18.3466 20.9129 18.3625 20.912C18.7761 20.8891 19.0927 20.5352 19.0697 20.1216C19.0468 19.708 18.6929 19.3914 18.2793 19.4144C18.2266 19.4173 18.1859 19.42 18.1516 19.4223C18.0908 19.4265 18.0501 19.4292 17.9979 19.4292C15.1004 19.4292 12.7509 17.0793 12.7509 14.1792Z" fill="white"/>
</svg>
