<svg width="24" height="24" viewBox="0 0 24 24" fill="none" xmlns="http://www.w3.org/2000/svg">
<path d="M16.25 3C16.25 2.58579 16.5858 2.25 17 2.25H19C20.5192 2.25 21.75 3.48079 21.75 5V7C21.75 7.41421 21.4142 7.75 21 7.75C20.5858 7.75 20.25 7.41421 20.25 7V5C20.25 4.30921 19.6908 3.75 19 3.75H17C16.5858 3.75 16.25 3.41421 16.25 3ZM3 16.25C3.41421 16.25 3.75 16.5858 3.75 17V19C3.75 19.6908 4.30921 20.25 5 20.25H7C7.41421 20.25 7.75 20.5858 7.75 21C7.75 21.4142 7.41421 21.75 7 21.75H5C3.48079 21.75 2.25 20.5192 2.25 19V17C2.25 16.5858 2.58579 16.25 3 16.25ZM12.75 14C12.75 13.5858 12.4142 13.25 12 13.25C11.5858 13.25 11.25 13.5858 11.25 14V16C11.25 16.4142 11.5858 16.75 12 16.75C12.4142 16.75 12.75 16.4142 12.75 16V14ZM2.25 5C2.25 3.48079 3.48079 2.25 5 2.25H7C7.41421 2.25 7.75 2.58579 7.75 3C7.75 3.41421 7.41421 3.75 7 3.75H5C4.30921 3.75 3.75 4.30921 3.75 5V7C3.75 7.41421 3.41421 7.75 3 7.75C2.58579 7.75 2.25 7.41421 2.25 7V5ZM21.75 17C21.75 16.5858 21.4142 16.25 21 16.25C20.5858 16.25 20.25 16.5858 20.25 17V19C20.25 19.6908 19.6908 20.25 19 20.25H17C16.5858 20.25 16.25 20.5858 16.25 21C16.25 21.4142 16.5858 21.75 17 21.75H19C20.5192 21.75 21.75 20.5192 21.75 19V17ZM9.34867 11.3487C10.0264 10.6709 10.9649 10.25 12 10.25C14.0712 10.25 15.75 11.9288 15.75 14V16C15.75 16.4142 15.4142 16.75 15 16.75C14.5858 16.75 14.25 16.4142 14.25 16V14C14.25 12.7572 13.2428 11.75 12 11.75C11.3791 11.75 10.8176 12.0011 10.4093 12.4093C10.1164 12.7022 9.64156 12.7022 9.34867 12.4093C9.05577 12.1164 9.05577 11.6416 9.34867 11.3487ZM9.75 15C9.75 14.5858 9.41421 14.25 9 14.25C8.58579 14.25 8.25 14.5858 8.25 15V16C8.25 16.4142 8.58579 16.75 9 16.75C9.41421 16.75 9.75 16.4142 9.75 16V15ZM16.7285 10.2407C17.0821 10.025 17.5436 10.1368 17.7593 10.4904C18.3822 11.5118 18.75 12.711 18.75 14V16C18.75 16.4142 18.4142 16.75 18 16.75C17.5858 16.75 17.25 16.4142 17.25 16V14C17.25 13.0009 16.9658 12.0702 16.4787 11.2715C16.263 10.9179 16.3749 10.4563 16.7285 10.2407ZM12 7.25C8.27179 7.25 5.25 10.2718 5.25 14V16C5.25 16.4142 5.58579 16.75 6 16.75C6.41421 16.75 6.75 16.4142 6.75 16V14C6.75 11.1002 9.10021 8.75 12 8.75C12.999 8.75 13.9298 9.0342 14.7285 9.52131C15.0821 9.73699 15.5436 9.62515 15.7593 9.27152C15.975 8.91788 15.8632 8.45637 15.5095 8.24069C14.4882 7.6178 13.289 7.25 12 7.25Z" fill="white"/>
</svg>
