<svg width="24" height="24" viewBox="0 0 24 24" fill="none" xmlns="http://www.w3.org/2000/svg">
<path d="M12 2.25C7.71979 2.25 4.25 5.71979 4.25 10C4.25 10.4142 4.58579 10.75 5 10.75C5.41421 10.75 5.75 10.4142 5.75 10C5.75 6.54821 8.54821 3.75 12 3.75C13.0346 3.75 14.0077 4.00566 14.8689 4.45191C15.2367 4.64248 15.6893 4.49883 15.8799 4.13106C16.0705 3.76328 15.9268 3.31066 15.5591 3.12009C14.4943 2.56834 13.2854 2.25 12 2.25ZM12 6.91602C11.3812 6.91602 10.8135 7.12926 10.3445 7.48659C10.015 7.73762 9.54445 7.67403 9.29342 7.34455C9.04239 7.01507 9.10598 6.54447 9.43546 6.29344C10.1425 5.75477 11.0247 5.41602 12 5.41602C14.3466 5.41602 16.2489 7.31776 16.25 9.66408V9.66699V13.667C16.25 14.0812 15.9142 14.417 15.5 14.417C15.0858 14.417 14.75 14.0812 14.75 13.667V9.66921V9.66602C14.75 8.14723 13.5188 6.91602 12 6.91602ZM5 13.25C5.41421 13.25 5.75 13.5858 5.75 14C5.75 15.2688 6.12987 16.447 6.78012 17.4331C7.00815 17.7789 6.91268 18.2441 6.56688 18.4721C6.22108 18.7002 5.7559 18.6047 5.52788 18.2589C4.72213 17.037 4.25 15.5732 4.25 14C4.25 13.5858 4.58579 13.25 5 13.25ZM7.75 10.333V14.333C7.75 16.6802 9.65279 18.583 12 18.583C12.9745 18.583 13.8565 18.2441 14.564 17.706C14.8937 17.4552 14.9577 16.9846 14.7069 16.655C14.4562 16.3253 13.9856 16.2613 13.656 16.5121C13.1855 16.8699 12.6175 17.083 12 17.083C10.4812 17.083 9.25 15.8518 9.25 14.333V10.333C9.25 9.91879 8.91421 9.58301 8.5 9.58301C8.08579 9.58301 7.75 9.91879 7.75 10.333ZM12.75 10C12.75 9.58579 12.4142 9.25 12 9.25C11.5858 9.25 11.25 9.58579 11.25 10V14C11.25 14.4142 11.5858 14.75 12 14.75C12.4142 14.75 12.75 14.4142 12.75 14V10ZM8.1201 19.869C8.31067 19.5012 8.7633 19.3575 9.13107 19.5481C9.99072 19.9936 10.9619 20.2491 11.9944 20.25H12C15.4518 20.25 18.25 17.4518 18.25 14C18.25 13.5858 18.5858 13.25 19 13.25C19.4142 13.25 19.75 13.5858 19.75 14C19.75 18.2781 16.2836 21.7466 12.0062 21.75H12C10.7146 21.75 9.50576 21.4317 8.44096 20.8799C8.07319 20.6894 7.92953 20.2367 8.1201 19.869ZM18.4721 5.74101C18.2441 5.39521 17.7789 5.29974 17.4331 5.52777C17.0873 5.75579 16.9918 6.22097 17.2199 6.56677C17.8701 7.55287 18.25 8.73113 18.25 9.99989C18.25 10.4141 18.5858 10.7499 19 10.7499C19.4142 10.7499 19.75 10.4141 19.75 9.99989C19.75 8.42665 19.2779 6.96292 18.4721 5.74101Z" fill="white"/>
</svg>
