<svg width="24" height="24" viewBox="0 0 24 24" fill="none" xmlns="http://www.w3.org/2000/svg">
<path d="M6.16637 6.16637C9.3882 2.94454 14.6118 2.94454 17.8336 6.16637C21.0554 9.3882 21.0554 14.6118 17.8336 17.8336C14.6117 21.0554 9.38818 21.0554 6.16637 17.8336C2.94454 14.6118 2.94455 9.38818 6.16637 6.16637ZM18.8942 5.10571C15.0866 1.2981 8.91332 1.2981 5.10571 5.10571C1.2981 8.9133 1.2981 15.0867 5.10571 18.8943C8.9133 22.7019 15.0866 22.7019 18.8942 18.8943C22.7018 15.0867 22.7018 8.91332 18.8942 5.10571ZM9.24994 10.333C9.24994 9.91879 8.91415 9.58301 8.49994 9.58301C8.08573 9.58301 7.74994 9.91879 7.74994 10.333V14.333C7.74994 16.6802 9.65273 18.583 11.9999 18.583C12.9744 18.583 13.8564 18.2441 14.5639 17.706C14.8936 17.4552 14.9576 16.9846 14.7068 16.655C14.4561 16.3253 13.9855 16.2613 13.6559 16.5121C13.1854 16.8699 12.6174 17.083 11.9999 17.083C10.4811 17.083 9.24994 15.8518 9.24994 14.333V10.333ZM11.9999 9.25C12.4141 9.25 12.7499 9.58579 12.7499 10V14C12.7499 14.4142 12.4141 14.75 11.9999 14.75C11.5857 14.75 11.2499 14.4142 11.2499 14V10C11.2499 9.58579 11.5857 9.25 11.9999 9.25ZM11.9999 5.41602C11.0246 5.41602 10.1424 5.75477 9.4354 6.29344C9.10592 6.54447 9.04233 7.01507 9.29336 7.34455C9.54439 7.67403 10.0149 7.73762 10.3444 7.48659C10.8134 7.12926 11.3811 6.91602 11.9999 6.91602C13.5187 6.91602 14.7499 8.14723 14.7499 9.66602V13.667C14.7499 14.0812 15.0857 14.417 15.4999 14.417C15.9141 14.417 16.2499 14.0812 16.2499 13.667V9.66602C16.2499 7.3188 14.3471 5.41602 11.9999 5.41602Z" fill="white"/>
</svg>
