<svg width="24" height="24" viewBox="0 0 24 24" fill="none" xmlns="http://www.w3.org/2000/svg">
<path d="M12 3.75C7.44321 3.75 3.75 7.44321 3.75 12C3.75 16.5568 7.44321 20.25 12 20.25C16.5568 20.25 20.25 16.5568 20.25 12C20.25 7.44321 16.5568 3.75 12 3.75ZM2.25 12C2.25 6.61479 6.61479 2.25 12 2.25C17.3852 2.25 21.75 6.61479 21.75 12C21.75 17.3852 17.3852 21.75 12 21.75C6.61479 21.75 2.25 17.3852 2.25 12ZM18 12.25C18.4142 12.25 18.75 12.5858 18.75 13V14C18.75 14.4142 18.4142 14.75 18 14.75C17.5858 14.75 17.25 14.4142 17.25 14V13C17.25 12.5858 17.5858 12.25 18 12.25ZM12.75 12C12.75 11.5858 12.4142 11.25 12 11.25C11.5858 11.25 11.25 11.5858 11.25 12V18C11.25 18.4142 11.5858 18.75 12 18.75C12.4142 18.75 12.75 18.4142 12.75 18V12ZM7.21618 8.31124C7.57291 8.52176 7.69143 8.9816 7.48091 9.33833C7.01859 10.1217 6.75 11.0289 6.75 12.0001V14.0002C6.75 14.4144 6.41421 14.7502 6 14.7502C5.58579 14.7502 5.25 14.4144 5.25 14.0002V12.0001C5.25 10.7474 5.59741 9.57856 6.18909 8.57597C6.39961 8.21924 6.85945 8.10072 7.21618 8.31124ZM12 5.25C10.7472 5.25 9.57841 5.59741 8.57582 6.18909C8.21909 6.39961 8.10057 6.85945 8.31109 7.21618C8.52161 7.57291 8.98145 7.69143 9.33818 7.48091C10.1216 7.01859 11.0287 6.75 12 6.75C14.2817 6.75 16.22 8.20974 16.9419 10.2502C17.0801 10.6406 17.5087 10.8452 17.8992 10.7071C18.2896 10.5689 18.4942 10.1403 18.356 9.74985C17.4299 7.13226 14.9403 5.25 12 5.25ZM8.25 12C8.25 9.92879 9.92879 8.25 12 8.25C14.0712 8.25 15.75 9.92879 15.75 12V17C15.75 17.4142 15.4142 17.75 15 17.75C14.5858 17.75 14.25 17.4142 14.25 17V12C14.25 10.7572 13.2428 9.75 12 9.75C10.7572 9.75 9.75 10.7572 9.75 12V13C9.75 13.4142 9.41421 13.75 9 13.75C8.58579 13.75 8.25 13.4142 8.25 13V12ZM9.75 16C9.75 15.5858 9.41421 15.25 9 15.25C8.58579 15.25 8.25 15.5858 8.25 16V17C8.25 17.4142 8.58579 17.75 9 17.75C9.41421 17.75 9.75 17.4142 9.75 17V16Z" fill="white"/>
</svg>
