<svg width="24" height="24" viewBox="0 0 24 24" fill="none" xmlns="http://www.w3.org/2000/svg">
<path d="M11.5017 3.57065C12.2948 2.77764 13.4885 2.545 14.5213 2.98368L18.0573 4.48568C18.7119 4.76426 19.2354 5.28532 19.5137 5.94252L21.0154 9.47776C21.4525 10.5086 21.2219 11.7038 20.4284 12.4973L17.4859 15.4399C16.6935 16.2336 15.4983 16.4658 14.4659 16.0273L12.8596 15.3451L7.20842 20.9963C7.06777 21.137 6.877 21.216 6.67809 21.216H3.49609C3.08188 21.216 2.74609 20.8802 2.74609 20.466V17.284C2.74609 17.0851 2.82511 16.8943 2.96576 16.7537L8.63205 11.0874L7.97279 9.5342C7.97276 9.53414 7.97281 9.53426 7.97279 9.5342C7.53441 8.50195 7.76645 7.30703 8.55867 6.51474C8.55864 6.51477 8.5587 6.51471 8.55867 6.51474L11.5017 3.57065ZM12.5624 4.63131C12.5624 4.63128 12.5624 4.63134 12.5624 4.63131L9.61951 7.57522C9.25985 7.93489 9.1539 8.47809 9.3534 8.94776L10.2105 10.9669C10.3299 11.2484 10.2666 11.5741 10.0504 11.7903L4.24609 17.5946V19.716H6.36743L12.1567 13.9267C12.373 13.7104 12.6988 13.6471 12.9803 13.7667L15.0523 14.6467C15.5218 14.8461 16.0647 14.7403 16.4243 14.3801L19.3677 11.4367C19.7283 11.0761 19.8335 10.5329 19.6346 10.0638L18.1328 6.52821C18.0071 6.2314 17.7698 5.9935 17.4704 5.86609L13.9349 4.36429C13.4656 4.16498 12.9234 4.2704 12.5624 4.63131Z" fill="white"/>
</svg>
