<svg width="24" height="24" viewBox="0 0 24 24" fill="none" xmlns="http://www.w3.org/2000/svg">
<path d="M2.38603 13.6454C1.29214 6.98025 6.98042 1.29099 13.6467 2.38508C17.6943 3.0492 20.9512 6.30725 21.6153 10.3547C22.7083 17.021 17.02 22.7083 10.3548 21.6153C6.30733 20.9512 3.04919 17.6941 2.38603 13.6454ZM13.4037 3.86527C7.75003 2.93737 2.93837 7.74994 3.86627 13.4027C4.42521 16.8158 7.18512 19.5752 10.5976 20.1351C16.2504 21.062 21.062 16.2513 20.1351 10.5976C19.5752 7.1851 16.8159 4.42514 13.4037 3.86527ZM8.11628 11.1161C8.60443 10.628 9.39589 10.628 9.88405 11.1161C10.3722 11.6043 10.3722 12.3957 9.88405 12.8839C9.39589 13.372 8.60443 13.372 8.11628 12.8839C7.62812 12.3957 7.62812 11.6043 8.11628 11.1161ZM11.6464 11.25C11.5229 10.8126 11.289 10.3997 10.9447 10.0555C9.87076 8.98151 8.12956 8.98151 7.05562 10.0555C5.98167 11.1294 5.98167 12.8706 7.05562 13.9445C8.12956 15.0185 9.87076 15.0185 10.9447 13.9445C11.289 13.6003 11.5229 13.1874 11.6464 12.75H13.2502V13.86C13.2502 14.2742 13.586 14.61 14.0002 14.61C14.4144 14.61 14.7502 14.2742 14.7502 13.86V12.75H16.2502V13.86C16.2502 14.2742 16.586 14.61 17.0002 14.61C17.4144 14.61 17.7502 14.2742 17.7502 13.86V12C17.7502 11.5858 17.4144 11.25 17.0002 11.25H14.0002H11.6464Z" fill="white"/>
</svg>
