<svg width="24" height="24" viewBox="0 0 24 24" fill="none" xmlns="http://www.w3.org/2000/svg">
<path d="M11.5018 3.57163C12.2948 2.77861 13.4886 2.54598 14.5213 2.98465L18.0573 4.48665C18.7119 4.76524 19.2354 5.2863 19.5137 5.94349L21.0154 9.47873C21.4525 10.5096 21.2219 11.7048 20.4284 12.4983L17.4859 15.4408C16.6935 16.2346 15.4983 16.4668 14.4659 16.0283L12.8596 15.3461L11.7164 16.4893C11.5758 16.6299 11.385 16.709 11.1861 16.709H10.1681V17.373C10.1681 17.572 10.089 17.7628 9.94823 17.9035C9.80747 18.0441 9.61657 18.1231 9.41756 18.123L8.75409 18.1225V19.14C8.75409 19.3389 8.67507 19.5296 8.53442 19.6703L7.20842 20.9963C7.06777 21.1369 6.877 21.216 6.67809 21.216H3.49609C3.08188 21.216 2.74609 20.8802 2.74609 20.466V17.284C2.74609 17.085 2.82511 16.8943 2.96576 16.7536L8.63205 11.0873L7.97279 9.53418C7.97276 9.53412 7.97281 9.53424 7.97279 9.53418C7.53439 8.50189 7.76647 7.30692 8.55876 6.51463L11.5018 3.57163ZM8.66809 16.6224V15.959C8.66809 15.5447 9.00388 15.209 9.41809 15.209H10.8754L12.1568 13.9276C12.373 13.7114 12.6988 13.6481 12.9803 13.7676L15.0523 14.6476C15.5219 14.8471 16.0647 14.7413 16.4243 14.3811L19.3678 11.4376C19.7283 11.0771 19.8335 10.5338 19.6346 10.0647L18.1328 6.52918C18.0071 6.23247 17.7699 5.99462 17.4707 5.86718C17.4706 5.86714 17.4708 5.86721 17.4707 5.86718L13.9349 4.36526C13.4656 4.16594 12.9234 4.2713 12.5624 4.63229L9.61942 7.57529C9.25976 7.93495 9.1539 8.47806 9.3534 8.94774L10.2105 10.9669C10.3299 11.2483 10.2666 11.5741 10.0504 11.7903L4.24609 17.5946V19.716H6.36743L7.25409 18.8293V17.372C7.25409 17.173 7.33318 16.9821 7.47395 16.8414C7.61472 16.7008 7.80562 16.6218 8.00462 16.622L8.66809 16.6224Z" fill="white"/>
</svg>
