<svg width="24" height="24" viewBox="0 0 24 24" fill="none" xmlns="http://www.w3.org/2000/svg">
<path d="M12 3.75C13.7948 3.75 15.25 5.20521 15.25 7V9.25H8.75V7C8.75 5.20521 10.2052 3.75 12 3.75ZM7.25 7V9.25H7C5.48079 9.25 4.25 10.4808 4.25 12V19C4.25 20.5192 5.48079 21.75 7 21.75H17C18.5192 21.75 19.75 20.5192 19.75 19V12C19.75 10.4808 18.5192 9.25 17 9.25H16.75V7C16.75 4.37679 14.6232 2.25 12 2.25C9.37679 2.25 7.25 4.37679 7.25 7ZM7 10.75H8H16H17C17.6908 10.75 18.25 11.3092 18.25 12V19C18.25 19.6908 17.6908 20.25 17 20.25H7C6.30921 20.25 5.75 19.6908 5.75 19V12C5.75 11.3092 6.30921 10.75 7 10.75ZM9 14.791C8.82815 14.791 8.6266 14.8515 8.46611 15.012C8.3056 15.1725 8.245 15.3741 8.245 15.546C8.245 15.718 8.30559 15.9195 8.46604 16.08C8.62649 16.2404 8.82805 16.301 9 16.301C9.17194 16.301 9.3735 16.2404 9.53395 16.08C9.6944 15.9195 9.755 15.718 9.755 15.546C9.755 15.3741 9.69439 15.1725 9.53388 15.012C9.37339 14.8515 9.17184 14.791 9 14.791ZM11.4711 15.012C11.6316 14.8515 11.8332 14.791 12.005 14.791C12.1768 14.791 12.3784 14.8515 12.5389 15.012C12.6994 15.1725 12.76 15.3741 12.76 15.546C12.76 15.718 12.6994 15.9195 12.539 16.08C12.3785 16.2404 12.1769 16.301 12.005 16.301C11.7863 16.301 11.6158 16.2085 11.5079 16.1141C11.3857 16.0072 11.25 15.8136 11.25 15.546C11.25 15.3741 11.3106 15.1725 11.4711 15.012ZM15 14.791C14.8282 14.791 14.6266 14.8515 14.4661 15.012C14.3056 15.1725 14.245 15.3741 14.245 15.546C14.245 15.718 14.3056 15.9195 14.466 16.08C14.6265 16.2404 14.828 16.301 15 16.301C15.1719 16.301 15.3735 16.2404 15.534 16.08C15.6944 15.9195 15.755 15.718 15.755 15.546C15.755 15.3741 15.6944 15.1725 15.5339 15.012C15.3734 14.8515 15.1718 14.791 15 14.791Z" fill="white"/>
</svg>
