<svg width="24" height="24" viewBox="0 0 24 24" fill="none" xmlns="http://www.w3.org/2000/svg">
<path d="M2.25 5.25C2.25 3.59279 3.59279 2.25 5.25 2.25H7.5C7.91421 2.25 8.25 2.58579 8.25 3C8.25 3.41421 7.91421 3.75 7.5 3.75H5.25C4.42121 3.75 3.75 4.42121 3.75 5.25V7.5C3.75 7.91421 3.41421 8.25 3 8.25C2.58579 8.25 2.25 7.91421 2.25 7.5V5.25ZM11.066 9.684V10.25H12.934V9.684C12.934 9.16821 12.5158 8.75 12 8.75C11.4842 8.75 11.066 9.16821 11.066 9.684ZM9.56598 10.3043V9.684C9.56598 8.33979 10.6558 7.25 12 7.25C13.3442 7.25 14.434 8.33979 14.434 9.684V10.3043C15.1904 10.4974 15.75 11.1836 15.75 12V15C15.75 15.9662 14.9662 16.75 14 16.75H10C9.03379 16.75 8.25 15.9662 8.25 15V12C8.25 11.1836 8.80958 10.4974 9.56598 10.3043ZM10.316 11.75H10C9.86221 11.75 9.75 11.8622 9.75 12V15C9.75 15.1378 9.86221 15.25 10 15.25H14C14.1378 15.25 14.25 15.1378 14.25 15V12C14.25 11.8622 14.1378 11.75 14 11.75H13.684H10.316ZM3.75 16.5C3.75 16.0858 3.41421 15.75 3 15.75C2.58579 15.75 2.25 16.0858 2.25 16.5V18.75C2.25 20.4072 3.59279 21.75 5.25 21.75H7.5C7.91421 21.75 8.25 21.4142 8.25 21C8.25 20.5858 7.91421 20.25 7.5 20.25H5.25C4.42121 20.25 3.75 19.5788 3.75 18.75V16.5ZM21 15.75C21.4142 15.75 21.75 16.0858 21.75 16.5V18.75C21.75 20.4072 20.4072 21.75 18.75 21.75H16.5C16.0858 21.75 15.75 21.4142 15.75 21C15.75 20.5858 16.0858 20.25 16.5 20.25H18.75C19.5788 20.25 20.25 19.5788 20.25 18.75V16.5C20.25 16.0858 20.5858 15.75 21 15.75ZM16.5 2.25C16.0858 2.25 15.75 2.58579 15.75 3C15.75 3.41421 16.0858 3.75 16.5 3.75H18.75C19.5788 3.75 20.25 4.42121 20.25 5.25V7.5C20.25 7.91421 20.5858 8.25 21 8.25C21.4142 8.25 21.75 7.91421 21.75 7.5V5.25C21.75 3.59279 20.4072 2.25 18.75 2.25H16.5Z" fill="white"/>
</svg>
