<svg width="24" height="24" viewBox="0 0 24 24" fill="none" xmlns="http://www.w3.org/2000/svg">
<path d="M17.416 3.91699C15.4372 3.91699 13.833 5.52121 13.833 7.49999V9.25H14.292C15.8112 9.25 17.042 10.4808 17.042 12V19C17.042 20.5192 15.8112 21.75 14.292 21.75H4.29199C2.77278 21.75 1.54199 20.5192 1.54199 19V12C1.54199 10.4808 2.77278 9.25 4.29199 9.25H12.333V7.49999C12.333 4.69278 14.6088 2.41699 17.416 2.41699C20.2232 2.41699 22.499 4.69278 22.499 7.49999V9.66699C22.499 10.0812 22.1632 10.417 21.749 10.417C21.3348 10.417 20.999 10.0812 20.999 9.66699V7.49999C20.999 5.52121 19.3948 3.91699 17.416 3.91699ZM4.29199 10.75C3.60121 10.75 3.04199 11.3092 3.04199 12V19C3.04199 19.6908 3.60121 20.25 4.29199 20.25H14.292C14.9828 20.25 15.542 19.6908 15.542 19V12C15.542 11.3092 14.9828 10.75 14.292 10.75H4.29199ZM10.042 14C10.042 13.5858 9.70621 13.25 9.29199 13.25C8.87778 13.25 8.54199 13.5858 8.54199 14V17C8.54199 17.4142 8.87778 17.75 9.29199 17.75C9.70621 17.75 10.042 17.4142 10.042 17V14Z" fill="white"/>
</svg>
