<svg width="24" height="24" viewBox="0 0 24 24" fill="none" xmlns="http://www.w3.org/2000/svg">
<path d="M12 13.1795C11.5032 13.1795 11.2051 13.4775 11.2051 13.9743V16.9551C11.2051 17.3525 11.5032 17.75 12 17.75C12.4968 17.75 12.7949 17.4519 12.7949 16.9551V13.9743C12.6955 13.4775 12.3974 13.1795 12 13.1795Z" fill="white"/>
<path d="M16.9679 9.20513H16.7692V7.01923C16.7692 4.4359 14.6827 2.25 12 2.25C9.31731 2.25 7.23077 4.33654 7.23077 7.01923V9.20513H7.03205C5.44231 9.20513 4.25 10.3974 4.25 11.9872V18.9423C4.25 20.4327 5.44231 21.7244 7.03205 21.7244H16.9679C18.4583 21.7244 19.75 20.5321 19.75 18.9423V11.9872C19.6506 10.3974 18.4583 9.20513 16.9679 9.20513ZM8.72115 7.01923C8.72115 5.23077 10.2115 3.74038 12 3.74038C13.7885 3.74038 15.1795 5.23077 15.1795 7.01923V9.20513H8.72115V7.01923ZM18.1603 18.9423C18.1603 19.6378 17.5641 20.1346 16.9679 20.1346H7.03205C6.33654 20.1346 5.83974 19.5385 5.83974 18.9423V11.9872C5.83974 11.2917 6.4359 10.7949 7.03205 10.7949H16.9679C17.6635 10.7949 18.1603 11.391 18.1603 11.9872V18.9423Z" fill="white"/>
</svg>
