<svg width="24" height="24" viewBox="0 0 24 24" fill="none" xmlns="http://www.w3.org/2000/svg">
<path d="M8.75 3C8.75 2.58579 8.41421 2.25 8 2.25C7.58579 2.25 7.25 2.58579 7.25 3V4.25H7C5.48079 4.25 4.25 5.48079 4.25 7V7.25H3C2.58579 7.25 2.25 7.58579 2.25 8C2.25 8.41421 2.58579 8.75 3 8.75H4.25V11.25H3C2.58579 11.25 2.25 11.5858 2.25 12C2.25 12.4142 2.58579 12.75 3 12.75H4.25V15.25H3C2.58579 15.25 2.25 15.5858 2.25 16C2.25 16.4142 2.58579 16.75 3 16.75H4.25V17C4.25 18.5192 5.48079 19.75 7 19.75H7.25V21C7.25 21.4142 7.58579 21.75 8 21.75C8.41421 21.75 8.75 21.4142 8.75 21V19.75H11.25V21C11.25 21.4142 11.5858 21.75 12 21.75C12.4142 21.75 12.75 21.4142 12.75 21V19.75H15.25V21C15.25 21.4142 15.5858 21.75 16 21.75C16.4142 21.75 16.75 21.4142 16.75 21V19.75H17C18.5192 19.75 19.75 18.5192 19.75 17V16.75H21C21.4142 16.75 21.75 16.4142 21.75 16C21.75 15.5858 21.4142 15.25 21 15.25H19.75V12.75H21C21.4142 12.75 21.75 12.4142 21.75 12C21.75 11.5858 21.4142 11.25 21 11.25H19.75V8.75H21C21.4142 8.75 21.75 8.41421 21.75 8C21.75 7.58579 21.4142 7.25 21 7.25H19.75V7C19.75 5.48079 18.5192 4.25 17 4.25H16.75V3C16.75 2.58579 16.4142 2.25 16 2.25C15.5858 2.25 15.25 2.58579 15.25 3V4.25H12.75V3C12.75 2.58579 12.4142 2.25 12 2.25C11.5858 2.25 11.25 2.58579 11.25 3V4.25H8.75V3ZM12 5.75H16H17C17.6908 5.75 18.25 6.30921 18.25 7V8V12V16V17C18.25 17.6908 17.6908 18.25 17 18.25H16H12H8H7C6.30921 18.25 5.75 17.6908 5.75 17V16V12V8V7C5.75 6.30921 6.30921 5.75 7 5.75H8H12ZM9.66803 10.027C9.66803 8.76979 10.6878 7.75 11.945 7.75C13.2022 7.75 14.222 8.76979 14.222 10.027V10.6984C14.9455 10.9136 15.472 11.5837 15.472 12.376V14.5C15.472 15.4662 14.6882 16.25 13.722 16.25H10.278C9.3118 16.25 8.52802 15.4662 8.52802 14.5V12.376C8.52802 11.6243 9.00241 10.983 9.66803 10.7353V10.027ZM12.722 10.027C12.722 9.59821 12.3738 9.25 11.945 9.25C11.5162 9.25 11.168 9.59821 11.168 10.027V10.626H12.722V10.027ZM10.278 12.126C10.1402 12.126 10.028 12.2382 10.028 12.376V14.5C10.028 14.6378 10.1402 14.75 10.278 14.75H13.722C13.8598 14.75 13.972 14.6378 13.972 14.5V12.376C13.972 12.2377 13.8603 12.126 13.722 12.126H10.278Z" fill="white"/>
</svg>
