<svg width="24" height="24" viewBox="0 0 24 24" fill="none" xmlns="http://www.w3.org/2000/svg">
<g clip-path="url(#clip0_9_149)">
<mask id="mask0_9_149" style="mask-type:luminance" maskUnits="userSpaceOnUse" x="0" y="0" width="24" height="24">
<path d="M24 0H0V24H24V0Z" fill="white"/>
</mask>
<g mask="url(#mask0_9_149)">
<path d="M21.0002 11.3H11.8002C11.6002 10.3 11.2002 9.39999 10.5002 8.59999C8.6002 6.69999 5.6002 6.69999 3.7002 8.59999C2.8002 9.49999 2.2002 10.7 2.2002 12C2.2002 13.3 2.7002 14.5 3.6002 15.4C4.5002 16.3 5.7002 16.8 7.0002 16.8C8.3002 16.8 9.5002 16.3 10.4002 15.4C11.1002 14.7 11.6002 13.7 11.7002 12.7H16.1002V15.4C16.1002 15.8 16.4002 16.2 16.9002 16.2C17.4002 16.2 17.7002 15.9 17.7002 15.4V12.7H20.2002V15.4C20.2002 15.8 20.5002 16.2 21.0002 16.2C21.5002 16.2 21.8002 15.9 21.8002 15.4V12C21.8002 11.6 21.4002 11.3 21.0002 11.3ZM9.4002 14.3C8.10019 15.6 6.0002 15.6 4.7002 14.3C4.1002 13.7 3.7002 12.8 3.7002 12C3.7002 11.1 4.0002 10.3 4.7002 9.69999C5.3002 9.09999 6.2002 8.69999 7.0002 8.69999C7.8002 8.69999 8.7002 8.99999 9.3002 9.69999C9.9002 10.3 10.3002 11.2 10.3002 12C10.4002 12.9 10.0002 13.7 9.4002 14.3Z" fill="white"/>
</g>
</g>
<defs>
<clipPath id="clip0_9_149">
<rect width="24" height="24" fill="white"/>
</clipPath>
</defs>
</svg>
