<svg width="24" height="24" viewBox="0 0 24 24" fill="none" xmlns="http://www.w3.org/2000/svg">
<path d="M8.75 7V8.25H15.25V7C15.25 5.20521 13.7948 3.75 12 3.75C10.2052 3.75 8.75 5.20521 8.75 7ZM7.25 8.25V7C7.25 4.37679 9.37679 2.25 12 2.25C14.6232 2.25 16.75 4.37679 16.75 7V8.25H17C18.5192 8.25 19.75 9.48079 19.75 11V19C19.75 20.5192 18.5192 21.75 17 21.75H7C5.48079 21.75 4.25 20.5192 4.25 19V11C4.25 9.48079 5.48079 8.25 7 8.25H7.25ZM8 9.75H7C6.30921 9.75 5.75 10.3092 5.75 11V19C5.75 19.6908 6.30921 20.25 7 20.25H17C17.6908 20.25 18.25 19.6908 18.25 19V11C18.25 10.3092 17.6908 9.75 17 9.75H16H8ZM8.25 13C8.25 12.5858 8.58579 12.25 9 12.25H15C15.4142 12.25 15.75 12.5858 15.75 13C15.75 13.4142 15.4142 13.75 15 13.75H9C8.58579 13.75 8.25 13.4142 8.25 13ZM9 16.25C8.58579 16.25 8.25 16.5858 8.25 17C8.25 17.4142 8.58579 17.75 9 17.75H15C15.4142 17.75 15.75 17.4142 15.75 17C15.75 16.5858 15.4142 16.25 15 16.25H9Z" fill="white"/>
</svg>
