<svg width="24" height="24" viewBox="0 0 24 24" fill="none" xmlns="http://www.w3.org/2000/svg">
<path d="M8.75 6C8.75 4.20521 10.2052 2.75 12 2.75C13.7948 2.75 15.25 4.20521 15.25 6V8.25H7C5.48079 8.25 4.25 9.48079 4.25 11V19C4.25 20.5192 5.48079 21.75 7 21.75H17C18.5192 21.75 19.75 20.5192 19.75 19V11C19.75 9.48079 18.5192 8.25 17 8.25H16.75V6C16.75 3.37679 14.6232 1.25 12 1.25C9.37679 1.25 7.25 3.37679 7.25 6C7.25 6.41421 7.58579 6.75 8 6.75C8.41421 6.75 8.75 6.41421 8.75 6ZM16 9.75H17C17.6908 9.75 18.25 10.3092 18.25 11V19C18.25 19.6908 17.6908 20.25 17 20.25H7C6.30921 20.25 5.75 19.6908 5.75 19V11C5.75 10.3092 6.30921 9.75 7 9.75H16ZM8.25 13C8.25 12.5858 8.58579 12.25 9 12.25H15C15.4142 12.25 15.75 12.5858 15.75 13C15.75 13.4142 15.4142 13.75 15 13.75H9C8.58579 13.75 8.25 13.4142 8.25 13ZM9 16.25C8.58579 16.25 8.25 16.5858 8.25 17C8.25 17.4142 8.58579 17.75 9 17.75H15C15.4142 17.75 15.75 17.4142 15.75 17C15.75 16.5858 15.4142 16.25 15 16.25H9Z" fill="white"/>
</svg>
