<svg width="24" height="24" viewBox="0 0 24 24" fill="none" xmlns="http://www.w3.org/2000/svg">
<path d="M10.5272 4.4119L5.52704 6.45795C5.05761 6.6496 4.75 7.10709 4.75 7.61482V11.1818C4.75 15.3091 7.82992 19.2099 12 20.2295C16.1701 19.2099 19.25 15.3091 19.25 11.1818V7.61482C19.25 7.10776 18.9435 6.65079 18.473 6.45795L13.4728 4.4119C12.5289 4.02546 11.4711 4.02546 10.5272 4.4119ZM9.95896 3.02369C11.267 2.4882 12.733 2.4882 14.041 3.02369L19.0413 5.06978C20.0746 5.493 20.75 6.49796 20.75 7.61482V11.1818C20.75 16.0824 17.0852 20.6256 12.1645 21.7316C12.0562 21.7559 11.9438 21.7559 11.8355 21.7316C6.91484 20.6256 3.25 16.0824 3.25 11.1818V7.61482C3.25 6.49863 3.92508 5.49186 4.95953 5.06945L9.95896 3.02369ZM13.5303 8.53033C13.8232 8.23744 13.8232 7.76256 13.5303 7.46967C13.2374 7.17678 12.7626 7.17678 12.4697 7.46967L9.46967 10.4697C9.2992 10.6401 9.22107 10.8822 9.25969 11.1201C9.2983 11.3581 9.44896 11.563 9.66459 11.6708L12.7339 13.2055L10.4697 15.4697C10.1768 15.7626 10.1768 16.2374 10.4697 16.5303C10.7626 16.8232 11.2374 16.8232 11.5303 16.5303L14.5303 13.5303C14.7008 13.3599 14.7789 13.1178 14.7403 12.8799C14.7017 12.6419 14.551 12.437 14.3354 12.3292L11.2661 10.7945L13.5303 8.53033Z" fill="white"/>
</svg>
