<svg width="24" height="24" viewBox="0 0 24 24" fill="none" xmlns="http://www.w3.org/2000/svg">
<g clip-path="url(#clip0_7_2690)">
<mask id="mask0_7_2690" style="mask-type:luminance" maskUnits="userSpaceOnUse" x="0" y="0" width="24" height="24">
<path d="M24 0H0V24H24V0Z" fill="white"/>
</mask>
<g mask="url(#mask0_7_2690)">
<path d="M18.9998 4.7L14.0998 2.7C12.6998 2.1 11.1998 2.1 9.6998 2.7L4.9998 4.7C3.9998 5.1 3.2998 6.1 3.2998 7.2V11.2C3.2998 15.9 6.6998 20.3 11.2998 21.6C11.4998 21.7 11.7998 21.7 11.9998 21.7C12.1998 21.7 12.4998 21.7 12.6998 21.6C17.3998 20.3 20.6998 15.9 20.6998 11.2V7.2C20.7998 6.1 20.0998 5.1 18.9998 4.7ZM19.1998 11.2C19.1998 15.3 16.2998 19 12.2998 20.2C12.0998 20.3 11.8998 20.3 11.6998 20.2C7.6998 19.1 4.7998 15.3 4.7998 11.2V7.2C4.7998 6.7 5.0998 6.2 5.5998 6L10.4998 4C10.9998 3.8 11.5998 3.7 12.0998 3.7C12.5998 3.7 13.1998 3.8 13.6998 4L18.5998 6C19.0998 6.2 19.3998 6.6 19.3998 7.2V11.2H19.1998Z" fill="white"/>
<path d="M14.0998 12.4C14.6998 11.7 14.9998 10.7 14.6998 9.8C14.4998 8.9 13.6998 8.1 12.6998 7.8C11.7998 7.6 10.8998 7.8 10.1998 8.3C9.4998 8.8 9.0998 9.6 9.0998 10.5C9.0998 11.2 9.3998 11.8 9.7998 12.4C9.8998 12.5 9.8998 12.6 9.8998 12.6L9.5998 14C9.39981 14.5 9.5998 15.1 9.8998 15.5C10.1998 15.9 10.6998 16.2 11.2998 16.2H12.7998C13.3998 16.2 13.8998 15.9 14.1998 15.5C14.4998 15.1 14.5998 14.5 14.4998 14L13.9998 12.7C13.9998 12.6 13.9998 12.5 14.0998 12.4ZM12.9998 11.4C12.5998 11.9 12.3998 12.5 12.5998 13.1L12.9998 14.5C12.9998 14.6 12.9998 14.7 12.9998 14.7C12.9998 14.7 12.8998 14.8 12.7998 14.8H11.2998C11.1998 14.8 11.0998 14.7 11.0998 14.7C11.0998 14.7 10.9998 14.6 11.0998 14.5L11.4998 13.1C11.6998 12.5 11.4998 11.9 11.0998 11.4C10.8998 11.2 10.7998 10.9 10.7998 10.5C10.7998 10.1 10.9998 9.7 11.2998 9.5C11.4998 9.3 11.7998 9.2 12.0998 9.2C12.1998 9.2 12.2998 9.2 12.4998 9.2C12.8998 9.3 13.2998 9.7 13.3998 10.1C13.3998 10.6 13.2998 11.1 12.9998 11.4Z" fill="white"/>
</g>
</g>
<defs>
<clipPath id="clip0_7_2690">
<rect width="24" height="24" fill="white"/>
</clipPath>
</defs>
</svg>
