<svg width="24" height="24" viewBox="0 0 24 24" fill="none" xmlns="http://www.w3.org/2000/svg">
<path d="M10.5272 4.4119L5.52704 6.45795C5.05761 6.6496 4.75 7.10709 4.75 7.61482V11.1818C4.75 15.3091 7.82992 19.2099 12 20.2295C16.1701 19.2099 19.25 15.3091 19.25 11.1818V7.61482C19.25 7.10776 18.9435 6.65079 18.473 6.45795L13.4728 4.4119C12.5289 4.02546 11.4711 4.02546 10.5272 4.4119ZM9.95896 3.02369C11.267 2.4882 12.733 2.4882 14.041 3.02369L19.0413 5.06978C20.0746 5.493 20.75 6.49796 20.75 7.61482V11.1818C20.75 16.0824 17.0852 20.6256 12.1645 21.7316C12.0562 21.7559 11.9438 21.7559 11.8355 21.7316C6.91484 20.6256 3.25 16.0824 3.25 11.1818V7.61482C3.25 6.49863 3.92508 5.49186 4.95953 5.06945L9.95896 3.02369ZM15.7803 10.6553C16.0732 10.3624 16.0732 9.88756 15.7803 9.59467C15.4874 9.30178 15.0126 9.30178 14.7197 9.59467L11.5 12.8143L9.78033 11.0947C9.48744 10.8018 9.01256 10.8018 8.71967 11.0947C8.42678 11.3876 8.42678 11.8624 8.71967 12.1553L10.9697 14.4053C11.2626 14.6982 11.7374 14.6982 12.0303 14.4053L15.7803 10.6553Z" fill="white"/>
</svg>
