<svg width="24" height="24" viewBox="0 0 24 24" fill="none" xmlns="http://www.w3.org/2000/svg">
<path d="M2.72992 2.46967C3.02281 2.17678 3.49769 2.17678 3.79058 2.46967L20.7905 19.4697C21.0834 19.7626 21.0834 20.2374 20.7905 20.5303C20.4976 20.8232 20.0228 20.8232 19.7299 20.5303L17.6995 18.5C16.387 19.9664 14.6681 21.0967 12.7023 21.6525C12.2457 21.7823 11.7542 21.7823 11.2976 21.6524C6.84286 20.3923 3.58325 16.1825 3.58325 11.6488V7.03885C3.58325 6.32072 3.87162 5.64902 4.35832 5.15873L2.72992 3.53033C2.43703 3.23744 2.43703 2.76256 2.72992 2.46967ZM5.41903 6.21944C5.2084 6.43351 5.08325 6.72603 5.08325 7.03885V11.6488C5.08325 15.487 7.8734 19.1251 11.7063 20.2092L11.7077 20.2095C11.8964 20.2633 12.1041 20.2633 12.2928 20.2095L12.2941 20.2091C13.9956 19.728 15.4949 18.7362 16.637 17.4375L5.41903 6.21944ZM18.7611 4.57065L14.1003 2.66374C12.7553 2.1133 11.248 2.11351 9.90237 2.66366L8.64088 3.17845C8.25737 3.33495 8.07334 3.77272 8.22985 4.15623C8.38635 4.53974 8.82412 4.72376 9.20763 4.56726L10.4701 4.05205C11.4522 3.65042 12.5513 3.65055 13.5322 4.052L18.1933 5.95906C18.6299 6.13758 18.9172 6.56492 18.9172 7.03886V11.6489C18.9172 12.5122 18.7698 13.3673 18.5026 14.1929C18.3751 14.587 18.5912 15.0099 18.9853 15.1374C19.3794 15.265 19.8022 15.0489 19.9298 14.6548C20.2406 13.6944 20.4172 12.6835 20.4172 11.6489V7.03886C20.4172 5.95679 19.7625 4.98013 18.7611 4.57065Z" fill="white"/>
</svg>
