<svg width="24" height="24" viewBox="0 0 24 24" fill="none" xmlns="http://www.w3.org/2000/svg">
<path d="M10.3912 4.06733L5.527 6.05739C5.05757 6.24903 4.75 6.70651 4.75 7.21424V11.2122C4.75 15.2351 7.67474 19.0723 11.6842 20.2066C11.8882 20.2645 12.111 20.2647 12.3151 20.2068C16.3245 19.0725 19.25 15.2351 19.25 11.2122V7.21424C19.25 6.70634 18.9428 6.24902 18.4742 6.05747L13.6096 4.06724C12.5789 3.64493 11.4231 3.64485 10.3912 4.06733ZM9.823 2.67909C11.219 2.10763 12.7831 2.10756 14.1784 2.67923L19.042 4.66909C20.0753 5.09159 20.75 6.09821 20.75 7.21424V11.2122C20.75 15.9254 17.3615 20.338 12.7249 21.6497C12.2531 21.7837 11.7473 21.7838 11.2755 21.6498C6.63907 20.338 3.25 15.9253 3.25 11.2122V7.21424C3.25 6.09816 3.92526 5.09136 4.95953 4.66887L9.823 2.67909ZM12 5.6001C8.79479 5.6001 6.208 8.18688 6.208 11.3921C6.208 14.5973 8.79479 17.1841 12 17.1841C15.2052 17.1841 17.792 14.5973 17.792 11.3921C17.792 8.18688 15.2052 5.6001 12 5.6001ZM10.2433 7.47269C9.69432 8.45968 9.36912 9.54207 9.26772 10.6421H7.77282C8.02157 9.22088 8.96548 8.04399 10.2433 7.47269ZM10.244 15.3118C8.96584 14.7407 8.02161 13.5636 7.77282 12.1421H9.26781C9.36936 13.2423 9.69478 14.3248 10.244 15.3118ZM12.0001 15.2737C11.3101 14.3396 10.902 13.2547 10.7757 12.1421H13.2244C13.0981 13.2548 12.69 14.3398 12.0001 15.2737ZM13.7562 15.3117C14.3054 14.3248 14.6307 13.2423 14.7322 12.1421H16.2272C15.9784 13.5635 15.0343 14.7405 13.7562 15.3117ZM14.7323 10.6421C14.6308 9.54206 14.3056 8.45964 13.7566 7.47267C15.0345 8.04396 15.9784 9.22086 16.2272 10.6421H14.7323ZM10.7756 10.6421C10.9017 9.52921 11.3099 8.44392 12 7.50964C12.6901 8.4439 13.0982 9.52921 13.2244 10.6421H10.7756Z" fill="white"/>
</svg>
