<svg width="24" height="24" viewBox="0 0 24 24" fill="none" xmlns="http://www.w3.org/2000/svg">
<path d="M17.7237 6.26214C17.4016 5.94048 17.3625 5.44312 17.6066 5.07888C17.6381 5.04695 17.6671 5.01174 17.6932 4.97335L17.7041 4.95677C17.7105 4.94998 17.7171 4.94325 17.7237 4.9366C18.0909 4.56996 18.6857 4.56996 19.0529 4.9366C19.4194 5.30262 19.4194 5.89612 19.0529 6.26214C18.6857 6.62878 18.0909 6.62878 17.7237 6.26214ZM6.176 6.16437C8.85821 3.48388 12.9278 3.03528 16.0776 4.816C15.7894 5.66701 15.9848 6.64558 16.6639 7.3236C17.6167 8.27496 19.1599 8.27496 20.1127 7.3236C21.0661 6.37162 21.0661 4.82712 20.1127 3.87514C19.2601 3.02378 17.9346 2.93429 16.9825 3.60667C13.2393 1.39142 8.33456 1.88655 5.11568 5.10337C3.21041 7.00755 2.25684 9.50482 2.25684 11.9999C2.25684 12.5608 2.29046 13.1385 2.39458 13.7201C2.46758 14.1278 2.85729 14.3991 3.26502 14.3261C3.67275 14.2531 3.9441 13.8634 3.8711 13.4557C3.78722 12.9872 3.75684 12.5029 3.75684 11.9999C3.75684 9.88691 4.56326 7.77619 6.176 6.16437ZM6.28991 17.7374C6.61214 18.0591 6.65112 18.5567 6.40683 18.9209C6.37546 18.9528 6.3465 18.988 6.32047 19.0263L6.3097 19.0426C6.30323 19.0494 6.29663 19.0562 6.28991 19.0629C5.92249 19.4298 5.32665 19.4288 4.96077 19.0629C4.5942 18.6969 4.5942 18.1034 4.96077 17.7374C5.32797 17.3707 5.92271 17.3707 6.28991 17.7374ZM7.93599 19.1836C8.22425 18.3326 8.02884 17.354 7.34977 16.6759C6.39697 15.7246 4.85371 15.7246 3.90091 16.6759C2.94761 17.6278 2.94747 19.172 3.90051 20.124C4.75252 20.9756 6.07906 21.065 7.03101 20.3929C10.7741 22.6082 15.6781 22.113 18.8979 18.8963C20.8031 16.9921 21.7568 14.4948 21.7568 11.9997C21.7568 11.4388 21.7232 10.8611 21.619 10.2796C21.546 9.87184 21.1563 9.60049 20.7486 9.67349C20.3409 9.74649 20.0695 10.1362 20.1425 10.5439C20.2264 11.0124 20.2568 11.4967 20.2568 11.9997C20.2568 14.1127 19.4504 16.2234 17.8377 17.8352C15.1545 20.5158 11.0856 20.9643 7.93599 19.1836ZM13.0654 8.18593C12.3755 7.93802 11.6221 7.93802 10.9322 8.18593L8.74579 8.97309C8.44822 9.08022 8.24984 9.36249 8.24984 9.67875V12.1528C8.24984 13.5797 9.22722 14.6715 10.0176 15.335C10.4311 15.682 10.8408 15.9518 11.1454 16.1344C11.2985 16.2262 11.4271 16.2972 11.5191 16.3461C11.5652 16.3706 11.6022 16.3895 11.6287 16.4029L11.6605 16.4187L11.6701 16.4234L11.6733 16.425L11.675 16.4258C11.8801 16.5241 12.1191 16.5243 12.3242 16.426L11.9998 15.7498C12.3242 16.426 12.3248 16.4256 12.3251 16.4255L12.3263 16.425L12.3295 16.4234L12.3391 16.4187L12.3708 16.4029C12.3974 16.3895 12.4344 16.3706 12.4805 16.3461C12.5725 16.2972 12.7011 16.2262 12.8542 16.1344C13.1588 15.9518 13.5685 15.682 13.982 15.335C14.7724 14.6715 15.7498 13.5797 15.7498 12.1528V9.67875C15.7498 9.36241 15.5513 9.08008 15.2536 8.97301L13.0654 8.18593ZM11.9998 15.7498L11.675 16.4258C11.6752 16.4259 11.6754 16.426 11.9998 15.7498ZM12.0829 14.8479C12.054 14.8653 12.0263 14.8816 11.9998 14.897C11.9733 14.8816 11.9456 14.8653 11.9167 14.8479C11.6588 14.6933 11.3185 14.4685 10.982 14.186C10.2724 13.5905 9.74984 12.8838 9.74984 12.1528V10.2059L11.4396 9.5975C11.8015 9.4675 12.1963 9.46758 12.5582 9.59757L14.2498 10.206V12.1528C14.2498 12.8838 13.7272 13.5905 13.0176 14.186C12.6811 14.4685 12.3408 14.6933 12.0829 14.8479Z" fill="white"/>
</svg>
