<svg width="24" height="24" viewBox="0 0 24 24" fill="none" xmlns="http://www.w3.org/2000/svg">
<g clip-path="url(#clip0_7_2682)">
<mask id="mask0_7_2682" style="mask-type:luminance" maskUnits="userSpaceOnUse" x="0" y="0" width="24" height="24">
<path d="M24 0H0V24H24V0Z" fill="white"/>
</mask>
<g mask="url(#mask0_7_2682)">
<path d="M14.8002 9.8L11.2002 13.4L9.20019 11.4C8.90019 11.1 8.4002 11.1 8.1002 11.4C7.8002 11.7 7.8002 12.2 8.1002 12.5L10.6002 15C10.7002 15.1 10.9002 15.2 11.1002 15.2C11.3002 15.2 11.5002 15.1 11.6002 15L15.7002 10.9C16.0002 10.6 16.0002 10.1 15.7002 9.8C15.6002 9.5 15.1002 9.5 14.8002 9.8Z" fill="white"/>
<path d="M19.2002 5.2C17.0002 5 14.9002 4.2 13.2002 2.7C12.6002 2.2 11.6002 2.2 10.9002 2.7C9.2002 4.1 7.1002 5 4.8002 5.2C3.9002 5.2 3.2002 6 3.2002 6.9V11.2C3.2002 15.9 6.6002 20.3 11.2002 21.6C11.4002 21.7 11.7002 21.7 11.9002 21.7C12.1002 21.7 12.4002 21.7 12.6002 21.6C17.2002 20.3 20.6002 15.9 20.6002 11.2V6.9C20.8002 6 20.1002 5.2 19.2002 5.2ZM19.2002 11.2C19.2002 15.3 16.3002 19 12.3002 20.2C12.1002 20.3 11.9002 20.3 11.7002 20.2C7.7002 19.1 4.8002 15.3 4.8002 11.2V6.9C4.8002 6.8 4.9002 6.7 5.0002 6.7C7.60019 6.5 9.9002 5.5 11.9002 3.8L12.0002 3.7C12.0002 3.7 12.1002 3.7 12.1002 3.8C14.1002 5.5 16.4002 6.5 19.0002 6.7C19.1002 6.7 19.2002 6.8 19.2002 6.9V11.2Z" fill="white"/>
</g>
</g>
<defs>
<clipPath id="clip0_7_2682">
<rect width="24" height="24" fill="white"/>
</clipPath>
</defs>
</svg>
