<svg width="24" height="24" viewBox="0 0 24 24" fill="none" xmlns="http://www.w3.org/2000/svg">
<path d="M5 2.25C3.48079 2.25 2.25 3.48079 2.25 5V14.4185C1.65885 14.6995 1.25 15.3022 1.25 16V17C1.25 17.9662 2.03379 18.75 3 18.75H14.25V20C14.25 20.9662 15.0338 21.75 16 21.75H21C21.9662 21.75 22.75 20.9662 22.75 20V18V11.5C22.75 10.5338 21.9662 9.75 21 9.75H20.75V5C20.75 3.48079 19.5192 2.25 18 2.25H5ZM21.25 17.25H15.75V15V11.5C15.75 11.3622 15.8622 11.25 16 11.25H20H21C21.1378 11.25 21.25 11.3622 21.25 11.5V17.25ZM15.75 18.75H21.25V20C21.25 20.1378 21.1378 20.25 21 20.25H16C15.8622 20.25 15.75 20.1378 15.75 20V18.75ZM14.25 17.25H3C2.86221 17.25 2.75 17.1378 2.75 17V16C2.75 15.8622 2.86221 15.75 3 15.75H14.25V17.25ZM14.25 11.5V14.25H3.75V5C3.75 4.30921 4.30921 3.75 5 3.75H18C18.6908 3.75 19.25 4.30921 19.25 5V9.75H16C15.0338 9.75 14.25 10.5338 14.25 11.5Z" fill="white"/>
</svg>
