<svg width="24" height="24" viewBox="0 0 24 24" fill="none" xmlns="http://www.w3.org/2000/svg">
<path d="M3.75 5.571C3.75 4.56521 4.56521 3.75 5.571 3.75H18.428C19.435 3.75 20.25 4.5654 20.25 5.571V14.428C20.25 15.435 19.4346 16.25 18.429 16.25H5.571C4.56521 16.25 3.75 15.4348 3.75 14.429V5.571ZM5.571 2.25C3.73679 2.25 2.25 3.73679 2.25 5.571V14.429C2.25 16.2632 3.73679 17.75 5.571 17.75H9.15044L8.83794 20.25H8.14301C7.72879 20.25 7.39301 20.5858 7.39301 21C7.39301 21.4142 7.72879 21.75 8.14301 21.75H9.48556C9.49586 21.7502 9.50613 21.7502 9.51635 21.75H14.4837C14.4939 21.7502 14.5042 21.7502 14.5145 21.75H15.857C16.2712 21.75 16.607 21.4142 16.607 21C16.607 20.5858 16.2712 20.25 15.857 20.25H15.1621L14.8496 17.75H18.429C20.2634 17.75 21.75 16.263 21.75 14.428V5.571C21.75 3.7366 20.263 2.25 18.428 2.25H5.571ZM13.6504 20.25H10.3496L10.6621 17.75H13.3379L13.6504 20.25ZM11.945 5.75C10.6878 5.75 9.66803 6.76979 9.66803 8.027V8.7353C9.00241 8.98299 8.52802 9.62428 8.52802 10.376V12.5C8.52802 13.4662 9.3118 14.25 10.278 14.25H13.722C14.6882 14.25 15.472 13.4662 15.472 12.5V10.376C15.472 9.5837 14.9455 8.91355 14.222 8.69838V8.027C14.222 6.76979 13.2022 5.75 11.945 5.75ZM12.722 8.62598H11.168V8.027C11.168 7.59821 11.5162 7.25 11.945 7.25C12.3738 7.25 12.722 7.59821 12.722 8.027V8.62598ZM10.278 10.126H13.722C13.8603 10.126 13.972 10.2377 13.972 10.376V12.5C13.972 12.6378 13.8598 12.75 13.722 12.75H10.278C10.1402 12.75 10.028 12.6378 10.028 12.5V10.376C10.028 10.2382 10.1402 10.126 10.278 10.126Z" fill="white"/>
</svg>
