<svg width="24" height="24" viewBox="0 0 24 24" fill="none" xmlns="http://www.w3.org/2000/svg">
<path d="M2.75 5.184V12.705C2.75 13.4968 3.39221 14.139 4.184 14.139H14.25V12C14.25 10.7408 15.0955 9.67977 16.25 9.35344V5.184C16.25 4.39199 15.6076 3.75 14.817 3.75H4.184C3.39221 3.75 2.75 4.39221 2.75 5.184ZM17.75 5.184V9.25H20C21.5192 9.25 22.75 10.4808 22.75 12V19C22.75 20.5192 21.5192 21.75 20 21.75H17C15.4808 21.75 14.25 20.5192 14.25 19V15.639H12.0498L12.2518 17.25H12.64C13.0542 17.25 13.39 17.5858 13.39 18C13.39 18.4142 13.0542 18.75 12.64 18.75H11.6101C11.596 18.7504 11.582 18.7504 11.568 18.75H7.72196C7.70802 18.7504 7.69399 18.7504 7.6799 18.75H6.64001C6.2258 18.75 5.89001 18.4142 5.89001 18C5.89001 17.5858 6.2258 17.25 6.64001 17.25H7.0382L7.24023 15.639H4.184C2.56379 15.639 1.25 14.3252 1.25 12.705V5.184C1.25 3.56379 2.56379 2.25 4.184 2.25H14.817C16.4364 2.25 17.75 3.56401 17.75 5.184ZM15.75 12V19C15.75 19.6908 16.3092 20.25 17 20.25H20C20.6908 20.25 21.25 19.6908 21.25 19V12C21.25 11.3092 20.6908 10.75 20 10.75H17C16.3092 10.75 15.75 11.3092 15.75 12ZM10.74 17.25L10.538 15.639H8.75198L8.54995 17.25H10.74ZM17.75 18C17.3358 18 17 18.3358 17 18.75C17 19.1642 17.3358 19.5 17.75 19.5H19.25C19.6642 19.5 20 19.1642 20 18.75C20 18.3358 19.6642 18 19.25 18H17.75Z" fill="white"/>
</svg>
