<svg width="24" height="24" viewBox="0 0 24 24" fill="none" xmlns="http://www.w3.org/2000/svg">
<path d="M13.7567 2.53959C13.3439 2.50617 12.9821 2.81377 12.9486 3.22663C12.9152 3.63949 13.2228 4.00128 13.6357 4.0347C15.2232 4.16322 16.7673 4.81888 17.9769 6.02848C19.1854 7.23697 19.84 8.7799 19.9676 10.3663C20.0008 10.7792 20.3624 11.0869 20.7753 11.0537C21.1882 11.0205 21.496 10.6589 21.4628 10.246C21.3084 8.3264 20.513 6.44333 19.0375 4.96782C17.5611 3.49142 15.6772 2.69507 13.7567 2.53959ZM4.03289 13.6157C4.0005 13.2027 3.63947 12.8943 3.22653 12.9267C2.81359 12.959 2.50509 13.3201 2.53749 13.733C2.68858 15.659 3.48385 17.5497 4.96486 19.0307C6.44571 20.5115 8.33824 21.3088 10.2652 21.461C10.6781 21.4936 11.0393 21.1853 11.0719 20.7724C11.1045 20.3595 10.7962 19.9983 10.3832 19.9657C8.79014 19.8399 7.23867 19.1832 6.02552 17.97C4.81253 16.757 4.1578 15.2078 4.03289 13.6157ZM16.6605 14.1C16.9534 14.3929 16.9534 14.8678 16.6605 15.1607L15.1605 16.6607C14.8676 16.9536 14.3928 16.9536 14.0999 16.6607C13.807 16.3678 13.807 15.8929 14.0999 15.6L15.5999 14.1C15.8928 13.8071 16.3676 13.8071 16.6605 14.1ZM9.24152 5.81969C9.72963 5.33159 10.5208 5.33159 11.0089 5.81969L18.1809 12.9917C18.669 13.4798 18.669 14.2709 18.1809 14.759L14.7589 18.181C14.2708 18.6691 13.4796 18.6691 12.9915 18.181L5.81952 11.009C5.33141 10.5209 5.33141 9.7298 5.81952 9.24169L9.24152 5.81969ZM12.0695 4.75903C10.9956 3.68514 9.25476 3.68514 8.18086 4.75903L4.75886 8.18103C3.68497 9.25493 3.68497 10.9958 4.75886 12.0697L11.9309 19.2417C13.0048 20.3156 14.7456 20.3156 15.8195 19.2417L19.2415 15.8197C20.3154 14.7458 20.3154 13.0049 19.2415 11.931L12.0695 4.75903Z" fill="white"/>
</svg>
