<svg width="24" height="24" viewBox="0 0 24 24" fill="none" xmlns="http://www.w3.org/2000/svg">
<path d="M6.75 5C6.75 4.30921 7.30921 3.75 8 3.75H16C16.6908 3.75 17.25 4.30921 17.25 5V19C17.25 19.6908 16.6908 20.25 16 20.25H8C7.30921 20.25 6.75 19.6908 6.75 19V5ZM8 2.25C6.48079 2.25 5.25 3.48079 5.25 5V19C5.25 20.5192 6.48079 21.75 8 21.75H16C17.5192 21.75 18.75 20.5192 18.75 19V5C18.75 3.48079 17.5192 2.25 16 2.25H8ZM10.75 5.25C10.3358 5.25 10 5.58579 10 6C10 6.41421 10.3358 6.75 10.75 6.75H13.25C13.6642 6.75 14 6.41421 14 6C14 5.58579 13.6642 5.25 13.25 5.25H10.75Z" fill="white"/>
</svg>
