<svg width="24" height="24" viewBox="0 0 24 24" fill="none" xmlns="http://www.w3.org/2000/svg">
<g clip-path="url(#clip0_7_2311)">
<mask id="mask0_7_2311" style="mask-type:luminance" maskUnits="userSpaceOnUse" x="0" y="0" width="24" height="24">
<path d="M24 0H0V24H24V0Z" fill="white"/>
</mask>
<g mask="url(#mask0_7_2311)">
<path d="M19.5996 2.30005H4.39961C2.89961 2.30005 1.59961 3.50005 1.59961 5.10005V14.9C1.59961 16.4 2.79961 17.7 4.39961 17.7H19.6996C20.3996 17.7 21.0996 17.4 21.5996 16.9C22.0996 16.4 22.3996 15.7 22.3996 15V5.10005C22.3996 3.50005 21.0996 2.30005 19.5996 2.30005ZM20.8996 14.8C20.8996 15.1 20.7996 15.4 20.4996 15.7C20.2996 15.9 19.9996 16.1 19.5996 16.1H4.39961C3.69961 16.1 3.19961 15.5 3.19961 14.9V5.10005C3.19961 4.40005 3.79961 3.90005 4.39961 3.90005H19.6996C20.3996 3.90005 20.8996 4.50005 20.8996 5.10005V14.8Z" fill="white"/>
<path d="M19.2996 20.3C15.2996 18.9 8.79961 18.9 4.79961 20.3C4.39961 20.4 4.19961 20.9 4.29961 21.3C4.39961 21.7 4.89961 21.9 5.29961 21.8C8.99961 20.5 15.0996 20.5 18.7996 21.8C18.8996 21.8 18.9996 21.8 18.9996 21.8C19.2996 21.8 19.5996 21.6 19.6996 21.3C19.8996 20.9 19.6996 20.4 19.2996 20.3Z" fill="white"/>
</g>
</g>
<defs>
<clipPath id="clip0_7_2311">
<rect width="24" height="24" fill="white"/>
</clipPath>
</defs>
</svg>
