<svg width="24" height="24" viewBox="0 0 24 24" fill="none" xmlns="http://www.w3.org/2000/svg">
<path d="M3.75 6.5C3.75 5.80921 4.30921 5.25 5 5.25H19C19.6908 5.25 20.25 5.80921 20.25 6.5V14.5C20.25 15.1908 19.6908 15.75 19 15.75C18.5858 15.75 18.25 16.0858 18.25 16.5C18.25 16.9142 18.5858 17.25 19 17.25C20.5192 17.25 21.75 16.0192 21.75 14.5V6.5C21.75 4.98079 20.5192 3.75 19 3.75H5C3.48079 3.75 2.25 4.98079 2.25 6.5V14.5C2.25 16.0192 3.48079 17.25 5 17.25C5.41421 17.25 5.75 16.9142 5.75 16.5C5.75 16.0858 5.41421 15.75 5 15.75C4.30921 15.75 3.75 15.1908 3.75 14.5V6.5ZM12.5762 13.0199C12.4337 12.8489 12.2226 12.75 12 12.75C11.7774 12.75 11.5663 12.8489 11.4238 13.0199L6.42384 19.0199C6.23754 19.2434 6.19738 19.5546 6.32082 19.8181C6.44425 20.0817 6.709 20.25 7.00001 20.25H17C17.291 20.25 17.5558 20.0817 17.6792 19.8181C17.8026 19.5546 17.7625 19.2434 17.5762 19.0199L12.5762 13.0199ZM12 14.6715L15.3987 18.75H8.60129L12 14.6715Z" fill="white"/>
</svg>
