<svg width="24" height="24" viewBox="0 0 24 24" fill="none" xmlns="http://www.w3.org/2000/svg">
<g clip-path="url(#clip0_7_2346)">
<mask id="mask0_7_2346" style="mask-type:luminance" maskUnits="userSpaceOnUse" x="0" y="0" width="24" height="24">
<path d="M24 0H0V24H24V0Z" fill="white"/>
</mask>
<g mask="url(#mask0_7_2346)">
<path d="M2.99961 9.80005C3.39961 9.80005 3.79961 9.50005 3.79961 9.00005V6.00005C3.79961 5.30005 4.39961 4.80005 4.99961 4.80005H6.19961L5.49961 5.50005C5.19961 5.80005 5.19961 6.30005 5.49961 6.60005C5.59961 6.70005 5.79961 6.80005 5.99961 6.80005C6.19961 6.80005 6.39961 6.70005 6.49961 6.60005L8.49961 4.60005C8.59961 4.50005 8.59961 4.40005 8.69961 4.40005C8.79961 4.20005 8.79961 4.00005 8.69961 3.80005C8.69961 3.70005 8.59961 3.60005 8.49961 3.60005L6.49961 1.60005C6.19961 1.30005 5.69961 1.30005 5.39961 1.60005C5.09961 1.90005 5.09961 2.40005 5.39961 2.70005L6.09961 3.40005H4.99961C3.49961 3.30005 2.19961 4.50005 2.19961 6.00005V9.00005C2.19961 9.40005 2.59961 9.80005 2.99961 9.80005Z" fill="white"/>
<path d="M20.2996 1.30005H13.2996C12.7996 1.30005 12.3996 1.50005 11.9996 1.80005C11.6996 2.10005 11.4996 2.60005 11.4996 3.10005V7.60005C11.4996 8.60005 12.2996 9.40005 13.2996 9.40005H20.2996C20.7996 9.40005 21.1996 9.20005 21.5996 8.90005C21.8996 8.60005 22.0996 8.10005 22.0996 7.60005V3.10005C22.0996 2.10005 21.1996 1.30005 20.2996 1.30005ZM20.5996 7.50005C20.5996 7.60005 20.4996 7.70005 20.4996 7.70005C20.4996 7.70005 20.3996 7.80005 20.2996 7.80005H13.2996C13.0996 7.80005 12.9996 7.70005 12.9996 7.50005V3.10005C12.9996 3.00005 13.0996 2.90005 13.0996 2.90005C13.0996 2.90005 13.1996 2.80005 13.2996 2.80005H20.2996C20.4996 2.80005 20.5996 2.90005 20.5996 3.10005V7.50005Z" fill="white"/>
<path d="M19.7996 11C19.7996 10.6 19.4996 10.2 18.9996 10.2H14.9996C14.5996 10.2 14.1996 10.5 14.1996 11C14.1996 11.5 14.4996 11.8 14.9996 11.8H18.9996C19.3996 11.8 19.7996 11.4 19.7996 11Z" fill="white"/>
<path d="M10.8996 12.3H3.89961C2.89961 12.3 2.09961 13.1 2.09961 14.1V18.6C2.09961 19.6 2.89961 20.4 3.89961 20.4H10.8996C11.8996 20.4 12.6996 19.6 12.6996 18.6V14.1C12.7996 13.1 11.8996 12.3 10.8996 12.3ZM11.1996 18.5C11.1996 18.7001 11.0996 18.8 10.8996 18.8H3.89961C3.69961 18.8 3.59961 18.7001 3.59961 18.5V14C3.59961 13.8 3.69961 13.7 3.89961 13.7H10.8996C11.0996 13.7 11.1996 13.8 11.1996 14V18.5Z" fill="white"/>
<path d="M9.69961 21.3H5.69961C5.29961 21.3 4.89961 21.6 4.89961 22.1C4.89961 22.6 5.19961 22.9 5.69961 22.9H9.69961C10.0996 22.9 10.4996 22.6 10.4996 22.1C10.4996 21.6 10.0996 21.3 9.69961 21.3Z" fill="white"/>
<path d="M20.9996 14.3C20.5996 14.3 20.1996 14.6 20.1996 15.1V18.1C20.1996 18.8 19.5996 19.3 18.9996 19.3H17.7996L18.4996 18.6C18.7996 18.3 18.7996 17.8 18.4996 17.5C18.1996 17.2 17.6996 17.2 17.3996 17.5L15.3996 19.5C15.2996 19.6 15.2996 19.7001 15.1996 19.7001C15.0996 19.9001 15.0996 20.1 15.1996 20.3C15.1996 20.4 15.2996 20.5 15.3996 20.5L17.3996 22.5C17.4996 22.6 17.6996 22.7001 17.8996 22.7001C18.0996 22.7001 18.2996 22.6 18.3996 22.5C18.6996 22.2001 18.6996 21.7 18.3996 21.4L17.6996 20.7001H18.9996C20.4996 20.7001 21.7996 19.5 21.7996 17.9V14.9C21.7996 14.6 21.3996 14.3 20.9996 14.3Z" fill="white"/>
</g>
</g>
<defs>
<clipPath id="clip0_7_2346">
<rect width="24" height="24" fill="white"/>
</clipPath>
</defs>
</svg>
