<svg width="24" height="24" viewBox="0 0 24 24" fill="none" xmlns="http://www.w3.org/2000/svg">
<path d="M5 3.75H19C19.6908 3.75 20.25 4.30921 20.25 5V12.75H3.75V5C3.75 4.30921 4.30921 3.75 5 3.75ZM20.25 14.25V15C20.25 15.6908 19.6908 16.25 19 16.25H5C4.30921 16.25 3.75 15.6908 3.75 15V14.25H20.25ZM2.25 13.5V15C2.25 16.5192 3.48079 17.75 5 17.75H9.15043L8.83793 20.25H7.2C6.78578 20.25 6.45 20.5858 6.45 21C6.45 21.4142 6.78578 21.75 7.2 21.75H9.48554C9.49584 21.7502 9.50611 21.7502 9.51634 21.75H14.4837C14.4939 21.7502 14.5042 21.7502 14.5145 21.75H16.8C17.2142 21.75 17.55 21.4142 17.55 21C17.55 20.5858 17.2142 20.25 16.8 20.25H15.1621L14.8496 17.75H19C20.5192 17.75 21.75 16.5192 21.75 15V13.5V5C21.75 3.48079 20.5192 2.25 19 2.25H5C3.48079 2.25 2.25 3.48079 2.25 5V13.5ZM13.3379 17.75L13.6504 20.25H10.3496L10.6621 17.75H13.3379Z" fill="white"/>
</svg>
