<svg width="24" height="24" viewBox="0 0 24 24" fill="none" xmlns="http://www.w3.org/2000/svg">
<path d="M13.25 5C13.25 3.48079 14.4808 2.25 16 2.25H19C20.5192 2.25 21.75 3.48079 21.75 5V8C21.75 9.51921 20.5192 10.75 19 10.75H16C14.4808 10.75 13.25 9.51921 13.25 8V5ZM16 3.75C15.3092 3.75 14.75 4.30921 14.75 5V8C14.75 8.69079 15.3092 9.25 16 9.25H19C19.6908 9.25 20.25 8.69079 20.25 8V5C20.25 4.30921 19.6908 3.75 19 3.75H16ZM2.25 15C2.25 14.0338 3.03379 13.25 4 13.25H9C9.96621 13.25 10.75 14.0338 10.75 15V17.5C10.75 18.4662 9.96621 19.25 9 19.25H4C3.03379 19.25 2.25 18.4662 2.25 17.5V15ZM4 14.75C3.86221 14.75 3.75 14.8622 3.75 15V17.5C3.75 17.6378 3.86221 17.75 4 17.75H9C9.13779 17.75 9.25 17.6378 9.25 17.5V15C9.25 14.8622 9.13779 14.75 9 14.75H4ZM4.5 20.25C4.08579 20.25 3.75 20.5858 3.75 21C3.75 21.4142 4.08579 21.75 4.5 21.75H8.5C8.91421 21.75 9.25 21.4142 9.25 21C9.25 20.5858 8.91421 20.25 8.5 20.25H4.5ZM20.5 14.25C20.9142 14.25 21.25 14.5858 21.25 15V17C21.25 18.5192 20.0192 19.75 18.5 19.75H16.8107L17.5303 20.4697C17.8232 20.7626 17.8232 21.2374 17.5303 21.5303C17.2374 21.8232 16.7626 21.8232 16.4697 21.5303L14.4697 19.5303C14.3978 19.4584 14.3435 19.3755 14.3069 19.2871C14.2749 19.2099 14.2554 19.1262 14.251 19.0386C14.2503 19.0258 14.25 19.0129 14.25 19C14.25 18.8983 14.2702 18.8013 14.3069 18.7129C14.3435 18.6245 14.3978 18.5416 14.4697 18.4697L16.4697 16.4697C16.7626 16.1768 17.2374 16.1768 17.5303 16.4697C17.8232 16.7626 17.8232 17.2374 17.5303 17.5303L16.8107 18.25H18.5C19.1908 18.25 19.75 17.6908 19.75 17V15C19.75 14.5858 20.0858 14.25 20.5 14.25ZM6.46967 2.46967C6.76256 2.17678 7.23744 2.17678 7.53033 2.46967L9.53033 4.46967C9.60224 4.54158 9.65649 4.62445 9.69309 4.71291C9.72976 4.80134 9.75 4.89831 9.75 5C9.75 5.10169 9.72976 5.19866 9.69309 5.28709C9.65649 5.37555 9.60224 5.45842 9.53033 5.53033L7.53033 7.53033C7.23744 7.82322 6.76256 7.82322 6.46967 7.53033C6.17678 7.23744 6.17678 6.76256 6.46967 6.46967L7.18934 5.75H5.5C4.80921 5.75 4.25 6.30921 4.25 7V9C4.25 9.41421 3.91421 9.75 3.5 9.75C3.08579 9.75 2.75 9.41421 2.75 9V7C2.75 5.48079 3.98079 4.25 5.5 4.25H7.18934L6.46967 3.53033C6.17678 3.23744 6.17678 2.76256 6.46967 2.46967Z" fill="white"/>
</svg>
