<svg width="24" height="24" viewBox="0 0 24 24" fill="none" xmlns="http://www.w3.org/2000/svg">
<path fill-rule="evenodd" clip-rule="evenodd" d="M2.75 4.189C2.75 3.94621 2.94621 3.75 3.189 3.75H20.811C21.0538 3.75 21.25 3.94621 21.25 4.189V15.811C21.25 16.0538 21.0538 16.25 20.811 16.25H3.189C2.94621 16.25 2.75 16.0538 2.75 15.811V4.189ZM3.189 2.25C2.11779 2.25 1.25 3.11779 1.25 4.189V15.811C1.25 16.8822 2.11779 17.75 3.189 17.75H20.811C21.8822 17.75 22.75 16.8822 22.75 15.811V4.189C22.75 3.11779 21.8822 2.25 20.811 2.25H3.189ZM7.67 7.37012C7.67 6.9559 7.33421 6.62012 6.92 6.62012C6.50578 6.62012 6.17 6.9559 6.17 7.37012V10.1499V12.9201C6.17 13.3343 6.50578 13.6701 6.92 13.6701C7.33421 13.6701 7.67 13.3343 7.67 12.9201V10.8999H9.86V12.9201C9.86 13.3343 10.1958 13.6701 10.61 13.6701C11.0242 13.6701 11.36 13.3343 11.36 12.9201V7.37012C11.36 6.9559 11.0242 6.62012 10.61 6.62012C10.1958 6.62012 9.86 6.9559 9.86 7.37012V9.3999H7.67V7.37012ZM12.637 7.37305C12.637 6.95883 12.9728 6.62305 13.387 6.62305H15.235C16.6705 6.62305 17.833 7.7871 17.833 9.22105V11.069C17.833 12.5053 16.6692 13.668 15.235 13.668H13.387C12.9728 13.668 12.637 13.3323 12.637 12.918V7.37305ZM14.137 8.12305V12.168H15.235C15.8408 12.168 16.333 11.6768 16.333 11.069V9.22105C16.333 8.615 15.8415 8.12305 15.235 8.12305H14.137ZM8 19.25C7.58579 19.25 7.25 19.5858 7.25 20C7.25 20.4142 7.58579 20.75 8 20.75H16C16.4142 20.75 16.75 20.4142 16.75 20C16.75 19.5858 16.4142 19.25 16 19.25H8Z" fill="white"/>
</svg>
