<svg width="24" height="24" viewBox="0 0 24 24" fill="none" xmlns="http://www.w3.org/2000/svg">
<path d="M9.58054 7.58058C12.0213 5.13981 15.9786 5.13981 18.4194 7.58058C20.8601 10.0214 20.8601 13.9786 18.4194 16.4194C15.9786 18.8602 12.0213 18.8602 9.58054 16.4194C7.13976 13.9786 7.13976 10.0214 9.58054 7.58058ZM19.48 6.51992C16.4535 3.49336 11.5464 3.49336 8.51988 6.51992C5.49331 9.54649 5.49331 14.4535 8.51988 17.4801C11.5464 20.5066 16.4535 20.5066 19.48 17.4801C22.5066 14.4535 22.5066 9.54649 19.48 6.51992ZM14.75 9.66992C14.75 9.25571 14.4142 8.91992 14 8.91992C13.5858 8.91992 13.25 9.25571 13.25 9.66992V11.25H11.67C11.2558 11.25 10.92 11.5858 10.92 12C10.92 12.4142 11.2558 12.75 11.67 12.75H13.25V14.3299C13.25 14.7441 13.5858 15.0799 14 15.0799C14.4142 15.0799 14.75 14.7441 14.75 14.3299V12.75H16.33C16.7442 12.75 17.08 12.4142 17.08 12C17.08 11.5858 16.7442 11.25 16.33 11.25H14.75V9.66992ZM5.61597 6.45142C5.86525 6.12062 5.79917 5.65036 5.46837 5.40108C5.13757 5.15179 4.66732 5.21787 4.41803 5.54867C3.0652 7.34385 2.25 9.57376 2.25 12C2.25 14.4263 3.0652 16.6562 4.41803 18.4514C4.66732 18.7822 5.13757 18.8483 5.46837 18.599C5.79917 18.3497 5.86525 17.8795 5.61597 17.5487C4.4488 15.9999 3.75 14.0838 3.75 12C3.75 9.91632 4.4488 8.00023 5.61597 6.45142Z" fill="white"/>
</svg>
