<svg width="24" height="24" viewBox="0 0 24 24" fill="none" xmlns="http://www.w3.org/2000/svg">
<path d="M6.34288 11.2502C5.92867 11.2502 5.59288 11.586 5.59288 12.0002C5.59288 12.4145 5.92867 12.7502 6.34288 12.7502L11.2497 12.7503L11.2498 17.6571C11.2498 18.0713 11.5855 18.4071 11.9997 18.4071C12.4139 18.4071 12.7497 18.0713 12.7497 17.6571L12.7498 12.7503L17.6566 12.7502C18.0708 12.7502 18.4066 12.4145 18.4066 12.0002C18.4066 11.586 18.0708 11.2503 17.6566 11.2503L12.7498 11.2502L12.7497 6.34341C12.7497 5.92919 12.4139 5.5934 11.9997 5.59341C11.5855 5.59342 11.2498 5.92915 11.2498 6.34337L11.2497 11.2502L6.34288 11.2502Z" fill="white"/>
</svg>
