<svg width="24" height="24" viewBox="0 0 24 24" fill="none" xmlns="http://www.w3.org/2000/svg">
<path d="M6.75 3C6.75 2.58579 6.41421 2.25 6 2.25C5.58579 2.25 5.25 2.58579 5.25 3V4C5.25 4.41421 5.58579 4.75 6 4.75C6.41421 4.75 6.75 4.41421 6.75 4V3ZM2.25 6C2.25 5.58579 2.58579 5.25 3 5.25H4C4.41421 5.25 4.75 5.58579 4.75 6C4.75 6.41421 4.41421 6.75 4 6.75H3C2.58579 6.75 2.25 6.41421 2.25 6ZM8.5 6.75C7.53321 6.75 6.75 7.53321 6.75 8.5V15.5C6.75 16.4668 7.53321 17.25 8.5 17.25H15.5C16.4668 17.25 17.25 16.4668 17.25 15.5V8.5C17.25 7.53321 16.4668 6.75 15.5 6.75H8.5ZM5.25 8.5C5.25 6.70479 6.70479 5.25 8.5 5.25H15.5C17.2952 5.25 18.75 6.70479 18.75 8.5V15.5C18.75 17.2952 17.2952 18.75 15.5 18.75H8.5C6.70479 18.75 5.25 17.2952 5.25 15.5V8.5ZM19.25 18C19.25 17.5858 19.5858 17.25 20 17.25H21C21.4142 17.25 21.75 17.5858 21.75 18C21.75 18.4142 21.4142 18.75 21 18.75H20C19.5858 18.75 19.25 18.4142 19.25 18ZM18.75 20C18.75 19.5858 18.4142 19.25 18 19.25C17.5858 19.25 17.25 19.5858 17.25 20V21C17.25 21.4142 17.5858 21.75 18 21.75C18.4142 21.75 18.75 21.4142 18.75 21V20ZM6 19.25C6.41421 19.25 6.75 19.5858 6.75 20V21C6.75 21.4142 6.41421 21.75 6 21.75C5.58579 21.75 5.25 21.4142 5.25 21V20C5.25 19.5858 5.58579 19.25 6 19.25ZM3 17.25C2.58579 17.25 2.25 17.5858 2.25 18C2.25 18.4142 2.58579 18.75 3 18.75H4C4.41421 18.75 4.75 18.4142 4.75 18C4.75 17.5858 4.41421 17.25 4 17.25H3ZM18 2.25C18.4142 2.25 18.75 2.58579 18.75 3V4C18.75 4.41421 18.4142 4.75 18 4.75C17.5858 4.75 17.25 4.41421 17.25 4V3C17.25 2.58579 17.5858 2.25 18 2.25ZM20 5.25C19.5858 5.25 19.25 5.58579 19.25 6C19.25 6.41421 19.5858 6.75 20 6.75H21C21.4142 6.75 21.75 6.41421 21.75 6C21.75 5.58579 21.4142 5.25 21 5.25H20ZM9.25 12C9.25 11.5858 9.58579 11.25 10 11.25H11.25V10C11.25 9.58579 11.5858 9.25 12 9.25C12.4142 9.25 12.75 9.58579 12.75 10V11.25H14C14.4142 11.25 14.75 11.5858 14.75 12C14.75 12.4142 14.4142 12.75 14 12.75H12.75V14C12.75 14.4142 12.4142 14.75 12 14.75C11.5858 14.75 11.25 14.4142 11.25 14V12.75H10C9.58579 12.75 9.25 12.4142 9.25 12Z" fill="white"/>
</svg>
