<svg width="24" height="24" viewBox="0 0 24 24" fill="none" xmlns="http://www.w3.org/2000/svg">
<path d="M11.0002 20V18.9268C7.72672 18.4581 5.18615 15.7228 5.01587 12.3604L5.00708 12C5.00708 10.1452 5.74329 8.36619 7.05396 7.05371C8.12739 5.97884 9.51442 5.2892 11.0002 5.07324V4C11.0002 3.44772 11.448 3 12.0002 3C12.5525 3.00009 13.0002 3.44777 13.0002 4V5.07227C14.2571 5.25359 15.4456 5.77481 16.4329 6.58691L16.677 6.79785L16.7502 6.87012C17.0899 7.24606 17.0961 7.82578 16.7493 8.20996C16.4022 8.59414 15.8248 8.64663 15.4163 8.34668L15.3372 8.28223L15.1624 8.13184C14.3327 7.44931 13.3039 7.05362 12.2307 7.00488L12.0002 7C10.6754 7.00181 9.40519 7.52935 8.46899 8.4668C7.53281 9.40428 7.00708 10.6751 7.00708 12L7.01392 12.2578C7.14785 14.9008 9.32912 17 11.9993 17C13.2291 17.0005 14.4159 16.5451 15.3293 15.7217L15.4084 15.6562C15.8171 15.3567 16.3947 15.4097 16.7415 15.7939C17.1113 16.2041 17.0784 16.8372 16.6682 17.207L16.4241 17.417C15.4387 18.226 14.2536 18.7453 13.0002 18.9268V20C13.0002 20.5522 12.5525 20.9999 12.0002 21C11.448 21 11.0002 20.5523 11.0002 20Z" fill="white"/>
</svg>
