<svg width="24" height="24" viewBox="0 0 24 24" fill="none" xmlns="http://www.w3.org/2000/svg">
<path d="M12.0003 1.19998C12.3185 1.20005 12.624 1.32656 12.849 1.55154C13.0739 1.77657 13.2005 2.08203 13.2005 2.40018V3.60037C13.2005 3.62065 13.1976 3.64077 13.1966 3.66092C15.2848 3.92539 17.1455 5.03905 17.9495 6.74393C18.0168 6.88654 18.0553 7.04153 18.0628 7.19901C18.0703 7.35635 18.0468 7.51366 17.9935 7.6619C17.9402 7.8102 17.8582 7.94663 17.7523 8.06326C17.6463 8.17992 17.5179 8.27437 17.3753 8.34158C17.2328 8.40874 17.0786 8.4473 16.9212 8.45486C16.7637 8.46238 16.6057 8.43885 16.4574 8.38553C16.3091 8.33221 16.1726 8.25031 16.056 8.14432C15.9393 8.03828 15.8449 7.90997 15.7777 7.76736C15.3576 6.87106 14.0471 5.99985 12.2318 5.99979C11.1098 5.99979 10.1383 6.34283 9.47592 6.83963C8.81479 7.33522 8.51595 7.92979 8.51595 8.48416C8.516 9.03847 8.8149 9.63391 9.47592 10.1306C10.1383 10.6274 11.1088 10.9705 12.2308 10.9705C12.3138 10.9705 12.3959 10.9791 12.4759 10.9959C13.8224 11.107 15.0641 11.565 16.0286 12.2888C17.1446 13.1264 17.9476 14.3747 17.9476 15.8543C17.9476 17.3338 17.1448 18.5833 16.0277 19.4197C15.239 20.0116 14.2652 20.4247 13.2005 20.617V21.6004C13.2004 21.9185 13.0739 22.224 12.849 22.449C12.624 22.674 12.3185 22.7996 12.0003 22.7996C11.6822 22.7996 11.3767 22.6739 11.1517 22.449C10.9267 22.224 10.8002 21.9185 10.8001 21.6004V20.6668C8.73967 20.3868 6.90983 19.2817 6.11556 17.5945C5.97983 17.3066 5.96405 16.9761 6.07162 16.6765C6.17926 16.3772 6.4011 16.1325 6.68881 15.9969C6.97649 15.8612 7.30642 15.8455 7.6058 15.9529C7.90533 16.0605 8.15072 16.2832 8.28646 16.5711C8.70905 17.4685 10.0191 18.3396 11.8343 18.3396C12.9562 18.3396 13.9258 17.9965 14.5882 17.4998C15.2494 17.0042 15.5472 16.4097 15.5472 15.8553C15.5471 15.3009 15.2495 14.7043 14.5872 14.2088C13.926 13.7121 12.955 13.3689 11.8343 13.3689C11.7523 13.3689 11.6713 13.3599 11.5921 13.3435C10.2445 13.2328 9.00173 12.775 8.03646 12.0506C6.92046 11.213 6.11654 9.96474 6.11654 8.48514C6.11658 7.00558 6.92049 5.75631 8.03646 4.91873C8.81117 4.33815 9.76505 3.9277 10.8079 3.73123C10.8032 3.68795 10.8001 3.64433 10.8001 3.60037V2.40018C10.8001 2.08192 10.9267 1.77659 11.1517 1.55154C11.3767 1.32652 11.6821 1.19998 12.0003 1.19998Z" fill="white"/>
</svg>
