<svg width="24" height="24" viewBox="0 0 24 24" fill="none" xmlns="http://www.w3.org/2000/svg">
<path d="M6.00098 12C6.00098 11.6648 6.02025 11.3309 6.05664 11H5C4.44772 11 4 10.5523 4 10C4 9.44771 4.44772 9 5 9H6.51172C6.67961 8.52471 6.88711 8.06567 7.13477 7.63086C7.87865 6.32485 8.95096 5.27857 10.2363 4.64844C11.525 4.0167 12.9567 3.83941 14.3438 4.14844C15.6417 4.4376 16.8228 5.13498 17.7666 6.13672L17.9531 6.34179L18.0156 6.42187C18.3093 6.83513 18.2482 7.41195 17.8584 7.75293C17.4688 8.09363 16.8891 8.07799 16.5186 7.73242L16.4473 7.6582L16.1709 7.36523C15.5092 6.71296 14.7283 6.28315 13.9092 6.10058C12.9754 5.89254 12.0068 6.00834 11.1172 6.44433C10.2242 6.88213 9.43595 7.63108 8.87207 8.62109C8.80178 8.74452 8.73604 8.87111 8.67383 9H13L13.1025 9.00488C13.6067 9.05621 14 9.48232 14 10C14 10.5177 13.6067 10.9438 13.1025 10.9951L13 11H8.07324C8.02675 11.3285 8.00098 11.6627 8.00098 12C8.00098 12.3373 8.02675 12.6715 8.07324 13H13L13.1025 13.0049C13.6067 13.0562 14 13.4823 14 14C14 14.5177 13.6067 14.9438 13.1025 14.9951L13 15H8.67383C8.73604 15.1289 8.80178 15.2555 8.87207 15.3789C9.43595 16.3689 10.2242 17.1179 11.1172 17.5557C12.0068 17.9917 12.9754 18.1075 13.9092 17.8994C14.8453 17.6908 15.732 17.1594 16.4473 16.3418C16.8109 15.9262 17.4427 15.8836 17.8584 16.2471C18.274 16.6106 18.3164 17.2425 17.9531 17.6582C16.9807 18.7698 15.7284 19.5431 14.3438 19.8516C12.9567 20.1606 11.525 19.9833 10.2363 19.3516C8.95095 18.7214 7.87865 17.6751 7.13477 16.3691C6.88711 15.9343 6.67961 15.4753 6.51172 15H5C4.44772 15 4 14.5523 4 14C4 13.4477 4.44772 13 5 13H6.05664C6.02025 12.6691 6.00098 12.3352 6.00098 12Z" fill="white"/>
</svg>
