<svg width="24" height="24" viewBox="0 0 24 24" fill="none" xmlns="http://www.w3.org/2000/svg">
<path d="M7 20V18H6C5.71667 18 5.47934 17.904 5.288 17.712C5.09667 17.52 5.00067 17.2827 5 17C4.99934 16.7173 5.09534 16.48 5.288 16.288C5.48067 16.096 5.718 16 6 16H7V4C7 3.71667 7.096 3.47933 7.288 3.288C7.48 3.09667 7.71734 3.00067 8 3H17C17.2833 3 17.521 3.096 17.713 3.288C17.905 3.48 18.0007 3.71733 18 4C17.9993 4.28267 17.9033 4.52033 17.712 4.713C17.5207 4.90567 17.2833 5.00133 17 5H9V11H16C16.2833 11 16.521 11.096 16.713 11.288C16.905 11.48 17.0007 11.7173 17 12C16.9993 12.2827 16.9033 12.5203 16.712 12.713C16.5207 12.9057 16.2833 13.0013 16 13H9V16H12C12.2833 16 12.521 16.096 12.713 16.288C12.905 16.48 13.0007 16.7173 13 17C12.9993 17.2827 12.9033 17.5203 12.712 17.713C12.5207 17.9057 12.2833 18.0013 12 18H9V20C9 20.2833 8.904 20.521 8.712 20.713C8.52 20.905 8.28267 21.0007 8 21C7.71734 20.9993 7.48 20.9033 7.288 20.712C7.096 20.5207 7 20.2833 7 20Z" fill="white"/>
</svg>
