<svg width="24" height="24" viewBox="0 0 24 24" fill="none" xmlns="http://www.w3.org/2000/svg">
<path d="M19.8749 7.5C19.8749 7.79837 19.7563 8.08452 19.5454 8.2955C19.3344 8.50647 19.0482 8.625 18.7499 8.625H16.1249C16.1231 10.2158 15.4904 11.7409 14.3656 12.8657C13.2408 13.9906 11.7156 14.6233 10.1249 14.625H9.65612L15.7499 20.1675C15.8612 20.2663 15.9519 20.3862 16.0166 20.5203C16.0812 20.6544 16.1187 20.8 16.1267 20.9486C16.1347 21.0973 16.1131 21.2461 16.0632 21.3863C16.0132 21.5266 15.936 21.6555 15.8359 21.7657C15.7357 21.8759 15.6147 21.9651 15.4799 22.0281C15.345 22.0912 15.199 22.1269 15.0503 22.1331C14.9015 22.1393 14.753 22.1159 14.6134 22.0643C14.4737 22.0127 14.3457 21.9339 14.2367 21.8325L5.98675 14.3325C5.8183 14.1794 5.70026 13.9788 5.64821 13.7572C5.59616 13.5356 5.61256 13.3034 5.69524 13.0914C5.77792 12.8793 5.92299 12.6973 6.11129 12.5694C6.29958 12.4415 6.52225 12.3737 6.74987 12.375H10.1249C11.1194 12.375 12.0733 11.9799 12.7765 11.2766C13.4798 10.5734 13.8749 9.61956 13.8749 8.625H6.74987C6.4515 8.625 6.16535 8.50647 5.95438 8.2955C5.7434 8.08452 5.62487 7.79837 5.62487 7.5C5.62487 7.20163 5.7434 6.91548 5.95438 6.7045C6.16535 6.49353 6.4515 6.375 6.74987 6.375H13.1249C12.7756 5.90926 12.3226 5.53125 11.8019 5.2709C11.2812 5.01054 10.707 4.875 10.1249 4.875H6.74987C6.4515 4.875 6.16535 4.75647 5.95438 4.5455C5.7434 4.33452 5.62487 4.04837 5.62487 3.75C5.62487 3.45163 5.7434 3.16548 5.95438 2.9545C6.16535 2.74353 6.4515 2.625 6.74987 2.625H18.7499C19.0482 2.625 19.3344 2.74353 19.5454 2.9545C19.7563 3.16548 19.8749 3.45163 19.8749 3.75C19.8749 4.04837 19.7563 4.33452 19.5454 4.5455C19.3344 4.75647 19.0482 4.875 18.7499 4.875H14.8039C15.169 5.32953 15.4659 5.83484 15.6852 6.375H18.7499C19.0482 6.375 19.3344 6.49353 19.5454 6.7045C19.7563 6.91548 19.8749 7.20163 19.8749 7.5Z" fill="white"/>
</svg>
