<svg width="24" height="24" viewBox="0 0 24 24" fill="none" xmlns="http://www.w3.org/2000/svg">
<path d="M9 20V15.85L7.525 16.775C7.19167 16.9917 6.85433 17 6.513 16.8C6.17167 16.6 6.00067 16.3 6 15.9C6 15.7167 6.04167 15.55 6.125 15.4C6.20833 15.25 6.325 15.1333 6.475 15.05L9 13.475V11.125L7.525 12.05C7.19167 12.25 6.85433 12.2583 6.513 12.075C6.17167 11.8917 6.00067 11.6 6 11.2C6 11.0167 6.04167 10.85 6.125 10.7C6.20833 10.55 6.31667 10.4333 6.45 10.35L9 8.75V4C9 3.71667 9.096 3.47934 9.288 3.288C9.48 3.09667 9.71733 3.00067 10 3C10.2827 2.99934 10.5203 3.09534 10.713 3.288C10.9057 3.48067 11.0013 3.718 11 4V7.5L13.475 5.95C13.8083 5.73334 14.146 5.72067 14.488 5.912C14.83 6.10334 15.0007 6.39934 15 6.8C15 6.98334 14.9583 7.15 14.875 7.3C14.7917 7.45 14.675 7.56667 14.525 7.65L11 9.875V12.225L13.475 10.675C13.8083 10.4583 14.146 10.4457 14.488 10.637C14.83 10.8283 15.0007 11.1243 15 11.525C15 11.7083 14.9583 11.875 14.875 12.025C14.7917 12.175 14.675 12.2917 14.525 12.375L11 14.6V19C12.25 19 13.3333 18.6 14.25 17.8C15.1667 17 15.725 16 15.925 14.8C15.9583 14.55 16.0793 14.3543 16.288 14.213C16.4967 14.0717 16.734 14.0007 17 14C17.2833 14 17.521 14.0917 17.713 14.275C17.905 14.4583 17.984 14.675 17.95 14.925C17.7167 16.6583 16.95 18.1043 15.65 19.263C14.35 20.4217 12.8 21.0007 11 21H10C9.71667 21 9.47933 20.904 9.288 20.712C9.09667 20.52 9.00067 20.2827 9 20Z" fill="white"/>
</svg>
