<svg width="24" height="24" viewBox="0 0 24 24" fill="none" xmlns="http://www.w3.org/2000/svg">
<path d="M6 18V15H5C4.44772 15 4 14.5523 4 14C4 13.4477 4.44772 13 5 13H6V11H5C4.44772 11 4 10.5523 4 10C4 9.44772 4.44772 9 5 9H6V7.05176C5.99998 6.59768 6.15085 6.15603 6.42871 5.79688C6.70666 5.43774 7.09652 5.18131 7.53613 5.06738C7.97578 4.95353 8.44102 4.98894 8.8584 5.16797C9.27573 5.34707 9.62233 5.65959 9.84277 6.05664H9.8418L11.4766 9H16V6C16 5.44772 16.4477 5 17 5C17.5523 5 18 5.44772 18 6V9H19C19.5523 9 20 9.44772 20 10C20 10.5523 19.5523 11 19 11H18V13H19C19.5523 13 20 13.4477 20 14C20 14.5523 19.5523 15 19 15H18V16.9473L17.9932 17.1172C17.9606 17.511 17.8145 17.8887 17.5713 18.2031C17.2933 18.5623 16.9035 18.8187 16.4639 18.9326C16.0242 19.0465 15.559 19.0111 15.1416 18.832C14.7243 18.6529 14.3777 18.3404 14.1572 17.9434V17.9424L12.5234 15H8V18C8 18.5523 7.55228 19 7 19C6.44772 19 6 18.5523 6 18ZM15.9062 16.9727L15.9307 16.9941C15.9408 16.9984 15.9523 16.9998 15.9629 16.9971C15.9735 16.9943 15.9825 16.9872 15.9893 16.9785C15.996 16.9698 16 16.9593 16 16.9482V15H14.8105L15.9062 16.9727ZM13.6992 13H16V11H12.5879L13.6992 13ZM8 13H11.4121L10.3008 11H8V13ZM8.01074 7.02148C8.00402 7.03023 8 7.04072 8 7.05176V9H9.18945L8.09375 7.02734C8.08837 7.01767 8.07951 7.01022 8.06934 7.00586C8.05922 7.00159 8.04774 7.00017 8.03711 7.00293C8.02648 7.00574 8.01747 7.01279 8.01074 7.02148Z" fill="white"/>
</svg>
