<svg width="24" height="24" viewBox="0 0 24 24" fill="none" xmlns="http://www.w3.org/2000/svg">
<path d="M7 20V18H6C5.71667 18 5.47934 17.904 5.288 17.712C5.09667 17.52 5.00067 17.2827 5 17C4.99934 16.7173 5.09534 16.48 5.288 16.288C5.48067 16.096 5.718 16 6 16H7V14H6C5.71667 14 5.47934 13.904 5.288 13.712C5.09667 13.52 5.00067 13.2827 5 13C4.99934 12.7173 5.09534 12.48 5.288 12.288C5.48067 12.096 5.718 12 6 12H7V4C7 3.71667 7.096 3.47933 7.288 3.288C7.48 3.09667 7.71734 3.00067 8 3H13.5C15.0333 3 16.3333 3.53333 17.4 4.6C18.4667 5.66667 19 6.96667 19 8.5C19 10.0333 18.4667 11.3333 17.4 12.4C16.3333 13.4667 15.0333 14 13.5 14H9V16H12C12.2833 16 12.521 16.096 12.713 16.288C12.905 16.48 13.0007 16.7173 13 17C12.9993 17.2827 12.9033 17.5203 12.712 17.713C12.5207 17.9057 12.2833 18.0013 12 18H9V20C9 20.2833 8.904 20.521 8.712 20.713C8.52 20.905 8.28267 21.0007 8 21C7.71734 20.9993 7.48 20.9033 7.288 20.712C7.096 20.5207 7 20.2833 7 20ZM9 12H13.5C14.4667 12 15.2917 11.6583 15.975 10.975C16.6583 10.2917 17 9.46667 17 8.5C17 7.53333 16.6583 6.70833 15.975 6.025C15.2917 5.34167 14.4667 5 13.5 5H9V12Z" fill="white"/>
</svg>
