<svg width="24" height="24" viewBox="0 0 24 24" fill="none" xmlns="http://www.w3.org/2000/svg">
<path d="M11 20V17H7.00004C6.71671 17 6.47938 16.904 6.28804 16.712C6.09671 16.52 6.00071 16.2827 6.00004 16C5.99938 15.7173 6.09538 15.48 6.28804 15.288C6.48071 15.096 6.71804 15 7.00004 15H11V13H7.00004C6.71671 13 6.47938 12.904 6.28804 12.712C6.09671 12.52 6.00071 12.2827 6.00004 12C5.99938 11.7173 6.09538 11.48 6.28804 11.288C6.48071 11.096 6.71804 11 7.00004 11H10.075L5.97504 4.525C5.75838 4.19167 5.74604 3.85433 5.93804 3.513C6.13004 3.17167 6.42571 3.00067 6.82504 3C7.00838 3 7.17504 3.04167 7.32504 3.125C7.47504 3.20833 7.59171 3.325 7.67504 3.475L12 10.3L16.325 3.475C16.4084 3.325 16.525 3.20833 16.675 3.125C16.825 3.04167 16.9917 3 17.175 3C17.575 3 17.871 3.175 18.063 3.525C18.255 3.875 18.2424 4.21667 18.025 4.55L13.925 11H17C17.2834 11 17.521 11.096 17.713 11.288C17.905 11.48 18.0007 11.7173 18 12C17.9994 12.2827 17.9034 12.5203 17.712 12.713C17.5207 12.9057 17.2834 13.0013 17 13H13V15H17C17.2834 15 17.521 15.096 17.713 15.288C17.905 15.48 18.0007 15.7173 18 16C17.9994 16.2827 17.9034 16.5203 17.712 16.713C17.5207 16.9057 17.2834 17.0013 17 17H13V20C13 20.2833 12.904 20.521 12.712 20.713C12.52 20.905 12.2827 21.0007 12 21C11.7174 20.9993 11.48 20.9033 11.288 20.712C11.096 20.5207 11 20.2833 11 20Z" fill="white"/>
</svg>
