<svg width="24" height="24" viewBox="0 0 24 24" fill="none" xmlns="http://www.w3.org/2000/svg">
<path d="M12 2.75C10.2052 2.75 8.75 4.20521 8.75 6V12C8.75 13.7948 10.2052 15.25 12 15.25C13.7948 15.25 15.25 13.7948 15.25 12V6C15.25 4.20521 13.7948 2.75 12 2.75ZM7.25 6C7.25 3.37679 9.37679 1.25 12 1.25C14.6232 1.25 16.75 3.37679 16.75 6V12C16.75 14.6232 14.6232 16.75 12 16.75C9.37679 16.75 7.25 14.6232 7.25 12V6ZM5 10.25C5.41421 10.25 5.75 10.5858 5.75 11V11.9C5.75 15.4169 8.55822 18.25 12 18.25C15.4418 18.25 18.25 15.4169 18.25 11.9V11C18.25 10.5858 18.5858 10.25 19 10.25C19.4142 10.25 19.75 10.5858 19.75 11V11.9C19.75 15.97 16.6864 19.3314 12.75 19.7138V21.25H15C15.4142 21.25 15.75 21.5858 15.75 22C15.75 22.4142 15.4142 22.75 15 22.75H12H9C8.58579 22.75 8.25 22.4142 8.25 22C8.25 21.5858 8.58579 21.25 9 21.25H11.25V19.7138C7.31365 19.3314 4.25 15.97 4.25 11.9V11C4.25 10.5858 4.58579 10.25 5 10.25ZM11.5 5.25C11.0858 5.25 10.75 5.58579 10.75 6C10.75 6.41421 11.0858 6.75 11.5 6.75H12.5C12.9142 6.75 13.25 6.41421 13.25 6C13.25 5.58579 12.9142 5.25 12.5 5.25H11.5ZM10.25 9C10.25 8.58579 10.5858 8.25 11 8.25H13C13.4142 8.25 13.75 8.58579 13.75 9C13.75 9.41421 13.4142 9.75 13 9.75H11C10.5858 9.75 10.25 9.41421 10.25 9ZM11.5 11.2798C11.0858 11.2798 10.75 11.6156 10.75 12.0298C10.75 12.444 11.0858 12.7798 11.5 12.7798H12.5C12.9142 12.7798 13.25 12.444 13.25 12.0298C13.25 11.6156 12.9142 11.2798 12.5 11.2798H11.5Z" fill="white"/>
</svg>
