<svg width="24" height="24" viewBox="0 0 24 24" fill="none" xmlns="http://www.w3.org/2000/svg">
<path d="M11.984 3.76416C11.1642 3.76416 10.5 4.42837 10.5 5.24816V12.0152C10.5 12.8349 11.1642 13.4992 11.984 13.4992H12.016C12.8358 13.4992 13.5 12.8349 13.5 12.0152V5.24816C13.5 4.42837 12.8358 3.76416 12.016 3.76416H11.984ZM9 5.24816C9 3.59995 10.3358 2.26416 11.984 2.26416H12.016C13.6642 2.26416 15 3.59995 15 5.24816V12.0152C15 13.6634 13.6642 14.9992 12.016 14.9992H11.984C10.3358 14.9992 9 13.6634 9 12.0152V5.24816ZM6.37402 11.249C6.78824 11.249 7.12402 11.5848 7.12402 11.999C7.12402 14.665 9.26391 16.8314 11.9196 16.8744C11.946 16.8716 11.9728 16.8701 12 16.8701C12.0271 16.8701 12.0539 16.8716 12.0804 16.8744C14.7361 16.8315 16.876 14.665 16.876 11.999C16.876 11.5848 17.2118 11.249 17.626 11.249C18.0402 11.249 18.376 11.5848 18.376 11.999C18.376 15.2665 15.9178 17.9602 12.75 18.3314V21.0001C12.75 21.4143 12.4142 21.7501 12 21.7501C11.5858 21.7501 11.25 21.4143 11.25 21.0001V18.3314C8.0822 17.9601 5.62402 15.2665 5.62402 11.999C5.62402 11.5848 5.95981 11.249 6.37402 11.249Z" fill="white"/>
</svg>
