<svg width="24" height="24" viewBox="0 0 24 24" fill="none" xmlns="http://www.w3.org/2000/svg">
<path d="M3.75 5C3.75 4.30921 4.30921 3.75 5 3.75H19C19.6908 3.75 20.25 4.30921 20.25 5V19C20.25 19.6908 19.6908 20.25 19 20.25H5C4.30921 20.25 3.75 19.6908 3.75 19V5ZM5 2.25C3.48079 2.25 2.25 3.48079 2.25 5V19C2.25 20.5192 3.48079 21.75 5 21.75H19C20.5192 21.75 21.75 20.5192 21.75 19V5C21.75 3.48079 20.5192 2.25 19 2.25H5ZM15.75 8C15.75 7.58579 15.4142 7.25 15 7.25C14.5858 7.25 14.25 7.58579 14.25 8V16C14.25 16.4142 14.5858 16.75 15 16.75C15.4142 16.75 15.75 16.4142 15.75 16V8ZM12.75 9.5C12.75 9.08579 12.4142 8.75 12 8.75C11.5858 8.75 11.25 9.08579 11.25 9.5V14.5C11.25 14.9142 11.5858 15.25 12 15.25C12.4142 15.25 12.75 14.9142 12.75 14.5V9.5ZM18 10.25C18.4142 10.25 18.75 10.5858 18.75 11V13C18.75 13.4142 18.4142 13.75 18 13.75C17.5858 13.75 17.25 13.4142 17.25 13V11C17.25 10.5858 17.5858 10.25 18 10.25ZM9.75 11.5C9.75 11.0858 9.41421 10.75 9 10.75C8.58579 10.75 8.25 11.0858 8.25 11.5V12.5C8.25 12.9142 8.58579 13.25 9 13.25C9.41421 13.25 9.75 12.9142 9.75 12.5V11.5ZM6 9.75C6.41421 9.75 6.75 10.0858 6.75 10.5V13.5C6.75 13.9142 6.41421 14.25 6 14.25C5.58579 14.25 5.25 13.9142 5.25 13.5V10.5C5.25 10.0858 5.58579 9.75 6 9.75Z" fill="white"/>
</svg>
