<svg width="24" height="24" viewBox="0 0 24 24" fill="none" xmlns="http://www.w3.org/2000/svg">
<path d="M9.04358 4.66857C9.55499 3.53565 10.6854 2.75 12 2.75C13.7948 2.75 15.25 4.20521 15.25 6V12C15.25 12.4142 15.5858 12.75 16 12.75C16.4142 12.75 16.75 12.4142 16.75 12V6C16.75 3.37679 14.6232 1.25 12 1.25C10.0686 1.25 8.41902 2.40635 7.67642 4.05143C7.506 4.42896 7.6739 4.87316 8.05143 5.04358C8.42896 5.214 8.87316 5.0461 9.04358 4.66857ZM11.25 19.7146V21.25H9C8.58579 21.25 8.25 21.5858 8.25 22C8.25 22.4142 8.58579 22.75 9 22.75H12H15C15.4142 22.75 15.75 22.4142 15.75 22C15.75 21.5858 15.4142 21.25 15 21.25H12.75V19.7145C14.3297 19.5643 15.7722 18.9446 16.9381 17.9988L19.2197 20.2803C19.5126 20.5732 19.9874 20.5732 20.2803 20.2803C20.5732 19.9874 20.5732 19.5126 20.2803 19.2197L17.4995 16.4389L17.4969 16.4363L15.358 14.2973L4.78033 3.71967C4.48744 3.42678 4.01256 3.42678 3.71967 3.71967C3.42678 4.01256 3.42678 4.48744 3.71967 4.78033L7.25 8.31066V12C7.25 14.6232 9.37679 16.75 12 16.75C13.0408 16.75 14.0041 16.4146 14.7863 15.847L15.8704 16.931C14.7982 17.7583 13.4574 18.25 12 18.25C8.49322 18.25 5.65 15.4068 5.65 11.9V11C5.65 10.5858 5.31422 10.25 4.9 10.25C4.48579 10.25 4.15 10.5858 4.15 11V11.9C4.15 15.9822 7.26656 19.337 11.25 19.7146ZM8.75 9.81066L13.706 14.7667C13.2105 15.0733 12.6263 15.25 12 15.25C10.2052 15.25 8.75 13.7948 8.75 12V9.81066ZM19.1 10.25C19.5142 10.25 19.85 10.5858 19.85 11V11.9C19.85 12.9479 19.6407 13.9446 19.2697 14.8566C19.1136 15.2403 18.6761 15.4248 18.2924 15.2687C17.9087 15.1126 17.7242 14.6751 17.8803 14.2914C18.1813 13.5514 18.35 12.7461 18.35 11.9V11C18.35 10.5858 18.6858 10.25 19.1 10.25Z" fill="white"/>
</svg>
