<svg width="24" height="24" viewBox="0 0 24 24" fill="none" xmlns="http://www.w3.org/2000/svg">
<path d="M5 3.75C4.30921 3.75 3.75 4.30921 3.75 5V9C3.75 9.41421 3.41421 9.75 3 9.75C2.58579 9.75 2.25 9.41421 2.25 9V5C2.25 3.48079 3.48079 2.25 5 2.25H9C9.41421 2.25 9.75 2.58579 9.75 3C9.75 3.41421 9.41421 3.75 9 3.75H5ZM12 6.25C12.4142 6.25 12.75 6.58579 12.75 7V17C12.75 17.4142 12.4142 17.75 12 17.75C11.5858 17.75 11.25 17.4142 11.25 17V7C11.25 6.58579 11.5858 6.25 12 6.25ZM15 7.25C15.4142 7.25 15.75 7.58579 15.75 8V16C15.75 16.4142 15.4142 16.75 15 16.75C14.5858 16.75 14.25 16.4142 14.25 16V8C14.25 7.58579 14.5858 7.25 15 7.25ZM18.75 10C18.75 9.58579 18.4142 9.25 18 9.25C17.5858 9.25 17.25 9.58579 17.25 10V14C17.25 14.4142 17.5858 14.75 18 14.75C18.4142 14.75 18.75 14.4142 18.75 14V10ZM9 7.25C9.41421 7.25 9.75 7.58579 9.75 8V16C9.75 16.4142 9.41421 16.75 9 16.75C8.58579 16.75 8.25 16.4142 8.25 16V8C8.25 7.58579 8.58579 7.25 9 7.25ZM6.75 10C6.75 9.58579 6.41421 9.25 6 9.25C5.58579 9.25 5.25 9.58579 5.25 10V14C5.25 14.4142 5.58579 14.75 6 14.75C6.41421 14.75 6.75 14.4142 6.75 14V10ZM21.75 15C21.75 14.5858 21.4142 14.25 21 14.25C20.5858 14.25 20.25 14.5858 20.25 15V19C20.25 19.6908 19.6908 20.25 19 20.25H15C14.5858 20.25 14.25 20.5858 14.25 21C14.25 21.4142 14.5858 21.75 15 21.75H19C20.5192 21.75 21.75 20.5192 21.75 19V15ZM14.25 3C14.25 2.58579 14.5858 2.25 15 2.25H19C20.5192 2.25 21.75 3.48079 21.75 5V9C21.75 9.41421 21.4142 9.75 21 9.75C20.5858 9.75 20.25 9.41421 20.25 9V5C20.25 4.30921 19.6908 3.75 19 3.75H15C14.5858 3.75 14.25 3.41421 14.25 3ZM3.75 15C3.75 14.5858 3.41421 14.25 3 14.25C2.58579 14.25 2.25 14.5858 2.25 15V19C2.25 20.5192 3.48079 21.75 5 21.75H9C9.41421 21.75 9.75 21.4142 9.75 21C9.75 20.5858 9.41421 20.25 9 20.25H5C4.30921 20.25 3.75 19.6908 3.75 19V15Z" fill="white"/>
</svg>
