<svg width="24" height="24" viewBox="0 0 24 24" fill="none" xmlns="http://www.w3.org/2000/svg">
<g clip-path="url(#clip0_7_1912)">
<mask id="mask0_7_1912" style="mask-type:luminance" maskUnits="userSpaceOnUse" x="0" y="0" width="24" height="24">
<path d="M24 0H0V24H24V0Z" fill="white"/>
</mask>
<g mask="url(#mask0_7_1912)">
<path d="M16.2996 3.59995C16.4996 3.59995 16.6996 3.49995 16.7996 3.39995L17.8996 2.29995C18.1996 1.99995 18.1996 1.49995 17.8996 1.19995C17.5996 0.899951 17.0996 0.899951 16.7996 1.19995L15.6996 2.29995C15.3996 2.59995 15.3996 3.09995 15.6996 3.39995C15.8996 3.49995 16.0996 3.59995 16.2996 3.59995Z" fill="white"/>
<path d="M8.79961 3.29995C8.89961 3.39995 9.09961 3.49995 9.29961 3.49995C9.49961 3.49995 9.69961 3.39995 9.79961 3.29995C10.0996 2.99995 10.0996 2.49995 9.79961 2.19995L8.79961 1.19995C8.49961 0.899951 7.99961 0.899951 7.69961 1.19995C7.39961 1.49995 7.49961 1.99995 7.79961 2.29995L8.79961 3.29995Z" fill="white"/>
<path d="M12.8996 3.19995C13.2996 3.19995 13.5996 2.89995 13.5996 2.39995V0.999951C13.5996 0.599951 13.2996 0.199951 12.8996 0.199951C12.4996 0.199951 12.0996 0.499951 12.0996 0.999951V2.39995C12.0996 2.79995 12.3996 3.19995 12.8996 3.19995Z" fill="white"/>
<path d="M23.1996 13.9L21.9996 7.69995C21.7996 6.59995 20.7996 5.79995 19.6996 5.79995C18.7996 5.79995 17.9996 6.29995 17.5996 7.09995C17.2996 6.89995 16.8996 6.79995 16.3996 6.79995C15.9996 6.79995 15.6996 6.89995 15.3996 6.99995L13.9996 5.59995C13.1996 4.69995 11.6996 4.79995 10.7996 5.59995C10.5996 5.79995 10.4996 5.99995 10.3996 6.19995L9.39961 5.19995C8.59961 4.29995 7.09961 4.29995 6.19961 5.19995C6.09961 5.49995 5.89961 5.69995 5.79961 5.89995C4.99961 5.19995 3.49961 5.19995 2.69961 5.99995C2.29961 6.39995 2.09961 6.99995 2.09961 7.59995C2.09961 8.19995 2.29961 8.69995 2.69961 9.09995C2.39961 9.19995 2.19961 9.29995 1.99961 9.49995C1.59961 9.89995 1.29961 10.5 1.29961 11.1C1.29961 11.7 1.49961 12.2 1.89961 12.6C1.69961 12.7 1.39961 12.8 1.29961 13C0.899609 13.4 0.599609 14 0.599609 14.6C0.599609 15.2 0.799609 15.8 1.29961 16.2L6.49961 21.4C7.99961 22.9 9.99961 23.7 12.0996 23.7C12.9996 23.7 13.8996 23.5 14.6996 23.2999C14.9996 23.2999 15.1996 23.2999 15.4996 23.2999C17.5996 23.2999 19.5996 22.5 21.0996 21C22.8996 19.2 23.6996 16.5 23.1996 13.9ZM11.9996 7.79995C11.8996 7.69995 11.7996 7.49995 11.7996 7.29995C11.7996 7.09995 11.8996 6.89995 11.9996 6.79995C12.2996 6.49995 12.7996 6.49995 13.0996 6.79995L14.4996 8.19995C14.3996 8.49995 14.2996 8.79995 14.2996 9.19995V9.99995L11.9996 7.79995ZM7.49961 20.4L2.29961 15.2C2.19961 15.1 2.09961 14.9 2.09961 14.7C2.09961 14.5 2.19961 14.3 2.29961 14.2C2.59961 13.9 3.09961 13.9 3.39961 14.2L6.59961 17.4C6.69961 17.5 6.89961 17.6 7.09961 17.6C7.29961 17.6 7.49961 17.5 7.59961 17.4C7.99961 17 7.99961 16.5 7.69961 16.2L3.09961 11.6C2.99961 11.5 2.89961 11.3 2.89961 11.1C2.89961 10.9 2.99961 10.7 3.09961 10.6C3.39961 10.3 3.89961 10.3 4.19961 10.6L8.79961 15.2C8.89961 15.3 9.09961 15.4 9.29961 15.4C9.49961 15.4 9.69961 15.3 9.79961 15.2C10.0996 14.9 10.0996 14.4 9.79961 14.1L3.79961 8.09995C3.59961 7.99995 3.59961 7.79995 3.59961 7.59995C3.59961 7.39995 3.69961 7.19995 3.79961 7.09995C4.09961 6.79995 4.59961 6.79995 4.89961 7.09995L10.8996 13.1C11.1996 13.4 11.6996 13.4 11.9996 13.1C12.2996 12.8 12.2996 12.3 11.9996 12L7.29961 7.39995C7.19961 7.29995 7.09961 7.09995 7.09961 6.89995C7.09961 6.69995 7.19961 6.49995 7.29961 6.39995C7.59961 6.09995 8.09961 6.09995 8.39961 6.39995L14.3996 12.4C14.5996 12.6 14.8996 12.7 15.1996 12.6C15.4996 12.5 15.6996 12.2 15.6996 11.9V9.09995C15.6996 8.89995 15.7996 8.69995 15.8996 8.49995C15.9996 8.39995 16.1996 8.29995 16.4996 8.29995C16.8996 8.29995 17.1996 8.59995 17.2996 8.89995L18.3996 14.5C18.7996 16.6 18.1996 18.7999 16.5996 20.2999C15.9996 20.9 15.1996 21.4 14.3996 21.7999C13.6996 22.0999 12.8996 22.2 12.0996 22.2C10.3996 22.3 8.79961 21.6 7.49961 20.4ZM19.9996 20C19.2996 20.7 18.4996 21.2 17.6996 21.5C19.5996 19.6 20.3996 17 19.8996 14.4L18.9996 9.69995V8.09995C18.9996 7.69995 19.3996 7.29995 19.7996 7.29995C20.1996 7.29995 20.4996 7.59995 20.5996 7.89995L21.7996 14.1C22.1996 16.3 21.4996 18.5 19.9996 20Z" fill="white"/>
</g>
</g>
<defs>
<clipPath id="clip0_7_1912">
<rect width="24" height="24" fill="white"/>
</clipPath>
</defs>
</svg>
