<svg width="24" height="24" viewBox="0 0 24 24" fill="none" xmlns="http://www.w3.org/2000/svg">
<path d="M12.244 6.27745L8.75 10.8267V16.8053L9.78145 17.9154C9.97921 18.1283 10.258 18.2499 10.55 18.2499H16.839C17.3064 18.2499 17.7177 17.9405 17.8473 17.4904L19.2063 12.7685C19.2916 12.4728 19.2421 12.1518 19.0697 11.894L18.7409 11.4034C18.546 11.1122 18.2185 10.9369 17.868 10.9369H14.772C14.3578 10.9369 14.022 10.6011 14.022 10.1869V6.91592C14.022 6.67275 13.9372 6.43719 13.784 6.25167C13.3814 5.76267 12.6289 5.77578 12.244 6.27745ZM7.25 10.5638V10.556C7.25 10.3872 7.11279 10.25 6.944 10.25H5.056C4.88721 10.25 4.75 10.3872 4.75 10.556V17.944C4.75 18.1128 4.88721 18.25 5.056 18.25H6.944C7.11279 18.25 7.25 18.1128 7.25 17.944V17.1022V17.0979V10.5789C7.24995 10.5739 7.24995 10.5689 7.25 10.5638ZM8.11951 9.18504L11.054 5.36438C12.027 4.09651 13.9262 4.06527 14.9416 5.29769C15.3183 5.75413 15.522 6.32719 15.522 6.91592V9.43691H17.868C18.7195 9.43691 19.5142 9.86196 19.9873 10.5687L20.3161 11.0594C20.7335 11.6835 20.8562 12.4616 20.6476 13.1839L19.2887 17.9053C18.9743 18.9973 17.9756 19.7499 16.839 19.7499H10.55C9.84201 19.7499 9.16479 19.4555 8.68255 18.9364L8.54231 18.7855C8.23967 19.359 7.63738 19.75 6.944 19.75H5.056C4.05879 19.75 3.25 18.9412 3.25 17.944V10.556C3.25 9.55879 4.05879 8.75 5.056 8.75H6.944C7.39287 8.75 7.80357 8.91387 8.11951 9.18504Z" fill="white"/>
</svg>
