<svg width="24" height="24" viewBox="0 0 24 24" fill="none" xmlns="http://www.w3.org/2000/svg">
<path d="M10.3733 4.26233C11.0385 2.91378 12.9626 2.91386 13.6276 4.26256L15.4581 7.97378L19.5517 8.56902C21.0413 8.78552 21.6342 10.6147 20.5574 11.6643L17.5938 14.5503L18.2931 18.6274C18.5472 20.1091 16.9923 21.239 15.6613 20.5403L11.9999 18.616L8.33921 20.5399C7.00669 21.2412 5.45291 20.1078 5.70673 18.6275L6.40604 14.5503L3.44269 11.6645C2.36525 10.6144 2.9603 8.78546 4.44797 8.56904L8.54185 7.97376L10.3733 4.26233C10.3734 4.26225 10.3733 4.26241 10.3733 4.26233ZM19.5107 10.5899C19.6975 10.4075 19.5943 10.091 19.336 10.0534L14.852 9.40142C14.6077 9.3659 14.3965 9.21241 14.2873 8.99099L12.2822 4.92589C12.1672 4.69267 11.8335 4.69291 11.7185 4.92612L9.7125 8.99112C9.60327 9.21247 9.39212 9.3659 9.14786 9.40142L4.66386 10.0534C4.66384 10.0534 4.66388 10.0534 4.66386 10.0534C4.40566 10.091 4.30318 10.4083 4.48943 10.5901C4.48936 10.5901 4.4895 10.5902 4.48943 10.5901L7.73519 13.7509C7.91213 13.9232 7.9929 14.1716 7.95115 14.415L7.18515 18.881C7.141 19.1387 7.41156 19.3331 7.64103 19.2123L11.617 17.1227C11.7298 17.056 11.8608 17.0182 11.9989 17.0182H12.0009C12.139 17.0182 12.27 17.056 12.3828 17.1227M12.3828 17.1227L16.3587 19.2123C16.5897 19.3334 16.8586 19.1372 16.8147 18.881L16.0487 14.415C16.0069 14.1716 16.0877 13.9232 16.2647 13.7509L19.5107 10.5899" fill="white"/>
</svg>
