<svg width="24" height="24" viewBox="0 0 24 24" fill="none" xmlns="http://www.w3.org/2000/svg">
<g clip-path="url(#clip0_7_2790)">
<mask id="mask0_7_2790" style="mask-type:luminance" maskUnits="userSpaceOnUse" x="0" y="0" width="24" height="24">
<path d="M24 0H0V24H24V0Z" fill="white"/>
</mask>
<g mask="url(#mask0_7_2790)">
<path d="M20.2002 11.2L12.8002 3.80005C12.4002 3.40005 12.0002 3.30005 11.5002 3.30005C9.00016 3.40005 6.70016 4.60005 5.10016 6.60005C3.50016 8.60005 2.90016 11.2 3.40016 13.7C4.10016 17.1 6.80016 19.9 10.2002 20.5C10.8002 20.6 11.4002 20.7001 12.0002 20.7001C13.9002 20.7001 15.8002 20.1 17.4002 18.9C19.4002 17.3 20.6002 15 20.8002 12.5C20.8002 12 20.6002 11.5 20.2002 11.2ZM18.9002 11.9C17.0002 13.3 14.3002 13.1 12.6002 11.4C10.9002 9.70005 10.7002 7.00005 12.1002 5.10005L18.9002 11.9ZM16.5002 17.7C14.8002 19 12.7002 19.5 10.6002 19.1C7.80016 18.6 5.50016 16.3 5.00016 13.5C4.50016 11.3 5.00016 9.20005 6.30016 7.50005C7.30016 6.20005 8.80016 5.30005 10.4002 4.90005C9.10016 7.30005 9.40016 10.5 11.5002 12.5C12.7002 13.7 14.4002 14.4 16.0002 14.4C17.1002 14.4 18.1002 14.1 19.1002 13.6C18.7002 15.2 17.8002 16.7 16.5002 17.7Z" fill="white"/>
</g>
</g>
<defs>
<clipPath id="clip0_7_2790">
<rect width="24" height="24" fill="white"/>
</clipPath>
</defs>
</svg>
