<svg width="24" height="24" viewBox="0 0 24 24" fill="none" xmlns="http://www.w3.org/2000/svg">
<path d="M8 2.27783C7.58579 2.27783 7.25 2.61362 7.25 3.02783C7.25 3.44205 7.58579 3.77783 8 3.77783H16C16.4142 3.77783 16.75 3.44205 16.75 3.02783C16.75 2.61362 16.4142 2.27783 16 2.27783H8ZM6 5.27783C5.58579 5.27783 5.25 5.61362 5.25 6.02783C5.25 6.44205 5.58579 6.77783 6 6.77783H18C18.4142 6.77783 18.75 6.44205 18.75 6.02783C18.75 5.61362 18.4142 5.27783 18 5.27783H6ZM2.25 11C2.25 9.48079 3.48079 8.25 5 8.25H19C20.5192 8.25 21.75 9.48079 21.75 11V19C21.75 20.5192 20.5192 21.75 19 21.75H5C3.48079 21.75 2.25 20.5192 2.25 19V11ZM5 9.75C4.30921 9.75 3.75 10.3092 3.75 11V19C3.75 19.6908 4.30921 20.25 5 20.25H19C19.6908 20.25 20.25 19.6908 20.25 19V11C20.25 10.3092 19.6908 9.75 19 9.75H5ZM14 11.25C13.5858 11.25 13.25 11.5858 13.25 12V15C13.25 15.4142 13.5858 15.75 14 15.75H18C18.4142 15.75 18.75 15.4142 18.75 15V12C18.75 11.5858 18.4142 11.25 18 11.25H14ZM14.75 14.25V12.75H17.25V14.25H14.75ZM5.25 15C5.25 14.5858 5.58579 14.25 6 14.25H9C9.41421 14.25 9.75 14.5858 9.75 15C9.75 15.4142 9.41421 15.75 9 15.75H6C5.58579 15.75 5.25 15.4142 5.25 15ZM6 17.25C5.58579 17.25 5.25 17.5858 5.25 18C5.25 18.4142 5.58579 18.75 6 18.75H11C11.4142 18.75 11.75 18.4142 11.75 18C11.75 17.5858 11.4142 17.25 11 17.25H6Z" fill="white"/>
</svg>
