<svg width="24" height="24" viewBox="0 0 24 24" fill="none" xmlns="http://www.w3.org/2000/svg">
<g clip-path="url(#clip0_7_2283)">
<mask id="mask0_7_2283" style="mask-type:luminance" maskUnits="userSpaceOnUse" x="0" y="0" width="24" height="24">
<path d="M24 0H0V24H24V0Z" fill="white"/>
</mask>
<g mask="url(#mask0_7_2283)">
<path d="M21.5004 11.1999C21.0004 10.1999 20.3004 9.2999 19.6004 8.4999C19.3004 8.1999 18.9004 8.0999 18.5004 8.3999C18.2004 8.6999 18.1004 9.0999 18.4004 9.4999C19.1004 10.2999 19.6004 11.0999 20.1004 11.9999C20.1004 12.0999 20.1004 12.1999 20.1004 12.1999C18.1004 15.7999 14.8004 18.2999 11.9004 18.2999C11.2004 18.2999 10.4004 18.1999 9.70039 17.8999C9.30039 17.6999 8.90039 17.8999 8.70039 18.2999C8.60039 18.6999 8.70039 19.0999 9.10039 19.2999C10.0004 19.6999 11.0004 19.7999 11.9004 19.7999C15.9004 19.7999 19.6004 16.2999 21.4004 12.8999C21.8004 12.2999 21.8004 11.6999 21.5004 11.1999Z" fill="white"/>
<path d="M19.5004 4.4999C19.2004 4.1999 18.7004 4.1999 18.4004 4.4999L17.0004 5.9999C15.4004 4.8999 13.7004 4.2999 12.0004 4.2999C8.00039 4.2999 4.30039 7.7999 2.50039 11.1999C2.20039 11.6999 2.20039 12.2999 2.50039 12.7999C3.40039 14.3999 4.60039 15.8999 5.90039 17.0999L4.50039 18.4999C4.20039 18.7999 4.20039 19.2999 4.50039 19.5999C4.60039 19.6999 4.80039 19.7999 5.00039 19.7999C5.20039 19.7999 5.40039 19.6999 5.50039 19.5999L19.5004 5.5999C19.8004 5.1999 19.8004 4.7999 19.5004 4.4999ZM3.80039 12.0999C3.80039 11.9999 3.80039 11.8999 3.80039 11.8999C5.80039 8.2999 9.10039 5.7999 12.0004 5.7999C13.3004 5.7999 14.6004 6.2999 15.9004 7.0999L14.2004 8.7999C12.7004 7.7999 10.6004 7.9999 9.30039 9.2999C8.50039 9.9999 8.10039 10.9999 8.10039 11.9999C8.10039 12.7999 8.30039 13.4999 8.80039 14.1999L6.90039 15.9999C5.70039 14.9999 4.60039 13.5999 3.80039 12.0999ZM9.90039 13.0999C9.70039 12.7999 9.60039 12.3999 9.60039 11.9999C9.60039 11.3999 9.80039 10.7999 10.3004 10.2999C11.0004 9.5999 12.2004 9.3999 13.1004 9.8999L9.90039 13.0999Z" fill="white"/>
</g>
</g>
<defs>
<clipPath id="clip0_7_2283">
<rect width="24" height="24" fill="white"/>
</clipPath>
</defs>
</svg>
