<svg width="24" height="24" viewBox="0 0 24 24" fill="none" xmlns="http://www.w3.org/2000/svg">
<path d="M8.06018 9.33397C6.10875 10.1249 4.25656 11.5229 2.68222 13.55C2.42815 13.8771 1.95698 13.9363 1.62984 13.6823C1.3027 13.4282 1.24347 12.957 1.49754 12.6299C4.3579 8.94692 8.15309 7.05469 11.9994 7.05469C15.8457 7.05469 19.6409 8.94692 22.5012 12.6299C22.7553 12.957 22.6961 13.4282 22.3689 13.6823C22.0418 13.9363 21.5706 13.8771 21.3166 13.55C19.9389 11.7761 18.3485 10.4841 16.6651 9.65891C17.9759 11.692 17.7413 14.4323 15.9612 16.2123C13.911 18.2626 10.5869 18.2626 8.53659 16.2123C6.65983 14.3355 6.50102 11.3914 8.06018 9.33397ZM9.59725 9.84835C8.13279 11.3128 8.13279 13.6872 9.59725 15.1516C11.0617 16.6161 13.4361 16.6161 14.9006 15.1516C16.365 13.6872 16.365 11.3128 14.9006 9.84835C13.4361 8.38388 11.0617 8.38388 9.59725 9.84835Z" fill="white"/>
</svg>
