<svg width="24" height="24" viewBox="0 0 24 24" fill="none" xmlns="http://www.w3.org/2000/svg">
<path d="M3.77753 11.8883C4.67796 10.2232 5.95864 8.67363 7.41607 7.54732C8.87773 6.41774 10.468 5.75 11.9996 5.75C13.5312 5.75 15.1214 6.41774 16.5831 7.54742C18.0406 8.67389 19.3213 10.2238 20.2217 11.8895C20.2585 11.9579 20.2586 12.0428 20.2219 12.1113C19.3214 13.7765 18.0407 15.3263 16.5831 16.4527C15.1215 17.5823 13.5312 18.25 11.9996 18.25C10.468 18.25 8.87774 17.5823 7.4161 16.4526C5.95866 15.3261 4.67798 13.7763 3.77754 12.1107C3.74061 12.0421 3.74061 11.957 3.77753 11.8883ZM11.9996 4.25C10.0362 4.25 8.13144 5.09876 6.49884 6.36043C4.86214 7.62528 3.44941 9.34151 2.45786 11.1753C2.18094 11.6886 2.18061 12.3098 2.45753 12.8231C3.44908 14.6573 4.8621 16.3744 6.49881 17.6394C8.13142 18.9012 10.0362 19.75 11.9996 19.75C13.963 19.75 15.8677 18.9012 17.5003 17.6396C19.137 16.3747 20.5498 14.6585 21.5413 12.8247C21.8182 12.3114 21.8186 11.6902 21.5417 11.1769C20.5501 9.34268 19.1371 7.62557 17.5004 6.36058C15.8678 5.09876 13.963 4.25 11.9996 4.25ZM10.3834 10.3837C11.276 9.49109 12.7232 9.49109 13.6158 10.3837C14.5085 11.2763 14.5085 12.7236 13.6158 13.6162C12.7232 14.5088 11.276 14.5088 10.3834 13.6162C9.49074 12.7236 9.49074 11.2763 10.3834 10.3837ZM14.626 9.37354C13.1755 7.92301 10.8237 7.92301 9.37318 9.37354C7.92266 10.8241 7.92266 13.1758 9.37318 14.6263C10.8237 16.0769 13.1755 16.0769 14.626 14.6263C16.0765 13.1758 16.0765 10.8241 14.626 9.37354Z" fill="white"/>
</svg>
