<svg width="24" height="24" viewBox="0 0 24 24" fill="none" xmlns="http://www.w3.org/2000/svg">
<g clip-path="url(#clip0_7_2273)">
<mask id="mask0_7_2273" style="mask-type:luminance" maskUnits="userSpaceOnUse" x="0" y="0" width="24" height="24">
<path d="M24 0H0V24H24V0Z" fill="white"/>
</mask>
<g mask="url(#mask0_7_2273)">
<path d="M21.5004 13.6C19.6004 10.4 16.0004 7.29995 12.0004 7.29995C8.00039 7.29995 4.40039 10.5 2.50039 13.7C2.20039 14.2 2.20039 14.9 2.50039 15.5C4.40039 18.7 8.00039 21.9 12.0004 21.9C16.0004 21.9 19.6004 18.7 21.5004 15.5C21.8004 14.8 21.8004 14.2 21.5004 13.6ZM20.2004 14.6C18.5004 17.4 15.4004 20.2 12.0004 20.2C8.60039 20.2 5.40039 17.4 3.80039 14.6C3.80039 14.5 3.80039 14.4 3.80039 14.4C5.50039 11.6 8.60039 8.79995 12.0004 8.79995C15.4004 8.79995 18.6004 11.6 20.2004 14.4C20.3004 14.5 20.3004 14.5 20.2004 14.6Z" fill="white"/>
<path d="M9.40039 11.9C8.00039 13.3 8.00039 15.7 9.40039 17.2C10.1004 17.9 11.1004 18.2999 12.0004 18.2999C12.9004 18.2999 13.9004 17.9 14.6004 17.2C16.0004 15.8 16.0004 13.4 14.6004 11.9C13.2004 10.5 10.8004 10.5 9.40039 11.9ZM13.6004 16.1C12.7004 17 11.3004 17 10.4004 16.1C9.50039 15.2 9.50039 13.8 10.4004 12.9C10.8004 12.5 11.4004 12.2 12.0004 12.2C12.6004 12.2 13.2004 12.4 13.6004 12.9C14.5004 13.8 14.5004 15.2 13.6004 16.1Z" fill="white"/>
<path d="M12.0004 5.79995C12.4004 5.79995 12.8004 5.49995 12.8004 4.99995V2.49995C12.8004 2.09995 12.5004 1.69995 12.0004 1.69995C11.5004 1.69995 11.2004 1.99995 11.2004 2.49995V4.99995C11.2004 5.39995 11.6004 5.79995 12.0004 5.79995Z" fill="white"/>
<path d="M6.10039 6.99995C6.20039 7.19995 6.50039 7.29995 6.70039 7.29995C6.90039 7.29995 7.00039 7.19995 7.20039 7.09995C7.50039 6.79995 7.50039 6.29995 7.30039 5.99995L5.60039 3.99995C5.30039 3.69995 4.80039 3.69995 4.50039 3.89995C4.20039 4.19995 4.20039 4.69995 4.40039 4.99995L6.10039 6.99995Z" fill="white"/>
<path d="M17.3004 7.29995C17.5004 7.29995 17.7004 7.19995 17.9004 6.99995L19.6004 4.99995C19.9004 4.69995 19.8004 4.19995 19.5004 3.89995C19.2004 3.59995 18.7004 3.69995 18.4004 3.99995L16.7004 5.99995C16.4004 6.29995 16.5004 6.79995 16.8004 7.09995C17.0004 7.19995 17.1004 7.29995 17.3004 7.29995Z" fill="white"/>
</g>
</g>
<defs>
<clipPath id="clip0_7_2273">
<rect width="24" height="24" fill="white"/>
</clipPath>
</defs>
</svg>
