<svg width="24" height="24" viewBox="0 0 24 24" fill="none" xmlns="http://www.w3.org/2000/svg">
<g clip-path="url(#clip0_7_2248)">
<mask id="mask0_7_2248" style="mask-type:luminance" maskUnits="userSpaceOnUse" x="0" y="0" width="24" height="24">
<path d="M24 0H0V24H24V0Z" fill="white"/>
</mask>
<g mask="url(#mask0_7_2248)">
<path d="M18.5996 12.7C18.7996 12.3 18.7996 11.8 18.5996 11.4C17.2996 9.00005 14.7996 6.60005 11.9996 6.60005C9.19961 6.60005 6.69961 9.00005 5.39961 11.3C5.19961 11.7 5.19961 12.2001 5.39961 12.6C6.69961 15 9.19961 17.3 11.9996 17.3C14.7996 17.4 17.2996 15 18.5996 12.7ZM11.9996 15.9C10.1996 15.9 7.99961 14.3 6.79961 12C7.99961 9.70005 10.1996 8.10005 11.9996 8.10005C13.7996 8.10005 15.9996 9.70005 17.2996 12C15.9996 14.3 13.7996 15.9 11.9996 15.9Z" fill="white"/>
<path d="M10.1996 10.2C9.19961 11.2 9.19961 12.8 10.1996 13.7C10.6996 14.2 11.2996 14.4 11.9996 14.4C12.6996 14.4 13.2996 14.1 13.7996 13.7C14.7996 12.7 14.7996 11.1 13.7996 10.2C12.7996 9.30005 11.1996 9.30005 10.1996 10.2ZM12.6996 12.7C12.2996 13.1 11.6996 13.1 11.2996 12.7C10.8996 12.3 10.8996 11.7 11.2996 11.3C11.4996 11.1 11.7996 11 11.9996 11C12.1996 11 12.4996 11.1 12.6996 11.3C13.0996 11.7 13.0996 12.3 12.6996 12.7Z" fill="white"/>
<path d="M2.99961 8.30005C3.39961 8.30005 3.79961 8.00005 3.79961 7.50005V5.30005C3.79961 4.50005 4.49961 3.80005 5.29961 3.80005H7.49961C7.89961 3.80005 8.29961 3.50005 8.29961 3.00005C8.29961 2.50005 7.89961 2.30005 7.49961 2.30005H5.19961C3.49961 2.30005 2.19961 3.60005 2.19961 5.30005V7.50005C2.19961 7.90005 2.59961 8.30005 2.99961 8.30005Z" fill="white"/>
<path d="M7.49961 20.3H5.19961C4.39961 20.3 3.69961 19.6 3.69961 18.8V16.6C3.69961 16.2 3.39961 15.8 2.89961 15.8C2.39961 15.8 2.09961 16.1 2.09961 16.6V18.8C2.09961 20.5 3.39961 21.8 5.09961 21.8H7.29961C7.69961 21.8 8.09961 21.5 8.09961 21C8.09961 20.5 7.89961 20.3 7.49961 20.3Z" fill="white"/>
<path d="M20.9996 15.8C20.5996 15.8 20.1996 16.1 20.1996 16.6V18.8C20.1996 19.6 19.4996 20.3 18.6996 20.3H16.4996C16.0996 20.3 15.6996 20.6 15.6996 21.1C15.6996 21.6 15.9996 21.9 16.4996 21.9H18.6996C20.3996 21.9 21.6996 20.6 21.6996 18.9V16.7C21.7996 16.1 21.3996 15.8 20.9996 15.8Z" fill="white"/>
<path d="M18.7996 2.30005H16.5996C16.1996 2.30005 15.7996 2.60005 15.7996 3.10005C15.7996 3.60005 16.0996 3.90005 16.5996 3.90005H18.7996C19.5996 3.90005 20.2996 4.60005 20.2996 5.40005V7.60005C20.2996 8.00005 20.5996 8.40005 21.0996 8.40005C21.5996 8.40005 21.8996 8.10005 21.8996 7.60005V5.30005C21.7996 3.60005 20.3996 2.30005 18.7996 2.30005Z" fill="white"/>
</g>
</g>
<defs>
<clipPath id="clip0_7_2248">
<rect width="24" height="24" fill="white"/>
</clipPath>
</defs>
</svg>
