<svg width="24" height="24" viewBox="0 0 24 24" fill="none" xmlns="http://www.w3.org/2000/svg">
<path d="M2.25 5C2.25 3.48079 3.48079 2.25 5 2.25H19C20.5192 2.25 21.75 3.48079 21.75 5V8V10C21.75 10.4142 21.4142 10.75 21 10.75C20.5858 10.75 20.25 10.4142 20.25 10V8.75H3.75V18C3.75 18.6908 4.30921 19.25 5 19.25H9C9.41421 19.25 9.75 19.5858 9.75 20C9.75 20.4142 9.41421 20.75 9 20.75H5C3.48079 20.75 2.25 19.5192 2.25 18V8V5ZM20.25 5C20.25 4.30921 19.6908 3.75 19 3.75H5C4.30921 3.75 3.75 4.30921 3.75 5V7.25H20.25V5ZM5.24501 4.96132C5.40547 4.80083 5.60705 4.74023 5.779 4.74023C5.95095 4.74023 6.1525 4.80083 6.31295 4.96128C6.47341 5.12173 6.534 5.32329 6.534 5.49523C6.534 5.66718 6.47341 5.86874 6.31295 6.02919C6.1525 6.18964 5.95095 6.25023 5.779 6.25023C5.60705 6.25023 5.40547 6.18964 5.24501 6.02915C5.08456 5.86868 5.024 5.66713 5.024 5.49523C5.024 5.32334 5.08456 5.12179 5.24501 4.96132ZM8.327 4.74512C8.15505 4.74512 7.9535 4.80571 7.79304 4.96616C7.63259 5.12661 7.572 5.32817 7.572 5.50012C7.572 5.67206 7.63259 5.87362 7.79304 6.03407C7.9535 6.19453 8.15505 6.25512 8.327 6.25512C8.49895 6.25512 8.7005 6.19453 8.86095 6.03407C9.02141 5.87362 9.082 5.67206 9.082 5.50012C9.082 5.32817 9.02141 5.12661 8.86095 4.96616C8.7005 4.80571 8.49895 4.74512 8.327 4.74512ZM10.866 4.74512C10.6941 4.74512 10.4925 4.80571 10.332 4.96616C10.1716 5.12661 10.111 5.32817 10.111 5.50012C10.111 5.67206 10.1716 5.87362 10.332 6.03407C10.4925 6.19453 10.6941 6.25512 10.866 6.25512C11.0379 6.25512 11.2395 6.19453 11.4 6.03407C11.5604 5.87362 11.621 5.67206 11.621 5.50012C11.621 5.32817 11.5604 5.12661 11.4 4.96616C11.2395 4.80571 11.0379 4.74512 10.866 4.74512ZM21.084 15.834C21.084 17.0131 20.6951 18.1016 20.0387 18.978L21.5303 20.4697C21.8232 20.7626 21.8232 21.2375 21.5303 21.5303C21.2374 21.8232 20.7626 21.8232 20.4697 21.5303L18.978 20.0387C18.1016 20.6951 17.0131 21.084 15.834 21.084C12.9348 21.084 10.584 18.7332 10.584 15.834C10.584 12.9348 12.9348 10.584 15.834 10.584C18.7332 10.584 21.084 12.9348 21.084 15.834ZM15.834 12.084C13.7632 12.084 12.084 13.7632 12.084 15.834C12.084 17.9048 13.7632 19.584 15.834 19.584C17.9048 19.584 19.584 17.9048 19.584 15.834C19.584 13.7632 17.9048 12.084 15.834 12.084ZM18.1143 15.4893C18.4072 15.1964 18.4072 14.7215 18.1143 14.4287C17.8214 14.1358 17.3466 14.1358 17.0537 14.4287L15.396 16.0863L14.6133 15.3037C14.3204 15.0108 13.8456 15.0108 13.5527 15.3037C13.2598 15.5965 13.2598 16.0714 13.5527 16.3643L14.8657 17.6773C15.1586 17.9702 15.6334 17.9702 15.9263 17.6773L18.1143 15.4893Z" fill="white"/>
</svg>
