<svg width="24" height="24" viewBox="0 0 24 24" fill="none" xmlns="http://www.w3.org/2000/svg">
<path d="M14.75 3C14.75 2.58579 14.4142 2.25 14 2.25C13.5858 2.25 13.25 2.58579 13.25 3V3.25H7.75V3C7.75 2.58579 7.41421 2.25 7 2.25C6.58579 2.25 6.25 2.58579 6.25 3V3.25H5C3.48079 3.25 2.25 4.48079 2.25 6V9V16C2.25 17.5192 3.48079 18.75 5 18.75H13H13.586C14.0499 18.75 14.4946 18.566 14.8233 18.2373L18.2359 14.8247C18.5664 14.4956 18.75 14.0484 18.75 13.586V13V9V6C18.75 4.48079 17.5192 3.25 16 3.25H14.75V3ZM6.25 5C6.25 5.41421 6.58579 5.75 7 5.75C7.41421 5.75 7.75 5.41421 7.75 5V4.75H13.25V5C13.25 5.41421 13.5858 5.75 14 5.75C14.4142 5.75 14.75 5.41421 14.75 5V4.75H16C16.6908 4.75 17.25 5.30921 17.25 6V8.25H3.75V6C3.75 5.30921 4.30921 4.75 5 4.75H6.25V5ZM17.25 9.75V12.25H14C13.0338 12.25 12.25 13.0338 12.25 14V17.25H5C4.30921 17.25 3.75 16.6908 3.75 16V9.75H17.25ZM13.75 14C13.75 13.8622 13.8622 13.75 14 13.75H17.1887C17.1853 13.7539 17.1817 13.7576 17.1781 13.7613L17.1767 13.7627L13.7627 17.1767C13.7586 17.1808 13.7543 17.1847 13.75 17.1885V14ZM21.75 9C21.75 8.58579 21.4142 8.25 21 8.25C20.5858 8.25 20.25 8.58579 20.25 9V19C20.25 19.6908 19.6908 20.25 19 20.25H8C7.58579 20.25 7.25 20.5858 7.25 21C7.25 21.4142 7.58579 21.75 8 21.75H19C20.5192 21.75 21.75 20.5192 21.75 19V9Z" fill="white"/>
</svg>
