<svg width="24" height="24" viewBox="0 0 24 24" fill="none" xmlns="http://www.w3.org/2000/svg">
<g clip-path="url(#clip0_7_1836)">
<mask id="mask0_7_1836" style="mask-type:luminance" maskUnits="userSpaceOnUse" x="0" y="0" width="24" height="24">
<path d="M24 0H0V24H24V0Z" fill="white"/>
</mask>
<g mask="url(#mask0_7_1836)">
<path d="M18.0002 3.3001H16.8002V2.9001C16.8002 2.5001 16.5002 2.1001 16.0002 2.1001C15.5002 2.1001 15.2002 2.4001 15.2002 2.9001V3.3001H8.8002V2.9001C8.8002 2.5001 8.5002 2.1001 8.0002 2.1001C7.5002 2.1001 7.2002 2.5001 7.2002 2.9001V3.3001H6.0002C3.9002 3.3001 2.2002 4.9001 2.2002 7.0001V18.0001C2.2002 20.1001 3.9002 21.8001 6.0002 21.8001H18.0002C20.1002 21.8001 21.8002 20.1001 21.8002 18.0001V7.0001C21.8002 4.9001 20.1002 3.3001 18.0002 3.3001ZM6.0002 4.8001H7.2002V5.2001C7.2002 5.6001 7.5002 6.0001 8.0002 6.0001C8.5002 6.0001 8.8002 5.7001 8.8002 5.2001V4.8001H15.3002V5.2001C15.3002 5.6001 15.6002 6.0001 16.1002 6.0001C16.6002 6.0001 16.9002 5.7001 16.9002 5.2001V4.8001H18.0002C19.2002 4.8001 20.2002 5.8001 20.2002 7.0001V8.2001H3.8002V7.0001C3.8002 5.8001 4.8002 4.8001 6.0002 4.8001ZM18.0002 20.3001H6.0002C4.8002 20.3001 3.8002 19.3001 3.8002 18.1001V9.8001H20.3002V18.0001C20.2002 19.3001 19.2002 20.3001 18.0002 20.3001Z" fill="white"/>
<path d="M16.2002 16.8001H15.6002V12.5001C15.6002 12.4001 15.6002 12.4001 15.6002 12.3001C15.6002 12.2001 15.5002 12.2001 15.5002 12.2001C15.5002 12.2001 15.5002 12.1001 15.4002 12.1001L15.2002 11.9001H15.1002C15.0002 11.9001 15.0002 11.9001 14.9002 11.9001H14.8002C14.7002 11.9001 14.7002 11.9001 14.6002 11.9001C14.5002 11.9001 14.5002 12.0001 14.5002 12.0001C14.5002 12.0001 14.4002 12.0001 14.4002 12.1001L12.9002 13.4001C12.6002 13.7001 12.6002 14.2001 12.8002 14.5001C12.9002 14.7001 13.2002 14.7001 13.4002 14.7001C13.6002 14.7001 13.8002 14.6001 13.9002 14.5001L14.1002 14.3001V16.9001H13.5002C13.1002 16.9001 12.7002 17.2001 12.7002 17.7001C12.7002 18.2001 13.0002 18.5001 13.5002 18.5001H16.2002C16.6002 18.5001 17.0002 18.2001 17.0002 17.7001C17.0002 17.2001 16.7002 16.8001 16.2002 16.8001Z" fill="white"/>
<path d="M10.8002 16.8001H10.2002V12.5001C10.2002 12.4001 10.2002 12.4001 10.2002 12.3001C10.2002 12.2001 10.1002 12.2001 10.1002 12.2001C10.1002 12.2001 10.1002 12.1001 10.0002 12.1001L9.8002 11.9001H9.7002C9.6002 11.9001 9.6002 11.9001 9.5002 11.9001H9.4002C9.3002 11.9001 9.3002 11.9001 9.2002 11.9001C9.1002 11.9001 9.1002 12.0001 9.1002 12.0001C9.1002 12.0001 9.0002 12.0001 9.0002 12.1001L7.5002 13.4001C7.2002 13.7001 7.2002 14.2001 7.4002 14.5001C7.5002 14.7001 7.8002 14.7001 8.0002 14.7001C8.2002 14.7001 8.4002 14.6001 8.5002 14.5001L8.7002 14.3001V16.9001H8.1002C7.7002 16.9001 7.3002 17.2001 7.3002 17.7001C7.3002 18.2001 7.6002 18.5001 8.1002 18.5001H10.8002C11.2002 18.5001 11.6002 18.2001 11.6002 17.7001C11.6002 17.2001 11.2002 16.8001 10.8002 16.8001Z" fill="white"/>
</g>
</g>
<defs>
<clipPath id="clip0_7_1836">
<rect width="24" height="24" fill="white"/>
</clipPath>
</defs>
</svg>
