<svg width="24" height="24" viewBox="0 0 24 24" fill="none" xmlns="http://www.w3.org/2000/svg">
<path d="M8 2.12988C8.41421 2.12988 8.75 2.46567 8.75 2.87988V3.25H15.25V2.87988C15.25 2.46567 15.5858 2.12988 16 2.12988C16.4142 2.12988 16.75 2.46567 16.75 2.87988V3.25H18C20.0712 3.25 21.75 4.92879 21.75 7V9V18C21.75 20.0712 20.0712 21.75 18 21.75H6C3.92879 21.75 2.25 20.0712 2.25 18V9V7C2.25 4.92879 3.92879 3.25 6 3.25H7.25V2.87988C7.25 2.46567 7.58579 2.12988 8 2.12988ZM7.25 5.11988V4.75H6C4.75721 4.75 3.75 5.75721 3.75 7V8.25H20.25V7C20.25 5.75721 19.2428 4.75 18 4.75H16.75V5.11988C16.75 5.5341 16.4142 5.86988 16 5.86988C15.5858 5.86988 15.25 5.5341 15.25 5.11988V4.75H8.75V5.11988C8.75 5.5341 8.41421 5.86988 8 5.86988C7.58579 5.86988 7.25 5.5341 7.25 5.11988ZM3.75 18C3.75 19.2428 4.75721 20.25 6 20.25H18C19.2428 20.25 20.25 19.2428 20.25 18V9.75H3.75V18ZM15.2144 11.8145C15.4853 11.9349 15.66 12.2035 15.66 12.5V16.75H16.25C16.6642 16.75 17 17.0858 17 17.5C17 17.9142 16.6642 18.25 16.25 18.25H14.9148H14.91H14.9052H13.57C13.1558 18.25 12.82 17.9142 12.82 17.5C12.82 17.0858 13.1558 16.75 13.57 16.75H14.16V14.1892L13.953 14.3763C13.6457 14.6541 13.1715 14.6303 12.8937 14.323C12.6159 14.0157 12.6398 13.5415 12.947 13.2637L14.407 11.9437C14.6269 11.7448 14.9434 11.6942 15.2144 11.8145ZM8.9705 13.6683C9.0454 13.4092 9.25919 13.25 9.496 13.25C9.81016 13.25 10.065 13.5046 10.065 13.819C10.065 14.0568 9.87179 14.25 9.634 14.25C9.21979 14.25 8.884 14.5858 8.884 15C8.884 15.4142 9.21979 15.75 9.634 15.75C9.87179 15.75 10.065 15.9432 10.065 16.181C10.065 16.4952 9.81042 16.75 9.496 16.75C9.25919 16.75 9.0454 16.5908 8.9705 16.3317C8.85546 15.9338 8.43963 15.7045 8.04171 15.8195C7.64379 15.9345 7.41447 16.3504 7.5295 16.7483C7.7726 17.5892 8.53081 18.25 9.496 18.25C10.6396 18.25 11.565 17.3228 11.565 16.181C11.565 15.7362 11.4145 15.3265 11.1617 15C11.4145 14.6735 11.565 14.2638 11.565 13.819C11.565 12.6754 10.6378 11.75 9.496 11.75C8.53081 11.75 7.7726 12.4108 7.5295 13.2517C7.41447 13.6496 7.64379 14.0655 8.04171 14.1805C8.43963 14.2955 8.85546 14.0662 8.9705 13.6683Z" fill="white"/>
</svg>
