<svg width="24" height="24" viewBox="0 0 24 24" fill="none" xmlns="http://www.w3.org/2000/svg">
<g clip-path="url(#clip0_7_1902)">
<mask id="mask0_7_1902" style="mask-type:luminance" maskUnits="userSpaceOnUse" x="0" y="0" width="24" height="24">
<path d="M24 0H0V24H24V0Z" fill="white"/>
</mask>
<g mask="url(#mask0_7_1902)">
<path d="M19.0002 3.29995H16.8002V2.99995C16.8002 2.59995 16.5002 2.19995 16.0002 2.19995C15.5002 2.19995 15.2002 2.59995 15.2002 2.99995V3.19995H12.7002V2.99995C12.7002 2.59995 12.4002 2.19995 11.9002 2.19995C11.4002 2.19995 11.2002 2.59995 11.2002 2.99995V3.19995H8.8002V2.99995C8.8002 2.59995 8.5002 2.19995 8.0002 2.19995C7.5002 2.19995 7.2002 2.59995 7.2002 2.99995V3.19995H5.0002C3.5002 3.29995 2.2002 4.49995 2.2002 5.99995V19C2.2002 20.5 3.4002 21.7999 5.0002 21.7999H19.0002C20.5002 21.7999 21.8002 20.6 21.8002 19V5.99995C21.8002 4.49995 20.5002 3.29995 19.0002 3.29995ZM20.2002 19C20.2002 19.7 19.6002 20.2 19.0002 20.2H5.0002C4.3002 20.2 3.8002 19.6 3.8002 19V5.99995C3.8002 5.29995 4.4002 4.79995 5.0002 4.79995H7.2002V5.99995C7.2002 6.39995 7.5002 6.79995 8.0002 6.79995C8.5002 6.79995 8.8002 6.39995 8.8002 5.99995V4.79995H11.3002V5.99995C11.3002 6.39995 11.6002 6.79995 12.1002 6.79995C12.6002 6.79995 12.9002 6.49995 12.9002 5.99995V4.79995H15.4002V5.99995C15.4002 6.39995 15.7002 6.79995 16.2002 6.79995C16.7002 6.79995 17.0002 6.49995 17.0002 5.99995V4.79995H19.0002C19.7002 4.79995 20.2002 5.39995 20.2002 5.99995V19Z" fill="white"/>
<path d="M17.0002 15.3H12.0002C11.6002 15.3 11.2002 15.6 11.2002 16.1C11.2002 16.6 11.5002 16.9 12.0002 16.9H17.0002C17.4002 16.9 17.8002 16.6 17.8002 16.1C17.8002 15.6 17.4002 15.3 17.0002 15.3Z" fill="white"/>
<path d="M6.3002 14.6C5.5002 15.4 5.5002 16.5999 6.3002 17.4C6.7002 17.7999 7.2002 18 7.8002 18C8.4002 18 8.8002 17.7999 9.2002 17.4C10.0002 16.5999 10.0002 15.4 9.2002 14.6C8.4002 13.8 7.1002 13.8 6.3002 14.6ZM8.1002 16.4C7.9002 16.5999 7.6002 16.5999 7.4002 16.4C7.2002 16.2 7.2002 15.9 7.4002 15.7C7.5002 15.6 7.6002 15.6 7.8002 15.6C8.0002 15.6 8.1002 15.6 8.2002 15.7C8.3002 15.8 8.3002 16.2 8.1002 16.4Z" fill="white"/>
<path d="M17.0002 10.3H12.0002C11.6002 10.3 11.2002 10.6 11.2002 11.1C11.2002 11.6 11.5002 11.9 12.0002 11.9H17.0002C17.4002 11.9 17.8002 11.6 17.8002 11.1C17.8002 10.6 17.4002 10.3 17.0002 10.3Z" fill="white"/>
<path d="M9.2002 9.59995C8.4002 8.79995 7.2002 8.79995 6.4002 9.59995C5.6002 10.4 5.6002 11.5999 6.4002 12.4C6.7002 12.7999 7.2002 13 7.8002 13C8.4002 13 8.8002 12.7999 9.2002 12.4C9.9002 11.5999 9.9002 10.4 9.2002 9.59995ZM8.1002 11.4C7.9002 11.5999 7.6002 11.5999 7.4002 11.4C7.2002 11.2 7.2002 10.9 7.4002 10.7C7.5002 10.6 7.6002 10.6 7.8002 10.6C8.0002 10.6 8.1002 10.6 8.2002 10.7C8.3002 10.8 8.3002 11.2 8.1002 11.4Z" fill="white"/>
</g>
</g>
<defs>
<clipPath id="clip0_7_1902">
<rect width="24" height="24" fill="white"/>
</clipPath>
</defs>
</svg>
