<svg width="24" height="24" viewBox="0 0 24 24" fill="none" xmlns="http://www.w3.org/2000/svg">
<path d="M7.75 3C7.75 2.58579 7.41421 2.25 7 2.25C6.58579 2.25 6.25 2.58579 6.25 3V3.25H5C3.48079 3.25 2.25 4.48079 2.25 6V8V17C2.25 18.5192 3.48079 19.75 5 19.75H11.9489C12.9242 21.5376 14.8207 22.75 17 22.75C20.1763 22.75 22.75 20.1751 22.75 17C22.75 14.8205 21.5375 12.9241 19.75 11.9489V8V6C19.75 4.48079 18.5192 3.25 17 3.25H15.75V3C15.75 2.58579 15.4142 2.25 15 2.25C14.5858 2.25 14.25 2.58579 14.25 3V3.25H7.75V3ZM18.6678 13.0896C18.6889 13.1001 18.7106 13.1095 18.7328 13.118C20.2164 13.7812 21.25 15.2699 21.25 17C21.25 19.3469 19.3477 21.25 17 21.25C15.2696 21.25 13.7804 20.2158 13.1175 18.7315C13.1093 18.7102 13.1002 18.6894 13.0902 18.6691C12.8712 18.1567 12.75 17.5925 12.75 17C12.75 14.7102 14.714 12.7475 17.0032 12.75C17.5939 12.7504 18.1568 12.8714 18.6678 13.0896ZM18.25 11.3862C17.8491 11.2973 17.4321 11.2503 17.0045 11.25C13.8858 11.2467 11.25 13.8819 11.25 17C11.25 17.4293 11.297 17.8476 11.3862 18.25H5C4.30921 18.25 3.75 17.6908 3.75 17V8.75H18.25V11.3862ZM6.25 4.75V5C6.25 5.41421 6.58579 5.75 7 5.75C7.41421 5.75 7.75 5.41421 7.75 5V4.75H14.25V5C14.25 5.41421 14.5858 5.75 15 5.75C15.4142 5.75 15.75 5.41421 15.75 5V4.75H17C17.6908 4.75 18.25 5.30921 18.25 6V7.25H3.75V6C3.75 5.30921 4.30921 4.75 5 4.75H6.25ZM10 11.001C10 10.4497 10.4458 10 11 10C11.5522 10 12 10.4478 12 11C12 11.5513 11.5537 11.9985 11.0027 12C10.4465 12.0026 10 11.5513 10 11.001ZM11.0027 12H11.0054L11.0018 11.5H11V12H11.0027ZM17 14.25C17.4142 14.25 17.75 14.5858 17.75 15V16.25H19C19.4142 16.25 19.75 16.5858 19.75 17C19.75 17.4142 19.4142 17.75 19 17.75H17.75V19C17.75 19.4142 17.4142 19.75 17 19.75C16.5858 19.75 16.25 19.4142 16.25 19V17.75H15C14.5858 17.75 14.25 17.4142 14.25 17C14.25 16.5858 14.5858 16.25 15 16.25H16.25V15C16.25 14.5858 16.5858 14.25 17 14.25Z" fill="white"/>
</svg>
