<svg width="24" height="24" viewBox="0 0 24 24" fill="none" xmlns="http://www.w3.org/2000/svg">
<path d="M7.75 3C7.75 2.58579 7.41421 2.25 7 2.25C6.58579 2.25 6.25 2.58579 6.25 3V3.25H6C3.92879 3.25 2.25 4.92879 2.25 7V9V16C2.25 18.0712 3.92879 19.75 6 19.75H11C11.4142 19.75 11.75 19.4142 11.75 19C11.75 18.5858 11.4142 18.25 11 18.25H6C4.75721 18.25 3.75 17.2428 3.75 16V9.75H18.25V10C18.25 10.4142 18.5858 10.75 19 10.75C19.4142 10.75 19.75 10.4142 19.75 10V9V7C19.75 4.92879 18.0712 3.25 16 3.25H15.75V3C15.75 2.58579 15.4142 2.25 15 2.25C14.5858 2.25 14.25 2.58579 14.25 3V3.25H7.75V3ZM6.25 4.75V5C6.25 5.41421 6.58579 5.75 7 5.75C7.41421 5.75 7.75 5.41421 7.75 5V4.75H14.25V5C14.25 5.41421 14.5858 5.75 15 5.75C15.4142 5.75 15.75 5.41421 15.75 5V4.75H16C17.2428 4.75 18.25 5.75721 18.25 7V8.25H3.75V7C3.75 5.75721 4.75721 4.75 6 4.75H6.25ZM18.5904 14.4091L18.2719 17.8593C17.5275 18.3816 16.4709 18.3815 15.7266 17.859C14.5375 17.025 14.4344 15.3832 15.4083 14.4093C16.2875 13.5301 17.7125 13.5304 18.5904 14.4091ZM18.6226 17.5588C18.6114 17.5687 18.6004 17.5791 18.5897 17.5898C18.5784 17.601 18.5676 17.6125 18.5572 17.6243C18.4704 17.708 18.3751 17.7868 18.2719 17.8593L18.5904 14.4091C19.4575 15.2763 19.4707 16.6736 18.6226 17.5588ZM20.1293 18.0688C21.0924 16.6144 20.9353 14.6326 19.6513 13.3487C18.1872 11.8836 15.8123 11.884 14.3477 13.3487C12.7256 14.9707 12.9004 17.7088 14.8651 19.0869C16.1055 19.9575 17.8138 19.9721 19.0699 19.1307L20.4697 20.5304C20.7626 20.8233 21.2374 20.8233 21.5303 20.5304C21.8232 20.2376 21.8232 19.7627 21.5303 19.4698L20.1293 18.0688Z" fill="white"/>
</svg>
