<svg width="24" height="24" viewBox="0 0 24 24" fill="none" xmlns="http://www.w3.org/2000/svg">
<path d="M7.75 3C7.75 2.58579 7.41421 2.25 7 2.25C6.58579 2.25 6.25 2.58579 6.25 3V3.25H5C3.48079 3.25 2.25 4.48079 2.25 6V8V17C2.25 18.5192 3.48079 19.75 5 19.75H11C11.4142 19.75 11.75 19.4142 11.75 19C11.75 18.5858 11.4142 18.25 11 18.25H5C4.30921 18.25 3.75 17.6908 3.75 17V8.75H18.25V10C18.25 10.4142 18.5858 10.75 19 10.75C19.4142 10.75 19.75 10.4142 19.75 10V8V6C19.75 4.48079 18.5192 3.25 17 3.25H15.75V3C15.75 2.58579 15.4142 2.25 15 2.25C14.5858 2.25 14.25 2.58579 14.25 3V3.25H7.75V3ZM6.25 4.75V5C6.25 5.41421 6.58579 5.75 7 5.75C7.41421 5.75 7.75 5.41421 7.75 5V4.75H14.25V5C14.25 5.41421 14.5858 5.75 15 5.75C15.4142 5.75 15.75 5.41421 15.75 5V4.75H17C17.6908 4.75 18.25 5.30921 18.25 6V7.25H3.75V6C3.75 5.30921 4.30921 4.75 5 4.75H6.25ZM10 11.001C10 10.4497 10.4458 10 11 10C11.5522 10 12 10.4478 12 11C12 11.5513 11.5537 11.9985 11.0027 12C10.4465 12.0026 10 11.5513 10 11.001ZM11.0027 12H11.0054L11.0018 11.5H11V12H11.0027ZM20.6513 12.7624C19.968 12.0791 18.8599 12.0779 18.1764 12.7627L13.7627 17.1764C13.434 17.5051 13.25 17.9499 13.25 18.4138V20.9998C13.25 21.414 13.5858 21.7498 14 21.7498H16.586C17.0499 21.7498 17.4946 21.5658 17.8233 21.2371L22.2373 16.8231C22.9208 16.1397 22.9216 15.0312 22.2367 14.3478L20.6513 12.7624ZM19.238 13.8224C19.3346 13.7256 19.4922 13.7246 19.5907 13.8231L21.1773 15.4098C21.2742 15.5063 21.2752 15.6639 21.1767 15.7624L16.7627 20.1764C16.7154 20.2237 16.6521 20.2498 16.586 20.2498H14.75V18.4138C14.75 18.3476 14.776 18.2844 14.8233 18.2371L19.238 13.8224Z" fill="white"/>
</svg>
