<svg width="24" height="24" viewBox="0 0 24 24" fill="none" xmlns="http://www.w3.org/2000/svg">
<path d="M7.75 3C7.75 2.58579 7.41421 2.25 7 2.25C6.58579 2.25 6.25 2.58579 6.25 3V3.25H5C3.48079 3.25 2.25 4.48079 2.25 6V17C2.25 18.5192 3.48079 19.75 5 19.75H13.3778C14.3393 20.9681 15.8289 21.75 17.501 21.75C20.4013 21.75 22.751 19.3991 22.751 16.5C22.751 14.4052 21.5245 12.5969 19.75 11.7545V6C19.75 4.48079 18.5192 3.25 17 3.25H15.75V3C15.75 2.58579 15.4142 2.25 15 2.25C14.5858 2.25 14.25 2.58579 14.25 3V3.25H11.75V3C11.75 2.58579 11.4142 2.25 11 2.25C10.5858 2.25 10.25 2.58579 10.25 3V3.25H7.75V3ZM18.6833 12.94C18.7264 12.9602 18.7719 12.9763 18.819 12.988C20.2401 13.5214 21.251 14.8926 21.251 16.5C21.251 18.5709 19.5727 20.25 17.501 20.25C15.4302 20.25 13.751 18.5708 13.751 16.5C13.751 14.4805 15.4848 12.7483 17.5044 12.75C17.9163 12.7503 18.3126 12.8171 18.6833 12.94ZM18.25 11.303C18.0069 11.2683 17.7583 11.2502 17.5056 11.25C14.6572 11.2477 12.251 13.6515 12.251 16.5C12.251 17.1136 12.3563 17.7026 12.5498 18.25H5C4.30921 18.25 3.75 17.6908 3.75 17V6C3.75 5.30921 4.30921 4.75 5 4.75H6.25V5C6.25 5.41421 6.58579 5.75 7 5.75C7.41421 5.75 7.75 5.41421 7.75 5V4.75H10.25V5C10.25 5.41421 10.5858 5.75 11 5.75C11.4142 5.75 11.75 5.41421 11.75 5V4.75H14.25V5C14.25 5.41421 14.5858 5.75 15 5.75C15.4142 5.75 15.75 5.41421 15.75 5V4.75H17C17.6908 4.75 18.25 5.30921 18.25 6V11.303ZM7 8.25C6.58579 8.25 6.25 8.58579 6.25 9C6.25 9.41421 6.58579 9.75 7 9.75H15C15.4142 9.75 15.75 9.41421 15.75 9C15.75 8.58579 15.4142 8.25 15 8.25H7ZM6.25 13C6.25 12.5858 6.58579 12.25 7 12.25H10C10.4142 12.25 10.75 12.5858 10.75 13C10.75 13.4142 10.4142 13.75 10 13.75H7C6.58579 13.75 6.25 13.4142 6.25 13ZM17.5 13.9502C17.9142 13.9502 18.25 14.286 18.25 14.7002V15.75H19.3C19.7142 15.75 20.05 16.0858 20.05 16.5C20.05 16.9142 19.7142 17.25 19.3 17.25H18.25V18.3002C18.25 18.7144 17.9142 19.0502 17.5 19.0502C17.0858 19.0502 16.75 18.7144 16.75 18.3002V17.25H15.7C15.2858 17.25 14.95 16.9142 14.95 16.5C14.95 16.0858 15.2858 15.75 15.7 15.75H16.75V14.7002C16.75 14.286 17.0858 13.9502 17.5 13.9502Z" fill="white"/>
</svg>
