<svg width="24" height="24" viewBox="0 0 24 24" fill="none" xmlns="http://www.w3.org/2000/svg">
<path d="M8 1.25C8.41421 1.25 8.75 1.58579 8.75 2V3.25H15.25V2C15.25 1.58579 15.5858 1.25 16 1.25C16.4142 1.25 16.75 1.58579 16.75 2V3.25H19C20.5192 3.25 21.75 4.48079 21.75 6V9V15V19C21.75 20.5192 20.5192 21.75 19 21.75H15H9H5C3.48079 21.75 2.25 20.5192 2.25 19V15V9V6C2.25 4.48079 3.48079 3.25 5 3.25H7.25V2C7.25 1.58579 7.58579 1.25 8 1.25ZM3.75 15.75V19C3.75 19.6908 4.30921 20.25 5 20.25H8.25V15.75H3.75ZM8.25 14.25V9.75H3.75V14.25H8.25ZM9.75 15.75V20.25H14.25V15.75H9.75ZM14.25 14.25V9.75H9.75V14.25H14.25ZM15.75 15.75V20.25H19C19.6908 20.25 20.25 19.6908 20.25 19V15.75H15.75ZM20.25 14.25V9.75H15.75V14.25H20.25ZM20.25 8.25V6C20.25 5.30921 19.6908 4.75 19 4.75H16.75V6C16.75 6.41421 16.4142 6.75 16 6.75C15.5858 6.75 15.25 6.41421 15.25 6V4.75H8.75V6C8.75 6.41421 8.41421 6.75 8 6.75C7.58579 6.75 7.25 6.41421 7.25 6V4.75H5C4.30921 4.75 3.75 5.30921 3.75 6V8.25H9H15H20.25Z" fill="white"/>
</svg>
