<svg width="24" height="24" viewBox="0 0 24 24" fill="none" xmlns="http://www.w3.org/2000/svg">
<g clip-path="url(#clip0_7_1892)">
<mask id="mask0_7_1892" style="mask-type:luminance" maskUnits="userSpaceOnUse" x="0" y="0" width="24" height="24">
<path d="M24 0H0V24H24V0Z" fill="white"/>
</mask>
<g mask="url(#mask0_7_1892)">
<path d="M17.0002 6.2999H7.0002C6.6002 6.2999 6.2002 6.5999 6.2002 6.9999C6.2002 7.3999 6.6002 7.7999 7.0002 7.7999H17.0002C17.4002 7.7999 17.8002 7.4999 17.8002 6.9999C17.8002 6.4999 17.4002 6.2999 17.0002 6.2999Z" fill="white"/>
<path d="M14.9002 12.1999L13.6002 11.9999L13.0002 10.8999C12.8002 10.4999 12.4002 10.2999 12.0002 10.2999C11.6002 10.2999 11.2002 10.4999 11.0002 10.8999L10.4002 12.0999L9.1002 12.2999C8.7002 12.3999 8.30019 12.6999 8.20019 13.0999C8.10019 13.4999 8.20019 13.9999 8.5002 14.2999L9.40019 15.1999L9.20019 16.4999C9.10019 16.8999 9.30019 17.3999 9.70019 17.5999C9.9002 17.6999 10.1002 17.7999 10.4002 17.7999C10.6002 17.7999 10.8002 17.7999 10.9002 17.6999L12.0002 16.9999L13.2002 17.5999C13.6002 17.7999 14.1002 17.7999 14.4002 17.4999C14.8002 17.1999 14.9002 16.7999 14.9002 16.3999L14.7002 15.0999L15.6002 14.1999C15.9002 13.8999 16.0002 13.3999 15.9002 12.9999C15.7002 12.5999 15.3002 12.2999 14.9002 12.1999ZM13.3002 14.2999C13.1002 14.4999 13.0002 14.6999 13.1002 14.9999L13.3002 15.9999L12.4002 15.4999C12.2002 15.3999 11.9002 15.3999 11.7002 15.4999L10.8002 15.9999L11.0002 14.9999C11.0002 14.7999 11.0002 14.4999 10.8002 14.2999L10.0002 13.5999L11.0002 13.4999C11.2002 13.4999 11.5002 13.2999 11.6002 13.0999L12.0002 12.1999L12.4002 13.0999C12.5002 13.2999 12.7002 13.4999 13.0002 13.4999L14.0002 13.5999L13.3002 14.2999Z" fill="white"/>
<path d="M19.0002 2.3999H5.0002C3.5002 2.3999 2.2002 3.5999 2.2002 5.1999V18.9999C2.2002 20.4999 3.4002 21.7999 5.0002 21.7999H19.0002C20.5002 21.7999 21.8002 20.5999 21.8002 18.9999V5.1999C21.8002 3.5999 20.5002 2.3999 19.0002 2.3999ZM20.2002 18.9999C20.2002 19.6999 19.6002 20.1999 19.0002 20.1999H5.0002C4.3002 20.1999 3.8002 19.5999 3.8002 18.9999V5.1999C3.8002 4.4999 4.4002 3.9999 5.0002 3.9999H19.0002C19.7002 3.9999 20.2002 4.5999 20.2002 5.1999V18.9999Z" fill="white"/>
</g>
</g>
<defs>
<clipPath id="clip0_7_1892">
<rect width="24" height="24" fill="white"/>
</clipPath>
</defs>
</svg>
