<svg width="24" height="24" viewBox="0 0 24 24" fill="none" xmlns="http://www.w3.org/2000/svg">
<path d="M7 2.25C7.41421 2.25 7.75 2.58579 7.75 3V3.25H14.25V3C14.25 2.58579 14.5858 2.25 15 2.25C15.4142 2.25 15.75 2.58579 15.75 3V3.25H17C18.5192 3.25 19.75 4.48079 19.75 6V8V10C19.75 10.4142 19.4142 10.75 19 10.75C18.5858 10.75 18.25 10.4142 18.25 10V8.75H3.75V17C3.75 17.6908 4.30921 18.25 5 18.25H10C10.4142 18.25 10.75 18.5858 10.75 19C10.75 19.4142 10.4142 19.75 10 19.75H5C3.48079 19.75 2.25 18.5192 2.25 17V8V6C2.25 4.48079 3.48079 3.25 5 3.25H6.25V3C6.25 2.58579 6.58579 2.25 7 2.25ZM6.25 5V4.75H5C4.30921 4.75 3.75 5.30921 3.75 6V7.25H18.25V6C18.25 5.30921 17.6908 4.75 17 4.75H15.75V5C15.75 5.41421 15.4142 5.75 15 5.75C14.5858 5.75 14.25 5.41421 14.25 5V4.75H7.75V5C7.75 5.41421 7.41421 5.75 7 5.75C6.58579 5.75 6.25 5.41421 6.25 5ZM16.916 13.978C16.3623 13.978 15.8504 14.1493 15.4215 14.4417C15.0793 14.675 14.6127 14.5868 14.3794 14.2446C14.146 13.9023 14.2342 13.4357 14.5765 13.2024C15.2416 12.7488 16.0457 12.478 16.916 12.478C18.9339 12.478 20.6171 13.9104 21.0042 15.814C21.1863 15.815 21.3686 15.8819 21.5121 16.016C21.8147 16.2989 21.8308 16.7735 21.5479 17.0761L20.8189 17.8561C20.6771 18.0078 20.4787 18.094 20.271 18.094C20.0633 18.094 19.8649 18.0078 19.7231 17.8561L18.9941 17.0761C18.7112 16.7735 18.7273 16.2989 19.0299 16.016C19.152 15.9019 19.302 15.8365 19.4562 15.8188C19.1068 14.7501 18.1016 13.978 16.916 13.978ZM13.563 15.1318C13.7709 15.1318 13.9694 15.2181 14.1113 15.3701L14.8403 16.1511C15.1229 16.4539 15.1066 16.9285 14.8038 17.2111C14.6814 17.3253 14.531 17.3907 14.3765 17.4081C14.7257 18.4774 15.7311 19.2499 16.917 19.2499C17.47 19.2499 17.982 19.0781 18.4115 18.7852C18.7537 18.5519 19.2203 18.6401 19.4536 18.9823C19.687 19.3245 19.5988 19.7911 19.2565 20.0245C18.592 20.4777 17.788 20.7499 16.917 20.7499C14.8987 20.7499 13.2153 19.3169 12.8286 17.4128C12.647 17.4116 12.4654 17.3448 12.3222 17.2111C12.0194 16.9285 12.0031 16.4539 12.2857 16.1511L13.0147 15.3701C13.1566 15.2181 13.3551 15.1318 13.563 15.1318ZM11 10C10.4458 10 10 10.4497 10 11.001C10 11.5513 10.4465 12.0026 11.0027 12H11V11.5H11.0018L11.0054 12H11.0027C11.5537 11.9985 12 11.5513 12 11C12 10.4478 11.5522 10 11 10Z" fill="white"/>
</svg>
