<svg width="24" height="24" viewBox="0 0 24 24" fill="none" xmlns="http://www.w3.org/2000/svg">
<path d="M8 2.25C8.41421 2.25 8.75 2.58579 8.75 3V3.25H15.25V3C15.25 2.58579 15.5858 2.25 16 2.25C16.4142 2.25 16.75 2.58579 16.75 3V3.25H18C20.0712 3.25 21.75 4.92879 21.75 7V18C21.75 20.0712 20.0712 21.75 18 21.75H6C3.92879 21.75 2.25 20.0712 2.25 18V7C2.25 4.92879 3.92879 3.25 6 3.25H7.25V3C7.25 2.58579 7.58579 2.25 8 2.25ZM7.25 5.25V4.75H6C4.75721 4.75 3.75 5.75721 3.75 7V8.25H20.25V7C20.25 5.75721 19.2428 4.75 18 4.75H16.75V5.25C16.75 5.66421 16.4142 6 16 6C15.5858 6 15.25 5.66421 15.25 5.25V4.75H8.75V5.25C8.75 5.66421 8.41421 6 8 6C7.58579 6 7.25 5.66421 7.25 5.25ZM3.75 18C3.75 19.2428 4.75721 20.25 6 20.25H18C19.2428 20.25 20.25 19.2428 20.25 18V9.75H3.75V18ZM14.6293 13.4302C14.9222 13.1373 14.9222 12.6625 14.6293 12.3696C14.3364 12.0767 13.8615 12.0767 13.5687 12.3696L9.36866 16.5696C9.07576 16.8625 9.07576 17.3373 9.36866 17.6302C9.66155 17.9231 10.1364 17.9231 10.4293 17.6302L14.6293 13.4302Z" fill="white"/>
<path d="M10.5 13.25C10.5 13.6642 10.1642 14 9.75 14C9.33579 14 9 13.6642 9 13.25C9 12.8358 9.33579 12.5 9.75 12.5C10.1642 12.5 10.5 12.8358 10.5 13.25Z" fill="white"/>
<path d="M15 16.75C15 17.1642 14.6642 17.5 14.25 17.5C13.8358 17.5 13.5 17.1642 13.5 16.75C13.5 16.3358 13.8358 16 14.25 16C14.6642 16 15 16.3358 15 16.75Z" fill="white"/>
</svg>
