<svg width="24" height="24" viewBox="0 0 24 24" fill="none" xmlns="http://www.w3.org/2000/svg">
<path d="M8 1.25C8.41421 1.25 8.75 1.58579 8.75 2V3.25H15.25V2C15.25 1.58579 15.5858 1.25 16 1.25C16.4142 1.25 16.75 1.58579 16.75 2V3.25H19C20.5192 3.25 21.75 4.48079 21.75 6V9V19C21.75 20.5192 20.5192 21.75 19 21.75H5C3.48079 21.75 2.25 20.5192 2.25 19V9V6C2.25 4.48079 3.48079 3.25 5 3.25H7.25V2C7.25 1.58579 7.58579 1.25 8 1.25ZM7.25 6V4.75H5C4.30921 4.75 3.75 5.30921 3.75 6V8.25H20.25V6C20.25 5.30921 19.6908 4.75 19 4.75H16.75V6C16.75 6.41421 16.4142 6.75 16 6.75C15.5858 6.75 15.25 6.41421 15.25 6V4.75H8.75V6C8.75 6.41421 8.41421 6.75 8 6.75C7.58579 6.75 7.25 6.41421 7.25 6ZM3.75 19C3.75 19.6908 4.30921 20.25 5 20.25H19C19.6908 20.25 20.25 19.6908 20.25 19V9.75H3.75V19ZM12.5917 11.9711C12.6233 12.0029 12.6521 12.0375 12.6777 12.0745C12.7037 12.1122 12.7259 12.1517 12.7442 12.1924C12.7865 12.2863 12.81 12.3904 12.81 12.5V16.75H13.4C13.8142 16.75 14.15 17.0858 14.15 17.5C14.15 17.9142 13.8142 18.25 13.4 18.25H12.06H10.72C10.3058 18.25 9.96997 17.9142 9.96997 17.5C9.96997 17.0858 10.3058 16.75 10.72 16.75H11.31V14.1892L11.103 14.3763C10.7957 14.6541 10.3214 14.6302 10.0436 14.323C9.76586 14.0157 9.78974 13.5415 10.097 13.2637L11.557 11.9437C11.6275 11.8799 11.7068 11.8321 11.7904 11.7999C11.862 11.7723 11.9388 11.7554 12.019 11.7511M12.5917 11.9711C12.5273 11.9062 12.4537 11.8555 12.3748 11.8191C12.2793 11.7749 12.173 11.7501 12.0609 11.75" fill="white"/>
</svg>
