<svg width="24" height="24" viewBox="0 0 24 24" fill="none" xmlns="http://www.w3.org/2000/svg">
<path d="M7.5 2.25C7.08579 2.25 6.75 2.58579 6.75 3C6.75 3.41421 7.08579 3.75 7.5 3.75H11.589C11.9175 3.75 12.2323 3.8791 12.4672 4.11088L18.9731 10.5337C19.2679 10.8247 19.7427 10.8217 20.0337 10.5269C20.3247 10.2321 20.3217 9.75728 20.0269 9.46628L13.5208 3.04312C13.0057 2.5349 12.3125 2.25 11.589 2.25H7.5ZM5.489 6.75C5.35721 6.75 5.25 6.85721 5.25 6.989V12.511C5.25 12.573 5.27524 12.6346 5.32033 12.6797L12.5303 19.8897C13.0094 20.3688 13.7866 20.3688 14.2657 19.8897L18.3897 15.7657C18.8688 15.2866 18.8688 14.5094 18.3897 14.0303L11.1797 6.82033L11.1782 6.8189C11.1344 6.77483 11.075 6.75 11.012 6.75H5.489ZM3.75 6.989C3.75 6.02879 4.52879 5.25 5.489 5.25H11.012C11.4727 5.25 11.9149 5.43287 12.241 5.76031L12.2418 5.7611L19.4503 12.9697C20.5152 14.0346 20.5152 15.7614 19.4503 16.8263L15.3263 20.9503C14.2614 22.0152 12.5346 22.0152 11.4697 20.9503L4.25967 13.7403C3.93476 13.4154 3.75 12.973 3.75 12.511V6.989ZM8.11516 9.61525C8.55137 9.17903 9.25862 9.17903 9.69483 9.61525C10.131 10.0515 10.131 10.7587 9.69483 11.1949C9.25862 11.6311 8.55137 11.6311 8.11516 11.1949C7.67894 10.7587 7.67894 10.0515 8.11516 9.61525ZM8.63417 10.6759C8.78374 10.8255 9.02624 10.8255 9.17582 10.6759C9.32539 10.5263 9.32539 10.2838 9.17582 10.1343C9.02624 9.98469 8.78374 9.98469 8.63417 10.1343C8.4846 10.2838 8.4846 10.5263 8.63417 10.6759Z" fill="white"/>
</svg>
