<svg width="24" height="24" viewBox="0 0 24 24" fill="none" xmlns="http://www.w3.org/2000/svg">
<path d="M10.1001 3.75005C10.4284 3.74696 10.7464 3.87691 10.9811 4.11084L19.8847 13.0184C20.3728 13.5065 20.3726 14.2988 19.8845 14.7869L14.7903 19.8841C14.3023 20.3728 13.5094 20.3725 13.0214 19.8838L4.11033 10.9698C3.88001 10.7394 3.75 10.4262 3.75 10.0991V7.28709C3.75 6.95996 3.88012 6.64662 4.11045 6.4163L6.39045 4.1353C6.61932 3.90649 6.92871 3.77754 7.25058 3.77506L10.1001 3.75005ZM12.0406 3.04905C11.5235 2.53327 10.8197 2.24334 10.0864 2.25012L7.23781 2.27511C6.52188 2.28074 5.83657 2.56786 5.32955 3.07487L3.04955 5.35587C2.53795 5.86754 2.25 6.56227 2.25 7.28709V10.0991C2.25 10.8239 2.53805 11.5187 3.04967 12.0304L11.9603 20.9441C13.0342 22.0194 14.7777 22.0192 15.8517 20.9441L20.9453 15.8474C22.0192 14.7736 22.0191 13.0317 20.9453 11.9578L12.0414 3.04988L12.0406 3.04905ZM8.84338 7.22862C8.39857 6.78382 7.6774 6.78382 7.23259 7.22862C6.78779 7.67343 6.78779 8.39461 7.23259 8.83941C7.6774 9.28422 8.39857 9.28422 8.84338 8.83941C9.28819 8.39461 9.28819 7.67343 8.84338 7.22862ZM8.29325 8.28929C8.15227 8.43026 7.9237 8.43026 7.78272 8.28929C7.64174 8.14831 7.64174 7.91973 7.78272 7.77875C7.9237 7.63777 8.15227 7.63777 8.29325 7.77875C8.43423 7.91973 8.43423 8.14831 8.29325 8.28929Z" fill="white"/>
</svg>
