<svg width="24" height="24" viewBox="0 0 24 24" fill="none" xmlns="http://www.w3.org/2000/svg">
<g clip-path="url(#clip0_7_2317)">
<mask id="mask0_7_2317" style="mask-type:luminance" maskUnits="userSpaceOnUse" x="0" y="0" width="24" height="24">
<path d="M24 0H0V24H24V0Z" fill="white"/>
</mask>
<g mask="url(#mask0_7_2317)">
<path d="M12.97 12.09C13.26 11.8 13.26 11.32 12.97 11.03C12.68 10.74 12.2 10.74 11.91 11.03L11.87 11.07C11.15 10.54 10.13 10.6 9.48 11.25C8.88 11.85 8.77 12.78 9.2 13.5L9.98 14.79C10.06 14.93 10.04 15.1 9.93 15.21C9.79 15.34 9.57 15.35 9.44 15.21L8.84 14.61C8.72 14.49 8.73 14.32 8.75 14.24C8.85 13.84 8.6 13.43 8.2 13.33C7.8 13.23 7.39 13.48 7.29 13.88C7.16 14.41 7.27 14.94 7.55 15.38L7.49 15.44C7.2 15.73 7.2 16.21 7.49 16.5C7.64 16.65 7.83 16.72 8.02 16.72C8.21 16.72 8.4 16.65 8.55 16.5L8.6 16.45C8.92 16.68 9.3 16.81 9.68 16.81C10.15 16.81 10.63 16.63 10.98 16.27C11.58 15.67 11.7 14.74 11.26 14.02L10.49 12.73C10.41 12.59 10.43 12.42 10.54 12.31C10.72 12.13 10.85 12.13 11.03 12.31L11.63 12.91C11.75 13.03 11.74 13.2 11.72 13.28C11.62 13.68 11.87 14.09 12.28 14.18C12.68 14.27 13.09 14.03 13.18 13.62C13.31 13.09 13.2 12.56 12.91 12.13L12.97 12.09Z" fill="white"/>
<path d="M16.34 7.66C15.9 7.23 15.19 7.22 14.76 7.66C14.32 8.1 14.32 8.81 14.76 9.25C14.98 9.47 15.26 9.58 15.55 9.58C15.84 9.58 16.13 9.47 16.34 9.25C16.77 8.81 16.77 8.1 16.34 7.66ZM15.81 8.72C15.66 8.87 15.42 8.87 15.28 8.72C15.13 8.57 15.13 8.33 15.28 8.18C15.43 8.03 15.67 8.03 15.82 8.18C15.96 8.34 15.96 8.58 15.81 8.72Z" fill="white"/>
<path d="M17.9 3.25H13.51C12.76 3.25 12.03 3.55 11.49 4.09L3.09 12.5C2.55 13.04 2.25 13.75 2.25 14.52C2.25 15.28 2.55 16 3.09 16.54L7.47 20.92C8.01 21.46 8.72 21.76 9.49 21.76C10.26 21.76 10.97 21.46 11.51 20.92L19.92 12.51C20.46 11.97 20.76 11.25 20.76 10.49V6.1C20.75 4.53 19.47 3.25 17.9 3.25ZM19.25 10.49C19.25 10.85 19.11 11.19 18.85 11.45L10.44 19.86C9.93 20.37 9.04 20.37 8.53 19.86L4.15 15.48C3.89 15.22 3.75 14.88 3.75 14.52C3.75 14.16 3.89 13.82 4.15 13.56L12.56 5.15C12.81 4.9 13.16 4.75 13.52 4.75H17.91C18.66 4.75 19.26 5.36 19.26 6.1V10.49H19.25Z" fill="white"/>
</g>
</g>
<defs>
<clipPath id="clip0_7_2317">
<rect width="24" height="24" fill="white"/>
</clipPath>
</defs>
</svg>
