<svg width="24" height="24" viewBox="0 0 24 24" fill="none" xmlns="http://www.w3.org/2000/svg">
<path d="M3.75 12C3.75 7.44321 7.44321 3.75 12 3.75C16.5568 3.75 20.25 7.44321 20.25 12C20.25 16.5568 16.5568 20.25 12 20.25C7.44321 20.25 3.75 16.5568 3.75 12ZM12 2.25C6.61479 2.25 2.25 6.61479 2.25 12C2.25 17.3852 6.61479 21.75 12 21.75C17.3852 21.75 21.75 17.3852 21.75 12C21.75 6.61479 17.3852 2.25 12 2.25ZM10.5303 8.46967C10.8232 8.76256 10.8232 9.23744 10.5303 9.53033L8.06066 12L10.5303 14.4697C10.8232 14.7626 10.8232 15.2374 10.5303 15.5303C10.2374 15.8232 9.76256 15.8232 9.46967 15.5303L6.46967 12.5303C6.17678 12.2374 6.17678 11.7626 6.46967 11.4697L9.46967 8.46967C9.76256 8.17678 10.2374 8.17678 10.5303 8.46967ZM13.4697 8.46967C13.7626 8.17678 14.2374 8.17678 14.5303 8.46967L17.5303 11.4697C17.8232 11.7626 17.8232 12.2374 17.5303 12.5303L14.5303 15.5303C14.2374 15.8232 13.7626 15.8232 13.4697 15.5303C13.1768 15.2374 13.1768 14.7626 13.4697 14.4697L15.9393 12L13.4697 9.53033C13.1768 9.23744 13.1768 8.76256 13.4697 8.46967Z" fill="white"/>
</svg>
