<svg width="24" height="24" viewBox="0 0 24 24" fill="none" xmlns="http://www.w3.org/2000/svg">
<path d="M19.9974 3.75391L3.99759 3.78791C3.30846 3.78916 2.75 4.34841 2.75 5.03791V18.9999C2.75 19.6907 3.30921 20.2499 4 20.2499H20C20.6908 20.2499 21.25 19.6907 21.25 18.9999V5.00391C21.25 4.31291 20.6887 3.75278 19.9974 3.75391ZM19.9946 2.25391C21.5152 2.25116 22.75 3.48298 22.75 5.00391V18.9999C22.75 20.5191 21.5192 21.7499 20 21.7499H4C2.48079 21.7499 1.25 20.5191 1.25 18.9999V5.03791C1.25 3.52149 2.47765 2.29079 3.99441 2.28791L19.9946 2.25391ZM4.5 12.092C4.5 11.0748 5.32479 10.25 6.342 10.25H7.268C7.94142 10.25 8.48144 10.6199 8.79258 11.0953C9.01938 11.4419 8.92227 11.9068 8.57566 12.1336C8.22906 12.3604 7.76422 12.2633 7.53742 11.9167C7.45856 11.7961 7.35858 11.75 7.268 11.75H6.342C6.15321 11.75 6 11.9032 6 12.092C6 12.2492 6.10619 12.3853 6.25861 12.4236L7.71561 12.7896C8.53512 12.9953 9.109 13.7312 9.109 14.576C9.109 15.5932 8.28421 16.418 7.267 16.418H6.416C6.39323 16.418 6.37071 16.417 6.34846 16.415H6.342C5.66833 16.415 5.13025 16.045 4.81969 15.5736C4.59182 15.2277 4.6875 14.7626 5.0334 14.5347C5.3793 14.3068 5.84443 14.4025 6.07231 14.7484C6.15175 14.869 6.25167 14.915 6.342 14.915H6.416C6.43877 14.915 6.46129 14.916 6.48354 14.918H7.267C7.45579 14.918 7.609 14.7648 7.609 14.576C7.609 14.4188 7.50281 14.2827 7.35039 14.2444L5.89339 13.8784C5.07388 13.6727 4.5 12.9368 4.5 12.092ZM11.787 10.25C10.7698 10.25 9.945 11.0748 9.945 12.092C9.945 12.9368 10.5189 13.6727 11.3384 13.8784L12.7954 14.2444C12.9478 14.2827 13.054 14.4188 13.054 14.576C13.054 14.7648 12.9008 14.918 12.712 14.918H11.9275C11.9053 14.916 11.8828 14.915 11.86 14.915H11.786C11.6957 14.915 11.5957 14.869 11.5163 14.7484C11.2884 14.4025 10.8233 14.3068 10.4774 14.5347C10.1315 14.7626 10.0358 15.2277 10.2637 15.5736C10.5743 16.045 11.1123 16.415 11.786 16.415H11.7925C11.8147 16.417 11.8372 16.418 11.86 16.418H12.712C13.7292 16.418 14.554 15.5932 14.554 14.576C14.554 13.7312 13.9801 12.9953 13.1606 12.7896L11.7036 12.4236C11.5512 12.3853 11.445 12.2492 11.445 12.092C11.445 11.9032 11.5982 11.75 11.787 11.75H12.713C12.8043 11.75 12.905 11.7969 12.9834 11.9167C13.2102 12.2633 13.6751 12.3604 14.0217 12.1336C14.3683 11.9068 14.4654 11.4419 14.2386 11.0953C13.927 10.6191 13.3857 10.25 12.713 10.25H11.787ZM16.45 10.25C16.8642 10.25 17.2 10.5858 17.2 11V14.917H18.95C19.3642 14.917 19.7 15.2528 19.7 15.667C19.7 16.0812 19.3642 16.417 18.95 16.417H16.45C16.0358 16.417 15.7 16.0812 15.7 15.667V11C15.7 10.5858 16.0358 10.25 16.45 10.25ZM8 5.23975C7.82806 5.23975 7.6265 5.30034 7.46605 5.46079C7.30559 5.62124 7.245 5.8228 7.245 5.99475C7.245 6.16669 7.30559 6.36825 7.46605 6.5287C7.6265 6.68915 7.82806 6.74975 8 6.74975C8.17195 6.74975 8.37351 6.68915 8.53396 6.5287C8.69441 6.36825 8.755 6.16669 8.755 5.99475C8.755 5.8228 8.69441 5.62124 8.53396 5.46079C8.37351 5.30034 8.17195 5.23975 8 5.23975ZM8.745 5.99475C8.745 6.16369 8.68541 6.36275 8.52671 6.52145C8.36801 6.68015 8.16895 6.73975 8 6.73975C7.83106 6.73975 7.632 6.68015 7.4733 6.52145C7.3146 6.36275 7.255 6.16369 7.255 5.99475C7.255 5.8258 7.3146 5.62674 7.4733 5.46804C7.632 5.30934 7.83106 5.24975 8 5.24975C8.16895 5.24975 8.36801 5.30934 8.52671 5.46804C8.68541 5.62674 8.745 5.8258 8.745 5.99475ZM10.471 5.46616C10.6315 5.30571 10.8331 5.24512 11.005 5.24512C11.1769 5.24512 11.3785 5.30571 11.539 5.46616C11.6994 5.62661 11.76 5.82817 11.76 6.00012C11.76 6.17206 11.6994 6.37362 11.539 6.53407C11.3785 6.69453 11.1769 6.75512 11.005 6.75512C10.8331 6.75512 10.6315 6.69453 10.471 6.53407C10.3106 6.37362 10.25 6.17206 10.25 6.00012C10.25 5.82817 10.3106 5.62661 10.471 5.46616ZM11.5317 6.52682C11.6904 6.36812 11.75 6.16906 11.75 6.00012C11.75 5.83117 11.6904 5.63211 11.5317 5.47341C11.373 5.31471 11.1739 5.25512 11.005 5.25512C10.8361 5.25512 10.637 5.31471 10.4783 5.47341C10.3196 5.63211 10.26 5.83117 10.26 6.00012C10.26 6.16906 10.3196 6.36812 10.4783 6.52682C10.637 6.68552 10.8361 6.74512 11.005 6.74512C11.1739 6.74512 11.373 6.68552 11.5317 6.52682ZM5 5.25C4.82805 5.25 4.6265 5.31059 4.46604 5.47105C4.30559 5.6315 4.245 5.83305 4.245 6.005C4.245 6.17695 4.30559 6.3785 4.46604 6.53896C4.6265 6.69941 4.82805 6.76 5 6.76C5.17195 6.76 5.3735 6.69941 5.53395 6.53896C5.69441 6.3785 5.755 6.17695 5.755 6.005C5.755 5.83305 5.69441 5.6315 5.53395 5.47105C5.3735 5.31059 5.17195 5.25 5 5.25ZM5.745 6.005C5.745 6.17395 5.68541 6.373 5.5267 6.5317C5.368 6.69041 5.16895 6.75 5 6.75C4.83105 6.75 4.632 6.69041 4.47329 6.5317C4.31459 6.373 4.255 6.17395 4.255 6.005C4.255 5.83605 4.31459 5.637 4.47329 5.4783C4.632 5.31959 4.83105 5.26 5 5.26C5.16895 5.26 5.368 5.31959 5.5267 5.4783C5.68541 5.637 5.745 5.83605 5.745 6.005Z" fill="white"/>
</svg>
