<svg width="24" height="24" viewBox="0 0 24 24" fill="none" xmlns="http://www.w3.org/2000/svg">
<path d="M3.75 6C3.75 4.75721 4.75721 3.75 6 3.75H18C19.2428 3.75 20.25 4.75721 20.25 6V18C20.25 19.2428 19.2428 20.25 18 20.25H6C4.75721 20.25 3.75 19.2428 3.75 18V6ZM6 2.25C3.92879 2.25 2.25 3.92879 2.25 6V18C2.25 20.0712 3.92879 21.75 6 21.75H18C20.0712 21.75 21.75 20.0712 21.75 18V6C21.75 3.92879 20.0712 2.25 18 2.25H6ZM7.42384 8.51988C7.68901 8.20167 8.16193 8.15868 8.48014 8.42385L11.4801 10.9239C11.6511 11.0663 11.75 11.2774 11.75 11.5C11.75 11.7226 11.6511 11.9337 11.4801 12.0762L8.48014 14.5762C8.16193 14.8414 7.68901 14.7984 7.42384 14.4802C7.15866 14.1619 7.20166 13.689 7.51987 13.4239L9.82847 11.5L7.51987 9.57618C7.20166 9.31101 7.15866 8.83809 7.42384 8.51988ZM12.25 15C12.25 14.5858 12.5858 14.25 13 14.25H16C16.4142 14.25 16.75 14.5858 16.75 15C16.75 15.4142 16.4142 15.75 16 15.75H13C12.5858 15.75 12.25 15.4142 12.25 15Z" fill="white"/>
</svg>
