<svg width="24" height="24" viewBox="0 0 24 24" fill="none" xmlns="http://www.w3.org/2000/svg">
<path d="M13.9429 3.26806C14.3472 3.35803 14.6021 3.75873 14.5121 4.16305L10.9521 20.1631C10.8621 20.5674 10.4614 20.8222 10.0571 20.7323C9.65279 20.6423 9.39795 20.2416 9.48791 19.8373L13.0479 3.83727C13.1379 3.43294 13.5386 3.1781 13.9429 3.26806ZM17.4697 7.46967C17.7626 7.17678 18.2374 7.17678 18.5303 7.46967L22.5303 11.4697C22.8232 11.7626 22.8232 12.2374 22.5303 12.5303L18.5303 16.5303C18.2374 16.8232 17.7626 16.8232 17.4697 16.5303C17.1768 16.2374 17.1768 15.7626 17.4697 15.4697L20.9393 12L17.4697 8.53033C17.1768 8.23744 17.1768 7.76256 17.4697 7.46967ZM6.53033 8.53033C6.82322 8.23744 6.82322 7.76256 6.53033 7.46967C6.23744 7.17678 5.76256 7.17678 5.46967 7.46967L1.46967 11.4697C1.17678 11.7626 1.17678 12.2374 1.46967 12.5303L5.46967 16.5303C5.76256 16.8232 6.23744 16.8232 6.53033 16.5303C6.82322 16.2374 6.82322 15.7626 6.53033 15.4697L3.06066 12L6.53033 8.53033Z" fill="white"/>
</svg>
