<svg width="24" height="24" viewBox="0 0 24 24" fill="none" xmlns="http://www.w3.org/2000/svg">
<path d="M6.71736 6.71736C9.34051 4.09421 13.5934 4.09422 16.2166 6.71736C18.8397 9.34051 18.8397 13.5935 16.2166 16.2166C13.5934 18.8397 9.34048 18.8397 6.71736 16.2166C4.09421 13.5935 4.09422 9.34048 6.71736 6.71736ZM17.7836 16.7231C20.4762 13.4949 20.3074 8.68687 17.2772 5.6567C14.0683 2.44777 8.86564 2.44777 5.6567 5.6567C2.44777 8.86561 2.44777 14.0683 5.6567 17.2773C8.68681 20.3074 13.4947 20.4762 16.7229 17.7838L19.4695 20.5304C19.7624 20.8233 20.2373 20.8233 20.5302 20.5304C20.8231 20.2375 20.8231 19.7626 20.5302 19.4697L17.7836 16.7231ZM12.152 9.28383C12.5476 9.40648 12.7689 9.82663 12.6463 10.2223L11.7163 13.2223C11.5936 13.6179 11.1735 13.8392 10.7778 13.7166C10.3822 13.5939 10.1609 13.1738 10.2835 12.7781L11.2135 9.77813C11.3362 9.38249 11.7564 9.16118 12.152 9.28383ZM16.5302 12.0303C16.5918 11.9688 16.6406 11.8989 16.6764 11.8242C16.7738 11.6207 16.7749 11.3812 16.6764 11.1758C16.6406 11.1011 16.5918 11.0312 16.5302 10.9697C16.5195 10.9589 16.5084 10.9485 16.4972 10.9385L14.8544 9.44505C14.5479 9.16642 14.0736 9.18901 13.7949 9.4955C13.5163 9.80199 13.5389 10.2763 13.8454 10.555L14.8849 11.5L13.8454 12.4451C13.5389 12.7237 13.5163 13.198 13.7949 13.5045C14.0736 13.811 14.5479 13.8336 14.8544 13.555L16.4972 12.0615C16.5084 12.0515 16.5195 12.0411 16.5302 12.0303ZM9.13489 9.4955C9.41352 9.80199 9.39094 10.2763 9.08444 10.555L8.04489 11.5L9.08444 12.4451C9.39094 12.7237 9.41352 13.198 9.13489 13.5045C8.85626 13.811 8.38193 13.8336 8.07543 13.555L6.43265 12.0615C6.42137 12.0515 6.41032 12.0411 6.39953 12.0303C6.33794 11.9688 6.28918 11.8989 6.2534 11.8242C6.15489 11.6188 6.156 11.3793 6.2534 11.1758C6.28918 11.1011 6.33794 11.0312 6.39952 10.9697C6.41031 10.9589 6.42136 10.9485 6.43265 10.9385L8.07543 9.44505C8.38193 9.16642 8.85626 9.18901 9.13489 9.4955Z" fill="white"/>
</svg>
