<svg width="24" height="24" viewBox="0 0 24 24" fill="none" xmlns="http://www.w3.org/2000/svg">
<path d="M4 4.75C3.30921 4.75 2.75 5.30921 2.75 6V18C2.75 18.6908 3.30921 19.25 4 19.25H20C20.6908 19.25 21.25 18.6908 21.25 18V6C21.25 5.30921 20.6908 4.75 20 4.75H4ZM1.25 6C1.25 4.48079 2.48079 3.25 4 3.25H20C21.5192 3.25 22.75 4.48079 22.75 6V18C22.75 19.5192 21.5192 20.75 20 20.75H4C2.48079 20.75 1.25 19.5192 1.25 18V6ZM10.25 13C10.25 12.5858 10.5858 12.25 11 12.25H15C15.4142 12.25 15.75 12.5858 15.75 13C15.75 13.4142 15.4142 13.75 15 13.75H11C10.5858 13.75 10.25 13.4142 10.25 13ZM6.53033 7.46967C6.23744 7.17678 5.76256 7.17678 5.46967 7.46967C5.17678 7.76256 5.17678 8.23744 5.46967 8.53033L6.93934 10L5.46967 11.4697C5.17678 11.7626 5.17678 12.2374 5.46967 12.5303C5.76256 12.8232 6.23744 12.8232 6.53033 12.5303L8.53033 10.5303C8.82322 10.2374 8.82322 9.76256 8.53033 9.46967L6.53033 7.46967Z" fill="white"/>
</svg>
