<svg width="24" height="24" viewBox="0 0 24 24" fill="none" xmlns="http://www.w3.org/2000/svg">
<path d="M6.16637 6.16637C9.3882 2.94454 14.6118 2.94454 17.8336 6.16637C21.0554 9.3882 21.0554 14.6118 17.8336 17.8336C14.6117 21.0554 9.38818 21.0554 6.16637 17.8336C2.94454 14.6118 2.94455 9.38818 6.16637 6.16637ZM18.8942 5.10571C15.0866 1.2981 8.91332 1.2981 5.10571 5.10571C1.2981 8.9133 1.2981 15.0867 5.10571 18.8943C8.9133 22.7019 15.0866 22.7019 18.8942 18.8943C22.7018 15.0867 22.7018 8.91332 18.8942 5.10571ZM7.42376 8.51988C7.68894 8.20167 8.16186 8.15868 8.48007 8.42385L11.48 10.9239C11.651 11.0663 11.7499 11.2774 11.7499 11.5C11.7499 11.7226 11.651 11.9337 11.48 12.0762L8.48007 14.5762C8.16186 14.8414 7.68894 14.7984 7.42376 14.4802C7.15859 14.1619 7.20158 13.689 7.51979 13.4239L9.82839 11.5L7.51979 9.57618C7.20158 9.31101 7.15859 8.83809 7.42376 8.51988ZM12.2499 15C12.2499 14.5858 12.5857 14.25 12.9999 14.25H15.9999C16.4141 14.25 16.7499 14.5858 16.7499 15C16.7499 15.4142 16.4141 15.75 15.9999 15.75H12.9999C12.5857 15.75 12.2499 15.4142 12.2499 15Z" fill="white"/>
</svg>
