<svg width="24" height="24" viewBox="0 0 24 24" fill="none" xmlns="http://www.w3.org/2000/svg">
<path d="M5.167 3.75C4.38421 3.75 3.75 4.38421 3.75 5.167V13.833C3.75 14.6158 4.38421 15.25 5.167 15.25C5.58121 15.25 5.917 15.5858 5.917 16C5.917 16.4142 5.58121 16.75 5.167 16.75C3.55579 16.75 2.25 15.4442 2.25 13.833V5.167C2.25 3.55579 3.55579 2.25 5.167 2.25H13.834C15.4444 2.25 16.75 3.55601 16.75 5.167C16.75 5.58121 16.4142 5.917 16 5.917C15.5858 5.917 15.25 5.58121 15.25 5.167C15.25 4.38399 14.6156 3.75 13.834 3.75H5.167ZM13.5863 12.8633C13.8792 12.5704 13.8792 12.0956 13.5863 11.8027C13.2934 11.5098 12.8185 11.5098 12.5256 11.8027L10.3586 13.9697C10.0658 14.2626 10.0658 14.7374 10.3586 15.0303L12.5256 17.1973C12.8185 17.4902 13.2934 17.4902 13.5863 17.1973C13.8792 16.9044 13.8792 16.4296 13.5863 16.1367L11.9496 14.5L13.5863 12.8633ZM16.4743 11.8027C16.1814 11.5098 15.7065 11.5098 15.4136 11.8027C15.1207 12.0956 15.1207 12.5704 15.4136 12.8633L17.0503 14.5L15.4136 16.1367C15.1207 16.4296 15.1207 16.9044 15.4136 17.1973C15.7065 17.4902 16.1814 17.4902 16.4743 17.1973L18.6413 15.0303C18.9342 14.7374 18.9342 14.2626 18.6413 13.9697L16.4743 11.8027ZM8.75 10.166C8.75 9.38444 9.38399 8.75 10.167 8.75H18.834C19.6156 8.75 20.25 9.38399 20.25 10.167V18.834C20.25 19.6156 19.616 20.25 18.833 20.25H10.166C9.38444 20.25 8.75 19.616 8.75 18.833V10.166ZM10.167 7.25C8.55601 7.25 7.25 8.55556 7.25 10.166V18.833C7.25 20.444 8.55556 21.75 10.166 21.75H18.833C20.444 21.75 21.75 20.4444 21.75 18.834V10.167C21.75 8.55601 20.4444 7.25 18.834 7.25H10.167Z" fill="white"/>
</svg>
