<svg width="24" height="24" viewBox="0 0 24 24" fill="none" xmlns="http://www.w3.org/2000/svg">
<path d="M8 2.27783C7.58579 2.27783 7.25 2.61362 7.25 3.02783C7.25 3.44205 7.58579 3.77783 8 3.77783H16C16.4142 3.77783 16.75 3.44205 16.75 3.02783C16.75 2.61362 16.4142 2.27783 16 2.27783H8ZM6 5.27783C5.58579 5.27783 5.25 5.61362 5.25 6.02783C5.25 6.44205 5.58579 6.77783 6 6.77783H18C18.4142 6.77783 18.75 6.44205 18.75 6.02783C18.75 5.61362 18.4142 5.27783 18 5.27783H6ZM4.789 8.27783C3.38679 8.27783 2.25 9.41462 2.25 10.8168L2.25002 10.8273L2.25 10.833V19.028C2.25 20.5472 3.48079 21.778 5 21.778H19C20.5192 21.778 21.75 20.5472 21.75 19.028V10.833V10.8266V10.8178C21.75 9.41616 20.6138 8.27783 19.211 8.27783H4.789ZM3.75 19.028V13.1801L7.34857 15.6188L3.76241 19.205C3.75423 19.1472 3.75 19.0881 3.75 19.028ZM5 20.278C4.93995 20.278 4.88089 20.2738 4.82311 20.2656L8.613 16.4757L9.32136 16.9558C10.9394 18.0519 13.0618 18.0518 14.6798 16.9557L15.3874 16.4761L19.177 20.2656C19.1192 20.2738 19.0601 20.278 19 20.278H5ZM20.25 19.028C20.25 19.0881 20.2458 19.1471 20.2376 19.2049L16.6518 15.6191L20.25 13.1805V19.028ZM3.75 10.8168C3.75 10.243 4.21521 9.77783 4.789 9.77783H19.211C19.7842 9.77783 20.25 10.2435 20.25 10.8178C20.25 11.1621 20.0789 11.4846 19.7932 11.678L13.8382 15.714C12.7283 16.4658 11.2725 16.4657 10.1626 15.7139L4.20575 11.677C3.92076 11.4836 3.75 11.1612 3.75 10.8168Z" fill="white"/>
</svg>
