<svg width="24" height="24" viewBox="0 0 24 24" fill="none" xmlns="http://www.w3.org/2000/svg">
<path d="M5.01293 3.22412C3.48847 3.22412 2.25293 4.46015 2.25293 5.98512C2.25293 6.00998 2.25326 6.0348 2.25393 6.05956V15.0024C2.25393 16.5213 3.48447 17.7524 5.00293 17.7524H10.9989C11.4131 17.7524 11.7489 17.4166 11.7489 17.0024C11.7489 16.5881 11.4131 16.2524 10.9989 16.2524H5.00293C4.31339 16.2524 3.75393 15.6934 3.75393 15.0024V8.46645L8.81919 11.901C10.4382 12.9982 12.5618 12.998 14.1808 11.9009L19.2439 8.46747V11.0022C19.2439 11.4164 19.5797 11.7522 19.9939 11.7522C20.4081 11.7522 20.7439 11.4164 20.7439 11.0022V6.05967C20.7446 6.03497 20.7449 6.01023 20.7449 5.98545C20.7435 4.4621 19.5104 3.22412 17.9849 3.22412H5.01293ZM19.2448 5.9754C19.2442 5.98791 19.2439 6.00051 19.2439 6.01318V6.03625C19.228 6.43506 19.0237 6.80464 18.692 7.02939L13.3392 10.6592C12.2282 11.4121 10.7716 11.4121 9.66067 10.6592L4.30562 7.02822C3.97379 6.80339 3.7698 6.43485 3.75393 6.03547V5.98535C3.75393 5.97495 3.75372 5.9646 3.7533 5.9543C3.76964 5.27154 4.32767 4.72412 5.01293 4.72412H17.9849C18.6756 4.72412 19.2381 5.28201 19.2448 5.9754ZM20.8282 13.7409C20.1448 13.0576 19.0377 13.0565 18.3543 13.7412L14.4776 17.6179C14.3369 17.7586 14.2579 17.9494 14.2579 18.1483V20.9352C14.2572 20.9481 14.2569 20.9612 14.2569 20.9743C14.2569 21.3885 14.5927 21.7243 15.0069 21.7243H17.8339C18.0328 21.7243 18.2236 21.6453 18.3642 21.5046L22.2412 17.6276C22.9246 16.9442 22.9254 15.8367 22.2405 15.1533L20.8282 13.7409ZM17.5232 20.2243H15.7579V18.4589L19.4159 14.8009C19.5125 14.7041 19.6691 14.7031 19.7676 14.8016L21.1812 16.2153C21.2781 16.3119 21.279 16.4685 21.1806 16.5669L17.5232 20.2243Z" fill="white"/>
</svg>
