<svg width="24" height="24" viewBox="0 0 24 24" fill="none" xmlns="http://www.w3.org/2000/svg">
<path d="M4.782 4.25C3.38379 4.25 2.25 5.38379 2.25 6.782C2.25 6.82914 2.25131 6.87612 2.25392 6.92288C2.25133 6.94824 2.25 6.97396 2.25 7V17C2.25 18.5192 3.48079 19.75 5 19.75H19C20.5192 19.75 21.75 18.5192 21.75 17V7C21.75 6.97517 21.7488 6.95063 21.7464 6.92642C21.7488 6.88179 21.75 6.83697 21.75 6.792V6.782C21.75 5.38379 20.6162 4.25 19.218 4.25H4.782ZM13.7805 11.7222C12.7033 12.4235 11.3128 12.4239 10.2353 11.7234C10.1771 11.6695 10.1125 11.6265 10.0441 11.5945L4.20241 7.63591C3.91995 7.44471 3.75 7.12462 3.75 6.782C3.75 6.21221 4.21221 5.75 4.782 5.75H19.218C19.7878 5.75 20.25 6.21221 20.25 6.782V6.792C20.25 7.13466 20.0801 7.45396 19.798 7.64392L19.7962 7.64518L13.9523 11.6064C13.8912 11.6362 13.8333 11.6748 13.7805 11.7222ZM14.1682 13.2286L19.1771 18.2376C19.1193 18.2458 19.0601 18.25 19 18.25H5C4.93991 18.25 4.88082 18.2458 4.823 18.2376L9.83662 13.224C11.1944 13.9217 12.8092 13.9233 14.1682 13.2286ZM20.2376 17.1767L15.4585 12.3976L20.25 9.14969V17C20.25 17.06 20.2458 17.119 20.2376 17.1767ZM3.76239 17.1769C3.75423 17.1191 3.75 17.06 3.75 17V9.1413L8.54718 12.3921L3.76239 17.1769Z" fill="white"/>
</svg>
