<svg width="24" height="24" viewBox="0 0 24 24" fill="none" xmlns="http://www.w3.org/2000/svg">
<path d="M11.2984 3.96129C11.7224 3.67632 12.2766 3.67632 12.7006 3.96129L19.6942 8.66597C20.4306 9.16172 20.4306 10.2449 19.6942 10.7406L14.4855 14.245C14.471 14.254 14.4568 14.2636 14.4428 14.2737L13.8203 14.6925C12.7195 15.4332 11.2805 15.4332 10.1797 14.6925L9.5571 14.2737C9.54318 14.2636 9.52898 14.2541 9.51454 14.245L4.30558 10.7405C3.56809 10.2444 3.56907 9.16064 4.30463 8.6661L11.2984 3.96129ZM14.7885 15.849L19.1766 20.2371C19.1186 20.2454 19.0593 20.2496 18.999 20.2496H5C4.93999 20.2496 4.88098 20.2454 4.82324 20.2373L9.21147 15.849L9.34233 15.9371C10.9495 17.0184 13.0505 17.0184 14.6577 15.9371L14.7885 15.849ZM20.2367 19.1759L16.0567 14.9958L20.249 12.1753V18.9996C20.249 19.0595 20.2448 19.1183 20.2367 19.1759ZM3.75 12.1746L7.94334 14.9958L3.76243 19.1767C3.75424 19.1189 3.75 19.0598 3.75 18.9996V12.1746ZM13.5374 2.71633C12.6074 2.0913 11.3916 2.0913 10.4616 2.71633L3.46738 7.42151C2.6806 7.95057 2.27609 8.78491 2.25366 9.62809C2.25124 9.65261 2.25 9.67748 2.25 9.70264V18.9996C2.25 20.5189 3.48079 21.7496 5 21.7496H18.999C20.5182 21.7496 21.749 20.5189 21.749 18.9996V9.70264C21.749 9.67772 21.7478 9.65309 21.7454 9.62879C21.7229 8.78557 21.3183 7.95106 20.5316 7.42151L13.5374 2.71633Z" fill="white"/>
</svg>
