<svg width="24" height="24" viewBox="0 0 24 24" fill="none" xmlns="http://www.w3.org/2000/svg">
<path d="M12.7007 3.96129L14.1511 4.93701H9.84796L11.2984 3.96129C11.7224 3.67632 12.2767 3.67632 12.7007 3.96129ZM17.4796 5.36837L13.5374 2.71633C12.6074 2.0913 11.3917 2.0913 10.4617 2.71633L6.49526 5.38461C6.47606 5.39718 6.45704 5.40997 6.43819 5.423L3.46739 7.42151C2.68068 7.95052 2.27617 8.78477 2.25368 9.62788C2.25125 9.65247 2.25 9.67741 2.25 9.70264V18.9996C2.25 20.5189 3.48079 21.7496 5 21.7496H18.999C20.5182 21.7496 21.749 20.5189 21.749 18.9996V9.70264C21.749 9.67779 21.7478 9.65323 21.7454 9.62901C21.723 8.78571 21.3184 7.9511 20.5317 7.42151L17.5863 5.44014C17.5514 5.41541 17.5158 5.39148 17.4796 5.36837ZM16.6648 6.62804L16.7289 6.67117C17.0446 6.89797 17.25 7.26832 17.25 7.68701V12.3851L14.4856 14.245C14.4711 14.254 14.4568 14.2636 14.4428 14.2737L13.8203 14.6925C12.7195 15.4332 11.2805 15.4332 10.1797 14.6925L9.5569 14.2735C9.54311 14.2636 9.52905 14.2541 9.51476 14.2452L6.75 12.3851V7.68701C6.75 7.25889 6.9648 6.88131 7.29258 6.65606L7.3131 6.64226C7.51017 6.5125 7.74621 6.43701 8 6.43701H16C16.2444 6.43701 16.4723 6.507 16.6648 6.62804ZM5.25 8.03015V11.3759L4.3056 10.7405C3.56811 10.2444 3.56909 9.16064 4.30465 8.6661L5.25 8.03015ZM5.5578 13.3908C5.5736 13.4024 5.58986 13.4133 5.60655 13.4236L7.94334 14.9958L3.76243 19.1767C3.75424 19.1189 3.75 19.0598 3.75 18.9996V12.1746L5.5578 13.3908ZM18.75 11.3759V8.03079L19.6942 8.66597C20.4306 9.16172 20.4306 10.2449 19.6942 10.7406L18.75 11.3759ZM18.394 13.4233C18.4103 13.4132 18.4262 13.4025 18.4417 13.3912L20.249 12.1753V18.9996C20.249 19.0595 20.2448 19.1183 20.2367 19.1759L16.0567 14.9958L18.394 13.4233ZM14.6577 15.9371L14.7886 15.849L19.1767 20.2371C19.1186 20.2454 19.0593 20.2496 18.999 20.2496H5C4.93999 20.2496 4.88098 20.2454 4.82324 20.2373L9.21147 15.849L9.34235 15.9371C10.9495 17.0184 13.0506 17.0184 14.6577 15.9371ZM8.25 9C8.25 8.58579 8.58579 8.25 9 8.25H15C15.4142 8.25 15.75 8.58579 15.75 9C15.75 9.41421 15.4142 9.75 15 9.75H9C8.58579 9.75 8.25 9.41421 8.25 9ZM9.5 11.25C9.08579 11.25 8.75 11.5858 8.75 12C8.75 12.4142 9.08579 12.75 9.5 12.75H14.5C14.9142 12.75 15.25 12.4142 15.25 12C15.25 11.5858 14.9142 11.25 14.5 11.25H9.5Z" fill="white"/>
</svg>
