<svg width="24" height="24" viewBox="0 0 24 24" fill="none" xmlns="http://www.w3.org/2000/svg">
<path d="M3.75 7.01904C3.75 6.32826 4.30921 5.76904 5 5.76904H19C19.6908 5.76904 20.25 6.32826 20.25 7.01904V16.982C20.25 17.6716 19.691 18.231 19 18.231H5C4.30921 18.231 3.75 17.6718 3.75 16.981V7.01904ZM5 4.26904C3.48079 4.26904 2.25 5.49983 2.25 7.01904V16.981C2.25 18.5003 3.48079 19.731 5 19.731H19C20.519 19.731 21.75 18.5005 21.75 16.982V7.01904C21.75 5.49983 20.5192 4.26904 19 4.26904H5ZM7.38587 8.35699C7.03069 8.14388 6.56999 8.25906 6.35688 8.61424C6.14377 8.96943 6.25894 9.43012 6.61413 9.64323L11.6141 12.6432C11.8516 12.7857 12.1484 12.7857 12.3859 12.6432L17.3859 9.64323C17.7411 9.43012 17.8562 8.96943 17.6431 8.61424C17.43 8.25906 16.9693 8.14388 16.6141 8.35699L12 11.1255L7.38587 8.35699Z" fill="white"/>
</svg>
