<svg width="24" height="24" viewBox="0 0 24 24" fill="none" xmlns="http://www.w3.org/2000/svg">
<path d="M5 5.76904C4.30921 5.76904 3.75 6.32826 3.75 7.01904V16.981C3.75 17.6718 4.30921 18.231 5 18.231H11C11.4142 18.231 11.75 18.5668 11.75 18.981C11.75 19.3953 11.4142 19.731 11 19.731H5C3.48079 19.731 2.25 18.5003 2.25 16.981V7.01904C2.25 5.49983 3.48079 4.26904 5 4.26904H19C20.5192 4.26904 21.75 5.49983 21.75 7.01904V11C21.75 11.4143 21.4142 11.75 21 11.75C20.5858 11.75 20.25 11.4143 20.25 11V7.01904C20.25 6.32826 19.6908 5.76904 19 5.76904H5ZM18 13.25C16.6408 13.25 15.54 14.3508 15.54 15.71V16.3111C14.7968 16.5132 14.25 17.193 14.25 18V20C14.25 20.9662 15.0338 21.75 16 21.75H20C20.9662 21.75 21.75 20.9662 21.75 20V18C21.75 17.193 21.2032 16.5132 20.46 16.3111V15.71C20.46 14.4124 19.3727 13.25 18 13.25ZM18.96 16.25H17.04V15.71C17.04 15.1792 17.4692 14.75 18 14.75C18.5173 14.75 18.96 15.2136 18.96 15.71V16.25ZM16.29 17.75H19.71H20C20.1378 17.75 20.25 17.8622 20.25 18V20C20.25 20.1378 20.1378 20.25 20 20.25H16C15.8622 20.25 15.75 20.1378 15.75 20V18C15.75 17.8622 15.8622 17.75 16 17.75H16.29ZM7.38586 8.35699C7.03068 8.14388 6.56998 8.25906 6.35687 8.61424C6.14376 8.96943 6.25893 9.43012 6.61412 9.64323L11.6141 12.6432C11.8516 12.7857 12.1484 12.7857 12.3859 12.6432L17.3859 9.64323C17.741 9.43012 17.8562 8.96943 17.6431 8.61424C17.43 8.25906 16.9693 8.14388 16.6141 8.35699L12 11.1255L7.38586 8.35699Z" fill="white"/>
</svg>
