<svg width="24" height="24" viewBox="0 0 24 24" fill="none" xmlns="http://www.w3.org/2000/svg">
<path d="M1.25 4C1.25 3.58579 1.58579 3.25 2 3.25H4C4.41421 3.25 4.75 3.58579 4.75 4C4.75 4.41421 4.41421 4.75 4 4.75H2C1.58579 4.75 1.25 4.41421 1.25 4ZM2 6.25C1.58579 6.25 1.25 6.58579 1.25 7C1.25 7.41421 1.58579 7.75 2 7.75H3C3.41421 7.75 3.75 7.41421 3.75 7C3.75 6.58579 3.41421 6.25 3 6.25H2ZM2 10.75C2.41421 10.75 2.75 10.4142 2.75 10C2.75 9.58579 2.41421 9.25 2 9.25C1.58579 9.25 1.25 9.58579 1.25 10C1.25 10.4142 1.58579 10.75 2 10.75ZM7.35539 6.17208L10.5767 9.93055L5.20107 13.5143C5.20805 13.3859 5.23032 13.2557 5.26936 13.1255L7.35539 6.17208ZM12.2771 9.60964C12.2697 9.60056 12.2621 9.5917 12.2544 9.58306L8.2646 4.92791C8.49043 4.81346 8.74447 4.75 9.00999 4.75H19.599C19.9856 4.75 20.3339 4.88029 20.6099 5.09501L12.8946 10C12.7893 10.067 12.6515 10.0464 12.5705 9.95188L12.2771 9.60964ZM11.5693 11.0716C12.146 11.608 13.0213 11.6969 13.6994 11.2659L14.1045 11.0083L18.1734 15.0773C17.9501 15.1885 17.6996 15.25 17.438 15.25H6.84999C6.45913 15.25 6.10737 15.1168 5.82995 14.8978L11.5693 11.0716ZM15.4013 10.1839L21.2489 6.46624C21.2431 6.6009 21.2206 6.73775 21.1796 6.87449L19.0825 13.865L15.4013 10.1839ZM9.00999 3.25C7.61874 3.25 6.39295 4.16225 5.99272 5.49416L3.83262 12.6945C3.22628 14.7156 4.73952 16.75 6.84999 16.75H17.438C18.8289 16.75 20.056 15.8378 20.4564 14.5055L22.6164 7.30551C23.2227 5.28437 21.7095 3.25 19.599 3.25H9.00999ZM2.25 20C2.25 19.5858 2.58579 19.25 3 19.25H17C17.4142 19.25 17.75 19.5858 17.75 20C17.75 20.4142 17.4142 20.75 17 20.75H3C2.58579 20.75 2.25 20.4142 2.25 20Z" fill="white"/>
</svg>
