<svg width="24" height="24" viewBox="0 0 24 24" fill="none" xmlns="http://www.w3.org/2000/svg">
<path d="M7.432 5.75C7.36902 5.75 7.30826 5.75963 7.25111 5.7775L12.7963 9.74382C13.2308 10.0545 13.8147 10.0551 14.2497 9.74511L19.816 5.77509C19.7612 5.75877 19.7031 5.75 19.643 5.75H7.432ZM6.825 14.37C6.825 14.7063 7.09854 14.9774 7.432 14.977H19.643C19.9781 14.977 20.25 14.7054 20.25 14.37V7.30799L15.1205 10.9665C14.1635 11.6485 12.8792 11.6472 11.9237 10.9639L6.825 7.31693V14.37ZM5.325 6.357C5.325 5.19379 6.26878 4.25 7.432 4.25H19.643C20.8062 4.25 21.75 5.19379 21.75 6.357V14.37C21.75 15.5346 20.8059 16.477 19.643 16.477H7.433C6.26891 16.478 5.325 15.5333 5.325 14.37V6.357ZM3.75 9.63086C3.75 9.21665 3.41421 8.88086 3 8.88086C2.58579 8.88086 2.25 9.21665 2.25 9.63086V16.9999C2.25 18.5191 3.48079 19.7499 5 19.7499H16.568C16.9822 19.7499 17.318 19.4141 17.318 18.9999C17.318 18.5856 16.9822 18.2499 16.568 18.2499H5C4.30921 18.2499 3.75 17.6906 3.75 16.9999V9.63086Z" fill="white"/>
</svg>
