<svg width="24" height="24" viewBox="0 0 24 24" fill="none" xmlns="http://www.w3.org/2000/svg">
<g clip-path="url(#clip0_7_2476)">
<mask id="mask0_7_2476" style="mask-type:luminance" maskUnits="userSpaceOnUse" x="0" y="0" width="24" height="24">
<path d="M24 0H0V24H24V0Z" fill="white"/>
</mask>
<g mask="url(#mask0_7_2476)">
<path d="M21.6002 5.90005C21.3002 5.00005 20.4002 4.30005 19.4002 4.30005H4.6002C3.6002 4.30005 2.7002 5.00005 2.4002 5.90005C2.3002 6.20005 2.2002 6.40005 2.2002 6.70005V17.3C2.2002 18 2.5002 18.6 3.0002 19C3.5002 19.4 4.0002 19.7 4.7002 19.7H19.4002C20.7002 19.7 21.8002 18.6 21.8002 17.3V6.70005C21.8002 6.40005 21.7002 6.10005 21.6002 5.90005ZM19.4002 5.80005C19.6002 5.80005 19.7002 5.90005 19.8002 5.90005L12.7002 11C12.3002 11.3 11.7002 11.3 11.2002 11L4.2002 6.00005C4.30019 5.90005 4.5002 5.90005 4.6002 5.90005H19.4002V5.80005ZM19.4002 18.2H4.6002C4.4002 18.2 4.1002 18.1 4.0002 17.9C3.8002 17.7 3.7002 17.5 3.7002 17.3V7.40005L10.3002 12.1C10.8002 12.4 11.3002 12.6 11.9002 12.6C12.5002 12.6 13.0002 12.4 13.5002 12.1L20.2002 7.30005V17.2C20.2002 17.8 19.9002 18.2 19.4002 18.2Z" fill="white"/>
</g>
</g>
<defs>
<clipPath id="clip0_7_2476">
<rect width="24" height="24" fill="white"/>
</clipPath>
</defs>
</svg>
