<svg width="24" height="24" viewBox="0 0 24 24" fill="none" xmlns="http://www.w3.org/2000/svg">
<path d="M3.75 6.03983C3.75 5.34256 4.3147 4.77783 5.011 4.77783H17.99C18.6758 4.77783 19.2343 5.32575 19.2506 6.00809C19.2502 6.01836 19.25 6.02869 19.25 6.03906V6.08904C19.2341 6.48779 19.0297 6.85675 18.6972 7.082L13.3402 10.713C12.2293 11.4658 10.7706 11.4658 9.65974 10.713L4.30369 7.08293C3.95748 6.84836 3.75 6.45686 3.75 6.03983ZM2.25 6.03983V15.0281C2.25 16.5473 3.48079 17.7781 5 17.7781H11C11.4142 17.7781 11.75 17.4423 11.75 17.0281C11.75 16.6138 11.4142 16.2781 11 16.2781H5C4.30921 16.2781 3.75 15.7188 3.75 15.0281V8.51972L8.81826 11.9547C10.4373 13.0519 12.5627 13.0518 14.1818 11.9547L19.25 8.51941V13.0281C19.25 13.4423 19.5858 13.7781 20 13.7781C20.4142 13.7781 20.75 13.4423 20.75 13.0281V6.1132C20.7507 6.08846 20.751 6.06367 20.751 6.03883C20.751 4.51338 19.514 3.27783 17.99 3.27783H5.011C3.4853 3.27783 2.25 4.5151 2.25 6.03983ZM14.25 19.0278C14.25 18.6136 14.5858 18.2778 15 18.2778H19.1893L18.4697 17.5582C18.1768 17.2653 18.1768 16.7904 18.4697 16.4975C18.7626 16.2046 19.2374 16.2046 19.5303 16.4975L21.5303 18.4975C21.6022 18.5694 21.6565 18.6523 21.6931 18.7407C21.7251 18.8179 21.7446 18.9016 21.749 18.9892L21.7497 19.0058C21.7499 19.0131 21.75 19.0205 21.75 19.0278C21.75 19.1295 21.7298 19.2265 21.6931 19.3149C21.6565 19.4034 21.6022 19.4863 21.5303 19.5582L19.5303 21.5582C19.2374 21.8511 18.7626 21.8511 18.4697 21.5582C18.1768 21.2653 18.1768 20.7904 18.4697 20.4975L19.1893 19.7778H15C14.5858 19.7778 14.25 19.442 14.25 19.0278Z" fill="white"/>
</svg>
