<svg width="24" height="24" viewBox="0 0 24 24" fill="none" xmlns="http://www.w3.org/2000/svg">
<path fill-rule="evenodd" clip-rule="evenodd" d="M3.75 12C3.75 7.44321 7.44321 3.75 12 3.75C16.5568 3.75 20.25 7.44321 20.25 12C20.25 16.5568 16.5568 20.25 12 20.25C7.44321 20.25 3.75 16.5568 3.75 12ZM12 2.25C6.61479 2.25 2.25 6.61479 2.25 12C2.25 17.3852 6.61479 21.75 12 21.75C17.3852 21.75 21.75 17.3852 21.75 12C21.75 6.61479 17.3852 2.25 12 2.25ZM15.3603 8.63959C15.6532 8.93249 15.6532 9.40736 15.3603 9.70025L13.0607 11.9999L15.3603 14.2996C15.6532 14.5925 15.6532 15.0674 15.3603 15.3603C15.0674 15.6531 14.5926 15.6531 14.2997 15.3603L12 13.0606L9.70033 15.3603C9.40743 15.6531 8.93256 15.6531 8.63967 15.3603C8.34678 15.0674 8.34678 14.5925 8.63967 14.2996L10.9393 11.9999L8.63967 9.70025C8.34678 9.40736 8.34678 8.93249 8.63967 8.63959C8.93256 8.3467 9.40743 8.3467 9.70033 8.63959L12 10.9393L14.2997 8.63959C14.5926 8.3467 15.0674 8.3467 15.3603 8.63959Z" fill="white"/>
</svg>
