<svg width="24" height="24" viewBox="0 0 24 24" fill="none" xmlns="http://www.w3.org/2000/svg">
<g clip-path="url(#clip0_7_1446)">
<mask id="mask0_7_1446" style="mask-type:luminance" maskUnits="userSpaceOnUse" x="0" y="0" width="24" height="24">
<path d="M24 0H0V24H24V0Z" fill="white"/>
</mask>
<g mask="url(#mask0_7_1446)">
<path d="M20.1997 15.4001L18.9997 14.2001C18.1997 13.4001 16.6997 13.3001 15.7997 14.2001L14.9997 15.1001C13.6997 14.5001 12.4997 13.7001 11.3997 12.6001C10.2997 11.5001 9.49969 10.3001 8.89969 9.0001L9.69969 8.2001C10.1997 7.7001 10.3997 7.2001 10.3997 6.6001C10.3997 6.0001 10.1997 5.4001 9.79969 5.0001L8.59969 3.8001C7.49969 2.7001 5.79969 2.7001 4.69969 3.8001L4.09969 4.4001C3.19969 5.3001 2.79969 6.7001 2.99969 8.0001C3.49969 10.9001 5.19969 13.9001 7.69969 16.3001C10.1997 18.8001 13.0997 20.4001 15.9997 21.0001C16.2997 21.0001 16.4997 21.1001 16.7997 21.1001C17.7997 21.1001 18.7997 20.7001 19.5997 20.0001L20.2997 19.3001C21.2997 18.2001 21.2997 16.4001 20.1997 15.4001ZM19.1997 18.2001L18.4997 18.9001C17.8997 19.5001 17.0997 19.7001 16.2997 19.5001C13.6997 19.0001 10.9997 17.5001 8.79969 15.2001C6.49969 13.0001 4.99969 10.3001 4.49969 7.7001C4.39969 6.9001 4.59969 6.0001 5.19969 5.5001L5.89969 4.8001C6.09969 4.6001 6.49969 4.4001 6.79969 4.4001C7.09969 4.4001 7.39969 4.5001 7.69969 4.8001L8.79969 6.0001C9.09969 6.3001 8.99969 6.8001 8.69969 7.2001L7.89969 8.0001C7.39969 8.4001 7.29969 9.1001 7.49969 9.6001C8.09969 11.1001 9.09969 12.5001 10.2997 13.6001C11.4997 14.8001 12.8997 15.8001 14.2997 16.4001C14.8997 16.6001 15.4997 16.5001 15.9997 16.1001L16.8997 15.2001C17.1997 14.9001 17.6997 14.9001 17.9997 15.2001L19.1997 16.4001C19.5997 16.9001 19.5997 17.7001 19.1997 18.2001Z" fill="white"/>
</g>
</g>
<defs>
<clipPath id="clip0_7_1446">
<rect width="24" height="24" fill="white"/>
</clipPath>
</defs>
</svg>
