<svg width="24" height="24" viewBox="0 0 24 24" fill="none" xmlns="http://www.w3.org/2000/svg">
<g clip-path="url(#clip0_7_1428)">
<mask id="mask0_7_1428" style="mask-type:luminance" maskUnits="userSpaceOnUse" x="0" y="0" width="24" height="24">
<path d="M24 0H0V24H24V0Z" fill="white"/>
</mask>
<g mask="url(#mask0_7_1428)">
<path d="M20.9998 14.7999C18.5998 13.1999 15.3998 12.2999 11.9998 12.2999C8.5998 12.2999 5.39981 13.1999 2.9998 14.7999C1.8998 15.4999 1.2998 16.6999 1.2998 17.9999V18.9999C1.2998 20.4999 2.4998 21.7999 4.0998 21.7999H5.6998C6.8998 21.7999 7.89981 20.7999 7.89981 19.5999V18.1999C10.4998 17.1999 13.6998 17.1999 16.2998 18.1999V19.5999C16.2998 20.7999 17.2998 21.7999 18.4998 21.7999H19.9998C21.4998 21.7999 22.7998 20.5999 22.7998 18.9999V17.9999C22.7998 16.6999 22.0998 15.4999 20.9998 14.7999ZM21.1998 18.9999C21.1998 19.6999 20.5998 20.1999 19.9998 20.1999H18.3998C17.9998 20.1999 17.5998 19.8999 17.5998 19.3999V17.9999C17.5998 17.3999 17.1998 16.7999 16.6998 16.5999C15.1998 15.9999 13.5998 15.6999 11.9998 15.6999C10.3998 15.6999 8.6998 15.9999 7.2998 16.5999C6.6998 16.7999 6.39981 17.3999 6.39981 17.9999V19.3999C6.39981 19.7999 6.0998 20.1999 5.5998 20.1999H3.9998C3.2998 20.1999 2.7998 19.5999 2.7998 18.9999V17.9999C2.7998 17.1999 3.1998 16.4999 3.8998 15.9999C5.9998 14.4999 8.9998 13.6999 12.0998 13.6999C15.1998 13.6999 18.0998 14.4999 20.2998 15.9999C20.9998 16.4999 21.3998 17.1999 21.3998 17.9999V18.9999H21.1998Z" fill="white"/>
<path d="M5.5998 7.49993C5.9998 7.49993 6.39981 7.19993 6.39981 6.69993V4.99993L11.4998 9.49993C11.5998 9.59993 11.7998 9.69993 11.9998 9.69993C12.1998 9.69993 12.3998 9.59993 12.4998 9.49993L18.8998 3.89993C19.1998 3.59993 19.1998 3.19993 18.9998 2.79993C18.6998 2.49993 18.2998 2.49993 17.8998 2.69993L11.9998 7.99993L7.5998 4.09993H8.9998C9.39981 4.09993 9.7998 3.79993 9.7998 3.29993C9.7998 2.79993 9.39981 2.59993 8.9998 2.59993H5.5998C5.4998 2.59993 5.4998 2.59993 5.39981 2.59993H5.2998C5.2998 2.59993 5.1998 2.59993 5.1998 2.69993L5.0998 2.79993C5.0998 2.79993 5.0998 2.89993 4.9998 2.89993C4.9998 2.99993 4.9998 2.99993 4.8998 3.09993C4.8998 3.19993 4.8998 3.19993 4.8998 3.29993V6.79993C4.8998 7.09994 5.1998 7.49993 5.5998 7.49993Z" fill="white"/>
</g>
</g>
<defs>
<clipPath id="clip0_7_1428">
<rect width="24" height="24" fill="white"/>
</clipPath>
</defs>
</svg>
