<svg width="24" height="24" viewBox="0 0 24 24" fill="none" xmlns="http://www.w3.org/2000/svg">
<g clip-path="url(#clip0_7_1418)">
<mask id="mask0_7_1418" style="mask-type:luminance" maskUnits="userSpaceOnUse" x="0" y="0" width="24" height="24">
<path d="M24 0H0V24H24V0Z" fill="white"/>
</mask>
<g mask="url(#mask0_7_1418)">
<path d="M18.3005 14.9C17.5005 14.1 16.0005 14.1 15.1005 14.9L14.2005 15.8C12.9005 15.2 11.7005 14.4 10.6005 13.3C9.60047 12.3 8.70047 11 8.20047 9.8L9.00047 8.9C9.90047 8 10.0005 6.6 9.10047 5.7L7.90047 4.5C6.80047 3.4 5.10047 3.4 4.00047 4.5L3.40047 5.2C2.50047 6.1 2.10047 7.4 2.30047 8.7C2.90047 11.6 4.50047 14.5 7.00047 17C9.50047 19.5 12.4005 21.1 15.3005 21.7C15.6005 21.7 15.8005 21.8 16.1005 21.8C17.1005 21.8 18.1005 21.4 18.9005 20.7L19.6005 20C20.1005 19.5 20.4005 18.8 20.4005 18.1C20.4005 17.4 20.1005 16.7 19.6005 16.2L18.3005 14.9ZM18.4005 18.9L17.7005 19.6C17.1005 20.2 16.3005 20.4 15.5005 20.2C12.9005 19.7 10.2005 18.2 8.00047 15.9C5.80047 13.7 4.30047 11 3.80047 8.4C3.60047 7.6 3.90047 6.8 4.40047 6.2L5.10047 5.5C5.30047 5.3 5.70047 5.2 6.00047 5.2C6.30047 5.2 6.60047 5.3 6.90047 5.6L8.00047 6.7C8.30047 7 8.30047 7.5 7.90047 7.9L7.10047 8.7C6.70047 9.1 6.50047 9.8 6.80047 10.4C7.40047 11.9 8.40047 13.2 9.60047 14.4C10.8005 15.6 12.2005 16.6 13.6005 17.2C14.2005 17.4 14.8005 17.3 15.3005 16.9L16.2005 16C16.5005 15.7 17.0005 15.7 17.3005 16L18.5005 17.2C18.7005 17.4 18.9005 17.7 18.9005 18.1C18.9005 18.5 18.7005 18.7 18.4005 18.9Z" fill="white"/>
<path d="M20.4005 4.6V3.9C20.4005 2.6 19.3005 1.5 18.0005 1.5C16.7005 1.5 15.6005 2.6 15.6005 3.9V4.5C14.8005 4.7 14.2005 5.4 14.2005 6.2V9C14.2005 9.9 15.0005 10.7 15.9005 10.7H20.0005C20.9005 10.7 21.7005 9.9 21.7005 9V6.3C21.8005 5.4 21.2005 4.7 20.4005 4.6ZM18.0005 3C18.5005 3 18.9005 3.4 18.9005 3.9V4.5H17.1005V3.9C17.1005 3.4 17.5005 3 18.0005 3ZM20.2005 9C20.2005 9.1 20.1005 9.2 20.0005 9.2H16.0005C15.9005 9.2 15.8005 9.1 15.8005 9V6.3C15.8005 6.1 15.8005 6 16.0005 6H20.0005C20.1005 6 20.2005 6.1 20.2005 6.2V9Z" fill="white"/>
</g>
</g>
<defs>
<clipPath id="clip0_7_1418">
<rect width="24" height="24" fill="white"/>
</clipPath>
</defs>
</svg>
