<svg width="24" height="24" viewBox="0 0 24 24" fill="none" xmlns="http://www.w3.org/2000/svg">
<g clip-path="url(#clip0_7_1468)">
<mask id="mask0_7_1468" style="mask-type:luminance" maskUnits="userSpaceOnUse" x="0" y="0" width="24" height="24">
<path d="M24 0H0V24H24V0Z" fill="white"/>
</mask>
<g mask="url(#mask0_7_1468)">
<path d="M19.4998 4.2001C19.1998 3.9001 18.6998 3.9001 18.3998 4.2001L10.7998 11.8001C10.1998 10.9001 9.5998 10.0001 9.1998 9.0001L9.9998 8.2001C10.8998 7.3001 10.9998 5.8001 10.0998 4.9001L8.8998 3.8001C7.7998 2.7001 6.0998 2.7001 4.9998 3.8001L4.3998 4.4001C3.4998 5.3001 3.0998 6.7001 3.2998 8.0001C3.7998 10.6001 5.1998 13.2001 7.1998 15.5001L3.3998 19.3001C3.0998 19.6001 3.0998 20.1001 3.3998 20.4001C3.4998 20.5001 3.6998 20.6001 3.8998 20.6001C4.0998 20.6001 4.2998 20.5001 4.3998 20.4001L19.3998 5.4001C19.7998 5.0001 19.7998 4.5001 19.4998 4.2001ZM4.7998 7.7001C4.5998 6.9001 4.8998 6.0001 5.3998 5.5001L6.0998 4.8001C6.5998 4.3001 7.3998 4.3001 7.8998 4.8001L8.9998 6.0001C9.2998 6.3001 9.2998 6.8001 8.8998 7.1001L8.0998 8.0001C7.6998 8.4001 7.5998 9.1001 7.7998 9.6001C8.2998 10.7001 8.9998 11.8001 9.7998 12.8001L8.1998 14.4001C6.4998 12.3001 5.1998 10.0001 4.7998 7.7001Z" fill="white"/>
<path d="M20.4998 15.4001L19.2998 14.2001C18.4998 13.3001 16.9998 13.4001 16.0998 14.2001L15.1998 15.1001C14.5998 14.8001 13.9998 14.5001 13.3998 14.1001C13.0998 13.9001 12.5998 14.0001 12.3998 14.3001C12.1998 14.6001 12.2998 15.1001 12.5998 15.3001C13.2998 15.8001 13.8998 16.1001 14.5998 16.4001C15.1998 16.6001 15.7998 16.5001 16.2998 16.1001L17.1998 15.2001C17.4998 14.9001 17.9998 14.9001 18.2998 15.2001L19.4998 16.4001C19.9998 16.9001 19.9998 17.7001 19.4998 18.2001L18.7998 18.9001C18.1998 19.5001 17.3998 19.7001 16.5998 19.5001C14.6998 19.1001 12.6998 18.2001 10.7998 16.8001C10.4998 16.5001 9.9998 16.6001 9.6998 16.9001C9.3998 17.2001 9.4998 17.7001 9.7998 18.0001C11.7998 19.6001 13.9998 20.6001 16.1998 21.0001C16.4998 21.0001 16.6998 21.1001 16.9998 21.1001C17.9998 21.1001 18.9998 20.7001 19.7998 20.0001L20.4998 19.3001C21.5998 18.2001 21.5998 16.4001 20.4998 15.4001Z" fill="white"/>
</g>
</g>
<defs>
<clipPath id="clip0_7_1468">
<rect width="24" height="24" fill="white"/>
</clipPath>
</defs>
</svg>
