<svg width="24" height="24" viewBox="0 0 24 24" fill="none" xmlns="http://www.w3.org/2000/svg">
<g clip-path="url(#clip0_7_2446)">
<mask id="mask0_7_2446" style="mask-type:luminance" maskUnits="userSpaceOnUse" x="0" y="0" width="24" height="24">
<path d="M24 0H0V24H24V0Z" fill="white"/>
</mask>
<g mask="url(#mask0_7_2446)">
<path d="M18.3005 14.8998C17.5005 14.0998 16.0005 14.0998 15.1005 14.8998L14.2005 15.7998C12.9005 15.1998 11.7005 14.3998 10.6005 13.2998C9.60047 12.2998 8.70047 10.9998 8.20047 9.7998L9.00047 8.8998C9.90047 7.9998 10.0005 6.5998 9.10047 5.6998L7.90047 4.4998C6.80047 3.3998 5.10047 3.3998 4.00047 4.4998L3.40047 5.1998C2.50047 6.0998 2.10047 7.3998 2.30047 8.6998C2.90047 11.5998 4.50047 14.4998 7.00047 16.9998C9.50047 19.4998 12.4005 21.0998 15.3005 21.6998C15.6005 21.6998 15.8005 21.7998 16.1005 21.7998C17.1005 21.7998 18.1005 21.3998 18.9005 20.6998L19.6005 19.9998C20.1005 19.4998 20.4005 18.7998 20.4005 18.0998C20.4005 17.3998 20.1005 16.6998 19.6005 16.1998L18.3005 14.8998ZM18.4005 18.8998L17.7005 19.5998C17.1005 20.1998 16.3005 20.3998 15.5005 20.1998C12.9005 19.6998 10.2005 18.1998 8.00047 15.8998C5.80047 13.6998 4.30047 10.9998 3.80047 8.3998C3.60047 7.5998 3.90047 6.7998 4.40047 6.1998L5.10047 5.4998C5.30047 5.2998 5.70047 5.1998 6.00047 5.1998C6.30047 5.1998 6.60047 5.2998 6.90047 5.5998L8.00047 6.6998C8.30047 6.9998 8.30047 7.4998 7.90047 7.8998L7.10047 8.6998C6.70047 9.0998 6.50047 9.7998 6.80047 10.3998C7.40047 11.8998 8.40047 13.1998 9.60047 14.3998C10.8005 15.5998 12.2005 16.5998 13.6005 17.1998C14.2005 17.3998 14.8005 17.2998 15.3005 16.8998L16.2005 15.9998C16.5005 15.6998 17.0005 15.6998 17.3005 15.9998L18.5005 17.1998C18.7005 17.3998 18.9005 17.6998 18.9005 18.0998C18.9005 18.4998 18.7005 18.6998 18.4005 18.8998Z" fill="white"/>
<path d="M19.1005 5.9998L21.6005 3.4998C21.9005 3.1998 21.9005 2.6998 21.6005 2.3998C21.3005 2.0998 20.8005 2.0998 20.5005 2.3998L18.0005 4.8998L15.5005 2.3998C15.2005 2.0998 14.7005 2.0998 14.4005 2.3998C14.1005 2.6998 14.1005 3.1998 14.4005 3.4998L16.9005 5.9998L14.4005 8.4998C14.1005 8.7998 14.1005 9.2998 14.4005 9.5998C14.5005 9.6998 14.7005 9.7998 14.9005 9.7998C15.1005 9.7998 15.3005 9.6998 15.4005 9.5998L18.0005 7.0998L20.5005 9.5998C20.6005 9.6998 20.8005 9.7998 21.0005 9.7998C21.2005 9.7998 21.4005 9.6998 21.5005 9.5998C21.8005 9.2998 21.8005 8.7998 21.5005 8.4998L19.1005 5.9998Z" fill="white"/>
</g>
</g>
<defs>
<clipPath id="clip0_7_2446">
<rect width="24" height="24" fill="white"/>
</clipPath>
</defs>
</svg>
