<svg width="24" height="24" viewBox="0 0 24 24" fill="none" xmlns="http://www.w3.org/2000/svg">
<g clip-path="url(#clip0_7_2006)">
<mask id="mask0_7_2006" style="mask-type:luminance" maskUnits="userSpaceOnUse" x="0" y="0" width="24" height="24">
<path d="M24 0H0V24H24V0Z" fill="white"/>
</mask>
<g mask="url(#mask0_7_2006)">
<path d="M18.3005 14.8997C17.5005 14.0997 16.0005 14.0997 15.1005 14.8997L14.2005 15.7997C12.9005 15.1997 11.7005 14.3997 10.6005 13.2997C9.60047 12.2997 8.70047 10.9997 8.20047 9.79965L9.00047 8.89965C9.90047 7.99965 10.0005 6.59965 9.10047 5.69965L7.90047 4.49966C6.80047 3.39965 5.10047 3.39965 4.00047 4.49966L3.40047 5.19965C2.50047 6.09965 2.10047 7.39965 2.30047 8.69965C2.90047 11.5997 4.50047 14.4997 7.00047 16.9997C9.50047 19.4997 12.4005 21.0997 15.3005 21.6997C15.6005 21.6997 15.8005 21.7997 16.1005 21.7997C17.1005 21.7997 18.1005 21.3997 18.9005 20.6997L19.6005 19.9997C20.1005 19.4997 20.4005 18.7997 20.4005 18.0997C20.4005 17.3997 20.1005 16.6997 19.6005 16.1997L18.3005 14.8997ZM18.4005 18.8997L17.7005 19.5997C17.1005 20.1997 16.3005 20.3997 15.5005 20.1997C12.9005 19.6997 10.2005 18.1997 8.00047 15.8997C5.80047 13.6997 4.30047 10.9997 3.80047 8.39965C3.60047 7.59965 3.90047 6.79965 4.40047 6.19965L5.10047 5.49966C5.30047 5.29965 5.70047 5.19965 6.00047 5.19965C6.30047 5.19965 6.60047 5.29965 6.90047 5.59965L8.00047 6.69966C8.30047 6.99965 8.30047 7.49965 7.90047 7.89965L7.10047 8.69965C6.70047 9.09965 6.50047 9.79965 6.80047 10.3997C7.40047 11.8997 8.40047 13.1997 9.60047 14.3997C10.8005 15.5997 12.2005 16.5997 13.6005 17.1997C14.2005 17.3997 14.8005 17.2997 15.3005 16.8997L16.2005 15.9997C16.5005 15.6997 17.0005 15.6997 17.3005 15.9997L18.5005 17.1997C18.7005 17.3997 18.9005 17.6997 18.9005 18.0997C18.9005 18.4997 18.7005 18.6997 18.4005 18.8997Z" fill="white"/>
<path d="M21.0005 5.29966C21.4005 5.29966 21.8005 4.99966 21.8005 4.49966C21.8005 3.99966 21.4005 3.79965 21.0005 3.79965H20.3005L20.4005 3.19965C20.5005 2.79965 20.2005 2.39965 19.8005 2.29965C19.4005 2.19965 19.0005 2.49966 19.0005 2.89966L18.9005 3.79965H17.4005L17.5005 3.19965C17.6005 2.79965 17.3005 2.39965 16.9005 2.29965C16.4005 2.19965 16.0005 2.49966 16.0005 2.89966L15.9005 3.79965H15.0005C14.6005 3.79965 14.2005 4.09965 14.2005 4.59965C14.2005 5.09965 14.5005 5.39966 15.0005 5.39966H15.6005L15.4005 6.89965H14.5005C14.1005 6.89965 13.7005 7.19965 13.7005 7.69965C13.7005 8.19965 14.0005 8.49965 14.5005 8.49965H15.2005L15.0005 8.89965C14.9005 9.29965 15.2005 9.69966 15.6005 9.79965H15.7005C16.1005 9.79965 16.4005 9.49965 16.4005 9.19965L16.5005 8.29965H18.0005V8.89965C17.9005 9.29965 18.2005 9.69966 18.6005 9.79965H18.7005C19.1005 9.79965 19.4005 9.49965 19.4005 9.19965L19.5005 8.29965H20.4005C20.8005 8.29965 21.2005 7.99965 21.2005 7.49965C21.2005 6.99965 20.9005 6.69965 20.4005 6.69965H19.8005L20.0005 5.19965H21.0005V5.29966ZM18.3005 6.69965H16.8005L17.0005 5.19965H18.5005L18.3005 6.69965Z" fill="white"/>
</g>
</g>
<defs>
<clipPath id="clip0_7_2006">
<rect width="24" height="24" fill="white"/>
</clipPath>
</defs>
</svg>
