<svg width="24" height="24" viewBox="0 0 24 24" fill="none" xmlns="http://www.w3.org/2000/svg">
<g clip-path="url(#clip0_7_1998)">
<mask id="mask0_7_1998" style="mask-type:luminance" maskUnits="userSpaceOnUse" x="0" y="0" width="24" height="24">
<path d="M24 0H0V24H24V0Z" fill="white"/>
</mask>
<g mask="url(#mask0_7_1998)">
<path d="M18.3005 14.9002C17.5005 14.1002 16.0005 14.1002 15.1005 14.9002L14.2005 15.8002C12.9005 15.2002 11.7005 14.4002 10.6005 13.3002C9.60047 12.3002 8.70047 11.0002 8.20047 9.8002L9.00047 8.90019C9.90047 8.00019 10.0005 6.60019 9.10047 5.7002L7.90047 4.5002C6.80047 3.4002 5.10047 3.4002 4.00047 4.5002L3.40047 5.2002C2.50047 6.10019 2.10047 7.4002 2.30047 8.70019C2.90047 11.6002 4.50047 14.5002 7.00047 17.0002C9.50047 19.5002 12.4005 21.1002 15.3005 21.7002C15.6005 21.7002 15.8005 21.8002 16.1005 21.8002C17.1005 21.8002 18.1005 21.4002 18.9005 20.7002L19.6005 20.0002C20.1005 19.5002 20.4005 18.8002 20.4005 18.1002C20.4005 17.4002 20.1005 16.7002 19.6005 16.2002L18.3005 14.9002ZM18.4005 18.9002L17.7005 19.6002C17.1005 20.2002 16.3005 20.4002 15.5005 20.2002C12.9005 19.7002 10.2005 18.2002 8.00047 15.9002C5.80047 13.7002 4.30047 11.0002 3.80047 8.40019C3.60047 7.60019 3.90047 6.8002 4.40047 6.2002L5.10047 5.5002C5.30047 5.3002 5.70047 5.2002 6.00047 5.2002C6.30047 5.2002 6.60047 5.3002 6.90047 5.6002L8.00047 6.7002C8.30047 7.0002 8.30047 7.5002 7.90047 7.9002L7.10047 8.70019C6.70047 9.10019 6.50047 9.8002 6.80047 10.3002C7.40047 11.8002 8.40047 13.2002 9.60047 14.3002C10.8005 15.5002 12.2005 16.5002 13.7005 17.1002C14.2005 17.3002 14.9005 17.2002 15.3005 16.8002L16.2005 15.9002C16.5005 15.6002 17.0005 15.6002 17.3005 15.9002L18.5005 17.1002C18.7005 17.3002 18.9005 17.7002 18.9005 18.0002C18.9005 18.3002 18.7005 18.7002 18.4005 18.9002Z" fill="white"/>
<path d="M15.3005 8.7002C15.9005 9.3002 16.2005 10.1002 16.2005 11.0002C16.2005 11.4002 16.5005 11.8002 16.9005 11.8002C17.3005 11.8002 17.6005 11.5002 17.7005 11.1002C17.7005 9.8002 17.2005 8.6002 16.3005 7.7002C15.4005 6.8002 14.2005 6.3002 12.9005 6.3002C12.5005 6.3002 12.2005 6.6002 12.2005 7.1002C12.2005 7.6002 12.5005 7.9002 13.0005 7.8002C13.9005 7.7002 14.7005 8.1002 15.3005 8.7002Z" fill="white"/>
<path d="M19.2005 4.8002C17.5005 3.1002 15.3005 2.2002 13.0005 2.2002C12.6005 2.2002 12.2005 2.5002 12.2005 3.0002C12.2005 3.5002 12.5005 3.8002 13.0005 3.8002C14.9005 3.8002 16.8005 4.6002 18.2005 5.9002C19.6005 7.3002 20.3005 9.1002 20.3005 11.1002C20.3005 11.5002 20.6005 11.9002 21.1005 11.9002C21.6005 11.9002 21.9005 11.6002 21.9005 11.1002C21.8005 8.7002 20.9005 6.4002 19.2005 4.8002Z" fill="white"/>
</g>
</g>
<defs>
<clipPath id="clip0_7_1998">
<rect width="24" height="24" fill="white"/>
</clipPath>
</defs>
</svg>
