<svg width="24" height="24" viewBox="0 0 24 24" fill="none" xmlns="http://www.w3.org/2000/svg">
<path d="M4.30691 17.2871C4.27024 17.1986 4.25 17.1017 4.25 17C4.25 16.808 4.32322 16.6161 4.46967 16.4697L7.46967 13.4697C7.76256 13.1768 8.23744 13.1768 8.53033 13.4697C8.82322 13.7626 8.82322 14.2374 8.53033 14.5303L6.81066 16.25H19C19.4142 16.25 19.75 16.5858 19.75 17C19.75 17.4142 19.4142 17.75 19 17.75H6.81066L8.53033 19.4697C8.82322 19.7625 8.82322 20.2374 8.53033 20.5303C8.23744 20.8232 7.76256 20.8232 7.46967 20.5303L4.46967 17.5303C4.39776 17.4584 4.34351 17.3755 4.30691 17.2871ZM15.4697 10.5303C15.1768 10.2374 15.1768 9.76259 15.4697 9.46969L17.1893 7.74999H5C4.58579 7.74999 4.25 7.41419 4.25 6.99999C4.25 6.58579 4.58579 6.24999 5 6.24999H17.1893L15.4697 4.53029C15.1768 4.23739 15.1768 3.76259 15.4697 3.46969C15.7626 3.17679 16.2374 3.17679 16.5303 3.46969L19.5303 6.46969C19.6768 6.61609 19.75 6.80809 19.75 6.99999C19.75 7.10169 19.7298 7.19869 19.6931 7.28709C19.6565 7.37549 19.6022 7.45839 19.5303 7.53029L16.5303 10.5303C16.2374 10.8232 15.7626 10.8232 15.4697 10.5303Z" fill="white"/>
</svg>
