<svg width="24" height="24" viewBox="0 0 24 24" fill="none" xmlns="http://www.w3.org/2000/svg">
<path d="M3.75 11.5C3.75 10.6946 4.42241 9.76344 5.97131 8.98893C7.47534 8.23686 9.6057 7.75 12 7.75C14.3943 7.75 16.5247 8.23686 18.0287 8.98893C19.5776 9.76344 20.25 10.6946 20.25 11.5C20.25 12.0061 19.9951 12.5529 19.3978 13.0996C18.7988 13.6477 17.9013 14.1484 16.7619 14.5298C16.3692 14.6613 16.1573 15.0863 16.2888 15.4791C16.4203 15.8719 16.8453 16.0837 17.2381 15.9522C18.5097 15.5266 19.6122 14.9368 20.4105 14.2061C21.2104 13.4741 21.75 12.5539 21.75 11.5C21.75 9.8204 20.4079 8.50156 18.6996 7.64732C16.9463 6.77064 14.5767 6.25 12 6.25C9.4233 6.25 7.05366 6.77064 5.30044 7.64732C3.59209 8.50156 2.25 9.8204 2.25 11.5C2.25 13.1796 3.59209 14.4984 5.30044 15.3527C6.87195 16.1385 8.93872 16.6383 11.2059 16.7334L9.96967 17.9697C9.67678 18.2626 9.67678 18.7374 9.96967 19.0303C10.2626 19.3232 10.7374 19.3232 11.0303 19.0303L13.5303 16.5303C13.6022 16.4584 13.6565 16.3755 13.6931 16.2871C13.7298 16.1987 13.75 16.1017 13.75 16C13.75 15.8983 13.7298 15.8013 13.6931 15.7129C13.6565 15.6245 13.6022 15.5416 13.5303 15.4697L11.0303 12.9697C10.7374 12.6768 10.2626 12.6768 9.96967 12.9697C9.67678 13.2626 9.67678 13.7374 9.96967 14.0303L11.1696 15.2303C9.11495 15.1322 7.29907 14.675 5.97131 14.0111C4.42241 13.2366 3.75 12.3054 3.75 11.5Z" fill="white"/>
</svg>
