<svg width="24" height="24" viewBox="0 0 24 24" fill="none" xmlns="http://www.w3.org/2000/svg">
<path d="M12 3.26709C12.1989 3.26709 12.3897 3.34611 12.5303 3.48676L16.5313 7.48776C16.8242 7.78065 16.8242 8.25553 16.5313 8.54842C16.2384 8.84131 15.7636 8.84131 15.4707 8.54842L12.75 5.82776V19.25H16C16.4142 19.25 16.75 19.5858 16.75 20C16.75 20.4142 16.4142 20.75 16 20.75H12.0054H12H11.9946H8.00003C7.58582 20.75 7.25003 20.4142 7.25003 20C7.25003 19.5858 7.58582 19.25 8.00003 19.25H11.25V5.82774L8.52935 8.54842C8.23646 8.84131 7.76159 8.84131 7.46869 8.54842C7.1758 8.25553 7.1758 7.78065 7.46869 7.48776L11.4697 3.48676C11.6103 3.34611 11.8011 3.26709 12 3.26709Z" fill="white"/>
</svg>
