<svg width="24" height="24" viewBox="0 0 24 24" fill="none" xmlns="http://www.w3.org/2000/svg">
<path d="M17.4801 17.4803C17.773 17.1874 17.773 16.7125 17.4801 16.4196L8.86056 7.80006H14.0498C14.464 7.80006 14.7998 7.46427 14.7998 7.05006C14.7998 6.63585 14.464 6.30006 14.0498 6.30006H7.06196C6.86599 6.2969 6.66901 6.37009 6.51947 6.51963C6.43688 6.60223 6.37757 6.6993 6.34156 6.80267C6.31526 6.87818 6.30138 6.95705 6.29993 7.0361M6.29993 7.0361C6.29985 7.04072 6.2998 7.04543 6.2998 7.05006V14.05C6.2998 14.4643 6.63559 14.8 7.0498 14.8C7.46402 14.8 7.7998 14.4643 7.7998 14.05V8.86062L16.4195 17.4803C16.7124 17.7732 17.1872 17.7732 17.4801 17.4803" fill="white"/>
</svg>
