<svg width="24" height="24" viewBox="0 0 24 24" fill="none" xmlns="http://www.w3.org/2000/svg">
<path d="M12.5303 4.46869C12.3897 4.32804 12.1989 4.24902 12 4.24902C11.8011 4.24902 11.6103 4.32804 11.4697 4.46869L6.46869 9.46969C6.1758 9.76259 6.1758 10.2375 6.46869 10.5304C6.76158 10.8232 7.23646 10.8232 7.52935 10.5304L11.25 6.80968V19C11.25 19.4142 11.5858 19.75 12 19.75C12.4142 19.75 12.75 19.4142 12.75 19V6.80969L16.4707 10.5304C16.7636 10.8232 17.2384 10.8232 17.5313 10.5304C17.8242 10.2375 17.8242 9.76259 17.5313 9.46969L12.5303 4.46869Z" fill="white"/>
</svg>
