<svg width="24" height="24" viewBox="0 0 24 24" fill="none" xmlns="http://www.w3.org/2000/svg">
<path d="M12.75 5C12.75 4.58579 12.4142 4.25 12 4.25C11.5858 4.25 11.25 4.58579 11.25 5V17.1894L7.52935 13.4687C7.23646 13.1758 6.76158 13.1758 6.46869 13.4687C6.1758 13.7616 6.1758 14.2365 6.46869 14.5294L11.4697 19.5304C11.4864 19.5471 11.5039 19.563 11.522 19.5779C11.6404 19.676 11.7895 19.7384 11.9527 19.7485C11.9684 19.7495 11.9842 19.75 12 19.75C12.0158 19.75 12.0316 19.7495 12.0473 19.7485C12.2105 19.7384 12.3596 19.676 12.478 19.578C12.4961 19.563 12.5136 19.5471 12.5303 19.5304L17.5313 14.5294C17.8242 14.2365 17.8242 13.7616 17.5313 13.4687C17.2384 13.1758 16.7636 13.1758 16.4707 13.4687L12.75 17.1894V5Z" fill="white"/>
</svg>
