<svg width="24" height="24" viewBox="0 0 24 24" fill="none" xmlns="http://www.w3.org/2000/svg">
<path d="M17.8336 6.16637C14.6118 2.94454 9.3882 2.94454 6.16637 6.16637C2.94455 9.38818 2.94454 14.6118 6.16637 17.8336C9.38818 21.0554 14.6117 21.0554 17.8336 17.8336C21.0554 14.6118 21.0554 9.3882 17.8336 6.16637ZM5.10571 5.10571C8.91332 1.2981 15.0866 1.2981 18.8942 5.10571C22.7018 8.91332 22.7018 15.0867 18.8942 18.8943C15.0866 22.7019 8.9133 22.7019 5.10571 18.8943C1.2981 15.0867 1.2981 8.9133 5.10571 5.10571ZM12.4696 13.4697C12.7625 13.1768 13.2373 13.1768 13.5302 13.4697L14.2499 14.1893V8C14.2499 7.58579 14.5857 7.25 14.9999 7.25C15.4141 7.25 15.7499 7.58579 15.7499 8V14.1893L16.4696 13.4697C16.7625 13.1768 17.2373 13.1768 17.5302 13.4697C17.8231 13.7626 17.8231 14.2374 17.5302 14.5303L15.5302 16.5303C15.3838 16.6768 15.1918 16.75 14.9999 16.75C14.8982 16.75 14.8012 16.7298 14.7128 16.6931C14.6244 16.6565 14.5415 16.6022 14.4696 16.5303L12.4696 14.5303C12.1767 14.2374 12.1767 13.7626 12.4696 13.4697ZM9.28703 7.30691C9.37549 7.34351 9.45836 7.39776 9.53027 7.46967L11.5302 9.46967C11.8231 9.76256 11.8231 10.2374 11.5302 10.5303C11.2373 10.8232 10.7625 10.8232 10.4696 10.5303L9.74994 9.81066V16C9.74994 16.4142 9.41415 16.75 8.99994 16.75C8.58573 16.75 8.24994 16.4142 8.24994 16V9.81066L7.53027 10.5303C7.23738 10.8232 6.7625 10.8232 6.46961 10.5303C6.17672 10.2374 6.17672 9.76256 6.46961 9.46967L8.46961 7.46967C8.54152 7.39776 8.62439 7.34351 8.71285 7.30691C8.80128 7.27024 8.89825 7.25 8.99994 7.25C9.10163 7.25 9.1986 7.27024 9.28703 7.30691Z" fill="white"/>
</svg>
