<svg width="24" height="24" viewBox="0 0 24 24" fill="none" xmlns="http://www.w3.org/2000/svg">
<g clip-path="url(#clip0_7_1434)">
<mask id="mask0_7_1434" style="mask-type:luminance" maskUnits="userSpaceOnUse" x="0" y="0" width="24" height="24">
<path d="M24 0H0V24H24V0Z" fill="white"/>
</mask>
<g mask="url(#mask0_7_1434)">
<path d="M14.5 7.6L6.9 10.4C6.3 10.6 5.9 11.2 6 11.8C6 12.4 6.5 13 7.1 13.1L10.1 13.9L10.8 16.9C11 17.5 11.5 18 12.1 18H12.2C12.8 18 13.3 17.6 13.6 17.1L16.4 9.5C16.6 9 16.5 8.4 16.1 8C15.7 7.5 15.1 7.4 14.5 7.6ZM12.2 16.4L11.4 13.2C11.3 12.9 11.1 12.7 10.9 12.7L7.6 11.9L15 8.9L12.2 16.4Z" fill="white"/>
<path d="M18.9 5.1C15.1 1.3 8.9 1.3 5.1 5.1C1.3 8.9 1.3 15.1 5.1 18.9C6.9 20.7 9.4 21.8 12 21.8C14.6 21.8 17.1 20.8 18.9 18.9C22.7 15.1 22.7 8.9 18.9 5.1ZM17.8 17.8C16.2 19.4 14.2 20.2 12 20.2C9.8 20.2 7.7 19.3 6.2 17.8C3 14.6 3 9.4 6.2 6.2C7.8 4.6 9.9 3.8 12 3.8C14.1 3.8 16.2 4.6 17.8 6.2C21.1 9.4 21.1 14.6 17.8 17.8Z" fill="white"/>
</g>
</g>
<defs>
<clipPath id="clip0_7_1434">
<rect width="24" height="24" fill="white"/>
</clipPath>
</defs>
</svg>
