<svg width="24" height="24" viewBox="0 0 24 24" fill="none" xmlns="http://www.w3.org/2000/svg">
<path d="M7.58014 6.51972C7.28724 6.22683 6.81237 6.22683 6.51948 6.51972C6.22658 6.81261 6.22658 7.28749 6.51948 7.58038L15.139 16.1999L9.87792 16.1992C9.4637 16.1991 9.12787 16.5349 9.12781 16.9491C9.12775 17.3633 9.46349 17.6991 9.8777 17.6992L16.9497 17.7002C17.0232 17.7002 17.0956 17.6894 17.1648 17.6687C17.2403 17.6462 17.3128 17.6116 17.3795 17.5649C17.4152 17.54 17.4489 17.5118 17.4801 17.4806C17.5052 17.4554 17.5284 17.4287 17.5495 17.4006C17.6345 17.2877 17.6835 17.1562 17.6964 17.0219C17.6986 16.9981 17.6998 16.9741 17.6998 16.9502V9.8772C17.6998 9.46298 17.364 9.1272 16.9498 9.1272C16.5356 9.1272 16.1998 9.46298 16.1998 9.8772V15.1394L7.58014 6.51972Z" fill="white"/>
</svg>
