<svg width="24" height="24" viewBox="0 0 24 24" fill="none" xmlns="http://www.w3.org/2000/svg">
<path d="M9.75881 3.30779C9.8478 3.27056 9.9455 3.25 10.048 3.25C10.149 3.25 10.2454 3.26997 10.3333 3.30617C10.4224 3.34278 10.5059 3.39728 10.5783 3.46967L14.6263 7.51767C14.9192 7.81056 14.9192 8.28544 14.6263 8.57833C14.3334 8.87122 13.8586 8.87122 13.5657 8.57833L10.798 5.81066V15C10.798 17.3524 12.6766 19.25 14.933 19.25H20.048C20.4622 19.25 20.798 19.5858 20.798 20C20.798 20.4142 20.4622 20.75 20.048 20.75H14.903L14.8854 20.7498C11.7898 20.7235 9.298 18.1316 9.298 15V5.81066L6.53034 8.57833C6.23744 8.87122 5.76257 8.87122 5.46968 8.57833C5.17678 8.28544 5.17678 7.81056 5.46968 7.51767L9.51638 3.47096C9.52064 3.46669 9.52493 3.46247 9.52929 3.45829C9.59788 3.39257 9.67586 3.3424 9.75881 3.30779Z" fill="white"/>
</svg>
