<svg width="24" height="24" viewBox="0 0 24 24" fill="none" xmlns="http://www.w3.org/2000/svg">
<path d="M6.71291 4.30691C6.80134 4.27024 6.89831 4.25 7 4.25C7.19194 4.25 7.38388 4.32322 7.53033 4.46967L10.5303 7.46967C10.8232 7.76256 10.8232 8.23744 10.5303 8.53033C10.2374 8.82322 9.76256 8.82322 9.46967 8.53033L7.75 6.81066V19C7.75 19.4142 7.41421 19.75 7 19.75C6.58579 19.75 6.25 19.4142 6.25 19V6.81066L4.53033 8.53033C4.23744 8.82322 3.76256 8.82322 3.46967 8.53033C3.17678 8.23744 3.17678 7.76256 3.46967 7.46967L6.46967 4.46967C6.54158 4.39776 6.62445 4.34351 6.71291 4.30691ZM13.4697 15.4697C13.7626 15.1768 14.2374 15.1768 14.5303 15.4697L16.25 17.1893V5C16.25 4.58579 16.5858 4.25 17 4.25C17.4142 4.25 17.75 4.58579 17.75 5V17.1893L19.4697 15.4697C19.7626 15.1768 20.2374 15.1768 20.5303 15.4697C20.8232 15.7626 20.8232 16.2374 20.5303 16.5303L17.5303 19.5303C17.3839 19.6768 17.1919 19.75 17 19.75C16.8983 19.75 16.8013 19.7298 16.7129 19.6931C16.6245 19.6565 16.5416 19.6022 16.4697 19.5303L13.4697 16.5303C13.1768 16.2374 13.1768 15.7626 13.4697 15.4697Z" fill="white"/>
</svg>
