<svg width="24" height="24" viewBox="0 0 24 24" fill="none" xmlns="http://www.w3.org/2000/svg">
<path d="M17.4801 6.51972C17.773 6.81261 17.773 7.28749 17.4801 7.58038L8.86056 16.2H14.0498C14.464 16.2 14.7998 16.5357 14.7998 16.95C14.7998 17.3642 14.464 17.7 14.0498 17.7H7.06196C6.86598 17.7031 6.66901 17.6299 6.51947 17.4804C6.43687 17.3978 6.37757 17.3007 6.34155 17.1973C6.31525 17.1218 6.30138 17.043 6.29993 16.9639M6.29993 16.9639C6.29985 16.9593 6.2998 16.9546 6.2998 16.95V9.94995C6.2998 9.53574 6.63558 9.19995 7.0498 9.19995C7.46401 9.19995 7.7998 9.53574 7.7998 9.94995V15.1394L16.4195 6.51972C16.7124 6.22683 17.1872 6.22683 17.4801 6.51972" fill="white"/>
</svg>
