<svg width="24" height="24" viewBox="0 0 24 24" fill="none" xmlns="http://www.w3.org/2000/svg">
<path d="M16.2892 3.30779C16.2002 3.27056 16.1025 3.25 16 3.25C15.899 3.25 15.8027 3.26997 15.7147 3.30617C15.6256 3.34278 15.5421 3.39728 15.4697 3.46967L11.4217 7.51767C11.1288 7.81056 11.1288 8.28544 11.4217 8.57833C11.7146 8.87122 12.1894 8.87122 12.4823 8.57833L15.25 5.81066V15C15.25 17.3524 13.3714 19.25 11.115 19.25H6C5.58579 19.25 5.25 19.5858 5.25 20C5.25 20.4142 5.58579 20.75 6 20.75H11.145L11.1626 20.7498C14.2582 20.7235 16.75 18.1316 16.75 15V5.81066L19.5177 8.57833C19.8106 8.87122 20.2854 8.87122 20.5783 8.57833C20.8712 8.28544 20.8712 7.81056 20.5783 7.51767L16.5316 3.47096C16.5274 3.46669 16.5231 3.46247 16.5187 3.45829C16.4501 3.39257 16.3721 3.3424 16.2892 3.30779Z" fill="white"/>
</svg>
