<svg width="24" height="24" viewBox="0 0 24 24" fill="none" xmlns="http://www.w3.org/2000/svg">
<path d="M8.53033 3.53033C8.82322 3.23744 8.82322 2.76256 8.53033 2.46967C8.23744 2.17678 7.76256 2.17678 7.46967 2.46967L4.46967 5.46967C4.32322 5.61612 4.25 5.80806 4.25 6C4.25 6.10169 4.27024 6.19866 4.30691 6.28709C4.34351 6.37555 4.39776 6.45842 4.46967 6.53033L7.46967 9.53033C7.76256 9.82322 8.23744 9.82322 8.53033 9.53033C8.82322 9.23744 8.82322 8.76256 8.53033 8.46967L6.81066 6.75H12C15.4518 6.75 18.25 9.54821 18.25 13C18.25 16.4518 15.4518 19.25 12 19.25C8.54821 19.25 5.75 16.4518 5.75 13C5.75 12.5858 5.41421 12.25 5 12.25C4.58579 12.25 4.25 12.5858 4.25 13C4.25 17.2802 7.71979 20.75 12 20.75C16.2802 20.75 19.75 17.2802 19.75 13C19.75 8.71979 16.2802 5.25 12 5.25H6.81066L8.53033 3.53033ZM12 9.75C12.4142 9.75 12.75 10.0858 12.75 10.5V12.25H14.5C14.9142 12.25 15.25 12.5858 15.25 13C15.25 13.4142 14.9142 13.75 14.5 13.75H12.75V15.5C12.75 15.9142 12.4142 16.25 12 16.25C11.5858 16.25 11.25 15.9142 11.25 15.5V13.75H9.5C9.08579 13.75 8.75 13.4142 8.75 13C8.75 12.5858 9.08579 12.25 9.5 12.25H11.25V10.5C11.25 10.0858 11.5858 9.75 12 9.75Z" fill="white"/>
</svg>
