<svg width="24" height="24" viewBox="0 0 24 24" fill="none" xmlns="http://www.w3.org/2000/svg">
<path d="M8.53033 3.53033C8.82322 3.23744 8.82322 2.76256 8.53033 2.46967C8.23744 2.17678 7.76256 2.17678 7.46967 2.46967L4.46967 5.46967C4.32322 5.61612 4.25 5.80806 4.25 6C4.25 6.10169 4.27024 6.19866 4.30691 6.28709C4.34351 6.37555 4.39776 6.45842 4.46967 6.53033L7.46967 9.53033C7.76256 9.82322 8.23744 9.82322 8.53033 9.53033C8.82322 9.23744 8.82322 8.76256 8.53033 8.46967L6.81066 6.75H12C15.4518 6.75 18.25 9.54821 18.25 13C18.25 16.4518 15.4518 19.25 12 19.25C8.54821 19.25 5.75 16.4518 5.75 13C5.75 12.5858 5.41421 12.25 5 12.25C4.58579 12.25 4.25 12.5858 4.25 13C4.25 17.2802 7.71979 20.75 12 20.75C16.2802 20.75 19.75 17.2802 19.75 13C19.75 8.71979 16.2802 5.25 12 5.25H6.81066L8.53033 3.53033ZM14.3003 10.6997C14.5932 10.9925 14.5932 11.4674 14.3003 11.7603L13.0607 13L14.3003 14.2397C14.5932 14.5325 14.5932 15.0074 14.3003 15.3003C14.0074 15.5932 13.5326 15.5932 13.2397 15.3003L12 14.0606L10.7603 15.3003C10.4674 15.5932 9.99257 15.5932 9.69968 15.3003C9.40679 15.0074 9.40679 14.5325 9.69968 14.2397L10.9394 13L9.69968 11.7603C9.40679 11.4674 9.40679 10.9925 9.69968 10.6997C9.99257 10.4068 10.4674 10.4068 10.7603 10.6997L12 11.9393L13.2397 10.6997C13.5326 10.4068 14.0074 10.4068 14.3003 10.6997Z" fill="white"/>
</svg>
