<svg width="24" height="24" viewBox="0 0 24 24" fill="none" xmlns="http://www.w3.org/2000/svg">
<path d="M17.8335 6.16634C14.6114 2.94423 9.3882 2.94423 6.1661 6.16634C2.94399 9.38844 2.94399 14.6116 6.1661 17.8337C9.3882 21.0558 14.6114 21.0558 17.8335 17.8337C21.0556 14.6116 21.0556 9.38844 17.8335 6.16634ZM5.10544 5.10568C8.91333 1.29778 15.0862 1.29778 18.8941 5.10568C22.702 8.91357 22.702 15.0864 18.8941 18.8943C15.0862 22.7022 8.91333 22.7022 5.10544 18.8943C1.29754 15.0864 1.29754 8.91357 5.10544 5.10568ZM13.1891 9.75024L8.46944 14.4699C8.17654 14.7628 8.17654 15.2377 8.46944 15.5306C8.76233 15.8235 9.2372 15.8235 9.5301 15.5306L14.2498 10.8109V13.5002C14.2498 13.9145 14.5856 14.2502 14.9998 14.2502C15.414 14.2502 15.7498 13.9145 15.7498 13.5002V9.00024C15.7498 8.8083 15.6766 8.61636 15.5301 8.46991C15.4582 8.39801 15.3754 8.34375 15.2869 8.30715C15.1985 8.27048 15.1015 8.25024 14.9998 8.25024H10.4998C10.0856 8.25024 9.74977 8.58603 9.74977 9.00024C9.74977 9.41446 10.0856 9.75024 10.4998 9.75024H13.1891Z" fill="white"/>
</svg>
