<svg width="24" height="24" viewBox="0 0 24 24" fill="none" xmlns="http://www.w3.org/2000/svg">
<path d="M17.8335 6.16634C14.6114 2.94423 9.3882 2.94423 6.1661 6.16634C2.94399 9.38844 2.94399 14.6116 6.1661 17.8337C9.3882 21.0558 14.6114 21.0558 17.8335 17.8337C21.0556 14.6116 21.0556 9.38844 17.8335 6.16634ZM5.10544 5.10568C8.91333 1.29778 15.0862 1.29778 18.8941 5.10568C22.702 8.91357 22.702 15.0864 18.8941 18.8943C15.0862 22.7022 8.91333 22.7022 5.10544 18.8943C1.29754 15.0864 1.29754 8.91357 5.10544 5.10568ZM8.46943 8.46991C8.76232 8.17702 9.2372 8.17702 9.53009 8.46991L14.2498 13.1896V10.5002C14.2498 10.086 14.5856 9.75024 14.9998 9.75024C15.414 9.75024 15.7498 10.086 15.7498 10.5002V15.0002C15.7498 15.1019 15.7296 15.1989 15.6929 15.2873C15.6563 15.3758 15.602 15.4587 15.5301 15.5306C15.3837 15.677 15.1917 15.7502 14.9998 15.7502H10.4998C10.0856 15.7502 9.74976 15.4145 9.74976 15.0002C9.74976 14.586 10.0856 14.2502 10.4998 14.2502H13.1891L8.46943 9.53057C8.17654 9.23768 8.17654 8.76281 8.46943 8.46991Z" fill="white"/>
</svg>
