<svg width="24" height="24" viewBox="0 0 24 24" fill="none" xmlns="http://www.w3.org/2000/svg">
<path d="M17.8335 6.16634C14.6114 2.94423 9.3882 2.94423 6.1661 6.16634C2.94399 9.38844 2.94399 14.6116 6.1661 17.8337C9.3882 21.0558 14.6114 21.0558 17.8335 17.8337C21.0556 14.6116 21.0556 9.38844 17.8335 6.16634ZM5.10544 5.10568C8.91333 1.29778 15.0862 1.29778 18.8941 5.10568C22.702 8.91357 22.702 15.0864 18.8941 18.8943C15.0862 22.7022 8.91333 22.7022 5.10544 18.8943C1.29754 15.0864 1.29754 8.91357 5.10544 5.10568ZM10.8961 7.80005L6.51943 12.1767C6.22654 12.4696 6.22654 12.9445 6.51943 13.2374C6.81233 13.5303 7.2872 13.5303 7.58009 13.2374L11.9568 8.86071V9.87805C11.9568 10.2923 12.2926 10.628 12.7068 10.628C13.121 10.628 13.4568 10.2923 13.4568 9.87805V7.05005C13.4568 6.9472 13.4361 6.84919 13.3986 6.75995C13.3637 6.67665 13.3131 6.59836 13.2468 6.52961C13.2405 6.52301 13.234 6.51652 13.2274 6.51016C13.1584 6.44355 13.0797 6.39277 12.996 6.35784C12.9077 6.32088 12.8107 6.30035 12.7091 6.30005C12.7083 6.30005 12.7076 6.30005 12.7068 6.30005H9.87877C9.46455 6.30005 9.12877 6.63584 9.12877 7.05005C9.12877 7.46426 9.46455 7.80005 9.87877 7.80005H10.8961ZM11.2928 13.3708C10.8786 13.3708 10.5428 13.7066 10.5428 14.1208V16.9488C10.5427 17.1409 10.6159 17.334 10.7625 17.4805C10.9205 17.6385 11.1314 17.7113 11.3382 17.6988H14.1208C14.535 17.6988 14.8708 17.3631 14.8708 16.9488C14.8708 16.5346 14.535 16.1988 14.1208 16.1988H13.1048L17.4801 11.8235C17.773 11.5307 17.773 11.0558 17.4801 10.7629C17.1872 10.47 16.7124 10.47 16.4195 10.7629L12.0428 15.1396V14.1208C12.0428 13.7066 11.707 13.3708 11.2928 13.3708Z" fill="white"/>
</svg>
