<svg width="24" height="24" viewBox="0 0 24 24" fill="none" xmlns="http://www.w3.org/2000/svg">
<path d="M17.8335 6.16634C14.6114 2.94423 9.3882 2.94423 6.1661 6.16634C2.94399 9.38844 2.94399 14.6116 6.1661 17.8337C9.3882 21.0558 14.6114 21.0558 17.8335 17.8337C21.0556 14.6116 21.0556 9.38844 17.8335 6.16634ZM5.10544 5.10568C8.91333 1.29778 15.0862 1.29778 18.8941 5.10568C22.702 8.91357 22.702 15.0864 18.8941 18.8943C15.0862 22.7022 8.91333 22.7022 5.10544 18.8943C1.29754 15.0864 1.29754 8.91357 5.10544 5.10568ZM15.5301 8.46991C15.823 8.76281 15.823 9.23768 15.5301 9.53057L10.8105 14.2502H13.4998C13.914 14.2502 14.2498 14.586 14.2498 15.0002C14.2498 15.4145 13.914 15.7502 13.4998 15.7502H8.99976C8.89807 15.7502 8.8011 15.73 8.71267 15.6933C8.62421 15.6567 8.54134 15.6025 8.46943 15.5306C8.39752 15.4587 8.34327 15.3758 8.30667 15.2873C8.27 15.1989 8.24976 15.1019 8.24976 15.0002V10.5002C8.24976 10.086 8.58555 9.75024 8.99976 9.75024C9.41397 9.75024 9.74976 10.086 9.74976 10.5002V13.1896L14.4695 8.46991C14.7624 8.17702 15.2372 8.17702 15.5301 8.46991Z" fill="white"/>
</svg>
