<svg width="24" height="24" viewBox="0 0 24 24" fill="none" xmlns="http://www.w3.org/2000/svg">
<path d="M17.8335 6.16634C14.6114 2.94423 9.3882 2.94423 6.1661 6.16634C2.94399 9.38844 2.94399 14.6116 6.1661 17.8337C9.3882 21.0558 14.6114 21.0558 17.8335 17.8337C21.0556 14.6116 21.0556 9.38844 17.8335 6.16634ZM5.10544 5.10568C8.91333 1.29778 15.0862 1.29778 18.8941 5.10568C22.702 8.91357 22.702 15.0864 18.8941 18.8943C15.0862 22.7022 8.91333 22.7022 5.10544 18.8943C1.29754 15.0864 1.29754 8.91357 5.10544 5.10568ZM10.8105 9.75024H13.4998C13.914 9.75024 14.2498 9.41446 14.2498 9.00024C14.2498 8.58603 13.914 8.25024 13.4998 8.25024H8.99976C8.89807 8.25024 8.8011 8.27048 8.71267 8.30715C8.62421 8.34375 8.54134 8.39801 8.46943 8.46991C8.39752 8.54182 8.34327 8.6247 8.30667 8.71316C8.27 8.80159 8.24976 8.89855 8.24976 9.00024V13.5002C8.24976 13.9145 8.58555 14.2502 8.99976 14.2502C9.41397 14.2502 9.74976 13.9145 9.74976 13.5002V10.8109L14.4695 15.5306C14.7624 15.8235 15.2372 15.8235 15.5301 15.5306C15.823 15.2377 15.823 14.7628 15.5301 14.4699L10.8105 9.75024Z" fill="white"/>
</svg>
