<svg width="24" height="24" viewBox="0 0 24 24" fill="none" xmlns="http://www.w3.org/2000/svg">
<path d="M6.1661 6.16634C9.3882 2.94423 14.6114 2.94423 17.8335 6.16634C21.0556 9.38844 21.0556 14.6116 17.8335 17.8337C14.6114 21.0558 9.3882 21.0558 6.1661 17.8337C2.94399 14.6116 2.94399 9.38844 6.1661 6.16634ZM18.8941 5.10568C15.0862 1.29778 8.91333 1.29778 5.10544 5.10568C1.29754 8.91357 1.29754 15.0864 5.10544 18.8943C8.91333 22.7022 15.0862 22.7022 18.8941 18.8943C22.702 15.0864 22.702 8.91357 18.8941 5.10568ZM9.06944 6.66962C9.36233 6.37673 9.8372 6.37673 10.1301 6.66962L12.6027 9.15372C12.6286 9.18861 12.6515 9.22583 12.6711 9.26499C12.7215 9.36579 12.7498 9.47951 12.7498 9.59985C12.7498 9.61185 12.7495 9.62394 12.7489 9.63593C12.7456 9.70522 12.7328 9.77413 12.7103 9.84053C12.6746 9.94642 12.6145 10.0459 12.5301 10.1303L10.1301 12.5303C9.8372 12.8232 9.36233 12.8232 9.06944 12.5303C8.77654 12.2374 8.77654 11.7625 9.06944 11.4696L10.1892 10.3499H6.99976C6.58555 10.3499 6.24976 10.0141 6.24976 9.59985C6.24976 9.18564 6.58555 8.84985 6.99976 8.84985H10.189L9.06944 7.73028C8.77654 7.43739 8.77654 6.96251 9.06944 6.66962ZM12.6027 9.15372C12.581 9.12437 12.5568 9.09624 12.5301 9.06962L12.5231 9.06256C12.552 9.09073 12.5786 9.12122 12.6027 9.15372ZM14.9301 12.5306C15.223 12.2377 15.223 11.7628 14.9301 11.4699C14.6372 11.177 14.1624 11.177 13.8695 11.4699L11.4767 13.8627C11.4457 13.8928 11.4174 13.9256 11.392 13.9607C11.3695 13.9916 11.3498 14.0239 11.3327 14.0571C11.2797 14.1599 11.2498 14.2765 11.2498 14.4001C11.2498 14.4865 11.2644 14.5695 11.2913 14.6467C11.3273 14.7504 11.3867 14.8478 11.4695 14.9306L13.8695 17.3306C14.1624 17.6235 14.6372 17.6235 14.9301 17.3306C15.223 17.0377 15.223 16.5628 14.9301 16.2699L13.8104 15.1501H16.9998C17.414 15.1501 17.7498 14.8144 17.7498 14.4001C17.7498 13.9859 17.414 13.6501 16.9998 13.6501H13.8106L14.9301 12.5306Z" fill="white"/>
</svg>
