<svg width="24" height="24" viewBox="0 0 24 24" fill="none" xmlns="http://www.w3.org/2000/svg">
<path d="M16.9697 6.46967C17.2626 6.17678 17.7374 6.17678 18.0303 6.46967C18.3232 6.76256 18.3232 7.23744 18.0303 7.53033L13.5607 12L18.0303 16.4697C18.3232 16.7626 18.3232 17.2374 18.0303 17.5303C17.7374 17.8232 17.2626 17.8232 16.9697 17.5303L11.9697 12.5303C11.6768 12.2374 11.6768 11.7626 11.9697 11.4697L16.9697 6.46967ZM9.96967 7.46967C10.2626 7.17678 10.7374 7.17678 11.0303 7.46967C11.3232 7.76256 11.3232 8.23744 11.0303 8.53033L7.56066 12L11.0303 15.4697C11.3232 15.7626 11.3232 16.2374 11.0303 16.5303C10.7374 16.8232 10.2626 16.8232 9.96967 16.5303L5.96967 12.5303C5.67678 12.2374 5.67678 11.7626 5.96967 11.4697L9.96967 7.46967Z" fill="white"/>
</svg>
