<svg width="24" height="24" viewBox="0 0 24 24" fill="none" xmlns="http://www.w3.org/2000/svg">
<path d="M14.7502 6.91508C14.7502 5.51847 13.1156 4.76782 12.0534 5.66781L6.70292 10.2004C5.94751 10.8384 5.92757 11.9974 6.66289 12.661L12.0139 17.502C13.0629 18.4481 14.7502 17.7128 14.7502 16.2891V14.3424C17.6965 14.5058 20.1073 15.6676 21.317 18.3376C21.4628 18.6593 21.8133 18.8357 22.1585 18.7612C22.5038 18.6866 22.7502 18.3813 22.7502 18.0281V17.0281C22.7502 14.351 21.767 12.16 20.1529 10.6413C18.7175 9.29085 16.8174 8.50369 14.7502 8.35065V6.91508ZM13.0231 6.81224C13.0524 6.78742 13.076 6.7804 13.0946 6.77829C13.1167 6.7758 13.1437 6.77932 13.1711 6.79196C13.1985 6.80461 13.2184 6.82278 13.2304 6.84066C13.2405 6.85564 13.2502 6.87748 13.2502 6.91508V9.07308C13.2502 9.48729 13.586 9.82308 14.0002 9.82308C16.0152 9.82308 17.825 10.5107 19.125 11.7338C20.0882 12.6401 20.7954 13.8622 21.0937 15.3734C19.2701 13.5219 16.6884 12.8221 14.0002 12.8221C13.586 12.8221 13.2502 13.1579 13.2502 13.5721V16.2891C13.2502 16.3275 13.2402 16.3491 13.2302 16.3636C13.2181 16.3813 13.1977 16.3996 13.1692 16.4122C13.1408 16.4247 13.1128 16.4278 13.0904 16.4247C13.0716 16.4222 13.0476 16.4144 13.0185 16.3881L7.6684 11.5479L7.66758 11.5472C7.60748 11.493 7.60907 11.3984 7.67081 11.3464L7.67202 11.3453L13.0231 6.81224ZM7.86804 7.02246C8.18408 6.75471 8.22323 6.28145 7.95548 5.96541C7.68773 5.64936 7.21447 5.61022 6.89843 5.87797L1.81477 10.1848L1.81401 10.1855C1.07755 10.8072 1.06033 11.9336 1.77403 12.5793L6.85903 17.1803C7.16618 17.4583 7.64046 17.4346 7.91837 17.1274C8.19628 16.8203 8.17258 16.346 7.86544 16.0681L2.78044 11.4671C2.73841 11.429 2.74092 11.366 2.7817 11.3316L2.78304 11.3305L7.86804 7.02246Z" fill="white"/>
</svg>
