<svg width="24" height="24" viewBox="0 0 24 24" fill="none" xmlns="http://www.w3.org/2000/svg">
<path d="M16.75 5.5C16.75 6.46679 17.5332 7.25 18.5 7.25C19.4668 7.25 20.25 6.46679 20.25 5.5C20.25 4.53321 19.4668 3.75 18.5 3.75C17.5332 3.75 16.75 4.53321 16.75 5.5ZM18.5 8.75C16.9629 8.75 15.6754 7.68352 15.3369 6.25H7C6.30921 6.25 5.75 6.80921 5.75 7.5V9.93934L6.46967 9.21967C6.76256 8.92678 7.23744 8.92678 7.53033 9.21967C7.82322 9.51256 7.82322 9.98744 7.53033 10.2803L5.53033 12.2803C5.45842 12.3522 5.37555 12.4065 5.28709 12.4431C5.19866 12.4798 5.10169 12.5 5 12.5C4.89831 12.5 4.80134 12.4798 4.71291 12.4431C4.62445 12.4065 4.54158 12.3522 4.46967 12.2803L2.46967 10.2803C2.17678 9.98744 2.17678 9.51256 2.46967 9.21967C2.76256 8.92678 3.23744 8.92678 3.53033 9.21967L4.25 9.93934V7.5C4.25 5.98079 5.48079 4.75 7 4.75H15.3369C15.6754 3.31648 16.9629 2.25 18.5 2.25C20.2952 2.25 21.75 3.70479 21.75 5.5C21.75 7.29521 20.2952 8.75 18.5 8.75ZM18.7129 11.5569C18.6245 11.5935 18.5416 11.6478 18.4697 11.7197L16.4697 13.7197C16.1768 14.0126 16.1768 14.4874 16.4697 14.7803C16.7626 15.0732 17.2374 15.0732 17.5303 14.7803L18.25 14.0607V16.5C18.25 17.1908 17.6908 17.75 17 17.75H8.66307C8.32458 16.3165 7.03707 15.25 5.5 15.25C3.70479 15.25 2.25 16.7048 2.25 18.5C2.25 20.2952 3.70479 21.75 5.5 21.75C7.03707 21.75 8.32458 20.6835 8.66307 19.25H17C18.5192 19.25 19.75 18.0192 19.75 16.5V14.0607L20.4697 14.7803C20.7626 15.0732 21.2374 15.0732 21.5303 14.7803C21.8232 14.4874 21.8232 14.0126 21.5303 13.7197L19.5303 11.7197C19.393 11.5824 19.2158 11.5094 19.036 11.5009C19.024 11.5003 19.012 11.5 19 11.5C18.8983 11.5 18.8013 11.5202 18.7129 11.5569ZM7.25 18.5C7.25 19.4668 6.46679 20.25 5.5 20.25C4.53321 20.25 3.75 19.4668 3.75 18.5C3.75 17.5332 4.53321 16.75 5.5 16.75C6.46679 16.75 7.25 17.5332 7.25 18.5Z" fill="white"/>
</svg>
