<svg width="24" height="24" viewBox="0 0 24 24" fill="none" xmlns="http://www.w3.org/2000/svg">
<path d="M17.9697 3.96967C18.2626 3.67678 18.7374 3.67678 19.0303 3.96967L21.5303 6.46967C21.6768 6.61612 21.75 6.80806 21.75 7C21.75 7.10169 21.7298 7.19866 21.6931 7.28709C21.6565 7.37555 21.6022 7.45842 21.5303 7.53033L19.0303 10.0303C18.7374 10.3232 18.2626 10.3232 17.9697 10.0303C17.6768 9.73744 17.6768 9.26256 17.9697 8.96967L19.1893 7.75H16C14.7572 7.75 13.75 8.75721 13.75 10V14C13.75 16.0712 12.0712 17.75 10 17.75H9.67465C9.5331 18.4468 9.1921 19.1112 8.65165 19.6516C7.18718 21.1161 4.81281 21.1161 3.34835 19.6516C1.88388 18.1872 1.88388 15.8128 3.34835 14.3483C4.81281 12.8839 7.18718 12.8839 8.65165 14.3483C9.1921 14.8888 9.5331 15.5532 9.67465 16.25H10C11.2428 16.25 12.25 15.2428 12.25 14V10C12.25 7.92879 13.9288 6.25 16 6.25H19.1893L17.9697 5.03033C17.6768 4.73744 17.6768 4.26256 17.9697 3.96967ZM7.59099 15.409C6.71231 14.5303 5.28768 14.5303 4.40901 15.409C3.53033 16.2877 3.53033 17.7123 4.40901 18.591C5.28768 19.4697 6.71231 19.4697 7.59099 18.591C8.46966 17.7123 8.46966 16.2877 7.59099 15.409Z" fill="white"/>
</svg>
