<svg width="24" height="24" viewBox="0 0 24 24" fill="none" xmlns="http://www.w3.org/2000/svg">
<path d="M11.5083 1.55781C11.7868 1.86446 11.764 2.33878 11.4573 2.61725L10.8465 3.17196C11.24 3.11684 11.6423 3.08789 12.0521 3.08789C16.1982 3.08789 19.6675 5.93766 20.6382 9.77809C20.7397 10.1797 20.4965 10.5875 20.0949 10.689C19.6933 10.7905 19.2855 10.5473 19.184 10.1457C18.3767 6.95212 15.492 4.58789 12.0521 4.58789C11.6466 4.58789 11.2492 4.62216 10.8616 4.68716L11.4 5.08672C11.7327 5.33355 11.8022 5.8033 11.5554 6.13594C11.3086 6.46858 10.8388 6.53814 10.5062 6.29131L8.73998 4.98073C8.73366 4.97619 8.7274 4.97154 8.72121 4.9668L8.30817 4.66031C8.12797 4.52659 8.0171 4.31921 8.00601 4.09508C7.99492 3.87096 8.08477 3.65364 8.25089 3.50279L10.4489 1.50679C10.7555 1.22832 11.2299 1.25117 11.5083 1.55781ZM6.92092 6.68079C7.21789 6.39203 7.22456 5.91721 6.9358 5.62023C6.64705 5.32326 6.17222 5.31659 5.87525 5.60535C3.03526 8.36671 2.30089 12.7951 4.3746 16.3861C4.57998 16.7418 4.80679 17.0764 5.05187 17.3901L4.26367 17.1378C3.86917 17.0116 3.44701 17.2291 3.32077 17.6236C3.19452 18.0181 3.41199 18.4402 3.80649 18.5665L6.63449 19.4715C6.84821 19.5399 7.08132 19.509 7.26985 19.3873C7.45837 19.2656 7.5825 19.0658 7.60816 18.8429L7.92116 16.1239C7.96853 15.7124 7.67335 15.3404 7.26185 15.2931C6.85036 15.2457 6.47837 15.5409 6.431 15.9524L6.35451 16.6168C6.10452 16.3138 5.87622 15.987 5.67357 15.636C3.95328 12.657 4.5589 8.97742 6.92092 6.68079ZM20.8815 12.3786C21.0811 12.4811 21.2244 12.6675 21.272 12.8868L21.902 15.7888C21.9899 16.1936 21.733 16.593 21.3282 16.6808C20.9234 16.7687 20.524 16.5118 20.4362 16.107L20.261 15.3002C20.1119 15.6688 19.9357 16.0319 19.7306 16.387C17.6571 19.9777 13.4558 21.5575 9.64366 20.4776C9.24513 20.3647 9.01359 19.9501 9.12649 19.5515C9.23939 19.153 9.65399 18.9215 10.0525 19.0344C13.2224 19.9324 16.7111 18.6162 18.4316 15.6369C18.6345 15.2855 18.8037 14.924 18.9413 14.5556L18.3263 14.8221C17.9462 14.9868 17.5046 14.8122 17.3399 14.4321C17.1752 14.052 17.3498 13.6104 17.7299 13.4457L20.2409 12.3577C20.4468 12.2685 20.6818 12.2762 20.8815 12.3786Z" fill="white"/>
</svg>
