<svg width="24" height="24" viewBox="0 0 24 24" fill="none" xmlns="http://www.w3.org/2000/svg">
<path d="M13.0303 2.96967C12.7374 2.67678 12.2626 2.67678 11.9697 2.96967C11.6768 3.26256 11.6768 3.73744 11.9697 4.03033L13.1893 5.25H9C5.27179 5.25 2.25 8.27179 2.25 12C2.25 14.1527 3.26104 16.0646 4.82546 17.2988C5.15065 17.5554 5.62225 17.4997 5.87881 17.1745C6.13537 16.8493 6.07973 16.3777 5.75454 16.1212C4.53296 15.1574 3.75 13.6713 3.75 12C3.75 9.10021 6.10021 6.75 9 6.75H13.1893L11.9697 7.96967C11.6768 8.26256 11.6768 8.73744 11.9697 9.03033C12.2626 9.32322 12.7374 9.32322 13.0303 9.03033L15.5303 6.53033C15.6768 6.38388 15.75 6.19194 15.75 6C15.75 5.89831 15.7298 5.80134 15.6931 5.71291C15.6565 5.62445 15.6022 5.54158 15.5303 5.46967L13.0303 2.96967ZM19.1745 6.70126C18.8493 6.4447 18.3777 6.50034 18.1212 6.82553C17.8646 7.15072 17.9203 7.62232 18.2455 7.87888C19.467 8.84264 20.25 10.3287 20.25 12.0001C20.25 14.8999 17.8998 17.2501 15 17.2501H10.8106L12.0303 16.0303C12.3232 15.7374 12.3232 15.2626 12.0303 14.9697C11.7374 14.6768 11.2626 14.6768 10.9697 14.9697L8.46967 17.4697C8.38996 17.5494 8.33194 17.6426 8.29562 17.7419C8.26611 17.8224 8.25 17.9093 8.25 18.0001C8.25 18.1155 8.27609 18.2249 8.32271 18.3226C8.34607 18.3717 8.37507 18.4187 8.4097 18.4628C8.43009 18.4887 8.45216 18.5133 8.47574 18.5364L10.9697 21.0303C11.2626 21.3232 11.7374 21.3232 12.0303 21.0303C12.3232 20.7374 12.3232 20.2626 12.0303 19.9697L10.8107 18.7501H15C18.7282 18.7501 21.75 15.7283 21.75 12.0001C21.75 9.8474 20.739 7.9355 19.1745 6.70126Z" fill="white"/>
</svg>
