<svg width="24" height="24" viewBox="0 0 24 24" fill="none" xmlns="http://www.w3.org/2000/svg">
<path d="M6.87323 6.87333C9.70434 4.04222 14.2955 4.04222 17.1266 6.87333C17.3037 7.05038 17.4692 7.23464 17.6236 7.42516H15.9529C15.5387 7.42516 15.2029 7.76095 15.2029 8.17516C15.2029 8.58937 15.5387 8.92516 15.9529 8.92516H19.4879C19.9021 8.92516 20.2379 8.58937 20.2379 8.17516V4.63916C20.2379 4.22495 19.9021 3.88916 19.4879 3.88916C19.0737 3.88916 18.7379 4.22495 18.7379 4.63916V6.41837C18.566 6.21016 18.3825 6.00793 18.1873 5.81267C14.7704 2.39578 9.22946 2.39578 5.81257 5.81267C4.13996 7.48528 3.28897 9.66777 3.254 11.858C3.24738 12.2722 3.57776 12.6133 3.99193 12.6199C4.40609 12.6265 4.74719 12.2961 4.7538 11.882C4.78283 10.0642 5.48784 8.25872 6.87323 6.87333ZM20.7419 12.0352C20.7436 11.621 20.4091 11.2839 19.9949 11.2822C19.5807 11.2806 19.2436 11.6151 19.2419 12.0293C19.2347 13.8784 18.5337 15.7198 17.1266 17.1269C14.2955 19.958 9.70433 19.958 6.87323 17.1269C6.69622 16.9499 6.53072 16.7657 6.37634 16.5752H8.0469C8.46112 16.5752 8.7969 16.2394 8.7969 15.8252C8.7969 15.411 8.46112 15.0752 8.0469 15.0752H4.5119C4.09769 15.0752 3.7619 15.411 3.7619 15.8252V19.3612C3.7619 19.7754 4.09769 20.1112 4.5119 20.1112C4.92612 20.1112 5.2619 19.7754 5.2619 19.3612V17.5819C5.43388 17.7901 5.61731 17.9923 5.81257 18.1876C9.22946 21.6045 14.7704 21.6045 18.1873 18.1876C19.8881 16.4867 20.7332 14.26 20.7419 12.0352Z" fill="white"/>
</svg>
