<svg width="24" height="24" viewBox="0 0 24 24" fill="none" xmlns="http://www.w3.org/2000/svg">
<g clip-path="url(#clip0_7_2548)">
<mask id="mask0_7_2548" style="mask-type:luminance" maskUnits="userSpaceOnUse" x="0" y="0" width="24" height="24">
<path d="M24 0H0V24H24V0Z" fill="white"/>
</mask>
<g mask="url(#mask0_7_2548)">
<path d="M3.89985 14.5C4.29985 14.4 4.59985 14 4.49985 13.6C3.99985 10.2 5.79985 6.89998 8.89985 5.59998C9.29985 5.49998 9.59985 5.29998 9.99985 5.19998L9.69985 5.79998C9.49985 6.19998 9.59985 6.59998 9.99985 6.79998C10.0999 6.89998 10.1999 6.99998 10.2999 6.99998C10.5999 6.99998 10.7999 6.89998 10.9999 6.59998L12.3999 4.19998C12.4999 3.99998 12.4999 3.79998 12.4999 3.59998C12.3999 3.39998 12.2999 3.19998 11.9999 3.19998L9.19985 2.19998C8.69985 1.99998 8.29985 2.19998 8.19985 2.59998C7.99985 2.99998 8.29985 3.39998 8.59985 3.59998L9.39985 3.89998C9.09985 3.89998 8.69985 4.09998 8.29985 4.19998C4.49985 5.89998 2.39985 9.79998 2.99985 13.9C3.09985 14.3 3.39985 14.5 3.69985 14.5C3.79985 14.5 3.79985 14.5 3.89985 14.5Z" fill="white"/>
<path d="M22.1999 14.2C21.8999 13.9 21.4999 13.9 21.0999 14.1L20.3999 14.7C20.4999 14.3 20.5999 13.9 20.5999 13.5C21.0999 9.39998 18.6999 5.59998 14.8999 4.09998C14.4999 3.99998 14.0999 4.09998 13.8999 4.49998C13.7999 4.89998 13.8999 5.29998 14.2999 5.49998C17.4999 6.69998 19.4999 9.89998 19.0999 13.3C19.0999 13.7 18.9999 14.1 18.8999 14.5L18.5999 13.9C18.3999 13.5 17.8999 13.4 17.5999 13.6C17.1999 13.8 17.0999 14.3 17.2999 14.6L18.6999 17C18.7999 17.2 18.9999 17.3 19.1999 17.4H19.2999C19.4999 17.4 19.6999 17.3 19.7999 17.2L22.0999 15.2C22.4999 15 22.4999 14.5 22.1999 14.2Z" fill="white"/>
<path d="M16.5999 18.2C13.9999 20.4 10.1999 20.5 7.49985 18.4C7.19985 18.2 6.89985 17.9 6.59985 17.6H7.29985C7.69985 17.6 7.99985 17.3 7.99985 16.8C7.99985 16.3 7.69985 16 7.19985 16H4.39985C4.19985 16 3.99985 16.1 3.79985 16.3C3.69985 16.5 3.59985 16.7 3.59985 16.9L4.29985 20C4.39985 20.4 4.69985 20.6 4.99985 20.6H5.09985C5.49985 20.5 5.79985 20.1 5.69985 19.7L5.49985 18.8C5.79985 19.1 6.09985 19.4 6.39985 19.6C7.99985 20.8 9.89985 21.4 11.6999 21.4C13.6999 21.4 15.6999 20.7 17.3999 19.4C17.6999 19.1 17.7999 18.7 17.4999 18.3C17.2999 18 16.8999 18 16.5999 18.2Z" fill="white"/>
</g>
</g>
<defs>
<clipPath id="clip0_7_2548">
<rect width="24" height="24" fill="white"/>
</clipPath>
</defs>
</svg>
