<svg width="24" height="24" viewBox="0 0 24 24" fill="none" xmlns="http://www.w3.org/2000/svg">
<path d="M12 2.25C6.61479 2.25 2.25 6.61479 2.25 12C2.25 12.591 2.31141 13.1606 2.40857 13.7072C2.48106 14.1151 2.87042 14.3869 3.27824 14.3144C3.68607 14.2419 3.95791 13.8526 3.88543 13.4448C3.80059 12.9674 3.75 12.487 3.75 12C3.75 7.44321 7.44321 3.75 12 3.75C14.2112 3.75 16.2166 4.62252 17.6976 6.04276H17.187C16.7728 6.04276 16.437 6.37855 16.437 6.79276C16.437 7.20698 16.7728 7.54276 17.187 7.54276H19.3115C19.3256 7.54316 19.3397 7.54316 19.3538 7.54276H19.576C19.9902 7.54276 20.326 7.20698 20.326 6.79276V4.40576C20.326 3.99155 19.9902 3.65576 19.576 3.65576C19.1618 3.65576 18.826 3.99155 18.826 4.40576V5.04791C17.0695 3.32004 14.6618 2.25 12 2.25ZM4.42401 16.457C4.0098 16.457 3.67401 16.7928 3.67401 17.207V19.594C3.67401 20.0082 4.0098 20.344 4.42401 20.344C4.83822 20.344 5.17401 20.0082 5.17401 19.594V18.952C6.93049 20.6799 9.33825 21.75 12 21.75C17.3852 21.75 21.75 17.3852 21.75 12C21.75 11.4089 21.6886 10.8394 21.5915 10.2927C21.519 9.88489 21.1296 9.61304 20.7218 9.68553C20.314 9.75801 20.0421 10.1474 20.1146 10.5552C20.1994 11.0325 20.25 11.513 20.25 12C20.25 16.5567 16.5568 20.25 12 20.25C9.78874 20.25 7.78323 19.3774 6.30224 17.957H6.81301C7.22723 17.957 7.56301 17.6212 7.56301 17.207C7.56301 16.7928 7.22723 16.457 6.81301 16.457H4.68164C4.67215 16.4569 4.66264 16.4569 4.65314 16.457H4.42401Z" fill="white"/>
</svg>
