<svg width="24" height="24" viewBox="0 0 24 24" fill="none" xmlns="http://www.w3.org/2000/svg">
<path d="M10.2502 5.58099C10.2502 5.36771 10.0012 5.25267 9.83872 5.39066L3.80764 10.5096C3.69325 10.6063 3.6896 10.7825 3.80188 10.8843L9.83154 16.3499C9.83147 16.3499 9.83161 16.35 9.83154 16.3499C9.99316 16.4959 10.2502 16.3805 10.2502 16.165V13.097C10.2502 12.6828 10.586 12.347 11.0002 12.347C14.5196 12.347 17.8864 13.2223 20.1433 15.6024C19.8389 13.6724 18.9027 12.1151 17.5631 10.9767C15.902 9.56502 13.5824 8.76799 11.0002 8.76799C10.586 8.76799 10.2502 8.4322 10.2502 8.01799V5.58099ZM8.86792 4.24719C10.0054 3.28138 11.7502 4.09035 11.7502 5.58099V7.28827C14.3439 7.42931 16.7338 8.30343 18.5345 9.83374C20.5195 11.5207 21.7502 13.9752 21.7502 17V18.129C21.7502 18.4767 21.5112 18.7788 21.1729 18.8588C20.8346 18.9389 20.4856 18.7759 20.3297 18.4651C18.7677 15.3494 15.5991 14.0116 11.7502 13.8614V16.165C11.7502 17.6834 9.94933 18.4798 8.82494 17.462L2.7946 11.9957C2.01106 11.2856 2.03122 10.0482 2.83829 9.36487C2.83811 9.36502 2.83847 9.36471 2.83829 9.36487L8.86792 4.24719C8.86797 4.24714 8.86786 4.24723 8.86792 4.24719Z" fill="white"/>
</svg>
