<svg width="24" height="24" viewBox="0 0 24 24" fill="none" xmlns="http://www.w3.org/2000/svg">
<path d="M12.5597 1.96967C12.8526 1.67678 13.3274 1.67678 13.6203 1.96967L15.1203 3.46967C15.4132 3.76256 15.4132 4.23744 15.1203 4.53033L14.8022 4.84848C14.7954 4.85554 14.7885 4.86246 14.7814 4.86923L13.6203 6.03033C13.3274 6.32322 12.8526 6.32322 12.5597 6.03033C12.2668 5.73744 12.2668 5.26256 12.5597 4.96967L12.7406 4.78869C12.497 4.7632 12.25 4.75 12 4.75C7.99621 4.75 4.75 7.99621 4.75 12C4.75 13.9588 5.52829 15.734 6.79287 17.0403C7.08097 17.338 7.07326 17.8128 6.77565 18.1009C6.47805 18.389 6.00323 18.3813 5.71513 18.0837C4.19171 16.51 3.25 14.3652 3.25 12C3.25 7.16779 7.16779 3.25 12 3.25C12.2764 3.25 12.5493 3.26331 12.8183 3.28899L12.5597 3.03033C12.2668 2.73744 12.2668 2.26256 12.5597 1.96967ZM15.7523 9.33051C16.0452 9.6234 16.0452 10.0983 15.7523 10.3912L11.8633 14.2802C11.5704 14.5731 11.0956 14.5731 10.8027 14.2802L8.46967 11.9472C8.17678 11.6543 8.17678 11.1794 8.46967 10.8865C8.76256 10.5936 9.23744 10.5936 9.53033 10.8865L11.333 12.6892L14.6917 9.33051C14.9846 9.03762 15.4594 9.03762 15.7523 9.33051ZM11.4403 19.0303C11.7332 18.7374 11.7332 18.2626 11.4403 17.9697C11.1474 17.6768 10.6726 17.6768 10.3797 17.9697L9.21595 19.1334C9.21068 19.1385 9.20548 19.1437 9.20035 19.149L8.87967 19.4697C8.58678 19.7626 8.58678 20.2374 8.87967 20.5303L10.3797 22.0303C10.6726 22.3232 11.1474 22.3232 11.4403 22.0303C11.7332 21.7374 11.7332 21.2626 11.4403 20.9697L11.1818 20.7111C11.4508 20.7368 11.7237 20.7501 12 20.7501C16.8322 20.7501 20.75 16.8323 20.75 12.0001C20.75 9.59458 19.7739 7.42232 18.2063 5.84279C17.9146 5.54878 17.4397 5.54697 17.1457 5.83874C16.8517 6.13052 16.8499 6.60539 17.1416 6.89939C18.4441 8.21187 19.25 10.0096 19.25 12.0001C19.25 16.0039 16.0038 19.2501 12 19.2501C11.7499 19.2501 11.5029 19.2369 11.2593 19.2114L11.4403 19.0303Z" fill="white"/>
</svg>
