<svg width="24" height="24" viewBox="0 0 24 24" fill="none" xmlns="http://www.w3.org/2000/svg">
<path d="M12 3.25C7.16779 3.25 3.25 7.16779 3.25 12C3.25 16.8322 7.16779 20.75 12 20.75C16.8322 20.75 20.75 16.8322 20.75 12C20.75 11.5858 20.4142 11.25 20 11.25C19.5858 11.25 19.25 11.5858 19.25 12C19.25 16.0038 16.0038 19.25 12 19.25C7.99621 19.25 4.75 16.0038 4.75 12C4.75 7.99621 7.99621 4.75 12 4.75C14.2678 4.75 16.2933 5.79193 17.6235 7.42516H15.953C15.5388 7.42516 15.203 7.76095 15.203 8.17516C15.203 8.58937 15.5388 8.92516 15.953 8.92516H19.488C19.9022 8.92516 20.238 8.58937 20.238 8.17516V4.63916C20.238 4.22495 19.9022 3.88916 19.488 3.88916C19.0738 3.88916 18.738 4.22495 18.738 4.63916V6.41908C17.1337 4.48425 14.7114 3.25 12 3.25Z" fill="white"/>
</svg>
