<svg width="24" height="24" viewBox="0 0 24 24" fill="none" xmlns="http://www.w3.org/2000/svg">
<path d="M10.8498 4.62628L21.8205 10.4491C23.0605 11.1084 23.0627 12.8832 21.8205 13.5422L10.8335 19.3742C9.39892 20.1349 7.76626 18.7048 8.37576 17.1775L10.4705 11.9478L8.39528 6.82859C7.77598 5.30065 9.41254 3.86287 10.8498 4.62628ZM9.78875 6.26376L11.7912 11.2035L20.1062 11.2415L10.1446 5.95422C9.9259 5.83803 9.70614 6.05983 9.78875 6.26376ZM9.77226 17.7348C9.6901 17.9415 9.91149 18.1612 10.1288 18.046L20.1218 12.7416L11.7875 12.7035L9.77226 17.7348ZM4 14.25C3.58579 14.25 3.25 14.5858 3.25 15C3.25 15.4142 3.58579 15.75 4 15.75H5.604C6.01821 15.75 6.354 15.4142 6.354 15C6.354 14.5858 6.01821 14.25 5.604 14.25H4ZM2.25 12C2.25 11.5858 2.58579 11.25 3 11.25H5.604C6.01821 11.25 6.354 11.5858 6.354 12C6.354 12.4142 6.01821 12.75 5.604 12.75H3C2.58579 12.75 2.25 12.4142 2.25 12ZM2 8.25C1.58579 8.25 1.25 8.58579 1.25 9C1.25 9.41421 1.58579 9.75 2 9.75H5.604C6.01821 9.75 6.354 9.41421 6.354 9C6.354 8.58579 6.01821 8.25 5.604 8.25H2Z" fill="white"/>
</svg>
