<svg width="24" height="24" viewBox="0 0 24 24" fill="none" xmlns="http://www.w3.org/2000/svg">
<path d="M19.5303 3.46967C19.2374 3.17678 18.7626 3.17678 18.4697 3.46967C18.1768 3.76256 18.1768 4.23744 18.4697 4.53033L19.2026 5.26323L17.0275 5.25393C16.1429 5.2499 15.3109 5.67225 14.7913 6.38694L7.99535 15.7309C7.75956 16.0553 7.38108 16.247 6.97833 16.2459L3.00321 16.2289C2.589 16.2272 2.25178 16.5615 2.25001 16.9757C2.24824 17.3899 2.58258 17.7271 2.99679 17.7289L6.97367 17.7459C7.85669 17.7487 8.68857 17.3284 9.20865 16.6129L16.0047 7.26892C16.2411 6.94368 16.6195 6.75205 17.0208 6.75392L19.1762 6.76314L18.4697 7.46967C18.1768 7.76256 18.1768 8.23744 18.4697 8.53033C18.7626 8.82322 19.2374 8.82322 19.5303 8.53033L21.4148 6.6459C21.6159 6.51214 21.7489 6.28383 21.75 6.02413C21.75 6.01955 21.75 6.01498 21.7499 6.01042C21.7526 5.81502 21.6794 5.61877 21.5303 5.46967L19.5303 3.46967ZM9.20865 6.38692L10.7885 8.55872C11.0322 8.89368 10.9582 9.36275 10.6232 9.60642C10.2882 9.85008 9.81916 9.77607 9.5755 9.44111L7.9955 7.26911C7.75965 6.94467 7.38153 6.75277 6.97868 6.75391L3.00321 6.77091C2.589 6.77268 2.25178 6.43833 2.25001 6.02412C2.24824 5.60991 2.58258 5.27269 2.99679 5.27092L6.97279 5.25392C7.85573 5.25117 8.68856 5.67158 9.20865 6.38692ZM18.4697 14.4487C18.7626 14.1558 19.2374 14.1558 19.5303 14.4487L21.5303 16.4487C21.6122 16.5305 21.6711 16.6265 21.7072 16.7288C21.7261 16.7824 21.7388 16.8377 21.7451 16.8935C21.747 16.91 21.7484 16.9265 21.7491 16.943C21.7503 16.9677 21.7503 16.9924 21.749 17.0171C21.7408 17.1805 21.6794 17.3417 21.5648 17.4725C21.5524 17.4867 21.5395 17.5004 21.5261 17.5136L19.5303 19.5093C19.2374 19.8022 18.7626 19.8022 18.4697 19.5093C18.1768 19.2164 18.1768 18.7416 18.4697 18.4487L19.1815 17.7368L17.0272 17.746C16.1443 17.7488 15.3116 17.3286 14.7915 16.6132L13.2115 14.4412C12.9678 14.1063 13.0418 13.6372 13.3768 13.3935C13.7118 13.1499 14.1808 13.2239 14.4245 13.5589L16.0045 15.7309C16.2403 16.0553 16.6185 16.2472 17.0213 16.2461L19.1971 16.2368L18.4697 15.5093C18.1768 15.2164 18.1768 14.7416 18.4697 14.4487Z" fill="white"/>
</svg>
