<svg width="24" height="24" viewBox="0 0 24 24" fill="none" xmlns="http://www.w3.org/2000/svg">
<path d="M8.53035 3.48676C8.23746 3.19387 7.76259 3.19387 7.46969 3.48676L3.46869 7.48776C3.1758 7.78065 3.1758 8.25553 3.46869 8.54842C3.76159 8.84131 4.23646 8.84131 4.52935 8.54842L7.25003 5.82774V20C7.25003 20.4142 7.58582 20.75 8.00003 20.75C8.41424 20.75 8.75003 20.4142 8.75003 20V5.82776L11.4707 8.54842C11.7636 8.84131 12.2384 8.84131 12.5313 8.54842C12.8242 8.25553 12.8242 7.78065 12.5313 7.48776L8.53035 3.48676ZM15.25 12.8107V20.06C15.25 20.4742 15.5858 20.81 16 20.81C16.4142 20.81 16.75 20.4742 16.75 20.06V12.8107L19.4707 15.5313C19.7636 15.8242 20.2384 15.8242 20.5313 15.5313C20.8242 15.2384 20.8242 14.7636 20.5313 14.4707L16.5322 10.4716C16.3964 10.3347 16.2081 10.25 16 10.25C15.8052 10.25 15.6278 10.3243 15.4944 10.446C15.486 10.4537 15.4778 10.4616 15.4697 10.4697L11.4687 14.4707C11.1758 14.7636 11.1758 15.2384 11.4687 15.5313C11.7616 15.8242 12.2364 15.8242 12.5293 15.5313L15.25 12.8107Z" fill="white"/>
</svg>
