<svg width="24" height="24" viewBox="0 0 24 24" fill="none" xmlns="http://www.w3.org/2000/svg">
<path d="M12 3.25C12.1017 3.25 12.1986 3.27024 12.2871 3.3069L11.5 3.44095C11.6353 3.30812 11.7954 3.25 12 3.25ZM12.75 5.81034L12.2871 3.3069C12.3755 3.34349 12.4584 3.39772 12.5303 3.4696L16.5313 7.4696C16.8242 7.76246 16.8242 8.23733 16.5314 8.53026C16.2385 8.82319 15.7637 8.82325 15.4707 8.5304L12.75 5.81034ZM12.75 18.1884V5.81034L12.2871 3.3069L11.5 3.44095L7.46876 7.4696C7.17583 7.76246 7.17577 8.23733 7.46863 8.53026C7.76148 8.82319 8.23636 8.82325 8.52929 8.5304L11.25 5.81034V18.1884L8.52935 15.4677C8.23646 15.1748 7.76159 15.1748 7.46869 15.4677C7.1758 15.7606 7.1758 16.2355 7.46869 16.5284L11.4476 20.5073C11.5847 20.6565 11.7814 20.75 12 20.75C12.2186 20.75 12.4153 20.6565 12.5524 20.5073L16.5313 16.5284C16.8242 16.2355 16.8242 15.7606 16.5313 15.4677C16.2384 15.1748 15.7636 15.1748 15.4707 15.4677L12.75 18.1884Z" fill="white"/>
</svg>
