<svg width="24" height="24" viewBox="0 0 24 24" fill="none" xmlns="http://www.w3.org/2000/svg">
<g clip-path="url(#clip0_7_2203)">
<mask id="mask0_7_2203" style="mask-type:luminance" maskUnits="userSpaceOnUse" x="0" y="0" width="24" height="24">
<path d="M24 0H0V24H24V0Z" fill="white"/>
</mask>
<g mask="url(#mask0_7_2203)">
<path d="M16.3998 14.4L13.4998 12.4C13.3998 12.3 13.2998 12.3 13.0998 12.3L11.1998 12.2C10.9998 12.2 10.7998 12.3 10.5998 12.4L9.49983 13.5C9.19982 13.8 9.19982 14.1 9.39982 14.4L11.3998 17.4C11.4998 17.6 11.7998 17.7 11.9998 17.7H14.9998C15.2998 17.7 15.4998 17.5 15.6998 17.3L16.6998 15.3C16.7998 15 16.6998 14.6 16.3998 14.4ZM14.4998 16.3H12.3998L10.9998 14.1L11.3998 13.7L12.7998 13.8L14.9998 15.3L14.4998 16.3Z" fill="white"/>
<path d="M21.6998 11.1C21.2998 7.00002 18.2998 3.50002 14.3998 2.50002C13.8998 2.40002 13.3998 2.30002 12.8998 2.20002C9.99982 2.00002 7.09982 3.10002 5.09982 5.10002C3.09982 7.10002 1.99982 10 2.29982 12.9C2.69982 17.5 6.49983 21.3 11.0998 21.7C11.3998 21.7 11.6998 21.7 11.9998 21.7C14.5998 21.7 17.0998 20.7 18.8998 18.8C20.8998 16.9 21.9998 14 21.6998 11.1ZM6.19982 6.20002C7.69982 4.60002 9.79982 3.80002 11.9998 3.80002C12.1998 3.80002 12.4998 3.80002 12.6998 3.80002C12.8998 3.80002 12.9998 3.80002 13.1998 3.90002L12.2998 7.40002L8.79982 8.30002C8.59982 8.30002 8.39982 8.50002 8.29982 8.70002L7.69982 9.90002L4.89982 7.80002C5.29982 7.20002 5.69982 6.60002 6.19982 6.20002ZM17.7998 17.8C16.0998 19.5 13.6998 20.4 11.1998 20.2C7.29982 19.9 4.09982 16.6 3.69982 12.7C3.59982 11.5 3.79982 10.2 4.19982 9.10002L7.49982 11.6C7.59982 11.7 7.79982 11.7 7.99982 11.7C8.09982 11.7 8.09982 11.7 8.19982 11.7C8.39982 11.6 8.59982 11.5 8.69982 11.3L9.59982 9.60002L13.2998 8.70002C13.5998 8.60002 13.7998 8.40002 13.7998 8.20002L14.7998 4.20002C17.7998 5.30002 19.9998 8.00002 20.2998 11.2C20.3998 13.7 19.5998 16.1 17.7998 17.8Z" fill="white"/>
</g>
</g>
<defs>
<clipPath id="clip0_7_2203">
<rect width="24" height="24" fill="white"/>
</clipPath>
</defs>
</svg>
