<svg width="24" height="24" viewBox="0 0 24 24" fill="none" xmlns="http://www.w3.org/2000/svg">
<g clip-path="url(#clip0_7_2171)">
<mask id="mask0_7_2171" style="mask-type:luminance" maskUnits="userSpaceOnUse" x="0" y="0" width="24" height="24">
<path d="M24 0H0V24H24V0Z" fill="white"/>
</mask>
<g mask="url(#mask0_7_2171)">
<path d="M15.0002 5.60005C15.6002 5.60005 16.0002 5.20005 16.0002 4.60005C16.0002 4.30005 15.9002 4.10005 15.7002 3.90005C15.5002 3.70005 15.3002 3.60005 15.0002 3.60005C14.4002 3.60005 14.0002 4.00005 14.0002 4.60005C14.0002 5.20005 14.4002 5.60005 15.0002 5.60005Z" fill="white"/>
<path d="M18.9002 6.20005C19.1002 5.70005 19.2002 5.10005 19.2002 4.50005C19.2002 2.20005 17.3002 0.300049 14.9002 0.300049C13.0002 0.300049 11.3002 1.60005 10.8002 3.40005C6.0002 3.90005 2.2002 8.00005 2.2002 13C2.2002 18.4 6.6002 22.8 12.0002 22.8C17.4002 22.8 21.8002 18.4 21.8002 13C21.8002 10.4 20.7002 8.00005 18.9002 6.20005ZM15.0002 1.80005C16.5002 1.80005 17.8002 3.00005 17.8002 4.60005C17.8002 6.10005 16.1002 8.00005 15.0002 9.00005C13.9002 8.00005 12.2002 6.10005 12.2002 4.50005C12.2002 3.00005 13.5002 1.80005 15.0002 1.80005ZM3.8002 13C3.8002 11.8 4.0002 10.8 4.5002 9.80005C7.4002 9.80005 8.3002 10.2 8.3002 12C8.3002 14 9.5002 15 10.3002 15.6C11.0002 16.1 11.3002 16.4 11.3002 17C11.3002 17.6 10.8002 17.9 9.6002 18.4C8.9002 18.7 8.0002 19.2 7.60019 19.9C5.30019 18.5 3.8002 15.9 3.8002 13ZM8.9002 20.6C9.10019 20.3001 9.6002 20.1 10.2002 19.8C11.3002 19.3 12.7002 18.6 12.7002 17C12.7002 15.7 11.9002 15.1 11.2002 14.5C10.4002 13.9 9.7002 13.3 9.7002 12C9.7002 8.90005 7.5002 8.40005 5.2002 8.30005C6.5002 6.50005 8.4002 5.20005 10.7002 4.90005C11.0002 7.70005 14.3002 10.5 14.5002 10.6C14.6002 10.7 14.8002 10.8 15.0002 10.8C15.2002 10.8 15.3002 10.7 15.5002 10.6C15.6002 10.5 17.1002 9.30005 18.2002 7.60005C19.5002 9.10005 20.3002 11 20.3002 13C20.3002 13.1 20.3002 13.2 20.3002 13.4C18.7002 12.9 16.8002 13.5 15.9002 15.1C15.0002 16.7 15.4002 18.7 16.8002 19.9C15.5002 20.8 13.9002 21.3 12.1002 21.3C10.9002 21.3 9.9002 21 8.9002 20.6ZM17.8002 18.8C16.8002 18.2 16.4002 16.8 17.1002 15.8C17.7002 14.8 19.0002 14.4 20.0002 14.9C19.7002 16.4 18.9002 17.8 17.8002 18.8Z" fill="white"/>
</g>
</g>
<defs>
<clipPath id="clip0_7_2171">
<rect width="24" height="24" fill="white"/>
</clipPath>
</defs>
</svg>
