<svg width="24" height="24" viewBox="0 0 24 24" fill="none" xmlns="http://www.w3.org/2000/svg">
<g clip-path="url(#clip0_7_2188)">
<mask id="mask0_7_2188" style="mask-type:luminance" maskUnits="userSpaceOnUse" x="0" y="0" width="24" height="24">
<path d="M24 0H0V24H24V0Z" fill="white"/>
</mask>
<g mask="url(#mask0_7_2188)">
<path d="M21.5004 20.5L20.2004 19.2C20.5004 18.7 20.7004 18.1 20.7004 17.5C20.7004 16.6 20.4004 15.8 19.7004 15.2C18.4004 13.9 16.4004 13.9 15.1004 15.2C14.5004 15.8 14.1004 16.6 14.1004 17.5C14.1004 18.4 14.4004 19.1999 15.1004 19.7999C15.7004 20.4 16.6004 20.7999 17.4004 20.7999C18.0004 20.7999 18.6004 20.5999 19.1004 20.2999L20.4004 21.6C20.5004 21.7 20.7004 21.7999 20.9004 21.7999C21.1004 21.7999 21.3004 21.7 21.4004 21.6C21.8004 21.2 21.8004 20.7999 21.5004 20.5ZM16.3004 18.7C16.0004 18.4 15.8004 17.9 15.8004 17.5C15.8004 17 16.0004 16.5999 16.3004 16.2999C16.6004 15.9999 17.1004 15.8 17.5004 15.8C17.9004 15.8 18.4004 15.9999 18.7004 16.2999C19.0004 16.5999 19.2004 17.1 19.2004 17.5C19.2004 18 19.0004 18.4 18.7004 18.7C18.1004 19.4 16.9004 19.4 16.3004 18.7Z" fill="white"/>
<path d="M16.9004 12.2H20.0004C20.4004 12.2 20.8004 11.9 20.8004 11.4C20.8004 8.69995 19.6004 6.19995 17.7004 4.49995C16.1004 3.09995 13.9004 2.19995 11.6004 2.19995C6.50039 2.19995 2.40039 6.29995 2.40039 11.4C2.40039 16.5 6.50039 20.6 11.6004 20.6C12.0004 20.6 12.4004 20.2999 12.4004 19.7999C12.4004 19.2999 12.1004 19 11.6004 19C9.00039 19 6.70039 17.7 5.30039 15.8C7.40039 15.7 9.50039 15.2 9.50039 12.2C9.50039 11 10.1004 10.5 10.9004 9.89995C11.6004 9.29995 12.4004 8.69995 12.4004 7.49995C12.4004 5.89995 11.0004 5.29995 10.0004 4.79995C9.40039 4.49995 9.00039 4.29995 8.80039 4.09995C9.70039 3.79995 10.6004 3.59995 11.6004 3.59995C13.3004 3.59995 14.9004 4.19995 16.2004 5.09995L14.7004 6.79995C13.9004 7.79995 13.7004 9.09995 14.2004 10.2C14.5004 11.5 15.7004 12.2 16.9004 12.2ZM9.20039 6.39995C10.2004 6.89995 10.7004 7.19995 10.7004 7.69995C10.7004 8.19995 10.4004 8.49995 9.80039 8.99995C9.00039 9.59995 7.90039 10.5 7.90039 12.4C7.90039 14 7.30039 14.4 4.30039 14.5C3.90039 13.6 3.70039 12.5 3.70039 11.5C3.70039 8.79995 5.10039 6.39995 7.20039 4.99995C7.70039 5.69995 8.50039 6.09995 9.20039 6.39995ZM15.7004 7.89995L17.2004 6.19995C18.3004 7.39995 19.1004 8.99995 19.2004 10.7H16.9004C16.2004 10.7 15.6004 10.3 15.4004 9.69995C15.1004 9.09995 15.2004 8.39995 15.7004 7.89995Z" fill="white"/>
</g>
</g>
<defs>
<clipPath id="clip0_7_2188">
<rect width="24" height="24" fill="white"/>
</clipPath>
</defs>
</svg>
