<svg width="24" height="24" viewBox="0 0 24 24" fill="none" xmlns="http://www.w3.org/2000/svg">
<path d="M12 2.25C6.60385 2.25 2.25011 6.60368 2.25 11.9998C2.25 11.9997 2.25 11.9999 2.25 11.9998C2.25 13.5609 2.62323 15.0298 3.27018 16.3334C3.45431 16.7044 3.90437 16.856 4.2754 16.6718C4.64644 16.4877 4.79795 16.0376 4.61382 15.6666C4.17006 14.7724 3.87934 13.79 3.78416 12.7498H7.172C9.14821 12.7498 10.75 11.148 10.75 9.1718C10.75 8.22311 10.3731 7.31228 9.70233 6.64147L7.89668 4.83582C9.10412 4.14465 10.5046 3.75 12 3.75C15.2161 3.75 17.9932 5.57537 19.3551 8.25H16.072C15.1317 8.25 14.2703 8.78126 13.8499 9.62305L12.7172 11.8886C12.3676 12.5877 12.3676 13.4113 12.7172 14.1104L12.8502 14.3764C13.2711 15.2183 14.1307 15.75 15.072 15.75C15.4007 15.75 15.7078 15.9143 15.891 16.1891L17.3094 18.3163C16.3225 19.1442 15.1377 19.7449 13.8347 20.0395C13.4306 20.1308 13.1771 20.5323 13.2685 20.9363C13.3598 21.3404 13.7613 21.5939 14.1653 21.5025C15.9437 21.1006 17.5364 20.2158 18.7976 18.992C18.8104 18.9804 18.8227 18.9685 18.8345 18.9561C20.6348 17.1908 21.75 14.7305 21.75 12C21.75 6.60379 17.3962 2.25 12 2.25ZM18.3863 17.2275L17.139 15.3569C16.6782 14.6657 15.9033 14.25 15.072 14.25C14.6993 14.25 14.3589 14.0397 14.1918 13.7056L14.0588 13.4396C13.9204 13.1627 13.9204 12.8363 14.0588 12.5594L15.192 10.293C15.3577 9.96101 15.6985 9.75 16.072 9.75H19.9414C20.1425 10.4648 20.25 11.2195 20.25 12C20.25 13.9882 19.5517 15.8071 18.3863 17.2275ZM6.65076 5.71122L8.64167 7.70213C9.03086 8.09132 9.25 8.62048 9.25 9.1718C9.25 10.3196 8.31979 11.2498 7.172 11.2498H3.7834C3.98188 9.03188 5.05222 7.07114 6.65076 5.71122ZM7.46967 17.4697C7.76256 17.1768 8.23744 17.1768 8.53033 17.4697L10.5303 19.4697C10.6022 19.5416 10.6565 19.6245 10.6931 19.7129C10.7298 19.8013 10.75 19.8983 10.75 20C10.75 20.1919 10.6768 20.3839 10.5303 20.5303L8.53033 22.5303C8.23744 22.8232 7.76256 22.8232 7.46967 22.5303C7.17678 22.2374 7.17678 21.7626 7.46967 21.4697L8.18934 20.75H4C3.58579 20.75 3.25 20.4142 3.25 20C3.25 19.5858 3.58579 19.25 4 19.25H8.18934L7.46967 18.5303C7.17678 18.2374 7.17678 17.7626 7.46967 17.4697Z" fill="white"/>
</svg>
