<svg width="24" height="24" viewBox="0 0 24 24" fill="none" xmlns="http://www.w3.org/2000/svg">
<path d="M17.5303 2.53033C17.8232 2.23744 17.8232 1.76256 17.5303 1.46967C17.2374 1.17678 16.7626 1.17678 16.4697 1.46967L15.7477 2.19167C15.5926 2.34676 15.5132 2.56195 15.5303 2.78061C15.5474 2.99926 15.6594 3.19945 15.8368 3.32848C16.1936 3.58806 16.5282 3.86084 16.8337 4.16633C20.0548 7.38744 20.0548 12.6126 16.8337 15.8337C13.6127 19.0557 8.38753 19.0549 5.16633 15.8337C4.87344 15.5408 4.39856 15.5408 4.10567 15.8337L3.46967 16.4697C3.17678 16.7626 3.17678 17.2374 3.46967 17.5303C3.76256 17.8232 4.23744 17.8232 4.53033 17.5303L4.6561 17.4046C6.27551 18.7949 8.24347 19.5672 10.25 19.7211V21.25H8C7.58579 21.25 7.25 21.5858 7.25 22C7.25 22.4142 7.58579 22.75 8 22.75H11H14C14.4142 22.75 14.75 22.4142 14.75 22C14.75 21.5858 14.4142 21.25 14 21.25H11.75V19.7212C13.9899 19.5496 16.1818 18.6074 17.8944 16.8943C21.7012 13.0874 21.7012 6.91254 17.8943 3.10567C17.735 2.94636 17.5716 2.79659 17.4059 2.65481L17.5303 2.53033ZM7.27942 5.91208L8.52606 7.15871C8.75867 7.39132 8.88984 7.70783 8.88984 8.03778C8.88984 8.7245 8.33371 9.28063 7.64699 9.28063H5.51811C5.67066 8.11473 6.19479 6.98814 7.0905 6.09243C7.1524 6.03054 7.21539 5.97042 7.27942 5.91208ZM5.51808 10.7229H7.64699C9.13027 10.7229 10.3321 9.52106 10.3321 8.03778C10.3321 7.32573 10.0493 6.64224 9.54592 6.13885L8.48406 5.077C10.5617 4.01508 13.1706 4.35356 14.9095 6.09243C15.2483 6.43128 15.534 6.80318 15.7665 7.19775H13.828C13.0986 7.19775 12.432 7.6105 12.106 8.2624L11.3192 9.83491C11.0476 10.3769 11.0474 11.0149 11.3188 11.5569L11.4103 11.741L11.411 11.7424C11.737 12.3944 12.4035 12.8071 13.133 12.8071C13.2954 12.8071 13.4461 12.8883 13.535 13.0219L14.4188 14.3477C12.2489 16.0592 9.09283 15.9137 7.0905 13.9114C6.19472 13.0156 5.67058 11.8889 5.51808 10.7229ZM15.9062 14.9542C15.914 14.9466 15.9216 14.9389 15.9293 14.9313C18.6517 12.2089 18.6517 7.79497 15.9293 5.07257C13.2069 2.35016 8.79305 2.35016 6.07064 5.07257C4.70947 6.43373 4.02887 8.21775 4.02884 10.0018C4.02881 11.7859 4.70941 13.57 6.07064 14.9313C8.76325 17.6239 13.1105 17.6533 15.8394 15.0197C15.8633 14.9991 15.8856 14.9773 15.9062 14.9542ZM15.4465 13.289L14.7353 12.2223C14.3782 11.6859 13.7766 11.3648 13.133 11.3648C12.9507 11.3648 12.7831 11.2611 12.701 11.0974L12.6097 10.9138L12.6086 10.9116C12.5407 10.7761 12.541 10.6161 12.6089 10.4806L13.396 8.90741C13.478 8.7434 13.6455 8.64005 13.828 8.64005H16.3594C16.7579 10.2145 16.4536 11.9303 15.4465 13.289Z" fill="white"/>
</svg>
