<svg width="24" height="24" viewBox="0 0 24 24" fill="none" xmlns="http://www.w3.org/2000/svg">
<path d="M5.85012 9.87277C5.85012 6.47629 8.60325 3.72317 11.9997 3.72317C15.3962 3.72317 18.1493 6.47629 18.1493 9.87277V10.0448C18.1493 10.7694 17.9166 11.6394 17.4973 12.6013C17.0814 13.5553 16.5025 14.5538 15.8585 15.5227C14.5704 17.4605 13.0598 19.2232 12.1873 20.1915C12.0857 20.3044 11.9139 20.3046 11.8123 20.1917C10.9398 19.2234 9.42905 17.4605 8.14092 15.5227C7.4969 14.5538 6.918 13.5553 6.50214 12.6013C6.08285 11.6394 5.85012 10.7694 5.85012 10.0448V9.87277ZM11.9997 2.27637C7.8042 2.27637 4.40332 5.67724 4.40332 9.87277V10.0448C4.40332 11.0506 4.71834 12.1298 5.17586 13.1794C5.63682 14.2369 6.26379 15.3123 6.93603 16.3236C8.2804 18.346 9.84382 20.1684 10.7373 21.16C11.4136 21.9109 12.5858 21.9109 13.2621 21.16C14.1556 20.1684 15.719 18.346 17.0634 16.3236C17.7356 15.3123 18.3626 14.2369 18.8236 13.1794C19.2811 12.1298 19.5961 11.0506 19.5961 10.0448V9.87277C19.5961 5.67725 16.1952 2.27637 11.9997 2.27637ZM11.9997 7.19434C10.4952 7.19434 9.27631 8.41321 9.27631 9.91774L9.27654 9.93624L9.27631 9.95474C9.27631 11.4593 10.4952 12.6781 11.9997 12.6781C13.5042 12.6781 14.7231 11.4593 14.7231 9.95474V9.91774C14.7231 8.41321 13.5042 7.19434 11.9997 7.19434ZM10.7231 9.95474L10.7229 9.93624L10.7231 9.91774C10.7231 9.21226 11.2942 8.64114 11.9997 8.64114C12.7052 8.64114 13.2763 9.21226 13.2763 9.91774V9.95474C13.2763 10.6602 12.7052 11.2313 11.9997 11.2313C11.2942 11.2313 10.7231 10.6602 10.7231 9.95474Z" fill="white"/>
</svg>
