<svg width="24" height="24" viewBox="0 0 24 24" fill="none" xmlns="http://www.w3.org/2000/svg">
<path d="M12 2.25C17.3962 2.25 21.75 6.60379 21.75 12C21.75 17.3962 17.3962 21.75 12 21.75C6.60379 21.75 2.25 17.3962 2.25 12C2.25 11.9999 2.25 12.0001 2.25 12C2.25011 6.60388 6.60385 2.25 12 2.25ZM3.78336 12.7498C4.16029 16.9641 7.68502 20.25 12 20.25C14.0263 20.25 15.8784 19.5254 17.312 18.3202L15.891 16.1891C15.7078 15.9143 15.4007 15.75 15.072 15.75C14.1307 15.75 13.2711 15.2183 12.8502 14.3764L12.7172 14.1104C12.3676 13.4113 12.3676 12.5877 12.7172 11.8886L13.85 9.62305C14.2703 8.78126 15.1317 8.25 16.072 8.25H19.3551C17.9932 5.57537 15.2161 3.75 12 3.75C10.5046 3.75 9.10412 4.14465 7.89668 4.83582L9.70233 6.64147C10.3731 7.31228 10.75 8.22311 10.75 9.1718C10.75 11.148 9.14821 12.7498 7.172 12.7498H3.78336ZM6.65076 5.71122C5.05222 7.07114 3.98188 9.03188 3.7834 11.2498H7.172C8.31979 11.2498 9.25 10.3196 9.25 9.1718C9.25 8.62048 9.03086 8.09132 8.64167 7.70213L6.65076 5.71122ZM20.25 12C20.25 11.2195 20.1425 10.4648 19.9414 9.75H16.072C15.6985 9.75 15.3577 9.96101 15.1921 10.293L14.0588 12.5594C13.9204 12.8363 13.9204 13.1627 14.0588 13.4396L14.1918 13.7056C14.3589 14.0397 14.6993 14.25 15.072 14.25C15.9033 14.25 16.6782 14.6657 17.139 15.3569L18.3881 17.2302C19.5525 15.8083 20.25 13.988 20.25 12Z" fill="white"/>
</svg>
