<svg width="24" height="24" viewBox="0 0 24 24" fill="none" xmlns="http://www.w3.org/2000/svg">
<path d="M5.25 7.833C5.25 4.17803 8.29182 1.25 12 1.25C15.7082 1.25 18.75 4.17803 18.75 7.833C18.75 9.09267 18.3204 10.3358 17.7256 11.4615C17.315 12.2386 16.8144 12.9806 16.2907 13.6604C17.5855 13.922 18.7299 14.3021 19.6271 14.7795C20.7628 15.3839 21.75 16.2868 21.75 17.5001C21.75 18.2641 21.3489 18.9102 20.8004 19.4145C20.2526 19.9183 19.5012 20.3375 18.636 20.674C16.9007 21.3488 14.5543 21.7501 12 21.7501C9.44569 21.7501 7.09932 21.3488 5.36403 20.674C4.49877 20.3375 3.74741 19.9183 3.19956 19.4145C2.65106 18.9102 2.25 18.2641 2.25 17.5001C2.25 16.2868 3.23718 15.3839 4.37292 14.7795C5.27009 14.3021 6.41447 13.922 7.70929 13.6604C7.18559 12.9806 6.68505 12.2386 6.27439 11.4615C5.67956 10.3358 5.25 9.09267 5.25 7.833ZM14.2798 13.7425C14.3044 13.7092 14.3317 13.678 14.3612 13.6493L14.4313 13.5682C15.159 12.7216 15.8716 11.7593 16.3994 10.7606C16.9296 9.75733 17.25 8.76083 17.25 7.833C17.25 5.04597 14.9198 2.75 12 2.75C9.08018 2.75 6.75 5.04597 6.75 7.833C6.75 8.76083 7.07044 9.75733 7.60061 10.7606C8.12835 11.7593 8.84097 12.7216 9.56873 13.5682L9.63878 13.6493C9.66834 13.678 9.69561 13.7092 9.72021 13.7425C10.3951 14.5111 11.0609 15.1622 11.5704 15.631C11.7312 15.779 11.876 15.9084 12 16.0171C12.124 15.9084 12.2688 15.779 12.4296 15.631C12.9391 15.1622 13.6049 14.5111 14.2798 13.7425ZM5.07758 16.1037C4.04382 16.6538 3.75 17.1734 3.75 17.5001C3.75 17.7026 3.85256 17.9772 4.21485 18.3104C4.57778 18.6441 5.14435 18.9791 5.90772 19.276C7.42968 19.8679 9.58331 20.2501 12 20.2501C14.4167 20.2501 16.5703 19.8679 18.0923 19.276C18.8556 18.9791 19.4222 18.6441 19.7852 18.3104C20.1474 17.9772 20.25 17.7026 20.25 17.5001C20.25 17.1734 19.9562 16.6538 18.9224 16.1037C18.0179 15.6223 16.7267 15.2236 15.1802 14.9868C14.5411 15.6941 13.9259 16.2925 13.4454 16.7348C13.1561 17.0009 12.9144 17.2117 12.7438 17.3568C12.6585 17.4294 12.5909 17.4856 12.544 17.5242C12.5205 17.5435 12.5022 17.5584 12.4894 17.5688L12.4745 17.5809L12.468 17.586C12.4679 17.5861 12.468 17.586 12 17L12.468 17.586C12.1943 17.8047 11.8054 17.8044 11.5316 17.5858L11.5255 17.5809L11.5106 17.5688C11.4978 17.5584 11.4795 17.5435 11.456 17.5242C11.4091 17.4856 11.3415 17.4294 11.2562 17.3568C11.0856 17.2117 10.8439 17.0009 10.5546 16.7348C10.0741 16.2925 9.45886 15.6941 8.8198 14.9868C7.27326 15.2236 5.98209 15.6223 5.07758 16.1037ZM11.5316 17.5858C11.5318 17.5859 11.532 17.586 12 17L11.5316 17.5858ZM11.1161 7.11612C11.6042 6.62796 12.3957 6.62796 12.8839 7.11612C13.372 7.60427 13.372 8.39573 12.8839 8.88389C12.3957 9.37204 11.6042 9.37204 11.1161 8.88389C10.6279 8.39573 10.6279 7.60427 11.1161 7.11612ZM13.9445 9.94455C15.0185 8.8706 15.0185 7.1294 13.9445 6.05546C12.8706 4.98151 11.1294 4.98151 10.0554 6.05546C8.98148 7.1294 8.98148 8.8706 10.0554 9.94455C11.1294 11.0185 12.8706 11.0185 13.9445 9.94455Z" fill="white"/>
</svg>
