<svg width="24" height="24" viewBox="0 0 24 24" fill="none" xmlns="http://www.w3.org/2000/svg">
<path d="M9.86969 3.49972L14.6049 5.07647C14.862 5.16216 15.1388 5.16223 15.3958 5.07655L19.4465 3.72666C20.5797 3.34833 21.75 4.19256 21.75 5.38706V15.7641C21.75 16.8052 21.1615 17.7578 20.2294 18.2239L16.2299 20.2236C15.4555 20.6115 14.5435 20.6115 13.7691 20.2236L9.55853 18.1179C9.20693 17.9417 8.79248 17.9415 8.44089 18.1176L4.78281 19.9467C3.61838 20.5298 2.25 19.682 2.25 18.3821V7.44206C2.25 6.25855 3.00728 5.20671 4.13088 4.83253L8.13031 3.49972C8.69441 3.31127 9.30557 3.31131 9.86969 3.49972ZM9.39431 4.9224C9.13858 4.83695 8.86142 4.83695 8.60569 4.9224L4.60512 6.25559C4.09483 6.42548 3.75 6.90364 3.75 7.44206V18.3821C3.75 18.5681 3.94562 18.6883 4.11119 18.6054L7.76911 16.7765C8.54328 16.3889 9.45532 16.3887 10.2295 16.7763L14.4405 18.8823C14.7921 19.0584 15.2065 19.0586 15.5581 18.8825L19.5586 16.8822C19.9825 16.6703 20.25 16.237 20.25 15.7641V5.38706C20.25 5.21556 20.0823 5.0958 19.9215 5.14946L15.8702 6.49957C15.3052 6.68787 14.6958 6.68789 14.1308 6.49957L9.39431 4.9224ZM15 8.78027C15.4142 8.78027 15.75 9.11606 15.75 9.53027V15.4703C15.75 15.8845 15.4142 16.2203 15 16.2203C14.5858 16.2203 14.25 15.8845 14.25 15.4703V9.53027C14.25 9.11606 14.5858 8.78027 15 8.78027ZM9.75 7.53027C9.75 7.11606 9.41421 6.78027 9 6.78027C8.58579 6.78027 8.25 7.11606 8.25 7.53027V13.4703C8.25 13.8845 8.58579 14.2203 9 14.2203C9.41421 14.2203 9.75 13.8845 9.75 13.4703V7.53027Z" fill="white"/>
</svg>
