<svg width="24" height="24" viewBox="0 0 24 24" fill="none" xmlns="http://www.w3.org/2000/svg">
<g clip-path="url(#clip0_7_2500)">
<mask id="mask0_7_2500" style="mask-type:luminance" maskUnits="userSpaceOnUse" x="0" y="0" width="24" height="24">
<path d="M24 0H0V24H24V0Z" fill="white"/>
</mask>
<g mask="url(#mask0_7_2500)">
<path fill-rule="evenodd" clip-rule="evenodd" d="M21.2002 15.2C21.5002 14.2 21.7002 13.1 21.7002 12C21.7002 10.9 21.5002 9.80005 21.2002 8.80005C21.2002 8.70005 21.2002 8.70005 21.1002 8.70005C19.7002 5.00005 16.2002 2.30005 12.0002 2.30005C7.8002 2.30005 4.2002 5.00005 2.9002 8.70005C2.9002 8.70005 2.9002 8.80005 2.8002 8.80005C2.4002 9.80005 2.2002 10.9 2.2002 12C2.2002 13.1 2.4002 14.2 2.8002 15.2C2.8002 15.2 2.8002 15.3 2.9002 15.3C4.3002 19 7.8002 21.7001 12.0002 21.7001C16.2002 21.7001 19.8002 19 21.1002 15.3C21.2002 15.3 21.2002 15.2 21.2002 15.2ZM9.5002 14.3C9.2002 12.8 9.2002 11.3 9.5002 9.80005H14.6002C14.9002 11.3 14.9002 12.8 14.6002 14.3H9.5002ZM14.2002 15.8C13.7002 17.2 13.0002 18.6 12.0002 19.8C11.0002 18.6 10.3002 17.2 9.8002 15.8H14.2002ZM3.8002 12C3.8002 11.2 3.9002 10.5 4.1002 9.80005H8.0002C7.8002 11.3 7.8002 12.8 8.0002 14.3H4.1002C3.9002 13.5 3.8002 12.8 3.8002 12ZM9.8002 8.30005C10.3002 6.90005 11.0002 5.50005 12.0002 4.30005C13.0002 5.50005 13.7002 6.90005 14.2002 8.30005H9.8002ZM16.0002 9.80005H19.9002C20.1002 10.5 20.2002 11.3 20.2002 12C20.2002 12.7 20.1002 13.5 19.9002 14.2H16.0002C16.3002 12.8 16.3002 11.2 16.0002 9.80005ZM19.3002 8.30005H15.7002C15.3002 6.80005 14.6002 5.30005 13.6002 4.00005C16.1002 4.40005 18.2002 6.00005 19.3002 8.30005ZM10.4002 3.90005C9.4002 5.20005 8.7002 6.70005 8.3002 8.20005H4.7002C5.8002 6.00005 7.9002 4.40005 10.4002 3.90005ZM4.7002 15.8H8.3002C8.7002 17.3 9.4002 18.8001 10.4002 20.1C7.9002 19.6 5.8002 18 4.7002 15.8ZM13.6002 20.1C14.6002 18.8001 15.3002 17.3 15.7002 15.8H19.3002C18.2002 18 16.1002 19.6 13.6002 20.1Z" fill="white"/>
</g>
</g>
<defs>
<clipPath id="clip0_7_2500">
<rect width="24" height="24" fill="white"/>
</clipPath>
</defs>
</svg>
