<svg width="24" height="24" viewBox="0 0 24 24" fill="none" xmlns="http://www.w3.org/2000/svg">
<g clip-path="url(#clip0_7_1500)">
<mask id="mask0_7_1500" style="mask-type:luminance" maskUnits="userSpaceOnUse" x="0" y="0" width="24" height="24">
<path d="M24 0H0V24H24V0Z" fill="white"/>
</mask>
<g mask="url(#mask0_7_1500)">
<path d="M20.7004 7.09995L16.3004 2.69995C16.0004 2.39995 15.5004 2.19995 15.1004 2.19995C14.6004 2.19995 14.2004 2.39995 13.9004 2.69995L13.3004 3.29995C12.9004 3.69995 12.8004 4.09995 12.8004 4.59995L12.9004 6.59995L10.5004 8.99995H6.80039C6.30039 8.99995 5.90039 9.19995 5.60039 9.49995L4.40039 10.7C4.10039 11 3.90039 11.5 3.90039 11.9C3.90039 12.4 4.10039 12.8 4.40039 13.1L6.80039 15.5L3.00039 19.5C2.70039 19.7999 2.70039 20.3 3.00039 20.6C3.10039 20.7 3.30039 20.7999 3.50039 20.7999C3.70039 20.7999 3.90039 20.7 4.00039 20.6L7.80039 16.8L10.2004 19.2C10.5004 19.5 11.0004 19.7 11.4004 19.7C11.8004 19.7 12.3004 19.5 12.6004 19.2L13.8004 18C14.1004 17.7 14.3004 17.2 14.3004 16.8V13L16.7004 10.6L18.7004 10.7C19.2004 10.7 19.7004 10.5 20.0004 10.2L20.6004 9.59995C20.9004 9.29995 21.1004 8.79995 21.1004 8.39995C21.3004 7.89995 21.1004 7.49995 20.7004 7.09995ZM13.1004 12.2C13.0004 12.3 12.9004 12.5 12.9004 12.7V16.6C12.9004 16.7 12.9004 16.7 12.8004 16.8L11.7004 18C11.6004 18.1 11.5004 18.1 11.3004 18L5.50039 12.2C5.40039 12.1 5.40039 12 5.40039 12C5.40039 12 5.40039 11.9 5.50039 11.8L6.70039 10.6C6.70039 10.6 6.80039 10.5 6.90039 10.5H10.8004C11.0004 10.5 11.2004 10.4 11.3004 10.3L13.7004 7.99995L15.5004 9.79995L13.1004 12.2ZM19.7004 8.59995L19.1004 9.19995C19.1004 9.19995 19.0004 9.29995 18.9004 9.29995L16.9004 9.19995L14.4004 6.69995L14.3004 4.69995C14.3004 4.59995 14.3004 4.59995 14.4004 4.49995L15.0004 3.89995C15.1004 3.79995 15.2004 3.79995 15.4004 3.89995L19.8004 8.29995C19.9004 8.39995 19.9004 8.39995 19.9004 8.49995C19.8004 8.39995 19.8004 8.49995 19.7004 8.59995Z" fill="white"/>
</g>
</g>
<defs>
<clipPath id="clip0_7_1500">
<rect width="24" height="24" fill="white"/>
</clipPath>
</defs>
</svg>
