<svg width="24" height="24" viewBox="0 0 24 24" fill="none" xmlns="http://www.w3.org/2000/svg">
<path d="M3.75 10C3.75 5.67188 7.49337 2.25 12 2.25C16.5066 2.25 20.25 5.67188 20.25 10C20.25 12.4617 18.8669 14.9204 17.3603 16.8911C15.8347 18.8869 14.082 20.5105 13.1499 21.3202C12.4888 21.894 11.5124 21.8942 10.8513 21.3204C9.91859 20.5106 8.16562 18.8869 6.6398 16.8911C5.13313 14.9204 3.75 12.4617 3.75 10ZM12 3.75C8.22263 3.75 5.25 6.59612 5.25 10C5.25 11.9493 6.37387 14.0736 7.83145 15.9801C9.26988 17.8616 10.9384 19.4095 11.8347 20.1877C11.9316 20.2717 12.0692 20.2718 12.1661 20.1878C13.062 19.4095 14.7303 17.8616 16.1687 15.9801C17.6261 14.0736 18.75 11.9493 18.75 10C18.75 6.59612 15.7774 3.75 12 3.75ZM12 6.75C12.4142 6.75 12.75 7.08579 12.75 7.5V9.75H15C15.4142 9.75 15.75 10.0858 15.75 10.5C15.75 10.9142 15.4142 11.25 15 11.25H12.75V13.5C12.75 13.9142 12.4142 14.25 12 14.25C11.5858 14.25 11.25 13.9142 11.25 13.5V11.25H9C8.58579 11.25 8.25 10.9142 8.25 10.5C8.25 10.0858 8.58579 9.75 9 9.75H11.25V7.5C11.25 7.08579 11.5858 6.75 12 6.75Z" fill="white"/>
</svg>
