<svg width="24" height="24" viewBox="0 0 24 24" fill="none" xmlns="http://www.w3.org/2000/svg">
<g clip-path="url(#clip0_7_1408)">
<mask id="mask0_7_1408" style="mask-type:luminance" maskUnits="userSpaceOnUse" x="0" y="0" width="24" height="24">
<path d="M24 0H0V24H24V0Z" fill="white"/>
</mask>
<g mask="url(#mask0_7_1408)">
<path d="M17.9998 12.6L15.1998 10.6V8.39995L17.3998 6.89995C17.8998 6.59995 18.1998 5.99995 18.1998 5.39995V4.99995C18.1998 3.99995 17.3998 3.19995 16.3998 3.19995H7.3998C6.4998 3.29995 5.7998 3.99995 5.7998 4.99995V5.49995C5.7998 6.09995 6.0998 6.59995 6.5998 6.99995L8.7998 8.49995V10.7L5.9998 12.7C5.4998 13 5.2998 13.6 5.2998 14.1C5.2998 15.1 6.0998 15.8 6.9998 15.8H11.2998V20C11.2998 20.4 11.5998 20.7999 12.0998 20.7999C12.5998 20.7999 12.8998 20.5 12.8998 20V15.8H16.9998C17.9998 15.8 18.6998 15 18.6998 14.1C18.7998 13.4 18.4998 12.9 17.9998 12.6ZM16.9998 14.3H6.9998C6.8998 14.3 6.7998 14.2 6.7998 14.1C6.7998 14 6.7998 13.9 6.8998 13.9L9.9998 11.7C10.1998 11.6 10.2998 11.3 10.2998 11.1V7.99995C10.2998 7.69995 10.1998 7.49995 9.9998 7.39995L7.3998 5.69995C7.2998 5.69995 7.2998 5.59995 7.2998 5.49995V4.99995C7.2998 4.89995 7.3998 4.79995 7.4998 4.79995H16.4998C16.5998 4.79995 16.6998 4.89995 16.6998 4.99995V5.49995C16.6998 5.59995 16.6998 5.69995 16.5998 5.69995L13.9998 7.39995C13.7998 7.49995 13.6998 7.79995 13.6998 7.99995V11C13.6998 11.2 13.7998 11.5 13.9998 11.6L17.0998 13.8C17.1998 13.8 17.1998 13.9 17.1998 14C17.1998 14.1 17.0998 14.3 16.9998 14.3Z" fill="white"/>
</g>
</g>
<defs>
<clipPath id="clip0_7_1408">
<rect width="24" height="24" fill="white"/>
</clipPath>
</defs>
</svg>
