<svg width="24" height="24" viewBox="0 0 24 24" fill="none" xmlns="http://www.w3.org/2000/svg">
<path d="M15.2993 2.67775C15.5043 2.31783 15.9623 2.19225 16.3222 2.39726C17.6892 3.17589 18.8241 4.31078 19.6027 5.67775C19.8077 6.03767 19.6821 6.49564 19.3222 6.70065C18.9623 6.90566 18.5043 6.78008 18.2993 6.42016C17.6539 5.28714 16.7128 4.34602 15.5798 3.70065C15.2199 3.49564 15.0943 3.03767 15.2993 2.67775ZM12 4.25C8.82479 4.25 6.25 6.82479 6.25 10V12.504C6.25 12.5429 6.22793 12.5793 6.19166 12.5976L5.68874 12.8486C4.80775 13.2905 4.25 14.1916 4.25 15.178C4.25 16.6162 5.41579 17.782 6.854 17.782H17.146C18.5842 17.782 19.75 16.6162 19.75 15.178C19.75 14.1917 19.1918 13.2899 18.3099 12.8489L17.8093 12.5991C17.7713 12.5795 17.75 12.5424 17.75 12.504V10C17.75 6.82479 15.1752 4.25 12 4.25ZM7.75 10C7.75 7.65321 9.65321 5.75 12 5.75C14.3468 5.75 16.25 7.65321 16.25 10V12.1106V12.504C16.25 13.1133 16.5943 13.6659 17.1338 13.9384L17.1371 13.9401L17.6401 14.1911C18.0139 14.3782 18.25 14.7605 18.25 15.178C18.25 15.7878 17.7558 16.282 17.146 16.282H6.854C6.24421 16.282 5.75 15.7878 5.75 15.178C5.75 14.7606 5.9865 14.3776 6.36126 14.1894L6.86434 13.9384C7.40583 13.6667 7.75 13.1129 7.75 12.504V10ZM10.4 19.25C9.98579 19.25 9.65 19.5858 9.65 20C9.65 20.4142 9.98579 20.75 10.4 20.75H13.6C14.0142 20.75 14.35 20.4142 14.35 20C14.35 19.5858 14.0142 19.25 13.6 19.25H10.4ZM8.42021 3.70065C8.78013 3.49564 8.90571 3.03767 8.7007 2.67775C8.49569 2.31783 8.03772 2.19225 7.6778 2.39726C6.31082 3.17589 5.17594 4.31078 4.39731 5.67775C4.1923 6.03767 4.31788 6.49564 4.6778 6.70065C5.03772 6.90566 5.49569 6.78008 5.7007 6.42016C6.34607 5.28714 7.28718 4.34602 8.42021 3.70065Z" fill="white"/>
</svg>
