<svg width="24" height="24" viewBox="0 0 24 24" fill="none" xmlns="http://www.w3.org/2000/svg">
<path d="M16.0023 3.75C17.7965 3.75163 19.25 5.2061 19.25 7C19.25 8.49335 18.2433 9.75148 16.8709 10.1321C16.8312 10.139 16.7925 10.149 16.7552 10.1619C16.5129 10.2195 16.26 10.25 16 10.25C14.2052 10.25 12.75 8.79479 12.75 7C12.75 5.25044 14.2538 3.74838 16.0023 3.75ZM17.75 11.4174C19.5077 10.7206 20.75 9.00531 20.75 7C20.75 4.3779 18.6255 2.25238 16.0037 2.25C14.0348 2.24818 12.3002 3.51619 11.5907 5.26435C8.60643 5.47432 6.25 7.96241 6.25 11V13.504C6.25 13.5429 6.22793 13.5793 6.19166 13.5976L5.68874 13.8486C4.80775 14.2905 4.25 15.1916 4.25 16.178C4.25 17.6162 5.41579 18.782 6.854 18.782H17.146C18.5842 18.782 19.75 17.6162 19.75 16.178C19.75 15.1917 19.1918 14.2899 18.3099 13.8489L17.8093 13.5991C17.7713 13.5795 17.75 13.5424 17.75 13.504V11.4174ZM16.25 11.7435V13.504C16.25 14.1133 16.5943 14.6659 17.1338 14.9384L17.1371 14.9401L17.6401 15.1911C18.0139 15.3782 18.25 15.7605 18.25 16.178C18.25 16.7878 17.7558 17.282 17.146 17.282H6.854C6.24421 17.282 5.75 16.7878 5.75 16.178C5.75 15.7606 5.9865 15.3776 6.36126 15.1894L6.86434 14.9384C7.40583 14.6667 7.75 14.1129 7.75 13.504V11.5519V11C7.75 8.90781 9.26266 7.16818 11.2537 6.81534C11.2513 6.87664 11.25 6.93821 11.25 7C11.25 9.62322 13.3768 11.75 16 11.75C16.0839 11.75 16.1672 11.7478 16.25 11.7435ZM9.64999 21C9.64999 20.5858 9.98578 20.25 10.4 20.25H13.6C14.0142 20.25 14.35 20.5858 14.35 21C14.35 21.4142 14.0142 21.75 13.6 21.75H10.4C9.98578 21.75 9.64999 21.4142 9.64999 21ZM14.3397 5.33979C14.6326 5.04689 15.1074 5.04689 15.4003 5.33979L16 5.93946L16.5997 5.33979C16.8926 5.04689 17.3674 5.04689 17.6603 5.33979C17.9532 5.63268 17.9532 6.10755 17.6603 6.40045L17.0607 7.00012L17.6603 7.59979C17.9532 7.89268 17.9532 8.36755 17.6603 8.66045C17.3674 8.95334 16.8926 8.95334 16.5997 8.66045L16 8.06078L15.4003 8.66045C15.1074 8.95334 14.6326 8.95334 14.3397 8.66045C14.0468 8.36755 14.0468 7.89268 14.3397 7.59979L14.9393 7.00012L14.3397 6.40045C14.0468 6.10755 14.0468 5.63268 14.3397 5.33979Z" fill="white"/>
</svg>
