<svg width="24" height="24" viewBox="0 0 24 24" fill="none" xmlns="http://www.w3.org/2000/svg">
<path d="M14.409 4.40901C14.1672 4.65084 13.9919 4.93402 13.8832 5.2358C13.8799 5.26152 13.8753 5.28732 13.8692 5.31311C13.856 5.36951 13.8367 5.4229 13.8123 5.47279C13.6357 6.2088 13.8346 7.01656 14.409 7.59099C14.9835 8.16546 15.7913 8.36435 16.5274 8.18765C16.5772 8.16323 16.6305 8.14399 16.6869 8.13079C16.7126 8.12476 16.7384 8.12013 16.764 8.11686C17.0659 8.00814 17.3491 7.83285 17.591 7.59099C18.4696 6.71231 18.4696 5.28768 17.591 4.40901C16.7123 3.53033 15.2877 3.53033 14.409 4.40901ZM12.6599 4.2929C12.834 3.95255 13.0634 3.63323 13.3483 3.34835C14.8128 1.88388 17.1872 1.88388 18.6516 3.34835C20.1161 4.81281 20.1161 7.18718 18.6516 8.65165C18.3668 8.93653 18.0474 9.16599 17.7071 9.34003C17.7343 9.5532 17.75 9.77321 17.75 10V10.0021V12.504C17.75 12.5424 17.7713 12.5795 17.8093 12.5991L18.3099 12.8489C19.1918 13.2899 19.75 14.1917 19.75 15.178C19.75 16.6162 18.5842 17.782 17.146 17.782H6.854C5.41579 17.782 4.25 16.6162 4.25 15.178C4.25 14.1916 4.80775 13.2905 5.68874 12.8486L6.19166 12.5976C6.22793 12.5793 6.25 12.5429 6.25 12.504V10C6.25 6.82479 8.82479 4.25 12 4.25C12.2268 4.25 12.4468 4.26572 12.6599 4.2929ZM12.2577 5.75949C12.1719 5.75326 12.0861 5.75 12 5.75C9.65321 5.75 7.75 7.65321 7.75 10V10.5519V12.504C7.75 13.1129 7.40583 13.6667 6.86434 13.9384L6.36126 14.1894C5.9865 14.3776 5.75 14.7606 5.75 15.178C5.75 15.7878 6.24421 16.282 6.854 16.282H17.146C17.7558 16.282 18.25 15.7878 18.25 15.178C18.25 14.7605 18.0139 14.3782 17.6401 14.1911L17.1371 13.9401L17.1338 13.9384C16.5943 13.6659 16.25 13.1133 16.25 12.504V10V9.99811C16.25 9.91267 16.2467 9.82748 16.2405 9.74232C15.2023 9.80864 14.1418 9.44509 13.3483 8.65165C12.5549 7.85822 12.1913 6.79769 12.2577 5.75949ZM9.64999 20C9.64999 19.5858 9.98578 19.25 10.4 19.25H13.6C14.0142 19.25 14.35 19.5858 14.35 20C14.35 20.4142 14.0142 20.75 13.6 20.75H10.4C9.98578 20.75 9.64999 20.4142 9.64999 20Z" fill="white"/>
</svg>
