<svg width="24" height="24" viewBox="0 0 24 24" fill="none" xmlns="http://www.w3.org/2000/svg">
<g clip-path="url(#clip0_7_1678)">
<mask id="mask0_7_1678" style="mask-type:luminance" maskUnits="userSpaceOnUse" x="0" y="0" width="24" height="24">
<path d="M24 0H0V24H24V0Z" fill="white"/>
</mask>
<g mask="url(#mask0_7_1678)">
<path d="M19.0001 7.7C19.7001 7.7 20.4001 7.4 20.9001 6.9C21.4001 6.4 21.7001 5.7 21.7001 5C21.7001 4.3 21.4001 3.6 20.9001 3.1C19.9001 2.1 18.1001 2.1 17.0001 3.1C16.5001 3.6 16.2001 4.3 16.2001 5C16.2001 5.7 16.5001 6.4 17.0001 6.9C17.6001 7.5 18.3001 7.7 19.0001 7.7ZM18.1001 4.1C18.3001 3.9 18.6001 3.7 19.0001 3.7C19.4001 3.7 19.6001 3.8 19.9001 4.1C20.1001 4.3 20.3001 4.7 20.3001 5C20.3001 5.3 20.2001 5.6 19.9001 5.9C19.4001 6.4 18.6001 6.4 18.1001 5.9C17.9001 5.7 17.7001 5.4 17.7001 5C17.8001 4.7 17.9001 4.4 18.1001 4.1Z" fill="white"/>
<path d="M20.7001 9.2C20.3001 9.3 20.0001 9.7 20.1001 10.1C20.2001 10.5 20.2001 10.9 20.2001 11.3C20.2001 15.4 16.5001 18.7 12.0001 18.7C11.5001 18.7 10.9001 18.6 10.3001 18.5C10.1001 18.4 9.9001 18.5 9.8001 18.5L7.4001 19.7V17.7C7.4001 17.5 7.3001 17.2 7.1001 17.1C5.0001 15.7 3.8001 13.5 3.8001 11.2C3.8001 7.1 7.5001 3.8 12.0001 3.8C12.6001 3.8 13.2001 3.9 13.8001 4C14.2001 4.1 14.6001 3.8 14.7001 3.4C14.8001 3 14.5001 2.6 14.1001 2.5C13.4001 2.3 12.6001 2.3 11.9001 2.3C6.5001 2.3 2.1001 6.3 2.1001 11.2C2.1001 13.9 3.4001 16.4 5.7001 18.1V20.9C5.7001 21.2 5.8001 21.4 6.1001 21.5C6.2001 21.6 6.4001 21.6 6.5001 21.6C6.6001 21.6 6.7001 21.6 6.8001 21.5L10.1001 19.9C10.7001 20 11.3001 20 11.9001 20C17.3001 20 21.7001 16 21.7001 11.1C21.7001 10.6 21.7001 10.2 21.6001 9.7C21.5001 9.4 21.2001 9.1 20.7001 9.2Z" fill="white"/>
</g>
</g>
<defs>
<clipPath id="clip0_7_1678">
<rect width="24" height="24" fill="white"/>
</clipPath>
</defs>
</svg>
