<svg width="24" height="24" viewBox="0 0 24 24" fill="none" xmlns="http://www.w3.org/2000/svg">
<path d="M17.8839 4.11612C17.3957 3.62796 16.6043 3.62796 16.1161 4.11612C15.6279 4.60427 15.6279 5.39573 16.1161 5.88389C16.6043 6.37204 17.3957 6.37204 17.8839 5.88389C18.372 5.39573 18.372 4.60427 17.8839 4.11612ZM18.9445 3.05546C20.0185 4.1294 20.0185 5.8706 18.9445 6.94455C17.8706 8.01849 16.1294 8.01849 15.0554 6.94455C13.9815 5.8706 13.9815 4.1294 15.0554 3.05546C16.1294 1.98151 17.8706 1.98151 18.9445 3.05546ZM10.11 18.5C10.11 18.0858 10.4458 17.75 10.86 17.75H13.11C13.5242 17.75 13.86 18.0858 13.86 18.5C13.86 18.9142 13.5242 19.25 13.11 19.25H10.86C10.4458 19.25 10.11 18.9142 10.11 18.5ZM7.75 7C7.75 6.30921 8.30921 5.75 9 5.75H12C12.4142 5.75 12.75 5.41421 12.75 5C12.75 4.58579 12.4142 4.25 12 4.25H9C7.48079 4.25 6.25 5.48079 6.25 7V19C6.25 20.5192 7.48079 21.75 9 21.75H15C16.5192 21.75 17.75 20.5192 17.75 19V10C17.75 9.58579 17.4142 9.25 17 9.25C16.5858 9.25 16.25 9.58579 16.25 10V19C16.25 19.6908 15.6908 20.25 15 20.25H9C8.30921 20.25 7.75 19.6908 7.75 19V7Z" fill="white"/>
</svg>
